  0
SECTION
  2
HEADER
  9
$ACADVER
  1
AC1027
  9
$ACADMAINTVER
 70
105
  9
$DWGCODEPAGE
  3
ANSI_1252
  9
$LASTSAVEDBY
  1
ezdxf
  9
$REQUIREDVERSIONS
160
0
  9
$INSBASE
 10
0.0
 20
0.0
 30
0.0
  9
$EXTMIN
 10
1e+20
 20
1e+20
 30
1e+20
  9
$EXTMAX
 10
-1e+20
 20
-1e+20
 30
-1e+20
  9
$LIMMIN
 10
0.0
 20
0.0
  9
$LIMMAX
 10
420.0
 20
297.0
  9
$ORTHOMODE
 70
0
  9
$REGENMODE
 70
1
  9
$FILLMODE
 70
1
  9
$QTEXTMODE
 70
0
  9
$MIRRTEXT
 70
1
  9
$LTSCALE
 40
1.0
  9
$ATTMODE
 70
1
  9
$TEXTSIZE
 40
2.5
  9
$TRACEWID
 40
1.0
  9
$TEXTSTYLE
  7
OpenSans
  9
$CLAYER
  8
0
  9
$CELTYPE
  6
ByLayer
  9
$CECOLOR
 62
256
  9
$CELTSCALE
 40
1.0
  9
$DISPSILH
 70
0
  9
$DIMSCALE
 40
1.0
  9
$DIMASZ
 40
0.175
  9
$DIMEXO
 40
0.125
  9
$DIMDLI
 40
3.75
  9
$DIMRND
 40
0.0
  9
$DIMDLE
 40
0.0
  9
$DIMEXE
 40
0.375
  9
$DIMTP
 40
0.0
  9
$DIMTM
 40
0.0
  9
$DIMTXT
 40
0.25
  9
$DIMCEN
 40
2.5
  9
$DIMTSZ
 40
0.0
  9
$DIMTOL
 70
0
  9
$DIMLIM
 70
0
  9
$DIMTIH
 70
0
  9
$DIMTOH
 70
0
  9
$DIMSE1
 70
0
  9
$DIMSE2
 70
0
  9
$DIMTAD
 70
1
  9
$DIMZIN
 70
12
  9
$DIMBLK
  1
ARCHTICK
  9
$DIMASO
 70
1
  9
$DIMSHO
 70
1
  9
$DIMPOST
  1

  9
$DIMAPOST
  1

  9
$DIMALT
 70
0
  9
$DIMALTD
 70
3
  9
$DIMALTF
 40
0.03937007874
  9
$DIMLFAC
 40
100.0
  9
$DIMTOFL
 70
1
  9
$DIMTVP
 40
0.0
  9
$DIMTIX
 70
0
  9
$DIMSOXD
 70
0
  9
$DIMSAH
 70
0
  9
$DIMBLK1
  1

  9
$DIMBLK2
  1

  9
$DIMSTYLE
  2
EZDXF
  9
$DIMCLRD
 70
0
  9
$DIMCLRE
 70
0
  9
$DIMCLRT
 70
0
  9
$DIMTFAC
 40
0.5
  9
$DIMGAP
 40
0.1
  9
$DIMJUST
 70
0
  9
$DIMSD1
 70
0
  9
$DIMSD2
 70
0
  9
$DIMTOLJ
 70
0
  9
$DIMTZIN
 70
8
  9
$DIMALTZ
 70
0
  9
$DIMALTTZ
 70
0
  9
$DIMUPT
 70
1
  9
$DIMDEC
 70
2
  9
$DIMTDEC
 70
2
  9
$DIMALTU
 70
2
  9
$DIMALTTD
 70
3
  9
$DIMTXSTY
  7
OpenSansCondensed-Light
  9
$DIMAUNIT
 70
0
  9
$DIMADEC
 70
2
  9
$DIMALTRND
 40
0.0
  9
$DIMAZIN
 70
3
  9
$DIMDSEP
 70
46
  9
$DIMATFIT
 70
3
  9
$DIMFRAC
 70
0
  9
$DIMLDRBLK
  1

  9
$DIMLUNIT
 70
2
  9
$DIMLWD
 70
-2
  9
$DIMLWE
 70
-2
  9
$DIMTMOVE
 70
2
  9
$DIMFXL
 40
1.0
  9
$DIMFXLON
 70
0
  9
$DIMJOGANG
 40
0.785398163397
  9
$DIMTFILL
 70
0
  9
$DIMTFILLCLR
 70
0
  9
$DIMARCSYM
 70
0
  9
$DIMLTYPE
  6

  9
$DIMLTEX1
  6

  9
$DIMLTEX2
  6

  9
$DIMTXTDIRECTION
 70
0
  9
$LUNITS
 70
2
  9
$LUPREC
 70
4
  9
$SKETCHINC
 40
1.0
  9
$FILLETRAD
 40
10.0
  9
$AUNITS
 70
0
  9
$AUPREC
 70
2
  9
$MENU
  1
.
  9
$ELEVATION
 40
0.0
  9
$PELEVATION
 40
0.0
  9
$THICKNESS
 40
0.0
  9
$LIMCHECK
 70
0
  9
$CHAMFERA
 40
0.0
  9
$CHAMFERB
 40
0.0
  9
$CHAMFERC
 40
0.0
  9
$CHAMFERD
 40
0.0
  9
$SKPOLY
 70
0
  9
$TDCREATE
 40
2460831.7360416665
  9
$TDUCREATE
 40
2458532.153996898
  9
$TDUPDATE
 40
2460831.7360416665
  9
$TDUUPDATE
 40
2458532.1544311
  9
$TDINDWG
 40
0.0
  9
$TDUSRTIMER
 40
0.0
  9
$USRTIMER
 70
1
  9
$ANGBASE
 50
0.0
  9
$ANGDIR
 70
0
  9
$PDMODE
 70
0
  9
$PDSIZE
 40
0.0
  9
$PLINEWID
 40
0.0
  9
$SPLFRAME
 70
0
  9
$SPLINETYPE
 70
6
  9
$SPLINESEGS
 70
8
  9
$HANDSEED
  5
8F
  9
$SURFTAB1
 70
6
  9
$SURFTAB2
 70
6
  9
$SURFTYPE
 70
6
  9
$SURFU
 70
6
  9
$SURFV
 70
6
  9
$UCSBASE
  2

  9
$UCSNAME
  2

  9
$UCSORG
 10
0.0
 20
0.0
 30
0.0
  9
$UCSXDIR
 10
1.0
 20
0.0
 30
0.0
  9
$UCSYDIR
 10
0.0
 20
1.0
 30
0.0
  9
$UCSORTHOREF
  2

  9
$UCSORTHOVIEW
 70
0
  9
$UCSORGTOP
 10
0.0
 20
0.0
 30
0.0
  9
$UCSORGBOTTOM
 10
0.0
 20
0.0
 30
0.0
  9
$UCSORGLEFT
 10
0.0
 20
0.0
 30
0.0
  9
$UCSORGRIGHT
 10
0.0
 20
0.0
 30
0.0
  9
$UCSORGFRONT
 10
0.0
 20
0.0
 30
0.0
  9
$UCSORGBACK
 10
0.0
 20
0.0
 30
0.0
  9
$PUCSBASE
  2

  9
$PUCSNAME
  2

  9
$PUCSORG
 10
0.0
 20
0.0
 30
0.0
  9
$PUCSXDIR
 10
1.0
 20
0.0
 30
0.0
  9
$PUCSYDIR
 10
0.0
 20
1.0
 30
0.0
  9
$PUCSORTHOREF
  2

  9
$PUCSORTHOVIEW
 70
0
  9
$PUCSORGTOP
 10
0.0
 20
0.0
 30
0.0
  9
$PUCSORGBOTTOM
 10
0.0
 20
0.0
 30
0.0
  9
$PUCSORGLEFT
 10
0.0
 20
0.0
 30
0.0
  9
$PUCSORGRIGHT
 10
0.0
 20
0.0
 30
0.0
  9
$PUCSORGFRONT
 10
0.0
 20
0.0
 30
0.0
  9
$PUCSORGBACK
 10
0.0
 20
0.0
 30
0.0
  9
$USERI1
 70
0
  9
$USERI2
 70
0
  9
$USERI3
 70
0
  9
$USERI4
 70
0
  9
$USERI5
 70
0
  9
$USERR1
 40
0.0
  9
$USERR2
 40
0.0
  9
$USERR3
 40
0.0
  9
$USERR4
 40
0.0
  9
$USERR5
 40
0.0
  9
$WORLDVIEW
 70
1
  9
$SHADEDGE
 70
3
  9
$SHADEDIF
 70
70
  9
$TILEMODE
 70
1
  9
$MAXACTVP
 70
64
  9
$PINSBASE
 10
0.0
 20
0.0
 30
0.0
  9
$PLIMCHECK
 70
0
  9
$PEXTMIN
 10
1e+20
 20
1e+20
 30
1e+20
  9
$PEXTMAX
 10
-1e+20
 20
-1e+20
 30
-1e+20
  9
$PLIMMIN
 10
0.0
 20
0.0
  9
$PLIMMAX
 10
420.0
 20
297.0
  9
$UNITMODE
 70
0
  9
$VISRETAIN
 70
1
  9
$PLINEGEN
 70
0
  9
$PSLTSCALE
 70
1
  9
$TREEDEPTH
 70
3020
  9
$CMLSTYLE
  2
Standard
  9
$CMLJUST
 70
0
  9
$CMLSCALE
 40
20.0
  9
$PROXYGRAPHICS
 70
1
  9
$MEASUREMENT
 70
1
  9
$CELWEIGHT
370
-1
  9
$ENDCAPS
280
0
  9
$JOINSTYLE
280
0
  9
$LWDISPLAY
290
0
  9
$INSUNITS
 70
6
  9
$HYPERLINKBASE
  1

  9
$STYLESHEET
  1

  9
$XEDIT
290
1
  9
$CEPSNTYPE
380
0
  9
$PSTYLEMODE
290
1
  9
$FINGERPRINTGUID
  2
{C7301ED9-A956-46AF-8DAA-BF5938BAB56B}
  9
$VERSIONGUID
  2
{3D546A4E-1BC9-4695-9DF6-C6B5A3AB4A28}
  9
$EXTNAMES
290
1
  9
$PSVPSCALE
 40
0.0
  9
$OLESTARTUP
290
0
  9
$SORTENTS
280
127
  9
$INDEXCTL
280
0
  9
$HIDETEXT
280
1
  9
$XCLIPFRAME
280
1
  9
$HALOGAP
280
0
  9
$OBSCOLOR
 70
257
  9
$OBSLTYPE
280
0
  9
$INTERSECTIONDISPLAY
280
0
  9
$INTERSECTIONCOLOR
 70
257
  9
$DIMASSOC
280
2
  9
$PROJECTNAME
  1

  9
$CAMERADISPLAY
290
0
  9
$LENSLENGTH
 40
50.0
  9
$CAMERAHEIGHT
 40
0.0
  9
$STEPSPERSEC
 40
24.0
  9
$STEPSIZE
 40
100.0
  9
$3DDWFPREC
 40
2.0
  9
$PSOLWIDTH
 40
0.005
  9
$PSOLHEIGHT
 40
0.08
  9
$LOFTANG1
 40
1.570796326795
  9
$LOFTANG2
 40
1.570796326795
  9
$LOFTMAG1
 40
0.0
  9
$LOFTMAG2
 40
0.0
  9
$LOFTPARAM
 70
7
  9
$LOFTNORMALS
280
1
  9
$LATITUDE
 40
37.795
  9
$LONGITUDE
 40
-122.394
  9
$NORTHDIRECTION
 40
0.0
  9
$TIMEZONE
 70
-8000
  9
$LIGHTGLYPHDISPLAY
280
1
  9
$TILEMODELIGHTSYNCH
280
1
  9
$CMATERIAL
347
20
  9
$SOLIDHIST
280
0
  9
$SHOWHIST
280
1
  9
$DWFFRAME
280
2
  9
$DGNFRAME
280
2
  9
$REALWORLDSCALE
290
1
  9
$INTERFERECOLOR
 62
256
  9
$CSHADOW
280
0
  9
$SHADOWPLANELOCATION
 40
0.0
  0
ENDSEC
  0
SECTION
  2
CLASSES
  0
CLASS
  1
ACDBDICTIONARYWDFLT
  2
AcDbDictionaryWithDefault
  3
ObjectDBX Classes
 90
0
 91
0
280
0
281
0
  0
CLASS
  1
SUN
  2
AcDbSun
  3
SCENEOE
 90
1153
 91
0
280
0
281
0
  0
CLASS
  1
VISUALSTYLE
  2
AcDbVisualStyle
  3
ObjectDBX Classes
 90
4095
 91
0
280
0
281
0
  0
CLASS
  1
MATERIAL
  2
AcDbMaterial
  3
ObjectDBX Classes
 90
1153
 91
0
280
0
281
0
  0
CLASS
  1
SCALE
  2
AcDbScale
  3
ObjectDBX Classes
 90
1153
 91
0
280
0
281
0
  0
CLASS
  1
TABLESTYLE
  2
AcDbTableStyle
  3
ObjectDBX Classes
 90
4095
 91
0
280
0
281
0
  0
CLASS
  1
MLEADERSTYLE
  2
AcDbMLeaderStyle
  3
ACDB_MLEADERSTYLE_CLASS
 90
4095
 91
0
280
0
281
0
  0
CLASS
  1
DICTIONARYVAR
  2
AcDbDictionaryVar
  3
ObjectDBX Classes
 90
0
 91
0
280
0
281
0
  0
CLASS
  1
CELLSTYLEMAP
  2
AcDbCellStyleMap
  3
ObjectDBX Classes
 90
1152
 91
0
280
0
281
0
  0
CLASS
  1
MENTALRAYRENDERSETTINGS
  2
AcDbMentalRayRenderSettings
  3
SCENEOE
 90
1024
 91
0
280
0
281
0
  0
CLASS
  1
ACDBDETAILVIEWSTYLE
  2
AcDbDetailViewStyle
  3
ObjectDBX Classes
 90
1025
 91
0
280
0
281
0
  0
CLASS
  1
ACDBSECTIONVIEWSTYLE
  2
AcDbSectionViewStyle
  3
ObjectDBX Classes
 90
1025
 91
0
280
0
281
0
  0
CLASS
  1
RASTERVARIABLES
  2
AcDbRasterVariables
  3
ISM
 90
0
 91
0
280
0
281
0
  0
CLASS
  1
LAYOUT
  2
AcDbLayout
  3
ObjectDBX Classes
 90
0
 91
0
280
0
281
0
  0
CLASS
  1
ACDBPLACEHOLDER
  2
AcDbPlaceHolder
  3
ObjectDBX Classes
 90
0
 91
0
280
0
281
0
  0
ENDSEC
  0
SECTION
  2
TABLES
  0
TABLE
  2
VPORT
  5
8
330
0
100
AcDbSymbolTable
 70
1
  0
VPORT
  5
23
330
8
100
AcDbSymbolTableRecord
100
AcDbViewportTableRecord
  2
*Active
 70
0
 10
0.0
 20
0.0
 11
1.0
 21
1.0
 12
0.0
 22
0.0
 13
0.0
 23
0.0
 14
0.5
 24
0.5
 15
0.5
 25
0.5
 16
0.0
 26
0.0
 36
1.0
 17
0.0
 27
0.0
 37
0.0
 40
1000.0
 41
1.34
 42
50.0
 43
0.0
 44
0.0
 50
0.0
 51
0.0
 71
0
 72
1000
 73
1
 74
3
 75
0
 76
0
 77
0
 78
0
281
0
 65
0
146
0.0
  0
ENDTAB
  0
TABLE
  2
LTYPE
  5
2
330
0
100
AcDbSymbolTable
 70
21
  0
LTYPE
  5
24
330
2
100
AcDbSymbolTableRecord
100
AcDbLinetypeTableRecord
  2
ByBlock
 70
0
  3

 72
65
 73
0
 40
0.0
  0
LTYPE
  5
25
330
2
100
AcDbSymbolTableRecord
100
AcDbLinetypeTableRecord
  2
ByLayer
 70
0
  3

 72
65
 73
0
 40
0.0
  0
LTYPE
  5
26
330
2
100
AcDbSymbolTableRecord
100
AcDbLinetypeTableRecord
  2
Continuous
 70
0
  3

 72
65
 73
0
 40
0.0
  0
LTYPE
  5
2F
330
2
100
AcDbSymbolTableRecord
100
AcDbLinetypeTableRecord
  2
CENTER
 70
0
  3
Center ____ _ ____ _ ____ _ ____ _ ____ _ ____
 72
65
 73
4
 40
5.08
 49
3.175
 74
0
 49
-0.635
 74
0
 49
0.635
 74
0
 49
-0.635
 74
0
  0
LTYPE
  5
30
330
2
100
AcDbSymbolTableRecord
100
AcDbLinetypeTableRecord
  2
CENTERX2
 70
0
  3
Center (2x) ________  __  ________  __  ________
 72
65
 73
4
 40
8.89
 49
6.35
 74
0
 49
-0.635
 74
0
 49
1.27
 74
0
 49
-0.635
 74
0
  0
LTYPE
  5
31
330
2
100
AcDbSymbolTableRecord
100
AcDbLinetypeTableRecord
  2
CENTER2
 70
0
  3
Center (.5x) ____ _ ____ _ ____ _ ____ _ ____
 72
65
 73
4
 40
2.54
 49
1.587
 74
0
 49
-0.318
 74
0
 49
0.318
 74
0
 49
-0.318
 74
0
  0
LTYPE
  5
32
330
2
100
AcDbSymbolTableRecord
100
AcDbLinetypeTableRecord
  2
DASHED
 70
0
  3
Dashed __ __ __ __ __ __ __ __ __ __ __ __ __ _
 72
65
 73
2
 40
1.524
 49
1.27
 74
0
 49
-0.254
 74
0
  0
LTYPE
  5
33
330
2
100
AcDbSymbolTableRecord
100
AcDbLinetypeTableRecord
  2
DASHEDX2
 70
0
  3
Dashed (2x) ____  ____  ____  ____  ____  ____
 72
65
 73
2
 40
3.048
 49
2.54
 74
0
 49
-0.508
 74
0
  0
LTYPE
  5
34
330
2
100
AcDbSymbolTableRecord
100
AcDbLinetypeTableRecord
  2
DASHED2
 70
0
  3
Dashed (.5x) _ _ _ _ _ _ _ _ _ _ _ _ _ _
 72
65
 73
2
 40
0.762
 49
0.635
 74
0
 49
-0.127
 74
0
  0
LTYPE
  5
35
330
2
100
AcDbSymbolTableRecord
100
AcDbLinetypeTableRecord
  2
PHANTOM
 70
0
  3
Phantom ______  __  __  ______  __  __  ______
 72
65
 73
6
 40
6.35
 49
3.175
 74
0
 49
-0.635
 74
0
 49
0.635
 74
0
 49
-0.635
 74
0
 49
0.635
 74
0
 49
-0.635
 74
0
  0
LTYPE
  5
36
330
2
100
AcDbSymbolTableRecord
100
AcDbLinetypeTableRecord
  2
PHANTOMX2
 70
0
  3
Phantom (2x)____________    ____    ____    ____________
 72
65
 73
6
 40
10.795
 49
6.35
 74
0
 49
-0.635
 74
0
 49
1.27
 74
0
 49
-0.635
 74
0
 49
1.27
 74
0
 49
-0.635
 74
0
  0
LTYPE
  5
37
330
2
100
AcDbSymbolTableRecord
100
AcDbLinetypeTableRecord
  2
PHANTOM2
 70
0
  3
Phantom (.5x) ___ _ _ ___ _ _ ___ _ _ ___ _ _ ___
 72
65
 73
6
 40
3.175
 49
1.587
 74
0
 49
-0.318
 74
0
 49
0.318
 74
0
 49
-0.318
 74
0
 49
0.318
 74
0
 49
-0.318
 74
0
  0
LTYPE
  5
38
330
2
100
AcDbSymbolTableRecord
100
AcDbLinetypeTableRecord
  2
DASHDOT
 70
0
  3
Dash dot __ . __ . __ . __ . __ . __ . __ . __
 72
65
 73
4
 40
3.556
 49
2.54
 74
0
 49
-0.508
 74
0
 49
0.0
 74
0
 49
-0.508
 74
0
  0
LTYPE
  5
39
330
2
100
AcDbSymbolTableRecord
100
AcDbLinetypeTableRecord
  2
DASHDOTX2
 70
0
  3
Dash dot (2x) ____  .  ____  .  ____  .  ____
 72
65
 73
4
 40
6.096
 49
5.08
 74
0
 49
-0.508
 74
0
 49
0.0
 74
0
 49
-0.508
 74
0
  0
LTYPE
  5
3A
330
2
100
AcDbSymbolTableRecord
100
AcDbLinetypeTableRecord
  2
DASHDOT2
 70
0
  3
Dash dot (.5x) _ . _ . _ . _ . _ . _ . _ . _
 72
65
 73
4
 40
1.778
 49
1.27
 74
0
 49
-0.254
 74
0
 49
0.0
 74
0
 49
-0.254
 74
0
  0
LTYPE
  5
3B
330
2
100
AcDbSymbolTableRecord
100
AcDbLinetypeTableRecord
  2
DOT
 70
0
  3
Dot .  .  .  .  .  .  .  .  .  .  .  .  .  .  .  .
 72
65
 73
2
 40
0.508
 49
0.0
 74
0
 49
-0.508
 74
0
  0
LTYPE
  5
3C
330
2
100
AcDbSymbolTableRecord
100
AcDbLinetypeTableRecord
  2
DOTX2
 70
0
  3
Dot (2x) .    .    .    .    .    .    .    . 
 72
65
 73
2
 40
1.016
 49
0.0
 74
0
 49
-1.016
 74
0
  0
LTYPE
  5
3D
330
2
100
AcDbSymbolTableRecord
100
AcDbLinetypeTableRecord
  2
DOT2
 70
0
  3
Dot (.5) . . . . . . . . . . . . . . . . . . . 
 72
65
 73
2
 40
0.254
 49
0.0
 74
0
 49
-0.254
 74
0
  0
LTYPE
  5
3E
330
2
100
AcDbSymbolTableRecord
100
AcDbLinetypeTableRecord
  2
DIVIDE
 70
0
  3
Divide __ . . __ . . __ . . __ . . __ . . __
 72
65
 73
6
 40
4.064
 49
2.54
 74
0
 49
-0.508
 74
0
 49
0.0
 74
0
 49
-0.508
 74
0
 49
0.0
 74
0
 49
-0.508
 74
0
  0
LTYPE
  5
3F
330
2
100
AcDbSymbolTableRecord
100
AcDbLinetypeTableRecord
  2
DIVIDEX2
 70
0
  3
Divide (2x) ____  . .  ____  . .  ____  . .  ____
 72
65
 73
6
 40
6.604
 49
5.08
 74
0
 49
-0.508
 74
0
 49
0.0
 74
0
 49
-0.508
 74
0
 49
0.0
 74
0
 49
-0.508
 74
0
  0
LTYPE
  5
40
330
2
100
AcDbSymbolTableRecord
100
AcDbLinetypeTableRecord
  2
DIVIDE2
 70
0
  3
Divide(.5x) _ . _ . _ . _ . _ . _ . _ . _
 72
65
 73
6
 40
2.032
 49
1.27
 74
0
 49
-0.254
 74
0
 49
0.0
 74
0
 49
-0.254
 74
0
 49
0.0
 74
0
 49
-0.254
 74
0
  0
ENDTAB
  0
TABLE
  2
LAYER
  5
1
330
0
100
AcDbSymbolTable
 70
2
  0
LAYER
  5
27
330
1
100
AcDbSymbolTableRecord
100
AcDbLayerTableRecord
  2
0
 70
0
 62
7
  6
Continuous
370
-3
390
13
347
21
  0
LAYER
  5
28
330
1
100
AcDbSymbolTableRecord
100
AcDbLayerTableRecord
  2
Defpoints
 70
0
 62
7
  6
Continuous
290
0
370
-3
390
13
347
21
  0
ENDTAB
  0
TABLE
  2
STYLE
  5
5
330
0
100
AcDbSymbolTable
 70
26
  0
STYLE
  5
29
330
5
100
AcDbSymbolTableRecord
100
AcDbTextStyleTableRecord
  2
Standard
 70
0
 40
0.0
 41
1.0
 50
0.0
 71
0
 42
2.5
  3
txt
  4

  0
STYLE
  5
41
330
5
100
AcDbSymbolTableRecord
100
AcDbTextStyleTableRecord
  2
OpenSans-Light
 70
0
 40
0.0
 41
1.0
 50
0.0
 71
0
 42
2.5
  3
OpenSans-Light.ttf
  4

  0
STYLE
  5
42
330
5
100
AcDbSymbolTableRecord
100
AcDbTextStyleTableRecord
  2
OpenSans-Light-Italic
 70
0
 40
0.0
 41
1.0
 50
0.0
 71
0
 42
2.5
  3
OpenSans-LightItalic.ttf
  4

  0
STYLE
  5
43
330
5
100
AcDbSymbolTableRecord
100
AcDbTextStyleTableRecord
  2
OpenSans
 70
0
 40
0.0
 41
1.0
 50
0.0
 71
0
 42
2.5
  3
OpenSans-Regular.ttf
  4

  0
STYLE
  5
44
330
5
100
AcDbSymbolTableRecord
100
AcDbTextStyleTableRecord
  2
OpenSans-Italic
 70
0
 40
0.0
 41
1.0
 50
0.0
 71
0
 42
2.5
  3
OpenSans-Italic.ttf
  4

  0
STYLE
  5
45
330
5
100
AcDbSymbolTableRecord
100
AcDbTextStyleTableRecord
  2
OpenSans-SemiBold
 70
0
 40
0.0
 41
1.0
 50
0.0
 71
0
 42
2.5
  3
OpenSans-SemiBold.ttf
  4

  0
STYLE
  5
46
330
5
100
AcDbSymbolTableRecord
100
AcDbTextStyleTableRecord
  2
OpenSans-SemiBoldItalic
 70
0
 40
0.0
 41
1.0
 50
0.0
 71
0
 42
2.5
  3
OpenSans-SemiBoldItalic.ttf
  4

  0
STYLE
  5
47
330
5
100
AcDbSymbolTableRecord
100
AcDbTextStyleTableRecord
  2
OpenSans-Bold
 70
0
 40
0.0
 41
1.0
 50
0.0
 71
0
 42
2.5
  3
OpenSans-Bold.ttf
  4

  0
STYLE
  5
48
330
5
100
AcDbSymbolTableRecord
100
AcDbTextStyleTableRecord
  2
OpenSans-BoldItalic
 70
0
 40
0.0
 41
1.0
 50
0.0
 71
0
 42
2.5
  3
OpenSans-BoldItalic.ttf
  4

  0
STYLE
  5
49
330
5
100
AcDbSymbolTableRecord
100
AcDbTextStyleTableRecord
  2
OpenSans-ExtraBold
 70
0
 40
0.0
 41
1.0
 50
0.0
 71
0
 42
2.5
  3
OpenSans-ExtraBold.ttf
  4

  0
STYLE
  5
4A
330
5
100
AcDbSymbolTableRecord
100
AcDbTextStyleTableRecord
  2
OpenSans-ExtraBoldItalic
 70
0
 40
0.0
 41
1.0
 50
0.0
 71
0
 42
2.5
  3
OpenSans-ExtraBoldItalic.ttf
  4

  0
STYLE
  5
4B
330
5
100
AcDbSymbolTableRecord
100
AcDbTextStyleTableRecord
  2
OpenSansCondensed-Bold
 70
0
 40
0.0
 41
1.0
 50
0.0
 71
0
 42
2.5
  3
OpenSansCondensed-Bold.ttf
  4

  0
STYLE
  5
4C
330
5
100
AcDbSymbolTableRecord
100
AcDbTextStyleTableRecord
  2
OpenSansCondensed-Light
 70
0
 40
0.0
 41
1.0
 50
0.0
 71
0
 42
2.5
  3
OpenSansCondensed-Light.ttf
  4

  0
STYLE
  5
4D
330
5
100
AcDbSymbolTableRecord
100
AcDbTextStyleTableRecord
  2
OpenSansCondensed-Italic
 70
0
 40
0.0
 41
1.0
 50
0.0
 71
0
 42
2.5
  3
OpenSansCondensed-LightItalic.ttf
  4

  0
STYLE
  5
4E
330
5
100
AcDbSymbolTableRecord
100
AcDbTextStyleTableRecord
  2
LiberationSans
 70
0
 40
0.0
 41
1.0
 50
0.0
 71
0
 42
2.5
  3
LiberationSans-Regular.ttf
  4

  0
STYLE
  5
4F
330
5
100
AcDbSymbolTableRecord
100
AcDbTextStyleTableRecord
  2
LiberationSans-Bold
 70
0
 40
0.0
 41
1.0
 50
0.0
 71
0
 42
2.5
  3
LiberationSans-Bold.ttf
  4

  0
STYLE
  5
50
330
5
100
AcDbSymbolTableRecord
100
AcDbTextStyleTableRecord
  2
LiberationSans-BoldItalic
 70
0
 40
0.0
 41
1.0
 50
0.0
 71
0
 42
2.5
  3
LiberationSans-BoldItalic.ttf
  4

  0
STYLE
  5
51
330
5
100
AcDbSymbolTableRecord
100
AcDbTextStyleTableRecord
  2
LiberationSans-Italic
 70
0
 40
0.0
 41
1.0
 50
0.0
 71
0
 42
2.5
  3
LiberationSans-Italic.ttf
  4

  0
STYLE
  5
52
330
5
100
AcDbSymbolTableRecord
100
AcDbTextStyleTableRecord
  2
LiberationSerif
 70
0
 40
0.0
 41
1.0
 50
0.0
 71
0
 42
2.5
  3
LiberationSerif-Regular.ttf
  4

  0
STYLE
  5
53
330
5
100
AcDbSymbolTableRecord
100
AcDbTextStyleTableRecord
  2
LiberationSerif-Bold
 70
0
 40
0.0
 41
1.0
 50
0.0
 71
0
 42
2.5
  3
LiberationSerif-Bold.ttf
  4

  0
STYLE
  5
54
330
5
100
AcDbSymbolTableRecord
100
AcDbTextStyleTableRecord
  2
LiberationSerif-BoldItalic
 70
0
 40
0.0
 41
1.0
 50
0.0
 71
0
 42
2.5
  3
LiberationSerif-BoldItalic.ttf
  4

  0
STYLE
  5
55
330
5
100
AcDbSymbolTableRecord
100
AcDbTextStyleTableRecord
  2
LiberationSerif-Italic
 70
0
 40
0.0
 41
1.0
 50
0.0
 71
0
 42
2.5
  3
LiberationSerif-Italic.ttf
  4

  0
STYLE
  5
56
330
5
100
AcDbSymbolTableRecord
100
AcDbTextStyleTableRecord
  2
LiberationMono
 70
0
 40
0.0
 41
1.0
 50
0.0
 71
0
 42
2.5
  3
LiberationMono-Regular.ttf
  4

  0
STYLE
  5
57
330
5
100
AcDbSymbolTableRecord
100
AcDbTextStyleTableRecord
  2
LiberationMono-Bold
 70
0
 40
0.0
 41
1.0
 50
0.0
 71
0
 42
2.5
  3
LiberationMono-Bold.ttf
  4

  0
STYLE
  5
58
330
5
100
AcDbSymbolTableRecord
100
AcDbTextStyleTableRecord
  2
LiberationMono-BoldItalic
 70
0
 40
0.0
 41
1.0
 50
0.0
 71
0
 42
2.5
  3
LiberationMono-BoldItalic.ttf
  4

  0
STYLE
  5
59
330
5
100
AcDbSymbolTableRecord
100
AcDbTextStyleTableRecord
  2
LiberationMono-Italic
 70
0
 40
0.0
 41
1.0
 50
0.0
 71
0
 42
2.5
  3
LiberationMono-Italic.ttf
  4

  0
ENDTAB
  0
TABLE
  2
VIEW
  5
7
330
0
100
AcDbSymbolTable
 70
0
  0
ENDTAB
  0
TABLE
  2
UCS
  5
6
330
0
100
AcDbSymbolTable
 70
0
  0
ENDTAB
  0
TABLE
  2
APPID
  5
3
330
0
100
AcDbSymbolTable
 70
3
  0
APPID
  5
2A
330
3
100
AcDbSymbolTableRecord
100
AcDbRegAppTableRecord
  2
ACAD
 70
0
  0
APPID
  5
8C
330
3
100
AcDbSymbolTableRecord
100
AcDbRegAppTableRecord
  2
HATCHBACKGROUNDCOLOR
 70
0
  0
APPID
  5
8D
330
3
100
AcDbSymbolTableRecord
100
AcDbRegAppTableRecord
  2
EZDXF
 70
0
  0
ENDTAB
  0
TABLE
  2
DIMSTYLE
  5
4
330
0
100
AcDbSymbolTable
 70
12
100
AcDbDimStyleTable
  0
DIMSTYLE
105
2B
330
4
100
AcDbSymbolTableRecord
100
AcDbDimStyleTableRecord
  2
Standard
 70
0
 40
1.0
 41
2.5
 42
0.625
 43
3.75
 44
1.25
 45
0.0
 46
0.0
 47
0.0
 48
0.0
 49
2.5
140
2.5
141
2.5
142
0.0
143
0.03937007874
144
1.0
145
0.0
146
1.0
147
0.625
148
0.0
 69
0
 70
0
 71
0
 72
0
 73
0
 74
0
 75
0
 76
0
 77
1
 78
8
 79
3
170
0
171
3
172
1
173
0
174
0
175
0
176
0
177
0
178
0
179
2
271
2
272
2
273
2
274
3
275
0
276
0
277
2
278
44
279
0
280
0
281
0
282
0
283
0
284
8
285
0
286
0
288
0
289
3
290
0
371
-2
372
-2
  0
DIMSTYLE
105
73
330
4
100
AcDbSymbolTableRecord
100
AcDbDimStyleTableRecord
  2
EZDXF
 70
0
 40
1.0
 41
0.175
 42
0.125
 43
3.75
 44
0.375
 45
0.0
 46
0.0
 47
0.0
 48
0.0
 49
2.5
140
0.25
141
2.5
142
0.0
143
0.03937007874
144
100.0
145
0.0
146
0.5
147
0.1
148
0.0
 69
0
 70
0
 71
0
 72
0
 73
0
 74
0
 75
0
 76
0
 77
1
 78
12
 79
3
170
0
171
3
172
1
173
0
174
0
175
0
176
0
177
0
178
0
179
2
271
2
272
2
273
2
274
3
275
0
276
0
277
2
278
46
279
2
280
0
281
0
282
0
283
0
284
8
285
0
286
0
288
1
289
3
290
0
340
4C
342
74
371
-2
372
-2
  0
DIMSTYLE
105
7C
330
4
100
AcDbSymbolTableRecord
100
AcDbDimStyleTableRecord
  2
EZ_M_100_H25_CM
 70
0
 40
1.0
 41
0.25
 42
0.125
 43
3.75
 44
0.375
 45
0.0
 46
0.0
 47
0.0
 48
0.0
 49
2.5
140
0.25
141
2.5
142
0.125
143
0.03937007874
144
100.0
145
0.0
146
0.5
147
0.1
148
0.0
 69
0
 70
0
 71
0
 72
0
 73
0
 74
0
 75
0
 76
0
 77
1
 78
12
 79
3
170
0
171
3
172
1
173
0
174
0
175
0
176
0
177
0
178
0
179
2
271
2
272
2
273
2
274
3
275
0
276
0
277
2
278
46
279
2
280
0
281
0
282
0
283
0
284
8
285
0
286
0
288
1
289
3
290
0
340
4C
371
-2
372
-2
  0
DIMSTYLE
105
7D
330
4
100
AcDbSymbolTableRecord
100
AcDbDimStyleTableRecord
  2
EZ_M_50_H25_CM
 70
0
 40
1.0
 41
0.125
 42
0.0625
 43
3.75
 44
0.1875
 45
0.0
 46
0.0
 47
0.0
 48
0.0
 49
2.5
140
0.125
141
2.5
142
0.0625
143
0.03937007874
144
100.0
145
0.0
146
0.5
147
0.05
148
0.0
 69
0
 70
0
 71
0
 72
0
 73
0
 74
0
 75
0
 76
0
 77
1
 78
12
 79
3
170
0
171
3
172
1
173
0
174
0
175
0
176
0
177
0
178
0
179
2
271
2
272
2
273
2
274
3
275
0
276
0
277
2
278
46
279
2
280
0
281
0
282
0
283
0
284
8
285
0
286
0
288
1
289
3
290
0
340
4C
371
-2
372
-2
  0
DIMSTYLE
105
7E
330
4
100
AcDbSymbolTableRecord
100
AcDbDimStyleTableRecord
  2
EZ_M_25_H25_CM
 70
0
 40
1.0
 41
0.0625
 42
0.03125
 43
3.75
 44
0.09375
 45
0.0
 46
0.0
 47
0.0
 48
0.0
 49
2.5
140
0.0625
141
2.5
142
0.03125
143
0.03937007874
144
100.0
145
0.0
146
0.5
147
0.025
148
0.0
 69
0
 70
0
 71
0
 72
0
 73
0
 74
0
 75
0
 76
0
 77
1
 78
12
 79
3
170
0
171
3
172
1
173
0
174
0
175
0
176
0
177
0
178
0
179
2
271
2
272
2
273
2
274
3
275
0
276
0
277
2
278
46
279
2
280
0
281
0
282
0
283
0
284
8
285
0
286
0
288
1
289
3
290
0
340
4C
371
-2
372
-2
  0
DIMSTYLE
105
7F
330
4
100
AcDbSymbolTableRecord
100
AcDbDimStyleTableRecord
  2
EZ_M_20_H25_CM
 70
0
 40
1.0
 41
0.05
 42
0.025
 43
3.75
 44
0.07500000000000001
 45
0.0
 46
0.0
 47
0.0
 48
0.0
 49
2.5
140
0.05
141
2.5
142
0.025
143
0.03937007874
144
100.0
145
0.0
146
0.5
147
0.020000000000000004
148
0.0
 69
0
 70
0
 71
0
 72
0
 73
0
 74
0
 75
0
 76
0
 77
1
 78
12
 79
3
170
0
171
3
172
1
173
0
174
0
175
0
176
0
177
0
178
0
179
2
271
2
272
2
273
2
274
3
275
0
276
0
277
2
278
46
279
2
280
0
281
0
282
0
283
0
284
8
285
0
286
0
288
1
289
3
290
0
340
4C
371
-2
372
-2
  0
DIMSTYLE
105
80
330
4
100
AcDbSymbolTableRecord
100
AcDbDimStyleTableRecord
  2
EZ_M_10_H25_CM
 70
0
 40
1.0
 41
0.025
 42
0.0125
 43
3.75
 44
0.037500000000000006
 45
0.0
 46
0.0
 47
0.0
 48
0.0
 49
2.5
140
0.025
141
2.5
142
0.0125
143
0.03937007874
144
100.0
145
0.0
146
0.5
147
0.010000000000000002
148
0.0
 69
0
 70
0
 71
0
 72
0
 73
0
 74
0
 75
0
 76
0
 77
1
 78
12
 79
3
170
0
171
3
172
1
173
0
174
0
175
0
176
0
177
0
178
0
179
2
271
2
272
2
273
2
274
3
275
0
276
0
277
2
278
46
279
2
280
0
281
0
282
0
283
0
284
8
285
0
286
0
288
1
289
3
290
0
340
4C
371
-2
372
-2
  0
DIMSTYLE
105
81
330
4
100
AcDbSymbolTableRecord
100
AcDbDimStyleTableRecord
  2
EZ_M_5_H25_CM
 70
0
 40
1.0
 41
0.0125
 42
0.00625
 43
3.75
 44
0.018750000000000003
 45
0.0
 46
0.0
 47
0.0
 48
0.0
 49
2.5
140
0.0125
141
2.5
142
0.00625
143
0.03937007874
144
100.0
145
0.0
146
0.5
147
0.005000000000000001
148
0.0
 69
0
 70
0
 71
0
 72
0
 73
0
 74
0
 75
0
 76
0
 77
1
 78
12
 79
3
170
0
171
3
172
1
173
0
174
0
175
0
176
0
177
0
178
0
179
2
271
2
272
2
273
2
274
3
275
0
276
0
277
2
278
46
279
2
280
0
281
0
282
0
283
0
284
8
285
0
286
0
288
1
289
3
290
0
340
4C
371
-2
372
-2
  0
DIMSTYLE
105
82
330
4
100
AcDbSymbolTableRecord
100
AcDbDimStyleTableRecord
  2
EZ_M_1_H25_CM
 70
0
 40
1.0
 41
0.0025
 42
0.00125
 43
3.75
 44
0.00375
 45
0.0
 46
0.0
 47
0.0
 48
0.0
 49
2.5
140
0.0025
141
2.5
142
0.00125
143
0.03937007874
144
100.0
145
0.0
146
0.5
147
0.001
148
0.0
 69
0
 70
0
 71
0
 72
0
 73
0
 74
0
 75
0
 76
0
 77
1
 78
12
 79
3
170
0
171
3
172
1
173
0
174
0
175
0
176
0
177
0
178
0
179
2
271
2
272
2
273
2
274
3
275
0
276
0
277
2
278
46
279
2
280
0
281
0
282
0
283
0
284
8
285
0
286
0
288
1
289
3
290
0
340
4C
371
-2
372
-2
  0
DIMSTYLE
105
83
330
4
100
AcDbSymbolTableRecord
100
AcDbDimStyleTableRecord
  2
EZ_RADIUS
 70
0
 40
1.0
 41
0.25
 42
0.125
 43
3.75
 44
0.375
 45
0.0
 46
0.0
 47
0.0
 48
0.0
 49
2.5
140
0.25
141
0.0
142
0.0
143
0.03937007874
144
100.0
145
0.0
146
0.5
147
0.1
148
0.0
 69
0
 70
0
 71
0
 72
0
 73
0
 74
0
 75
0
 76
0
 77
1
 78
12
 79
3
170
0
171
3
172
0
173
0
174
0
175
0
176
0
177
0
178
0
179
2
271
2
272
2
273
2
274
3
275
0
276
0
277
2
278
46
279
1
280
0
281
0
282
0
283
0
284
8
285
0
286
0
288
1
289
3
290
0
340
4C
342
84
371
-2
372
-2
  0
DIMSTYLE
105
88
330
4
100
AcDbSymbolTableRecord
100
AcDbDimStyleTableRecord
  2
EZ_RADIUS_INSIDE
 70
0
 40
1.0
 41
0.25
 42
0.125
 43
3.75
 44
0.375
 45
0.0
 46
0.0
 47
0.0
 48
0.0
 49
2.5
140
0.25
141
0.0
142
0.0
143
0.03937007874
144
100.0
145
0.0
146
0.5
147
0.1
148
0.0
 69
0
 70
0
 71
0
 72
0
 73
0
 74
0
 75
0
 76
0
 77
0
 78
12
 79
3
170
0
171
3
172
0
173
0
174
1
175
0
176
0
177
0
178
0
179
2
271
2
272
2
273
2
274
3
275
0
276
0
277
2
278
46
279
0
280
0
281
0
282
0
283
0
284
8
285
0
286
0
288
1
289
0
290
0
340
4C
342
84
371
-2
372
-2
  0
DIMSTYLE
105
89
330
4
100
AcDbSymbolTableRecord
100
AcDbDimStyleTableRecord
  2
EZ_CURVED
 70
0
 40
1.0
 41
0.25
 42
0.125
 43
3.75
 44
0.375
 45
0.0
 46
0.0
 47
0.0
 48
0.0
 49
2.5
140
0.25
141
2.5
142
0.0
143
0.03937007874
144
100.0
145
0.0
146
0.5
147
0.1
148
0.0
 69
0
 70
0
 71
0
 72
0
 73
0
 74
0
 75
0
 76
0
 77
1
 78
12
 79
2
 90
2
170
0
171
3
172
1
173
0
174
0
175
0
176
0
177
0
178
0
179
2
271
2
272
2
273
2
274
3
275
0
276
0
277
2
278
46
279
2
280
0
281
0
282
0
283
0
284
8
285
0
286
0
288
1
289
3
290
0
340
4C
371
-2
372
-2
  0
ENDTAB
  0
TABLE
  2
BLOCK_RECORD
  5
9
330
0
100
AcDbSymbolTable
 70
5
  0
BLOCK_RECORD
  5
17
330
9
100
AcDbSymbolTableRecord
100
AcDbBlockTableRecord
  2
*Model_Space
340
1A
 70
0
280
1
281
0
  0
BLOCK_RECORD
  5
1B
330
9
100
AcDbSymbolTableRecord
100
AcDbBlockTableRecord
  2
*Paper_Space
340
1E
 70
0
280
1
281
0
  0
BLOCK_RECORD
  5
74
330
9
100
AcDbSymbolTableRecord
100
AcDbBlockTableRecord
  2
_ARCHTICK
340
0
 70
0
280
1
281
0
  0
BLOCK_RECORD
  5
78
330
9
100
AcDbSymbolTableRecord
100
AcDbBlockTableRecord
  2
_CLOSEDFILLED
340
0
 70
0
280
1
281
0
  0
BLOCK_RECORD
  5
84
330
9
100
AcDbSymbolTableRecord
100
AcDbBlockTableRecord
  2
_CLOSEDBLANK
340
0
 70
0
280
1
281
0
  0
ENDTAB
  0
ENDSEC
  0
SECTION
  2
BLOCKS
  0
BLOCK
  5
18
330
17
100
AcDbEntity
  8
0
100
AcDbBlockBegin
  2
*Model_Space
 70
0
 10
0.0
 20
0.0
 30
0.0
  3
*Model_Space
  1

  0
ENDBLK
  5
19
330
17
100
AcDbEntity
  8
0
100
AcDbBlockEnd
  0
BLOCK
  5
1C
330
1B
100
AcDbEntity
  8
0
100
AcDbBlockBegin
  2
*Paper_Space
 70
0
 10
0.0
 20
0.0
 30
0.0
  3
*Paper_Space
  1

  0
ENDBLK
  5
1D
330
1B
100
AcDbEntity
  8
0
100
AcDbBlockEnd
  0
BLOCK
  5
75
330
74
100
AcDbEntity
  8
0
100
AcDbBlockBegin
  2
_ARCHTICK
 70
0
 10
0.0
 20
0.0
 30
0.0
  3
_ARCHTICK
  1

  0
LWPOLYLINE
  5
77
330
74
100
AcDbEntity
  8
0
  6
BYBLOCK
 62
0
100
AcDbPolyline
 90
2
 70
0
 43
0.15
 10
-0.5
 20
-0.5
 10
0.5
 20
0.5
  0
ENDBLK
  5
76
330
74
100
AcDbEntity
  8
0
100
AcDbBlockEnd
  0
BLOCK
  5
79
330
78
100
AcDbEntity
  8
0
100
AcDbBlockBegin
  2
_CLOSEDFILLED
 70
0
 10
0.0
 20
0.0
 30
0.0
  3
_CLOSEDFILLED
  1

  0
SOLID
  5
7B
330
78
100
AcDbEntity
  8
0
  6
BYBLOCK
 62
0
100
AcDbTrace
 10
-1.0
 20
0.16439898372402537
 30
0.0
 11
0.0
 21
0.0
 31
0.0
 12
-1.0
 22
-0.16439898372402537
 32
0.0
 13
-1.0
 23
-0.16439898372402537
 33
0.0
  0
ENDBLK
  5
7A
330
78
100
AcDbEntity
  8
0
100
AcDbBlockEnd
  0
BLOCK
  5
85
330
84
100
AcDbEntity
  8
0
100
AcDbBlockBegin
  2
_CLOSEDBLANK
 70
0
 10
0.0
 20
0.0
 30
0.0
  3
_CLOSEDBLANK
  1

  0
LWPOLYLINE
  5
87
330
84
100
AcDbEntity
  8
0
  6
BYBLOCK
 62
0
100
AcDbPolyline
 90
3
 70
1
 10
-1.0
 20
0.16439898372402537
 10
0.0
 20
0.0
 10
-1.0
 20
-0.16439898372402537
  0
ENDBLK
  5
86
330
84
100
AcDbEntity
  8
0
100
AcDbBlockEnd
  0
ENDSEC
  0
SECTION
  2
ENTITIES
  0
LWPOLYLINE
  5
8A
330
17
100
AcDbEntity
  8
0
100
AcDbPolyline
 90
192
 70
0
 10
0.0
 20
129.1848818560419
 10
0.0
 20
483.24715064667527
 10
0.6835178934182111
 20
483.24715064667527
 10
2.0505536802546334
 20
481.88011485983884
 10
2.392312626963739
 20
481.88011485983884
 10
2.7340715736728445
 20
481.53835591312975
 10
3.07583052038195
 20
481.53835591312975
 10
3.7593484138001614
 20
480.8548380197115
 10
4.101107360509267
 20
480.8548380197115
 10
4.784625253927478
 20
480.1713201262933
 10
5.126384200636584
 20
480.1713201262933
 10
5.468143147345689
 20
479.82956117958423
 10
5.809902094054794
 20
479.82956117958423
 10
6.493419987473006
 20
479.146043286166
 10
6.835178934182111
 20
479.146043286166
 10
7.518696827600323
 20
478.4625253927478
 10
7.860455774309428
 20
478.4625253927478
 10
8.202214721018533
 20
478.12076644603866
 10
8.54397366772764
 20
478.12076644603866
 10
9.569250507854957
 20
477.0954896059114
 10
9.911009454564061
 20
477.0954896059114
 10
10.594527347982272
 20
476.41197171249314
 10
10.936286294691378
 20
476.41197171249314
 10
11.619804188109589
 20
475.72845381907496
 10
11.961563134818695
 20
475.72845381907496
 10
12.645081028236905
 20
475.0449359256567
 10
12.986839974946012
 20
475.0449359256567
 10
14.012116815073329
 20
474.0196590855294
 10
14.353875761782433
 20
474.0196590855294
 10
15.37915260190975
 20
472.9943822454021
 10
15.720911548618856
 20
472.9943822454021
 10
17.08794733545528
 20
471.6273464585657
 10
17.429706282164382
 20
471.6273464585657
 10
18.796742069000807
 20
470.26031067172926
 10
19.138501015709913
 20
470.26031067172926
 10
21.53081364267365
 20
467.8679980447655
 10
21.872572589382756
 20
467.8679980447655
 10
23.239608376219177
 20
466.5009622579291
 10
23.581367322928283
 20
466.5009622579291
 10
24.948403109764705
 20
465.13392647109265
 10
25.29016205647381
 20
465.13392647109265
 10
27.340715736728445
 20
463.08337279083804
 10
27.68247468343755
 20
463.08337279083804
 10
28.024233630146657
 20
462.74161384412895
 10
28.36599257685576
 20
462.74161384412895
 10
29.049510470273972
 20
462.0580959507107
 10
29.39126941698308
 20
462.0580959507107
 10
29.733028363692185
 20
461.7163370040016
 10
30.7583052038195
 20
461.7163370040016
 10
31.100064150528606
 20
461.3745780572925
 10
32.12534099065592
 20
461.3745780572925
 10
32.46709993736503
 20
461.0328191105834
 10
32.808858884074134
 20
461.0328191105834
 10
33.15061783078324
 20
460.6910601638743
 10
33.492376777492346
 20
460.6910601638743
 10
35.54293045774698
 20
458.6405064836197
 10
35.88468940445608
 20
458.6405064836197
 10
36.9099662445834
 20
457.61522964349234
 10
36.9099662445834
 20
457.27347069678325
 10
38.277002031419826
 20
455.9064349099468
 10
38.618760978128925
 20
455.9064349099468
 10
41.01107360509267
 20
453.51412228298307
 10
41.352832551801775
 20
453.51412228298307
 10
42.71986833863819
 20
452.14708649614664
 10
42.71986833863819
 20
451.80532754943755
 10
45.45393991231104
 20
449.0712559757647
 10
45.45393991231104
 20
448.7294970290556
 10
47.50449359256567
 20
446.67894334880094
 10
47.50449359256567
 20
446.33718440209185
 10
48.52977043269299
 20
445.3119075619645
 10
48.52977043269299
 20
444.9701486152554
 10
50.58032411294762
 20
442.9195949350008
 10
50.58032411294762
 20
442.5778359882917
 10
50.92208305965673
 20
442.2360770415826
 10
50.92208305965673
 20
441.5525591481644
 10
51.263842006365834
 20
441.2108002014553
 10
51.263842006365834
 20
440.86904125474615
 10
51.60560095307494
 20
440.52728230803706
 10
51.60560095307494
 20
440.18552336132797
 10
51.94735989978405
 20
439.8437644146189
 10
51.94735989978405
 20
439.5020054679097
 10
52.28911884649315
 20
439.16024652120063
 10
52.28911884649315
 20
438.81848757449154
 10
52.97263673991136
 20
438.1349696810733
 10
52.97263673991136
 20
437.7932107343642
 10
53.65615463332957
 20
437.109692840946
 10
53.65615463332957
 20
436.76793389423693
 10
55.023190420165996
 20
435.4008981074005
 10
55.023190420165996
 20
435.05913916069136
 10
57.073744100420626
 20
433.00858548043675
 10
57.41550304712973
 20
433.00858548043675
 10
58.44077988725705
 20
431.9833086403094
 10
58.78253883396616
 20
431.9833086403094
 10
59.12429778067526
 20
431.6415496936003
 10
59.46605672738437
 20
431.6415496936003
 10
59.807815674093476
 20
431.29979074689123
 10
60.14957462080258
 20
431.29979074689123
 10
61.174851460929894
 20
430.2745139067639
 10
61.516610407639
 20
430.2745139067639
 10
62.20012830105721
 20
429.5909960133457
 10
62.54188724776632
 20
429.5909960133457
 10
66.64299460827559
 20
425.48988865283644
 10
66.98475355498469
 20
425.48988865283644
 10
67.3265125016938
 20
425.1481297061273
 10
67.6682714484029
 20
425.1481297061273
 10
68.01003039511201
 20
424.8063707594182
 10
68.35178934182112
 20
424.8063707594182
 10
69.03530723523933
 20
424.122852866
 10
69.37706618194842
 20
424.122852866
 10
69.71882512865753
 20
423.78109391929087
 10
70.06058407536663
 20
423.78109391929087
 10
70.74410196878485
 20
423.0975760258727
 10
71.08586091549395
 20
423.0975760258727
 10
71.76937880891217
 20
422.4140581324545
 10
72.11113775562127
 20
422.4140581324545
 10
74.16169143587591
 20
420.36350445219983
 10
74.50345038258502
 20
420.36350445219983
 10
75.18696827600323
 20
419.67998655878165
 10
75.52872722271233
 20
419.67998655878165
 10
76.55400406283965
 20
418.6547097186543
 10
76.89576300954874
 20
418.6547097186543
 10
76.89576300954874
 20
418.3129507719452
 10
77.92103984967606
 20
417.2876739318179
 10
77.92103984967606
 20
416.9459149851088
 10
78.26279879638517
 20
416.60415603839965
 10
78.60455774309428
 20
416.60415603839965
 10
80.99687037005802
 20
414.21184341143595
 10
80.99687037005802
 20
413.87008446472686
 10
81.68038826347623
 20
413.1865665713086
 10
81.68038826347623
 20
412.8448076245995
 10
82.70566510360355
 20
411.8195307844722
 10
82.70566510360355
 20
411.4777718377631
 10
83.38918299702176
 20
410.79425394434486
 10
83.38918299702176
 20
410.45249499763577
 10
84.07270089043996
 20
409.7689771042176
 10
84.07270089043996
 20
409.42721815750843
 10
85.09797773056728
 20
408.40194131738116
 10
85.09797773056728
 20
408.06018237067207
 10
85.78149562398549
 20
407.3766644772538
 10
85.78149562398549
 20
407.03490553054473
 10
87.49029035753102
 20
405.3261107969992
 10
87.49029035753102
 20
404.98435185029007
 10
88.85732614436745
 20
403.61731606345364
 10
88.85732614436745
 20
403.27555711674455
 10
91.59139771804028
 20
400.5414855430717
 10
91.93315666474939
 20
400.5414855430717
 10
92.2749156114585
 20
400.1997265963626
 10
92.6166745581676
 20
400.1997265963626
 10
93.64195139829492
 20
399.1744497562353
 10
93.98371034500403
 20
399.1744497562353
 10
95.00898718513135
 20
398.149172916108
 10
95.35074613184045
 20
398.149172916108
 10
97.40129981209509
 20
396.09861923585333
 10
97.40129981209509
 20
395.75686028914424
 10
100.47713033247703
 20
392.6810297687623
 10
100.81888927918614
 20
392.6810297687623
 10
101.84416611931346
 20
391.65575292863497
 10
102.18592506602256
 20
391.65575292863497
 10
102.86944295944078
 20
390.9722350352168
 10
103.21120190614988
 20
390.9722350352168
 10
103.55296085285899
 20
390.63047608850763
 10
103.8947197995681
 20
390.63047608850763
 10
104.2364787462772
 20
390.28871714179854
 10
104.5782376929863
 20
390.28871714179854
 10
104.91999663969541
 20
389.94695819508945
 10
105.26175558640452
 20
389.94695819508945
 10
105.60351453311362
 20
389.60519924838036
 10
106.28703242653182
 20
389.60519924838036
 10
106.62879137324093
 20
389.2634403016712
 10
107.65406821336825
 20
389.2634403016712
 10
107.99582716007735
 20
388.9216813549621
 10
108.33758610678646
 20
388.9216813549621
 10
108.67934505349557
 20
389.2634403016712
 10
122.00794397515068
 20
389.2634403016712
 10
122.34970292185979
 20
389.60519924838036
 10
130.55191764287832
 20
389.60519924838036
 10
130.89367658958744
 20
389.94695819508945
 10
131.23543553629654
 20
389.94695819508945
 10
131.57719448300563
 20
390.28871714179854
 10
132.60247132313296
 20
390.28871714179854
 10
132.94423026984205
 20
390.63047608850763
 10
134.6530250033876
 20
390.63047608850763
 10
134.9947839500967
 20
390.28871714179854
 10
136.02006079022402
 20
390.28871714179854
 10
136.3618197369331
 20
389.94695819508945
 10
138.75413236389684
 20
389.94695819508945
 10
139.09589131060596
 20
389.60519924838036
 10
141.4882039375697
 20
389.60519924838036
 10
141.8299628842788
 20
389.2634403016712
 10
142.51348077769703
 20
389.2634403016712
 10
142.85523972440612
 20
388.9216813549621
 10
143.53875761782433
 20
388.9216813549621
  0
LWPOLYLINE
  5
8B
330
17
100
AcDbEntity
  8
0
100
AcDbPolyline
 90
940
 70
0
 10
143.53875761782433
 20
388.9216813549621
 10
143.88051656453345
 20
388.579922408253
 10
144.90579340466076
 20
388.579922408253
 10
145.24755235136988
 20
388.23816346154393
 10
146.27282919149718
 20
388.23816346154393
 10
146.61458813820627
 20
387.8964045148348
 10
147.9816239250427
 20
387.8964045148348
 10
148.32338287175182
 20
387.5546455681257
 10
149.69041865858824
 20
387.5546455681257
 10
150.03217760529733
 20
387.2128866214166
 10
151.05745444542467
 20
387.2128866214166
 10
151.39921339213376
 20
386.8711276747075
 10
152.08273128555197
 20
386.8711276747075
 10
152.4244902322611
 20
386.52936872799836
 10
153.1080081256793
 20
386.52936872799836
 10
153.4497670723884
 20
386.18760978128927
 10
154.1332849658066
 20
386.18760978128927
 10
154.4750439125157
 20
385.8458508345802
 10
155.1585618059339
 20
385.8458508345802
 10
155.50032075264303
 20
385.5040918878711
 10
156.52559759277034
 20
385.5040918878711
 10
156.86735653947946
 20
385.162332941162
 10
157.55087443289767
 20
385.162332941162
 10
157.89263337960676
 20
384.82057399445284
 10
158.23439232631588
 20
384.82057399445284
 10
158.57615127302498
 20
384.47881504774375
 10
159.2596691664432
 20
384.47881504774375
 10
159.6014281131523
 20
384.13705610103466
 10
159.9431870598614
 20
384.13705610103466
 10
160.28494600657052
 20
383.79529715432557
 10
160.9684638999887
 20
383.79529715432557
 10
161.31022284669783
 20
383.4535382076164
 10
161.65198179340692
 20
383.4535382076164
 10
161.99374074011604
 20
383.1117792609073
 10
162.67725863353425
 20
383.1117792609073
 10
163.01901758024334
 20
382.77002031419823
 10
163.70253547366156
 20
382.77002031419823
 10
164.04429442037068
 20
382.42826136748914
 10
164.7278123137889
 20
382.42826136748914
 10
165.06957126049798
 20
382.08650242078
 10
165.7530891539162
 20
382.08650242078
 10
166.0948481006253
 20
381.7447434740709
 10
167.12012494075262
 20
381.7447434740709
 10
167.46188388746174
 20
381.4029845273618
 10
168.14540178087992
 20
381.4029845273618
 10
168.48716072758904
 20
381.0612255806527
 10
169.51243756771635
 20
381.0612255806527
 10
169.85419651442547
 20
380.71946663394357
 10
170.53771440784368
 20
380.71946663394357
 10
170.87947335455277
 20
380.3777076872345
 10
171.56299124797098
 20
380.3777076872345
 10
171.9047501946801
 20
380.0359487405254
 10
172.9300270348074
 20
380.0359487405254
 10
173.27178598151653
 20
379.6941897938163
 10
173.95530387493474
 20
379.6941897938163
 10
174.29706282164383
 20
379.35243084710714
 10
175.32233966177114
 20
379.35243084710714
 10
175.66409860848026
 20
379.01067190039805
 10
176.34761650189847
 20
379.01067190039805
 10
176.68937544860756
 20
378.66891295368896
 10
177.7146522887349
 20
378.66891295368896
 10
178.056411235444
 20
378.32715400697987
 10
179.76520596898953
 20
378.32715400697987
 10
180.10696491569863
 20
377.9853950602708
 10
181.13224175582596
 20
377.9853950602708
 10
181.47400070253505
 20
377.6436361135616
 10
182.84103648937148
 20
377.6436361135616
 10
183.18279543608057
 20
377.30187716685253
 10
184.2080722762079
 20
377.30187716685253
 10
184.549831222917
 20
376.96011822014344
 10
185.57510806304433
 20
376.96011822014344
 10
185.91686700975342
 20
376.61835927343435
 10
186.94214384988075
 20
376.61835927343435
 10
187.28390279658984
 20
376.2766003267252
 10
188.30917963671718
 20
376.2766003267252
 10
188.65093858342627
 20
375.9348413800161
 10
189.33445647684448
 20
375.9348413800161
 10
189.67621542355357
 20
375.593082433307
 10
190.35973331697178
 20
375.593082433307
 10
190.7014922636809
 20
375.2513234865979
 10
191.38501015709912
 20
375.2513234865979
 10
191.7267691038082
 20
374.9095645398888
 10
192.75204594393554
 20
374.9095645398888
 10
193.09380489064463
 20
374.5678055931797
 10
193.77732278406285
 20
374.5678055931797
 10
194.11908173077197
 20
374.2260466464706
 10
194.80259962419018
 20
374.2260466464706
 10
195.14435857089927
 20
373.8842876997615
 10
196.1696354110266
 20
373.8842876997615
 10
196.5113943577357
 20
373.54252875305235
 10
197.1949122511539
 20
373.54252875305235
 10
197.536671197863
 20
373.20076980634326
 10
197.87843014457212
 20
373.20076980634326
 10
198.2201890912812
 20
372.85901085963417
 10
198.90370698469943
 20
372.85901085963417
 10
199.24546593140855
 20
372.5172519129251
 10
199.92898382482676
 20
372.5172519129251
 10
200.27074277153585
 20
372.1754929662159
 10
200.95426066495406
 20
372.1754929662159
 10
201.29601961166318
 20
371.83373401950684
 10
202.3212964517905
 20
371.83373401950684
 10
202.6630553984996
 20
371.49197507279774
 10
203.34657329191782
 20
371.49197507279774
 10
203.6883322386269
 20
371.15021612608865
 10
204.71360907875422
 20
371.15021612608865
 10
205.05536802546334
 20
370.80845717937956
 10
205.73888591888155
 20
370.80845717937956
 10
206.08064486559064
 20
370.4666982326704
 10
206.76416275900885
 20
370.4666982326704
 10
207.10592170571798
 20
370.1249392859613
 10
208.13119854584528
 20
370.1249392859613
 10
208.4729574925544
 20
369.7831803392522
 10
209.4982343326817
 20
369.7831803392522
 10
209.83999327939082
 20
369.44142139254313
 10
210.86527011951813
 20
369.44142139254313
 10
211.20702906622725
 20
369.099662445834
 10
212.57406485306365
 20
369.099662445834
 10
212.91582379977277
 20
368.7579034991249
 10
213.94110063990007
 20
368.7579034991249
 10
214.2828595866092
 20
368.4161445524158
 10
215.64989537344562
 20
368.4161445524158
 10
215.9916543201547
 20
368.0743856057067
 10
217.01693116028204
 20
368.0743856057067
 10
217.35869010699113
 20
367.73262665899756
 10
218.04220800040935
 20
367.73262665899756
 10
218.38396694711847
 20
367.39086771228847
 10
219.40924378724577
 20
367.39086771228847
 10
219.75100273395486
 20
367.0491087655794
 10
220.7762795740822
 20
367.0491087655794
 10
221.1180385207913
 20
366.7073498188703
 10
221.8015564142095
 20
366.7073498188703
 10
222.14331536091862
 20
366.36559087216114
 10
222.82683325433683
 20
366.36559087216114
 10
223.16859220104593
 20
366.02383192545204
 10
223.85211009446414
 20
366.02383192545204
 10
224.19386904117326
 20
365.68207297874295
 10
224.87738693459147
 20
365.68207297874295
 10
225.21914588130056
 20
365.34031403203386
 10
226.24442272142787
 20
365.34031403203386
 10
226.586181668137
 20
364.9985550853247
 10
227.2696995615552
 20
364.9985550853247
 10
227.6114585082643
 20
364.6567961386156
 10
228.63673534839162
 20
364.6567961386156
 10
228.97849429510072
 20
364.3150371919065
 10
229.66201218851893
 20
364.3150371919065
 10
230.00377113522805
 20
363.97327824519743
 10
231.37080692206447
 20
363.97327824519743
 10
231.71256586877357
 20
363.63151929848834
 10
233.07960165561
 20
363.63151929848834
 10
233.42136060231908
 20
363.2897603517792
 10
234.7883963891555
 20
363.2897603517792
 10
235.13015533586463
 20
362.9480014050701
 10
236.49719112270105
 20
362.9480014050701
 10
236.83895006941015
 20
362.606242458361
 10
237.86422690953748
 20
362.606242458361
 10
238.20598585624657
 20
362.2644835116519
 10
239.573021643083
 20
362.2644835116519
 10
239.91478058979212
 20
361.92272456494277
 10
240.94005742991942
 20
361.92272456494277
 10
241.2818163766285
 20
361.5809656182337
 10
242.30709321675585
 20
361.5809656182337
 10
242.64885216346494
 20
361.2392066715246
 10
244.01588795030136
 20
361.2392066715246
 10
244.35764689701048
 20
360.8974477248155
 10
245.3829237371378
 20
360.8974477248155
 10
245.7246826838469
 20
360.55568877810634
 10
246.7499595239742
 20
360.55568877810634
 10
247.09171847068333
 20
360.21392983139725
 10
248.11699531081064
 20
360.21392983139725
 10
248.45875425751973
 20
359.87217088468816
 10
249.48403109764706
 20
359.87217088468816
 10
249.82579004435615
 20
359.53041193797907
 10
250.50930793777437
 20
359.53041193797907
 10
250.8510668844835
 20
359.1886529912699
 10
251.8763437246108
 20
359.1886529912699
 10
252.2181026713199
 20
358.8468940445608
 10
252.90162056473812
 20
358.8468940445608
 10
253.24337951144722
 20
358.50513509785173
 10
254.26865635157455
 20
358.50513509785173
 10
254.61041529828364
 20
358.16337615114264
 10
255.63569213841095
 20
358.16337615114264
 10
255.97745108512007
 20
357.8216172044335
 10
257.00272792524737
 20
357.8216172044335
 10
257.34448687195646
 20
357.4798582577244
 10
259.05328160550204
 20
357.4798582577244
 10
259.3950405522111
 20
357.1380993110153
 10
260.76207633904755
 20
357.1380993110153
 10
261.10383528575665
 20
356.7963403643062
 10
262.81263001930216
 20
356.7963403643062
 10
263.15438896601125
 20
356.4545814175971
 10
264.5214247528477
 20
356.4545814175971
 10
264.8631836995568
 20
356.112822470888
 10
266.23021948639325
 20
356.112822470888
 10
266.57197843310234
 20
355.7710635241789
 10
267.5972552732297
 20
355.7710635241789
 10
267.93901421993877
 20
355.4293045774698
 10
268.9642910600661
 20
355.4293045774698
 10
269.3060500067752
 20
355.0875456307607
 10
270.33132684690247
 20
355.0875456307607
 10
270.6730857936116
 20
354.74578668405155
 10
271.6983626337389
 20
354.74578668405155
 10
272.04012158044804
 20
354.40402773734246
 10
273.0653984205753
 20
354.40402773734246
 10
273.40715736728447
 20
354.06226879063337
 10
274.43243420741175
 20
354.06226879063337
 10
274.7741931541209
 20
353.7205098439243
 10
275.79946999424817
 20
353.7205098439243
 10
276.1412289409573
 20
353.3787508972151
 10
277.1665057810846
 20
353.3787508972151
 10
277.5082647277937
 20
353.03699195050604
 10
278.8753005146301
 20
353.03699195050604
 10
279.21705946133926
 20
352.69523300379694
 10
280.24233630146654
 20
352.69523300379694
 10
280.5840952481757
 20
352.35347405708785
 10
281.9511310350121
 20
352.35347405708785
 10
282.2928899817212
 20
352.0117151103787
 10
284.0016847152667
 20
352.0117151103787
 10
284.3434436619758
 20
351.6699561636696
 10
285.71047944881224
 20
351.6699561636696
 10
286.05223839552133
 20
351.3281972169605
 10
287.41927418235775
 20
351.3281972169605
 10
287.7610331290669
 20
350.9864382702514
 10
289.8115868093215
 20
350.9864382702514
 10
290.1533457560306
 20
350.6446793235423
 10
292.20389943628527
 20
350.6446793235423
 10
292.54565838299436
 20
350.3029203768332
 10
294.2544531165399
 20
350.3029203768332
 10
294.59621206324897
 20
349.9611614301241
 10
296.30500679679454
 20
349.9611614301241
 10
296.64676574350364
 20
349.619402483415
 10
298.35556047704915
 20
349.619402483415
 10
298.69731942375824
 20
349.2776435367059
 10
300.40611415730376
 20
349.2776435367059
 10
300.7478731040129
 20
348.93588458999676
 10
302.4566678375584
 20
348.93588458999676
 10
302.7984267842675
 20
348.59412564328767
 10
304.8489804645222
 20
348.59412564328767
 10
305.1907394112313
 20
348.2523666965786
 10
306.8995341447768
 20
348.2523666965786
 10
307.2412930914859
 20
347.9106077498695
 10
308.9500878250314
 20
347.9106077498695
 10
309.29184677174055
 20
347.56884880316034
 10
311.34240045199516
 20
347.56884880316034
 10
311.68415939870425
 20
347.22708985645124
 10
313.3929541322498
 20
347.22708985645124
 10
313.7347130789589
 20
346.88533090974215
 10
315.7852667592135
 20
346.88533090974215
 10
316.1270257059226
 20
346.54357196303306
 10
318.5193383328864
 20
346.54357196303306
 10
318.86109727959547
 20
346.2018130163239
 10
320.91165095985014
 20
346.2018130163239
 10
321.2534099065592
 20
345.8600540696148
 10
322.96220464010474
 20
345.8600540696148
 10
323.30396358681384
 20
345.5182951229057
 10
325.3545172670685
 20
345.5182951229057
 10
325.6962762137776
 20
345.17653617619663
 10
327.4050709473231
 20
345.17653617619663
 10
327.74682989403226
 20
344.8347772294875
 10
329.4556246275778
 20
344.8347772294875
 10
329.79738357428687
 20
344.4930182827784
 10
331.5061783078324
 20
344.4930182827784
 10
331.8479372545415
 20
344.1512593360693
 10
333.55673198808705
 20
344.1512593360693
 10
333.89849093479614
 20
343.8095003893602
 10
335.94904461505075
 20
343.8095003893602
 10
336.29080356175984
 20
343.46774144265106
 10
338.3413572420145
 20
343.46774144265106
 10
338.6831161887236
 20
343.12598249594197
 10
340.73366986897827
 20
343.12598249594197
 10
341.07542881568736
 20
342.7842235492329
 10
343.12598249594197
 20
342.7842235492329
 10
343.46774144265106
 20
342.4424646025238
 10
346.2018130163239
 20
342.4424646025238
 10
346.54357196303306
 20
342.1007056558147
 10
348.59412564328767
 20
342.1007056558147
 10
348.93588458999676
 20
341.75894670910554
 10
351.6699561636696
 20
341.75894670910554
 10
352.0117151103787
 20
341.41718776239645
 10
353.3787508972151
 20
341.41718776239645
 10
353.7205098439243
 20
341.07542881568736
 10
356.112822470888
 20
341.07542881568736
 10
356.4545814175971
 20
340.73366986897827
 10
358.16337615114264
 20
340.73366986897827
 10
358.50513509785173
 20
340.3919109222691
 10
360.55568877810634
 20
340.3919109222691
 10
360.8974477248155
 20
340.05015197556
 10
362.9480014050701
 20
340.05015197556
 10
363.2897603517792
 20
339.70839302885094
 10
365.34031403203386
 20
339.70839302885094
 10
365.68207297874295
 20
339.36663408214184
 10
367.39086771228847
 20
339.36663408214184
 10
367.73262665899756
 20
339.0248751354327
 10
369.44142139254313
 20
339.0248751354327
 10
369.7831803392522
 20
338.6831161887236
 10
371.49197507279774
 20
338.6831161887236
 10
371.83373401950684
 20
338.3413572420145
 10
373.8842876997615
 20
338.3413572420145
 10
374.2260466464706
 20
337.9995982953054
 10
376.2766003267252
 20
337.9995982953054
 10
376.61835927343435
 20
337.65783934859627
 10
378.32715400697987
 20
337.65783934859627
 10
378.66891295368896
 20
337.3160804018872
 10
380.3777076872345
 20
337.3160804018872
 10
380.71946663394357
 20
336.9743214551781
 10
382.42826136748914
 20
336.9743214551781
 10
382.77002031419823
 20
336.632562508469
 10
385.162332941162
 20
336.632562508469
 10
385.5040918878711
 20
336.29080356175984
 10
387.5546455681257
 20
336.29080356175984
 10
387.8964045148348
 20
335.94904461505075
 10
390.63047608850763
 20
335.94904461505075
 10
390.9722350352168
 20
335.60728566834166
 10
393.0227887154714
 20
335.60728566834166
 10
393.3645476621805
 20
335.26552672163257
 10
396.09861923585333
 20
335.26552672163257
 10
396.4403781825624
 20
334.9237677749235
 10
398.4909318628171
 20
334.9237677749235
 10
398.8326908095262
 20
334.5820088282143
 10
401.56676238319903
 20
334.5820088282143
 10
401.9085213299081
 20
334.24024988150524
 10
404.642592903581
 20
334.24024988150524
 10
404.98435185029007
 20
333.89849093479614
 10
407.7184234239629
 20
333.89849093479614
 10
408.06018237067207
 20
333.55673198808705
 10
410.45249499763577
 20
333.55673198808705
 10
410.79425394434486
 20
333.2149730413779
 10
413.5283255180177
 20
333.2149730413779
 10
413.87008446472686
 20
332.8732140946688
 10
416.60415603839965
 20
332.8732140946688
 10
416.9459149851088
 20
332.5314551479597
 10
420.02174550549074
 20
332.5314551479597
 10
420.36350445219983
 20
332.1896962012506
 10
422.7558170791636
 20
332.1896962012506
 10
423.0975760258727
 20
331.8479372545415
 10
425.83164759954553
 20
331.8479372545415
 10
426.1734065462546
 20
331.5061783078324
 10
429.24923706663657
 20
331.5061783078324
 10
429.5909960133457
 20
331.1644193611233
 10
433.35034442714584
 20
331.1644193611233
 10
433.69210337385493
 20
330.8226604144142
 10
438.1349696810733
 20
330.8226604144142
 10
438.47672862778245
 20
330.48090146770505
 10
442.2360770415826
 20
330.48090146770505
 10
442.5778359882917
 20
330.13914252099596
 10
446.67894334880094
 20
330.13914252099596
 10
447.0207022955101
 20
329.79738357428687
 10
451.46356860272846
 20
329.79738357428687
 10
451.80532754943755
 20
329.4556246275778
 10
457.61522964349234
 20
329.4556246275778
 10
457.95698859020143
 20
329.1138656808686
 10
463.42513173754713
 20
329.1138656808686
 10
463.7668906842562
 20
328.77210673415954
 10
467.8679980447655
 20
328.77210673415954
 10
468.2097569914746
 20
328.43034778745044
 10
472.652623298693
 20
328.43034778745044
 10
472.9943822454021
 20
328.08858884074135
 10
478.12076644603866
 20
328.08858884074135
 10
478.4625253927478
 20
327.74682989403226
 10
485.9812222203481
 20
327.74682989403226
 10
486.3229811670572
 20
327.4050709473231
 10
492.132883261112
 20
327.4050709473231
 10
492.4746422078211
 20
327.063312000614
 10
499.3098211420032
 20
327.063312000614
 10
499.6515800887123
 20
326.7215530539049
 10
507.1702769163127
 20
326.7215530539049
 10
507.51203586302177
 20
326.37979410719583
 10
520.1571168912586
 20
326.37979410719583
 10
520.4988758379677
 20
326.0380351604867
 10
529.3846084524046
 20
326.0380351604867
 10
529.7263673991137
 20
325.6962762137776
 10
536.5615463332957
 20
325.6962762137776
 10
536.9033052800048
 20
325.3545172670685
 10
564.2440210167333
 20
325.3545172670685
 10
564.5857799634424
 20
325.0127583203594
 10
587.4836293929525
 20
325.0127583203594
 10
587.8253883396616
 20
324.67099937365026
 10
597.3946388475165
 20
324.67099937365026
 10
597.7363977942256
 20
324.32924042694117
 10
609.6979609290444
 20
324.32924042694117
 10
610.0397198757535
 20
323.9874814802321
 10
617.5584167033537
 20
323.9874814802321
 10
617.9001756500628
 20
323.645722533523
 10
622.0012830105721
 20
323.645722533523
 10
622.3430419572812
 20
323.30396358681384
 10
627.8111851046269
 20
323.30396358681384
 10
628.152944051336
 20
322.96220464010474
 10
633.9628461453908
 20
322.96220464010474
 10
634.3046050920999
 20
322.62044569339565
 10
641.4815429729912
 20
322.62044569339565
 10
641.8233019197003
 20
322.27868674668656
 10
645.9244092802095
 20
322.27868674668656
 10
646.2661682269186
 20
321.9369277999774
 10
650.3672755874279
 20
321.9369277999774
 10
650.709034534137
 20
321.5951688532683
 10
654.8101418946462
 20
321.5951688532683
 10
655.1519008413553
 20
321.2534099065592
 10
659.2530082018646
 20
321.2534099065592
 10
659.5947671485737
 20
320.91165095985014
 10
664.037633455792
 20
320.91165095985014
 10
664.3793924025013
 20
320.56989201314104
 10
668.8222587097196
 20
320.56989201314104
 10
669.1640176564287
 20
320.2281330664319
 10
672.5816071235197
 20
320.2281330664319
 10
672.9233660702289
 20
319.8863741197228
 10
676.3409555373199
 20
319.8863741197228
 10
676.682714484029
 20
319.5446151730137
 10
680.7838218445382
 20
319.5446151730137
 10
681.1255807912473
 20
319.2028562263046
 10
686.9354828853021
 20
319.2028562263046
 10
687.2772418320113
 20
318.86109727959547
 10
691.3783491925205
 20
318.86109727959547
 10
691.7201081392296
 20
318.5193383328864
 10
697.1882512865753
 20
318.5193383328864
 10
697.5300102332844
 20
318.1775793861773
 10
702.9981533806301
 20
318.1775793861773
 10
703.3399123273392
 20
317.8358204394682
 10
708.4662965279758
 20
317.8358204394682
 10
708.8080554746849
 20
317.49406149275904
 10
714.6179575687397
 20
317.49406149275904
 10
714.9597165154488
 20
317.15230254604995
 10
722.4784133430492
 20
317.15230254604995
 10
722.8201722897583
 20
316.81054359934086
 10
731.3641459574859
 20
316.81054359934086
 10
731.705904904195
 20
316.46878465263177
 10
736.8322891048316
 20
316.46878465263177
 10
737.1740480515407
 20
316.1270257059226
 10
741.6169143587591
 20
316.1270257059226
 10
741.9586733054682
 20
315.7852667592135
 10
745.7180217192683
 20
315.7852667592135
 10
746.0597806659774
 20
315.44350781250444
 10
750.844405919905
 20
315.44350781250444
 10
751.186164866614
 20
315.10174886579534
 10
756.9960669606688
 20
315.10174886579534
 10
757.3378259073779
 20
314.7599899190862
 10
762.4642101080145
 20
314.7599899190862
 10
762.8059690547236
 20
314.4182309723771
 10
769.6411479889057
 20
314.4182309723771
 10
769.9829069356148
 20
314.076472025668
 10
775.7928090296696
 20
314.076472025668
 10
776.1345679763788
 20
313.7347130789589
 10
783.653264803979
 20
313.7347130789589
 10
783.9950237506881
 20
313.3929541322498
 10
794.2477921519613
 20
313.3929541322498
 10
794.5895510986704
 20
313.0511951855407
 10
806.5511142334891
 20
313.0511951855407
 10
806.8928731801982
 20
312.7094362388316
 10
828.765445769581
 20
312.7094362388316
 10
829.1072047162901
 20
312.3676772921225
 10
830.4742405031266
 20
312.3676772921225
 10
830.8159994498357
 20
312.7094362388316
 10
835.9423836504722
 20
312.7094362388316
 10
836.2841425971814
 20
313.0511951855407
 10
861.232545706946
 20
313.0511951855407
 10
861.5743046536551
 20
312.7094362388316
 10
861.9160636003642
 20
313.0511951855407
 10
874.5611446286011
 20
313.0511951855407
 10
874.9029035753102
 20
312.7094362388316
 10
882.0798414562015
 20
312.7094362388316
 10
882.4216004029106
 20
312.3676772921225
 10
896.0919582712747
 20
312.3676772921225
 10
896.4337172179839
 20
312.7094362388316
 10
905.6612087791298
 20
312.7094362388316
 10
906.0029677258389
 20
312.3676772921225
 10
910.7875929797664
 20
312.3676772921225
 10
911.1293519264755
 20
312.0259183454134
 10
914.5469413935665
 20
312.0259183454134
 10
914.8887003402756
 20
311.68415939870425
 10
918.6480487540757
 20
311.68415939870425
 10
918.9898077007848
 20
311.34240045199516
 10
919.3315666474939
 20
311.34240045199516
 10
920.0150845409122
 20
310.658882558577
 10
920.0150845409122
 20
309.29184677174055
 10
919.6733255942031
 20
308.9500878250314
 10
919.6733255942031
 20
308.2665699316132
 10
919.3315666474939
 20
307.9248109849041
 10
919.3315666474939
 20
307.2412930914859
 10
918.9898077007848
 20
306.8995341447768
 10
918.9898077007848
 20
305.53249835794037
 10
918.6480487540757
 20
305.1907394112313
 10
918.6480487540757
 20
304.50722151781304
 10
918.9898077007848
 20
304.16546257110394
 10
918.9898077007848
 20
295.6214889033763
 10
919.3315666474939
 20
295.2797299566672
 10
919.3315666474939
 20
289.8115868093215
 10
919.6733255942031
 20
289.4698278626124
 10
919.6733255942031
 20
281.60937208830296
 10
920.0150845409122
 20
281.26761314159387
 10
920.0150845409122
 20
274.09067526070265
 10
920.3568434876213
 20
273.74891631399356
 10
920.3568434876213
 20
264.5214247528477
 10
920.6986024343304
 20
264.1796658061386
 10
920.6986024343304
 20
253.92689740486543
 10
921.0403613810395
 20
253.58513845815634
 10
921.0403613810395
 20
246.7499595239742
 10
920.6986024343304
 20
246.40820057726512
 10
920.6986024343304
 20
237.52246796282836
 10
921.0403613810395
 20
237.18070901611927
 10
921.0403613810395
 20
218.72572589382756
 10
920.6986024343304
 20
218.38396694711847
 10
920.6986024343304
 20
215.9916543201547
 10
921.0403613810395
 20
215.64989537344562
 10
921.0403613810395
 20
213.94110063990007
 10
920.6986024343304
 20
213.59934169319098
 10
920.6986024343304
 20
211.54878801293634
 10
920.3568434876213
 20
211.20702906622725
 10
920.3568434876213
 20
197.536671197863
 10
920.6986024343304
 20
197.1949122511539
 10
920.6986024343304
 20
194.80259962419018
 10
920.3568434876213
 20
194.46084067748106
 10
920.3568434876213
 20
191.04325121039
 10
920.6986024343304
 20
190.7014922636809
 10
920.6986024343304
 20
190.0179743702627
 10
919.6733255942031
 20
188.9926975301354
 10
914.8887003402756
 20
188.9926975301354
 10
914.5469413935665
 20
188.65093858342627
 10
906.344726672548
 20
188.65093858342627
 10
906.0029677258389
 20
188.30917963671718
 10
904.9776908857115
 20
188.30917963671718
 10
904.6359319390024
 20
188.65093858342627
 10
902.9271372054569
 20
188.65093858342627
 10
902.5853782587478
 20
188.9926975301354
 10
900.5348245784932
 20
188.9926975301354
 10
900.1930656317841
 20
189.33445647684448
 10
896.4337172179839
 20
189.33445647684448
 10
896.0919582712747
 20
189.67621542355357
 10
888.5732614436745
 20
189.67621542355357
 10
888.2315024969654
 20
190.0179743702627
 10
885.8391898700016
 20
190.0179743702627
 10
885.4974309232925
 20
189.67621542355357
 10
873.877626735183
 20
189.67621542355357
 10
873.5358677884739
 20
189.33445647684448
 10
867.725965694419
 20
189.33445647684448
 10
867.3842067477099
 20
189.67621542355357
 10
834.9171068103449
 20
189.67621542355357
 10
834.5753478636358
 20
190.0179743702627
 10
833.2083120767993
 20
190.0179743702627
 10
832.8665531300902
 20
189.67621542355357
 10
830.1324815564174
 20
189.67621542355357
 10
829.7907226097083
 20
190.0179743702627
 10
828.4236868228719
 20
190.0179743702627
 10
828.0819278761628
 20
189.67621542355357
 10
826.3731331426172
 20
189.67621542355357
 10
826.0313741959081
 20
190.0179743702627
 10
825.34785630249
 20
190.0179743702627
 10
825.0060973557809
 20
189.67621542355357
 10
824.3225794623626
 20
189.67621542355357
 10
823.9808205156535
 20
190.0179743702627
 10
800.7412121394343
 20
190.0179743702627
 10
800.3994531927252
 20
189.67621542355357
 10
790.8302026848703
 20
189.67621542355357
 10
790.4884437381612
 20
189.33445647684448
 10
781.2609521770153
 20
189.33445647684448
 10
780.9191932303062
 20
188.9926975301354
 10
773.0587374559967
 20
188.9926975301354
 10
772.7169785092876
 20
188.65093858342627
 10
765.1982816816874
 20
188.65093858342627
 10
764.8565227349783
 20
188.30917963671718
 10
760.755415374469
 20
188.30917963671718
 10
760.4136564277599
 20
187.96742069000805
 10
754.261995386996
 20
187.96742069000805
 10
753.9202364402869
 20
187.62566174329896
 10
746.0597806659774
 20
187.62566174329896
 10
745.7180217192683
 20
187.28390279658984
 10
739.2246017317954
 20
187.28390279658984
 10
738.8828427850863
 20
186.94214384988075
 10
730.3388691173586
 20
186.94214384988075
 10
729.9971101706494
 20
186.60038490317163
 10
722.8201722897583
 20
186.60038490317163
 10
722.4784133430492
 20
186.25862595646254
 10
715.9849933555762
 20
186.25862595646254
 10
715.643234408867
 20
185.91686700975342
 10
711.2003681016487
 20
185.91686700975342
 10
710.8586091549396
 20
185.57510806304433
 10
703.3399123273392
 20
185.57510806304433
 10
702.9981533806301
 20
185.2333491163352
 10
695.4794565530298
 20
185.2333491163352
 10
695.1376976063207
 20
184.8915901696261
 10
688.6442776188477
 20
184.8915901696261
 10
688.3025186721386
 20
184.549831222917
 10
681.1255807912473
 20
184.549831222917
 10
680.7838218445382
 20
184.2080722762079
 10
672.9233660702289
 20
184.2080722762079
 10
672.5816071235197
 20
183.86631332949878
 10
663.3541155623739
 20
183.86631332949878
 10
663.0123566156648
 20
183.5245543827897
 10
657.8859724150282
 20
183.5245543827897
 10
657.5442134683191
 20
183.18279543608057
 10
650.3672755874279
 20
183.18279543608057
 10
650.0255166407188
 20
182.84103648937148
 10
635.3298819322272
 20
182.84103648937148
 10
634.9881229855181
 20
182.49927754266236
 10
629.1782208914633
 20
182.49927754266236
 10
628.8364619447542
 20
182.15751859595326
 10
621.317765117154
 20
182.15751859595326
 10
620.9760061704447
 20
181.81575964924417
 10
612.7737914494263
 20
181.81575964924417
 10
612.4320325027172
 20
181.47400070253505
 10
605.596853568535
 20
181.47400070253505
 10
605.255094621826
 20
181.13224175582596
 10
595.685844113971
 20
181.13224175582596
 10
595.3440851672619
 20
180.79048280911684
 10
585.0913167659887
 20
180.79048280911684
 10
584.7495578192796
 20
180.44872386240775
 10
584.0660399258614
 20
180.44872386240775
 10
583.7242809791522
 20
180.79048280911684
 10
583.040763085734
 20
180.79048280911684
 10
582.699004139025
 20
180.44872386240775
 10
578.9396557252248
 20
180.44872386240775
 10
578.5978967785157
 20
180.79048280911684
 10
577.2308609916793
 20
180.79048280911684
 10
576.8891020449702
 20
180.44872386240775
 10
565.2692978568606
 20
180.44872386240775
 10
564.9275389101515
 20
180.79048280911684
 10
564.5857799634424
 20
180.79048280911684
 10
564.2440210167333
 20
180.44872386240775
 10
562.5352262831877
 20
180.44872386240775
 10
562.1934673364786
 20
180.79048280911684
 10
561.8517083897696
 20
180.79048280911684
 10
561.5099494430605
 20
180.44872386240775
 10
547.156073681278
 20
180.44872386240775
 10
546.8143147345689
 20
180.10696491569863
 10
546.1307968411506
 20
180.10696491569863
 10
545.7890378944415
 20
180.44872386240775
 10
545.4472789477325
 20
180.44872386240775
 10
545.1055200010234
 20
180.10696491569863
 10
534.169233706332
 20
180.10696491569863
 10
533.8274747596229
 20
179.76520596898953
 10
530.0681263458227
 20
179.76520596898953
 10
529.7263673991137
 20
180.10696491569863
 10
515.0307326906221
 20
180.10696491569863
 10
514.6889737439129
 20
179.76520596898953
 10
473.6779001388203
 20
179.76520596898953
 10
473.3361411921112
 20
179.4234470222804
 10
462.74161384412895
 20
179.4234470222804
 10
462.3998548974198
 20
179.08168807557132
 10
452.8306043895649
 20
179.08168807557132
 10
452.48884544285573
 20
178.7399291288622
 10
438.81848757449154
 20
178.7399291288622
 10
438.47672862778245
 20
178.3981701821531
 10
434.3756212672732
 20
178.3981701821531
 10
434.0338623205641
 20
178.7399291288622
 10
431.9833086403094
 20
178.7399291288622
 10
431.6415496936003
 20
178.3981701821531
 10
427.54044233309105
 20
178.3981701821531
 10
427.19868338638196
 20
178.7399291288622
 10
426.85692443967287
 20
178.7399291288622
 10
426.5151654929637
 20
178.3981701821531
 10
420.36350445219983
 20
178.3981701821531
 10
420.02174550549074
 20
178.056411235444
 10
415.2371202515633
 20
178.056411235444
 10
414.89536130485413
 20
177.7146522887349
 10
408.40194131738116
 20
177.7146522887349
 10
408.06018237067207
 20
177.37289334202578
 10
402.93379817003546
 20
177.37289334202578
 10
402.59203922332637
 20
177.03113439531668
 10
399.1744497562353
 20
177.03113439531668
 10
398.8326908095262
 20
176.68937544860756
 10
396.09861923585333
 20
176.68937544860756
 10
395.75686028914424
 20
176.34761650189847
 10
390.9722350352168
 20
176.34761650189847
 10
390.63047608850763
 20
176.00585755518935
 10
386.18760978128927
 20
176.00585755518935
 10
385.8458508345802
 20
175.66409860848026
 10
381.4029845273618
 20
175.66409860848026
 10
381.0612255806527
 20
175.32233966177114
 10
378.66891295368896
 20
175.32233966177114
 10
378.32715400697987
 20
174.98058071506205
 10
375.9348413800161
 20
174.98058071506205
 10
375.593082433307
 20
174.63882176835295
 10
372.85901085963417
 20
174.63882176835295
 10
372.5172519129251
 20
174.29706282164383
 10
367.73262665899756
 20
174.29706282164383
 10
367.39086771228847
 20
173.95530387493474
 10
363.97327824519743
 20
173.95530387493474
 10
363.63151929848834
 20
173.61354492822562
 10
359.87217088468816
 20
173.61354492822562
 10
359.53041193797907
 20
173.27178598151653
 10
355.4293045774698
 20
173.27178598151653
 10
355.0875456307607
 20
172.9300270348074
 10
351.3281972169605
 20
172.9300270348074
 10
350.9864382702514
 20
172.58826808809832
 10
348.2523666965786
 20
172.58826808809832
 10
347.9106077498695
 20
172.2465091413892
 10
344.8347772294875
 20
172.2465091413892
 10
344.4930182827784
 20
171.9047501946801
 10
341.07542881568736
 20
171.9047501946801
 10
340.73366986897827
 20
171.56299124797098
 10
337.65783934859627
 20
171.56299124797098
 10
337.3160804018872
 20
171.2212323012619
 10
334.24024988150524
 20
171.2212323012619
 10
333.89849093479614
 20
170.87947335455277
 10
330.8226604144142
 20
170.87947335455277
 10
330.48090146770505
 20
170.53771440784368
 10
327.74682989403226
 20
170.53771440784368
 10
327.4050709473231
 20
170.19595546113456
 10
322.62044569339565
 20
170.19595546113456
 10
322.27868674668656
 20
169.85419651442547
 10
318.86109727959547
 20
169.85419651442547
 10
318.5193383328864
 20
169.51243756771635
 10
315.7852667592135
 20
169.51243756771635
 10
315.44350781250444
 20
169.17067862100726
 10
312.3676772921225
 20
169.17067862100726
 10
312.0259183454134
 20
168.82891967429813
 10
308.9500878250314
 20
168.82891967429813
 10
308.6083288783223
 20
168.48716072758904
 10
305.53249835794037
 20
168.48716072758904
 10
305.1907394112313
 20
168.14540178087992
 10
301.4313909974311
 20
168.14540178087992
 10
301.089632050722
 20
167.80364283417083
 10
298.35556047704915
 20
167.80364283417083
 10
298.01380153034006
 20
167.46188388746174
 10
295.6214889033763
 20
167.46188388746174
 10
295.2797299566672
 20
167.12012494075262
 10
292.88741732970345
 20
167.12012494075262
 10
292.54565838299436
 20
166.77836599404353
 10
289.4698278626124
 20
166.77836599404353
 10
289.1280689159033
 20
166.4366070473344
 10
284.6852026086849
 20
166.4366070473344
 10
284.3434436619758
 20
166.0948481006253
 10
279.90057735475744
 20
166.0948481006253
 10
279.55881840804835
 20
165.7530891539162
 10
275.4577110475391
 20
165.7530891539162
 10
275.11595210083
 20
165.4113302072071
 10
272.04012158044804
 20
165.4113302072071
 10
271.6983626337389
 20
165.06957126049798
 10
268.9642910600661
 20
165.06957126049798
 10
268.62253211335695
 20
164.7278123137889
 10
265.8884605396841
 20
164.7278123137889
 10
265.546701592975
 20
164.38605336707977
 10
262.47087107259307
 20
164.38605336707977
 10
262.129112125884
 20
164.04429442037068
 10
259.7367994989202
 20
164.04429442037068
 10
259.3950405522111
 20
163.70253547366156
 10
257.34448687195646
 20
163.70253547366156
 10
257.00272792524737
 20
163.36077652695246
 10
253.24337951144722
 20
163.36077652695246
 10
252.90162056473812
 20
163.01901758024334
 10
249.48403109764706
 20
163.01901758024334
 10
249.14227215093794
 20
162.67725863353425
 10
246.7499595239742
 20
162.67725863353425
 10
246.40820057726512
 20
162.33549968682513
 10
242.99061111017406
 20
162.33549968682513
 10
242.64885216346494
 20
161.99374074011604
 10
239.573021643083
 20
161.99374074011604
 10
239.2312626963739
 20
161.65198179340692
 10
235.13015533586463
 20
161.65198179340692
 10
234.7883963891555
 20
161.31022284669783
 10
231.71256586877357
 20
161.31022284669783
 10
231.37080692206447
 20
160.9684638999887
 10
227.9532174549734
 20
160.9684638999887
 10
227.6114585082643
 20
160.6267049532796
 10
224.53562798788235
 20
160.6267049532796
 10
224.19386904117326
 20
160.28494600657052
 10
222.14331536091862
 20
160.28494600657052
 10
221.8015564142095
 20
159.9431870598614
 10
220.09276168066398
 20
159.9431870598614
 10
219.75100273395486
 20
159.6014281131523
 10
218.04220800040935
 20
159.6014281131523
 10
217.70044905370025
 20
159.2596691664432
 10
215.9916543201547
 20
159.2596691664432
 10
215.64989537344562
 20
158.9179102197341
 10
213.59934169319098
 20
158.9179102197341
 10
213.25758274648186
 20
158.57615127302498
 10
211.20702906622725
 20
158.57615127302498
 10
210.86527011951813
 20
158.23439232631588
 10
208.8147164392635
 20
158.23439232631588
 10
208.4729574925544
 20
157.89263337960676
 10
205.39712697217243
 20
157.89263337960676
 10
205.05536802546334
 20
157.55087443289767
 10
201.9795375050814
 20
157.55087443289767
 10
201.63777855837228
 20
157.20911548618855
 10
199.24546593140855
 20
157.20911548618855
 10
198.90370698469943
 20
156.86735653947946
 10
197.1949122511539
 20
156.86735653947946
 10
196.8531533044448
 20
156.52559759277034
 10
194.80259962419018
 20
156.52559759277034
 10
194.46084067748106
 20
156.18383864606125
 10
191.7267691038082
 20
156.18383864606125
 10
191.38501015709912
 20
155.84207969935213
 10
186.94214384988075
 20
155.84207969935213
 10
186.60038490317163
 20
155.50032075264303
 10
184.549831222917
 20
155.50032075264303
 10
184.2080722762079
 20
155.1585618059339
 10
182.49927754266236
 20
155.1585618059339
 10
182.15751859595326
 20
154.81680285922482
 10
180.44872386240775
 20
154.81680285922482
 10
180.10696491569863
 20
154.4750439125157
 10
178.7399291288622
 20
154.4750439125157
 10
178.3981701821531
 20
154.1332849658066
 10
176.68937544860756
 20
154.1332849658066
 10
176.34761650189847
 20
153.7915260190975
 10
174.29706282164383
 20
153.7915260190975
 10
173.95530387493474
 20
153.4497670723884
 10
170.19595546113456
 20
153.4497670723884
 10
169.85419651442547
 20
153.1080081256793
 10
168.82891967429813
 20
153.1080081256793
 10
168.48716072758904
 20
152.76624917897018
 10
166.4366070473344
 20
152.76624917897018
 10
166.0948481006253
 20
152.4244902322611
 10
164.04429442037068
 20
152.4244902322611
 10
163.70253547366156
 20
152.08273128555197
 10
161.99374074011604
 20
152.08273128555197
 10
161.65198179340692
 20
151.74097233884288
 10
159.6014281131523
 20
151.74097233884288
 10
159.2596691664432
 20
151.39921339213376
 10
157.89263337960676
 20
151.39921339213376
 10
157.55087443289767
 20
151.05745444542467
 10
156.18383864606125
 20
151.05745444542467
 10
155.84207969935213
 20
150.71569549871555
 10
154.4750439125157
 20
150.71569549871555
 10
154.1332849658066
 20
150.37393655200646
 10
151.74097233884288
 20
150.37393655200646
 10
151.39921339213376
 20
150.03217760529733
 10
149.00690076517003
 20
150.03217760529733
 10
148.6651418184609
 20
149.69041865858824
 10
146.27282919149718
 20
149.69041865858824
 10
145.93107024478806
 20
149.34865971187912
 10
143.19699867111524
 20
149.34865971187912
 10
142.85523972440612
 20
149.00690076517003
 10
138.41237341718775
 20
149.00690076517003
 10
138.07061447047866
 20
148.6651418184609
 10
134.9947839500967
 20
148.6651418184609
 10
134.6530250033876
 20
148.32338287175182
 10
129.8683997494601
 20
148.32338287175182
 10
129.52664080275102
 20
147.9816239250427
 10
126.79256922907817
 20
147.9816239250427
 10
126.45081028236906
 20
147.6398649783336
 10
124.05849765540532
 20
147.6398649783336
 10
123.71673870869621
 20
147.29810603162449
 10
118.93211345476874
 20
147.29810603162449
 10
118.59035450805963
 20
146.9563470849154
 10
113.12221136071393
 20
146.9563470849154
 10
112.78045241400484
 20
146.61458813820627
 10
107.65406821336825
 20
146.61458813820627
 10
107.31230926665914
 20
146.27282919149718
 10
104.5782376929863
 20
146.27282919149718
 10
104.2364787462772
 20
145.93107024478806
 10
102.52768401273167
 20
145.93107024478806
 10
102.18592506602256
 20
145.58931129807897
 10
99.79361243905882
 20
145.58931129807897
 10
99.45185349234971
 20
145.24755235136988
 10
95.69250507854956
 20
145.24755235136988
 10
95.35074613184045
 20
144.90579340466076
 10
92.95843350487671
 20
144.90579340466076
 10
92.6166745581676
 20
144.56403445795166
 10
91.93315666474939
 20
144.56403445795166
 10
91.59139771804028
 20
144.22227551124254
 10
91.24963877133118
 20
144.22227551124254
 10
90.90787982462209
 20
143.88051656453345
 10
90.56612087791298
 20
143.88051656453345
 10
90.22436193120387
 20
143.53875761782433
 10
89.54084403778566
 20
143.53875761782433
 10
89.19908509107655
 20
143.19699867111524
 10
88.17380825094924
 20
143.19699867111524
 10
87.83204930424013
 20
142.85523972440612
 10
78.94631668980338
 20
142.85523972440612
 10
78.60455774309428
 20
142.51348077769703
 10
74.84520932929412
 20
142.51348077769703
 10
74.50345038258502
 20
142.1717218309879
 10
72.79465564903948
 20
142.1717218309879
 10
72.45289670233038
 20
141.8299628842788
 10
71.08586091549395
 20
141.8299628842788
 10
70.74410196878485
 20
141.4882039375697
 10
68.35178934182112
 20
141.4882039375697
 10
68.01003039511201
 20
141.1464449908606
 10
62.883646194475425
 20
141.1464449908606
 10
62.54188724776632
 20
140.80468604415148
 10
59.807815674093476
 20
140.80468604415148
 10
59.46605672738437
 20
140.4629270974424
 10
57.073744100420626
 20
140.4629270974424
 10
56.73198515371152
 20
140.12116815073327
 10
49.89680621952941
 20
140.12116815073327
 10
49.5550472728203
 20
139.77940920402418
 10
44.08690412547462
 20
139.77940920402418
 10
43.74514517876551
 20
139.43765025731506
 10
41.352832551801775
 20
139.43765025731506
 10
41.01107360509267
 20
139.09589131060596
 10
39.644037818256244
 20
139.09589131060596
 10
39.30227887154714
 20
138.75413236389684
 10
38.277002031419826
 20
138.75413236389684
 10
37.93524308471072
 20
138.41237341718775
 10
37.593484138001614
 20
138.41237341718775
 10
37.25172519129251
 20
138.07061447047866
 10
36.568207297874295
 20
138.07061447047866
 10
36.22644835116519
 20
137.72885552376954
 10
35.54293045774698
 20
137.72885552376954
 10
35.20117151103787
 20
137.38709657706045
 10
34.859412564328764
 20
137.38709657706045
 10
34.517653617619665
 20
137.04533763035133
 10
33.83413572420145
 20
137.04533763035133
 10
33.492376777492346
 20
136.70357868364223
 10
33.15061783078324
 20
136.70357868364223
 10
32.808858884074134
 20
136.3618197369331
 10
32.46709993736503
 20
136.3618197369331
 10
32.12534099065592
 20
136.02006079022402
 10
31.441823097237712
 20
136.02006079022402
 10
31.100064150528606
 20
135.6783018435149
 10
30.416546257110394
 20
135.6783018435149
 10
30.07478731040129
 20
135.3365428968058
 10
29.39126941698308
 20
135.3365428968058
 10
29.049510470273972
 20
134.9947839500967
 10
28.024233630146657
 20
134.9947839500967
 10
27.68247468343755
 20
134.6530250033876
 10
26.657197843310232
 20
134.6530250033876
 10
26.31543889660113
 20
134.31126605667848
 10
25.29016205647381
 20
134.31126605667848
 10
24.948403109764705
 20
133.96950710996938
 10
24.264885216346496
 20
133.96950710996938
 10
23.92312626963739
 20
133.62774816326026
 10
23.239608376219177
 20
133.62774816326026
 10
22.89784942951007
 20
133.28598921655117
 10
21.872572589382756
 20
133.28598921655117
 10
21.53081364267365
 20
132.94423026984205
 10
20.16377785583723
 20
132.94423026984205
 10
19.822018909128122
 20
132.60247132313296
 10
18.796742069000807
 20
132.60247132313296
 10
18.4549831222917
 20
132.26071237642384
 10
17.77146522887349
 20
132.26071237642384
 10
17.429706282164382
 20
131.91895342971475
 10
17.08794733545528
 20
131.91895342971475
 10
16.746188388746173
 20
131.57719448300563
 10
16.404429442037067
 20
131.57719448300563
 10
16.06267049532796
 20
131.23543553629654
 10
15.37915260190975
 20
131.23543553629654
 10
15.037393655200646
 20
130.89367658958744
 10
13.670357868364222
 20
130.89367658958744
 10
13.328598921655116
 20
130.55191764287832
 10
12.3033220815278
 20
130.55191764287832
 10
11.961563134818695
 20
130.21015869616923
 10
10.936286294691378
 20
130.21015869616923
 10
10.594527347982272
 20
129.8683997494601
 10
9.911009454564061
 20
129.8683997494601
 10
9.569250507854957
 20
129.52664080275102
 10
9.22749156114585
 20
129.52664080275102
 10
8.885732614436744
 20
129.1848818560419
 10
5.468143147345689
 20
129.1848818560419
 10
5.126384200636584
 20
129.52664080275102
 10
1.7087947335455278
 20
129.52664080275102
 10
1.3670357868364222
 20
129.1848818560419
 10
0.0
 20
129.1848818560419
  0
ENDSEC
  0
SECTION
  2
OBJECTS
  0
DICTIONARY
  5
A
330
0
100
AcDbDictionary
281
1
  3
ACAD_COLOR
350
B
  3
ACAD_GROUP
350
C
  3
ACAD_LAYOUT
350
D
  3
ACAD_MATERIAL
350
E
  3
ACAD_MLEADERSTYLE
350
F
  3
ACAD_MLINESTYLE
350
10
  3
ACAD_PLOTSETTINGS
350
11
  3
ACAD_PLOTSTYLENAME
350
12
  3
ACAD_SCALELIST
350
14
  3
ACAD_TABLESTYLE
350
15
  3
ACAD_VISUALSTYLE
350
16
  3
EZDXF_META
350
2D
  0
DICTIONARY
  5
B
330
A
100
AcDbDictionary
281
1
  0
DICTIONARY
  5
C
330
A
100
AcDbDictionary
281
1
  0
DICTIONARY
  5
D
330
A
100
AcDbDictionary
281
1
  3
Model
350
1A
  3
Layout1
350
1E
  0
DICTIONARY
  5
E
330
A
100
AcDbDictionary
281
1
  3
ByBlock
350
1F
  3
ByLayer
350
20
  3
Global
350
21
  0
DICTIONARY
  5
F
330
A
100
AcDbDictionary
281
1
  3
Standard
350
2C
  0
DICTIONARY
  5
10
330
A
100
AcDbDictionary
281
1
  3
Standard
350
22
  0
DICTIONARY
  5
11
330
A
100
AcDbDictionary
281
1
  0
ACDBDICTIONARYWDFLT
  5
12
330
A
100
AcDbDictionary
281
1
  3
Normal
350
13
100
AcDbDictionaryWithDefault
340
13
  0
ACDBPLACEHOLDER
  5
13
330
12
  0
DICTIONARY
  5
14
330
A
100
AcDbDictionary
281
1
  0
DICTIONARY
  5
15
330
A
100
AcDbDictionary
281
1
  0
DICTIONARY
  5
16
330
A
100
AcDbDictionary
281
1
  3
2dWireframe
350
5A
  3
Basic
350
5B
  3
Brighten
350
5C
  3
ColorChange
350
5D
  3
Conceptual
350
5E
  3
Dim
350
5F
  3
EdgeColorOff
350
60
  3
Facepattern
350
61
  3
Flat
350
62
  3
FlatWithEdges
350
63
  3
Gouraud
350
64
  3
GouraudWithEdges
350
65
  3
Hidden
350
66
  3
JitterOff
350
67
  3
Linepattern
350
68
  3
Modeling
350
69
  3
OverhangOff
350
6A
  3
Realistic
350
6B
  3
Shaded
350
6C
  3
Shaded with edges
350
6D
  3
Shades of Gray
350
6E
  3
Sketchy
350
6F
  3
Thicken
350
70
  3
Wireframe
350
71
  3
X-Ray
350
72
  0
LAYOUT
  5
1A
330
D
100
AcDbPlotSettings
  1

  4
A3
  6

 40
7.5
 41
20.0
 42
7.5
 43
20.0
 44
420.0
 45
297.0
 46
0.0
 47
0.0
 48
0.0
 49
0.0
140
0.0
141
0.0
142
1.0
143
1.0
 70
1024
 72
1
 73
0
 74
5
  7

 75
16
 76
0
 77
2
 78
300
147
1.0
148
0.0
149
0.0
100
AcDbLayout
  1
Model
 70
1
 71
0
 10
0.0
 20
0.0
 11
420.0
 21
297.0
 12
0.0
 22
0.0
 32
0.0
 14
1e+20
 24
1e+20
 34
1e+20
 15
-1e+20
 25
-1e+20
 35
-1e+20
146
0.0
 13
0.0
 23
0.0
 33
0.0
 16
1.0
 26
0.0
 36
0.0
 17
0.0
 27
1.0
 37
0.0
 76
1
330
17
  0
LAYOUT
  5
1E
330
D
100
AcDbPlotSettings
  1

  4
A3
  6

 40
7.5
 41
20.0
 42
7.5
 43
20.0
 44
420.0
 45
297.0
 46
0.0
 47
0.0
 48
0.0
 49
0.0
140
0.0
141
0.0
142
1.0
143
1.0
 70
0
 72
1
 73
0
 74
5
  7

 75
16
 76
0
 77
2
 78
300
147
1.0
148
0.0
149
0.0
100
AcDbLayout
  1
Layout1
 70
1
 71
1
 10
0.0
 20
0.0
 11
420.0
 21
297.0
 12
0.0
 22
0.0
 32
0.0
 14
1e+20
 24
1e+20
 34
1e+20
 15
-1e+20
 25
-1e+20
 35
-1e+20
146
0.0
 13
0.0
 23
0.0
 33
0.0
 16
1.0
 26
0.0
 36
0.0
 17
0.0
 27
1.0
 37
0.0
 76
1
330
1B
  0
MATERIAL
  5
1F
102
{ACAD_REACTORS
330
E
102
}
330
E
100
AcDbMaterial
  1
ByBlock
  2

 70
0
 40
1.0
 71
1
 41
1.0
 91
-1023410177
 42
1.0
 72
1
  3

 73
1
 74
1
 75
1
 44
0.5
 73
0
 45
1.0
 46
1.0
 77
1
  4

 78
1
 79
1
170
1
 48
1.0
171
1
  6

172
1
173
1
174
1
140
1.0
141
1.0
175
1
  7

176
1
177
1
178
1
143
1.0
179
1
  8

270
1
271
1
272
1
145
1.0
146
1.0
273
1
  9

274
1
275
1
276
1
 42
1.0
 72
1
  3

 73
1
 74
1
 75
1
 94
63
  0
MATERIAL
  5
20
102
{ACAD_REACTORS
330
E
102
}
330
E
100
AcDbMaterial
  1
ByLayer
  2

 70
0
 40
1.0
 71
1
 41
1.0
 91
-1023410177
 42
1.0
 72
1
  3

 73
1
 74
1
 75
1
 44
0.5
 73
0
 45
1.0
 46
1.0
 77
1
  4

 78
1
 79
1
170
1
 48
1.0
171
1
  6

172
1
173
1
174
1
140
1.0
141
1.0
175
1
  7

176
1
177
1
178
1
143
1.0
179
1
  8

270
1
271
1
272
1
145
1.0
146
1.0
273
1
  9

274
1
275
1
276
1
 42
1.0
 72
1
  3

 73
1
 74
1
 75
1
 94
63
  0
MATERIAL
  5
21
102
{ACAD_REACTORS
330
E
102
}
330
E
100
AcDbMaterial
  1
Global
  2

 70
0
 40
1.0
 71
1
 41
1.0
 91
-1023410177
 42
1.0
 72
1
  3

 73
1
 74
1
 75
1
 44
0.5
 73
0
 45
1.0
 46
1.0
 77
1
  4

 78
1
 79
1
170
1
 48
1.0
171
1
  6

172
1
173
1
174
1
140
1.0
141
1.0
175
1
  7

176
1
177
1
178
1
143
1.0
179
1
  8

270
1
271
1
272
1
145
1.0
146
1.0
273
1
  9

274
1
275
1
276
1
 42
1.0
 72
1
  3

 73
1
 74
1
 75
1
 94
63
  0
MLINESTYLE
  5
22
102
{ACAD_REACTORS
330
10
102
}
330
10
100
AcDbMlineStyle
  2
Standard
 70
0
  3

 62
256
 51
90.0
 52
90.0
 71
2
 49
0.5
 62
256
  6
BYLAYER
 49
-0.5
 62
256
  6
BYLAYER
  0
MLEADERSTYLE
  5
2C
102
{ACAD_REACTORS
330
F
102
}
330
F
100
AcDbMLeaderStyle
179
2
170
2
171
1
172
0
 90
2
 40
0.0
 41
0.0
173
1
 91
-1056964608
 92
-2
290
1
 42
2.0
291
1
 43
8.0
  3
Standard
 44
4.0
300

342
29
174
1
175
1
176
0
178
1
 93
-1056964608
 45
4.0
292
0
297
0
 46
4.0
 94
-1056964608
 47
1.0
 49
1.0
140
1.0
294
1
141
0.0
177
0
142
1.0
295
0
296
0
143
3.75
271
0
272
9
273
9
  0
DICTIONARY
  5
2D
330
A
100
AcDbDictionary
280
1
281
1
  3
CREATED_BY_EZDXF
350
2E
  3
WRITTEN_BY_EZDXF
350
8E
  0
DICTIONARYVAR
  5
2E
330
2D
100
DictionaryVariables
280
0
  1
1.4.2 @ 2025-06-04T15:39:54.684753+00:00
  0
VISUALSTYLE
  5
5A
102
{ACAD_REACTORS
330
16
102
}
330
16
100
AcDbVisualStyle
  2
2dWireframe
 70
4
177
3
291
0
 70
58
 90
2
176
1
 90
2
176
1
 90
0
176
1
 90
0
176
1
 40
0.6
176
1
 40
30.0
176
1
 62
7
420
16777215
176
1
 90
1
176
1
 90
4
176
1
 62
7
176
1
 62
257
176
1
 90
1
176
1
 90
1
176
1
 40
1.0
176
1
 90
8
176
1
 62
7
176
1
 40
1.0
176
1
 90
1
176
1
 90
6
176
1
 90
2
176
1
 62
7
176
1
 90
5
176
1
 90
0
176
1
 90
0
176
1
290
0
176
1
 90
1
176
1
 40
0.0
176
1
 90
0
176
1
290
1
176
1
290
1
176
1
290
0
176
1
290
0
176
1
290
0
176
1
290
0
176
1
290
0
176
1
290
0
176
1
290
0
176
1
 90
50
176
1
 40
0.0
176
1
 40
1.0
176
1
 90
0
176
1
 62
18
420
0
176
1
 90
50
176
1
 90
3
176
1
 62
5
420
255
176
1
290
0
176
1
 90
50
176
1
 90
50
176
1
 90
50
176
1
290
0
176
1
 90
50
176
1
 62
256
176
0
 40
1.0
176
0
 90
2
176
1
  1
strokes_ogs.tif
176
1
290
0
176
1
 40
1.0
176
1
 40
1.0
176
1
  0
VISUALSTYLE
  5
5B
102
{ACAD_REACTORS
330
16
102
}
330
16
100
AcDbVisualStyle
  2
Basic
 70
7
177
3
291
1
 70
58
 90
2
176
1
 90
2
176
1
 90
0
176
1
 90
1
176
1
 40
0.6
176
1
 40
30.0
176
1
 62
7
420
16777215
176
1
 90
1
176
1
 90
4
176
1
 62
7
176
1
 62
257
176
1
 90
1
176
1
 90
1
176
1
 40
1.0
176
1
 90
8
176
1
 62
7
176
1
 40
1.0
176
1
 90
1
176
1
 90
6
176
1
 90
2
176
1
 62
7
176
1
 90
5
176
1
 90
0
176
1
 90
0
176
1
290
0
176
1
 90
1
176
1
 40
0.0
176
1
 90
0
176
1
290
0
176
1
290
1
176
1
290
1
176
1
290
0
176
1
290
0
176
1
290
0
176
1
290
0
176
1
290
0
176
1
290
0
176
1
 90
50
176
1
 40
0.0
176
1
 40
1.0
176
1
 90
0
176
1
 62
18
420
0
176
1
 90
50
176
1
 90
3
176
1
 62
5
420
255
176
1
290
0
176
1
 90
50
176
1
 90
50
176
1
 90
50
176
1
290
0
176
1
 90
50
176
1
 62
256
176
0
 40
1.0
176
0
 90
2
176
1
  1
strokes_ogs.tif
176
1
290
0
176
1
 40
1.0
176
1
 40
1.0
176
1
  0
VISUALSTYLE
  5
5C
102
{ACAD_REACTORS
330
16
102
}
330
16
100
AcDbVisualStyle
  2
Brighten
 70
12
177
3
291
1
 70
58
 90
2
176
1
 90
2
176
1
 90
0
176
1
 90
2
176
1
 40
0.6
176
1
 40
30.0
176
1
 62
7
420
16777215
176
1
 90
1
176
1
 90
4
176
1
 62
7
176
1
 62
257
176
1
 90
1
176
1
 90
1
176
1
 40
1.0
176
1
 90
8
176
1
 62
7
176
1
 40
1.0
176
1
 90
1
176
1
 90
6
176
1
 90
2
176
1
 62
7
176
1
 90
5
176
1
 90
0
176
1
 90
0
176
1
290
0
176
1
 90
1
176
1
 40
0.0
176
1
 90
0
176
1
290
0
176
1
290
1
176
1
290
1
176
1
290
0
176
1
290
0
176
1
290
0
176
1
290
0
176
1
290
0
176
1
290
0
176
1
 90
50
176
1
 40
0.0
176
1
 40
1.0
176
1
 90
0
176
1
 62
18
420
0
176
1
 90
50
176
1
 90
3
176
1
 62
5
420
255
176
1
290
0
176
1
 90
50
176
1
 90
50
176
1
 90
50
176
1
290
0
176
1
 90
50
176
1
 62
256
176
0
 40
1.0
176
0
 90
2
176
1
  1
strokes_ogs.tif
176
1
290
0
176
1
 40
1.0
176
1
 40
1.0
176
1
  0
VISUALSTYLE
  5
5D
102
{ACAD_REACTORS
330
16
102
}
330
16
100
AcDbVisualStyle
  2
ColorChange
 70
16
177
3
291
1
 70
58
 90
2
176
1
 90
2
176
1
 90
0
176
1
 90
2
176
1
 40
0.6
176
1
 40
30.0
176
1
 62
7
420
16777215
176
1
 90
1
176
1
 90
4
176
1
 62
7
176
1
 62
257
176
1
 90
1
176
1
 90
1
176
1
 40
1.0
176
1
 90
8
176
1
 62
7
176
1
 40
1.0
176
1
 90
1
176
1
 90
6
176
1
 90
2
176
1
 62
7
176
1
 90
5
176
1
 90
0
176
1
 90
0
176
1
290
0
176
1
 90
1
176
1
 40
0.0
176
1
 90
0
176
1
290
0
176
1
290
1
176
1
290
1
176
1
290
0
176
1
290
0
176
1
290
0
176
1
290
0
176
1
290
0
176
1
290
0
176
1
 90
50
176
1
 40
0.0
176
1
 40
1.0
176
1
 90
0
176
1
 62
18
420
0
176
1
 90
50
176
1
 90
3
176
1
 62
5
420
255
176
1
290
0
176
1
 90
50
176
1
 90
50
176
1
 90
50
176
1
290
0
176
1
 90
50
176
1
 62
256
176
0
 40
1.0
176
0
 90
2
176
1
  1
strokes_ogs.tif
176
1
290
0
176
1
 40
1.0
176
1
 40
1.0
176
1
  0
VISUALSTYLE
  5
5E
102
{ACAD_REACTORS
330
16
102
}
330
16
100
AcDbVisualStyle
  2
Conceptual
 70
9
177
3
291
0
 70
58
 90
2
176
1
 90
2
176
1
 90
0
176
1
 90
3
176
1
 40
0.6
176
1
 40
30.0
176
1
 62
7
420
16777215
176
1
 90
1
176
1
 90
4
176
1
 62
7
176
1
 62
257
176
1
 90
1
176
1
 90
1
176
1
 40
1.0
176
1
 90
8
176
1
 62
7
176
1
 40
1.0
176
1
 90
1
176
1
 90
6
176
1
 90
2
176
1
 62
7
176
1
 90
5
176
1
 90
0
176
1
 90
0
176
1
290
0
176
1
 90
1
176
1
 40
0.0
176
1
 90
0
176
1
290
0
176
1
290
1
176
1
290
1
176
1
290
0
176
1
290
0
176
1
290
0
176
1
290
0
176
1
290
0
176
1
290
0
176
1
 90
50
176
1
 40
0.0
176
1
 40
1.0
176
1
 90
0
176
1
 62
18
420
0
176
1
 90
50
176
1
 90
3
176
1
 62
5
420
255
176
1
290
0
176
1
 90
50
176
1
 90
50
176
1
 90
50
176
1
290
0
176
1
 90
50
176
1
 62
256
176
0
 40
1.0
176
0
 90
2
176
1
  1
strokes_ogs.tif
176
1
290
0
176
1
 40
1.0
176
1
 40
1.0
176
1
  0
VISUALSTYLE
  5
5F
102
{ACAD_REACTORS
330
16
102
}
330
16
100
AcDbVisualStyle
  2
Dim
 70
11
177
3
291
1
 70
58
 90
2
176
1
 90
2
176
1
 90
0
176
1
 90
2
176
1
 40
0.6
176
1
 40
30.0
176
1
 62
7
420
16777215
176
1
 90
1
176
1
 90
4
176
1
 62
7
176
1
 62
257
176
1
 90
1
176
1
 90
1
176
1
 40
1.0
176
1
 90
8
176
1
 62
7
176
1
 40
1.0
176
1
 90
1
176
1
 90
6
176
1
 90
2
176
1
 62
7
176
1
 90
5
176
1
 90
0
176
1
 90
0
176
1
290
0
176
1
 90
1
176
1
 40
0.0
176
1
 90
0
176
1
290
0
176
1
290
1
176
1
290
1
176
1
290
0
176
1
290
0
176
1
290
0
176
1
290
0
176
1
290
0
176
1
290
0
176
1
 90
50
176
1
 40
0.0
176
1
 40
1.0
176
1
 90
0
176
1
 62
18
420
0
176
1
 90
50
176
1
 90
3
176
1
 62
5
420
255
176
1
290
0
176
1
 90
50
176
1
 90
50
176
1
 90
50
176
1
290
0
176
1
 90
50
176
1
 62
256
176
0
 40
1.0
176
0
 90
2
176
1
  1
strokes_ogs.tif
176
1
290
0
176
1
 40
1.0
176
1
 40
1.0
176
1
  0
VISUALSTYLE
  5
60
102
{ACAD_REACTORS
330
16
102
}
330
16
100
AcDbVisualStyle
  2
EdgeColorOff
 70
22
177
3
291
1
 70
58
 90
2
176
1
 90
2
176
1
 90
0
176
1
 90
2
176
1
 40
0.6
176
1
 40
30.0
176
1
 62
7
420
16777215
176
1
 90
1
176
1
 90
4
176
1
 62
7
176
1
 62
257
176
1
 90
1
176
1
 90
1
176
1
 40
1.0
176
1
 90
8
176
1
 62
7
176
1
 40
1.0
176
1
 90
1
176
1
 90
6
176
1
 90
2
176
1
 62
7
176
1
 90
5
176
1
 90
0
176
1
 90
0
176
1
290
0
176
1
 90
1
176
1
 40
0.0
176
1
 90
0
176
1
290
0
176
1
290
1
176
1
290
1
176
1
290
0
176
1
290
0
176
1
290
0
176
1
290
0
176
1
290
0
176
1
290
0
176
1
 90
50
176
1
 40
0.0
176
1
 40
1.0
176
1
 90
0
176
1
 62
18
420
0
176
1
 90
50
176
1
 90
3
176
1
 62
5
420
255
176
1
290
0
176
1
 90
50
176
1
 90
50
176
1
 90
50
176
1
290
0
176
1
 90
50
176
1
 62
256
176
0
 40
1.0
176
0
 90
2
176
1
  1
strokes_ogs.tif
176
1
290
0
176
1
 40
1.0
176
1
 40
1.0
176
1
  0
VISUALSTYLE
  5
61
102
{ACAD_REACTORS
330
16
102
}
330
16
100
AcDbVisualStyle
  2
Facepattern
 70
15
177
3
291
1
 70
58
 90
2
176
1
 90
2
176
1
 90
0
176
1
 90
2
176
1
 40
0.6
176
1
 40
30.0
176
1
 62
7
420
16777215
176
1
 90
1
176
1
 90
4
176
1
 62
7
176
1
 62
257
176
1
 90
1
176
1
 90
1
176
1
 40
1.0
176
1
 90
8
176
1
 62
7
176
1
 40
1.0
176
1
 90
1
176
1
 90
6
176
1
 90
2
176
1
 62
7
176
1
 90
5
176
1
 90
0
176
1
 90
0
176
1
290
0
176
1
 90
1
176
1
 40
0.0
176
1
 90
0
176
1
290
0
176
1
290
1
176
1
290
1
176
1
290
0
176
1
290
0
176
1
290
0
176
1
290
0
176
1
290
0
176
1
290
0
176
1
 90
50
176
1
 40
0.0
176
1
 40
1.0
176
1
 90
0
176
1
 62
18
420
0
176
1
 90
50
176
1
 90
3
176
1
 62
5
420
255
176
1
290
0
176
1
 90
50
176
1
 90
50
176
1
 90
50
176
1
290
0
176
1
 90
50
176
1
 62
256
176
0
 40
1.0
176
0
 90
2
176
1
  1
strokes_ogs.tif
176
1
290
0
176
1
 40
1.0
176
1
 40
1.0
176
1
  0
VISUALSTYLE
  5
62
102
{ACAD_REACTORS
330
16
102
}
330
16
100
AcDbVisualStyle
  2
Flat
 70
0
177
3
291
1
 70
58
 90
2
176
1
 90
2
176
1
 90
0
176
1
 90
2
176
1
 40
0.6
176
1
 40
30.0
176
1
 62
7
420
16777215
176
1
 90
1
176
1
 90
4
176
1
 62
7
176
1
 62
257
176
1
 90
1
176
1
 90
1
176
1
 40
1.0
176
1
 90
8
176
1
 62
7
176
1
 40
1.0
176
1
 90
1
176
1
 90
6
176
1
 90
2
176
1
 62
7
176
1
 90
5
176
1
 90
0
176
1
 90
0
176
1
290
0
176
1
 90
1
176
1
 40
0.0
176
1
 90
0
176
1
290
0
176
1
290
1
176
1
290
1
176
1
290
0
176
1
290
0
176
1
290
0
176
1
290
0
176
1
290
0
176
1
290
0
176
1
 90
50
176
1
 40
0.0
176
1
 40
1.0
176
1
 90
0
176
1
 62
18
420
0
176
1
 90
50
176
1
 90
3
176
1
 62
5
420
255
176
1
290
0
176
1
 90
50
176
1
 90
50
176
1
 90
50
176
1
290
0
176
1
 90
50
176
1
 62
256
176
0
 40
1.0
176
0
 90
2
176
1
  1
strokes_ogs.tif
176
1
290
0
176
1
 40
1.0
176
1
 40
1.0
176
1
  0
VISUALSTYLE
  5
63
102
{ACAD_REACTORS
330
16
102
}
330
16
100
AcDbVisualStyle
  2
FlatWithEdges
 70
1
177
3
291
1
 70
58
 90
2
176
1
 90
2
176
1
 90
0
176
1
 90
2
176
1
 40
0.6
176
1
 40
30.0
176
1
 62
7
420
16777215
176
1
 90
1
176
1
 90
4
176
1
 62
7
176
1
 62
257
176
1
 90
1
176
1
 90
1
176
1
 40
1.0
176
1
 90
8
176
1
 62
7
176
1
 40
1.0
176
1
 90
1
176
1
 90
6
176
1
 90
2
176
1
 62
7
176
1
 90
5
176
1
 90
0
176
1
 90
0
176
1
290
0
176
1
 90
1
176
1
 40
0.0
176
1
 90
0
176
1
290
0
176
1
290
1
176
1
290
1
176
1
290
0
176
1
290
0
176
1
290
0
176
1
290
0
176
1
290
0
176
1
290
0
176
1
 90
50
176
1
 40
0.0
176
1
 40
1.0
176
1
 90
0
176
1
 62
18
420
0
176
1
 90
50
176
1
 90
3
176
1
 62
5
420
255
176
1
290
0
176
1
 90
50
176
1
 90
50
176
1
 90
50
176
1
290
0
176
1
 90
50
176
1
 62
256
176
0
 40
1.0
176
0
 90
2
176
1
  1
strokes_ogs.tif
176
1
290
0
176
1
 40
1.0
176
1
 40
1.0
176
1
  0
VISUALSTYLE
  5
64
102
{ACAD_REACTORS
330
16
102
}
330
16
100
AcDbVisualStyle
  2
Gouraud
 70
2
177
3
291
1
 70
58
 90
2
176
1
 90
2
176
1
 90
0
176
1
 90
2
176
1
 40
0.6
176
1
 40
30.0
176
1
 62
7
420
16777215
176
1
 90
1
176
1
 90
4
176
1
 62
7
176
1
 62
257
176
1
 90
1
176
1
 90
1
176
1
 40
1.0
176
1
 90
8
176
1
 62
7
176
1
 40
1.0
176
1
 90
1
176
1
 90
6
176
1
 90
2
176
1
 62
7
176
1
 90
5
176
1
 90
0
176
1
 90
0
176
1
290
0
176
1
 90
1
176
1
 40
0.0
176
1
 90
0
176
1
290
0
176
1
290
1
176
1
290
1
176
1
290
0
176
1
290
0
176
1
290
0
176
1
290
0
176
1
290
0
176
1
290
0
176
1
 90
50
176
1
 40
0.0
176
1
 40
1.0
176
1
 90
0
176
1
 62
18
420
0
176
1
 90
50
176
1
 90
3
176
1
 62
5
420
255
176
1
290
0
176
1
 90
50
176
1
 90
50
176
1
 90
50
176
1
290
0
176
1
 90
50
176
1
 62
256
176
0
 40
1.0
176
0
 90
2
176
1
  1
strokes_ogs.tif
176
1
290
0
176
1
 40
1.0
176
1
 40
1.0
176
1
  0
VISUALSTYLE
  5
65
102
{ACAD_REACTORS
330
16
102
}
330
16
100
AcDbVisualStyle
  2
GouraudWithEdges
 70
3
177
3
291
1
 70
58
 90
2
176
1
 90
2
176
1
 90
0
176
1
 90
2
176
1
 40
0.6
176
1
 40
30.0
176
1
 62
7
420
16777215
176
1
 90
1
176
1
 90
4
176
1
 62
7
176
1
 62
257
176
1
 90
1
176
1
 90
1
176
1
 40
1.0
176
1
 90
8
176
1
 62
7
176
1
 40
1.0
176
1
 90
1
176
1
 90
6
176
1
 90
2
176
1
 62
7
176
1
 90
5
176
1
 90
0
176
1
 90
0
176
1
290
0
176
1
 90
1
176
1
 40
0.0
176
1
 90
0
176
1
290
0
176
1
290
1
176
1
290
1
176
1
290
0
176
1
290
0
176
1
290
0
176
1
290
0
176
1
290
0
176
1
290
0
176
1
 90
50
176
1
 40
0.0
176
1
 40
1.0
176
1
 90
0
176
1
 62
18
420
0
176
1
 90
50
176
1
 90
3
176
1
 62
5
420
255
176
1
290
0
176
1
 90
50
176
1
 90
50
176
1
 90
50
176
1
290
0
176
1
 90
50
176
1
 62
256
176
0
 40
1.0
176
0
 90
2
176
1
  1
strokes_ogs.tif
176
1
290
0
176
1
 40
1.0
176
1
 40
1.0
176
1
  0
VISUALSTYLE
  5
66
102
{ACAD_REACTORS
330
16
102
}
330
16
100
AcDbVisualStyle
  2
Hidden
 70
6
177
3
291
0
 70
58
 90
2
176
1
 90
2
176
1
 90
0
176
1
 90
1
176
1
 40
0.6
176
1
 40
30.0
176
1
 62
7
420
16777215
176
1
 90
1
176
1
 90
4
176
1
 62
7
176
1
 62
257
176
1
 90
1
176
1
 90
1
176
1
 40
1.0
176
1
 90
8
176
1
 62
7
176
1
 40
1.0
176
1
 90
1
176
1
 90
6
176
1
 90
2
176
1
 62
7
176
1
 90
5
176
1
 90
0
176
1
 90
0
176
1
290
0
176
1
 90
1
176
1
 40
0.0
176
1
 90
0
176
1
290
0
176
1
290
1
176
1
290
1
176
1
290
0
176
1
290
0
176
1
290
0
176
1
290
0
176
1
290
0
176
1
290
0
176
1
 90
50
176
1
 40
0.0
176
1
 40
1.0
176
1
 90
0
176
1
 62
18
420
0
176
1
 90
50
176
1
 90
3
176
1
 62
5
420
255
176
1
290
0
176
1
 90
50
176
1
 90
50
176
1
 90
50
176
1
290
0
176
1
 90
50
176
1
 62
256
176
0
 40
1.0
176
0
 90
2
176
1
  1
strokes_ogs.tif
176
1
290
0
176
1
 40
1.0
176
1
 40
1.0
176
1
  0
VISUALSTYLE
  5
67
102
{ACAD_REACTORS
330
16
102
}
330
16
100
AcDbVisualStyle
  2
JitterOff
 70
20
177
3
291
1
 70
58
 90
2
176
1
 90
2
176
1
 90
0
176
1
 90
2
176
1
 40
0.6
176
1
 40
30.0
176
1
 62
7
420
16777215
176
1
 90
1
176
1
 90
4
176
1
 62
7
176
1
 62
257
176
1
 90
1
176
1
 90
1
176
1
 40
1.0
176
1
 90
8
176
1
 62
7
176
1
 40
1.0
176
1
 90
1
176
1
 90
6
176
1
 90
2
176
1
 62
7
176
1
 90
5
176
1
 90
0
176
1
 90
0
176
1
290
0
176
1
 90
1
176
1
 40
0.0
176
1
 90
0
176
1
290
0
176
1
290
1
176
1
290
1
176
1
290
0
176
1
290
0
176
1
290
0
176
1
290
0
176
1
290
0
176
1
290
0
176
1
 90
50
176
1
 40
0.0
176
1
 40
1.0
176
1
 90
0
176
1
 62
18
420
0
176
1
 90
50
176
1
 90
3
176
1
 62
5
420
255
176
1
290
0
176
1
 90
50
176
1
 90
50
176
1
 90
50
176
1
290
0
176
1
 90
50
176
1
 62
256
176
0
 40
1.0
176
0
 90
2
176
1
  1
strokes_ogs.tif
176
1
290
0
176
1
 40
1.0
176
1
 40
1.0
176
1
  0
VISUALSTYLE
  5
68
102
{ACAD_REACTORS
330
16
102
}
330
16
100
AcDbVisualStyle
  2
Linepattern
 70
14
177
3
291
1
 70
58
 90
2
176
1
 90
2
176
1
 90
0
176
1
 90
2
176
1
 40
0.6
176
1
 40
30.0
176
1
 62
7
420
16777215
176
1
 90
1
176
1
 90
4
176
1
 62
7
176
1
 62
257
176
1
 90
1
176
1
 90
1
176
1
 40
1.0
176
1
 90
8
176
1
 62
7
176
1
 40
1.0
176
1
 90
1
176
1
 90
6
176
1
 90
2
176
1
 62
7
176
1
 90
5
176
1
 90
0
176
1
 90
0
176
1
290
0
176
1
 90
1
176
1
 40
0.0
176
1
 90
0
176
1
290
0
176
1
290
1
176
1
290
1
176
1
290
0
176
1
290
0
176
1
290
0
176
1
290
0
176
1
290
0
176
1
290
0
176
1
 90
50
176
1
 40
0.0
176
1
 40
1.0
176
1
 90
0
176
1
 62
18
420
0
176
1
 90
50
176
1
 90
3
176
1
 62
5
420
255
176
1
290
0
176
1
 90
50
176
1
 90
50
176
1
 90
50
176
1
290
0
176
1
 90
50
176
1
 62
256
176
0
 40
1.0
176
0
 90
2
176
1
  1
strokes_ogs.tif
176
1
290
0
176
1
 40
1.0
176
1
 40
1.0
176
1
  0
VISUALSTYLE
  5
69
102
{ACAD_REACTORS
330
16
102
}
330
16
100
AcDbVisualStyle
  2
Modeling
 70
10
177
3
291
0
 70
58
 90
2
176
1
 90
2
176
1
 90
0
176
1
 90
2
176
1
 40
0.6
176
1
 40
30.0
176
1
 62
7
420
16777215
176
1
 90
1
176
1
 90
4
176
1
 62
7
176
1
 62
257
176
1
 90
1
176
1
 90
1
176
1
 40
1.0
176
1
 90
8
176
1
 62
7
176
1
 40
1.0
176
1
 90
1
176
1
 90
6
176
1
 90
2
176
1
 62
7
176
1
 90
5
176
1
 90
0
176
1
 90
0
176
1
290
0
176
1
 90
1
176
1
 40
0.0
176
1
 90
0
176
1
290
0
176
1
290
1
176
1
290
1
176
1
290
0
176
1
290
0
176
1
290
0
176
1
290
0
176
1
290
0
176
1
290
0
176
1
 90
50
176
1
 40
0.0
176
1
 40
1.0
176
1
 90
0
176
1
 62
18
420
0
176
1
 90
50
176
1
 90
3
176
1
 62
5
420
255
176
1
290
0
176
1
 90
50
176
1
 90
50
176
1
 90
50
176
1
290
0
176
1
 90
50
176
1
 62
256
176
0
 40
1.0
176
0
 90
2
176
1
  1
strokes_ogs.tif
176
1
290
0
176
1
 40
1.0
176
1
 40
1.0
176
1
  0
VISUALSTYLE
  5
6A
102
{ACAD_REACTORS
330
16
102
}
330
16
100
AcDbVisualStyle
  2
OverhangOff
 70
21
177
3
291
1
 70
58
 90
2
176
1
 90
2
176
1
 90
0
176
1
 90
2
176
1
 40
0.6
176
1
 40
30.0
176
1
 62
7
420
16777215
176
1
 90
1
176
1
 90
4
176
1
 62
7
176
1
 62
257
176
1
 90
1
176
1
 90
1
176
1
 40
1.0
176
1
 90
8
176
1
 62
7
176
1
 40
1.0
176
1
 90
1
176
1
 90
6
176
1
 90
2
176
1
 62
7
176
1
 90
5
176
1
 90
0
176
1
 90
0
176
1
290
0
176
1
 90
1
176
1
 40
0.0
176
1
 90
0
176
1
290
0
176
1
290
1
176
1
290
1
176
1
290
0
176
1
290
0
176
1
290
0
176
1
290
0
176
1
290
0
176
1
290
0
176
1
 90
50
176
1
 40
0.0
176
1
 40
1.0
176
1
 90
0
176
1
 62
18
420
0
176
1
 90
50
176
1
 90
3
176
1
 62
5
420
255
176
1
290
0
176
1
 90
50
176
1
 90
50
176
1
 90
50
176
1
290
0
176
1
 90
50
176
1
 62
256
176
0
 40
1.0
176
0
 90
2
176
1
  1
strokes_ogs.tif
176
1
290
0
176
1
 40
1.0
176
1
 40
1.0
176
1
  0
VISUALSTYLE
  5
6B
102
{ACAD_REACTORS
330
16
102
}
330
16
100
AcDbVisualStyle
  2
Realistic
 70
8
177
3
291
0
 70
58
 90
2
176
1
 90
2
176
1
 90
0
176
1
 90
2
176
1
 40
0.6
176
1
 40
30.0
176
1
 62
7
420
16777215
176
1
 90
1
176
1
 90
4
176
1
 62
7
176
1
 62
257
176
1
 90
1
176
1
 90
1
176
1
 40
1.0
176
1
 90
8
176
1
 62
7
176
1
 40
1.0
176
1
 90
1
176
1
 90
6
176
1
 90
2
176
1
 62
7
176
1
 90
5
176
1
 90
0
176
1
 90
0
176
1
290
0
176
1
 90
1
176
1
 40
0.0
176
1
 90
0
176
1
290
0
176
1
290
1
176
1
290
1
176
1
290
0
176
1
290
0
176
1
290
0
176
1
290
0
176
1
290
0
176
1
290
0
176
1
 90
50
176
1
 40
0.0
176
1
 40
1.0
176
1
 90
0
176
1
 62
18
420
0
176
1
 90
50
176
1
 90
3
176
1
 62
5
420
255
176
1
290
0
176
1
 90
50
176
1
 90
50
176
1
 90
50
176
1
290
0
176
1
 90
50
176
1
 62
256
176
0
 40
1.0
176
0
 90
2
176
1
  1
strokes_ogs.tif
176
1
290
0
176
1
 40
1.0
176
1
 40
1.0
176
1
  0
VISUALSTYLE
  5
6C
102
{ACAD_REACTORS
330
16
102
}
330
16
100
AcDbVisualStyle
  2
Shaded
 70
27
177
3
291
0
 70
58
 90
2
176
1
 90
2
176
1
 90
0
176
1
 90
2
176
1
 40
0.6
176
1
 40
30.0
176
1
 62
7
420
16777215
176
1
 90
1
176
1
 90
4
176
1
 62
7
176
1
 62
257
176
1
 90
1
176
1
 90
1
176
1
 40
1.0
176
1
 90
8
176
1
 62
7
176
1
 40
1.0
176
1
 90
1
176
1
 90
6
176
1
 90
2
176
1
 62
7
176
1
 90
5
176
1
 90
0
176
1
 90
0
176
1
290
0
176
1
 90
1
176
1
 40
0.0
176
1
 90
0
176
1
290
0
176
1
290
1
176
1
290
1
176
1
290
0
176
1
290
0
176
1
290
0
176
1
290
0
176
1
290
0
176
1
290
0
176
1
 90
50
176
1
 40
0.0
176
1
 40
1.0
176
1
 90
0
176
1
 62
18
420
0
176
1
 90
50
176
1
 90
3
176
1
 62
5
420
255
176
1
290
0
176
1
 90
50
176
1
 90
50
176
1
 90
50
176
1
290
0
176
1
 90
50
176
1
 62
256
176
0
 40
1.0
176
0
 90
2
176
1
  1
strokes_ogs.tif
176
1
290
0
176
1
 40
1.0
176
1
 40
1.0
176
1
  0
VISUALSTYLE
  5
6D
102
{ACAD_REACTORS
330
16
102
}
330
16
100
AcDbVisualStyle
  2
Shaded with edges
 70
26
177
3
291
0
 70
58
 90
2
176
1
 90
2
176
1
 90
0
176
1
 90
2
176
1
 40
0.6
176
1
 40
30.0
176
1
 62
7
420
16777215
176
1
 90
1
176
1
 90
4
176
1
 62
7
176
1
 62
257
176
1
 90
1
176
1
 90
1
176
1
 40
1.0
176
1
 90
8
176
1
 62
7
176
1
 40
1.0
176
1
 90
1
176
1
 90
6
176
1
 90
2
176
1
 62
7
176
1
 90
5
176
1
 90
0
176
1
 90
0
176
1
290
0
176
1
 90
1
176
1
 40
0.0
176
1
 90
0
176
1
290
0
176
1
290
1
176
1
290
1
176
1
290
0
176
1
290
0
176
1
290
0
176
1
290
0
176
1
290
0
176
1
290
0
176
1
 90
50
176
1
 40
0.0
176
1
 40
1.0
176
1
 90
0
176
1
 62
18
420
0
176
1
 90
50
176
1
 90
3
176
1
 62
5
420
255
176
1
290
0
176
1
 90
50
176
1
 90
50
176
1
 90
50
176
1
290
0
176
1
 90
50
176
1
 62
256
176
0
 40
1.0
176
0
 90
2
176
1
  1
strokes_ogs.tif
176
1
290
0
176
1
 40
1.0
176
1
 40
1.0
176
1
  0
VISUALSTYLE
  5
6E
102
{ACAD_REACTORS
330
16
102
}
330
16
100
AcDbVisualStyle
  2
Shades of Gray
 70
23
177
3
291
0
 70
58
 90
2
176
1
 90
2
176
1
 90
0
176
1
 90
2
176
1
 40
0.6
176
1
 40
30.0
176
1
 62
7
420
16777215
176
1
 90
1
176
1
 90
4
176
1
 62
7
176
1
 62
257
176
1
 90
1
176
1
 90
1
176
1
 40
1.0
176
1
 90
8
176
1
 62
7
176
1
 40
1.0
176
1
 90
1
176
1
 90
6
176
1
 90
2
176
1
 62
7
176
1
 90
5
176
1
 90
0
176
1
 90
0
176
1
290
0
176
1
 90
1
176
1
 40
0.0
176
1
 90
0
176
1
290
0
176
1
290
1
176
1
290
1
176
1
290
0
176
1
290
0
176
1
290
0
176
1
290
0
176
1
290
0
176
1
290
0
176
1
 90
50
176
1
 40
0.0
176
1
 40
1.0
176
1
 90
0
176
1
 62
18
420
0
176
1
 90
50
176
1
 90
3
176
1
 62
5
420
255
176
1
290
0
176
1
 90
50
176
1
 90
50
176
1
 90
50
176
1
290
0
176
1
 90
50
176
1
 62
256
176
0
 40
1.0
176
0
 90
2
176
1
  1
strokes_ogs.tif
176
1
290
0
176
1
 40
1.0
176
1
 40
1.0
176
1
  0
VISUALSTYLE
  5
6F
102
{ACAD_REACTORS
330
16
102
}
330
16
100
AcDbVisualStyle
  2
Sketchy
 70
24
177
3
291
0
 70
58
 90
2
176
1
 90
2
176
1
 90
0
176
1
 90
1
176
1
 40
0.6
176
1
 40
30.0
176
1
 62
7
420
16777215
176
1
 90
1
176
1
 90
4
176
1
 62
7
176
1
 62
257
176
1
 90
1
176
1
 90
1
176
1
 40
1.0
176
1
 90
8
176
1
 62
7
176
1
 40
1.0
176
1
 90
1
176
1
 90
6
176
1
 90
2
176
1
 62
7
176
1
 90
5
176
1
 90
0
176
1
 90
0
176
1
290
0
176
1
 90
1
176
1
 40
0.0
176
1
 90
0
176
1
290
0
176
1
290
1
176
1
290
1
176
1
290
0
176
1
290
0
176
1
290
0
176
1
290
0
176
1
290
0
176
1
290
0
176
1
 90
50
176
1
 40
0.0
176
1
 40
1.0
176
1
 90
0
176
1
 62
18
420
0
176
1
 90
50
176
1
 90
3
176
1
 62
5
420
255
176
1
290
0
176
1
 90
50
176
1
 90
50
176
1
 90
50
176
1
290
0
176
1
 90
50
176
1
 62
256
176
0
 40
1.0
176
0
 90
2
176
1
  1
strokes_ogs.tif
176
1
290
0
176
1
 40
1.0
176
1
 40
1.0
176
1
  0
VISUALSTYLE
  5
70
102
{ACAD_REACTORS
330
16
102
}
330
16
100
AcDbVisualStyle
  2
Thicken
 70
13
177
3
291
1
 70
58
 90
2
176
1
 90
2
176
1
 90
0
176
1
 90
2
176
1
 40
0.6
176
1
 40
30.0
176
1
 62
7
420
16777215
176
1
 90
1
176
1
 90
4
176
1
 62
7
176
1
 62
257
176
1
 90
1
176
1
 90
1
176
1
 40
1.0
176
1
 90
8
176
1
 62
7
176
1
 40
1.0
176
1
 90
1
176
1
 90
6
176
1
 90
2
176
1
 62
7
176
1
 90
5
176
1
 90
0
176
1
 90
0
176
1
290
0
176
1
 90
1
176
1
 40
0.0
176
1
 90
0
176
1
290
0
176
1
290
1
176
1
290
1
176
1
290
0
176
1
290
0
176
1
290
0
176
1
290
0
176
1
290
0
176
1
290
0
176
1
 90
50
176
1
 40
0.0
176
1
 40
1.0
176
1
 90
0
176
1
 62
18
420
0
176
1
 90
50
176
1
 90
3
176
1
 62
5
420
255
176
1
290
0
176
1
 90
50
176
1
 90
50
176
1
 90
50
176
1
290
0
176
1
 90
50
176
1
 62
256
176
0
 40
1.0
176
0
 90
2
176
1
  1
strokes_ogs.tif
176
1
290
0
176
1
 40
1.0
176
1
 40
1.0
176
1
  0
VISUALSTYLE
  5
71
102
{ACAD_REACTORS
330
16
102
}
330
16
100
AcDbVisualStyle
  2
Wireframe
 70
5
177
3
291
0
 70
58
 90
2
176
1
 90
2
176
1
 90
0
176
1
 90
0
176
1
 40
0.6
176
1
 40
30.0
176
1
 62
7
420
16777215
176
1
 90
1
176
1
 90
4
176
1
 62
7
176
1
 62
257
176
1
 90
1
176
1
 90
1
176
1
 40
1.0
176
1
 90
8
176
1
 62
7
176
1
 40
1.0
176
1
 90
1
176
1
 90
6
176
1
 90
2
176
1
 62
7
176
1
 90
5
176
1
 90
0
176
1
 90
0
176
1
290
0
176
1
 90
1
176
1
 40
0.0
176
1
 90
0
176
1
290
0
176
1
290
1
176
1
290
1
176
1
290
0
176
1
290
0
176
1
290
0
176
1
290
0
176
1
290
0
176
1
290
0
176
1
 90
50
176
1
 40
0.0
176
1
 40
1.0
176
1
 90
0
176
1
 62
18
420
0
176
1
 90
50
176
1
 90
3
176
1
 62
5
420
255
176
1
290
0
176
1
 90
50
176
1
 90
50
176
1
 90
50
176
1
290
0
176
1
 90
50
176
1
 62
256
176
0
 40
1.0
176
0
 90
2
176
1
  1
strokes_ogs.tif
176
1
290
0
176
1
 40
1.0
176
1
 40
1.0
176
1
  0
VISUALSTYLE
  5
72
102
{ACAD_REACTORS
330
16
102
}
330
16
100
AcDbVisualStyle
  2
X-Ray
 70
25
177
3
291
0
 70
58
 90
2
176
1
 90
2
176
1
 90
0
176
1
 90
2
176
1
 40
0.5
176
1
 40
30.0
176
1
 62
7
420
16777215
176
1
 90
1
176
1
 90
4
176
1
 62
7
176
1
 62
257
176
1
 90
1
176
1
 90
1
176
1
 40
1.0
176
1
 90
8
176
1
 62
7
176
1
 40
1.0
176
1
 90
1
176
1
 90
6
176
1
 90
2
176
1
 62
7
176
1
 90
5
176
1
 90
0
176
1
 90
0
176
1
290
0
176
1
 90
1
176
1
 40
0.0
176
1
 90
0
176
1
290
0
176
1
290
1
176
1
290
1
176
1
290
0
176
1
290
0
176
1
290
0
176
1
290
0
176
1
290
0
176
1
290
0
176
1
 90
50
176
1
 40
0.0
176
1
 40
1.0
176
1
 90
0
176
1
 62
18
420
0
176
1
 90
50
176
1
 90
3
176
1
 62
5
420
255
176
1
290
0
176
1
 90
50
176
1
 90
50
176
1
 90
50
176
1
290
0
176
1
 90
50
176
1
 62
256
176
0
 40
1.0
176
0
 90
2
176
1
  1
strokes_ogs.tif
176
1
290
0
176
1
 40
1.0
176
1
 40
1.0
176
1
  0
DICTIONARYVAR
  5
8E
330
2D
100
DictionaryVariables
280
0
  1
1.4.2 @ 2025-06-04T15:39:54.698684+00:00
  0
ENDSEC
  0
EOF
