  0
SECTION
  2
HEADER
  9
$ACADVER
  1
AC1027
  9
$ACADMAINTVER
 70
105
  9
$DWGCODEPAGE
  3
ANSI_1252
  9
$LASTSAVEDBY
  1
ezdxf
  9
$REQUIREDVERSIONS
160
0
  9
$INSBASE
 10
0.0
 20
0.0
 30
0.0
  9
$EXTMIN
 10
1e+20
 20
1e+20
 30
1e+20
  9
$EXTMAX
 10
-1e+20
 20
-1e+20
 30
-1e+20
  9
$LIMMIN
 10
0.0
 20
0.0
  9
$LIMMAX
 10
420.0
 20
297.0
  9
$ORTHOMODE
 70
0
  9
$REGENMODE
 70
1
  9
$FILLMODE
 70
1
  9
$QTEXTMODE
 70
0
  9
$MIRRTEXT
 70
1
  9
$LTSCALE
 40
1.0
  9
$ATTMODE
 70
1
  9
$TEXTSIZE
 40
2.5
  9
$TRACEWID
 40
1.0
  9
$TEXTSTYLE
  7
OpenSans
  9
$CLAYER
  8
0
  9
$CELTYPE
  6
ByLayer
  9
$CECOLOR
 62
256
  9
$CELTSCALE
 40
1.0
  9
$DISPSILH
 70
0
  9
$DIMSCALE
 40
1.0
  9
$DIMASZ
 40
0.175
  9
$DIMEXO
 40
0.125
  9
$DIMDLI
 40
3.75
  9
$DIMRND
 40
0.0
  9
$DIMDLE
 40
0.0
  9
$DIMEXE
 40
0.375
  9
$DIMTP
 40
0.0
  9
$DIMTM
 40
0.0
  9
$DIMTXT
 40
0.25
  9
$DIMCEN
 40
2.5
  9
$DIMTSZ
 40
0.0
  9
$DIMTOL
 70
0
  9
$DIMLIM
 70
0
  9
$DIMTIH
 70
0
  9
$DIMTOH
 70
0
  9
$DIMSE1
 70
0
  9
$DIMSE2
 70
0
  9
$DIMTAD
 70
1
  9
$DIMZIN
 70
12
  9
$DIMBLK
  1
ARCHTICK
  9
$DIMASO
 70
1
  9
$DIMSHO
 70
1
  9
$DIMPOST
  1

  9
$DIMAPOST
  1

  9
$DIMALT
 70
0
  9
$DIMALTD
 70
3
  9
$DIMALTF
 40
0.03937007874
  9
$DIMLFAC
 40
100.0
  9
$DIMTOFL
 70
1
  9
$DIMTVP
 40
0.0
  9
$DIMTIX
 70
0
  9
$DIMSOXD
 70
0
  9
$DIMSAH
 70
0
  9
$DIMBLK1
  1

  9
$DIMBLK2
  1

  9
$DIMSTYLE
  2
EZDXF
  9
$DIMCLRD
 70
0
  9
$DIMCLRE
 70
0
  9
$DIMCLRT
 70
0
  9
$DIMTFAC
 40
0.5
  9
$DIMGAP
 40
0.1
  9
$DIMJUST
 70
0
  9
$DIMSD1
 70
0
  9
$DIMSD2
 70
0
  9
$DIMTOLJ
 70
0
  9
$DIMTZIN
 70
8
  9
$DIMALTZ
 70
0
  9
$DIMALTTZ
 70
0
  9
$DIMUPT
 70
1
  9
$DIMDEC
 70
2
  9
$DIMTDEC
 70
2
  9
$DIMALTU
 70
2
  9
$DIMALTTD
 70
3
  9
$DIMTXSTY
  7
OpenSansCondensed-Light
  9
$DIMAUNIT
 70
0
  9
$DIMADEC
 70
2
  9
$DIMALTRND
 40
0.0
  9
$DIMAZIN
 70
3
  9
$DIMDSEP
 70
46
  9
$DIMATFIT
 70
3
  9
$DIMFRAC
 70
0
  9
$DIMLDRBLK
  1

  9
$DIMLUNIT
 70
2
  9
$DIMLWD
 70
-2
  9
$DIMLWE
 70
-2
  9
$DIMTMOVE
 70
2
  9
$DIMFXL
 40
1.0
  9
$DIMFXLON
 70
0
  9
$DIMJOGANG
 40
0.785398163397
  9
$DIMTFILL
 70
0
  9
$DIMTFILLCLR
 70
0
  9
$DIMARCSYM
 70
0
  9
$DIMLTYPE
  6

  9
$DIMLTEX1
  6

  9
$DIMLTEX2
  6

  9
$DIMTXTDIRECTION
 70
0
  9
$LUNITS
 70
2
  9
$LUPREC
 70
4
  9
$SKETCHINC
 40
1.0
  9
$FILLETRAD
 40
10.0
  9
$AUNITS
 70
0
  9
$AUPREC
 70
2
  9
$MENU
  1
.
  9
$ELEVATION
 40
0.0
  9
$PELEVATION
 40
0.0
  9
$THICKNESS
 40
0.0
  9
$LIMCHECK
 70
0
  9
$CHAMFERA
 40
0.0
  9
$CHAMFERB
 40
0.0
  9
$CHAMFERC
 40
0.0
  9
$CHAMFERD
 40
0.0
  9
$SKPOLY
 70
0
  9
$TDCREATE
 40
2460831.7356944443
  9
$TDUCREATE
 40
2458532.153996898
  9
$TDUPDATE
 40
2460831.7356944443
  9
$TDUUPDATE
 40
2458532.1544311
  9
$TDINDWG
 40
0.0
  9
$TDUSRTIMER
 40
0.0
  9
$USRTIMER
 70
1
  9
$ANGBASE
 50
0.0
  9
$ANGDIR
 70
0
  9
$PDMODE
 70
0
  9
$PDSIZE
 40
0.0
  9
$PLINEWID
 40
0.0
  9
$SPLFRAME
 70
0
  9
$SPLINETYPE
 70
6
  9
$SPLINESEGS
 70
8
  9
$HANDSEED
  5
8F
  9
$SURFTAB1
 70
6
  9
$SURFTAB2
 70
6
  9
$SURFTYPE
 70
6
  9
$SURFU
 70
6
  9
$SURFV
 70
6
  9
$UCSBASE
  2

  9
$UCSNAME
  2

  9
$UCSORG
 10
0.0
 20
0.0
 30
0.0
  9
$UCSXDIR
 10
1.0
 20
0.0
 30
0.0
  9
$UCSYDIR
 10
0.0
 20
1.0
 30
0.0
  9
$UCSORTHOREF
  2

  9
$UCSORTHOVIEW
 70
0
  9
$UCSORGTOP
 10
0.0
 20
0.0
 30
0.0
  9
$UCSORGBOTTOM
 10
0.0
 20
0.0
 30
0.0
  9
$UCSORGLEFT
 10
0.0
 20
0.0
 30
0.0
  9
$UCSORGRIGHT
 10
0.0
 20
0.0
 30
0.0
  9
$UCSORGFRONT
 10
0.0
 20
0.0
 30
0.0
  9
$UCSORGBACK
 10
0.0
 20
0.0
 30
0.0
  9
$PUCSBASE
  2

  9
$PUCSNAME
  2

  9
$PUCSORG
 10
0.0
 20
0.0
 30
0.0
  9
$PUCSXDIR
 10
1.0
 20
0.0
 30
0.0
  9
$PUCSYDIR
 10
0.0
 20
1.0
 30
0.0
  9
$PUCSORTHOREF
  2

  9
$PUCSORTHOVIEW
 70
0
  9
$PUCSORGTOP
 10
0.0
 20
0.0
 30
0.0
  9
$PUCSORGBOTTOM
 10
0.0
 20
0.0
 30
0.0
  9
$PUCSORGLEFT
 10
0.0
 20
0.0
 30
0.0
  9
$PUCSORGRIGHT
 10
0.0
 20
0.0
 30
0.0
  9
$PUCSORGFRONT
 10
0.0
 20
0.0
 30
0.0
  9
$PUCSORGBACK
 10
0.0
 20
0.0
 30
0.0
  9
$USERI1
 70
0
  9
$USERI2
 70
0
  9
$USERI3
 70
0
  9
$USERI4
 70
0
  9
$USERI5
 70
0
  9
$USERR1
 40
0.0
  9
$USERR2
 40
0.0
  9
$USERR3
 40
0.0
  9
$USERR4
 40
0.0
  9
$USERR5
 40
0.0
  9
$WORLDVIEW
 70
1
  9
$SHADEDGE
 70
3
  9
$SHADEDIF
 70
70
  9
$TILEMODE
 70
1
  9
$MAXACTVP
 70
64
  9
$PINSBASE
 10
0.0
 20
0.0
 30
0.0
  9
$PLIMCHECK
 70
0
  9
$PEXTMIN
 10
1e+20
 20
1e+20
 30
1e+20
  9
$PEXTMAX
 10
-1e+20
 20
-1e+20
 30
-1e+20
  9
$PLIMMIN
 10
0.0
 20
0.0
  9
$PLIMMAX
 10
420.0
 20
297.0
  9
$UNITMODE
 70
0
  9
$VISRETAIN
 70
1
  9
$PLINEGEN
 70
0
  9
$PSLTSCALE
 70
1
  9
$TREEDEPTH
 70
3020
  9
$CMLSTYLE
  2
Standard
  9
$CMLJUST
 70
0
  9
$CMLSCALE
 40
20.0
  9
$PROXYGRAPHICS
 70
1
  9
$MEASUREMENT
 70
1
  9
$CELWEIGHT
370
-1
  9
$ENDCAPS
280
0
  9
$JOINSTYLE
280
0
  9
$LWDISPLAY
290
0
  9
$INSUNITS
 70
6
  9
$HYPERLINKBASE
  1

  9
$STYLESHEET
  1

  9
$XEDIT
290
1
  9
$CEPSNTYPE
380
0
  9
$PSTYLEMODE
290
1
  9
$FINGERPRINTGUID
  2
{8E4F54CF-1109-4BD5-98E7-A1B0D69192DB}
  9
$VERSIONGUID
  2
{A944195B-DF2F-4648-B78B-E74451D4FC17}
  9
$EXTNAMES
290
1
  9
$PSVPSCALE
 40
0.0
  9
$OLESTARTUP
290
0
  9
$SORTENTS
280
127
  9
$INDEXCTL
280
0
  9
$HIDETEXT
280
1
  9
$XCLIPFRAME
280
1
  9
$HALOGAP
280
0
  9
$OBSCOLOR
 70
257
  9
$OBSLTYPE
280
0
  9
$INTERSECTIONDISPLAY
280
0
  9
$INTERSECTIONCOLOR
 70
257
  9
$DIMASSOC
280
2
  9
$PROJECTNAME
  1

  9
$CAMERADISPLAY
290
0
  9
$LENSLENGTH
 40
50.0
  9
$CAMERAHEIGHT
 40
0.0
  9
$STEPSPERSEC
 40
24.0
  9
$STEPSIZE
 40
100.0
  9
$3DDWFPREC
 40
2.0
  9
$PSOLWIDTH
 40
0.005
  9
$PSOLHEIGHT
 40
0.08
  9
$LOFTANG1
 40
1.570796326795
  9
$LOFTANG2
 40
1.570796326795
  9
$LOFTMAG1
 40
0.0
  9
$LOFTMAG2
 40
0.0
  9
$LOFTPARAM
 70
7
  9
$LOFTNORMALS
280
1
  9
$LATITUDE
 40
37.795
  9
$LONGITUDE
 40
-122.394
  9
$NORTHDIRECTION
 40
0.0
  9
$TIMEZONE
 70
-8000
  9
$LIGHTGLYPHDISPLAY
280
1
  9
$TILEMODELIGHTSYNCH
280
1
  9
$CMATERIAL
347
20
  9
$SOLIDHIST
280
0
  9
$SHOWHIST
280
1
  9
$DWFFRAME
280
2
  9
$DGNFRAME
280
2
  9
$REALWORLDSCALE
290
1
  9
$INTERFERECOLOR
 62
256
  9
$CSHADOW
280
0
  9
$SHADOWPLANELOCATION
 40
0.0
  0
ENDSEC
  0
SECTION
  2
CLASSES
  0
CLASS
  1
ACDBDICTIONARYWDFLT
  2
AcDbDictionaryWithDefault
  3
ObjectDBX Classes
 90
0
 91
0
280
0
281
0
  0
CLASS
  1
SUN
  2
AcDbSun
  3
SCENEOE
 90
1153
 91
0
280
0
281
0
  0
CLASS
  1
VISUALSTYLE
  2
AcDbVisualStyle
  3
ObjectDBX Classes
 90
4095
 91
0
280
0
281
0
  0
CLASS
  1
MATERIAL
  2
AcDbMaterial
  3
ObjectDBX Classes
 90
1153
 91
0
280
0
281
0
  0
CLASS
  1
SCALE
  2
AcDbScale
  3
ObjectDBX Classes
 90
1153
 91
0
280
0
281
0
  0
CLASS
  1
TABLESTYLE
  2
AcDbTableStyle
  3
ObjectDBX Classes
 90
4095
 91
0
280
0
281
0
  0
CLASS
  1
MLEADERSTYLE
  2
AcDbMLeaderStyle
  3
ACDB_MLEADERSTYLE_CLASS
 90
4095
 91
0
280
0
281
0
  0
CLASS
  1
DICTIONARYVAR
  2
AcDbDictionaryVar
  3
ObjectDBX Classes
 90
0
 91
0
280
0
281
0
  0
CLASS
  1
CELLSTYLEMAP
  2
AcDbCellStyleMap
  3
ObjectDBX Classes
 90
1152
 91
0
280
0
281
0
  0
CLASS
  1
MENTALRAYRENDERSETTINGS
  2
AcDbMentalRayRenderSettings
  3
SCENEOE
 90
1024
 91
0
280
0
281
0
  0
CLASS
  1
ACDBDETAILVIEWSTYLE
  2
AcDbDetailViewStyle
  3
ObjectDBX Classes
 90
1025
 91
0
280
0
281
0
  0
CLASS
  1
ACDBSECTIONVIEWSTYLE
  2
AcDbSectionViewStyle
  3
ObjectDBX Classes
 90
1025
 91
0
280
0
281
0
  0
CLASS
  1
RASTERVARIABLES
  2
AcDbRasterVariables
  3
ISM
 90
0
 91
0
280
0
281
0
  0
CLASS
  1
LAYOUT
  2
AcDbLayout
  3
ObjectDBX Classes
 90
0
 91
0
280
0
281
0
  0
CLASS
  1
ACDBPLACEHOLDER
  2
AcDbPlaceHolder
  3
ObjectDBX Classes
 90
0
 91
0
280
0
281
0
  0
ENDSEC
  0
SECTION
  2
TABLES
  0
TABLE
  2
VPORT
  5
8
330
0
100
AcDbSymbolTable
 70
1
  0
VPORT
  5
23
330
8
100
AcDbSymbolTableRecord
100
AcDbViewportTableRecord
  2
*Active
 70
0
 10
0.0
 20
0.0
 11
1.0
 21
1.0
 12
0.0
 22
0.0
 13
0.0
 23
0.0
 14
0.5
 24
0.5
 15
0.5
 25
0.5
 16
0.0
 26
0.0
 36
1.0
 17
0.0
 27
0.0
 37
0.0
 40
1000.0
 41
1.34
 42
50.0
 43
0.0
 44
0.0
 50
0.0
 51
0.0
 71
0
 72
1000
 73
1
 74
3
 75
0
 76
0
 77
0
 78
0
281
0
 65
0
146
0.0
  0
ENDTAB
  0
TABLE
  2
LTYPE
  5
2
330
0
100
AcDbSymbolTable
 70
21
  0
LTYPE
  5
24
330
2
100
AcDbSymbolTableRecord
100
AcDbLinetypeTableRecord
  2
ByBlock
 70
0
  3

 72
65
 73
0
 40
0.0
  0
LTYPE
  5
25
330
2
100
AcDbSymbolTableRecord
100
AcDbLinetypeTableRecord
  2
ByLayer
 70
0
  3

 72
65
 73
0
 40
0.0
  0
LTYPE
  5
26
330
2
100
AcDbSymbolTableRecord
100
AcDbLinetypeTableRecord
  2
Continuous
 70
0
  3

 72
65
 73
0
 40
0.0
  0
LTYPE
  5
2F
330
2
100
AcDbSymbolTableRecord
100
AcDbLinetypeTableRecord
  2
CENTER
 70
0
  3
Center ____ _ ____ _ ____ _ ____ _ ____ _ ____
 72
65
 73
4
 40
5.08
 49
3.175
 74
0
 49
-0.635
 74
0
 49
0.635
 74
0
 49
-0.635
 74
0
  0
LTYPE
  5
30
330
2
100
AcDbSymbolTableRecord
100
AcDbLinetypeTableRecord
  2
CENTERX2
 70
0
  3
Center (2x) ________  __  ________  __  ________
 72
65
 73
4
 40
8.89
 49
6.35
 74
0
 49
-0.635
 74
0
 49
1.27
 74
0
 49
-0.635
 74
0
  0
LTYPE
  5
31
330
2
100
AcDbSymbolTableRecord
100
AcDbLinetypeTableRecord
  2
CENTER2
 70
0
  3
Center (.5x) ____ _ ____ _ ____ _ ____ _ ____
 72
65
 73
4
 40
2.54
 49
1.587
 74
0
 49
-0.318
 74
0
 49
0.318
 74
0
 49
-0.318
 74
0
  0
LTYPE
  5
32
330
2
100
AcDbSymbolTableRecord
100
AcDbLinetypeTableRecord
  2
DASHED
 70
0
  3
Dashed __ __ __ __ __ __ __ __ __ __ __ __ __ _
 72
65
 73
2
 40
1.524
 49
1.27
 74
0
 49
-0.254
 74
0
  0
LTYPE
  5
33
330
2
100
AcDbSymbolTableRecord
100
AcDbLinetypeTableRecord
  2
DASHEDX2
 70
0
  3
Dashed (2x) ____  ____  ____  ____  ____  ____
 72
65
 73
2
 40
3.048
 49
2.54
 74
0
 49
-0.508
 74
0
  0
LTYPE
  5
34
330
2
100
AcDbSymbolTableRecord
100
AcDbLinetypeTableRecord
  2
DASHED2
 70
0
  3
Dashed (.5x) _ _ _ _ _ _ _ _ _ _ _ _ _ _
 72
65
 73
2
 40
0.762
 49
0.635
 74
0
 49
-0.127
 74
0
  0
LTYPE
  5
35
330
2
100
AcDbSymbolTableRecord
100
AcDbLinetypeTableRecord
  2
PHANTOM
 70
0
  3
Phantom ______  __  __  ______  __  __  ______
 72
65
 73
6
 40
6.35
 49
3.175
 74
0
 49
-0.635
 74
0
 49
0.635
 74
0
 49
-0.635
 74
0
 49
0.635
 74
0
 49
-0.635
 74
0
  0
LTYPE
  5
36
330
2
100
AcDbSymbolTableRecord
100
AcDbLinetypeTableRecord
  2
PHANTOMX2
 70
0
  3
Phantom (2x)____________    ____    ____    ____________
 72
65
 73
6
 40
10.795
 49
6.35
 74
0
 49
-0.635
 74
0
 49
1.27
 74
0
 49
-0.635
 74
0
 49
1.27
 74
0
 49
-0.635
 74
0
  0
LTYPE
  5
37
330
2
100
AcDbSymbolTableRecord
100
AcDbLinetypeTableRecord
  2
PHANTOM2
 70
0
  3
Phantom (.5x) ___ _ _ ___ _ _ ___ _ _ ___ _ _ ___
 72
65
 73
6
 40
3.175
 49
1.587
 74
0
 49
-0.318
 74
0
 49
0.318
 74
0
 49
-0.318
 74
0
 49
0.318
 74
0
 49
-0.318
 74
0
  0
LTYPE
  5
38
330
2
100
AcDbSymbolTableRecord
100
AcDbLinetypeTableRecord
  2
DASHDOT
 70
0
  3
Dash dot __ . __ . __ . __ . __ . __ . __ . __
 72
65
 73
4
 40
3.556
 49
2.54
 74
0
 49
-0.508
 74
0
 49
0.0
 74
0
 49
-0.508
 74
0
  0
LTYPE
  5
39
330
2
100
AcDbSymbolTableRecord
100
AcDbLinetypeTableRecord
  2
DASHDOTX2
 70
0
  3
Dash dot (2x) ____  .  ____  .  ____  .  ____
 72
65
 73
4
 40
6.096
 49
5.08
 74
0
 49
-0.508
 74
0
 49
0.0
 74
0
 49
-0.508
 74
0
  0
LTYPE
  5
3A
330
2
100
AcDbSymbolTableRecord
100
AcDbLinetypeTableRecord
  2
DASHDOT2
 70
0
  3
Dash dot (.5x) _ . _ . _ . _ . _ . _ . _ . _
 72
65
 73
4
 40
1.778
 49
1.27
 74
0
 49
-0.254
 74
0
 49
0.0
 74
0
 49
-0.254
 74
0
  0
LTYPE
  5
3B
330
2
100
AcDbSymbolTableRecord
100
AcDbLinetypeTableRecord
  2
DOT
 70
0
  3
Dot .  .  .  .  .  .  .  .  .  .  .  .  .  .  .  .
 72
65
 73
2
 40
0.508
 49
0.0
 74
0
 49
-0.508
 74
0
  0
LTYPE
  5
3C
330
2
100
AcDbSymbolTableRecord
100
AcDbLinetypeTableRecord
  2
DOTX2
 70
0
  3
Dot (2x) .    .    .    .    .    .    .    . 
 72
65
 73
2
 40
1.016
 49
0.0
 74
0
 49
-1.016
 74
0
  0
LTYPE
  5
3D
330
2
100
AcDbSymbolTableRecord
100
AcDbLinetypeTableRecord
  2
DOT2
 70
0
  3
Dot (.5) . . . . . . . . . . . . . . . . . . . 
 72
65
 73
2
 40
0.254
 49
0.0
 74
0
 49
-0.254
 74
0
  0
LTYPE
  5
3E
330
2
100
AcDbSymbolTableRecord
100
AcDbLinetypeTableRecord
  2
DIVIDE
 70
0
  3
Divide __ . . __ . . __ . . __ . . __ . . __
 72
65
 73
6
 40
4.064
 49
2.54
 74
0
 49
-0.508
 74
0
 49
0.0
 74
0
 49
-0.508
 74
0
 49
0.0
 74
0
 49
-0.508
 74
0
  0
LTYPE
  5
3F
330
2
100
AcDbSymbolTableRecord
100
AcDbLinetypeTableRecord
  2
DIVIDEX2
 70
0
  3
Divide (2x) ____  . .  ____  . .  ____  . .  ____
 72
65
 73
6
 40
6.604
 49
5.08
 74
0
 49
-0.508
 74
0
 49
0.0
 74
0
 49
-0.508
 74
0
 49
0.0
 74
0
 49
-0.508
 74
0
  0
LTYPE
  5
40
330
2
100
AcDbSymbolTableRecord
100
AcDbLinetypeTableRecord
  2
DIVIDE2
 70
0
  3
Divide(.5x) _ . _ . _ . _ . _ . _ . _ . _
 72
65
 73
6
 40
2.032
 49
1.27
 74
0
 49
-0.254
 74
0
 49
0.0
 74
0
 49
-0.254
 74
0
 49
0.0
 74
0
 49
-0.254
 74
0
  0
ENDTAB
  0
TABLE
  2
LAYER
  5
1
330
0
100
AcDbSymbolTable
 70
2
  0
LAYER
  5
27
330
1
100
AcDbSymbolTableRecord
100
AcDbLayerTableRecord
  2
0
 70
0
 62
7
  6
Continuous
370
-3
390
13
347
21
  0
LAYER
  5
28
330
1
100
AcDbSymbolTableRecord
100
AcDbLayerTableRecord
  2
Defpoints
 70
0
 62
7
  6
Continuous
290
0
370
-3
390
13
347
21
  0
ENDTAB
  0
TABLE
  2
STYLE
  5
5
330
0
100
AcDbSymbolTable
 70
26
  0
STYLE
  5
29
330
5
100
AcDbSymbolTableRecord
100
AcDbTextStyleTableRecord
  2
Standard
 70
0
 40
0.0
 41
1.0
 50
0.0
 71
0
 42
2.5
  3
txt
  4

  0
STYLE
  5
41
330
5
100
AcDbSymbolTableRecord
100
AcDbTextStyleTableRecord
  2
OpenSans-Light
 70
0
 40
0.0
 41
1.0
 50
0.0
 71
0
 42
2.5
  3
OpenSans-Light.ttf
  4

  0
STYLE
  5
42
330
5
100
AcDbSymbolTableRecord
100
AcDbTextStyleTableRecord
  2
OpenSans-Light-Italic
 70
0
 40
0.0
 41
1.0
 50
0.0
 71
0
 42
2.5
  3
OpenSans-LightItalic.ttf
  4

  0
STYLE
  5
43
330
5
100
AcDbSymbolTableRecord
100
AcDbTextStyleTableRecord
  2
OpenSans
 70
0
 40
0.0
 41
1.0
 50
0.0
 71
0
 42
2.5
  3
OpenSans-Regular.ttf
  4

  0
STYLE
  5
44
330
5
100
AcDbSymbolTableRecord
100
AcDbTextStyleTableRecord
  2
OpenSans-Italic
 70
0
 40
0.0
 41
1.0
 50
0.0
 71
0
 42
2.5
  3
OpenSans-Italic.ttf
  4

  0
STYLE
  5
45
330
5
100
AcDbSymbolTableRecord
100
AcDbTextStyleTableRecord
  2
OpenSans-SemiBold
 70
0
 40
0.0
 41
1.0
 50
0.0
 71
0
 42
2.5
  3
OpenSans-SemiBold.ttf
  4

  0
STYLE
  5
46
330
5
100
AcDbSymbolTableRecord
100
AcDbTextStyleTableRecord
  2
OpenSans-SemiBoldItalic
 70
0
 40
0.0
 41
1.0
 50
0.0
 71
0
 42
2.5
  3
OpenSans-SemiBoldItalic.ttf
  4

  0
STYLE
  5
47
330
5
100
AcDbSymbolTableRecord
100
AcDbTextStyleTableRecord
  2
OpenSans-Bold
 70
0
 40
0.0
 41
1.0
 50
0.0
 71
0
 42
2.5
  3
OpenSans-Bold.ttf
  4

  0
STYLE
  5
48
330
5
100
AcDbSymbolTableRecord
100
AcDbTextStyleTableRecord
  2
OpenSans-BoldItalic
 70
0
 40
0.0
 41
1.0
 50
0.0
 71
0
 42
2.5
  3
OpenSans-BoldItalic.ttf
  4

  0
STYLE
  5
49
330
5
100
AcDbSymbolTableRecord
100
AcDbTextStyleTableRecord
  2
OpenSans-ExtraBold
 70
0
 40
0.0
 41
1.0
 50
0.0
 71
0
 42
2.5
  3
OpenSans-ExtraBold.ttf
  4

  0
STYLE
  5
4A
330
5
100
AcDbSymbolTableRecord
100
AcDbTextStyleTableRecord
  2
OpenSans-ExtraBoldItalic
 70
0
 40
0.0
 41
1.0
 50
0.0
 71
0
 42
2.5
  3
OpenSans-ExtraBoldItalic.ttf
  4

  0
STYLE
  5
4B
330
5
100
AcDbSymbolTableRecord
100
AcDbTextStyleTableRecord
  2
OpenSansCondensed-Bold
 70
0
 40
0.0
 41
1.0
 50
0.0
 71
0
 42
2.5
  3
OpenSansCondensed-Bold.ttf
  4

  0
STYLE
  5
4C
330
5
100
AcDbSymbolTableRecord
100
AcDbTextStyleTableRecord
  2
OpenSansCondensed-Light
 70
0
 40
0.0
 41
1.0
 50
0.0
 71
0
 42
2.5
  3
OpenSansCondensed-Light.ttf
  4

  0
STYLE
  5
4D
330
5
100
AcDbSymbolTableRecord
100
AcDbTextStyleTableRecord
  2
OpenSansCondensed-Italic
 70
0
 40
0.0
 41
1.0
 50
0.0
 71
0
 42
2.5
  3
OpenSansCondensed-LightItalic.ttf
  4

  0
STYLE
  5
4E
330
5
100
AcDbSymbolTableRecord
100
AcDbTextStyleTableRecord
  2
LiberationSans
 70
0
 40
0.0
 41
1.0
 50
0.0
 71
0
 42
2.5
  3
LiberationSans-Regular.ttf
  4

  0
STYLE
  5
4F
330
5
100
AcDbSymbolTableRecord
100
AcDbTextStyleTableRecord
  2
LiberationSans-Bold
 70
0
 40
0.0
 41
1.0
 50
0.0
 71
0
 42
2.5
  3
LiberationSans-Bold.ttf
  4

  0
STYLE
  5
50
330
5
100
AcDbSymbolTableRecord
100
AcDbTextStyleTableRecord
  2
LiberationSans-BoldItalic
 70
0
 40
0.0
 41
1.0
 50
0.0
 71
0
 42
2.5
  3
LiberationSans-BoldItalic.ttf
  4

  0
STYLE
  5
51
330
5
100
AcDbSymbolTableRecord
100
AcDbTextStyleTableRecord
  2
LiberationSans-Italic
 70
0
 40
0.0
 41
1.0
 50
0.0
 71
0
 42
2.5
  3
LiberationSans-Italic.ttf
  4

  0
STYLE
  5
52
330
5
100
AcDbSymbolTableRecord
100
AcDbTextStyleTableRecord
  2
LiberationSerif
 70
0
 40
0.0
 41
1.0
 50
0.0
 71
0
 42
2.5
  3
LiberationSerif-Regular.ttf
  4

  0
STYLE
  5
53
330
5
100
AcDbSymbolTableRecord
100
AcDbTextStyleTableRecord
  2
LiberationSerif-Bold
 70
0
 40
0.0
 41
1.0
 50
0.0
 71
0
 42
2.5
  3
LiberationSerif-Bold.ttf
  4

  0
STYLE
  5
54
330
5
100
AcDbSymbolTableRecord
100
AcDbTextStyleTableRecord
  2
LiberationSerif-BoldItalic
 70
0
 40
0.0
 41
1.0
 50
0.0
 71
0
 42
2.5
  3
LiberationSerif-BoldItalic.ttf
  4

  0
STYLE
  5
55
330
5
100
AcDbSymbolTableRecord
100
AcDbTextStyleTableRecord
  2
LiberationSerif-Italic
 70
0
 40
0.0
 41
1.0
 50
0.0
 71
0
 42
2.5
  3
LiberationSerif-Italic.ttf
  4

  0
STYLE
  5
56
330
5
100
AcDbSymbolTableRecord
100
AcDbTextStyleTableRecord
  2
LiberationMono
 70
0
 40
0.0
 41
1.0
 50
0.0
 71
0
 42
2.5
  3
LiberationMono-Regular.ttf
  4

  0
STYLE
  5
57
330
5
100
AcDbSymbolTableRecord
100
AcDbTextStyleTableRecord
  2
LiberationMono-Bold
 70
0
 40
0.0
 41
1.0
 50
0.0
 71
0
 42
2.5
  3
LiberationMono-Bold.ttf
  4

  0
STYLE
  5
58
330
5
100
AcDbSymbolTableRecord
100
AcDbTextStyleTableRecord
  2
LiberationMono-BoldItalic
 70
0
 40
0.0
 41
1.0
 50
0.0
 71
0
 42
2.5
  3
LiberationMono-BoldItalic.ttf
  4

  0
STYLE
  5
59
330
5
100
AcDbSymbolTableRecord
100
AcDbTextStyleTableRecord
  2
LiberationMono-Italic
 70
0
 40
0.0
 41
1.0
 50
0.0
 71
0
 42
2.5
  3
LiberationMono-Italic.ttf
  4

  0
ENDTAB
  0
TABLE
  2
VIEW
  5
7
330
0
100
AcDbSymbolTable
 70
0
  0
ENDTAB
  0
TABLE
  2
UCS
  5
6
330
0
100
AcDbSymbolTable
 70
0
  0
ENDTAB
  0
TABLE
  2
APPID
  5
3
330
0
100
AcDbSymbolTable
 70
3
  0
APPID
  5
2A
330
3
100
AcDbSymbolTableRecord
100
AcDbRegAppTableRecord
  2
ACAD
 70
0
  0
APPID
  5
8C
330
3
100
AcDbSymbolTableRecord
100
AcDbRegAppTableRecord
  2
HATCHBACKGROUNDCOLOR
 70
0
  0
APPID
  5
8D
330
3
100
AcDbSymbolTableRecord
100
AcDbRegAppTableRecord
  2
EZDXF
 70
0
  0
ENDTAB
  0
TABLE
  2
DIMSTYLE
  5
4
330
0
100
AcDbSymbolTable
 70
12
100
AcDbDimStyleTable
  0
DIMSTYLE
105
2B
330
4
100
AcDbSymbolTableRecord
100
AcDbDimStyleTableRecord
  2
Standard
 70
0
 40
1.0
 41
2.5
 42
0.625
 43
3.75
 44
1.25
 45
0.0
 46
0.0
 47
0.0
 48
0.0
 49
2.5
140
2.5
141
2.5
142
0.0
143
0.03937007874
144
1.0
145
0.0
146
1.0
147
0.625
148
0.0
 69
0
 70
0
 71
0
 72
0
 73
0
 74
0
 75
0
 76
0
 77
1
 78
8
 79
3
170
0
171
3
172
1
173
0
174
0
175
0
176
0
177
0
178
0
179
2
271
2
272
2
273
2
274
3
275
0
276
0
277
2
278
44
279
0
280
0
281
0
282
0
283
0
284
8
285
0
286
0
288
0
289
3
290
0
371
-2
372
-2
  0
DIMSTYLE
105
73
330
4
100
AcDbSymbolTableRecord
100
AcDbDimStyleTableRecord
  2
EZDXF
 70
0
 40
1.0
 41
0.175
 42
0.125
 43
3.75
 44
0.375
 45
0.0
 46
0.0
 47
0.0
 48
0.0
 49
2.5
140
0.25
141
2.5
142
0.0
143
0.03937007874
144
100.0
145
0.0
146
0.5
147
0.1
148
0.0
 69
0
 70
0
 71
0
 72
0
 73
0
 74
0
 75
0
 76
0
 77
1
 78
12
 79
3
170
0
171
3
172
1
173
0
174
0
175
0
176
0
177
0
178
0
179
2
271
2
272
2
273
2
274
3
275
0
276
0
277
2
278
46
279
2
280
0
281
0
282
0
283
0
284
8
285
0
286
0
288
1
289
3
290
0
340
4C
342
74
371
-2
372
-2
  0
DIMSTYLE
105
7C
330
4
100
AcDbSymbolTableRecord
100
AcDbDimStyleTableRecord
  2
EZ_M_100_H25_CM
 70
0
 40
1.0
 41
0.25
 42
0.125
 43
3.75
 44
0.375
 45
0.0
 46
0.0
 47
0.0
 48
0.0
 49
2.5
140
0.25
141
2.5
142
0.125
143
0.03937007874
144
100.0
145
0.0
146
0.5
147
0.1
148
0.0
 69
0
 70
0
 71
0
 72
0
 73
0
 74
0
 75
0
 76
0
 77
1
 78
12
 79
3
170
0
171
3
172
1
173
0
174
0
175
0
176
0
177
0
178
0
179
2
271
2
272
2
273
2
274
3
275
0
276
0
277
2
278
46
279
2
280
0
281
0
282
0
283
0
284
8
285
0
286
0
288
1
289
3
290
0
340
4C
371
-2
372
-2
  0
DIMSTYLE
105
7D
330
4
100
AcDbSymbolTableRecord
100
AcDbDimStyleTableRecord
  2
EZ_M_50_H25_CM
 70
0
 40
1.0
 41
0.125
 42
0.0625
 43
3.75
 44
0.1875
 45
0.0
 46
0.0
 47
0.0
 48
0.0
 49
2.5
140
0.125
141
2.5
142
0.0625
143
0.03937007874
144
100.0
145
0.0
146
0.5
147
0.05
148
0.0
 69
0
 70
0
 71
0
 72
0
 73
0
 74
0
 75
0
 76
0
 77
1
 78
12
 79
3
170
0
171
3
172
1
173
0
174
0
175
0
176
0
177
0
178
0
179
2
271
2
272
2
273
2
274
3
275
0
276
0
277
2
278
46
279
2
280
0
281
0
282
0
283
0
284
8
285
0
286
0
288
1
289
3
290
0
340
4C
371
-2
372
-2
  0
DIMSTYLE
105
7E
330
4
100
AcDbSymbolTableRecord
100
AcDbDimStyleTableRecord
  2
EZ_M_25_H25_CM
 70
0
 40
1.0
 41
0.0625
 42
0.03125
 43
3.75
 44
0.09375
 45
0.0
 46
0.0
 47
0.0
 48
0.0
 49
2.5
140
0.0625
141
2.5
142
0.03125
143
0.03937007874
144
100.0
145
0.0
146
0.5
147
0.025
148
0.0
 69
0
 70
0
 71
0
 72
0
 73
0
 74
0
 75
0
 76
0
 77
1
 78
12
 79
3
170
0
171
3
172
1
173
0
174
0
175
0
176
0
177
0
178
0
179
2
271
2
272
2
273
2
274
3
275
0
276
0
277
2
278
46
279
2
280
0
281
0
282
0
283
0
284
8
285
0
286
0
288
1
289
3
290
0
340
4C
371
-2
372
-2
  0
DIMSTYLE
105
7F
330
4
100
AcDbSymbolTableRecord
100
AcDbDimStyleTableRecord
  2
EZ_M_20_H25_CM
 70
0
 40
1.0
 41
0.05
 42
0.025
 43
3.75
 44
0.07500000000000001
 45
0.0
 46
0.0
 47
0.0
 48
0.0
 49
2.5
140
0.05
141
2.5
142
0.025
143
0.03937007874
144
100.0
145
0.0
146
0.5
147
0.020000000000000004
148
0.0
 69
0
 70
0
 71
0
 72
0
 73
0
 74
0
 75
0
 76
0
 77
1
 78
12
 79
3
170
0
171
3
172
1
173
0
174
0
175
0
176
0
177
0
178
0
179
2
271
2
272
2
273
2
274
3
275
0
276
0
277
2
278
46
279
2
280
0
281
0
282
0
283
0
284
8
285
0
286
0
288
1
289
3
290
0
340
4C
371
-2
372
-2
  0
DIMSTYLE
105
80
330
4
100
AcDbSymbolTableRecord
100
AcDbDimStyleTableRecord
  2
EZ_M_10_H25_CM
 70
0
 40
1.0
 41
0.025
 42
0.0125
 43
3.75
 44
0.037500000000000006
 45
0.0
 46
0.0
 47
0.0
 48
0.0
 49
2.5
140
0.025
141
2.5
142
0.0125
143
0.03937007874
144
100.0
145
0.0
146
0.5
147
0.010000000000000002
148
0.0
 69
0
 70
0
 71
0
 72
0
 73
0
 74
0
 75
0
 76
0
 77
1
 78
12
 79
3
170
0
171
3
172
1
173
0
174
0
175
0
176
0
177
0
178
0
179
2
271
2
272
2
273
2
274
3
275
0
276
0
277
2
278
46
279
2
280
0
281
0
282
0
283
0
284
8
285
0
286
0
288
1
289
3
290
0
340
4C
371
-2
372
-2
  0
DIMSTYLE
105
81
330
4
100
AcDbSymbolTableRecord
100
AcDbDimStyleTableRecord
  2
EZ_M_5_H25_CM
 70
0
 40
1.0
 41
0.0125
 42
0.00625
 43
3.75
 44
0.018750000000000003
 45
0.0
 46
0.0
 47
0.0
 48
0.0
 49
2.5
140
0.0125
141
2.5
142
0.00625
143
0.03937007874
144
100.0
145
0.0
146
0.5
147
0.005000000000000001
148
0.0
 69
0
 70
0
 71
0
 72
0
 73
0
 74
0
 75
0
 76
0
 77
1
 78
12
 79
3
170
0
171
3
172
1
173
0
174
0
175
0
176
0
177
0
178
0
179
2
271
2
272
2
273
2
274
3
275
0
276
0
277
2
278
46
279
2
280
0
281
0
282
0
283
0
284
8
285
0
286
0
288
1
289
3
290
0
340
4C
371
-2
372
-2
  0
DIMSTYLE
105
82
330
4
100
AcDbSymbolTableRecord
100
AcDbDimStyleTableRecord
  2
EZ_M_1_H25_CM
 70
0
 40
1.0
 41
0.0025
 42
0.00125
 43
3.75
 44
0.00375
 45
0.0
 46
0.0
 47
0.0
 48
0.0
 49
2.5
140
0.0025
141
2.5
142
0.00125
143
0.03937007874
144
100.0
145
0.0
146
0.5
147
0.001
148
0.0
 69
0
 70
0
 71
0
 72
0
 73
0
 74
0
 75
0
 76
0
 77
1
 78
12
 79
3
170
0
171
3
172
1
173
0
174
0
175
0
176
0
177
0
178
0
179
2
271
2
272
2
273
2
274
3
275
0
276
0
277
2
278
46
279
2
280
0
281
0
282
0
283
0
284
8
285
0
286
0
288
1
289
3
290
0
340
4C
371
-2
372
-2
  0
DIMSTYLE
105
83
330
4
100
AcDbSymbolTableRecord
100
AcDbDimStyleTableRecord
  2
EZ_RADIUS
 70
0
 40
1.0
 41
0.25
 42
0.125
 43
3.75
 44
0.375
 45
0.0
 46
0.0
 47
0.0
 48
0.0
 49
2.5
140
0.25
141
0.0
142
0.0
143
0.03937007874
144
100.0
145
0.0
146
0.5
147
0.1
148
0.0
 69
0
 70
0
 71
0
 72
0
 73
0
 74
0
 75
0
 76
0
 77
1
 78
12
 79
3
170
0
171
3
172
0
173
0
174
0
175
0
176
0
177
0
178
0
179
2
271
2
272
2
273
2
274
3
275
0
276
0
277
2
278
46
279
1
280
0
281
0
282
0
283
0
284
8
285
0
286
0
288
1
289
3
290
0
340
4C
342
84
371
-2
372
-2
  0
DIMSTYLE
105
88
330
4
100
AcDbSymbolTableRecord
100
AcDbDimStyleTableRecord
  2
EZ_RADIUS_INSIDE
 70
0
 40
1.0
 41
0.25
 42
0.125
 43
3.75
 44
0.375
 45
0.0
 46
0.0
 47
0.0
 48
0.0
 49
2.5
140
0.25
141
0.0
142
0.0
143
0.03937007874
144
100.0
145
0.0
146
0.5
147
0.1
148
0.0
 69
0
 70
0
 71
0
 72
0
 73
0
 74
0
 75
0
 76
0
 77
0
 78
12
 79
3
170
0
171
3
172
0
173
0
174
1
175
0
176
0
177
0
178
0
179
2
271
2
272
2
273
2
274
3
275
0
276
0
277
2
278
46
279
0
280
0
281
0
282
0
283
0
284
8
285
0
286
0
288
1
289
0
290
0
340
4C
342
84
371
-2
372
-2
  0
DIMSTYLE
105
89
330
4
100
AcDbSymbolTableRecord
100
AcDbDimStyleTableRecord
  2
EZ_CURVED
 70
0
 40
1.0
 41
0.25
 42
0.125
 43
3.75
 44
0.375
 45
0.0
 46
0.0
 47
0.0
 48
0.0
 49
2.5
140
0.25
141
2.5
142
0.0
143
0.03937007874
144
100.0
145
0.0
146
0.5
147
0.1
148
0.0
 69
0
 70
0
 71
0
 72
0
 73
0
 74
0
 75
0
 76
0
 77
1
 78
12
 79
2
 90
2
170
0
171
3
172
1
173
0
174
0
175
0
176
0
177
0
178
0
179
2
271
2
272
2
273
2
274
3
275
0
276
0
277
2
278
46
279
2
280
0
281
0
282
0
283
0
284
8
285
0
286
0
288
1
289
3
290
0
340
4C
371
-2
372
-2
  0
ENDTAB
  0
TABLE
  2
BLOCK_RECORD
  5
9
330
0
100
AcDbSymbolTable
 70
5
  0
BLOCK_RECORD
  5
17
330
9
100
AcDbSymbolTableRecord
100
AcDbBlockTableRecord
  2
*Model_Space
340
1A
 70
0
280
1
281
0
  0
BLOCK_RECORD
  5
1B
330
9
100
AcDbSymbolTableRecord
100
AcDbBlockTableRecord
  2
*Paper_Space
340
1E
 70
0
280
1
281
0
  0
BLOCK_RECORD
  5
74
330
9
100
AcDbSymbolTableRecord
100
AcDbBlockTableRecord
  2
_ARCHTICK
340
0
 70
0
280
1
281
0
  0
BLOCK_RECORD
  5
78
330
9
100
AcDbSymbolTableRecord
100
AcDbBlockTableRecord
  2
_CLOSEDFILLED
340
0
 70
0
280
1
281
0
  0
BLOCK_RECORD
  5
84
330
9
100
AcDbSymbolTableRecord
100
AcDbBlockTableRecord
  2
_CLOSEDBLANK
340
0
 70
0
280
1
281
0
  0
ENDTAB
  0
ENDSEC
  0
SECTION
  2
BLOCKS
  0
BLOCK
  5
18
330
17
100
AcDbEntity
  8
0
100
AcDbBlockBegin
  2
*Model_Space
 70
0
 10
0.0
 20
0.0
 30
0.0
  3
*Model_Space
  1

  0
ENDBLK
  5
19
330
17
100
AcDbEntity
  8
0
100
AcDbBlockEnd
  0
BLOCK
  5
1C
330
1B
100
AcDbEntity
  8
0
100
AcDbBlockBegin
  2
*Paper_Space
 70
0
 10
0.0
 20
0.0
 30
0.0
  3
*Paper_Space
  1

  0
ENDBLK
  5
1D
330
1B
100
AcDbEntity
  8
0
100
AcDbBlockEnd
  0
BLOCK
  5
75
330
74
100
AcDbEntity
  8
0
100
AcDbBlockBegin
  2
_ARCHTICK
 70
0
 10
0.0
 20
0.0
 30
0.0
  3
_ARCHTICK
  1

  0
LWPOLYLINE
  5
77
330
74
100
AcDbEntity
  8
0
  6
BYBLOCK
 62
0
100
AcDbPolyline
 90
2
 70
0
 43
0.15
 10
-0.5
 20
-0.5
 10
0.5
 20
0.5
  0
ENDBLK
  5
76
330
74
100
AcDbEntity
  8
0
100
AcDbBlockEnd
  0
BLOCK
  5
79
330
78
100
AcDbEntity
  8
0
100
AcDbBlockBegin
  2
_CLOSEDFILLED
 70
0
 10
0.0
 20
0.0
 30
0.0
  3
_CLOSEDFILLED
  1

  0
SOLID
  5
7B
330
78
100
AcDbEntity
  8
0
  6
BYBLOCK
 62
0
100
AcDbTrace
 10
-1.0
 20
0.16439898372402537
 30
0.0
 11
0.0
 21
0.0
 31
0.0
 12
-1.0
 22
-0.16439898372402537
 32
0.0
 13
-1.0
 23
-0.16439898372402537
 33
0.0
  0
ENDBLK
  5
7A
330
78
100
AcDbEntity
  8
0
100
AcDbBlockEnd
  0
BLOCK
  5
85
330
84
100
AcDbEntity
  8
0
100
AcDbBlockBegin
  2
_CLOSEDBLANK
 70
0
 10
0.0
 20
0.0
 30
0.0
  3
_CLOSEDBLANK
  1

  0
LWPOLYLINE
  5
87
330
84
100
AcDbEntity
  8
0
  6
BYBLOCK
 62
0
100
AcDbPolyline
 90
3
 70
1
 10
-1.0
 20
0.16439898372402537
 10
0.0
 20
0.0
 10
-1.0
 20
-0.16439898372402537
  0
ENDBLK
  5
86
330
84
100
AcDbEntity
  8
0
100
AcDbBlockEnd
  0
ENDSEC
  0
SECTION
  2
ENTITIES
  0
LWPOLYLINE
  5
8A
330
17
100
AcDbEntity
  8
0
100
AcDbPolyline
 90
213
 70
0
 10
0.6835178934182111
 20
85.09797773056728
 10
0.34175894670910556
 20
84.75621878385817
 10
0.0
 20
84.75621878385817
 10
0.0
 20
497.2592674617486
 10
0.34175894670910556
 20
497.2592674617486
 10
0.6835178934182111
 20
496.91750851503946
 10
0.6835178934182111
 20
496.57574956833037
 10
1.7087947335455278
 20
495.5504727282031
 10
1.7087947335455278
 20
495.20871378149394
 10
2.7340715736728445
 20
494.18343694136666
 10
2.7340715736728445
 20
493.8416779946575
 10
3.7593484138001614
 20
492.81640115453024
 10
4.101107360509267
 20
492.81640115453024
 10
5.126384200636584
 20
491.7911243144029
 10
5.468143147345689
 20
491.7911243144029
 10
5.809902094054794
 20
491.4493653676938
 10
6.1516610407639
 20
491.4493653676938
 10
7.1769378808912165
 20
490.4240885275665
 10
7.518696827600323
 20
490.4240885275665
 10
7.860455774309428
 20
490.0823295808574
 10
8.202214721018533
 20
490.0823295808574
 10
8.54397366772764
 20
489.74057063414824
 10
8.885732614436744
 20
489.74057063414824
 10
9.911009454564061
 20
488.71529379402097
 10
10.252768401273167
 20
488.71529379402097
 10
10.594527347982272
 20
488.3735348473119
 10
10.936286294691378
 20
488.3735348473119
 10
11.278045241400484
 20
488.0317759006027
 10
11.619804188109589
 20
488.0317759006027
 10
12.3033220815278
 20
487.34825800718454
 10
12.645081028236905
 20
487.34825800718454
 10
15.037393655200646
 20
484.9559453802208
 10
15.37915260190975
 20
484.9559453802208
 10
15.37915260190975
 20
484.6141864335117
 10
17.08794733545528
 20
482.9053916999662
 10
17.429706282164382
 20
482.9053916999662
 10
19.138501015709913
 20
481.19659696642066
 10
19.480259962419016
 20
481.19659696642066
 10
21.872572589382756
 20
478.8042843394569
 10
22.214331536091862
 20
478.8042843394569
 10
23.92312626963739
 20
477.0954896059114
 10
24.264885216346496
 20
477.0954896059114
 10
24.264885216346496
 20
476.75373065920223
 10
25.29016205647381
 20
475.72845381907496
 10
25.631921003182917
 20
475.72845381907496
 10
26.31543889660113
 20
475.0449359256567
 10
26.657197843310232
 20
475.0449359256567
 10
27.68247468343755
 20
474.0196590855294
 10
28.024233630146657
 20
474.0196590855294
 10
28.36599257685576
 20
473.6779001388203
 10
28.36599257685576
 20
473.3361411921112
 10
29.39126941698308
 20
472.31086435198387
 10
29.733028363692185
 20
472.31086435198387
 10
30.416546257110394
 20
471.6273464585657
 10
30.7583052038195
 20
471.6273464585657
 10
31.441823097237712
 20
470.94382856514744
 10
31.78358204394682
 20
470.94382856514744
 10
32.12534099065592
 20
470.60206961843835
 10
32.46709993736503
 20
470.60206961843835
 10
33.83413572420145
 20
469.2350338316019
 10
34.17589467091056
 20
469.2350338316019
 10
35.54293045774698
 20
467.8679980447655
 10
35.88468940445608
 20
467.8679980447655
 10
36.22644835116519
 20
467.5262390980564
 10
36.22644835116519
 20
467.1844801513473
 10
36.568207297874295
 20
466.84272120463817
 10
36.9099662445834
 20
466.84272120463817
 10
38.96051992483803
 20
464.79216752438356
 10
39.30227887154714
 20
464.79216752438356
 10
41.352832551801775
 20
462.74161384412895
 10
41.69459149851088
 20
462.74161384412895
 10
42.71986833863819
 20
461.7163370040016
 10
43.0616272853473
 20
461.7163370040016
 10
45.45393991231104
 20
459.32402437703786
 10
45.45393991231104
 20
458.98226543032877
 10
46.13745780572925
 20
458.2987475369106
 10
46.13745780572925
 20
457.95698859020143
 10
46.479216752438354
 20
457.61522964349234
 10
46.479216752438354
 20
457.27347069678325
 10
46.82097569914746
 20
456.93171175007416
 10
46.82097569914746
 20
456.2481938566559
 10
47.16273464585657
 20
455.9064349099468
 10
47.16273464585657
 20
454.1976401764013
 10
47.50449359256567
 20
453.85588122969216
 10
47.50449359256567
 20
451.46356860272846
 10
47.84625253927478
 20
451.12180965601937
 10
47.84625253927478
 20
449.0712559757647
 10
48.188011485983886
 20
448.7294970290556
 10
48.188011485983886
 20
446.33718440209185
 10
48.52977043269299
 20
445.99542545538276
 10
48.52977043269299
 20
444.62838966854633
 10
48.8715293794021
 20
444.28663072183724
 10
48.8715293794021
 20
442.9195949350008
 10
49.2132883261112
 20
442.5778359882917
 10
49.2132883261112
 20
441.2108002014553
 10
49.5550472728203
 20
440.86904125474615
 10
49.5550472728203
 20
439.16024652120063
 10
49.89680621952941
 20
438.81848757449154
 10
49.89680621952941
 20
438.47672862778245
 10
50.238565166238516
 20
438.1349696810733
 10
50.238565166238516
 20
437.7932107343642
 10
50.92208305965673
 20
437.109692840946
 10
50.92208305965673
 20
436.76793389423693
 10
51.263842006365834
 20
436.4261749475278
 10
51.263842006365834
 20
436.0844160008187
 10
51.60560095307494
 20
435.7426570541096
 10
51.60560095307494
 20
435.4008981074005
 10
51.94735989978405
 20
435.05913916069136
 10
51.94735989978405
 20
434.3756212672732
 10
52.28911884649315
 20
434.0338623205641
 10
52.28911884649315
 20
433.00858548043675
 10
52.63087779320226
 20
432.66682653372766
 10
52.63087779320226
 20
431.9833086403094
 10
52.97263673991136
 20
431.6415496936003
 10
52.97263673991136
 20
430.9580318001821
 10
53.314395686620465
 20
430.616272853473
 10
53.314395686620465
 20
429.9327549600548
 10
53.65615463332957
 20
429.5909960133457
 10
53.65615463332957
 20
429.24923706663657
 10
53.99791358003868
 20
428.9074781199275
 10
53.99791358003868
 20
428.5657191732184
 10
54.33967252674778
 20
428.2239602265093
 10
54.33967252674778
 20
427.88220127980014
 10
54.68143147345689
 20
427.54044233309105
 10
54.68143147345689
 20
427.19868338638196
 10
55.3649493668751
 20
426.5151654929637
 10
55.3649493668751
 20
426.1734065462546
 10
57.073744100420626
 20
424.4646118127091
 10
57.41550304712973
 20
424.4646118127091
 10
58.44077988725705
 20
423.4393349725818
 10
58.78253883396616
 20
423.4393349725818
 10
60.14957462080258
 20
422.07229918574535
 10
60.49133356751168
 20
422.07229918574535
 10
61.516610407639
 20
421.0470223456181
 10
61.858369354348106
 20
421.0470223456181
 10
62.20012830105721
 20
420.7052633989089
 10
62.54188724776632
 20
420.7052633989089
 10
64.59244092802095
 20
418.6547097186543
 10
64.93419987473006
 20
418.6547097186543
 10
65.95947671485737
 20
417.629432878527
 10
66.30123566156648
 20
417.629432878527
 10
67.3265125016938
 20
416.60415603839965
 10
67.3265125016938
 20
416.26239709169056
 10
67.6682714484029
 20
415.92063814498147
 10
67.6682714484029
 20
415.5788791982724
 10
68.01003039511201
 20
415.2371202515633
 10
68.01003039511201
 20
414.89536130485413
 10
68.35178934182112
 20
414.55360235814504
 10
68.35178934182112
 20
412.8448076245995
 10
68.69354828853022
 20
412.50304867789043
 10
68.69354828853022
 20
411.4777718377631
 10
69.03530723523933
 20
411.136012891054
 10
69.03530723523933
 20
410.45249499763577
 10
69.37706618194842
 20
410.1107360509267
 10
69.37706618194842
 20
409.7689771042176
 10
70.06058407536663
 20
409.08545921079934
 10
70.40234302207574
 20
409.08545921079934
 10
70.74410196878485
 20
408.74370026409025
 10
71.08586091549395
 20
408.74370026409025
 10
71.42761986220306
 20
408.40194131738116
 10
72.79465564903948
 20
408.40194131738116
 10
73.13641459574859
 20
408.06018237067207
 10
73.4781735424577
 20
408.06018237067207
 10
75.87048616942144
 20
405.6678697437083
 10
75.87048616942144
 20
405.3261107969992
 10
76.21224511613055
 20
404.98435185029007
 10
76.21224511613055
 20
404.642592903581
 10
76.89576300954874
 20
403.9590750101628
 10
76.89576300954874
 20
403.61731606345364
 10
77.92103984967606
 20
402.59203922332637
 10
78.26279879638517
 20
402.59203922332637
 10
78.60455774309428
 20
402.2502802766172
 10
78.94631668980338
 20
402.2502802766172
 10
79.28807563651249
 20
401.9085213299081
 10
79.6298345832216
 20
401.9085213299081
 10
79.9715935299307
 20
401.56676238319903
 10
80.3133524766398
 20
401.56676238319903
 10
80.65511142334891
 20
401.22500343648994
 10
81.68038826347623
 20
401.22500343648994
 10
82.02214721018534
 20
400.88324448978085
 10
82.36390615689444
 20
400.88324448978085
 10
82.70566510360355
 20
400.5414855430717
 10
83.04742405031266
 20
400.5414855430717
 10
83.38918299702176
 20
400.1997265963626
 10
83.73094194373087
 20
400.1997265963626
 10
84.07270089043996
 20
399.8579676496535
 10
84.41445983714907
 20
399.8579676496535
 10
84.75621878385817
 20
399.5162087029444
 10
85.09797773056728
 20
399.5162087029444
 10
86.1232545706946
 20
398.4909318628171
 10
86.4650135174037
 20
398.4909318628171
 10
86.80677246411281
 20
398.149172916108
 10
87.49029035753102
 20
398.149172916108
 10
87.83204930424013
 20
397.80741396939885
 10
89.19908509107655
 20
397.80741396939885
 10
89.54084403778566
 20
397.46565502268976
 10
92.2749156114585
 20
397.46565502268976
 10
92.6166745581676
 20
397.12389607598067
 10
95.69250507854956
 20
397.12389607598067
 10
96.03426402525866
 20
396.7821371292716
 10
97.7430587588042
 20
396.7821371292716
 10
98.0848177055133
 20
396.4403781825624
 10
99.79361243905882
 20
396.4403781825624
 10
100.13537138576793
 20
396.09861923585333
 10
101.16064822589524
 20
396.09861923585333
 10
101.50240717260435
 20
395.75686028914424
 10
102.18592506602256
 20
395.75686028914424
 10
102.52768401273167
 20
395.41510134243515
 10
103.55296085285899
 20
395.41510134243515
 10
103.8947197995681
 20
395.073342395726
 10
105.60351453311362
 20
395.073342395726
 10
105.94527347982272
 20
394.7315834490169
 10
106.62879137324093
 20
394.7315834490169
  0
LWPOLYLINE
  5
8B
330
17
100
AcDbEntity
  8
0
100
AcDbPolyline
 90
956
 70
0
 10
106.62879137324093
 20
394.7315834490169
 10
106.97055031995004
 20
394.3898245023078
 10
107.65406821336825
 20
394.3898245023078
 10
107.99582716007735
 20
394.0480655555987
 10
108.67934505349557
 20
394.0480655555987
 10
109.02110400020467
 20
393.7063066088896
 10
110.3881397870411
 20
393.7063066088896
 10
110.7298987337502
 20
393.3645476621805
 10
111.41341662716842
 20
393.3645476621805
 10
111.75517557387752
 20
393.0227887154714
 10
112.43869346729574
 20
393.0227887154714
 10
112.78045241400484
 20
392.6810297687623
 10
113.46397030742304
 20
392.6810297687623
 10
113.80572925413215
 20
392.3392708220532
 10
114.48924714755036
 20
392.3392708220532
 10
114.83100609425946
 20
391.99751187534406
 10
115.51452398767768
 20
391.99751187534406
 10
115.85628293438678
 20
391.65575292863497
 10
116.539800827805
 20
391.65575292863497
 10
116.8815597745141
 20
391.3139939819259
 10
117.90683661464142
 20
391.3139939819259
 10
118.24859556135053
 20
390.9722350352168
 10
118.93211345476874
 20
390.9722350352168
 10
119.27387240147785
 20
390.63047608850763
 10
120.29914924160516
 20
390.63047608850763
 10
120.64090818831426
 20
390.28871714179854
 10
121.32442608173247
 20
390.28871714179854
 10
121.66618502844157
 20
389.94695819508945
 10
123.033220815278
 20
389.94695819508945
 10
123.3749797619871
 20
389.60519924838036
 10
124.05849765540532
 20
389.60519924838036
 10
124.40025660211442
 20
389.2634403016712
 10
125.08377449553264
 20
389.2634403016712
 10
125.42553344224174
 20
388.9216813549621
 10
126.79256922907817
 20
388.9216813549621
 10
127.13432817578727
 20
388.579922408253
 10
127.81784606920547
 20
388.579922408253
 10
128.1596050159146
 20
388.23816346154393
 10
129.52664080275102
 20
388.23816346154393
 10
129.8683997494601
 20
387.8964045148348
 10
130.55191764287832
 20
387.8964045148348
 10
130.89367658958744
 20
387.5546455681257
 10
131.91895342971475
 20
387.5546455681257
 10
132.26071237642384
 20
387.2128866214166
 10
133.28598921655117
 20
387.2128866214166
 10
133.62774816326026
 20
386.8711276747075
 10
134.31126605667848
 20
386.8711276747075
 10
134.6530250033876
 20
386.52936872799836
 10
135.6783018435149
 20
386.52936872799836
 10
136.02006079022402
 20
386.18760978128927
 10
137.04533763035133
 20
386.18760978128927
 10
137.38709657706045
 20
385.8458508345802
 10
138.07061447047866
 20
385.8458508345802
 10
138.41237341718775
 20
385.5040918878711
 10
139.43765025731506
 20
385.5040918878711
 10
139.77940920402418
 20
385.162332941162
 10
140.4629270974424
 20
385.162332941162
 10
140.80468604415148
 20
384.82057399445284
 10
141.4882039375697
 20
384.82057399445284
 10
141.8299628842788
 20
384.47881504774375
 10
142.85523972440612
 20
384.47881504774375
 10
143.19699867111524
 20
384.13705610103466
 10
143.88051656453345
 20
384.13705610103466
 10
144.22227551124254
 20
383.79529715432557
 10
145.24755235136988
 20
383.79529715432557
 10
145.58931129807897
 20
383.4535382076164
 10
146.27282919149718
 20
383.4535382076164
 10
146.61458813820627
 20
383.1117792609073
 10
147.29810603162449
 20
383.1117792609073
 10
147.6398649783336
 20
382.77002031419823
 10
148.32338287175182
 20
382.77002031419823
 10
148.6651418184609
 20
382.42826136748914
 10
149.69041865858824
 20
382.42826136748914
 10
150.03217760529733
 20
382.08650242078
 10
150.71569549871555
 20
382.08650242078
 10
151.05745444542467
 20
381.7447434740709
 10
152.08273128555197
 20
381.7447434740709
 10
152.4244902322611
 20
381.4029845273618
 10
153.4497670723884
 20
381.4029845273618
 10
153.7915260190975
 20
381.0612255806527
 10
154.4750439125157
 20
381.0612255806527
 10
154.81680285922482
 20
380.71946663394357
 10
155.84207969935213
 20
380.71946663394357
 10
156.18383864606125
 20
380.3777076872345
 10
157.20911548618855
 20
380.3777076872345
 10
157.55087443289767
 20
380.0359487405254
 10
158.57615127302498
 20
380.0359487405254
 10
158.9179102197341
 20
379.6941897938163
 10
159.6014281131523
 20
379.6941897938163
 10
159.9431870598614
 20
379.35243084710714
 10
161.31022284669783
 20
379.35243084710714
 10
161.65198179340692
 20
379.01067190039805
 10
163.01901758024334
 20
379.01067190039805
 10
163.36077652695246
 20
378.66891295368896
 10
164.7278123137889
 20
378.66891295368896
 10
165.06957126049798
 20
378.32715400697987
 10
166.4366070473344
 20
378.32715400697987
 10
166.77836599404353
 20
377.9853950602708
 10
167.80364283417083
 20
377.9853950602708
 10
168.14540178087992
 20
377.6436361135616
 10
169.17067862100726
 20
377.6436361135616
 10
169.51243756771635
 20
377.30187716685253
 10
170.53771440784368
 20
377.30187716685253
 10
170.87947335455277
 20
376.96011822014344
 10
172.2465091413892
 20
376.96011822014344
 10
172.58826808809832
 20
376.61835927343435
 10
173.61354492822562
 20
376.61835927343435
 10
173.95530387493474
 20
376.2766003267252
 10
175.32233966177114
 20
376.2766003267252
 10
175.66409860848026
 20
375.9348413800161
 10
176.68937544860756
 20
375.9348413800161
 10
177.03113439531668
 20
375.593082433307
 10
178.3981701821531
 20
375.593082433307
 10
178.7399291288622
 20
375.2513234865979
 10
179.76520596898953
 20
375.2513234865979
 10
180.10696491569863
 20
374.9095645398888
 10
181.13224175582596
 20
374.9095645398888
 10
181.47400070253505
 20
374.5678055931797
 10
182.49927754266236
 20
374.5678055931797
 10
182.84103648937148
 20
374.2260466464706
 10
183.86631332949878
 20
374.2260466464706
 10
184.2080722762079
 20
373.8842876997615
 10
185.57510806304433
 20
373.8842876997615
 10
185.91686700975342
 20
373.54252875305235
 10
187.28390279658984
 20
373.54252875305235
 10
187.62566174329896
 20
373.20076980634326
 10
188.9926975301354
 20
373.20076980634326
 10
189.33445647684448
 20
372.85901085963417
 10
190.35973331697178
 20
372.85901085963417
 10
190.7014922636809
 20
372.5172519129251
 10
192.41028699722642
 20
372.5172519129251
 10
192.75204594393554
 20
372.1754929662159
 10
194.11908173077197
 20
372.1754929662159
 10
194.46084067748106
 20
371.83373401950684
 10
195.82787646431748
 20
371.83373401950684
 10
196.1696354110266
 20
371.49197507279774
 10
197.536671197863
 20
371.49197507279774
 10
197.87843014457212
 20
371.15021612608865
 10
198.90370698469943
 20
371.15021612608865
 10
199.24546593140855
 20
370.80845717937956
 10
200.95426066495406
 20
370.80845717937956
 10
201.29601961166318
 20
370.4666982326704
 10
202.3212964517905
 20
370.4666982326704
 10
202.6630553984996
 20
370.1249392859613
 10
203.6883322386269
 20
370.1249392859613
 10
204.03009118533603
 20
369.7831803392522
 10
205.39712697217243
 20
369.7831803392522
 10
205.73888591888155
 20
369.44142139254313
 10
207.10592170571798
 20
369.44142139254313
 10
207.44768065242707
 20
369.099662445834
 10
208.8147164392635
 20
369.099662445834
 10
209.1564753859726
 20
368.7579034991249
 10
209.83999327939082
 20
368.7579034991249
 10
210.18175222609992
 20
368.4161445524158
 10
211.54878801293634
 20
368.4161445524158
 10
211.89054695964543
 20
368.0743856057067
 10
213.25758274648186
 20
368.0743856057067
 10
213.59934169319098
 20
367.73262665899756
 10
214.62461853331828
 20
367.73262665899756
 10
214.9663774800274
 20
367.39086771228847
 10
216.33341326686383
 20
367.39086771228847
 10
216.67517221357292
 20
367.0491087655794
 10
218.04220800040935
 20
367.0491087655794
 10
218.38396694711847
 20
366.7073498188703
 10
219.75100273395486
 20
366.7073498188703
 10
220.09276168066398
 20
366.36559087216114
 10
221.4597974675004
 20
366.36559087216114
 10
221.8015564142095
 20
366.02383192545204
 10
223.16859220104593
 20
366.02383192545204
 10
223.51035114775505
 20
365.68207297874295
 10
224.87738693459147
 20
365.68207297874295
 10
225.21914588130056
 20
365.34031403203386
 10
226.586181668137
 20
365.34031403203386
 10
226.92794061484608
 20
364.9985550853247
 10
227.9532174549734
 20
364.9985550853247
 10
228.2949764016825
 20
364.6567961386156
 10
229.66201218851893
 20
364.6567961386156
 10
230.00377113522805
 20
364.3150371919065
 10
231.37080692206447
 20
364.3150371919065
 10
231.71256586877357
 20
363.97327824519743
 10
233.07960165561
 20
363.97327824519743
 10
233.42136060231908
 20
363.63151929848834
 10
234.44663744244642
 20
363.63151929848834
 10
234.7883963891555
 20
363.2897603517792
 10
236.15543217599193
 20
363.2897603517792
 10
236.49719112270105
 20
362.9480014050701
 10
237.86422690953748
 20
362.9480014050701
 10
238.20598585624657
 20
362.606242458361
 10
239.91478058979212
 20
362.606242458361
 10
240.2565395365012
 20
362.2644835116519
 10
242.99061111017406
 20
362.2644835116519
 10
243.33237005688315
 20
361.92272456494277
 10
247.09171847068333
 20
361.92272456494277
 10
247.43347741739242
 20
361.5809656182337
 10
251.8763437246108
 20
361.5809656182337
 10
252.2181026713199
 20
361.2392066715246
 10
255.63569213841095
 20
361.2392066715246
 10
255.97745108512007
 20
360.8974477248155
 10
260.0785584456293
 20
360.8974477248155
 10
260.42031739233846
 20
360.55568877810634
 10
263.4961479127204
 20
360.55568877810634
 10
263.8379068594295
 20
360.21392983139725
 10
265.8884605396841
 20
360.21392983139725
 10
266.23021948639325
 20
359.87217088468816
 10
268.9642910600661
 20
359.87217088468816
 10
269.3060500067752
 20
359.53041193797907
 10
271.6983626337389
 20
359.53041193797907
 10
272.04012158044804
 20
359.1886529912699
 10
274.09067526070265
 20
359.1886529912699
 10
274.43243420741175
 20
358.8468940445608
 10
276.4829878876664
 20
358.8468940445608
 10
276.8247468343755
 20
358.50513509785173
 10
279.21705946133926
 20
358.50513509785173
 10
279.55881840804835
 20
358.16337615114264
 10
281.60937208830296
 20
358.16337615114264
 10
281.9511310350121
 20
357.8216172044335
 10
284.3434436619758
 20
357.8216172044335
 10
284.6852026086849
 20
357.4798582577244
 10
287.07751523564866
 20
357.4798582577244
 10
287.41927418235775
 20
357.1380993110153
 10
289.4698278626124
 20
357.1380993110153
 10
289.8115868093215
 20
356.7963403643062
 10
291.8621404895761
 20
356.7963403643062
 10
292.20389943628527
 20
356.4545814175971
 10
294.9379710099581
 20
356.4545814175971
 10
295.2797299566672
 20
356.112822470888
 10
296.9885246902127
 20
356.112822470888
 10
297.3302836369218
 20
355.7710635241789
 10
299.7225962638856
 20
355.7710635241789
 10
300.06435521059467
 20
355.4293045774698
 10
302.4566678375584
 20
355.4293045774698
 10
302.7984267842675
 20
355.0875456307607
 10
305.1907394112313
 20
355.0875456307607
 10
305.53249835794037
 20
354.74578668405155
 10
307.583052038195
 20
354.74578668405155
 10
307.9248109849041
 20
354.40402773734246
 10
310.3171236118678
 20
354.40402773734246
 10
310.658882558577
 20
354.06226879063337
 10
313.7347130789589
 20
354.06226879063337
 10
314.076472025668
 20
353.7205098439243
 10
316.81054359934086
 20
353.7205098439243
 10
317.15230254604995
 20
353.3787508972151
 10
319.5446151730137
 20
353.3787508972151
 10
319.8863741197228
 20
353.03699195050604
 10
322.96220464010474
 20
353.03699195050604
 10
323.30396358681384
 20
352.69523300379694
 10
325.3545172670685
 20
352.69523300379694
 10
325.6962762137776
 20
352.35347405708785
 10
328.43034778745044
 20
352.35347405708785
 10
328.77210673415954
 20
352.0117151103787
 10
331.5061783078324
 20
352.0117151103787
 10
331.8479372545415
 20
351.6699561636696
 10
334.5820088282143
 20
351.6699561636696
 10
334.9237677749235
 20
351.3281972169605
 10
339.0248751354327
 20
351.3281972169605
 10
339.36663408214184
 20
350.9864382702514
 10
343.12598249594197
 20
350.9864382702514
 10
343.46774144265106
 20
350.6446793235423
 10
347.56884880316034
 20
350.6446793235423
 10
347.9106077498695
 20
350.3029203768332
 10
351.3281972169605
 20
350.3029203768332
 10
351.6699561636696
 20
349.9611614301241
 10
355.4293045774698
 20
349.9611614301241
 10
355.7710635241789
 20
349.619402483415
 10
360.21392983139725
 20
349.619402483415
 10
360.55568877810634
 20
349.2776435367059
 10
365.68207297874295
 20
349.2776435367059
 10
366.02383192545204
 20
348.93588458999676
 10
370.1249392859613
 20
348.93588458999676
 10
370.4666982326704
 20
348.59412564328767
 10
373.54252875305235
 20
348.59412564328767
 10
373.8842876997615
 20
348.2523666965786
 10
376.96011822014344
 20
348.2523666965786
 10
377.30187716685253
 20
347.9106077498695
 10
380.3777076872345
 20
347.9106077498695
 10
380.71946663394357
 20
347.56884880316034
 10
384.47881504774375
 20
347.56884880316034
 10
384.82057399445284
 20
347.22708985645124
 10
388.579922408253
 20
347.22708985645124
 10
388.9216813549621
 20
346.88533090974215
 10
393.0227887154714
 20
346.88533090974215
 10
393.3645476621805
 20
346.54357196303306
 10
397.46565502268976
 20
346.54357196303306
 10
397.80741396939885
 20
346.2018130163239
 10
401.9085213299081
 20
346.2018130163239
 10
402.2502802766172
 20
345.8600540696148
 10
407.03490553054473
 20
345.8600540696148
 10
407.3766644772538
 20
345.5182951229057
 10
411.4777718377631
 20
345.5182951229057
 10
411.8195307844722
 20
345.17653617619663
 10
415.5788791982724
 20
345.17653617619663
 10
415.92063814498147
 20
344.8347772294875
 10
422.07229918574535
 20
344.8347772294875
 10
422.4140581324545
 20
344.4930182827784
 10
428.2239602265093
 20
344.4930182827784
 10
428.5657191732184
 20
344.1512593360693
 10
433.69210337385493
 20
344.1512593360693
 10
434.0338623205641
 20
343.8095003893602
 10
438.81848757449154
 20
343.8095003893602
 10
439.16024652120063
 20
343.46774144265106
 10
446.33718440209185
 20
343.46774144265106
 10
446.67894334880094
 20
343.12598249594197
 10
466.84272120463817
 20
343.12598249594197
 10
467.1844801513473
 20
342.7842235492329
 10
489.05705274073006
 20
342.7842235492329
 10
489.39881168743915
 20
342.4424646025238
 10
501.3603748222579
 20
342.4424646025238
 10
501.702133768967
 20
342.7842235492329
 10
523.5747063583498
 20
342.7842235492329
 10
523.9164653050589
 20
343.12598249594197
 10
555.3582884022966
 20
343.12598249594197
 10
555.7000473490057
 20
342.7842235492329
 10
565.6110568035697
 20
342.7842235492329
 10
565.9528157502788
 20
343.12598249594197
 10
566.6363336436971
 20
343.12598249594197
 10
566.9780925904062
 20
342.7842235492329
 10
568.0033694305334
 20
342.7842235492329
 10
568.3451283772425
 20
343.12598249594197
 10
576.5473430982611
 20
343.12598249594197
 10
576.8891020449702
 20
342.7842235492329
 10
578.2561378318067
 20
342.7842235492329
 10
578.5978967785157
 20
343.12598249594197
 10
578.9396557252248
 20
343.12598249594197
 10
579.2814146719339
 20
342.7842235492329
 10
601.8375051547349
 20
342.7842235492329
 10
602.179264101444
 20
343.12598249594197
 10
603.2045409415713
 20
343.12598249594197
 10
603.5462998882804
 20
342.7842235492329
 10
626.1023903710814
 20
342.7842235492329
 10
626.4441493177904
 20
342.4424646025238
 10
627.1276672112087
 20
342.4424646025238
 10
627.4694261579178
 20
342.7842235492329
 10
627.8111851046269
 20
342.4424646025238
 10
648.3167219071732
 20
342.4424646025238
 10
648.6584808538823
 20
342.1007056558147
 10
675.9991965906108
 20
342.1007056558147
 10
676.3409555373199
 20
341.75894670910554
 10
687.6190007787204
 20
341.75894670910554
 10
687.9607597254295
 20
341.41718776239645
 10
695.1376976063207
 20
341.41718776239645
 10
695.4794565530298
 20
341.07542881568736
 10
704.0234302207574
 20
341.07542881568736
 10
704.3651891674666
 20
340.73366986897827
 10
719.7443417693763
 20
340.73366986897827
 10
720.0861007160854
 20
340.3919109222691
 10
724.8707259700129
 20
340.3919109222691
 10
725.212484916722
 20
340.05015197556
 10
736.8322891048316
 20
340.05015197556
 10
737.1740480515407
 20
339.70839302885094
 10
743.6674680390137
 20
339.70839302885094
 10
744.0092269857228
 20
339.36663408214184
 10
754.9455132804142
 20
339.36663408214184
 10
755.2872722271233
 20
339.0248751354327
 10
756.3125490672506
 20
339.0248751354327
 10
756.6543080139597
 20
339.36663408214184
 10
761.097174321178
 20
339.36663408214184
 10
761.4389332678871
 20
339.0248751354327
 10
771.6917016691604
 20
339.0248751354327
 10
772.0334606158694
 20
338.6831161887236
 10
780.5774342835971
 20
338.6831161887236
 10
780.9191932303062
 20
338.3413572420145
 10
791.5137205782885
 20
338.3413572420145
 10
791.8554795249976
 20
337.9995982953054
 10
813.0445342209621
 20
337.9995982953054
 10
813.3862931676713
 20
337.65783934859627
 10
835.9423836504722
 20
337.65783934859627
 10
836.2841425971814
 20
337.3160804018872
 10
839.0182141708541
 20
337.3160804018872
 10
839.3599731175633
 20
337.65783934859627
 10
840.0434910109815
 20
337.65783934859627
 10
840.3852499576906
 20
337.3160804018872
 10
841.4105267978179
 20
337.3160804018872
 10
841.752285744527
 20
337.65783934859627
 10
842.0940446912361
 20
337.65783934859627
 10
842.4358036379452
 20
337.3160804018872
 10
855.7644025596003
 20
337.3160804018872
 10
856.1061615063094
 20
336.9743214551781
 10
875.5864214687284
 20
336.9743214551781
 10
875.9281804154375
 20
336.632562508469
 10
886.1809488167107
 20
336.632562508469
 10
886.5227077634198
 20
336.9743214551781
 10
890.9655740706382
 20
336.9743214551781
 10
891.3073330173473
 20
337.3160804018872
 10
893.0161277508928
 20
337.3160804018872
 10
893.3578866976019
 20
336.9743214551781
 10
894.0414045910202
 20
336.9743214551781
 10
894.3831635377293
 20
337.3160804018872
 10
894.7249224844384
 20
336.9743214551781
 10
899.5095477383659
 20
336.9743214551781
 10
899.851306685075
 20
337.3160804018872
 10
906.344726672548
 20
337.3160804018872
 10
906.686485619257
 20
336.9743214551781
 10
914.5469413935665
 20
336.9743214551781
 10
914.8887003402756
 20
336.632562508469
 10
916.255736127112
 20
336.632562508469
 10
916.5974950738212
 20
336.29080356175984
 10
921.3821203277486
 20
336.29080356175984
 10
921.7238792744577
 20
336.632562508469
 10
922.0656382211668
 20
336.632562508469
 10
922.407397167876
 20
336.9743214551781
 10
923.4326740080032
 20
336.9743214551781
 10
923.7744329547123
 20
336.632562508469
 10
924.7997097948396
 20
336.632562508469
 10
925.4832276882579
 20
335.94904461505075
 10
925.4832276882579
 20
335.60728566834166
 10
925.824986634967
 20
335.26552672163257
 10
925.824986634967
 20
333.89849093479614
 10
926.1667455816761
 20
333.55673198808705
 10
926.1667455816761
 20
333.2149730413779
 10
926.5085045283852
 20
332.8732140946688
 10
926.5085045283852
 20
332.5314551479597
 10
926.8502634750943
 20
332.1896962012506
 10
926.8502634750943
 20
330.8226604144142
 10
927.1920224218034
 20
330.48090146770505
 10
927.1920224218034
 20
328.08858884074135
 10
926.8502634750943
 20
327.74682989403226
 10
926.8502634750943
 20
325.3545172670685
 10
926.5085045283852
 20
325.0127583203594
 10
926.5085045283852
 20
324.67099937365026
 10
926.1667455816761
 20
324.32924042694117
 10
926.1667455816761
 20
322.62044569339565
 10
926.5085045283852
 20
322.27868674668656
 10
926.5085045283852
 20
321.5951688532683
 10
925.4832276882579
 20
320.56989201314104
 10
925.1414687415488
 20
320.56989201314104
 10
924.1161919014214
 20
319.5446151730137
 10
924.1161919014214
 20
318.5193383328864
 10
924.7997097948396
 20
317.8358204394682
 10
925.1414687415488
 20
317.8358204394682
 10
925.4832276882579
 20
317.49406149275904
 10
925.824986634967
 20
317.49406149275904
 10
925.824986634967
 20
315.44350781250444
 10
926.5085045283852
 20
314.7599899190862
 10
926.5085045283852
 20
312.7094362388316
 10
926.1667455816761
 20
312.3676772921225
 10
926.1667455816761
 20
312.0259183454134
 10
925.824986634967
 20
311.68415939870425
 10
925.824986634967
 20
311.00064150528607
 10
926.1667455816761
 20
310.658882558577
 10
926.1667455816761
 20
310.3171236118678
 10
925.824986634967
 20
309.97536466515874
 10
925.824986634967
 20
309.63360571844964
 10
925.4832276882579
 20
309.29184677174055
 10
925.4832276882579
 20
307.583052038195
 10
925.1414687415488
 20
307.2412930914859
 10
925.1414687415488
 20
306.8995341447768
 10
924.4579508481305
 20
306.2160162513586
 10
924.4579508481305
 20
304.50722151781304
 10
924.1161919014214
 20
304.16546257110394
 10
924.1161919014214
 20
302.7984267842675
 10
924.4579508481305
 20
302.4566678375584
 10
924.4579508481305
 20
302.11490889084934
 10
925.1414687415488
 20
301.4313909974311
 10
925.1414687415488
 20
299.7225962638856
 10
925.4832276882579
 20
299.3808373171765
 10
925.4832276882579
 20
298.01380153034006
 10
925.824986634967
 20
297.67204258363097
 10
925.824986634967
 20
293.22917627641255
 10
925.4832276882579
 20
292.88741732970345
 10
925.4832276882579
 20
279.55881840804835
 10
925.1414687415488
 20
279.21705946133926
 10
925.1414687415488
 20
266.57197843310234
 10
924.7997097948396
 20
266.23021948639325
 10
924.7997097948396
 20
263.15438896601125
 10
924.4579508481305
 20
262.81263001930216
 10
924.4579508481305
 20
260.76207633904755
 10
924.7997097948396
 20
260.42031739233846
 10
924.7997097948396
 20
250.16754899106527
 10
925.1414687415488
 20
249.82579004435615
 10
925.1414687415488
 20
238.88950374966478
 10
925.4832276882579
 20
238.5477448029557
 10
925.4832276882579
 20
237.52246796282836
 10
925.1414687415488
 20
237.18070901611927
 10
925.1414687415488
 20
222.14331536091862
 10
924.7997097948396
 20
221.8015564142095
 10
924.7997097948396
 20
216.33341326686383
 10
924.4579508481305
 20
215.9916543201547
 10
924.4579508481305
 20
213.25758274648186
 10
923.0909150612941
 20
211.89054695964543
 10
923.0909150612941
 20
208.13119854584528
 10
923.4326740080032
 20
207.7894395991362
 10
923.4326740080032
 20
206.08064486559064
 10
923.7744329547123
 20
205.73888591888155
 10
923.7744329547123
 20
203.6883322386269
 10
923.4326740080032
 20
203.34657329191782
 10
923.4326740080032
 20
200.95426066495406
 10
922.749156114585
 20
200.27074277153585
 10
922.407397167876
 20
200.27074277153585
 10
922.0656382211668
 20
199.92898382482676
 10
922.0656382211668
 20
197.536671197863
 10
922.749156114585
 20
196.8531533044448
 10
922.749156114585
 20
194.80259962419018
 10
921.7238792744577
 20
193.77732278406285
 10
921.7238792744577
 20
193.43556383735375
 10
921.0403613810395
 20
192.75204594393554
 10
921.0403613810395
 20
190.35973331697178
 10
921.3821203277486
 20
190.0179743702627
 10
921.3821203277486
 20
189.67621542355357
 10
921.7238792744577
 20
189.33445647684448
 10
921.7238792744577
 20
188.30917963671718
 10
922.0656382211668
 20
187.96742069000805
 10
922.0656382211668
 20
187.62566174329896
 10
922.407397167876
 20
187.28390279658984
 10
922.407397167876
 20
186.60038490317163
 10
922.0656382211668
 20
186.25862595646254
 10
922.0656382211668
 20
185.57510806304433
 10
922.407397167876
 20
185.2333491163352
 10
922.407397167876
 20
181.47400070253505
 10
922.0656382211668
 20
181.13224175582596
 10
922.0656382211668
 20
179.08168807557132
 10
921.7238792744577
 20
178.7399291288622
 10
921.7238792744577
 20
177.7146522887349
 10
921.3821203277486
 20
177.37289334202578
 10
921.3821203277486
 20
175.32233966177114
 10
921.0403613810395
 20
174.98058071506205
 10
921.0403613810395
 20
172.9300270348074
 10
920.6986024343304
 20
172.58826808809832
 10
920.6986024343304
 20
170.53771440784368
 10
921.0403613810395
 20
170.19595546113456
 10
921.0403613810395
 20
166.4366070473344
 10
921.3821203277486
 20
166.0948481006253
 10
921.3821203277486
 20
162.67725863353425
 10
921.0403613810395
 20
162.33549968682513
 10
921.0403613810395
 20
159.2596691664432
 10
920.6986024343304
 20
158.9179102197341
 10
920.6986024343304
 20
158.23439232631588
 10
920.3568434876213
 20
157.89263337960676
 10
920.3568434876213
 20
156.52559759277034
 10
920.0150845409122
 20
156.52559759277034
 10
919.6733255942031
 20
156.18383864606125
 10
919.3315666474939
 20
156.18383864606125
 10
918.6480487540757
 20
155.50032075264303
 10
918.6480487540757
 20
154.81680285922482
 10
920.3568434876213
 20
153.1080081256793
 10
920.3568434876213
 20
151.74097233884288
 10
920.0150845409122
 20
151.39921339213376
 10
920.0150845409122
 20
150.37393655200646
 10
919.6733255942031
 20
150.03217760529733
 10
919.6733255942031
 20
149.34865971187912
 10
918.3062898073666
 20
147.9816239250427
 10
917.9645308606575
 20
147.9816239250427
 10
917.6227719139484
 20
147.6398649783336
 10
917.2810129672393
 20
147.6398649783336
 10
916.9392540205303
 20
147.29810603162449
 10
912.8381466600209
 20
147.29810603162449
 10
912.4963877133118
 20
147.6398649783336
 10
908.7370392995117
 20
147.6398649783336
 10
908.3952803528026
 20
147.9816239250427
 10
906.0029677258389
 20
147.9816239250427
 10
905.6612087791298
 20
148.32338287175182
 10
903.6106550988751
 20
148.32338287175182
 10
903.268896152166
 20
148.6651418184609
 10
897.8007530048203
 20
148.6651418184609
 10
897.4589940581112
 20
148.32338287175182
 10
895.0666814311475
 20
148.32338287175182
 10
894.7249224844384
 20
147.9816239250427
 10
890.9655740706382
 20
147.9816239250427
 10
890.623815123929
 20
147.6398649783336
 10
886.5227077634198
 20
147.6398649783336
 10
886.1809488167107
 20
147.29810603162449
 10
872.1688320016374
 20
147.29810603162449
 10
871.8270730549283
 20
147.6398649783336
 10
852.3468130925093
 20
147.6398649783336
 10
852.0050541458002
 20
147.9816239250427
 10
832.183035236672
 20
147.9816239250427
 10
831.8412762899629
 20
147.6398649783336
 10
818.8544363150169
 20
147.6398649783336
 10
818.5126773683078
 20
147.29810603162449
 10
780.235675336888
 20
147.29810603162449
 10
779.8939163901789
 20
146.9563470849154
 10
769.6411479889057
 20
146.9563470849154
 10
769.2993890421966
 20
146.61458813820627
 10
760.0718974810508
 20
146.61458813820627
 10
759.7301385343417
 20
146.27282919149718
 10
745.7180217192683
 20
146.27282919149718
 10
745.3762627725592
 20
145.93107024478806
 10
725.5542438634311
 20
145.93107024478806
 10
725.212484916722
 20
145.58931129807897
 10
723.5036901831764
 20
145.58931129807897
 10
723.1619312364674
 20
145.93107024478806
 10
722.8201722897583
 20
145.58931129807897
 10
696.1629744464481
 20
145.58931129807897
 10
695.821215499739
 20
145.24755235136988
 10
680.7838218445382
 20
145.24755235136988
 10
680.4420628978291
 20
144.90579340466076
 10
655.8354187347736
 20
144.90579340466076
 10
655.4936597880645
 20
144.56403445795166
 10
649.0002398005914
 20
144.56403445795166
 10
648.6584808538823
 20
144.22227551124254
 10
638.7474713993183
 20
144.22227551124254
 10
638.4057124526092
 20
143.88051656453345
 10
638.0639535059
 20
143.88051656453345
 10
637.7221945591909
 20
144.22227551124254
 10
637.0386766657728
 20
144.22227551124254
 10
636.6969177190637
 20
143.88051656453345
 10
629.5199798381724
 20
143.88051656453345
 10
629.1782208914633
 20
143.53875761782433
 10
620.6342472237357
 20
143.53875761782433
 10
620.2924882770266
 20
143.19699867111524
 10
612.4320325027172
 20
143.19699867111524
 10
612.090273556008
 20
142.85523972440612
 10
601.1539872613167
 20
142.85523972440612
 10
600.8122283146075
 20
142.51348077769703
 10
593.2935314870073
 20
142.51348077769703
 10
592.9517725402982
 20
142.1717218309879
 10
586.116593606116
 20
142.1717218309879
 10
585.7748346594069
 20
141.8299628842788
 10
577.5726199383884
 20
141.8299628842788
 10
577.2308609916793
 20
141.4882039375697
 10
569.712164164079
 20
141.4882039375697
 10
569.3704052173698
 20
141.1464449908606
 10
553.3077347220419
 20
141.1464449908606
 10
552.9659757753328
 20
140.80468604415148
 10
548.8648684148235
 20
140.80468604415148
 10
548.5231094681144
 20
141.1464449908606
 10
547.4978326279871
 20
141.1464449908606
 10
547.156073681278
 20
140.80468604415148
 10
529.3846084524046
 20
140.80468604415148
 10
529.0428495056954
 20
140.4629270974424
 10
528.7010905589863
 20
140.4629270974424
 10
528.3593316122772
 20
140.80468604415148
 10
527.675813718859
 20
140.80468604415148
 10
527.3340547721499
 20
140.4629270974424
 10
515.3724916373312
 20
140.4629270974424
 10
515.0307326906221
 20
140.12116815073327
 10
502.04389271567607
 20
140.12116815073327
 10
501.702133768967
 20
139.77940920402418
 10
486.6647401137663
 20
139.77940920402418
 10
486.3229811670572
 20
139.43765025731506
 10
481.88011485983884
 20
139.43765025731506
 10
481.53835591312975
 20
139.09589131060596
 10
471.6273464585657
 20
139.09589131060596
 10
471.2855875118566
 20
139.43765025731506
 10
464.79216752438356
 20
139.43765025731506
 10
464.45040857767447
 20
139.09589131060596
 10
460.0075422704561
 20
139.09589131060596
 10
459.66578332374695
 20
138.75413236389684
 10
456.93171175007416
 20
138.75413236389684
 10
456.589952803365
 20
138.41237341718775
 10
452.48884544285573
 20
138.41237341718775
 10
452.14708649614664
 20
138.07061447047866
 10
446.33718440209185
 20
138.07061447047866
 10
445.99542545538276
 20
137.72885552376954
 10
439.8437644146189
 20
137.72885552376954
 10
439.5020054679097
 20
137.38709657706045
 10
436.0844160008187
 20
137.38709657706045
 10
435.7426570541096
 20
137.04533763035133
 10
429.24923706663657
 20
137.04533763035133
 10
428.9074781199275
 20
136.70357868364223
 10
416.9459149851088
 20
136.70357868364223
 10
416.60415603839965
 20
136.3618197369331
 10
408.06018237067207
 20
136.3618197369331
 10
407.7184234239629
 20
136.02006079022402
 10
403.27555711674455
 20
136.02006079022402
 10
402.93379817003546
 20
135.6783018435149
 10
398.4909318628171
 20
135.6783018435149
 10
398.149172916108
 20
135.3365428968058
 10
393.0227887154714
 20
135.3365428968058
 10
392.6810297687623
 20
134.9947839500967
 10
388.579922408253
 20
134.9947839500967
 10
388.23816346154393
 20
134.6530250033876
 10
384.82057399445284
 20
134.6530250033876
 10
384.47881504774375
 20
134.31126605667848
 10
380.3777076872345
 20
134.31126605667848
 10
380.0359487405254
 20
133.96950710996938
 10
372.5172519129251
 20
133.96950710996938
 10
372.1754929662159
 20
133.62774816326026
 10
369.44142139254313
 20
133.62774816326026
 10
369.099662445834
 20
133.28598921655117
 10
364.3150371919065
 20
133.28598921655117
 10
363.97327824519743
 20
132.94423026984205
 10
359.53041193797907
 20
132.94423026984205
 10
359.1886529912699
 20
132.60247132313296
 10
354.74578668405155
 20
132.60247132313296
 10
354.40402773734246
 20
132.26071237642384
 10
350.3029203768332
 20
132.26071237642384
 10
349.9611614301241
 20
131.91895342971475
 10
346.54357196303306
 20
131.91895342971475
 10
346.2018130163239
 20
131.57719448300563
 10
343.8095003893602
 20
131.57719448300563
 10
343.46774144265106
 20
131.23543553629654
 10
341.07542881568736
 20
131.23543553629654
 10
340.73366986897827
 20
130.89367658958744
 10
338.3413572420145
 20
130.89367658958744
 10
337.9995982953054
 20
130.55191764287832
 10
334.5820088282143
 20
130.55191764287832
 10
334.24024988150524
 20
130.21015869616923
 10
330.48090146770505
 20
130.21015869616923
 10
330.13914252099596
 20
129.8683997494601
 10
327.063312000614
 20
129.8683997494601
 10
326.7215530539049
 20
129.52664080275102
 10
324.67099937365026
 20
129.52664080275102
 10
324.32924042694117
 20
129.1848818560419
 10
321.5951688532683
 20
129.1848818560419
 10
321.2534099065592
 20
128.8431229093328
 10
318.5193383328864
 20
128.8431229093328
 10
318.1775793861773
 20
128.50136396262369
 10
314.7599899190862
 20
128.50136396262369
 10
314.4182309723771
 20
128.1596050159146
 10
312.0259183454134
 20
128.1596050159146
 10
311.68415939870425
 20
127.81784606920547
 10
308.6083288783223
 20
127.81784606920547
 10
308.2665699316132
 20
127.47608712249638
 10
305.1907394112313
 20
127.47608712249638
 10
304.8489804645222
 20
127.13432817578727
 10
301.4313909974311
 20
127.13432817578727
 10
301.089632050722
 20
126.79256922907817
 10
298.01380153034006
 20
126.79256922907817
 10
297.67204258363097
 20
126.45081028236906
 10
293.9126941698308
 20
126.45081028236906
 10
293.5709352231217
 20
126.10905133565996
 10
290.83686364944884
 20
126.10905133565996
 10
290.49510470273975
 20
125.76729238895085
 10
288.4445510224851
 20
125.76729238895085
 10
288.102792075776
 20
125.42553344224174
 10
285.02696155539405
 20
125.42553344224174
 10
284.6852026086849
 20
125.08377449553264
 10
281.9511310350121
 20
125.08377449553264
 10
281.60937208830296
 20
124.74201554882353
 10
279.21705946133926
 20
124.74201554882353
 10
278.8753005146301
 20
124.40025660211442
 10
276.4829878876664
 20
124.40025660211442
 10
276.1412289409573
 20
124.05849765540532
 10
272.38188052715714
 20
124.05849765540532
 10
272.04012158044804
 20
123.71673870869621
 10
269.3060500067752
 20
123.71673870869621
 10
268.9642910600661
 20
123.3749797619871
 10
265.546701592975
 20
123.3749797619871
 10
265.2049426462659
 20
123.033220815278
 10
262.81263001930216
 20
123.033220815278
 10
262.47087107259307
 20
122.6914618685689
 10
260.0785584456293
 20
122.6914618685689
 10
259.7367994989202
 20
122.34970292185979
 10
257.34448687195646
 20
122.34970292185979
 10
257.00272792524737
 20
122.00794397515068
 10
253.92689740486543
 20
122.00794397515068
 10
253.58513845815634
 20
121.66618502844157
 10
251.19282583119258
 20
121.66618502844157
 10
250.8510668844835
 20
121.32442608173247
 10
247.43347741739242
 20
121.32442608173247
 10
247.09171847068333
 20
120.98266713502336
 10
245.0411647904287
 20
120.98266713502336
 10
244.69940584371957
 20
120.64090818831426
 10
242.30709321675585
 20
120.64090818831426
 10
241.96533427004672
 20
120.29914924160516
 10
239.573021643083
 20
120.29914924160516
 10
239.2312626963739
 20
119.95739029489606
 10
236.15543217599193
 20
119.95739029489606
 10
235.81367322928284
 20
119.61563134818695
 10
233.07960165561
 20
119.61563134818695
 10
232.7378427089009
 20
119.27387240147785
 10
230.34553008193714
 20
119.27387240147785
 10
230.00377113522805
 20
118.93211345476874
 10
226.586181668137
 20
118.93211345476874
 10
226.24442272142787
 20
118.59035450805963
 10
222.82683325433683
 20
118.59035450805963
 10
222.4850743076277
 20
118.24859556135053
 10
220.7762795740822
 20
118.24859556135053
 10
220.43452062737308
 20
117.90683661464142
 10
218.38396694711847
 20
117.90683661464142
 10
218.04220800040935
 20
117.56507766793231
 10
215.64989537344562
 20
117.56507766793231
 10
215.3081364267365
 20
117.22331872122321
 10
212.57406485306365
 20
117.22331872122321
 10
212.23230590635455
 20
116.8815597745141
 10
210.18175222609992
 20
116.8815597745141
 10
209.83999327939082
 20
116.539800827805
 10
207.44768065242707
 20
116.539800827805
 10
207.10592170571798
 20
116.19804188109589
 10
205.39712697217243
 20
116.19804188109589
 10
205.05536802546334
 20
115.85628293438678
 10
203.0048143452087
 20
115.85628293438678
 10
202.6630553984996
 20
115.51452398767768
 10
200.61250171824497
 20
115.51452398767768
 10
200.27074277153585
 20
115.17276504096857
 10
196.8531533044448
 20
115.17276504096857
 10
196.5113943577357
 20
114.83100609425946
 10
194.80259962419018
 20
114.83100609425946
 10
194.46084067748106
 20
114.48924714755036
 10
192.75204594393554
 20
114.48924714755036
 10
192.41028699722642
 20
114.14748820084125
 10
191.04325121039
 20
114.14748820084125
 10
190.7014922636809
 20
113.80572925413215
 10
187.62566174329896
 20
113.80572925413215
 10
187.28390279658984
 20
113.46397030742304
 10
184.549831222917
 20
113.46397030742304
 10
184.2080722762079
 20
113.12221136071393
 10
182.49927754266236
 20
113.12221136071393
 10
182.15751859595326
 20
112.78045241400484
 10
180.79048280911684
 20
112.78045241400484
 10
180.44872386240775
 20
112.43869346729574
 10
178.056411235444
 20
112.43869346729574
 10
177.7146522887349
 20
112.09693452058663
 10
176.34761650189847
 20
112.09693452058663
 10
176.00585755518935
 20
111.75517557387752
 10
174.63882176835295
 20
111.75517557387752
 10
174.29706282164383
 20
111.41341662716842
 10
172.9300270348074
 20
111.41341662716842
 10
172.58826808809832
 20
111.07165768045931
 10
170.53771440784368
 20
111.07165768045931
 10
170.19595546113456
 20
110.7298987337502
 10
167.80364283417083
 20
110.7298987337502
 10
167.46188388746174
 20
110.3881397870411
 10
165.06957126049798
 20
110.3881397870411
 10
164.7278123137889
 20
110.04638084033199
 10
163.01901758024334
 20
110.04638084033199
 10
162.67725863353425
 20
109.70462189362289
 10
161.31022284669783
 20
109.70462189362289
 10
160.9684638999887
 20
109.36286294691378
 10
159.2596691664432
 20
109.36286294691378
 10
158.9179102197341
 20
109.02110400020467
 10
156.86735653947946
 20
109.02110400020467
 10
156.52559759277034
 20
108.67934505349557
 10
155.50032075264303
 20
108.67934505349557
 10
155.1585618059339
 20
108.33758610678646
 10
153.7915260190975
 20
108.33758610678646
 10
153.4497670723884
 20
107.99582716007735
 10
152.08273128555197
 20
107.99582716007735
 10
151.74097233884288
 20
107.65406821336825
 10
149.69041865858824
 20
107.65406821336825
 10
149.34865971187912
 20
107.31230926665914
 10
147.29810603162449
 20
107.31230926665914
 10
146.9563470849154
 20
106.97055031995004
 10
145.58931129807897
 20
106.97055031995004
 10
145.24755235136988
 20
106.62879137324093
 10
144.56403445795166
 20
106.62879137324093
 10
144.22227551124254
 20
106.28703242653182
 10
143.19699867111524
 20
106.28703242653182
 10
142.85523972440612
 20
105.94527347982272
 10
141.4882039375697
 20
105.94527347982272
 10
141.1464449908606
 20
105.60351453311362
 10
139.09589131060596
 20
105.60351453311362
 10
138.75413236389684
 20
105.26175558640452
 10
136.70357868364223
 20
105.26175558640452
 10
136.3618197369331
 20
104.91999663969541
 10
135.3365428968058
 20
104.91999663969541
 10
134.9947839500967
 20
104.5782376929863
 10
133.62774816326026
 20
104.5782376929863
 10
133.28598921655117
 20
104.2364787462772
 10
131.57719448300563
 20
104.2364787462772
 10
131.23543553629654
 20
103.8947197995681
 10
129.8683997494601
 20
103.8947197995681
 10
129.52664080275102
 20
103.55296085285899
 10
128.1596050159146
 20
103.55296085285899
 10
127.81784606920547
 20
103.21120190614988
 10
126.10905133565996
 20
103.21120190614988
 10
125.76729238895085
 20
102.86944295944078
 10
124.05849765540532
 20
102.86944295944078
 10
123.71673870869621
 20
102.52768401273167
 10
121.32442608173247
 20
102.52768401273167
 10
120.98266713502336
 20
102.18592506602256
 10
119.95739029489606
 20
102.18592506602256
 10
119.61563134818695
 20
101.84416611931346
 10
117.90683661464142
 20
101.84416611931346
 10
117.56507766793231
 20
101.50240717260435
 10
115.85628293438678
 20
101.50240717260435
 10
115.51452398767768
 20
101.16064822589524
 10
112.78045241400484
 20
101.16064822589524
 10
112.43869346729574
 20
100.81888927918614
 10
109.36286294691378
 20
100.81888927918614
 10
109.02110400020467
 20
100.47713033247703
 10
105.94527347982272
 20
100.47713033247703
 10
105.60351453311362
 20
100.13537138576793
 10
103.21120190614988
 20
100.13537138576793
 10
102.86944295944078
 20
99.79361243905882
 10
100.13537138576793
 20
99.79361243905882
 10
99.79361243905882
 20
99.45185349234971
 10
97.05954086538598
 20
99.45185349234971
 10
96.71778191867688
 20
99.1100945456406
 10
95.00898718513135
 20
99.1100945456406
 10
94.66722823842224
 20
98.7683355989315
 10
91.59139771804028
 20
98.7683355989315
 10
91.24963877133118
 20
98.4265766522224
 10
89.54084403778566
 20
98.4265766522224
 10
89.19908509107655
 20
98.0848177055133
 10
87.83204930424013
 20
98.0848177055133
 10
87.49029035753102
 20
97.7430587588042
 10
85.09797773056728
 20
97.7430587588042
 10
84.75621878385817
 20
97.40129981209509
 10
82.70566510360355
 20
97.40129981209509
 10
82.36390615689444
 20
97.05954086538598
 10
80.65511142334891
 20
97.05954086538598
 10
80.3133524766398
 20
96.71778191867688
 10
77.23752195625785
 20
96.71778191867688
 10
76.89576300954874
 20
96.37602297196777
 10
75.52872722271233
 20
96.37602297196777
 10
75.18696827600323
 20
96.03426402525866
 10
73.8199324891668
 20
96.03426402525866
 10
73.4781735424577
 20
95.69250507854956
 10
71.08586091549395
 20
95.69250507854956
 10
70.74410196878485
 20
95.35074613184045
 10
70.06058407536663
 20
95.35074613184045
 10
69.71882512865753
 20
95.69250507854956
 10
68.35178934182112
 20
95.69250507854956
 10
68.01003039511201
 20
95.35074613184045
 10
67.6682714484029
 20
95.35074613184045
 10
67.3265125016938
 20
95.00898718513135
 10
66.64299460827559
 20
95.00898718513135
 10
66.30123566156648
 20
94.66722823842224
 10
65.27595882143916
 20
94.66722823842224
 10
64.93419987473006
 20
94.32546929171313
 10
62.54188724776632
 20
94.32546929171313
 10
62.20012830105721
 20
93.98371034500403
 10
59.12429778067526
 20
93.98371034500403
 10
58.78253883396616
 20
93.64195139829492
 10
56.39022620700242
 20
93.64195139829492
 10
56.048467260293314
 20
93.30019245158581
 10
54.33967252674778
 20
93.30019245158581
 10
53.99791358003868
 20
92.95843350487671
 10
52.28911884649315
 20
92.95843350487671
 10
51.94735989978405
 20
92.6166745581676
 10
48.188011485983886
 20
92.6166745581676
 10
47.84625253927478
 20
92.2749156114585
 10
46.82097569914746
 20
92.2749156114585
 10
46.479216752438354
 20
91.93315666474939
 10
41.69459149851088
 20
91.93315666474939
 10
41.352832551801775
 20
91.59139771804028
 10
40.32755571167446
 20
91.59139771804028
 10
39.98579676496535
 20
91.24963877133118
 10
38.618760978128925
 20
91.24963877133118
 10
38.277002031419826
 20
90.90787982462209
 10
34.517653617619665
 20
90.90787982462209
 10
34.17589467091056
 20
90.56612087791298
 10
33.15061783078324
 20
90.56612087791298
 10
32.808858884074134
 20
90.22436193120387
 10
31.441823097237712
 20
90.22436193120387
 10
31.100064150528606
 20
89.88260298449477
 10
29.39126941698308
 20
89.88260298449477
 10
29.049510470273972
 20
89.54084403778566
 10
26.657197843310232
 20
89.54084403778566
 10
26.31543889660113
 20
89.19908509107655
 10
24.948403109764705
 20
89.19908509107655
 10
24.6066441630556
 20
88.85732614436745
 10
23.92312626963739
 20
88.85732614436745
 10
23.581367322928283
 20
88.51556719765834
 10
21.872572589382756
 20
88.51556719765834
 10
21.53081364267365
 20
88.17380825094924
 10
19.822018909128122
 20
88.17380825094924
 10
19.480259962419016
 20
87.83204930424013
 10
17.77146522887349
 20
87.83204930424013
 10
17.429706282164382
 20
87.49029035753102
 10
16.06267049532796
 20
87.49029035753102
 10
15.720911548618856
 20
87.14853141082192
 10
14.69563470849154
 20
87.14853141082192
 10
14.353875761782433
 20
86.80677246411281
 10
13.670357868364222
 20
86.80677246411281
 10
13.328598921655116
 20
86.4650135174037
 10
9.911009454564061
 20
86.4650135174037
 10
9.569250507854957
 20
86.1232545706946
 10
4.784625253927478
 20
86.1232545706946
 10
4.442866307218372
 20
85.78149562398549
 10
3.07583052038195
 20
85.78149562398549
 10
2.7340715736728445
 20
85.43973667727639
 10
1.3670357868364222
 20
85.43973667727639
 10
1.0252768401273167
 20
85.09797773056728
 10
0.6835178934182111
 20
85.09797773056728
  0
ENDSEC
  0
SECTION
  2
OBJECTS
  0
DICTIONARY
  5
A
330
0
100
AcDbDictionary
281
1
  3
ACAD_COLOR
350
B
  3
ACAD_GROUP
350
C
  3
ACAD_LAYOUT
350
D
  3
ACAD_MATERIAL
350
E
  3
ACAD_MLEADERSTYLE
350
F
  3
ACAD_MLINESTYLE
350
10
  3
ACAD_PLOTSETTINGS
350
11
  3
ACAD_PLOTSTYLENAME
350
12
  3
ACAD_SCALELIST
350
14
  3
ACAD_TABLESTYLE
350
15
  3
ACAD_VISUALSTYLE
350
16
  3
EZDXF_META
350
2D
  0
DICTIONARY
  5
B
330
A
100
AcDbDictionary
281
1
  0
DICTIONARY
  5
C
330
A
100
AcDbDictionary
281
1
  0
DICTIONARY
  5
D
330
A
100
AcDbDictionary
281
1
  3
Model
350
1A
  3
Layout1
350
1E
  0
DICTIONARY
  5
E
330
A
100
AcDbDictionary
281
1
  3
ByBlock
350
1F
  3
ByLayer
350
20
  3
Global
350
21
  0
DICTIONARY
  5
F
330
A
100
AcDbDictionary
281
1
  3
Standard
350
2C
  0
DICTIONARY
  5
10
330
A
100
AcDbDictionary
281
1
  3
Standard
350
22
  0
DICTIONARY
  5
11
330
A
100
AcDbDictionary
281
1
  0
ACDBDICTIONARYWDFLT
  5
12
330
A
100
AcDbDictionary
281
1
  3
Normal
350
13
100
AcDbDictionaryWithDefault
340
13
  0
ACDBPLACEHOLDER
  5
13
330
12
  0
DICTIONARY
  5
14
330
A
100
AcDbDictionary
281
1
  0
DICTIONARY
  5
15
330
A
100
AcDbDictionary
281
1
  0
DICTIONARY
  5
16
330
A
100
AcDbDictionary
281
1
  3
2dWireframe
350
5A
  3
Basic
350
5B
  3
Brighten
350
5C
  3
ColorChange
350
5D
  3
Conceptual
350
5E
  3
Dim
350
5F
  3
EdgeColorOff
350
60
  3
Facepattern
350
61
  3
Flat
350
62
  3
FlatWithEdges
350
63
  3
Gouraud
350
64
  3
GouraudWithEdges
350
65
  3
Hidden
350
66
  3
JitterOff
350
67
  3
Linepattern
350
68
  3
Modeling
350
69
  3
OverhangOff
350
6A
  3
Realistic
350
6B
  3
Shaded
350
6C
  3
Shaded with edges
350
6D
  3
Shades of Gray
350
6E
  3
Sketchy
350
6F
  3
Thicken
350
70
  3
Wireframe
350
71
  3
X-Ray
350
72
  0
LAYOUT
  5
1A
330
D
100
AcDbPlotSettings
  1

  4
A3
  6

 40
7.5
 41
20.0
 42
7.5
 43
20.0
 44
420.0
 45
297.0
 46
0.0
 47
0.0
 48
0.0
 49
0.0
140
0.0
141
0.0
142
1.0
143
1.0
 70
1024
 72
1
 73
0
 74
5
  7

 75
16
 76
0
 77
2
 78
300
147
1.0
148
0.0
149
0.0
100
AcDbLayout
  1
Model
 70
1
 71
0
 10
0.0
 20
0.0
 11
420.0
 21
297.0
 12
0.0
 22
0.0
 32
0.0
 14
1e+20
 24
1e+20
 34
1e+20
 15
-1e+20
 25
-1e+20
 35
-1e+20
146
0.0
 13
0.0
 23
0.0
 33
0.0
 16
1.0
 26
0.0
 36
0.0
 17
0.0
 27
1.0
 37
0.0
 76
1
330
17
  0
LAYOUT
  5
1E
330
D
100
AcDbPlotSettings
  1

  4
A3
  6

 40
7.5
 41
20.0
 42
7.5
 43
20.0
 44
420.0
 45
297.0
 46
0.0
 47
0.0
 48
0.0
 49
0.0
140
0.0
141
0.0
142
1.0
143
1.0
 70
0
 72
1
 73
0
 74
5
  7

 75
16
 76
0
 77
2
 78
300
147
1.0
148
0.0
149
0.0
100
AcDbLayout
  1
Layout1
 70
1
 71
1
 10
0.0
 20
0.0
 11
420.0
 21
297.0
 12
0.0
 22
0.0
 32
0.0
 14
1e+20
 24
1e+20
 34
1e+20
 15
-1e+20
 25
-1e+20
 35
-1e+20
146
0.0
 13
0.0
 23
0.0
 33
0.0
 16
1.0
 26
0.0
 36
0.0
 17
0.0
 27
1.0
 37
0.0
 76
1
330
1B
  0
MATERIAL
  5
1F
102
{ACAD_REACTORS
330
E
102
}
330
E
100
AcDbMaterial
  1
ByBlock
  2

 70
0
 40
1.0
 71
1
 41
1.0
 91
-1023410177
 42
1.0
 72
1
  3

 73
1
 74
1
 75
1
 44
0.5
 73
0
 45
1.0
 46
1.0
 77
1
  4

 78
1
 79
1
170
1
 48
1.0
171
1
  6

172
1
173
1
174
1
140
1.0
141
1.0
175
1
  7

176
1
177
1
178
1
143
1.0
179
1
  8

270
1
271
1
272
1
145
1.0
146
1.0
273
1
  9

274
1
275
1
276
1
 42
1.0
 72
1
  3

 73
1
 74
1
 75
1
 94
63
  0
MATERIAL
  5
20
102
{ACAD_REACTORS
330
E
102
}
330
E
100
AcDbMaterial
  1
ByLayer
  2

 70
0
 40
1.0
 71
1
 41
1.0
 91
-1023410177
 42
1.0
 72
1
  3

 73
1
 74
1
 75
1
 44
0.5
 73
0
 45
1.0
 46
1.0
 77
1
  4

 78
1
 79
1
170
1
 48
1.0
171
1
  6

172
1
173
1
174
1
140
1.0
141
1.0
175
1
  7

176
1
177
1
178
1
143
1.0
179
1
  8

270
1
271
1
272
1
145
1.0
146
1.0
273
1
  9

274
1
275
1
276
1
 42
1.0
 72
1
  3

 73
1
 74
1
 75
1
 94
63
  0
MATERIAL
  5
21
102
{ACAD_REACTORS
330
E
102
}
330
E
100
AcDbMaterial
  1
Global
  2

 70
0
 40
1.0
 71
1
 41
1.0
 91
-1023410177
 42
1.0
 72
1
  3

 73
1
 74
1
 75
1
 44
0.5
 73
0
 45
1.0
 46
1.0
 77
1
  4

 78
1
 79
1
170
1
 48
1.0
171
1
  6

172
1
173
1
174
1
140
1.0
141
1.0
175
1
  7

176
1
177
1
178
1
143
1.0
179
1
  8

270
1
271
1
272
1
145
1.0
146
1.0
273
1
  9

274
1
275
1
276
1
 42
1.0
 72
1
  3

 73
1
 74
1
 75
1
 94
63
  0
MLINESTYLE
  5
22
102
{ACAD_REACTORS
330
10
102
}
330
10
100
AcDbMlineStyle
  2
Standard
 70
0
  3

 62
256
 51
90.0
 52
90.0
 71
2
 49
0.5
 62
256
  6
BYLAYER
 49
-0.5
 62
256
  6
BYLAYER
  0
MLEADERSTYLE
  5
2C
102
{ACAD_REACTORS
330
F
102
}
330
F
100
AcDbMLeaderStyle
179
2
170
2
171
1
172
0
 90
2
 40
0.0
 41
0.0
173
1
 91
-1056964608
 92
-2
290
1
 42
2.0
291
1
 43
8.0
  3
Standard
 44
4.0
300

342
29
174
1
175
1
176
0
178
1
 93
-1056964608
 45
4.0
292
0
297
0
 46
4.0
 94
-1056964608
 47
1.0
 49
1.0
140
1.0
294
1
141
0.0
177
0
142
1.0
295
0
296
0
143
3.75
271
0
272
9
273
9
  0
DICTIONARY
  5
2D
330
A
100
AcDbDictionary
280
1
281
1
  3
CREATED_BY_EZDXF
350
2E
  3
WRITTEN_BY_EZDXF
350
8E
  0
DICTIONARYVAR
  5
2E
330
2D
100
DictionaryVariables
280
0
  1
1.4.2 @ 2025-06-04T15:39:24.021541+00:00
  0
VISUALSTYLE
  5
5A
102
{ACAD_REACTORS
330
16
102
}
330
16
100
AcDbVisualStyle
  2
2dWireframe
 70
4
177
3
291
0
 70
58
 90
2
176
1
 90
2
176
1
 90
0
176
1
 90
0
176
1
 40
0.6
176
1
 40
30.0
176
1
 62
7
420
16777215
176
1
 90
1
176
1
 90
4
176
1
 62
7
176
1
 62
257
176
1
 90
1
176
1
 90
1
176
1
 40
1.0
176
1
 90
8
176
1
 62
7
176
1
 40
1.0
176
1
 90
1
176
1
 90
6
176
1
 90
2
176
1
 62
7
176
1
 90
5
176
1
 90
0
176
1
 90
0
176
1
290
0
176
1
 90
1
176
1
 40
0.0
176
1
 90
0
176
1
290
1
176
1
290
1
176
1
290
0
176
1
290
0
176
1
290
0
176
1
290
0
176
1
290
0
176
1
290
0
176
1
290
0
176
1
 90
50
176
1
 40
0.0
176
1
 40
1.0
176
1
 90
0
176
1
 62
18
420
0
176
1
 90
50
176
1
 90
3
176
1
 62
5
420
255
176
1
290
0
176
1
 90
50
176
1
 90
50
176
1
 90
50
176
1
290
0
176
1
 90
50
176
1
 62
256
176
0
 40
1.0
176
0
 90
2
176
1
  1
strokes_ogs.tif
176
1
290
0
176
1
 40
1.0
176
1
 40
1.0
176
1
  0
VISUALSTYLE
  5
5B
102
{ACAD_REACTORS
330
16
102
}
330
16
100
AcDbVisualStyle
  2
Basic
 70
7
177
3
291
1
 70
58
 90
2
176
1
 90
2
176
1
 90
0
176
1
 90
1
176
1
 40
0.6
176
1
 40
30.0
176
1
 62
7
420
16777215
176
1
 90
1
176
1
 90
4
176
1
 62
7
176
1
 62
257
176
1
 90
1
176
1
 90
1
176
1
 40
1.0
176
1
 90
8
176
1
 62
7
176
1
 40
1.0
176
1
 90
1
176
1
 90
6
176
1
 90
2
176
1
 62
7
176
1
 90
5
176
1
 90
0
176
1
 90
0
176
1
290
0
176
1
 90
1
176
1
 40
0.0
176
1
 90
0
176
1
290
0
176
1
290
1
176
1
290
1
176
1
290
0
176
1
290
0
176
1
290
0
176
1
290
0
176
1
290
0
176
1
290
0
176
1
 90
50
176
1
 40
0.0
176
1
 40
1.0
176
1
 90
0
176
1
 62
18
420
0
176
1
 90
50
176
1
 90
3
176
1
 62
5
420
255
176
1
290
0
176
1
 90
50
176
1
 90
50
176
1
 90
50
176
1
290
0
176
1
 90
50
176
1
 62
256
176
0
 40
1.0
176
0
 90
2
176
1
  1
strokes_ogs.tif
176
1
290
0
176
1
 40
1.0
176
1
 40
1.0
176
1
  0
VISUALSTYLE
  5
5C
102
{ACAD_REACTORS
330
16
102
}
330
16
100
AcDbVisualStyle
  2
Brighten
 70
12
177
3
291
1
 70
58
 90
2
176
1
 90
2
176
1
 90
0
176
1
 90
2
176
1
 40
0.6
176
1
 40
30.0
176
1
 62
7
420
16777215
176
1
 90
1
176
1
 90
4
176
1
 62
7
176
1
 62
257
176
1
 90
1
176
1
 90
1
176
1
 40
1.0
176
1
 90
8
176
1
 62
7
176
1
 40
1.0
176
1
 90
1
176
1
 90
6
176
1
 90
2
176
1
 62
7
176
1
 90
5
176
1
 90
0
176
1
 90
0
176
1
290
0
176
1
 90
1
176
1
 40
0.0
176
1
 90
0
176
1
290
0
176
1
290
1
176
1
290
1
176
1
290
0
176
1
290
0
176
1
290
0
176
1
290
0
176
1
290
0
176
1
290
0
176
1
 90
50
176
1
 40
0.0
176
1
 40
1.0
176
1
 90
0
176
1
 62
18
420
0
176
1
 90
50
176
1
 90
3
176
1
 62
5
420
255
176
1
290
0
176
1
 90
50
176
1
 90
50
176
1
 90
50
176
1
290
0
176
1
 90
50
176
1
 62
256
176
0
 40
1.0
176
0
 90
2
176
1
  1
strokes_ogs.tif
176
1
290
0
176
1
 40
1.0
176
1
 40
1.0
176
1
  0
VISUALSTYLE
  5
5D
102
{ACAD_REACTORS
330
16
102
}
330
16
100
AcDbVisualStyle
  2
ColorChange
 70
16
177
3
291
1
 70
58
 90
2
176
1
 90
2
176
1
 90
0
176
1
 90
2
176
1
 40
0.6
176
1
 40
30.0
176
1
 62
7
420
16777215
176
1
 90
1
176
1
 90
4
176
1
 62
7
176
1
 62
257
176
1
 90
1
176
1
 90
1
176
1
 40
1.0
176
1
 90
8
176
1
 62
7
176
1
 40
1.0
176
1
 90
1
176
1
 90
6
176
1
 90
2
176
1
 62
7
176
1
 90
5
176
1
 90
0
176
1
 90
0
176
1
290
0
176
1
 90
1
176
1
 40
0.0
176
1
 90
0
176
1
290
0
176
1
290
1
176
1
290
1
176
1
290
0
176
1
290
0
176
1
290
0
176
1
290
0
176
1
290
0
176
1
290
0
176
1
 90
50
176
1
 40
0.0
176
1
 40
1.0
176
1
 90
0
176
1
 62
18
420
0
176
1
 90
50
176
1
 90
3
176
1
 62
5
420
255
176
1
290
0
176
1
 90
50
176
1
 90
50
176
1
 90
50
176
1
290
0
176
1
 90
50
176
1
 62
256
176
0
 40
1.0
176
0
 90
2
176
1
  1
strokes_ogs.tif
176
1
290
0
176
1
 40
1.0
176
1
 40
1.0
176
1
  0
VISUALSTYLE
  5
5E
102
{ACAD_REACTORS
330
16
102
}
330
16
100
AcDbVisualStyle
  2
Conceptual
 70
9
177
3
291
0
 70
58
 90
2
176
1
 90
2
176
1
 90
0
176
1
 90
3
176
1
 40
0.6
176
1
 40
30.0
176
1
 62
7
420
16777215
176
1
 90
1
176
1
 90
4
176
1
 62
7
176
1
 62
257
176
1
 90
1
176
1
 90
1
176
1
 40
1.0
176
1
 90
8
176
1
 62
7
176
1
 40
1.0
176
1
 90
1
176
1
 90
6
176
1
 90
2
176
1
 62
7
176
1
 90
5
176
1
 90
0
176
1
 90
0
176
1
290
0
176
1
 90
1
176
1
 40
0.0
176
1
 90
0
176
1
290
0
176
1
290
1
176
1
290
1
176
1
290
0
176
1
290
0
176
1
290
0
176
1
290
0
176
1
290
0
176
1
290
0
176
1
 90
50
176
1
 40
0.0
176
1
 40
1.0
176
1
 90
0
176
1
 62
18
420
0
176
1
 90
50
176
1
 90
3
176
1
 62
5
420
255
176
1
290
0
176
1
 90
50
176
1
 90
50
176
1
 90
50
176
1
290
0
176
1
 90
50
176
1
 62
256
176
0
 40
1.0
176
0
 90
2
176
1
  1
strokes_ogs.tif
176
1
290
0
176
1
 40
1.0
176
1
 40
1.0
176
1
  0
VISUALSTYLE
  5
5F
102
{ACAD_REACTORS
330
16
102
}
330
16
100
AcDbVisualStyle
  2
Dim
 70
11
177
3
291
1
 70
58
 90
2
176
1
 90
2
176
1
 90
0
176
1
 90
2
176
1
 40
0.6
176
1
 40
30.0
176
1
 62
7
420
16777215
176
1
 90
1
176
1
 90
4
176
1
 62
7
176
1
 62
257
176
1
 90
1
176
1
 90
1
176
1
 40
1.0
176
1
 90
8
176
1
 62
7
176
1
 40
1.0
176
1
 90
1
176
1
 90
6
176
1
 90
2
176
1
 62
7
176
1
 90
5
176
1
 90
0
176
1
 90
0
176
1
290
0
176
1
 90
1
176
1
 40
0.0
176
1
 90
0
176
1
290
0
176
1
290
1
176
1
290
1
176
1
290
0
176
1
290
0
176
1
290
0
176
1
290
0
176
1
290
0
176
1
290
0
176
1
 90
50
176
1
 40
0.0
176
1
 40
1.0
176
1
 90
0
176
1
 62
18
420
0
176
1
 90
50
176
1
 90
3
176
1
 62
5
420
255
176
1
290
0
176
1
 90
50
176
1
 90
50
176
1
 90
50
176
1
290
0
176
1
 90
50
176
1
 62
256
176
0
 40
1.0
176
0
 90
2
176
1
  1
strokes_ogs.tif
176
1
290
0
176
1
 40
1.0
176
1
 40
1.0
176
1
  0
VISUALSTYLE
  5
60
102
{ACAD_REACTORS
330
16
102
}
330
16
100
AcDbVisualStyle
  2
EdgeColorOff
 70
22
177
3
291
1
 70
58
 90
2
176
1
 90
2
176
1
 90
0
176
1
 90
2
176
1
 40
0.6
176
1
 40
30.0
176
1
 62
7
420
16777215
176
1
 90
1
176
1
 90
4
176
1
 62
7
176
1
 62
257
176
1
 90
1
176
1
 90
1
176
1
 40
1.0
176
1
 90
8
176
1
 62
7
176
1
 40
1.0
176
1
 90
1
176
1
 90
6
176
1
 90
2
176
1
 62
7
176
1
 90
5
176
1
 90
0
176
1
 90
0
176
1
290
0
176
1
 90
1
176
1
 40
0.0
176
1
 90
0
176
1
290
0
176
1
290
1
176
1
290
1
176
1
290
0
176
1
290
0
176
1
290
0
176
1
290
0
176
1
290
0
176
1
290
0
176
1
 90
50
176
1
 40
0.0
176
1
 40
1.0
176
1
 90
0
176
1
 62
18
420
0
176
1
 90
50
176
1
 90
3
176
1
 62
5
420
255
176
1
290
0
176
1
 90
50
176
1
 90
50
176
1
 90
50
176
1
290
0
176
1
 90
50
176
1
 62
256
176
0
 40
1.0
176
0
 90
2
176
1
  1
strokes_ogs.tif
176
1
290
0
176
1
 40
1.0
176
1
 40
1.0
176
1
  0
VISUALSTYLE
  5
61
102
{ACAD_REACTORS
330
16
102
}
330
16
100
AcDbVisualStyle
  2
Facepattern
 70
15
177
3
291
1
 70
58
 90
2
176
1
 90
2
176
1
 90
0
176
1
 90
2
176
1
 40
0.6
176
1
 40
30.0
176
1
 62
7
420
16777215
176
1
 90
1
176
1
 90
4
176
1
 62
7
176
1
 62
257
176
1
 90
1
176
1
 90
1
176
1
 40
1.0
176
1
 90
8
176
1
 62
7
176
1
 40
1.0
176
1
 90
1
176
1
 90
6
176
1
 90
2
176
1
 62
7
176
1
 90
5
176
1
 90
0
176
1
 90
0
176
1
290
0
176
1
 90
1
176
1
 40
0.0
176
1
 90
0
176
1
290
0
176
1
290
1
176
1
290
1
176
1
290
0
176
1
290
0
176
1
290
0
176
1
290
0
176
1
290
0
176
1
290
0
176
1
 90
50
176
1
 40
0.0
176
1
 40
1.0
176
1
 90
0
176
1
 62
18
420
0
176
1
 90
50
176
1
 90
3
176
1
 62
5
420
255
176
1
290
0
176
1
 90
50
176
1
 90
50
176
1
 90
50
176
1
290
0
176
1
 90
50
176
1
 62
256
176
0
 40
1.0
176
0
 90
2
176
1
  1
strokes_ogs.tif
176
1
290
0
176
1
 40
1.0
176
1
 40
1.0
176
1
  0
VISUALSTYLE
  5
62
102
{ACAD_REACTORS
330
16
102
}
330
16
100
AcDbVisualStyle
  2
Flat
 70
0
177
3
291
1
 70
58
 90
2
176
1
 90
2
176
1
 90
0
176
1
 90
2
176
1
 40
0.6
176
1
 40
30.0
176
1
 62
7
420
16777215
176
1
 90
1
176
1
 90
4
176
1
 62
7
176
1
 62
257
176
1
 90
1
176
1
 90
1
176
1
 40
1.0
176
1
 90
8
176
1
 62
7
176
1
 40
1.0
176
1
 90
1
176
1
 90
6
176
1
 90
2
176
1
 62
7
176
1
 90
5
176
1
 90
0
176
1
 90
0
176
1
290
0
176
1
 90
1
176
1
 40
0.0
176
1
 90
0
176
1
290
0
176
1
290
1
176
1
290
1
176
1
290
0
176
1
290
0
176
1
290
0
176
1
290
0
176
1
290
0
176
1
290
0
176
1
 90
50
176
1
 40
0.0
176
1
 40
1.0
176
1
 90
0
176
1
 62
18
420
0
176
1
 90
50
176
1
 90
3
176
1
 62
5
420
255
176
1
290
0
176
1
 90
50
176
1
 90
50
176
1
 90
50
176
1
290
0
176
1
 90
50
176
1
 62
256
176
0
 40
1.0
176
0
 90
2
176
1
  1
strokes_ogs.tif
176
1
290
0
176
1
 40
1.0
176
1
 40
1.0
176
1
  0
VISUALSTYLE
  5
63
102
{ACAD_REACTORS
330
16
102
}
330
16
100
AcDbVisualStyle
  2
FlatWithEdges
 70
1
177
3
291
1
 70
58
 90
2
176
1
 90
2
176
1
 90
0
176
1
 90
2
176
1
 40
0.6
176
1
 40
30.0
176
1
 62
7
420
16777215
176
1
 90
1
176
1
 90
4
176
1
 62
7
176
1
 62
257
176
1
 90
1
176
1
 90
1
176
1
 40
1.0
176
1
 90
8
176
1
 62
7
176
1
 40
1.0
176
1
 90
1
176
1
 90
6
176
1
 90
2
176
1
 62
7
176
1
 90
5
176
1
 90
0
176
1
 90
0
176
1
290
0
176
1
 90
1
176
1
 40
0.0
176
1
 90
0
176
1
290
0
176
1
290
1
176
1
290
1
176
1
290
0
176
1
290
0
176
1
290
0
176
1
290
0
176
1
290
0
176
1
290
0
176
1
 90
50
176
1
 40
0.0
176
1
 40
1.0
176
1
 90
0
176
1
 62
18
420
0
176
1
 90
50
176
1
 90
3
176
1
 62
5
420
255
176
1
290
0
176
1
 90
50
176
1
 90
50
176
1
 90
50
176
1
290
0
176
1
 90
50
176
1
 62
256
176
0
 40
1.0
176
0
 90
2
176
1
  1
strokes_ogs.tif
176
1
290
0
176
1
 40
1.0
176
1
 40
1.0
176
1
  0
VISUALSTYLE
  5
64
102
{ACAD_REACTORS
330
16
102
}
330
16
100
AcDbVisualStyle
  2
Gouraud
 70
2
177
3
291
1
 70
58
 90
2
176
1
 90
2
176
1
 90
0
176
1
 90
2
176
1
 40
0.6
176
1
 40
30.0
176
1
 62
7
420
16777215
176
1
 90
1
176
1
 90
4
176
1
 62
7
176
1
 62
257
176
1
 90
1
176
1
 90
1
176
1
 40
1.0
176
1
 90
8
176
1
 62
7
176
1
 40
1.0
176
1
 90
1
176
1
 90
6
176
1
 90
2
176
1
 62
7
176
1
 90
5
176
1
 90
0
176
1
 90
0
176
1
290
0
176
1
 90
1
176
1
 40
0.0
176
1
 90
0
176
1
290
0
176
1
290
1
176
1
290
1
176
1
290
0
176
1
290
0
176
1
290
0
176
1
290
0
176
1
290
0
176
1
290
0
176
1
 90
50
176
1
 40
0.0
176
1
 40
1.0
176
1
 90
0
176
1
 62
18
420
0
176
1
 90
50
176
1
 90
3
176
1
 62
5
420
255
176
1
290
0
176
1
 90
50
176
1
 90
50
176
1
 90
50
176
1
290
0
176
1
 90
50
176
1
 62
256
176
0
 40
1.0
176
0
 90
2
176
1
  1
strokes_ogs.tif
176
1
290
0
176
1
 40
1.0
176
1
 40
1.0
176
1
  0
VISUALSTYLE
  5
65
102
{ACAD_REACTORS
330
16
102
}
330
16
100
AcDbVisualStyle
  2
GouraudWithEdges
 70
3
177
3
291
1
 70
58
 90
2
176
1
 90
2
176
1
 90
0
176
1
 90
2
176
1
 40
0.6
176
1
 40
30.0
176
1
 62
7
420
16777215
176
1
 90
1
176
1
 90
4
176
1
 62
7
176
1
 62
257
176
1
 90
1
176
1
 90
1
176
1
 40
1.0
176
1
 90
8
176
1
 62
7
176
1
 40
1.0
176
1
 90
1
176
1
 90
6
176
1
 90
2
176
1
 62
7
176
1
 90
5
176
1
 90
0
176
1
 90
0
176
1
290
0
176
1
 90
1
176
1
 40
0.0
176
1
 90
0
176
1
290
0
176
1
290
1
176
1
290
1
176
1
290
0
176
1
290
0
176
1
290
0
176
1
290
0
176
1
290
0
176
1
290
0
176
1
 90
50
176
1
 40
0.0
176
1
 40
1.0
176
1
 90
0
176
1
 62
18
420
0
176
1
 90
50
176
1
 90
3
176
1
 62
5
420
255
176
1
290
0
176
1
 90
50
176
1
 90
50
176
1
 90
50
176
1
290
0
176
1
 90
50
176
1
 62
256
176
0
 40
1.0
176
0
 90
2
176
1
  1
strokes_ogs.tif
176
1
290
0
176
1
 40
1.0
176
1
 40
1.0
176
1
  0
VISUALSTYLE
  5
66
102
{ACAD_REACTORS
330
16
102
}
330
16
100
AcDbVisualStyle
  2
Hidden
 70
6
177
3
291
0
 70
58
 90
2
176
1
 90
2
176
1
 90
0
176
1
 90
1
176
1
 40
0.6
176
1
 40
30.0
176
1
 62
7
420
16777215
176
1
 90
1
176
1
 90
4
176
1
 62
7
176
1
 62
257
176
1
 90
1
176
1
 90
1
176
1
 40
1.0
176
1
 90
8
176
1
 62
7
176
1
 40
1.0
176
1
 90
1
176
1
 90
6
176
1
 90
2
176
1
 62
7
176
1
 90
5
176
1
 90
0
176
1
 90
0
176
1
290
0
176
1
 90
1
176
1
 40
0.0
176
1
 90
0
176
1
290
0
176
1
290
1
176
1
290
1
176
1
290
0
176
1
290
0
176
1
290
0
176
1
290
0
176
1
290
0
176
1
290
0
176
1
 90
50
176
1
 40
0.0
176
1
 40
1.0
176
1
 90
0
176
1
 62
18
420
0
176
1
 90
50
176
1
 90
3
176
1
 62
5
420
255
176
1
290
0
176
1
 90
50
176
1
 90
50
176
1
 90
50
176
1
290
0
176
1
 90
50
176
1
 62
256
176
0
 40
1.0
176
0
 90
2
176
1
  1
strokes_ogs.tif
176
1
290
0
176
1
 40
1.0
176
1
 40
1.0
176
1
  0
VISUALSTYLE
  5
67
102
{ACAD_REACTORS
330
16
102
}
330
16
100
AcDbVisualStyle
  2
JitterOff
 70
20
177
3
291
1
 70
58
 90
2
176
1
 90
2
176
1
 90
0
176
1
 90
2
176
1
 40
0.6
176
1
 40
30.0
176
1
 62
7
420
16777215
176
1
 90
1
176
1
 90
4
176
1
 62
7
176
1
 62
257
176
1
 90
1
176
1
 90
1
176
1
 40
1.0
176
1
 90
8
176
1
 62
7
176
1
 40
1.0
176
1
 90
1
176
1
 90
6
176
1
 90
2
176
1
 62
7
176
1
 90
5
176
1
 90
0
176
1
 90
0
176
1
290
0
176
1
 90
1
176
1
 40
0.0
176
1
 90
0
176
1
290
0
176
1
290
1
176
1
290
1
176
1
290
0
176
1
290
0
176
1
290
0
176
1
290
0
176
1
290
0
176
1
290
0
176
1
 90
50
176
1
 40
0.0
176
1
 40
1.0
176
1
 90
0
176
1
 62
18
420
0
176
1
 90
50
176
1
 90
3
176
1
 62
5
420
255
176
1
290
0
176
1
 90
50
176
1
 90
50
176
1
 90
50
176
1
290
0
176
1
 90
50
176
1
 62
256
176
0
 40
1.0
176
0
 90
2
176
1
  1
strokes_ogs.tif
176
1
290
0
176
1
 40
1.0
176
1
 40
1.0
176
1
  0
VISUALSTYLE
  5
68
102
{ACAD_REACTORS
330
16
102
}
330
16
100
AcDbVisualStyle
  2
Linepattern
 70
14
177
3
291
1
 70
58
 90
2
176
1
 90
2
176
1
 90
0
176
1
 90
2
176
1
 40
0.6
176
1
 40
30.0
176
1
 62
7
420
16777215
176
1
 90
1
176
1
 90
4
176
1
 62
7
176
1
 62
257
176
1
 90
1
176
1
 90
1
176
1
 40
1.0
176
1
 90
8
176
1
 62
7
176
1
 40
1.0
176
1
 90
1
176
1
 90
6
176
1
 90
2
176
1
 62
7
176
1
 90
5
176
1
 90
0
176
1
 90
0
176
1
290
0
176
1
 90
1
176
1
 40
0.0
176
1
 90
0
176
1
290
0
176
1
290
1
176
1
290
1
176
1
290
0
176
1
290
0
176
1
290
0
176
1
290
0
176
1
290
0
176
1
290
0
176
1
 90
50
176
1
 40
0.0
176
1
 40
1.0
176
1
 90
0
176
1
 62
18
420
0
176
1
 90
50
176
1
 90
3
176
1
 62
5
420
255
176
1
290
0
176
1
 90
50
176
1
 90
50
176
1
 90
50
176
1
290
0
176
1
 90
50
176
1
 62
256
176
0
 40
1.0
176
0
 90
2
176
1
  1
strokes_ogs.tif
176
1
290
0
176
1
 40
1.0
176
1
 40
1.0
176
1
  0
VISUALSTYLE
  5
69
102
{ACAD_REACTORS
330
16
102
}
330
16
100
AcDbVisualStyle
  2
Modeling
 70
10
177
3
291
0
 70
58
 90
2
176
1
 90
2
176
1
 90
0
176
1
 90
2
176
1
 40
0.6
176
1
 40
30.0
176
1
 62
7
420
16777215
176
1
 90
1
176
1
 90
4
176
1
 62
7
176
1
 62
257
176
1
 90
1
176
1
 90
1
176
1
 40
1.0
176
1
 90
8
176
1
 62
7
176
1
 40
1.0
176
1
 90
1
176
1
 90
6
176
1
 90
2
176
1
 62
7
176
1
 90
5
176
1
 90
0
176
1
 90
0
176
1
290
0
176
1
 90
1
176
1
 40
0.0
176
1
 90
0
176
1
290
0
176
1
290
1
176
1
290
1
176
1
290
0
176
1
290
0
176
1
290
0
176
1
290
0
176
1
290
0
176
1
290
0
176
1
 90
50
176
1
 40
0.0
176
1
 40
1.0
176
1
 90
0
176
1
 62
18
420
0
176
1
 90
50
176
1
 90
3
176
1
 62
5
420
255
176
1
290
0
176
1
 90
50
176
1
 90
50
176
1
 90
50
176
1
290
0
176
1
 90
50
176
1
 62
256
176
0
 40
1.0
176
0
 90
2
176
1
  1
strokes_ogs.tif
176
1
290
0
176
1
 40
1.0
176
1
 40
1.0
176
1
  0
VISUALSTYLE
  5
6A
102
{ACAD_REACTORS
330
16
102
}
330
16
100
AcDbVisualStyle
  2
OverhangOff
 70
21
177
3
291
1
 70
58
 90
2
176
1
 90
2
176
1
 90
0
176
1
 90
2
176
1
 40
0.6
176
1
 40
30.0
176
1
 62
7
420
16777215
176
1
 90
1
176
1
 90
4
176
1
 62
7
176
1
 62
257
176
1
 90
1
176
1
 90
1
176
1
 40
1.0
176
1
 90
8
176
1
 62
7
176
1
 40
1.0
176
1
 90
1
176
1
 90
6
176
1
 90
2
176
1
 62
7
176
1
 90
5
176
1
 90
0
176
1
 90
0
176
1
290
0
176
1
 90
1
176
1
 40
0.0
176
1
 90
0
176
1
290
0
176
1
290
1
176
1
290
1
176
1
290
0
176
1
290
0
176
1
290
0
176
1
290
0
176
1
290
0
176
1
290
0
176
1
 90
50
176
1
 40
0.0
176
1
 40
1.0
176
1
 90
0
176
1
 62
18
420
0
176
1
 90
50
176
1
 90
3
176
1
 62
5
420
255
176
1
290
0
176
1
 90
50
176
1
 90
50
176
1
 90
50
176
1
290
0
176
1
 90
50
176
1
 62
256
176
0
 40
1.0
176
0
 90
2
176
1
  1
strokes_ogs.tif
176
1
290
0
176
1
 40
1.0
176
1
 40
1.0
176
1
  0
VISUALSTYLE
  5
6B
102
{ACAD_REACTORS
330
16
102
}
330
16
100
AcDbVisualStyle
  2
Realistic
 70
8
177
3
291
0
 70
58
 90
2
176
1
 90
2
176
1
 90
0
176
1
 90
2
176
1
 40
0.6
176
1
 40
30.0
176
1
 62
7
420
16777215
176
1
 90
1
176
1
 90
4
176
1
 62
7
176
1
 62
257
176
1
 90
1
176
1
 90
1
176
1
 40
1.0
176
1
 90
8
176
1
 62
7
176
1
 40
1.0
176
1
 90
1
176
1
 90
6
176
1
 90
2
176
1
 62
7
176
1
 90
5
176
1
 90
0
176
1
 90
0
176
1
290
0
176
1
 90
1
176
1
 40
0.0
176
1
 90
0
176
1
290
0
176
1
290
1
176
1
290
1
176
1
290
0
176
1
290
0
176
1
290
0
176
1
290
0
176
1
290
0
176
1
290
0
176
1
 90
50
176
1
 40
0.0
176
1
 40
1.0
176
1
 90
0
176
1
 62
18
420
0
176
1
 90
50
176
1
 90
3
176
1
 62
5
420
255
176
1
290
0
176
1
 90
50
176
1
 90
50
176
1
 90
50
176
1
290
0
176
1
 90
50
176
1
 62
256
176
0
 40
1.0
176
0
 90
2
176
1
  1
strokes_ogs.tif
176
1
290
0
176
1
 40
1.0
176
1
 40
1.0
176
1
  0
VISUALSTYLE
  5
6C
102
{ACAD_REACTORS
330
16
102
}
330
16
100
AcDbVisualStyle
  2
Shaded
 70
27
177
3
291
0
 70
58
 90
2
176
1
 90
2
176
1
 90
0
176
1
 90
2
176
1
 40
0.6
176
1
 40
30.0
176
1
 62
7
420
16777215
176
1
 90
1
176
1
 90
4
176
1
 62
7
176
1
 62
257
176
1
 90
1
176
1
 90
1
176
1
 40
1.0
176
1
 90
8
176
1
 62
7
176
1
 40
1.0
176
1
 90
1
176
1
 90
6
176
1
 90
2
176
1
 62
7
176
1
 90
5
176
1
 90
0
176
1
 90
0
176
1
290
0
176
1
 90
1
176
1
 40
0.0
176
1
 90
0
176
1
290
0
176
1
290
1
176
1
290
1
176
1
290
0
176
1
290
0
176
1
290
0
176
1
290
0
176
1
290
0
176
1
290
0
176
1
 90
50
176
1
 40
0.0
176
1
 40
1.0
176
1
 90
0
176
1
 62
18
420
0
176
1
 90
50
176
1
 90
3
176
1
 62
5
420
255
176
1
290
0
176
1
 90
50
176
1
 90
50
176
1
 90
50
176
1
290
0
176
1
 90
50
176
1
 62
256
176
0
 40
1.0
176
0
 90
2
176
1
  1
strokes_ogs.tif
176
1
290
0
176
1
 40
1.0
176
1
 40
1.0
176
1
  0
VISUALSTYLE
  5
6D
102
{ACAD_REACTORS
330
16
102
}
330
16
100
AcDbVisualStyle
  2
Shaded with edges
 70
26
177
3
291
0
 70
58
 90
2
176
1
 90
2
176
1
 90
0
176
1
 90
2
176
1
 40
0.6
176
1
 40
30.0
176
1
 62
7
420
16777215
176
1
 90
1
176
1
 90
4
176
1
 62
7
176
1
 62
257
176
1
 90
1
176
1
 90
1
176
1
 40
1.0
176
1
 90
8
176
1
 62
7
176
1
 40
1.0
176
1
 90
1
176
1
 90
6
176
1
 90
2
176
1
 62
7
176
1
 90
5
176
1
 90
0
176
1
 90
0
176
1
290
0
176
1
 90
1
176
1
 40
0.0
176
1
 90
0
176
1
290
0
176
1
290
1
176
1
290
1
176
1
290
0
176
1
290
0
176
1
290
0
176
1
290
0
176
1
290
0
176
1
290
0
176
1
 90
50
176
1
 40
0.0
176
1
 40
1.0
176
1
 90
0
176
1
 62
18
420
0
176
1
 90
50
176
1
 90
3
176
1
 62
5
420
255
176
1
290
0
176
1
 90
50
176
1
 90
50
176
1
 90
50
176
1
290
0
176
1
 90
50
176
1
 62
256
176
0
 40
1.0
176
0
 90
2
176
1
  1
strokes_ogs.tif
176
1
290
0
176
1
 40
1.0
176
1
 40
1.0
176
1
  0
VISUALSTYLE
  5
6E
102
{ACAD_REACTORS
330
16
102
}
330
16
100
AcDbVisualStyle
  2
Shades of Gray
 70
23
177
3
291
0
 70
58
 90
2
176
1
 90
2
176
1
 90
0
176
1
 90
2
176
1
 40
0.6
176
1
 40
30.0
176
1
 62
7
420
16777215
176
1
 90
1
176
1
 90
4
176
1
 62
7
176
1
 62
257
176
1
 90
1
176
1
 90
1
176
1
 40
1.0
176
1
 90
8
176
1
 62
7
176
1
 40
1.0
176
1
 90
1
176
1
 90
6
176
1
 90
2
176
1
 62
7
176
1
 90
5
176
1
 90
0
176
1
 90
0
176
1
290
0
176
1
 90
1
176
1
 40
0.0
176
1
 90
0
176
1
290
0
176
1
290
1
176
1
290
1
176
1
290
0
176
1
290
0
176
1
290
0
176
1
290
0
176
1
290
0
176
1
290
0
176
1
 90
50
176
1
 40
0.0
176
1
 40
1.0
176
1
 90
0
176
1
 62
18
420
0
176
1
 90
50
176
1
 90
3
176
1
 62
5
420
255
176
1
290
0
176
1
 90
50
176
1
 90
50
176
1
 90
50
176
1
290
0
176
1
 90
50
176
1
 62
256
176
0
 40
1.0
176
0
 90
2
176
1
  1
strokes_ogs.tif
176
1
290
0
176
1
 40
1.0
176
1
 40
1.0
176
1
  0
VISUALSTYLE
  5
6F
102
{ACAD_REACTORS
330
16
102
}
330
16
100
AcDbVisualStyle
  2
Sketchy
 70
24
177
3
291
0
 70
58
 90
2
176
1
 90
2
176
1
 90
0
176
1
 90
1
176
1
 40
0.6
176
1
 40
30.0
176
1
 62
7
420
16777215
176
1
 90
1
176
1
 90
4
176
1
 62
7
176
1
 62
257
176
1
 90
1
176
1
 90
1
176
1
 40
1.0
176
1
 90
8
176
1
 62
7
176
1
 40
1.0
176
1
 90
1
176
1
 90
6
176
1
 90
2
176
1
 62
7
176
1
 90
5
176
1
 90
0
176
1
 90
0
176
1
290
0
176
1
 90
1
176
1
 40
0.0
176
1
 90
0
176
1
290
0
176
1
290
1
176
1
290
1
176
1
290
0
176
1
290
0
176
1
290
0
176
1
290
0
176
1
290
0
176
1
290
0
176
1
 90
50
176
1
 40
0.0
176
1
 40
1.0
176
1
 90
0
176
1
 62
18
420
0
176
1
 90
50
176
1
 90
3
176
1
 62
5
420
255
176
1
290
0
176
1
 90
50
176
1
 90
50
176
1
 90
50
176
1
290
0
176
1
 90
50
176
1
 62
256
176
0
 40
1.0
176
0
 90
2
176
1
  1
strokes_ogs.tif
176
1
290
0
176
1
 40
1.0
176
1
 40
1.0
176
1
  0
VISUALSTYLE
  5
70
102
{ACAD_REACTORS
330
16
102
}
330
16
100
AcDbVisualStyle
  2
Thicken
 70
13
177
3
291
1
 70
58
 90
2
176
1
 90
2
176
1
 90
0
176
1
 90
2
176
1
 40
0.6
176
1
 40
30.0
176
1
 62
7
420
16777215
176
1
 90
1
176
1
 90
4
176
1
 62
7
176
1
 62
257
176
1
 90
1
176
1
 90
1
176
1
 40
1.0
176
1
 90
8
176
1
 62
7
176
1
 40
1.0
176
1
 90
1
176
1
 90
6
176
1
 90
2
176
1
 62
7
176
1
 90
5
176
1
 90
0
176
1
 90
0
176
1
290
0
176
1
 90
1
176
1
 40
0.0
176
1
 90
0
176
1
290
0
176
1
290
1
176
1
290
1
176
1
290
0
176
1
290
0
176
1
290
0
176
1
290
0
176
1
290
0
176
1
290
0
176
1
 90
50
176
1
 40
0.0
176
1
 40
1.0
176
1
 90
0
176
1
 62
18
420
0
176
1
 90
50
176
1
 90
3
176
1
 62
5
420
255
176
1
290
0
176
1
 90
50
176
1
 90
50
176
1
 90
50
176
1
290
0
176
1
 90
50
176
1
 62
256
176
0
 40
1.0
176
0
 90
2
176
1
  1
strokes_ogs.tif
176
1
290
0
176
1
 40
1.0
176
1
 40
1.0
176
1
  0
VISUALSTYLE
  5
71
102
{ACAD_REACTORS
330
16
102
}
330
16
100
AcDbVisualStyle
  2
Wireframe
 70
5
177
3
291
0
 70
58
 90
2
176
1
 90
2
176
1
 90
0
176
1
 90
0
176
1
 40
0.6
176
1
 40
30.0
176
1
 62
7
420
16777215
176
1
 90
1
176
1
 90
4
176
1
 62
7
176
1
 62
257
176
1
 90
1
176
1
 90
1
176
1
 40
1.0
176
1
 90
8
176
1
 62
7
176
1
 40
1.0
176
1
 90
1
176
1
 90
6
176
1
 90
2
176
1
 62
7
176
1
 90
5
176
1
 90
0
176
1
 90
0
176
1
290
0
176
1
 90
1
176
1
 40
0.0
176
1
 90
0
176
1
290
0
176
1
290
1
176
1
290
1
176
1
290
0
176
1
290
0
176
1
290
0
176
1
290
0
176
1
290
0
176
1
290
0
176
1
 90
50
176
1
 40
0.0
176
1
 40
1.0
176
1
 90
0
176
1
 62
18
420
0
176
1
 90
50
176
1
 90
3
176
1
 62
5
420
255
176
1
290
0
176
1
 90
50
176
1
 90
50
176
1
 90
50
176
1
290
0
176
1
 90
50
176
1
 62
256
176
0
 40
1.0
176
0
 90
2
176
1
  1
strokes_ogs.tif
176
1
290
0
176
1
 40
1.0
176
1
 40
1.0
176
1
  0
VISUALSTYLE
  5
72
102
{ACAD_REACTORS
330
16
102
}
330
16
100
AcDbVisualStyle
  2
X-Ray
 70
25
177
3
291
0
 70
58
 90
2
176
1
 90
2
176
1
 90
0
176
1
 90
2
176
1
 40
0.5
176
1
 40
30.0
176
1
 62
7
420
16777215
176
1
 90
1
176
1
 90
4
176
1
 62
7
176
1
 62
257
176
1
 90
1
176
1
 90
1
176
1
 40
1.0
176
1
 90
8
176
1
 62
7
176
1
 40
1.0
176
1
 90
1
176
1
 90
6
176
1
 90
2
176
1
 62
7
176
1
 90
5
176
1
 90
0
176
1
 90
0
176
1
290
0
176
1
 90
1
176
1
 40
0.0
176
1
 90
0
176
1
290
0
176
1
290
1
176
1
290
1
176
1
290
0
176
1
290
0
176
1
290
0
176
1
290
0
176
1
290
0
176
1
290
0
176
1
 90
50
176
1
 40
0.0
176
1
 40
1.0
176
1
 90
0
176
1
 62
18
420
0
176
1
 90
50
176
1
 90
3
176
1
 62
5
420
255
176
1
290
0
176
1
 90
50
176
1
 90
50
176
1
 90
50
176
1
290
0
176
1
 90
50
176
1
 62
256
176
0
 40
1.0
176
0
 90
2
176
1
  1
strokes_ogs.tif
176
1
290
0
176
1
 40
1.0
176
1
 40
1.0
176
1
  0
DICTIONARYVAR
  5
8E
330
2D
100
DictionaryVariables
280
0
  1
1.4.2 @ 2025-06-04T15:39:24.036042+00:00
  0
ENDSEC
  0
EOF
