  0
SECTION
  2
HEADER
  9
$ACADVER
  1
AC1027
  9
$ACADMAINTVER
 70
105
  9
$DWGCODEPAGE
  3
ANSI_1252
  9
$LASTSAVEDBY
  1
ezdxf
  9
$REQUIREDVERSIONS
160
0
  9
$INSBASE
 10
0.0
 20
0.0
 30
0.0
  9
$EXTMIN
 10
1e+20
 20
1e+20
 30
1e+20
  9
$EXTMAX
 10
-1e+20
 20
-1e+20
 30
-1e+20
  9
$LIMMIN
 10
0.0
 20
0.0
  9
$LIMMAX
 10
420.0
 20
297.0
  9
$ORTHOMODE
 70
0
  9
$REGENMODE
 70
1
  9
$FILLMODE
 70
1
  9
$QTEXTMODE
 70
0
  9
$MIRRTEXT
 70
1
  9
$LTSCALE
 40
1.0
  9
$ATTMODE
 70
1
  9
$TEXTSIZE
 40
2.5
  9
$TRACEWID
 40
1.0
  9
$TEXTSTYLE
  7
OpenSans
  9
$CLAYER
  8
0
  9
$CELTYPE
  6
ByLayer
  9
$CECOLOR
 62
256
  9
$CELTSCALE
 40
1.0
  9
$DISPSILH
 70
0
  9
$DIMSCALE
 40
1.0
  9
$DIMASZ
 40
0.175
  9
$DIMEXO
 40
0.125
  9
$DIMDLI
 40
3.75
  9
$DIMRND
 40
0.0
  9
$DIMDLE
 40
0.0
  9
$DIMEXE
 40
0.375
  9
$DIMTP
 40
0.0
  9
$DIMTM
 40
0.0
  9
$DIMTXT
 40
0.25
  9
$DIMCEN
 40
2.5
  9
$DIMTSZ
 40
0.0
  9
$DIMTOL
 70
0
  9
$DIMLIM
 70
0
  9
$DIMTIH
 70
0
  9
$DIMTOH
 70
0
  9
$DIMSE1
 70
0
  9
$DIMSE2
 70
0
  9
$DIMTAD
 70
1
  9
$DIMZIN
 70
12
  9
$DIMBLK
  1
ARCHTICK
  9
$DIMASO
 70
1
  9
$DIMSHO
 70
1
  9
$DIMPOST
  1

  9
$DIMAPOST
  1

  9
$DIMALT
 70
0
  9
$DIMALTD
 70
3
  9
$DIMALTF
 40
0.03937007874
  9
$DIMLFAC
 40
100.0
  9
$DIMTOFL
 70
1
  9
$DIMTVP
 40
0.0
  9
$DIMTIX
 70
0
  9
$DIMSOXD
 70
0
  9
$DIMSAH
 70
0
  9
$DIMBLK1
  1

  9
$DIMBLK2
  1

  9
$DIMSTYLE
  2
EZDXF
  9
$DIMCLRD
 70
0
  9
$DIMCLRE
 70
0
  9
$DIMCLRT
 70
0
  9
$DIMTFAC
 40
0.5
  9
$DIMGAP
 40
0.1
  9
$DIMJUST
 70
0
  9
$DIMSD1
 70
0
  9
$DIMSD2
 70
0
  9
$DIMTOLJ
 70
0
  9
$DIMTZIN
 70
8
  9
$DIMALTZ
 70
0
  9
$DIMALTTZ
 70
0
  9
$DIMUPT
 70
1
  9
$DIMDEC
 70
2
  9
$DIMTDEC
 70
2
  9
$DIMALTU
 70
2
  9
$DIMALTTD
 70
3
  9
$DIMTXSTY
  7
OpenSansCondensed-Light
  9
$DIMAUNIT
 70
0
  9
$DIMADEC
 70
2
  9
$DIMALTRND
 40
0.0
  9
$DIMAZIN
 70
3
  9
$DIMDSEP
 70
46
  9
$DIMATFIT
 70
3
  9
$DIMFRAC
 70
0
  9
$DIMLDRBLK
  1

  9
$DIMLUNIT
 70
2
  9
$DIMLWD
 70
-2
  9
$DIMLWE
 70
-2
  9
$DIMTMOVE
 70
2
  9
$DIMFXL
 40
1.0
  9
$DIMFXLON
 70
0
  9
$DIMJOGANG
 40
0.785398163397
  9
$DIMTFILL
 70
0
  9
$DIMTFILLCLR
 70
0
  9
$DIMARCSYM
 70
0
  9
$DIMLTYPE
  6

  9
$DIMLTEX1
  6

  9
$DIMLTEX2
  6

  9
$DIMTXTDIRECTION
 70
0
  9
$LUNITS
 70
2
  9
$LUPREC
 70
4
  9
$SKETCHINC
 40
1.0
  9
$FILLETRAD
 40
10.0
  9
$AUNITS
 70
0
  9
$AUPREC
 70
2
  9
$MENU
  1
.
  9
$ELEVATION
 40
0.0
  9
$PELEVATION
 40
0.0
  9
$THICKNESS
 40
0.0
  9
$LIMCHECK
 70
0
  9
$CHAMFERA
 40
0.0
  9
$CHAMFERB
 40
0.0
  9
$CHAMFERC
 40
0.0
  9
$CHAMFERD
 40
0.0
  9
$SKPOLY
 70
0
  9
$TDCREATE
 40
2460831.735925926
  9
$TDUCREATE
 40
2458532.153996898
  9
$TDUPDATE
 40
2460831.735925926
  9
$TDUUPDATE
 40
2458532.1544311
  9
$TDINDWG
 40
0.0
  9
$TDUSRTIMER
 40
0.0
  9
$USRTIMER
 70
1
  9
$ANGBASE
 50
0.0
  9
$ANGDIR
 70
0
  9
$PDMODE
 70
0
  9
$PDSIZE
 40
0.0
  9
$PLINEWID
 40
0.0
  9
$SPLFRAME
 70
0
  9
$SPLINETYPE
 70
6
  9
$SPLINESEGS
 70
8
  9
$HANDSEED
  5
8F
  9
$SURFTAB1
 70
6
  9
$SURFTAB2
 70
6
  9
$SURFTYPE
 70
6
  9
$SURFU
 70
6
  9
$SURFV
 70
6
  9
$UCSBASE
  2

  9
$UCSNAME
  2

  9
$UCSORG
 10
0.0
 20
0.0
 30
0.0
  9
$UCSXDIR
 10
1.0
 20
0.0
 30
0.0
  9
$UCSYDIR
 10
0.0
 20
1.0
 30
0.0
  9
$UCSORTHOREF
  2

  9
$UCSORTHOVIEW
 70
0
  9
$UCSORGTOP
 10
0.0
 20
0.0
 30
0.0
  9
$UCSORGBOTTOM
 10
0.0
 20
0.0
 30
0.0
  9
$UCSORGLEFT
 10
0.0
 20
0.0
 30
0.0
  9
$UCSORGRIGHT
 10
0.0
 20
0.0
 30
0.0
  9
$UCSORGFRONT
 10
0.0
 20
0.0
 30
0.0
  9
$UCSORGBACK
 10
0.0
 20
0.0
 30
0.0
  9
$PUCSBASE
  2

  9
$PUCSNAME
  2

  9
$PUCSORG
 10
0.0
 20
0.0
 30
0.0
  9
$PUCSXDIR
 10
1.0
 20
0.0
 30
0.0
  9
$PUCSYDIR
 10
0.0
 20
1.0
 30
0.0
  9
$PUCSORTHOREF
  2

  9
$PUCSORTHOVIEW
 70
0
  9
$PUCSORGTOP
 10
0.0
 20
0.0
 30
0.0
  9
$PUCSORGBOTTOM
 10
0.0
 20
0.0
 30
0.0
  9
$PUCSORGLEFT
 10
0.0
 20
0.0
 30
0.0
  9
$PUCSORGRIGHT
 10
0.0
 20
0.0
 30
0.0
  9
$PUCSORGFRONT
 10
0.0
 20
0.0
 30
0.0
  9
$PUCSORGBACK
 10
0.0
 20
0.0
 30
0.0
  9
$USERI1
 70
0
  9
$USERI2
 70
0
  9
$USERI3
 70
0
  9
$USERI4
 70
0
  9
$USERI5
 70
0
  9
$USERR1
 40
0.0
  9
$USERR2
 40
0.0
  9
$USERR3
 40
0.0
  9
$USERR4
 40
0.0
  9
$USERR5
 40
0.0
  9
$WORLDVIEW
 70
1
  9
$SHADEDGE
 70
3
  9
$SHADEDIF
 70
70
  9
$TILEMODE
 70
1
  9
$MAXACTVP
 70
64
  9
$PINSBASE
 10
0.0
 20
0.0
 30
0.0
  9
$PLIMCHECK
 70
0
  9
$PEXTMIN
 10
1e+20
 20
1e+20
 30
1e+20
  9
$PEXTMAX
 10
-1e+20
 20
-1e+20
 30
-1e+20
  9
$PLIMMIN
 10
0.0
 20
0.0
  9
$PLIMMAX
 10
420.0
 20
297.0
  9
$UNITMODE
 70
0
  9
$VISRETAIN
 70
1
  9
$PLINEGEN
 70
0
  9
$PSLTSCALE
 70
1
  9
$TREEDEPTH
 70
3020
  9
$CMLSTYLE
  2
Standard
  9
$CMLJUST
 70
0
  9
$CMLSCALE
 40
20.0
  9
$PROXYGRAPHICS
 70
1
  9
$MEASUREMENT
 70
1
  9
$CELWEIGHT
370
-1
  9
$ENDCAPS
280
0
  9
$JOINSTYLE
280
0
  9
$LWDISPLAY
290
0
  9
$INSUNITS
 70
6
  9
$HYPERLINKBASE
  1

  9
$STYLESHEET
  1

  9
$XEDIT
290
1
  9
$CEPSNTYPE
380
0
  9
$PSTYLEMODE
290
1
  9
$FINGERPRINTGUID
  2
{DA7738BC-488A-4267-B0AD-EBA42179D015}
  9
$VERSIONGUID
  2
{3722DEC9-F26A-4EA6-90A0-6D39BEE01886}
  9
$EXTNAMES
290
1
  9
$PSVPSCALE
 40
0.0
  9
$OLESTARTUP
290
0
  9
$SORTENTS
280
127
  9
$INDEXCTL
280
0
  9
$HIDETEXT
280
1
  9
$XCLIPFRAME
280
1
  9
$HALOGAP
280
0
  9
$OBSCOLOR
 70
257
  9
$OBSLTYPE
280
0
  9
$INTERSECTIONDISPLAY
280
0
  9
$INTERSECTIONCOLOR
 70
257
  9
$DIMASSOC
280
2
  9
$PROJECTNAME
  1

  9
$CAMERADISPLAY
290
0
  9
$LENSLENGTH
 40
50.0
  9
$CAMERAHEIGHT
 40
0.0
  9
$STEPSPERSEC
 40
24.0
  9
$STEPSIZE
 40
100.0
  9
$3DDWFPREC
 40
2.0
  9
$PSOLWIDTH
 40
0.005
  9
$PSOLHEIGHT
 40
0.08
  9
$LOFTANG1
 40
1.570796326795
  9
$LOFTANG2
 40
1.570796326795
  9
$LOFTMAG1
 40
0.0
  9
$LOFTMAG2
 40
0.0
  9
$LOFTPARAM
 70
7
  9
$LOFTNORMALS
280
1
  9
$LATITUDE
 40
37.795
  9
$LONGITUDE
 40
-122.394
  9
$NORTHDIRECTION
 40
0.0
  9
$TIMEZONE
 70
-8000
  9
$LIGHTGLYPHDISPLAY
280
1
  9
$TILEMODELIGHTSYNCH
280
1
  9
$CMATERIAL
347
20
  9
$SOLIDHIST
280
0
  9
$SHOWHIST
280
1
  9
$DWFFRAME
280
2
  9
$DGNFRAME
280
2
  9
$REALWORLDSCALE
290
1
  9
$INTERFERECOLOR
 62
256
  9
$CSHADOW
280
0
  9
$SHADOWPLANELOCATION
 40
0.0
  0
ENDSEC
  0
SECTION
  2
CLASSES
  0
CLASS
  1
ACDBDICTIONARYWDFLT
  2
AcDbDictionaryWithDefault
  3
ObjectDBX Classes
 90
0
 91
0
280
0
281
0
  0
CLASS
  1
SUN
  2
AcDbSun
  3
SCENEOE
 90
1153
 91
0
280
0
281
0
  0
CLASS
  1
VISUALSTYLE
  2
AcDbVisualStyle
  3
ObjectDBX Classes
 90
4095
 91
0
280
0
281
0
  0
CLASS
  1
MATERIAL
  2
AcDbMaterial
  3
ObjectDBX Classes
 90
1153
 91
0
280
0
281
0
  0
CLASS
  1
SCALE
  2
AcDbScale
  3
ObjectDBX Classes
 90
1153
 91
0
280
0
281
0
  0
CLASS
  1
TABLESTYLE
  2
AcDbTableStyle
  3
ObjectDBX Classes
 90
4095
 91
0
280
0
281
0
  0
CLASS
  1
MLEADERSTYLE
  2
AcDbMLeaderStyle
  3
ACDB_MLEADERSTYLE_CLASS
 90
4095
 91
0
280
0
281
0
  0
CLASS
  1
DICTIONARYVAR
  2
AcDbDictionaryVar
  3
ObjectDBX Classes
 90
0
 91
0
280
0
281
0
  0
CLASS
  1
CELLSTYLEMAP
  2
AcDbCellStyleMap
  3
ObjectDBX Classes
 90
1152
 91
0
280
0
281
0
  0
CLASS
  1
MENTALRAYRENDERSETTINGS
  2
AcDbMentalRayRenderSettings
  3
SCENEOE
 90
1024
 91
0
280
0
281
0
  0
CLASS
  1
ACDBDETAILVIEWSTYLE
  2
AcDbDetailViewStyle
  3
ObjectDBX Classes
 90
1025
 91
0
280
0
281
0
  0
CLASS
  1
ACDBSECTIONVIEWSTYLE
  2
AcDbSectionViewStyle
  3
ObjectDBX Classes
 90
1025
 91
0
280
0
281
0
  0
CLASS
  1
RASTERVARIABLES
  2
AcDbRasterVariables
  3
ISM
 90
0
 91
0
280
0
281
0
  0
CLASS
  1
LAYOUT
  2
AcDbLayout
  3
ObjectDBX Classes
 90
0
 91
0
280
0
281
0
  0
CLASS
  1
ACDBPLACEHOLDER
  2
AcDbPlaceHolder
  3
ObjectDBX Classes
 90
0
 91
0
280
0
281
0
  0
ENDSEC
  0
SECTION
  2
TABLES
  0
TABLE
  2
VPORT
  5
8
330
0
100
AcDbSymbolTable
 70
1
  0
VPORT
  5
23
330
8
100
AcDbSymbolTableRecord
100
AcDbViewportTableRecord
  2
*Active
 70
0
 10
0.0
 20
0.0
 11
1.0
 21
1.0
 12
0.0
 22
0.0
 13
0.0
 23
0.0
 14
0.5
 24
0.5
 15
0.5
 25
0.5
 16
0.0
 26
0.0
 36
1.0
 17
0.0
 27
0.0
 37
0.0
 40
1000.0
 41
1.34
 42
50.0
 43
0.0
 44
0.0
 50
0.0
 51
0.0
 71
0
 72
1000
 73
1
 74
3
 75
0
 76
0
 77
0
 78
0
281
0
 65
0
146
0.0
  0
ENDTAB
  0
TABLE
  2
LTYPE
  5
2
330
0
100
AcDbSymbolTable
 70
21
  0
LTYPE
  5
24
330
2
100
AcDbSymbolTableRecord
100
AcDbLinetypeTableRecord
  2
ByBlock
 70
0
  3

 72
65
 73
0
 40
0.0
  0
LTYPE
  5
25
330
2
100
AcDbSymbolTableRecord
100
AcDbLinetypeTableRecord
  2
ByLayer
 70
0
  3

 72
65
 73
0
 40
0.0
  0
LTYPE
  5
26
330
2
100
AcDbSymbolTableRecord
100
AcDbLinetypeTableRecord
  2
Continuous
 70
0
  3

 72
65
 73
0
 40
0.0
  0
LTYPE
  5
2F
330
2
100
AcDbSymbolTableRecord
100
AcDbLinetypeTableRecord
  2
CENTER
 70
0
  3
Center ____ _ ____ _ ____ _ ____ _ ____ _ ____
 72
65
 73
4
 40
5.08
 49
3.175
 74
0
 49
-0.635
 74
0
 49
0.635
 74
0
 49
-0.635
 74
0
  0
LTYPE
  5
30
330
2
100
AcDbSymbolTableRecord
100
AcDbLinetypeTableRecord
  2
CENTERX2
 70
0
  3
Center (2x) ________  __  ________  __  ________
 72
65
 73
4
 40
8.89
 49
6.35
 74
0
 49
-0.635
 74
0
 49
1.27
 74
0
 49
-0.635
 74
0
  0
LTYPE
  5
31
330
2
100
AcDbSymbolTableRecord
100
AcDbLinetypeTableRecord
  2
CENTER2
 70
0
  3
Center (.5x) ____ _ ____ _ ____ _ ____ _ ____
 72
65
 73
4
 40
2.54
 49
1.587
 74
0
 49
-0.318
 74
0
 49
0.318
 74
0
 49
-0.318
 74
0
  0
LTYPE
  5
32
330
2
100
AcDbSymbolTableRecord
100
AcDbLinetypeTableRecord
  2
DASHED
 70
0
  3
Dashed __ __ __ __ __ __ __ __ __ __ __ __ __ _
 72
65
 73
2
 40
1.524
 49
1.27
 74
0
 49
-0.254
 74
0
  0
LTYPE
  5
33
330
2
100
AcDbSymbolTableRecord
100
AcDbLinetypeTableRecord
  2
DASHEDX2
 70
0
  3
Dashed (2x) ____  ____  ____  ____  ____  ____
 72
65
 73
2
 40
3.048
 49
2.54
 74
0
 49
-0.508
 74
0
  0
LTYPE
  5
34
330
2
100
AcDbSymbolTableRecord
100
AcDbLinetypeTableRecord
  2
DASHED2
 70
0
  3
Dashed (.5x) _ _ _ _ _ _ _ _ _ _ _ _ _ _
 72
65
 73
2
 40
0.762
 49
0.635
 74
0
 49
-0.127
 74
0
  0
LTYPE
  5
35
330
2
100
AcDbSymbolTableRecord
100
AcDbLinetypeTableRecord
  2
PHANTOM
 70
0
  3
Phantom ______  __  __  ______  __  __  ______
 72
65
 73
6
 40
6.35
 49
3.175
 74
0
 49
-0.635
 74
0
 49
0.635
 74
0
 49
-0.635
 74
0
 49
0.635
 74
0
 49
-0.635
 74
0
  0
LTYPE
  5
36
330
2
100
AcDbSymbolTableRecord
100
AcDbLinetypeTableRecord
  2
PHANTOMX2
 70
0
  3
Phantom (2x)____________    ____    ____    ____________
 72
65
 73
6
 40
10.795
 49
6.35
 74
0
 49
-0.635
 74
0
 49
1.27
 74
0
 49
-0.635
 74
0
 49
1.27
 74
0
 49
-0.635
 74
0
  0
LTYPE
  5
37
330
2
100
AcDbSymbolTableRecord
100
AcDbLinetypeTableRecord
  2
PHANTOM2
 70
0
  3
Phantom (.5x) ___ _ _ ___ _ _ ___ _ _ ___ _ _ ___
 72
65
 73
6
 40
3.175
 49
1.587
 74
0
 49
-0.318
 74
0
 49
0.318
 74
0
 49
-0.318
 74
0
 49
0.318
 74
0
 49
-0.318
 74
0
  0
LTYPE
  5
38
330
2
100
AcDbSymbolTableRecord
100
AcDbLinetypeTableRecord
  2
DASHDOT
 70
0
  3
Dash dot __ . __ . __ . __ . __ . __ . __ . __
 72
65
 73
4
 40
3.556
 49
2.54
 74
0
 49
-0.508
 74
0
 49
0.0
 74
0
 49
-0.508
 74
0
  0
LTYPE
  5
39
330
2
100
AcDbSymbolTableRecord
100
AcDbLinetypeTableRecord
  2
DASHDOTX2
 70
0
  3
Dash dot (2x) ____  .  ____  .  ____  .  ____
 72
65
 73
4
 40
6.096
 49
5.08
 74
0
 49
-0.508
 74
0
 49
0.0
 74
0
 49
-0.508
 74
0
  0
LTYPE
  5
3A
330
2
100
AcDbSymbolTableRecord
100
AcDbLinetypeTableRecord
  2
DASHDOT2
 70
0
  3
Dash dot (.5x) _ . _ . _ . _ . _ . _ . _ . _
 72
65
 73
4
 40
1.778
 49
1.27
 74
0
 49
-0.254
 74
0
 49
0.0
 74
0
 49
-0.254
 74
0
  0
LTYPE
  5
3B
330
2
100
AcDbSymbolTableRecord
100
AcDbLinetypeTableRecord
  2
DOT
 70
0
  3
Dot .  .  .  .  .  .  .  .  .  .  .  .  .  .  .  .
 72
65
 73
2
 40
0.508
 49
0.0
 74
0
 49
-0.508
 74
0
  0
LTYPE
  5
3C
330
2
100
AcDbSymbolTableRecord
100
AcDbLinetypeTableRecord
  2
DOTX2
 70
0
  3
Dot (2x) .    .    .    .    .    .    .    . 
 72
65
 73
2
 40
1.016
 49
0.0
 74
0
 49
-1.016
 74
0
  0
LTYPE
  5
3D
330
2
100
AcDbSymbolTableRecord
100
AcDbLinetypeTableRecord
  2
DOT2
 70
0
  3
Dot (.5) . . . . . . . . . . . . . . . . . . . 
 72
65
 73
2
 40
0.254
 49
0.0
 74
0
 49
-0.254
 74
0
  0
LTYPE
  5
3E
330
2
100
AcDbSymbolTableRecord
100
AcDbLinetypeTableRecord
  2
DIVIDE
 70
0
  3
Divide __ . . __ . . __ . . __ . . __ . . __
 72
65
 73
6
 40
4.064
 49
2.54
 74
0
 49
-0.508
 74
0
 49
0.0
 74
0
 49
-0.508
 74
0
 49
0.0
 74
0
 49
-0.508
 74
0
  0
LTYPE
  5
3F
330
2
100
AcDbSymbolTableRecord
100
AcDbLinetypeTableRecord
  2
DIVIDEX2
 70
0
  3
Divide (2x) ____  . .  ____  . .  ____  . .  ____
 72
65
 73
6
 40
6.604
 49
5.08
 74
0
 49
-0.508
 74
0
 49
0.0
 74
0
 49
-0.508
 74
0
 49
0.0
 74
0
 49
-0.508
 74
0
  0
LTYPE
  5
40
330
2
100
AcDbSymbolTableRecord
100
AcDbLinetypeTableRecord
  2
DIVIDE2
 70
0
  3
Divide(.5x) _ . _ . _ . _ . _ . _ . _ . _
 72
65
 73
6
 40
2.032
 49
1.27
 74
0
 49
-0.254
 74
0
 49
0.0
 74
0
 49
-0.254
 74
0
 49
0.0
 74
0
 49
-0.254
 74
0
  0
ENDTAB
  0
TABLE
  2
LAYER
  5
1
330
0
100
AcDbSymbolTable
 70
2
  0
LAYER
  5
27
330
1
100
AcDbSymbolTableRecord
100
AcDbLayerTableRecord
  2
0
 70
0
 62
7
  6
Continuous
370
-3
390
13
347
21
  0
LAYER
  5
28
330
1
100
AcDbSymbolTableRecord
100
AcDbLayerTableRecord
  2
Defpoints
 70
0
 62
7
  6
Continuous
290
0
370
-3
390
13
347
21
  0
ENDTAB
  0
TABLE
  2
STYLE
  5
5
330
0
100
AcDbSymbolTable
 70
26
  0
STYLE
  5
29
330
5
100
AcDbSymbolTableRecord
100
AcDbTextStyleTableRecord
  2
Standard
 70
0
 40
0.0
 41
1.0
 50
0.0
 71
0
 42
2.5
  3
txt
  4

  0
STYLE
  5
41
330
5
100
AcDbSymbolTableRecord
100
AcDbTextStyleTableRecord
  2
OpenSans-Light
 70
0
 40
0.0
 41
1.0
 50
0.0
 71
0
 42
2.5
  3
OpenSans-Light.ttf
  4

  0
STYLE
  5
42
330
5
100
AcDbSymbolTableRecord
100
AcDbTextStyleTableRecord
  2
OpenSans-Light-Italic
 70
0
 40
0.0
 41
1.0
 50
0.0
 71
0
 42
2.5
  3
OpenSans-LightItalic.ttf
  4

  0
STYLE
  5
43
330
5
100
AcDbSymbolTableRecord
100
AcDbTextStyleTableRecord
  2
OpenSans
 70
0
 40
0.0
 41
1.0
 50
0.0
 71
0
 42
2.5
  3
OpenSans-Regular.ttf
  4

  0
STYLE
  5
44
330
5
100
AcDbSymbolTableRecord
100
AcDbTextStyleTableRecord
  2
OpenSans-Italic
 70
0
 40
0.0
 41
1.0
 50
0.0
 71
0
 42
2.5
  3
OpenSans-Italic.ttf
  4

  0
STYLE
  5
45
330
5
100
AcDbSymbolTableRecord
100
AcDbTextStyleTableRecord
  2
OpenSans-SemiBold
 70
0
 40
0.0
 41
1.0
 50
0.0
 71
0
 42
2.5
  3
OpenSans-SemiBold.ttf
  4

  0
STYLE
  5
46
330
5
100
AcDbSymbolTableRecord
100
AcDbTextStyleTableRecord
  2
OpenSans-SemiBoldItalic
 70
0
 40
0.0
 41
1.0
 50
0.0
 71
0
 42
2.5
  3
OpenSans-SemiBoldItalic.ttf
  4

  0
STYLE
  5
47
330
5
100
AcDbSymbolTableRecord
100
AcDbTextStyleTableRecord
  2
OpenSans-Bold
 70
0
 40
0.0
 41
1.0
 50
0.0
 71
0
 42
2.5
  3
OpenSans-Bold.ttf
  4

  0
STYLE
  5
48
330
5
100
AcDbSymbolTableRecord
100
AcDbTextStyleTableRecord
  2
OpenSans-BoldItalic
 70
0
 40
0.0
 41
1.0
 50
0.0
 71
0
 42
2.5
  3
OpenSans-BoldItalic.ttf
  4

  0
STYLE
  5
49
330
5
100
AcDbSymbolTableRecord
100
AcDbTextStyleTableRecord
  2
OpenSans-ExtraBold
 70
0
 40
0.0
 41
1.0
 50
0.0
 71
0
 42
2.5
  3
OpenSans-ExtraBold.ttf
  4

  0
STYLE
  5
4A
330
5
100
AcDbSymbolTableRecord
100
AcDbTextStyleTableRecord
  2
OpenSans-ExtraBoldItalic
 70
0
 40
0.0
 41
1.0
 50
0.0
 71
0
 42
2.5
  3
OpenSans-ExtraBoldItalic.ttf
  4

  0
STYLE
  5
4B
330
5
100
AcDbSymbolTableRecord
100
AcDbTextStyleTableRecord
  2
OpenSansCondensed-Bold
 70
0
 40
0.0
 41
1.0
 50
0.0
 71
0
 42
2.5
  3
OpenSansCondensed-Bold.ttf
  4

  0
STYLE
  5
4C
330
5
100
AcDbSymbolTableRecord
100
AcDbTextStyleTableRecord
  2
OpenSansCondensed-Light
 70
0
 40
0.0
 41
1.0
 50
0.0
 71
0
 42
2.5
  3
OpenSansCondensed-Light.ttf
  4

  0
STYLE
  5
4D
330
5
100
AcDbSymbolTableRecord
100
AcDbTextStyleTableRecord
  2
OpenSansCondensed-Italic
 70
0
 40
0.0
 41
1.0
 50
0.0
 71
0
 42
2.5
  3
OpenSansCondensed-LightItalic.ttf
  4

  0
STYLE
  5
4E
330
5
100
AcDbSymbolTableRecord
100
AcDbTextStyleTableRecord
  2
LiberationSans
 70
0
 40
0.0
 41
1.0
 50
0.0
 71
0
 42
2.5
  3
LiberationSans-Regular.ttf
  4

  0
STYLE
  5
4F
330
5
100
AcDbSymbolTableRecord
100
AcDbTextStyleTableRecord
  2
LiberationSans-Bold
 70
0
 40
0.0
 41
1.0
 50
0.0
 71
0
 42
2.5
  3
LiberationSans-Bold.ttf
  4

  0
STYLE
  5
50
330
5
100
AcDbSymbolTableRecord
100
AcDbTextStyleTableRecord
  2
LiberationSans-BoldItalic
 70
0
 40
0.0
 41
1.0
 50
0.0
 71
0
 42
2.5
  3
LiberationSans-BoldItalic.ttf
  4

  0
STYLE
  5
51
330
5
100
AcDbSymbolTableRecord
100
AcDbTextStyleTableRecord
  2
LiberationSans-Italic
 70
0
 40
0.0
 41
1.0
 50
0.0
 71
0
 42
2.5
  3
LiberationSans-Italic.ttf
  4

  0
STYLE
  5
52
330
5
100
AcDbSymbolTableRecord
100
AcDbTextStyleTableRecord
  2
LiberationSerif
 70
0
 40
0.0
 41
1.0
 50
0.0
 71
0
 42
2.5
  3
LiberationSerif-Regular.ttf
  4

  0
STYLE
  5
53
330
5
100
AcDbSymbolTableRecord
100
AcDbTextStyleTableRecord
  2
LiberationSerif-Bold
 70
0
 40
0.0
 41
1.0
 50
0.0
 71
0
 42
2.5
  3
LiberationSerif-Bold.ttf
  4

  0
STYLE
  5
54
330
5
100
AcDbSymbolTableRecord
100
AcDbTextStyleTableRecord
  2
LiberationSerif-BoldItalic
 70
0
 40
0.0
 41
1.0
 50
0.0
 71
0
 42
2.5
  3
LiberationSerif-BoldItalic.ttf
  4

  0
STYLE
  5
55
330
5
100
AcDbSymbolTableRecord
100
AcDbTextStyleTableRecord
  2
LiberationSerif-Italic
 70
0
 40
0.0
 41
1.0
 50
0.0
 71
0
 42
2.5
  3
LiberationSerif-Italic.ttf
  4

  0
STYLE
  5
56
330
5
100
AcDbSymbolTableRecord
100
AcDbTextStyleTableRecord
  2
LiberationMono
 70
0
 40
0.0
 41
1.0
 50
0.0
 71
0
 42
2.5
  3
LiberationMono-Regular.ttf
  4

  0
STYLE
  5
57
330
5
100
AcDbSymbolTableRecord
100
AcDbTextStyleTableRecord
  2
LiberationMono-Bold
 70
0
 40
0.0
 41
1.0
 50
0.0
 71
0
 42
2.5
  3
LiberationMono-Bold.ttf
  4

  0
STYLE
  5
58
330
5
100
AcDbSymbolTableRecord
100
AcDbTextStyleTableRecord
  2
LiberationMono-BoldItalic
 70
0
 40
0.0
 41
1.0
 50
0.0
 71
0
 42
2.5
  3
LiberationMono-BoldItalic.ttf
  4

  0
STYLE
  5
59
330
5
100
AcDbSymbolTableRecord
100
AcDbTextStyleTableRecord
  2
LiberationMono-Italic
 70
0
 40
0.0
 41
1.0
 50
0.0
 71
0
 42
2.5
  3
LiberationMono-Italic.ttf
  4

  0
ENDTAB
  0
TABLE
  2
VIEW
  5
7
330
0
100
AcDbSymbolTable
 70
0
  0
ENDTAB
  0
TABLE
  2
UCS
  5
6
330
0
100
AcDbSymbolTable
 70
0
  0
ENDTAB
  0
TABLE
  2
APPID
  5
3
330
0
100
AcDbSymbolTable
 70
3
  0
APPID
  5
2A
330
3
100
AcDbSymbolTableRecord
100
AcDbRegAppTableRecord
  2
ACAD
 70
0
  0
APPID
  5
8C
330
3
100
AcDbSymbolTableRecord
100
AcDbRegAppTableRecord
  2
HATCHBACKGROUNDCOLOR
 70
0
  0
APPID
  5
8D
330
3
100
AcDbSymbolTableRecord
100
AcDbRegAppTableRecord
  2
EZDXF
 70
0
  0
ENDTAB
  0
TABLE
  2
DIMSTYLE
  5
4
330
0
100
AcDbSymbolTable
 70
12
100
AcDbDimStyleTable
  0
DIMSTYLE
105
2B
330
4
100
AcDbSymbolTableRecord
100
AcDbDimStyleTableRecord
  2
Standard
 70
0
 40
1.0
 41
2.5
 42
0.625
 43
3.75
 44
1.25
 45
0.0
 46
0.0
 47
0.0
 48
0.0
 49
2.5
140
2.5
141
2.5
142
0.0
143
0.03937007874
144
1.0
145
0.0
146
1.0
147
0.625
148
0.0
 69
0
 70
0
 71
0
 72
0
 73
0
 74
0
 75
0
 76
0
 77
1
 78
8
 79
3
170
0
171
3
172
1
173
0
174
0
175
0
176
0
177
0
178
0
179
2
271
2
272
2
273
2
274
3
275
0
276
0
277
2
278
44
279
0
280
0
281
0
282
0
283
0
284
8
285
0
286
0
288
0
289
3
290
0
371
-2
372
-2
  0
DIMSTYLE
105
73
330
4
100
AcDbSymbolTableRecord
100
AcDbDimStyleTableRecord
  2
EZDXF
 70
0
 40
1.0
 41
0.175
 42
0.125
 43
3.75
 44
0.375
 45
0.0
 46
0.0
 47
0.0
 48
0.0
 49
2.5
140
0.25
141
2.5
142
0.0
143
0.03937007874
144
100.0
145
0.0
146
0.5
147
0.1
148
0.0
 69
0
 70
0
 71
0
 72
0
 73
0
 74
0
 75
0
 76
0
 77
1
 78
12
 79
3
170
0
171
3
172
1
173
0
174
0
175
0
176
0
177
0
178
0
179
2
271
2
272
2
273
2
274
3
275
0
276
0
277
2
278
46
279
2
280
0
281
0
282
0
283
0
284
8
285
0
286
0
288
1
289
3
290
0
340
4C
342
74
371
-2
372
-2
  0
DIMSTYLE
105
7C
330
4
100
AcDbSymbolTableRecord
100
AcDbDimStyleTableRecord
  2
EZ_M_100_H25_CM
 70
0
 40
1.0
 41
0.25
 42
0.125
 43
3.75
 44
0.375
 45
0.0
 46
0.0
 47
0.0
 48
0.0
 49
2.5
140
0.25
141
2.5
142
0.125
143
0.03937007874
144
100.0
145
0.0
146
0.5
147
0.1
148
0.0
 69
0
 70
0
 71
0
 72
0
 73
0
 74
0
 75
0
 76
0
 77
1
 78
12
 79
3
170
0
171
3
172
1
173
0
174
0
175
0
176
0
177
0
178
0
179
2
271
2
272
2
273
2
274
3
275
0
276
0
277
2
278
46
279
2
280
0
281
0
282
0
283
0
284
8
285
0
286
0
288
1
289
3
290
0
340
4C
371
-2
372
-2
  0
DIMSTYLE
105
7D
330
4
100
AcDbSymbolTableRecord
100
AcDbDimStyleTableRecord
  2
EZ_M_50_H25_CM
 70
0
 40
1.0
 41
0.125
 42
0.0625
 43
3.75
 44
0.1875
 45
0.0
 46
0.0
 47
0.0
 48
0.0
 49
2.5
140
0.125
141
2.5
142
0.0625
143
0.03937007874
144
100.0
145
0.0
146
0.5
147
0.05
148
0.0
 69
0
 70
0
 71
0
 72
0
 73
0
 74
0
 75
0
 76
0
 77
1
 78
12
 79
3
170
0
171
3
172
1
173
0
174
0
175
0
176
0
177
0
178
0
179
2
271
2
272
2
273
2
274
3
275
0
276
0
277
2
278
46
279
2
280
0
281
0
282
0
283
0
284
8
285
0
286
0
288
1
289
3
290
0
340
4C
371
-2
372
-2
  0
DIMSTYLE
105
7E
330
4
100
AcDbSymbolTableRecord
100
AcDbDimStyleTableRecord
  2
EZ_M_25_H25_CM
 70
0
 40
1.0
 41
0.0625
 42
0.03125
 43
3.75
 44
0.09375
 45
0.0
 46
0.0
 47
0.0
 48
0.0
 49
2.5
140
0.0625
141
2.5
142
0.03125
143
0.03937007874
144
100.0
145
0.0
146
0.5
147
0.025
148
0.0
 69
0
 70
0
 71
0
 72
0
 73
0
 74
0
 75
0
 76
0
 77
1
 78
12
 79
3
170
0
171
3
172
1
173
0
174
0
175
0
176
0
177
0
178
0
179
2
271
2
272
2
273
2
274
3
275
0
276
0
277
2
278
46
279
2
280
0
281
0
282
0
283
0
284
8
285
0
286
0
288
1
289
3
290
0
340
4C
371
-2
372
-2
  0
DIMSTYLE
105
7F
330
4
100
AcDbSymbolTableRecord
100
AcDbDimStyleTableRecord
  2
EZ_M_20_H25_CM
 70
0
 40
1.0
 41
0.05
 42
0.025
 43
3.75
 44
0.07500000000000001
 45
0.0
 46
0.0
 47
0.0
 48
0.0
 49
2.5
140
0.05
141
2.5
142
0.025
143
0.03937007874
144
100.0
145
0.0
146
0.5
147
0.020000000000000004
148
0.0
 69
0
 70
0
 71
0
 72
0
 73
0
 74
0
 75
0
 76
0
 77
1
 78
12
 79
3
170
0
171
3
172
1
173
0
174
0
175
0
176
0
177
0
178
0
179
2
271
2
272
2
273
2
274
3
275
0
276
0
277
2
278
46
279
2
280
0
281
0
282
0
283
0
284
8
285
0
286
0
288
1
289
3
290
0
340
4C
371
-2
372
-2
  0
DIMSTYLE
105
80
330
4
100
AcDbSymbolTableRecord
100
AcDbDimStyleTableRecord
  2
EZ_M_10_H25_CM
 70
0
 40
1.0
 41
0.025
 42
0.0125
 43
3.75
 44
0.037500000000000006
 45
0.0
 46
0.0
 47
0.0
 48
0.0
 49
2.5
140
0.025
141
2.5
142
0.0125
143
0.03937007874
144
100.0
145
0.0
146
0.5
147
0.010000000000000002
148
0.0
 69
0
 70
0
 71
0
 72
0
 73
0
 74
0
 75
0
 76
0
 77
1
 78
12
 79
3
170
0
171
3
172
1
173
0
174
0
175
0
176
0
177
0
178
0
179
2
271
2
272
2
273
2
274
3
275
0
276
0
277
2
278
46
279
2
280
0
281
0
282
0
283
0
284
8
285
0
286
0
288
1
289
3
290
0
340
4C
371
-2
372
-2
  0
DIMSTYLE
105
81
330
4
100
AcDbSymbolTableRecord
100
AcDbDimStyleTableRecord
  2
EZ_M_5_H25_CM
 70
0
 40
1.0
 41
0.0125
 42
0.00625
 43
3.75
 44
0.018750000000000003
 45
0.0
 46
0.0
 47
0.0
 48
0.0
 49
2.5
140
0.0125
141
2.5
142
0.00625
143
0.03937007874
144
100.0
145
0.0
146
0.5
147
0.005000000000000001
148
0.0
 69
0
 70
0
 71
0
 72
0
 73
0
 74
0
 75
0
 76
0
 77
1
 78
12
 79
3
170
0
171
3
172
1
173
0
174
0
175
0
176
0
177
0
178
0
179
2
271
2
272
2
273
2
274
3
275
0
276
0
277
2
278
46
279
2
280
0
281
0
282
0
283
0
284
8
285
0
286
0
288
1
289
3
290
0
340
4C
371
-2
372
-2
  0
DIMSTYLE
105
82
330
4
100
AcDbSymbolTableRecord
100
AcDbDimStyleTableRecord
  2
EZ_M_1_H25_CM
 70
0
 40
1.0
 41
0.0025
 42
0.00125
 43
3.75
 44
0.00375
 45
0.0
 46
0.0
 47
0.0
 48
0.0
 49
2.5
140
0.0025
141
2.5
142
0.00125
143
0.03937007874
144
100.0
145
0.0
146
0.5
147
0.001
148
0.0
 69
0
 70
0
 71
0
 72
0
 73
0
 74
0
 75
0
 76
0
 77
1
 78
12
 79
3
170
0
171
3
172
1
173
0
174
0
175
0
176
0
177
0
178
0
179
2
271
2
272
2
273
2
274
3
275
0
276
0
277
2
278
46
279
2
280
0
281
0
282
0
283
0
284
8
285
0
286
0
288
1
289
3
290
0
340
4C
371
-2
372
-2
  0
DIMSTYLE
105
83
330
4
100
AcDbSymbolTableRecord
100
AcDbDimStyleTableRecord
  2
EZ_RADIUS
 70
0
 40
1.0
 41
0.25
 42
0.125
 43
3.75
 44
0.375
 45
0.0
 46
0.0
 47
0.0
 48
0.0
 49
2.5
140
0.25
141
0.0
142
0.0
143
0.03937007874
144
100.0
145
0.0
146
0.5
147
0.1
148
0.0
 69
0
 70
0
 71
0
 72
0
 73
0
 74
0
 75
0
 76
0
 77
1
 78
12
 79
3
170
0
171
3
172
0
173
0
174
0
175
0
176
0
177
0
178
0
179
2
271
2
272
2
273
2
274
3
275
0
276
0
277
2
278
46
279
1
280
0
281
0
282
0
283
0
284
8
285
0
286
0
288
1
289
3
290
0
340
4C
342
84
371
-2
372
-2
  0
DIMSTYLE
105
88
330
4
100
AcDbSymbolTableRecord
100
AcDbDimStyleTableRecord
  2
EZ_RADIUS_INSIDE
 70
0
 40
1.0
 41
0.25
 42
0.125
 43
3.75
 44
0.375
 45
0.0
 46
0.0
 47
0.0
 48
0.0
 49
2.5
140
0.25
141
0.0
142
0.0
143
0.03937007874
144
100.0
145
0.0
146
0.5
147
0.1
148
0.0
 69
0
 70
0
 71
0
 72
0
 73
0
 74
0
 75
0
 76
0
 77
0
 78
12
 79
3
170
0
171
3
172
0
173
0
174
1
175
0
176
0
177
0
178
0
179
2
271
2
272
2
273
2
274
3
275
0
276
0
277
2
278
46
279
0
280
0
281
0
282
0
283
0
284
8
285
0
286
0
288
1
289
0
290
0
340
4C
342
84
371
-2
372
-2
  0
DIMSTYLE
105
89
330
4
100
AcDbSymbolTableRecord
100
AcDbDimStyleTableRecord
  2
EZ_CURVED
 70
0
 40
1.0
 41
0.25
 42
0.125
 43
3.75
 44
0.375
 45
0.0
 46
0.0
 47
0.0
 48
0.0
 49
2.5
140
0.25
141
2.5
142
0.0
143
0.03937007874
144
100.0
145
0.0
146
0.5
147
0.1
148
0.0
 69
0
 70
0
 71
0
 72
0
 73
0
 74
0
 75
0
 76
0
 77
1
 78
12
 79
2
 90
2
170
0
171
3
172
1
173
0
174
0
175
0
176
0
177
0
178
0
179
2
271
2
272
2
273
2
274
3
275
0
276
0
277
2
278
46
279
2
280
0
281
0
282
0
283
0
284
8
285
0
286
0
288
1
289
3
290
0
340
4C
371
-2
372
-2
  0
ENDTAB
  0
TABLE
  2
BLOCK_RECORD
  5
9
330
0
100
AcDbSymbolTable
 70
5
  0
BLOCK_RECORD
  5
17
330
9
100
AcDbSymbolTableRecord
100
AcDbBlockTableRecord
  2
*Model_Space
340
1A
 70
0
280
1
281
0
  0
BLOCK_RECORD
  5
1B
330
9
100
AcDbSymbolTableRecord
100
AcDbBlockTableRecord
  2
*Paper_Space
340
1E
 70
0
280
1
281
0
  0
BLOCK_RECORD
  5
74
330
9
100
AcDbSymbolTableRecord
100
AcDbBlockTableRecord
  2
_ARCHTICK
340
0
 70
0
280
1
281
0
  0
BLOCK_RECORD
  5
78
330
9
100
AcDbSymbolTableRecord
100
AcDbBlockTableRecord
  2
_CLOSEDFILLED
340
0
 70
0
280
1
281
0
  0
BLOCK_RECORD
  5
84
330
9
100
AcDbSymbolTableRecord
100
AcDbBlockTableRecord
  2
_CLOSEDBLANK
340
0
 70
0
280
1
281
0
  0
ENDTAB
  0
ENDSEC
  0
SECTION
  2
BLOCKS
  0
BLOCK
  5
18
330
17
100
AcDbEntity
  8
0
100
AcDbBlockBegin
  2
*Model_Space
 70
0
 10
0.0
 20
0.0
 30
0.0
  3
*Model_Space
  1

  0
ENDBLK
  5
19
330
17
100
AcDbEntity
  8
0
100
AcDbBlockEnd
  0
BLOCK
  5
1C
330
1B
100
AcDbEntity
  8
0
100
AcDbBlockBegin
  2
*Paper_Space
 70
0
 10
0.0
 20
0.0
 30
0.0
  3
*Paper_Space
  1

  0
ENDBLK
  5
1D
330
1B
100
AcDbEntity
  8
0
100
AcDbBlockEnd
  0
BLOCK
  5
75
330
74
100
AcDbEntity
  8
0
100
AcDbBlockBegin
  2
_ARCHTICK
 70
0
 10
0.0
 20
0.0
 30
0.0
  3
_ARCHTICK
  1

  0
LWPOLYLINE
  5
77
330
74
100
AcDbEntity
  8
0
  6
BYBLOCK
 62
0
100
AcDbPolyline
 90
2
 70
0
 43
0.15
 10
-0.5
 20
-0.5
 10
0.5
 20
0.5
  0
ENDBLK
  5
76
330
74
100
AcDbEntity
  8
0
100
AcDbBlockEnd
  0
BLOCK
  5
79
330
78
100
AcDbEntity
  8
0
100
AcDbBlockBegin
  2
_CLOSEDFILLED
 70
0
 10
0.0
 20
0.0
 30
0.0
  3
_CLOSEDFILLED
  1

  0
SOLID
  5
7B
330
78
100
AcDbEntity
  8
0
  6
BYBLOCK
 62
0
100
AcDbTrace
 10
-1.0
 20
0.16439898372402537
 30
0.0
 11
0.0
 21
0.0
 31
0.0
 12
-1.0
 22
-0.16439898372402537
 32
0.0
 13
-1.0
 23
-0.16439898372402537
 33
0.0
  0
ENDBLK
  5
7A
330
78
100
AcDbEntity
  8
0
100
AcDbBlockEnd
  0
BLOCK
  5
85
330
84
100
AcDbEntity
  8
0
100
AcDbBlockBegin
  2
_CLOSEDBLANK
 70
0
 10
0.0
 20
0.0
 30
0.0
  3
_CLOSEDBLANK
  1

  0
LWPOLYLINE
  5
87
330
84
100
AcDbEntity
  8
0
  6
BYBLOCK
 62
0
100
AcDbPolyline
 90
3
 70
1
 10
-1.0
 20
0.16439898372402537
 10
0.0
 20
0.0
 10
-1.0
 20
-0.16439898372402537
  0
ENDBLK
  5
86
330
84
100
AcDbEntity
  8
0
100
AcDbBlockEnd
  0
ENDSEC
  0
SECTION
  2
ENTITIES
  0
LWPOLYLINE
  5
8A
330
17
100
AcDbEntity
  8
0
100
AcDbPolyline
 90
290
 70
0
 10
0.0
 20
107.99582716007735
 10
0.0
 20
476.41197171249314
 10
0.34175894670910556
 20
476.41197171249314
 10
0.6835178934182111
 20
476.07021276578405
 10
3.7593484138001614
 20
476.07021276578405
 10
4.101107360509267
 20
475.72845381907496
 10
8.202214721018533
 20
475.72845381907496
 10
8.54397366772764
 20
476.07021276578405
 10
9.569250507854957
 20
476.07021276578405
 10
9.911009454564061
 20
475.72845381907496
 10
11.278045241400484
 20
475.72845381907496
 10
11.619804188109589
 20
475.3866948723658
 10
13.328598921655116
 20
475.3866948723658
 10
13.670357868364222
 20
475.0449359256567
 10
14.353875761782433
 20
475.0449359256567
 10
14.69563470849154
 20
474.7031769789476
 10
15.037393655200646
 20
474.7031769789476
 10
15.720911548618856
 20
474.0196590855294
 10
16.06267049532796
 20
474.0196590855294
 10
16.404429442037067
 20
473.6779001388203
 10
18.4549831222917
 20
473.6779001388203
 10
18.796742069000807
 20
474.0196590855294
 10
20.16377785583723
 20
474.0196590855294
 10
20.505536802546334
 20
474.36141803223853
 10
23.239608376219177
 20
474.36141803223853
 10
23.581367322928283
 20
474.0196590855294
 10
25.631921003182917
 20
474.0196590855294
 10
25.973679949892023
 20
473.6779001388203
 10
26.99895679001934
 20
473.6779001388203
 10
27.340715736728445
 20
473.3361411921112
 10
27.68247468343755
 20
473.3361411921112
 10
29.39126941698308
 20
471.6273464585657
 10
29.39126941698308
 20
471.2855875118566
 10
30.07478731040129
 20
470.60206961843835
 10
30.07478731040129
 20
470.26031067172926
 10
30.7583052038195
 20
469.576792778311
 10
30.7583052038195
 20
469.2350338316019
 10
31.100064150528606
 20
468.89327488489283
 10
31.100064150528606
 20
468.55151593818374
 10
31.441823097237712
 20
468.2097569914746
 10
31.441823097237712
 20
467.8679980447655
 10
32.12534099065592
 20
467.1844801513473
 10
32.12534099065592
 20
466.84272120463817
 10
32.46709993736503
 20
466.5009622579291
 10
32.46709993736503
 20
466.15920331122
 10
33.15061783078324
 20
465.4756854178018
 10
33.15061783078324
 20
465.13392647109265
 10
33.83413572420145
 20
464.45040857767447
 10
33.83413572420145
 20
464.1086496309654
 10
34.517653617619665
 20
463.42513173754713
 10
34.517653617619665
 20
463.08337279083804
 10
35.20117151103787
 20
462.3998548974198
 10
35.20117151103787
 20
462.0580959507107
 10
35.88468940445608
 20
461.3745780572925
 10
35.88468940445608
 20
461.0328191105834
 10
36.22644835116519
 20
460.6910601638743
 10
36.22644835116519
 20
460.3493012171652
 10
36.9099662445834
 20
459.66578332374695
 10
36.9099662445834
 20
459.32402437703786
 10
37.25172519129251
 20
458.98226543032877
 10
37.25172519129251
 20
458.6405064836197
 10
37.93524308471072
 20
457.95698859020143
 10
37.93524308471072
 20
457.61522964349234
 10
38.618760978128925
 20
456.93171175007416
 10
38.618760978128925
 20
456.589952803365
 10
39.30227887154714
 20
455.9064349099468
 10
39.30227887154714
 20
455.56467596323773
 10
39.98579676496535
 20
454.8811580698195
 10
39.98579676496535
 20
454.5393991231104
 10
40.32755571167446
 20
454.1976401764013
 10
40.32755571167446
 20
453.85588122969216
 10
41.352832551801775
 20
452.8306043895649
 10
41.352832551801775
 20
452.48884544285573
 10
42.03635044521998
 20
451.80532754943755
 10
42.03635044521998
 20
451.46356860272846
 10
42.71986833863819
 20
450.7800507093102
 10
42.71986833863819
 20
450.4382917626011
 10
44.08690412547462
 20
449.0712559757647
 10
44.08690412547462
 20
448.7294970290556
 10
44.77042201889283
 20
448.04597913563737
 10
44.77042201889283
 20
447.7042201889283
 10
45.11218096560194
 20
447.3624612422192
 10
45.11218096560194
 20
447.0207022955101
 10
45.45393991231104
 20
446.67894334880094
 10
45.45393991231104
 20
446.33718440209185
 10
46.13745780572925
 20
445.65366650867367
 10
46.13745780572925
 20
445.3119075619645
 10
46.479216752438354
 20
444.9701486152554
 10
46.479216752438354
 20
444.62838966854633
 10
47.50449359256567
 20
443.603112828419
 10
47.50449359256567
 20
443.2613538817099
 10
48.52977043269299
 20
442.2360770415826
 10
48.52977043269299
 20
441.8943180948735
 10
49.5550472728203
 20
440.86904125474615
 10
49.5550472728203
 20
440.52728230803706
 10
50.238565166238516
 20
439.8437644146189
 10
50.238565166238516
 20
439.5020054679097
 10
50.92208305965673
 20
438.81848757449154
 10
50.92208305965673
 20
438.47672862778245
 10
51.60560095307494
 20
437.7932107343642
 10
51.60560095307494
 20
437.4514517876551
 10
52.28911884649315
 20
436.76793389423693
 10
52.28911884649315
 20
436.4261749475278
 10
52.63087779320226
 20
436.0844160008187
 10
52.63087779320226
 20
435.7426570541096
 10
53.314395686620465
 20
435.05913916069136
 10
53.314395686620465
 20
434.71738021398227
 10
53.99791358003868
 20
434.0338623205641
 10
53.99791358003868
 20
433.69210337385493
 10
54.68143147345689
 20
433.00858548043675
 10
54.68143147345689
 20
432.66682653372766
 10
55.70670831358421
 20
431.6415496936003
 10
55.70670831358421
 20
431.29979074689123
 10
56.048467260293314
 20
430.9580318001821
 10
56.048467260293314
 20
430.616272853473
 10
56.73198515371152
 20
429.9327549600548
 10
56.73198515371152
 20
429.5909960133457
 10
57.41550304712973
 20
428.9074781199275
 10
57.41550304712973
 20
428.5657191732184
 10
58.099020940547945
 20
427.88220127980014
 10
58.099020940547945
 20
427.54044233309105
 10
58.78253883396616
 20
426.85692443967287
 10
58.78253883396616
 20
426.5151654929637
 10
59.46605672738437
 20
425.83164759954553
 10
59.46605672738437
 20
425.48988865283644
 10
60.14957462080258
 20
424.8063707594182
 10
60.14957462080258
 20
424.4646118127091
 10
60.83309251422079
 20
423.78109391929087
 10
60.83309251422079
 20
423.4393349725818
 10
61.516610407639
 20
422.7558170791636
 10
61.516610407639
 20
422.4140581324545
 10
62.20012830105721
 20
421.73054023903626
 10
62.20012830105721
 20
421.38878129232717
 10
63.56716408789364
 20
420.02174550549074
 10
63.56716408789364
 20
419.67998655878165
 10
64.25068198131184
 20
418.9964686653634
 10
64.25068198131184
 20
418.6547097186543
 10
64.93419987473006
 20
417.9711918252361
 10
64.93419987473006
 20
417.629432878527
 10
65.27595882143916
 20
417.2876739318179
 10
65.27595882143916
 20
416.9459149851088
 10
65.95947671485737
 20
416.26239709169056
 10
65.95947671485737
 20
415.92063814498147
 10
66.64299460827559
 20
415.2371202515633
 10
66.64299460827559
 20
414.89536130485413
 10
67.3265125016938
 20
414.21184341143595
 10
67.3265125016938
 20
413.87008446472686
 10
67.6682714484029
 20
413.5283255180177
 10
67.6682714484029
 20
413.1865665713086
 10
68.35178934182112
 20
412.50304867789043
 10
68.35178934182112
 20
412.1612897311813
 10
69.03530723523933
 20
411.4777718377631
 10
69.03530723523933
 20
411.136012891054
 10
69.71882512865753
 20
410.45249499763577
 10
69.71882512865753
 20
410.1107360509267
 10
70.40234302207574
 20
409.42721815750843
 10
70.40234302207574
 20
409.08545921079934
 10
71.42761986220306
 20
408.06018237067207
 10
71.42761986220306
 20
407.7184234239629
 10
72.11113775562127
 20
407.03490553054473
 10
72.11113775562127
 20
406.69314658383564
 10
72.45289670233038
 20
406.3513876371265
 10
72.45289670233038
 20
406.0096286904174
 10
73.13641459574859
 20
405.3261107969992
 10
73.13641459574859
 20
404.98435185029007
 10
73.8199324891668
 20
404.3008339568719
 10
73.8199324891668
 20
403.9590750101628
 10
74.16169143587591
 20
403.61731606345364
 10
74.16169143587591
 20
403.27555711674455
 10
74.84520932929412
 20
402.59203922332637
 10
74.84520932929412
 20
402.2502802766172
 10
75.18696827600323
 20
401.9085213299081
 10
75.18696827600323
 20
401.56676238319903
 10
75.52872722271233
 20
401.22500343648994
 10
75.52872722271233
 20
400.88324448978085
 10
75.87048616942144
 20
400.5414855430717
 10
75.87048616942144
 20
400.1997265963626
 10
76.21224511613055
 20
399.8579676496535
 10
76.21224511613055
 20
399.5162087029444
 10
76.55400406283965
 20
399.1744497562353
 10
76.55400406283965
 20
398.8326908095262
 10
77.23752195625785
 20
398.149172916108
 10
77.23752195625785
 20
397.80741396939885
 10
78.94631668980338
 20
396.09861923585333
 10
79.28807563651249
 20
396.09861923585333
 10
79.9715935299307
 20
395.41510134243515
 10
80.3133524766398
 20
395.41510134243515
 10
80.65511142334891
 20
395.073342395726
 10
80.99687037005802
 20
395.073342395726
 10
81.33862931676713
 20
394.7315834490169
 10
81.68038826347623
 20
394.7315834490169
 10
82.02214721018534
 20
394.3898245023078
 10
82.36390615689444
 20
394.3898245023078
 10
82.70566510360355
 20
394.0480655555987
 10
83.04742405031266
 20
394.0480655555987
 10
83.38918299702176
 20
393.7063066088896
 10
83.73094194373087
 20
393.7063066088896
 10
84.07270089043996
 20
393.3645476621805
 10
84.41445983714907
 20
393.3645476621805
 10
84.75621878385817
 20
393.0227887154714
 10
85.09797773056728
 20
393.0227887154714
 10
85.43973667727639
 20
392.6810297687623
 10
85.78149562398549
 20
392.6810297687623
 10
86.1232545706946
 20
392.3392708220532
 10
86.4650135174037
 20
392.3392708220532
 10
87.14853141082192
 20
391.65575292863497
 10
87.49029035753102
 20
391.65575292863497
 10
88.51556719765834
 20
390.63047608850763
 10
88.85732614436745
 20
390.63047608850763
 10
89.54084403778566
 20
389.94695819508945
 10
89.88260298449477
 20
389.94695819508945
 10
92.2749156114585
 20
387.5546455681257
 10
92.6166745581676
 20
387.5546455681257
 10
95.69250507854956
 20
384.47881504774375
 10
96.03426402525866
 20
384.47881504774375
 10
96.71778191867688
 20
383.79529715432557
 10
97.05954086538598
 20
383.79529715432557
 10
98.0848177055133
 20
382.77002031419823
 10
98.4265766522224
 20
382.77002031419823
 10
98.7683355989315
 20
382.42826136748914
 10
99.1100945456406
 20
382.42826136748914
 10
99.79361243905882
 20
381.7447434740709
 10
100.13537138576793
 20
381.7447434740709
 10
100.81888927918614
 20
381.0612255806527
 10
101.16064822589524
 20
381.0612255806527
 10
101.50240717260435
 20
380.71946663394357
 10
101.84416611931346
 20
380.71946663394357
 10
102.18592506602256
 20
380.3777076872345
 10
102.52768401273167
 20
380.3777076872345
 10
102.86944295944078
 20
380.0359487405254
 10
103.21120190614988
 20
380.0359487405254
 10
103.55296085285899
 20
379.6941897938163
 10
103.8947197995681
 20
379.6941897938163
 10
104.2364787462772
 20
379.35243084710714
 10
104.5782376929863
 20
379.35243084710714
 10
104.91999663969541
 20
379.01067190039805
 10
105.60351453311362
 20
379.01067190039805
 10
105.94527347982272
 20
378.66891295368896
 10
106.28703242653182
 20
378.66891295368896
 10
106.62879137324093
 20
378.32715400697987
 10
106.97055031995004
 20
378.32715400697987
 10
107.31230926665914
 20
377.9853950602708
 10
107.65406821336825
 20
377.9853950602708
 10
107.99582716007735
 20
377.6436361135616
 10
108.33758610678646
 20
377.6436361135616
 10
108.67934505349557
 20
377.30187716685253
 10
109.02110400020467
 20
377.30187716685253
 10
109.36286294691378
 20
376.96011822014344
 10
109.70462189362289
 20
376.96011822014344
 10
110.04638084033199
 20
376.61835927343435
 10
110.3881397870411
 20
376.61835927343435
 10
110.7298987337502
 20
376.2766003267252
 10
111.07165768045931
 20
376.2766003267252
 10
111.41341662716842
 20
375.9348413800161
 10
111.75517557387752
 20
375.9348413800161
 10
112.09693452058663
 20
375.593082433307
 10
113.12221136071393
 20
375.593082433307
 10
113.46397030742304
 20
375.2513234865979
 10
114.48924714755036
 20
375.2513234865979
 10
114.83100609425946
 20
374.9095645398888
 10
115.17276504096857
 20
374.9095645398888
 10
115.51452398767768
 20
374.5678055931797
 10
116.19804188109589
 20
374.5678055931797
 10
116.539800827805
 20
374.2260466464706
 10
117.90683661464142
 20
374.2260466464706
 10
118.24859556135053
 20
374.5678055931797
 10
120.29914924160516
 20
374.5678055931797
 10
120.64090818831426
 20
374.9095645398888
 10
122.34970292185979
 20
374.9095645398888
 10
122.6914618685689
 20
375.2513234865979
 10
125.76729238895085
 20
375.2513234865979
 10
126.10905133565996
 20
375.593082433307
 10
130.21015869616923
 20
375.593082433307
 10
130.55191764287832
 20
375.9348413800161
 10
134.6530250033876
 20
375.9348413800161
 10
134.9947839500967
 20
375.593082433307
 10
138.75413236389684
 20
375.593082433307
 10
139.09589131060596
 20
375.9348413800161
 10
144.22227551124254
 20
375.9348413800161
 10
144.56403445795166
 20
375.593082433307
 10
149.69041865858824
 20
375.593082433307
 10
150.03217760529733
 20
375.2513234865979
 10
153.1080081256793
 20
375.2513234865979
 10
153.4497670723884
 20
374.9095645398888
 10
155.1585618059339
 20
374.9095645398888
 10
155.50032075264303
 20
374.5678055931797
 10
157.20911548618855
 20
374.5678055931797
 10
157.55087443289767
 20
374.2260466464706
 10
159.6014281131523
 20
374.2260466464706
 10
159.9431870598614
 20
373.8842876997615
  0
LWPOLYLINE
  5
8B
330
17
100
AcDbEntity
  8
0
100
AcDbPolyline
 90
1017
 70
0
 10
159.9431870598614
 20
373.8842876997615
 10
163.36077652695246
 20
373.8842876997615
 10
163.70253547366156
 20
373.54252875305235
 10
165.7530891539162
 20
373.54252875305235
 10
166.0948481006253
 20
373.20076980634326
 10
170.19595546113456
 20
373.20076980634326
 10
170.53771440784368
 20
372.85901085963417
 10
171.56299124797098
 20
372.85901085963417
 10
171.9047501946801
 20
372.5172519129251
 10
172.9300270348074
 20
372.5172519129251
 10
173.27178598151653
 20
372.1754929662159
 10
174.29706282164383
 20
372.1754929662159
 10
174.63882176835295
 20
371.83373401950684
 10
175.66409860848026
 20
371.83373401950684
 10
176.00585755518935
 20
371.49197507279774
 10
178.056411235444
 20
371.49197507279774
 10
178.3981701821531
 20
371.15021612608865
 10
179.08168807557132
 20
371.15021612608865
 10
179.4234470222804
 20
370.80845717937956
 10
180.10696491569863
 20
370.80845717937956
 10
180.44872386240775
 20
370.4666982326704
 10
181.13224175582596
 20
370.4666982326704
 10
181.47400070253505
 20
370.1249392859613
 10
182.15751859595326
 20
370.1249392859613
 10
182.49927754266236
 20
369.7831803392522
 10
183.5245543827897
 20
369.7831803392522
 10
183.86631332949878
 20
369.44142139254313
 10
184.8915901696261
 20
369.44142139254313
 10
185.2333491163352
 20
369.099662445834
 10
186.60038490317163
 20
369.099662445834
 10
186.94214384988075
 20
368.7579034991249
 10
187.96742069000805
 20
368.7579034991249
 10
188.30917963671718
 20
368.4161445524158
 10
188.9926975301354
 20
368.4161445524158
 10
189.33445647684448
 20
368.0743856057067
 10
190.0179743702627
 20
368.0743856057067
 10
190.35973331697178
 20
367.73262665899756
 10
192.06852805051733
 20
367.73262665899756
 10
192.41028699722642
 20
367.39086771228847
 10
193.09380489064463
 20
367.39086771228847
 10
193.43556383735375
 20
367.0491087655794
 10
194.46084067748106
 20
367.0491087655794
 10
194.80259962419018
 20
366.7073498188703
 10
195.4861175176084
 20
366.7073498188703
 10
195.82787646431748
 20
366.36559087216114
 10
196.8531533044448
 20
366.36559087216114
 10
197.1949122511539
 20
366.02383192545204
 10
197.87843014457212
 20
366.02383192545204
 10
198.2201890912812
 20
365.68207297874295
 10
199.24546593140855
 20
365.68207297874295
 10
199.58722487811764
 20
365.34031403203386
 10
200.95426066495406
 20
365.34031403203386
 10
201.29601961166318
 20
364.9985550853247
 10
202.6630553984996
 20
364.9985550853247
 10
203.0048143452087
 20
364.6567961386156
 10
204.37185013204513
 20
364.6567961386156
 10
204.71360907875422
 20
364.3150371919065
 10
205.39712697217243
 20
364.3150371919065
 10
205.73888591888155
 20
363.97327824519743
 10
207.10592170571798
 20
363.97327824519743
 10
207.44768065242707
 20
363.63151929848834
 10
209.4982343326817
 20
363.63151929848834
 10
209.83999327939082
 20
363.2897603517792
 10
210.86527011951813
 20
363.2897603517792
 10
211.20702906622725
 20
362.9480014050701
 10
212.57406485306365
 20
362.9480014050701
 10
212.91582379977277
 20
362.606242458361
 10
214.2828595866092
 20
362.606242458361
 10
214.62461853331828
 20
362.2644835116519
 10
216.33341326686383
 20
362.2644835116519
 10
216.67517221357292
 20
361.92272456494277
 10
218.04220800040935
 20
361.92272456494277
 10
218.38396694711847
 20
361.5809656182337
 10
219.40924378724577
 20
361.5809656182337
 10
219.75100273395486
 20
361.2392066715246
 10
221.1180385207913
 20
361.2392066715246
 10
221.4597974675004
 20
360.8974477248155
 10
222.82683325433683
 20
360.8974477248155
 10
223.16859220104593
 20
360.55568877810634
 10
224.53562798788235
 20
360.55568877810634
 10
224.87738693459147
 20
360.21392983139725
 10
226.586181668137
 20
360.21392983139725
 10
226.92794061484608
 20
359.87217088468816
 10
228.63673534839162
 20
359.87217088468816
 10
228.97849429510072
 20
359.53041193797907
 10
230.00377113522805
 20
359.53041193797907
 10
230.34553008193714
 20
359.1886529912699
 10
231.37080692206447
 20
359.1886529912699
 10
231.71256586877357
 20
358.8468940445608
 10
233.42136060231908
 20
358.8468940445608
 10
233.7631195490282
 20
358.50513509785173
 10
235.13015533586463
 20
358.50513509785173
 10
235.47191428257372
 20
358.16337615114264
 10
236.83895006941015
 20
358.16337615114264
 10
237.18070901611927
 20
357.8216172044335
 10
239.2312626963739
 20
357.8216172044335
 10
239.573021643083
 20
357.4798582577244
 10
240.59829848321033
 20
357.4798582577244
 10
240.94005742991942
 20
357.1380993110153
 10
242.30709321675585
 20
357.1380993110153
 10
242.64885216346494
 20
356.7963403643062
 10
243.67412900359227
 20
356.7963403643062
 10
244.01588795030136
 20
356.4545814175971
 10
246.066441630556
 20
356.4545814175971
 10
246.40820057726512
 20
356.112822470888
 10
248.11699531081064
 20
356.112822470888
 10
248.45875425751973
 20
355.7710635241789
 10
249.82579004435615
 20
355.7710635241789
 10
250.16754899106527
 20
355.4293045774698
 10
251.19282583119258
 20
355.4293045774698
 10
251.5345847779017
 20
355.0875456307607
 10
254.26865635157455
 20
355.0875456307607
 10
254.61041529828364
 20
354.74578668405155
 10
256.6609689785383
 20
354.74578668405155
 10
257.00272792524737
 20
354.40402773734246
 10
258.7115226587929
 20
354.40402773734246
 10
259.05328160550204
 20
354.06226879063337
 10
261.7873531791749
 20
354.06226879063337
 10
262.129112125884
 20
353.7205098439243
 10
264.5214247528477
 20
353.7205098439243
 10
264.8631836995568
 20
353.3787508972151
 10
267.93901421993877
 20
353.3787508972151
 10
268.28077316664786
 20
353.03699195050604
 10
270.33132684690247
 20
353.03699195050604
 10
270.6730857936116
 20
352.69523300379694
 10
272.7236394738662
 20
352.69523300379694
 10
273.0653984205753
 20
352.35347405708785
 10
275.79946999424817
 20
352.35347405708785
 10
276.1412289409573
 20
352.0117151103787
 10
279.90057735475744
 20
352.0117151103787
 10
280.24233630146654
 20
351.6699561636696
 10
282.6346489284303
 20
351.6699561636696
 10
282.9764078751394
 20
351.3281972169605
 10
285.36872050210314
 20
351.3281972169605
 10
285.71047944881224
 20
350.9864382702514
 10
289.1280689159033
 20
350.9864382702514
 10
289.4698278626124
 20
350.6446793235423
 10
292.20389943628527
 20
350.6446793235423
 10
292.54565838299436
 20
350.3029203768332
 10
294.59621206324897
 20
350.3029203768332
 10
294.9379710099581
 20
349.9611614301241
 10
297.3302836369218
 20
349.9611614301241
 10
297.67204258363097
 20
349.619402483415
 10
299.7225962638856
 20
349.619402483415
 10
300.06435521059467
 20
349.2776435367059
 10
302.11490889084934
 20
349.2776435367059
 10
302.4566678375584
 20
348.93588458999676
 10
306.2160162513586
 20
348.93588458999676
 10
306.5577751980677
 20
348.59412564328767
 10
310.658882558577
 20
348.59412564328767
 10
311.00064150528607
 20
348.2523666965786
 10
313.0511951855407
 20
348.2523666965786
 10
313.3929541322498
 20
347.9106077498695
 10
316.1270257059226
 20
347.9106077498695
 10
316.46878465263177
 20
347.56884880316034
 10
317.8358204394682
 20
347.56884880316034
 10
318.1775793861773
 20
347.22708985645124
 10
319.8863741197228
 20
347.22708985645124
 10
320.2281330664319
 20
346.88533090974215
 10
321.5951688532683
 20
346.88533090974215
 10
321.9369277999774
 20
346.54357196303306
 10
323.9874814802321
 20
346.54357196303306
 10
324.32924042694117
 20
346.2018130163239
 10
326.7215530539049
 20
346.2018130163239
 10
327.063312000614
 20
345.8600540696148
 10
331.1644193611233
 20
345.8600540696148
 10
331.5061783078324
 20
345.5182951229057
 10
334.5820088282143
 20
345.5182951229057
 10
334.9237677749235
 20
345.17653617619663
 10
337.9995982953054
 20
345.17653617619663
 10
338.3413572420145
 20
344.8347772294875
 10
342.1007056558147
 20
344.8347772294875
 10
342.4424646025238
 20
344.4930182827784
 10
347.56884880316034
 20
344.4930182827784
 10
347.9106077498695
 20
344.1512593360693
 10
353.03699195050604
 20
344.1512593360693
 10
353.3787508972151
 20
343.8095003893602
 10
355.7710635241789
 20
343.8095003893602
 10
356.112822470888
 20
343.46774144265106
 10
359.1886529912699
 20
343.46774144265106
 10
359.53041193797907
 20
343.12598249594197
 10
359.87217088468816
 20
343.46774144265106
 10
360.8974477248155
 20
343.46774144265106
 10
361.2392066715246
 20
343.12598249594197
 10
363.2897603517792
 20
343.12598249594197
 10
363.63151929848834
 20
342.7842235492329
 10
366.02383192545204
 20
342.7842235492329
 10
366.36559087216114
 20
342.4424646025238
 10
369.7831803392522
 20
342.4424646025238
 10
370.1249392859613
 20
342.1007056558147
 10
377.9853950602708
 20
342.1007056558147
 10
378.32715400697987
 20
341.75894670910554
 10
384.82057399445284
 20
341.75894670910554
 10
385.162332941162
 20
341.41718776239645
 10
388.579922408253
 20
341.41718776239645
 10
388.9216813549621
 20
341.07542881568736
 10
395.073342395726
 20
341.07542881568736
 10
395.41510134243515
 20
340.73366986897827
 10
400.88324448978085
 20
340.73366986897827
 10
401.22500343648994
 20
340.3919109222691
 10
407.7184234239629
 20
340.3919109222691
 10
408.06018237067207
 20
340.05015197556
 10
421.0470223456181
 20
340.05015197556
 10
421.38878129232717
 20
339.70839302885094
 10
426.1734065462546
 20
339.70839302885094
 10
426.5151654929637
 20
339.36663408214184
 10
433.35034442714584
 20
339.36663408214184
 10
433.69210337385493
 20
339.0248751354327
 10
443.94487177512815
 20
339.0248751354327
 10
444.28663072183724
 20
338.6831161887236
 10
452.14708649614664
 20
338.6831161887236
 10
452.48884544285573
 20
338.3413572420145
 10
464.79216752438356
 20
338.3413572420145
 10
465.13392647109265
 20
338.6831161887236
 10
477.0954896059114
 20
338.6831161887236
 10
477.4372485526205
 20
338.3413572420145
 10
490.7658474742756
 20
338.3413572420145
 10
491.10760642098467
 20
337.9995982953054
 10
508.8790716498582
 20
337.9995982953054
 10
509.2208305965673
 20
338.3413572420145
 10
510.2461074366946
 20
338.3413572420145
 10
510.5878663834037
 20
337.9995982953054
 10
529.7263673991137
 20
337.9995982953054
 10
530.0681263458227
 20
338.3413572420145
 10
536.9033052800048
 20
338.3413572420145
 10
537.2450642267139
 20
338.6831161887236
 10
543.0549663207687
 20
338.6831161887236
 10
543.3967252674778
 20
339.0248751354327
 10
551.2571810417872
 20
339.0248751354327
 10
551.5989399884963
 20
339.36663408214184
 10
557.7506010292602
 20
339.36663408214184
 10
558.0923599759694
 20
339.70839302885094
 10
564.2440210167333
 20
339.70839302885094
 10
564.5857799634424
 20
340.05015197556
 10
568.3451283772425
 20
340.05015197556
 10
568.6868873239516
 20
340.3919109222691
 10
572.4462357377519
 20
340.3919109222691
 10
572.787994684461
 20
340.73366986897827
 10
582.699004139025
 20
340.73366986897827
 10
583.040763085734
 20
341.07542881568736
 10
587.8253883396616
 20
341.07542881568736
 10
588.1671472863707
 20
341.41718776239645
 10
591.9264957001708
 20
341.41718776239645
 10
592.2682546468799
 20
341.75894670910554
 10
595.0023262205527
 20
341.75894670910554
 10
595.3440851672619
 20
342.1007056558147
 10
600.4704693678984
 20
342.1007056558147
 10
600.8122283146075
 20
342.4424646025238
 10
604.9133356751169
 20
342.4424646025238
 10
605.255094621826
 20
342.7842235492329
 10
608.672684088917
 20
342.7842235492329
 10
609.0144430356261
 20
343.12598249594197
 10
611.0649967158807
 20
343.12598249594197
 10
611.4067556625898
 20
343.46774144265106
 10
614.8243451296809
 20
343.46774144265106
 10
615.16610407639
 20
343.8095003893602
 10
618.5836935434811
 20
343.8095003893602
 10
618.9254524901902
 20
344.1512593360693
 10
622.3430419572812
 20
344.1512593360693
 10
622.6848009039903
 20
344.4930182827784
 10
626.7859082644997
 20
344.4930182827784
 10
627.1276672112087
 20
344.8347772294875
 10
631.228774571718
 20
344.8347772294875
 10
631.570533518427
 20
345.17653617619663
 10
634.3046050920999
 20
345.17653617619663
 10
634.646364038809
 20
345.5182951229057
 10
639.0892303460274
 20
345.5182951229057
 10
639.4309892927365
 20
345.8600540696148
 10
642.5068198131185
 20
345.8600540696148
 10
642.8485787598275
 20
346.2018130163239
 10
647.9749629604642
 20
346.2018130163239
 10
648.3167219071732
 20
346.54357196303306
 10
654.8101418946462
 20
346.54357196303306
 10
655.1519008413553
 20
346.88533090974215
 10
661.6453208288284
 20
346.88533090974215
 10
661.9870797755375
 20
347.22708985645124
 10
669.847535549847
 20
347.22708985645124
 10
670.189294496556
 20
347.56884880316034
 10
674.9739197504834
 20
347.56884880316034
 10
675.3156786971925
 20
347.9106077498695
 10
680.4420628978291
 20
347.9106077498695
 10
680.7838218445382
 20
348.2523666965786
 10
684.5431702583385
 20
348.2523666965786
 10
684.8849292050476
 20
348.59412564328767
 10
687.6190007787204
 20
348.59412564328767
 10
687.9607597254295
 20
348.93588458999676
 10
692.0618670859387
 20
348.93588458999676
 10
692.4036260326478
 20
349.2776435367059
 10
695.1376976063207
 20
349.2776435367059
 10
695.4794565530298
 20
349.619402483415
 10
699.5805639135391
 20
349.619402483415
 10
699.9223228602482
 20
349.9611614301241
 10
702.314635487212
 20
349.9611614301241
 10
702.656394433921
 20
350.3029203768332
 10
708.1245375812667
 20
350.3029203768332
 10
708.4662965279758
 20
350.6446793235423
 10
712.567403888485
 20
350.6446793235423
 10
712.9091628351943
 20
350.9864382702514
 10
720.0861007160854
 20
350.9864382702514
 10
720.4278596627945
 20
351.3281972169605
 10
724.1872080765946
 20
351.3281972169605
 10
724.5289670233038
 20
351.6699561636696
 10
728.288315437104
 20
351.6699561636696
 10
728.630074383813
 20
352.0117151103787
 10
732.3894227976132
 20
352.0117151103787
 10
732.7311817443223
 20
352.35347405708785
 10
735.4652533179951
 20
352.35347405708785
 10
735.8070122647043
 20
352.69523300379694
 10
740.2498785719226
 20
352.69523300379694
 10
740.5916375186317
 20
353.03699195050604
 10
745.0345038258502
 20
353.03699195050604
 10
745.3762627725592
 20
353.3787508972151
 10
751.8696827600322
 20
353.3787508972151
 10
752.2114417067413
 20
353.7205098439243
 10
758.7048616942143
 20
353.7205098439243
 10
759.0466206409235
 20
354.06226879063337
 10
767.2488353619419
 20
354.06226879063337
 10
767.5905943086511
 20
354.40402773734246
 10
776.1345679763788
 20
354.40402773734246
 10
776.4763269230879
 20
354.74578668405155
 10
784.6785416441064
 20
354.74578668405155
 10
785.0203005908155
 20
355.0875456307607
 10
789.4631668980338
 20
355.0875456307607
 10
789.8049258447429
 20
355.4293045774698
 10
795.9565868855068
 20
355.4293045774698
 10
796.298345832216
 20
355.7710635241789
 10
799.715935299307
 20
355.7710635241789
 10
800.0576942460161
 20
356.112822470888
 10
804.5005605532344
 20
356.112822470888
 10
804.8423194999436
 20
356.4545814175971
 10
808.2599089670347
 20
356.4545814175971
 10
808.6016679137438
 20
356.7963403643062
 10
811.6774984341257
 20
356.7963403643062
 10
812.0192573808348
 20
357.1380993110153
 10
816.4621236880532
 20
357.1380993110153
 10
816.8038826347623
 20
357.4798582577244
 10
821.9302668353989
 20
357.4798582577244
 10
822.272025782108
 20
357.8216172044335
 10
827.7401689294537
 20
357.8216172044335
 10
828.0819278761628
 20
358.16337615114264
 10
832.5247941833811
 20
358.16337615114264
 10
832.8665531300902
 20
358.50513509785173
 10
836.6259015438904
 20
358.50513509785173
 10
836.9676604905995
 20
358.8468940445608
 10
842.4358036379452
 20
358.8468940445608
 10
842.7775625846543
 20
359.1886529912699
 10
846.8786699451636
 20
359.1886529912699
 10
847.2204288918726
 20
359.53041193797907
 10
850.2962594122546
 20
359.53041193797907
 10
850.6380183589638
 20
359.87217088468816
 10
854.3973667727639
 20
359.87217088468816
 10
854.739125719473
 20
360.21392983139725
 10
857.1314383464368
 20
360.21392983139725
 10
857.4731972931459
 20
360.55568877810634
 10
863.6248583339097
 20
360.55568877810634
 10
863.9666172806188
 20
360.8974477248155
 10
867.0424478010008
 20
360.8974477248155
 10
867.3842067477099
 20
361.2392066715246
 10
871.1435551615101
 20
361.2392066715246
 10
871.4853141082192
 20
361.5809656182337
 10
873.877626735183
 20
361.5809656182337
 10
874.219385681892
 20
361.92272456494277
 10
876.2699393621466
 20
361.92272456494277
 10
876.6116983088558
 20
362.2644835116519
 10
879.3457698825287
 20
362.2644835116519
 10
879.6875288292377
 20
362.606242458361
 10
882.0798414562015
 20
362.606242458361
 10
882.4216004029106
 20
362.9480014050701
 10
885.4974309232925
 20
362.9480014050701
 10
885.8391898700016
 20
363.2897603517792
 10
888.9150203903836
 20
363.2897603517792
 10
889.2567793370927
 20
363.63151929848834
 10
892.6743688041837
 20
363.63151929848834
 10
893.0161277508928
 20
363.97327824519743
 10
896.4337172179839
 20
363.97327824519743
 10
896.775476164693
 20
364.3150371919065
 10
900.1930656317841
 20
364.3150371919065
 10
900.5348245784932
 20
364.6567961386156
 10
905.3194498324207
 20
364.6567961386156
 10
905.6612087791298
 20
364.9985550853247
 10
910.4458340330572
 20
364.9985550853247
 10
910.7875929797664
 20
364.6567961386156
 10
913.5216645534391
 20
364.6567961386156
 10
913.8634235001483
 20
364.3150371919065
 10
914.5469413935665
 20
364.3150371919065
 10
915.5722182336938
 20
363.2897603517792
 10
915.5722182336938
 20
362.606242458361
 10
915.9139771804029
 20
362.2644835116519
 10
915.9139771804029
 20
355.7710635241789
 10
915.5722182336938
 20
355.4293045774698
 10
915.5722182336938
 20
353.7205098439243
 10
915.9139771804029
 20
353.3787508972151
 10
915.9139771804029
 20
352.69523300379694
 10
915.5722182336938
 20
352.35347405708785
 10
915.5722182336938
 20
351.3281972169605
 10
915.9139771804029
 20
350.9864382702514
 10
915.9139771804029
 20
346.2018130163239
 10
916.255736127112
 20
345.8600540696148
 10
916.255736127112
 20
344.1512593360693
 10
916.5974950738212
 20
343.8095003893602
 10
916.5974950738212
 20
342.4424646025238
 10
916.9392540205303
 20
342.1007056558147
 10
916.9392540205303
 20
341.07542881568736
 10
917.2810129672393
 20
340.73366986897827
 10
917.2810129672393
 20
339.36663408214184
 10
917.6227719139484
 20
339.0248751354327
 10
917.6227719139484
 20
337.3160804018872
 10
917.9645308606575
 20
336.9743214551781
 10
917.9645308606575
 20
334.5820088282143
 10
918.3062898073666
 20
334.24024988150524
 10
918.3062898073666
 20
324.32924042694117
 10
918.6480487540757
 20
323.9874814802321
 10
918.6480487540757
 20
319.5446151730137
 10
918.9898077007848
 20
319.2028562263046
 10
918.9898077007848
 20
318.86109727959547
 10
918.6480487540757
 20
318.5193383328864
 10
918.6480487540757
 20
317.49406149275904
 10
918.9898077007848
 20
317.15230254604995
 10
918.9898077007848
 20
315.44350781250444
 10
918.6480487540757
 20
315.10174886579534
 10
918.6480487540757
 20
310.658882558577
 10
918.3062898073666
 20
310.3171236118678
 10
918.3062898073666
 20
306.2160162513586
 10
917.9645308606575
 20
305.87425730464946
 10
917.9645308606575
 20
302.11490889084934
 10
917.6227719139484
 20
301.7731499441402
 10
917.6227719139484
 20
298.69731942375824
 10
917.2810129672393
 20
298.35556047704915
 10
917.2810129672393
 20
278.8753005146301
 10
917.6227719139484
 20
278.533541567921
 10
917.6227719139484
 20
274.7741931541209
 10
917.9645308606575
 20
274.43243420741175
 10
917.9645308606575
 20
272.04012158044804
 10
918.3062898073666
 20
271.6983626337389
 10
918.3062898073666
 20
267.5972552732297
 10
918.6480487540757
 20
267.25549632652053
 10
918.6480487540757
 20
256.3192100318292
 10
918.3062898073666
 20
255.97745108512007
 10
918.3062898073666
 20
249.82579004435615
 10
917.9645308606575
 20
249.48403109764706
 10
917.9645308606575
 20
244.35764689701048
 10
917.6227719139484
 20
244.01588795030136
 10
917.6227719139484
 20
240.2565395365012
 10
917.2810129672393
 20
239.91478058979212
 10
917.2810129672393
 20
232.7378427089009
 10
916.9392540205303
 20
232.39608376219178
 10
916.9392540205303
 20
231.37080692206447
 10
917.2810129672393
 20
231.02904797535535
 10
916.9392540205303
 20
230.68728902864626
 10
916.9392540205303
 20
224.53562798788235
 10
917.2810129672393
 20
224.19386904117326
 10
917.2810129672393
 20
222.82683325433683
 10
916.9392540205303
 20
222.4850743076277
 10
916.9392540205303
 20
221.4597974675004
 10
917.2810129672393
 20
221.1180385207913
 10
917.2810129672393
 20
217.01693116028204
 10
917.6227719139484
 20
216.67517221357292
 10
917.6227719139484
 20
209.4982343326817
 10
917.9645308606575
 20
209.1564753859726
 10
917.9645308606575
 20
202.6630553984996
 10
918.3062898073666
 20
202.3212964517905
 10
918.3062898073666
 20
201.9795375050814
 10
917.9645308606575
 20
201.63777855837228
 10
917.9645308606575
 20
200.95426066495406
 10
918.3062898073666
 20
200.61250171824497
 10
918.3062898073666
 20
183.18279543608057
 10
917.9645308606575
 20
182.84103648937148
 10
917.9645308606575
 20
181.47400070253505
 10
918.3062898073666
 20
181.13224175582596
 10
918.3062898073666
 20
180.79048280911684
 10
917.9645308606575
 20
180.44872386240775
 10
917.9645308606575
 20
167.46188388746174
 10
917.6227719139484
 20
167.12012494075262
 10
917.6227719139484
 20
157.20911548618855
 10
917.2810129672393
 20
156.86735653947946
 10
917.2810129672393
 20
143.53875761782433
 10
916.9392540205303
 20
143.19699867111524
 10
916.9392540205303
 20
138.75413236389684
 10
916.5974950738212
 20
138.41237341718775
 10
916.5974950738212
 20
133.28598921655117
 10
916.255736127112
 20
132.94423026984205
 10
916.255736127112
 20
126.45081028236906
 10
915.9139771804029
 20
126.10905133565996
 10
915.9139771804029
 20
121.32442608173247
 10
915.5722182336938
 20
120.98266713502336
 10
915.5722182336938
 20
118.93211345476874
 10
915.2304592869847
 20
118.59035450805963
 10
915.2304592869847
 20
116.539800827805
 10
914.8887003402756
 20
116.19804188109589
 10
914.8887003402756
 20
114.48924714755036
 10
914.5469413935665
 20
114.14748820084125
 10
914.5469413935665
 20
112.78045241400484
 10
914.2051824468574
 20
112.43869346729574
 10
914.2051824468574
 20
110.04638084033199
 10
913.8634235001483
 20
109.70462189362289
 10
913.8634235001483
 20
108.33758610678646
 10
913.5216645534391
 20
107.99582716007735
 10
913.5216645534391
 20
107.65406821336825
 10
913.17990560673
 20
107.31230926665914
 10
913.17990560673
 20
106.97055031995004
 10
912.4963877133118
 20
106.28703242653182
 10
904.2941729922933
 20
106.28703242653182
 10
903.9524140455842
 20
106.62879137324093
 10
900.8765835252022
 20
106.62879137324093
 10
900.5348245784932
 20
106.97055031995004
 10
896.775476164693
 20
106.97055031995004
 10
896.4337172179839
 20
107.31230926665914
 10
894.3831635377293
 20
107.31230926665914
 10
894.0414045910202
 20
107.65406821336825
 10
891.6490919640564
 20
107.65406821336825
 10
891.3073330173473
 20
107.99582716007735
 10
888.2315024969654
 20
107.99582716007735
 10
887.8897435502563
 20
108.33758610678646
 10
885.4974309232925
 20
108.33758610678646
 10
885.1556719765834
 20
108.67934505349557
 10
883.4468772430379
 20
108.67934505349557
 10
883.1051182963288
 20
109.02110400020467
 10
881.3963235627832
 20
109.02110400020467
 10
881.0545646160741
 20
109.36286294691378
 10
879.0040109358195
 20
109.36286294691378
 10
878.6622519891104
 20
109.70462189362289
 10
876.2699393621466
 20
109.70462189362289
 10
875.9281804154375
 20
110.04638084033199
 10
874.219385681892
 20
110.04638084033199
 10
873.877626735183
 20
110.3881397870411
 10
872.5105909483465
 20
110.3881397870411
 10
872.1688320016374
 20
110.7298987337502
 10
870.1182783213827
 20
110.7298987337502
 10
869.7765193746736
 20
111.07165768045931
 10
867.725965694419
 20
111.07165768045931
 10
867.3842067477099
 20
111.41341662716842
 10
864.3083762273279
 20
111.41341662716842
 10
863.9666172806188
 20
111.75517557387752
 10
861.9160636003642
 20
111.75517557387752
 10
861.5743046536551
 20
112.09693452058663
 10
859.5237509734005
 20
112.09693452058663
 10
859.1819920266914
 20
112.43869346729574
 10
857.4731972931459
 20
112.43869346729574
 10
857.1314383464368
 20
112.78045241400484
 10
854.739125719473
 20
112.78045241400484
 10
854.3973667727639
 20
113.12221136071393
 10
852.6885720392183
 20
113.12221136071393
 10
852.3468130925093
 20
113.46397030742304
 10
849.9545004655455
 20
113.46397030742304
 10
849.6127415188364
 20
113.80572925413215
 10
848.245705732
 20
113.80572925413215
 10
847.9039467852909
 20
114.14748820084125
 10
846.1951520517454
 20
114.14748820084125
 10
845.8533931050363
 20
114.48924714755036
 10
843.1193215313634
 20
114.48924714755036
 10
842.7775625846543
 20
114.83100609425946
 10
836.6259015438904
 20
114.83100609425946
 10
836.2841425971814
 20
115.17276504096857
 10
832.183035236672
 20
115.17276504096857
 10
831.8412762899629
 20
115.51452398767768
 10
828.0819278761628
 20
115.51452398767768
 10
827.7401689294537
 20
115.85628293438678
 10
825.34785630249
 20
115.85628293438678
 10
825.0060973557809
 20
116.19804188109589
 10
821.9302668353989
 20
116.19804188109589
 10
821.5885078886897
 20
116.539800827805
 10
819.8797131551443
 20
116.539800827805
 10
819.5379542084352
 20
116.8815597745141
 10
816.4621236880532
 20
116.8815597745141
 10
816.1203647413441
 20
117.22331872122321
 10
811.6774984341257
 20
117.22331872122321
 10
811.3357394874166
 20
117.56507766793231
 10
806.5511142334891
 20
117.56507766793231
 10
806.20935528678
 20
117.90683661464142
 10
798.6906584591796
 20
117.90683661464142
 10
798.3488995124706
 20
118.24859556135053
 10
791.5137205782885
 20
118.24859556135053
 10
791.1719616315794
 20
118.59035450805963
 10
788.4378900579065
 20
118.59035450805963
 10
788.0961311111975
 20
118.93211345476874
 10
787.7543721644884
 20
118.93211345476874
 10
787.4126132177792
 20
118.59035450805963
 10
786.3873363776519
 20
118.59035450805963
 10
786.0455774309428
 20
118.93211345476874
 10
785.0203005908155
 20
118.93211345476874
 10
784.6785416441064
 20
119.27387240147785
 10
779.8939163901789
 20
119.27387240147785
 10
779.5521574434698
 20
119.61563134818695
 10
777.5016037632151
 20
119.61563134818695
 10
777.159844816506
 20
119.95739029489606
 10
775.1092911362514
 20
119.95739029489606
 10
774.7675321895423
 20
120.29914924160516
 10
772.7169785092876
 20
120.29914924160516
 10
772.3752195625785
 20
120.64090818831426
 10
770.324665882324
 20
120.64090818831426
 10
769.9829069356148
 20
120.98266713502336
 10
763.1477280014327
 20
120.98266713502336
 10
762.8059690547236
 20
121.32442608173247
 10
760.755415374469
 20
121.32442608173247
 10
760.4136564277599
 20
121.66618502844157
 10
757.3378259073779
 20
121.66618502844157
 10
756.9960669606688
 20
122.00794397515068
 10
753.9202364402869
 20
122.00794397515068
 10
753.5784774935778
 20
122.34970292185979
 10
750.844405919905
 20
122.34970292185979
 10
750.5026469731959
 20
122.6914618685689
 10
747.768575399523
 20
122.6914618685689
 10
747.4268164528139
 20
123.033220815278
 10
744.6927448791411
 20
123.033220815278
 10
744.3509859324319
 20
123.3749797619871
 10
740.5916375186317
 20
123.3749797619871
 10
740.2498785719226
 20
123.71673870869621
 10
735.4652533179951
 20
123.71673870869621
 10
735.123494371286
 20
124.05849765540532
 10
732.3894227976132
 20
124.05849765540532
 10
732.0476638509041
 20
124.40025660211442
 10
729.6553512239403
 20
124.40025660211442
 10
729.3135922772312
 20
124.74201554882353
 10
727.2630385969767
 20
124.74201554882353
 10
726.9212796502675
 20
125.08377449553264
 10
725.212484916722
 20
125.08377449553264
 10
724.8707259700129
 20
125.42553344224174
 10
723.1619312364674
 20
125.42553344224174
 10
722.8201722897583
 20
125.76729238895085
 10
717.3520291424126
 20
125.76729238895085
 10
717.0102701957035
 20
126.10905133565996
 10
708.1245375812667
 20
126.10905133565996
 10
707.7827786345576
 20
126.45081028236906
 10
705.0487070608848
 20
126.45081028236906
 10
704.7069481141757
 20
126.79256922907817
 10
701.2893586470846
 20
126.79256922907817
 10
700.9475997003755
 20
127.13432817578727
 10
697.5300102332844
 20
127.13432817578727
 10
697.1882512865753
 20
127.47608712249638
 10
694.4541797129025
 20
127.47608712249638
 10
694.1124207661934
 20
127.81784606920547
 10
691.0365902458115
 20
127.81784606920547
 10
690.6948312991024
 20
128.1596050159146
 10
687.6190007787204
 20
128.1596050159146
 10
687.2772418320113
 20
128.50136396262369
 10
685.5684470984658
 20
128.50136396262369
 10
685.2266881517567
 20
128.8431229093328
 10
682.8343755247929
 20
128.8431229093328
 10
682.4926165780838
 20
129.1848818560419
 10
681.8090986846656
 20
129.1848818560419
 10
681.4673397379565
 20
128.8431229093328
 10
679.758545004411
 20
128.8431229093328
 10
679.4167860577019
 20
129.1848818560419
 10
679.0750271109928
 20
129.1848818560419
 10
678.7332681642837
 20
128.8431229093328
 10
677.3662323774472
 20
128.8431229093328
 10
677.0244734307381
 20
129.1848818560419
 10
674.2904018570653
 20
129.1848818560419
 10
673.9486429103562
 20
129.52664080275102
 10
670.8728123899742
 20
129.52664080275102
 10
670.5310534432651
 20
129.8683997494601
 10
666.4299460827558
 20
129.8683997494601
 10
666.0881871360467
 20
130.21015869616923
 10
664.037633455792
 20
130.21015869616923
 10
663.695874509083
 20
130.55191764287832
 10
660.620043988701
 20
130.55191764287832
 10
660.2782850419919
 20
130.89367658958744
 10
657.8859724150282
 20
130.89367658958744
 10
657.5442134683191
 20
131.23543553629654
 10
655.8354187347736
 20
131.23543553629654
 10
655.4936597880645
 20
131.57719448300563
 10
653.4431061078099
 20
131.57719448300563
 10
653.1013471611008
 20
131.91895342971475
 10
650.709034534137
 20
131.91895342971475
 10
650.3672755874279
 20
132.26071237642384
 10
644.8991324400822
 20
132.26071237642384
 10
644.5573734933731
 20
132.60247132313296
 10
640.7980250795729
 20
132.60247132313296
 10
640.4562661328638
 20
132.94423026984205
 10
637.7221945591909
 20
132.94423026984205
 10
637.3804356124818
 20
133.28598921655117
 10
635.6716408789364
 20
133.28598921655117
 10
635.3298819322272
 20
133.62774816326026
 10
633.9628461453908
 20
133.62774816326026
 10
633.6210871986817
 20
133.96950710996938
 10
632.2540514118452
 20
133.96950710996938
 10
631.9122924651361
 20
134.31126605667848
 10
630.2034977315907
 20
134.31126605667848
 10
629.8617387848816
 20
134.6530250033876
 10
626.7859082644997
 20
134.6530250033876
 10
626.4441493177904
 20
134.9947839500967
 10
622.6848009039903
 20
134.9947839500967
 10
622.3430419572812
 20
135.3365428968058
 10
619.2672114368993
 20
135.3365428968058
 10
618.9254524901902
 20
135.6783018435149
 10
616.8748988099355
 20
135.6783018435149
 10
616.5331398632264
 20
136.02006079022402
 10
614.4825861829718
 20
136.02006079022402
 10
614.1408272362627
 20
136.3618197369331
 10
610.0397198757535
 20
136.3618197369331
 10
609.6979609290444
 20
136.70357868364223
 10
607.6474072487897
 20
136.70357868364223
 10
607.3056483020806
 20
137.04533763035133
 10
603.8880588349896
 20
137.04533763035133
 10
603.5462998882804
 20
137.38709657706045
 10
601.8375051547349
 20
137.38709657706045
 10
601.4957462080258
 20
137.72885552376954
 10
599.4451925277712
 20
137.72885552376954
 10
599.1034335810621
 20
138.07061447047866
 10
594.6605672738436
 20
138.07061447047866
 10
594.3188083271345
 20
138.41237341718775
 10
591.5847367534617
 20
138.41237341718775
 10
591.2429778067526
 20
138.75413236389684
 10
590.2177009666253
 20
138.75413236389684
 10
589.8759420199162
 20
139.09589131060596
 10
588.1671472863707
 20
139.09589131060596
 10
587.8253883396616
 20
139.43765025731506
 10
584.0660399258614
 20
139.43765025731506
 10
583.7242809791522
 20
139.77940920402418
 10
577.2308609916793
 20
139.77940920402418
 10
576.8891020449702
 20
140.12116815073327
 10
573.4715125778791
 20
140.12116815073327
 10
573.12975363117
 20
140.4629270974424
 10
570.0539231107881
 20
140.4629270974424
 10
569.712164164079
 20
140.80468604415148
 10
565.9528157502788
 20
140.80468604415148
 10
565.6110568035697
 20
141.1464449908606
 10
562.5352262831877
 20
141.1464449908606
 10
562.1934673364786
 20
141.4882039375697
 10
559.8011547095149
 20
141.4882039375697
 10
559.4593957628058
 20
141.8299628842788
 10
527.675813718859
 20
141.8299628842788
 10
527.3340547721499
 20
141.4882039375697
 10
521.182393731386
 20
141.4882039375697
 10
520.8406347846769
 20
141.1464449908606
 10
519.4735989978404
 20
141.1464449908606
 10
519.1318400511313
 20
141.4882039375697
 10
517.7648042642949
 20
141.4882039375697
 10
517.4230453175858
 20
141.1464449908606
 10
505.119723236058
 20
141.1464449908606
 10
504.7779642893489
 20
140.80468604415148
 10
498.9680621952941
 20
140.80468604415148
 10
498.62630324858503
 20
140.4629270974424
 10
494.18343694136666
 20
140.4629270974424
 10
493.8416779946575
 20
140.12116815073327
 10
489.74057063414824
 20
140.12116815073327
 10
489.39881168743915
 20
139.77940920402418
 10
485.2977043269299
 20
139.77940920402418
 10
484.9559453802208
 20
139.43765025731506
 10
480.1713201262933
 20
139.43765025731506
 10
479.82956117958423
 20
139.77940920402418
 10
479.4878022328751
 20
139.43765025731506
 10
475.0449359256567
 20
139.43765025731506
 10
474.7031769789476
 20
139.09589131060596
 10
470.26031067172926
 20
139.09589131060596
 10
469.91855172502017
 20
138.75413236389684
 10
464.1086496309654
 20
138.75413236389684
 10
463.7668906842562
 20
138.41237341718775
 10
460.0075422704561
 20
138.41237341718775
 10
459.66578332374695
 20
138.07061447047866
 10
455.56467596323773
 20
138.07061447047866
 10
455.2229170165286
 20
137.72885552376954
 10
441.8943180948735
 20
137.72885552376954
 10
441.5525591481644
 20
137.38709657706045
 10
440.18552336132797
 20
137.38709657706045
 10
439.8437644146189
 20
137.04533763035133
 10
436.0844160008187
 20
137.04533763035133
 10
435.7426570541096
 20
136.70357868364223
 10
432.66682653372766
 20
136.70357868364223
 10
432.3250675870185
 20
136.3618197369331
 10
430.616272853473
 20
136.3618197369331
 10
430.2745139067639
 20
136.02006079022402
 10
422.07229918574535
 20
136.02006079022402
 10
421.73054023903626
 20
135.6783018435149
 10
419.67998655878165
 20
135.6783018435149
 10
419.3382276120725
 20
135.3365428968058
 10
418.9964686653634
 20
135.6783018435149
 10
417.629432878527
 20
135.6783018435149
 10
417.2876739318179
 20
135.3365428968058
 10
415.2371202515633
 20
135.3365428968058
 10
414.89536130485413
 20
134.9947839500967
 10
410.79425394434486
 20
134.9947839500967
 10
410.45249499763577
 20
134.6530250033876
 10
406.69314658383564
 20
134.6530250033876
 10
406.3513876371265
 20
134.31126605667848
 10
402.59203922332637
 20
134.31126605667848
 10
402.2502802766172
 20
133.96950710996938
 10
398.4909318628171
 20
133.96950710996938
 10
398.149172916108
 20
133.62774816326026
 10
396.09861923585333
 20
133.62774816326026
 10
395.75686028914424
 20
133.28598921655117
 10
393.0227887154714
 20
133.28598921655117
 10
392.6810297687623
 20
132.94423026984205
 10
388.9216813549621
 20
132.94423026984205
 10
388.579922408253
 20
132.60247132313296
 10
377.30187716685253
 20
132.60247132313296
 10
376.96011822014344
 20
132.26071237642384
 10
373.54252875305235
 20
132.26071237642384
 10
373.20076980634326
 20
131.91895342971475
 10
369.7831803392522
 20
131.91895342971475
 10
369.44142139254313
 20
131.57719448300563
 10
368.4161445524158
 20
131.57719448300563
 10
368.0743856057067
 20
131.23543553629654
 10
362.2644835116519
 20
131.23543553629654
 10
361.92272456494277
 20
130.89367658958744
 10
356.112822470888
 20
130.89367658958744
 10
355.7710635241789
 20
130.55191764287832
 10
349.2776435367059
 20
130.55191764287832
 10
348.93588458999676
 20
130.21015869616923
 10
346.2018130163239
 20
130.21015869616923
 10
345.8600540696148
 20
129.8683997494601
 10
340.3919109222691
 20
129.8683997494601
 10
340.05015197556
 20
129.52664080275102
 10
334.24024988150524
 20
129.52664080275102
 10
333.89849093479614
 20
129.1848818560419
 10
328.08858884074135
 20
129.1848818560419
 10
327.74682989403226
 20
128.8431229093328
 10
321.5951688532683
 20
128.8431229093328
 10
321.2534099065592
 20
128.50136396262369
 10
318.1775793861773
 20
128.50136396262369
 10
317.8358204394682
 20
128.1596050159146
 10
315.10174886579534
 20
128.1596050159146
 10
314.7599899190862
 20
127.81784606920547
 10
309.97536466515874
 20
127.81784606920547
 10
309.63360571844964
 20
127.47608712249638
 10
307.9248109849041
 20
127.47608712249638
 10
307.583052038195
 20
127.13432817578727
 10
304.8489804645222
 20
127.13432817578727
 10
304.50722151781304
 20
126.79256922907817
 10
300.40611415730376
 20
126.79256922907817
 10
300.06435521059467
 20
126.45081028236906
 10
294.2544531165399
 20
126.45081028236906
 10
293.9126941698308
 20
126.10905133565996
 10
290.1533457560306
 20
126.10905133565996
 10
289.8115868093215
 20
125.76729238895085
 10
286.3939973422305
 20
125.76729238895085
 10
286.05223839552133
 20
125.42553344224174
 10
280.5840952481757
 20
125.42553344224174
 10
280.24233630146654
 20
125.08377449553264
 10
277.1665057810846
 20
125.08377449553264
 10
276.8247468343755
 20
124.74201554882353
 10
275.11595210083
 20
124.74201554882353
 10
274.7741931541209
 20
124.40025660211442
 10
273.40715736728447
 20
124.40025660211442
 10
273.0653984205753
 20
124.05849765540532
 10
270.33132684690247
 20
124.05849765540532
 10
269.9895679001934
 20
123.71673870869621
 10
267.5972552732297
 20
123.71673870869621
 10
267.25549632652053
 20
123.3749797619871
 10
262.47087107259307
 20
123.3749797619871
 10
262.129112125884
 20
123.033220815278
 10
260.76207633904755
 20
123.033220815278
 10
260.42031739233846
 20
122.6914618685689
 10
258.3697637120838
 20
122.6914618685689
 10
258.0280047653747
 20
122.34970292185979
 10
256.3192100318292
 20
122.34970292185979
 10
255.97745108512007
 20
122.00794397515068
 10
247.43347741739242
 20
122.00794397515068
 10
247.09171847068333
 20
121.66618502844157
 10
246.066441630556
 20
121.66618502844157
 10
245.7246826838469
 20
121.32442608173247
 10
245.0411647904287
 20
121.32442608173247
 10
244.69940584371957
 20
120.98266713502336
 10
242.30709321675585
 20
120.98266713502336
 10
241.96533427004672
 20
120.64090818831426
 10
238.88950374966478
 20
120.64090818831426
 10
238.5477448029557
 20
120.29914924160516
 10
236.49719112270105
 20
120.29914924160516
 10
236.15543217599193
 20
119.95739029489606
 10
235.13015533586463
 20
119.95739029489606
 10
234.7883963891555
 20
119.61563134818695
 10
234.1048784957373
 20
119.61563134818695
 10
233.7631195490282
 20
119.27387240147785
 10
232.39608376219178
 20
119.27387240147785
 10
232.0543248154827
 20
118.93211345476874
 10
229.32025324180984
 20
118.93211345476874
 10
228.97849429510072
 20
118.59035450805963
 10
227.2696995615552
 20
118.59035450805963
 10
226.92794061484608
 20
118.24859556135053
 10
225.90266377471877
 20
118.24859556135053
 10
225.56090482800968
 20
117.90683661464142
 10
223.16859220104593
 20
117.90683661464142
 10
222.82683325433683
 20
117.56507766793231
 10
221.1180385207913
 20
117.56507766793231
 10
220.7762795740822
 20
117.22331872122321
 10
214.9663774800274
 20
117.22331872122321
 10
214.62461853331828
 20
116.8815597745141
 10
214.2828595866092
 20
116.8815597745141
 10
213.94110063990007
 20
116.539800827805
 10
213.25758274648186
 20
116.539800827805
 10
212.91582379977277
 20
116.19804188109589
 10
211.54878801293634
 20
116.19804188109589
 10
211.20702906622725
 20
115.85628293438678
 10
209.1564753859726
 20
115.85628293438678
 10
208.8147164392635
 20
115.51452398767768
 10
207.7894395991362
 20
115.51452398767768
 10
207.44768065242707
 20
115.17276504096857
 10
205.73888591888155
 20
115.17276504096857
 10
205.39712697217243
 20
114.83100609425946
 10
204.03009118533603
 20
114.83100609425946
 10
203.6883322386269
 20
114.48924714755036
 10
202.6630553984996
 20
114.48924714755036
 10
202.3212964517905
 20
114.14748820084125
 10
200.61250171824497
 20
114.14748820084125
 10
200.27074277153585
 20
113.80572925413215
 10
197.536671197863
 20
113.80572925413215
 10
197.1949122511539
 20
113.46397030742304
 10
195.14435857089927
 20
113.46397030742304
 10
194.80259962419018
 20
113.12221136071393
 10
183.86631332949878
 20
113.12221136071393
 10
183.5245543827897
 20
113.46397030742304
 10
182.15751859595326
 20
113.46397030742304
 10
181.81575964924417
 20
113.80572925413215
 10
181.13224175582596
 20
113.80572925413215
 10
180.79048280911684
 20
114.14748820084125
 10
180.44872386240775
 20
114.14748820084125
 10
180.10696491569863
 20
114.48924714755036
 10
179.4234470222804
 20
114.48924714755036
 10
179.08168807557132
 20
114.83100609425946
 10
177.03113439531668
 20
114.83100609425946
 10
176.68937544860756
 20
115.17276504096857
 10
172.2465091413892
 20
115.17276504096857
 10
171.9047501946801
 20
114.83100609425946
 10
168.82891967429813
 20
114.83100609425946
 10
168.48716072758904
 20
114.48924714755036
 10
165.06957126049798
 20
114.48924714755036
 10
164.7278123137889
 20
114.14748820084125
 10
161.65198179340692
 20
114.14748820084125
 10
161.31022284669783
 20
113.80572925413215
 10
158.57615127302498
 20
113.80572925413215
 10
158.23439232631588
 20
113.46397030742304
 10
153.4497670723884
 20
113.46397030742304
 10
153.1080081256793
 20
113.12221136071393
 10
152.76624917897018
 20
113.12221136071393
 10
152.4244902322611
 20
112.78045241400484
 10
151.05745444542467
 20
112.78045241400484
 10
150.71569549871555
 20
112.43869346729574
 10
149.00690076517003
 20
112.43869346729574
 10
148.6651418184609
 20
112.09693452058663
 10
145.24755235136988
 20
112.09693452058663
 10
144.90579340466076
 20
111.75517557387752
 10
140.80468604415148
 20
111.75517557387752
 10
140.4629270974424
 20
111.41341662716842
 10
140.12116815073327
 20
111.41341662716842
 10
139.77940920402418
 20
111.07165768045931
 10
139.43765025731506
 20
111.07165768045931
 10
139.09589131060596
 20
110.7298987337502
 10
135.6783018435149
 20
110.7298987337502
 10
135.3365428968058
 20
110.3881397870411
 10
133.28598921655117
 20
110.3881397870411
 10
132.94423026984205
 20
110.04638084033199
 10
129.8683997494601
 20
110.04638084033199
 10
129.52664080275102
 20
110.3881397870411
 10
128.1596050159146
 20
110.3881397870411
 10
127.81784606920547
 20
110.7298987337502
 10
126.79256922907817
 20
110.7298987337502
 10
126.45081028236906
 20
110.3881397870411
 10
125.76729238895085
 20
110.3881397870411
 10
125.42553344224174
 20
110.04638084033199
 10
123.71673870869621
 20
110.04638084033199
 10
123.3749797619871
 20
109.70462189362289
 10
119.27387240147785
 20
109.70462189362289
 10
118.93211345476874
 20
110.04638084033199
 10
97.7430587588042
 20
110.04638084033199
 10
97.40129981209509
 20
110.3881397870411
 10
96.71778191867688
 20
110.3881397870411
 10
96.37602297196777
 20
110.04638084033199
 10
95.69250507854956
 20
110.04638084033199
 10
95.35074613184045
 20
110.3881397870411
 10
92.2749156114585
 20
110.3881397870411
 10
91.93315666474939
 20
110.04638084033199
 10
84.07270089043996
 20
110.04638084033199
 10
83.73094194373087
 20
109.70462189362289
 10
75.18696827600323
 20
109.70462189362289
 10
74.84520932929412
 20
109.36286294691378
 10
74.16169143587591
 20
109.36286294691378
 10
73.8199324891668
 20
109.02110400020467
 10
71.42761986220306
 20
109.02110400020467
 10
71.08586091549395
 20
108.67934505349557
 10
67.3265125016938
 20
108.67934505349557
 10
66.98475355498469
 20
108.33758610678646
 10
65.95947671485737
 20
108.33758610678646
 10
65.61771776814827
 20
107.99582716007735
 10
64.59244092802095
 20
107.99582716007735
 10
64.25068198131184
 20
107.65406821336825
 10
62.54188724776632
 20
107.65406821336825
 10
62.20012830105721
 20
107.31230926665914
 10
59.46605672738437
 20
107.31230926665914
 10
59.12429778067526
 20
106.97055031995004
 10
58.44077988725705
 20
106.97055031995004
 10
58.099020940547945
 20
106.62879137324093
 10
56.39022620700242
 20
106.62879137324093
 10
56.048467260293314
 20
106.28703242653182
 10
48.188011485983886
 20
106.28703242653182
 10
47.84625253927478
 20
106.62879137324093
 10
46.13745780572925
 20
106.62879137324093
 10
45.79569885902014
 20
106.28703242653182
 10
38.618760978128925
 20
106.28703242653182
 10
38.277002031419826
 20
105.94527347982272
 10
36.22644835116519
 20
105.94527347982272
 10
35.88468940445608
 20
105.60351453311362
 10
34.859412564328764
 20
105.60351453311362
 10
34.517653617619665
 20
105.26175558640452
 10
30.416546257110394
 20
105.26175558640452
 10
30.07478731040129
 20
104.91999663969541
 10
29.39126941698308
 20
104.91999663969541
 10
29.049510470273972
 20
105.26175558640452
 10
24.6066441630556
 20
105.26175558640452
 10
24.264885216346496
 20
105.60351453311362
 10
17.77146522887349
 20
105.60351453311362
 10
17.429706282164382
 20
105.94527347982272
 10
16.06267049532796
 20
105.94527347982272
 10
15.720911548618856
 20
106.28703242653182
 10
12.645081028236905
 20
106.28703242653182
 10
12.3033220815278
 20
106.62879137324093
 10
10.594527347982272
 20
106.62879137324093
 10
10.252768401273167
 20
106.97055031995004
 10
7.518696827600323
 20
106.97055031995004
 10
7.1769378808912165
 20
107.31230926665914
 10
5.468143147345689
 20
107.31230926665914
 10
5.126384200636584
 20
107.65406821336825
 10
3.7593484138001614
 20
107.65406821336825
 10
3.4175894670910556
 20
107.99582716007735
 10
1.3670357868364222
 20
107.99582716007735
 10
1.0252768401273167
 20
108.33758610678646
 10
0.6835178934182111
 20
107.99582716007735
 10
0.0
 20
107.99582716007735
  0
ENDSEC
  0
SECTION
  2
OBJECTS
  0
DICTIONARY
  5
A
330
0
100
AcDbDictionary
281
1
  3
ACAD_COLOR
350
B
  3
ACAD_GROUP
350
C
  3
ACAD_LAYOUT
350
D
  3
ACAD_MATERIAL
350
E
  3
ACAD_MLEADERSTYLE
350
F
  3
ACAD_MLINESTYLE
350
10
  3
ACAD_PLOTSETTINGS
350
11
  3
ACAD_PLOTSTYLENAME
350
12
  3
ACAD_SCALELIST
350
14
  3
ACAD_TABLESTYLE
350
15
  3
ACAD_VISUALSTYLE
350
16
  3
EZDXF_META
350
2D
  0
DICTIONARY
  5
B
330
A
100
AcDbDictionary
281
1
  0
DICTIONARY
  5
C
330
A
100
AcDbDictionary
281
1
  0
DICTIONARY
  5
D
330
A
100
AcDbDictionary
281
1
  3
Model
350
1A
  3
Layout1
350
1E
  0
DICTIONARY
  5
E
330
A
100
AcDbDictionary
281
1
  3
ByBlock
350
1F
  3
ByLayer
350
20
  3
Global
350
21
  0
DICTIONARY
  5
F
330
A
100
AcDbDictionary
281
1
  3
Standard
350
2C
  0
DICTIONARY
  5
10
330
A
100
AcDbDictionary
281
1
  3
Standard
350
22
  0
DICTIONARY
  5
11
330
A
100
AcDbDictionary
281
1
  0
ACDBDICTIONARYWDFLT
  5
12
330
A
100
AcDbDictionary
281
1
  3
Normal
350
13
100
AcDbDictionaryWithDefault
340
13
  0
ACDBPLACEHOLDER
  5
13
330
12
  0
DICTIONARY
  5
14
330
A
100
AcDbDictionary
281
1
  0
DICTIONARY
  5
15
330
A
100
AcDbDictionary
281
1
  0
DICTIONARY
  5
16
330
A
100
AcDbDictionary
281
1
  3
2dWireframe
350
5A
  3
Basic
350
5B
  3
Brighten
350
5C
  3
ColorChange
350
5D
  3
Conceptual
350
5E
  3
Dim
350
5F
  3
EdgeColorOff
350
60
  3
Facepattern
350
61
  3
Flat
350
62
  3
FlatWithEdges
350
63
  3
Gouraud
350
64
  3
GouraudWithEdges
350
65
  3
Hidden
350
66
  3
JitterOff
350
67
  3
Linepattern
350
68
  3
Modeling
350
69
  3
OverhangOff
350
6A
  3
Realistic
350
6B
  3
Shaded
350
6C
  3
Shaded with edges
350
6D
  3
Shades of Gray
350
6E
  3
Sketchy
350
6F
  3
Thicken
350
70
  3
Wireframe
350
71
  3
X-Ray
350
72
  0
LAYOUT
  5
1A
330
D
100
AcDbPlotSettings
  1

  4
A3
  6

 40
7.5
 41
20.0
 42
7.5
 43
20.0
 44
420.0
 45
297.0
 46
0.0
 47
0.0
 48
0.0
 49
0.0
140
0.0
141
0.0
142
1.0
143
1.0
 70
1024
 72
1
 73
0
 74
5
  7

 75
16
 76
0
 77
2
 78
300
147
1.0
148
0.0
149
0.0
100
AcDbLayout
  1
Model
 70
1
 71
0
 10
0.0
 20
0.0
 11
420.0
 21
297.0
 12
0.0
 22
0.0
 32
0.0
 14
1e+20
 24
1e+20
 34
1e+20
 15
-1e+20
 25
-1e+20
 35
-1e+20
146
0.0
 13
0.0
 23
0.0
 33
0.0
 16
1.0
 26
0.0
 36
0.0
 17
0.0
 27
1.0
 37
0.0
 76
1
330
17
  0
LAYOUT
  5
1E
330
D
100
AcDbPlotSettings
  1

  4
A3
  6

 40
7.5
 41
20.0
 42
7.5
 43
20.0
 44
420.0
 45
297.0
 46
0.0
 47
0.0
 48
0.0
 49
0.0
140
0.0
141
0.0
142
1.0
143
1.0
 70
0
 72
1
 73
0
 74
5
  7

 75
16
 76
0
 77
2
 78
300
147
1.0
148
0.0
149
0.0
100
AcDbLayout
  1
Layout1
 70
1
 71
1
 10
0.0
 20
0.0
 11
420.0
 21
297.0
 12
0.0
 22
0.0
 32
0.0
 14
1e+20
 24
1e+20
 34
1e+20
 15
-1e+20
 25
-1e+20
 35
-1e+20
146
0.0
 13
0.0
 23
0.0
 33
0.0
 16
1.0
 26
0.0
 36
0.0
 17
0.0
 27
1.0
 37
0.0
 76
1
330
1B
  0
MATERIAL
  5
1F
102
{ACAD_REACTORS
330
E
102
}
330
E
100
AcDbMaterial
  1
ByBlock
  2

 70
0
 40
1.0
 71
1
 41
1.0
 91
-1023410177
 42
1.0
 72
1
  3

 73
1
 74
1
 75
1
 44
0.5
 73
0
 45
1.0
 46
1.0
 77
1
  4

 78
1
 79
1
170
1
 48
1.0
171
1
  6

172
1
173
1
174
1
140
1.0
141
1.0
175
1
  7

176
1
177
1
178
1
143
1.0
179
1
  8

270
1
271
1
272
1
145
1.0
146
1.0
273
1
  9

274
1
275
1
276
1
 42
1.0
 72
1
  3

 73
1
 74
1
 75
1
 94
63
  0
MATERIAL
  5
20
102
{ACAD_REACTORS
330
E
102
}
330
E
100
AcDbMaterial
  1
ByLayer
  2

 70
0
 40
1.0
 71
1
 41
1.0
 91
-1023410177
 42
1.0
 72
1
  3

 73
1
 74
1
 75
1
 44
0.5
 73
0
 45
1.0
 46
1.0
 77
1
  4

 78
1
 79
1
170
1
 48
1.0
171
1
  6

172
1
173
1
174
1
140
1.0
141
1.0
175
1
  7

176
1
177
1
178
1
143
1.0
179
1
  8

270
1
271
1
272
1
145
1.0
146
1.0
273
1
  9

274
1
275
1
276
1
 42
1.0
 72
1
  3

 73
1
 74
1
 75
1
 94
63
  0
MATERIAL
  5
21
102
{ACAD_REACTORS
330
E
102
}
330
E
100
AcDbMaterial
  1
Global
  2

 70
0
 40
1.0
 71
1
 41
1.0
 91
-1023410177
 42
1.0
 72
1
  3

 73
1
 74
1
 75
1
 44
0.5
 73
0
 45
1.0
 46
1.0
 77
1
  4

 78
1
 79
1
170
1
 48
1.0
171
1
  6

172
1
173
1
174
1
140
1.0
141
1.0
175
1
  7

176
1
177
1
178
1
143
1.0
179
1
  8

270
1
271
1
272
1
145
1.0
146
1.0
273
1
  9

274
1
275
1
276
1
 42
1.0
 72
1
  3

 73
1
 74
1
 75
1
 94
63
  0
MLINESTYLE
  5
22
102
{ACAD_REACTORS
330
10
102
}
330
10
100
AcDbMlineStyle
  2
Standard
 70
0
  3

 62
256
 51
90.0
 52
90.0
 71
2
 49
0.5
 62
256
  6
BYLAYER
 49
-0.5
 62
256
  6
BYLAYER
  0
MLEADERSTYLE
  5
2C
102
{ACAD_REACTORS
330
F
102
}
330
F
100
AcDbMLeaderStyle
179
2
170
2
171
1
172
0
 90
2
 40
0.0
 41
0.0
173
1
 91
-1056964608
 92
-2
290
1
 42
2.0
291
1
 43
8.0
  3
Standard
 44
4.0
300

342
29
174
1
175
1
176
0
178
1
 93
-1056964608
 45
4.0
292
0
297
0
 46
4.0
 94
-1056964608
 47
1.0
 49
1.0
140
1.0
294
1
141
0.0
177
0
142
1.0
295
0
296
0
143
3.75
271
0
272
9
273
9
  0
DICTIONARY
  5
2D
330
A
100
AcDbDictionary
280
1
281
1
  3
CREATED_BY_EZDXF
350
2E
  3
WRITTEN_BY_EZDXF
350
8E
  0
DICTIONARYVAR
  5
2E
330
2D
100
DictionaryVariables
280
0
  1
1.4.2 @ 2025-06-04T15:39:44.666908+00:00
  0
VISUALSTYLE
  5
5A
102
{ACAD_REACTORS
330
16
102
}
330
16
100
AcDbVisualStyle
  2
2dWireframe
 70
4
177
3
291
0
 70
58
 90
2
176
1
 90
2
176
1
 90
0
176
1
 90
0
176
1
 40
0.6
176
1
 40
30.0
176
1
 62
7
420
16777215
176
1
 90
1
176
1
 90
4
176
1
 62
7
176
1
 62
257
176
1
 90
1
176
1
 90
1
176
1
 40
1.0
176
1
 90
8
176
1
 62
7
176
1
 40
1.0
176
1
 90
1
176
1
 90
6
176
1
 90
2
176
1
 62
7
176
1
 90
5
176
1
 90
0
176
1
 90
0
176
1
290
0
176
1
 90
1
176
1
 40
0.0
176
1
 90
0
176
1
290
1
176
1
290
1
176
1
290
0
176
1
290
0
176
1
290
0
176
1
290
0
176
1
290
0
176
1
290
0
176
1
290
0
176
1
 90
50
176
1
 40
0.0
176
1
 40
1.0
176
1
 90
0
176
1
 62
18
420
0
176
1
 90
50
176
1
 90
3
176
1
 62
5
420
255
176
1
290
0
176
1
 90
50
176
1
 90
50
176
1
 90
50
176
1
290
0
176
1
 90
50
176
1
 62
256
176
0
 40
1.0
176
0
 90
2
176
1
  1
strokes_ogs.tif
176
1
290
0
176
1
 40
1.0
176
1
 40
1.0
176
1
  0
VISUALSTYLE
  5
5B
102
{ACAD_REACTORS
330
16
102
}
330
16
100
AcDbVisualStyle
  2
Basic
 70
7
177
3
291
1
 70
58
 90
2
176
1
 90
2
176
1
 90
0
176
1
 90
1
176
1
 40
0.6
176
1
 40
30.0
176
1
 62
7
420
16777215
176
1
 90
1
176
1
 90
4
176
1
 62
7
176
1
 62
257
176
1
 90
1
176
1
 90
1
176
1
 40
1.0
176
1
 90
8
176
1
 62
7
176
1
 40
1.0
176
1
 90
1
176
1
 90
6
176
1
 90
2
176
1
 62
7
176
1
 90
5
176
1
 90
0
176
1
 90
0
176
1
290
0
176
1
 90
1
176
1
 40
0.0
176
1
 90
0
176
1
290
0
176
1
290
1
176
1
290
1
176
1
290
0
176
1
290
0
176
1
290
0
176
1
290
0
176
1
290
0
176
1
290
0
176
1
 90
50
176
1
 40
0.0
176
1
 40
1.0
176
1
 90
0
176
1
 62
18
420
0
176
1
 90
50
176
1
 90
3
176
1
 62
5
420
255
176
1
290
0
176
1
 90
50
176
1
 90
50
176
1
 90
50
176
1
290
0
176
1
 90
50
176
1
 62
256
176
0
 40
1.0
176
0
 90
2
176
1
  1
strokes_ogs.tif
176
1
290
0
176
1
 40
1.0
176
1
 40
1.0
176
1
  0
VISUALSTYLE
  5
5C
102
{ACAD_REACTORS
330
16
102
}
330
16
100
AcDbVisualStyle
  2
Brighten
 70
12
177
3
291
1
 70
58
 90
2
176
1
 90
2
176
1
 90
0
176
1
 90
2
176
1
 40
0.6
176
1
 40
30.0
176
1
 62
7
420
16777215
176
1
 90
1
176
1
 90
4
176
1
 62
7
176
1
 62
257
176
1
 90
1
176
1
 90
1
176
1
 40
1.0
176
1
 90
8
176
1
 62
7
176
1
 40
1.0
176
1
 90
1
176
1
 90
6
176
1
 90
2
176
1
 62
7
176
1
 90
5
176
1
 90
0
176
1
 90
0
176
1
290
0
176
1
 90
1
176
1
 40
0.0
176
1
 90
0
176
1
290
0
176
1
290
1
176
1
290
1
176
1
290
0
176
1
290
0
176
1
290
0
176
1
290
0
176
1
290
0
176
1
290
0
176
1
 90
50
176
1
 40
0.0
176
1
 40
1.0
176
1
 90
0
176
1
 62
18
420
0
176
1
 90
50
176
1
 90
3
176
1
 62
5
420
255
176
1
290
0
176
1
 90
50
176
1
 90
50
176
1
 90
50
176
1
290
0
176
1
 90
50
176
1
 62
256
176
0
 40
1.0
176
0
 90
2
176
1
  1
strokes_ogs.tif
176
1
290
0
176
1
 40
1.0
176
1
 40
1.0
176
1
  0
VISUALSTYLE
  5
5D
102
{ACAD_REACTORS
330
16
102
}
330
16
100
AcDbVisualStyle
  2
ColorChange
 70
16
177
3
291
1
 70
58
 90
2
176
1
 90
2
176
1
 90
0
176
1
 90
2
176
1
 40
0.6
176
1
 40
30.0
176
1
 62
7
420
16777215
176
1
 90
1
176
1
 90
4
176
1
 62
7
176
1
 62
257
176
1
 90
1
176
1
 90
1
176
1
 40
1.0
176
1
 90
8
176
1
 62
7
176
1
 40
1.0
176
1
 90
1
176
1
 90
6
176
1
 90
2
176
1
 62
7
176
1
 90
5
176
1
 90
0
176
1
 90
0
176
1
290
0
176
1
 90
1
176
1
 40
0.0
176
1
 90
0
176
1
290
0
176
1
290
1
176
1
290
1
176
1
290
0
176
1
290
0
176
1
290
0
176
1
290
0
176
1
290
0
176
1
290
0
176
1
 90
50
176
1
 40
0.0
176
1
 40
1.0
176
1
 90
0
176
1
 62
18
420
0
176
1
 90
50
176
1
 90
3
176
1
 62
5
420
255
176
1
290
0
176
1
 90
50
176
1
 90
50
176
1
 90
50
176
1
290
0
176
1
 90
50
176
1
 62
256
176
0
 40
1.0
176
0
 90
2
176
1
  1
strokes_ogs.tif
176
1
290
0
176
1
 40
1.0
176
1
 40
1.0
176
1
  0
VISUALSTYLE
  5
5E
102
{ACAD_REACTORS
330
16
102
}
330
16
100
AcDbVisualStyle
  2
Conceptual
 70
9
177
3
291
0
 70
58
 90
2
176
1
 90
2
176
1
 90
0
176
1
 90
3
176
1
 40
0.6
176
1
 40
30.0
176
1
 62
7
420
16777215
176
1
 90
1
176
1
 90
4
176
1
 62
7
176
1
 62
257
176
1
 90
1
176
1
 90
1
176
1
 40
1.0
176
1
 90
8
176
1
 62
7
176
1
 40
1.0
176
1
 90
1
176
1
 90
6
176
1
 90
2
176
1
 62
7
176
1
 90
5
176
1
 90
0
176
1
 90
0
176
1
290
0
176
1
 90
1
176
1
 40
0.0
176
1
 90
0
176
1
290
0
176
1
290
1
176
1
290
1
176
1
290
0
176
1
290
0
176
1
290
0
176
1
290
0
176
1
290
0
176
1
290
0
176
1
 90
50
176
1
 40
0.0
176
1
 40
1.0
176
1
 90
0
176
1
 62
18
420
0
176
1
 90
50
176
1
 90
3
176
1
 62
5
420
255
176
1
290
0
176
1
 90
50
176
1
 90
50
176
1
 90
50
176
1
290
0
176
1
 90
50
176
1
 62
256
176
0
 40
1.0
176
0
 90
2
176
1
  1
strokes_ogs.tif
176
1
290
0
176
1
 40
1.0
176
1
 40
1.0
176
1
  0
VISUALSTYLE
  5
5F
102
{ACAD_REACTORS
330
16
102
}
330
16
100
AcDbVisualStyle
  2
Dim
 70
11
177
3
291
1
 70
58
 90
2
176
1
 90
2
176
1
 90
0
176
1
 90
2
176
1
 40
0.6
176
1
 40
30.0
176
1
 62
7
420
16777215
176
1
 90
1
176
1
 90
4
176
1
 62
7
176
1
 62
257
176
1
 90
1
176
1
 90
1
176
1
 40
1.0
176
1
 90
8
176
1
 62
7
176
1
 40
1.0
176
1
 90
1
176
1
 90
6
176
1
 90
2
176
1
 62
7
176
1
 90
5
176
1
 90
0
176
1
 90
0
176
1
290
0
176
1
 90
1
176
1
 40
0.0
176
1
 90
0
176
1
290
0
176
1
290
1
176
1
290
1
176
1
290
0
176
1
290
0
176
1
290
0
176
1
290
0
176
1
290
0
176
1
290
0
176
1
 90
50
176
1
 40
0.0
176
1
 40
1.0
176
1
 90
0
176
1
 62
18
420
0
176
1
 90
50
176
1
 90
3
176
1
 62
5
420
255
176
1
290
0
176
1
 90
50
176
1
 90
50
176
1
 90
50
176
1
290
0
176
1
 90
50
176
1
 62
256
176
0
 40
1.0
176
0
 90
2
176
1
  1
strokes_ogs.tif
176
1
290
0
176
1
 40
1.0
176
1
 40
1.0
176
1
  0
VISUALSTYLE
  5
60
102
{ACAD_REACTORS
330
16
102
}
330
16
100
AcDbVisualStyle
  2
EdgeColorOff
 70
22
177
3
291
1
 70
58
 90
2
176
1
 90
2
176
1
 90
0
176
1
 90
2
176
1
 40
0.6
176
1
 40
30.0
176
1
 62
7
420
16777215
176
1
 90
1
176
1
 90
4
176
1
 62
7
176
1
 62
257
176
1
 90
1
176
1
 90
1
176
1
 40
1.0
176
1
 90
8
176
1
 62
7
176
1
 40
1.0
176
1
 90
1
176
1
 90
6
176
1
 90
2
176
1
 62
7
176
1
 90
5
176
1
 90
0
176
1
 90
0
176
1
290
0
176
1
 90
1
176
1
 40
0.0
176
1
 90
0
176
1
290
0
176
1
290
1
176
1
290
1
176
1
290
0
176
1
290
0
176
1
290
0
176
1
290
0
176
1
290
0
176
1
290
0
176
1
 90
50
176
1
 40
0.0
176
1
 40
1.0
176
1
 90
0
176
1
 62
18
420
0
176
1
 90
50
176
1
 90
3
176
1
 62
5
420
255
176
1
290
0
176
1
 90
50
176
1
 90
50
176
1
 90
50
176
1
290
0
176
1
 90
50
176
1
 62
256
176
0
 40
1.0
176
0
 90
2
176
1
  1
strokes_ogs.tif
176
1
290
0
176
1
 40
1.0
176
1
 40
1.0
176
1
  0
VISUALSTYLE
  5
61
102
{ACAD_REACTORS
330
16
102
}
330
16
100
AcDbVisualStyle
  2
Facepattern
 70
15
177
3
291
1
 70
58
 90
2
176
1
 90
2
176
1
 90
0
176
1
 90
2
176
1
 40
0.6
176
1
 40
30.0
176
1
 62
7
420
16777215
176
1
 90
1
176
1
 90
4
176
1
 62
7
176
1
 62
257
176
1
 90
1
176
1
 90
1
176
1
 40
1.0
176
1
 90
8
176
1
 62
7
176
1
 40
1.0
176
1
 90
1
176
1
 90
6
176
1
 90
2
176
1
 62
7
176
1
 90
5
176
1
 90
0
176
1
 90
0
176
1
290
0
176
1
 90
1
176
1
 40
0.0
176
1
 90
0
176
1
290
0
176
1
290
1
176
1
290
1
176
1
290
0
176
1
290
0
176
1
290
0
176
1
290
0
176
1
290
0
176
1
290
0
176
1
 90
50
176
1
 40
0.0
176
1
 40
1.0
176
1
 90
0
176
1
 62
18
420
0
176
1
 90
50
176
1
 90
3
176
1
 62
5
420
255
176
1
290
0
176
1
 90
50
176
1
 90
50
176
1
 90
50
176
1
290
0
176
1
 90
50
176
1
 62
256
176
0
 40
1.0
176
0
 90
2
176
1
  1
strokes_ogs.tif
176
1
290
0
176
1
 40
1.0
176
1
 40
1.0
176
1
  0
VISUALSTYLE
  5
62
102
{ACAD_REACTORS
330
16
102
}
330
16
100
AcDbVisualStyle
  2
Flat
 70
0
177
3
291
1
 70
58
 90
2
176
1
 90
2
176
1
 90
0
176
1
 90
2
176
1
 40
0.6
176
1
 40
30.0
176
1
 62
7
420
16777215
176
1
 90
1
176
1
 90
4
176
1
 62
7
176
1
 62
257
176
1
 90
1
176
1
 90
1
176
1
 40
1.0
176
1
 90
8
176
1
 62
7
176
1
 40
1.0
176
1
 90
1
176
1
 90
6
176
1
 90
2
176
1
 62
7
176
1
 90
5
176
1
 90
0
176
1
 90
0
176
1
290
0
176
1
 90
1
176
1
 40
0.0
176
1
 90
0
176
1
290
0
176
1
290
1
176
1
290
1
176
1
290
0
176
1
290
0
176
1
290
0
176
1
290
0
176
1
290
0
176
1
290
0
176
1
 90
50
176
1
 40
0.0
176
1
 40
1.0
176
1
 90
0
176
1
 62
18
420
0
176
1
 90
50
176
1
 90
3
176
1
 62
5
420
255
176
1
290
0
176
1
 90
50
176
1
 90
50
176
1
 90
50
176
1
290
0
176
1
 90
50
176
1
 62
256
176
0
 40
1.0
176
0
 90
2
176
1
  1
strokes_ogs.tif
176
1
290
0
176
1
 40
1.0
176
1
 40
1.0
176
1
  0
VISUALSTYLE
  5
63
102
{ACAD_REACTORS
330
16
102
}
330
16
100
AcDbVisualStyle
  2
FlatWithEdges
 70
1
177
3
291
1
 70
58
 90
2
176
1
 90
2
176
1
 90
0
176
1
 90
2
176
1
 40
0.6
176
1
 40
30.0
176
1
 62
7
420
16777215
176
1
 90
1
176
1
 90
4
176
1
 62
7
176
1
 62
257
176
1
 90
1
176
1
 90
1
176
1
 40
1.0
176
1
 90
8
176
1
 62
7
176
1
 40
1.0
176
1
 90
1
176
1
 90
6
176
1
 90
2
176
1
 62
7
176
1
 90
5
176
1
 90
0
176
1
 90
0
176
1
290
0
176
1
 90
1
176
1
 40
0.0
176
1
 90
0
176
1
290
0
176
1
290
1
176
1
290
1
176
1
290
0
176
1
290
0
176
1
290
0
176
1
290
0
176
1
290
0
176
1
290
0
176
1
 90
50
176
1
 40
0.0
176
1
 40
1.0
176
1
 90
0
176
1
 62
18
420
0
176
1
 90
50
176
1
 90
3
176
1
 62
5
420
255
176
1
290
0
176
1
 90
50
176
1
 90
50
176
1
 90
50
176
1
290
0
176
1
 90
50
176
1
 62
256
176
0
 40
1.0
176
0
 90
2
176
1
  1
strokes_ogs.tif
176
1
290
0
176
1
 40
1.0
176
1
 40
1.0
176
1
  0
VISUALSTYLE
  5
64
102
{ACAD_REACTORS
330
16
102
}
330
16
100
AcDbVisualStyle
  2
Gouraud
 70
2
177
3
291
1
 70
58
 90
2
176
1
 90
2
176
1
 90
0
176
1
 90
2
176
1
 40
0.6
176
1
 40
30.0
176
1
 62
7
420
16777215
176
1
 90
1
176
1
 90
4
176
1
 62
7
176
1
 62
257
176
1
 90
1
176
1
 90
1
176
1
 40
1.0
176
1
 90
8
176
1
 62
7
176
1
 40
1.0
176
1
 90
1
176
1
 90
6
176
1
 90
2
176
1
 62
7
176
1
 90
5
176
1
 90
0
176
1
 90
0
176
1
290
0
176
1
 90
1
176
1
 40
0.0
176
1
 90
0
176
1
290
0
176
1
290
1
176
1
290
1
176
1
290
0
176
1
290
0
176
1
290
0
176
1
290
0
176
1
290
0
176
1
290
0
176
1
 90
50
176
1
 40
0.0
176
1
 40
1.0
176
1
 90
0
176
1
 62
18
420
0
176
1
 90
50
176
1
 90
3
176
1
 62
5
420
255
176
1
290
0
176
1
 90
50
176
1
 90
50
176
1
 90
50
176
1
290
0
176
1
 90
50
176
1
 62
256
176
0
 40
1.0
176
0
 90
2
176
1
  1
strokes_ogs.tif
176
1
290
0
176
1
 40
1.0
176
1
 40
1.0
176
1
  0
VISUALSTYLE
  5
65
102
{ACAD_REACTORS
330
16
102
}
330
16
100
AcDbVisualStyle
  2
GouraudWithEdges
 70
3
177
3
291
1
 70
58
 90
2
176
1
 90
2
176
1
 90
0
176
1
 90
2
176
1
 40
0.6
176
1
 40
30.0
176
1
 62
7
420
16777215
176
1
 90
1
176
1
 90
4
176
1
 62
7
176
1
 62
257
176
1
 90
1
176
1
 90
1
176
1
 40
1.0
176
1
 90
8
176
1
 62
7
176
1
 40
1.0
176
1
 90
1
176
1
 90
6
176
1
 90
2
176
1
 62
7
176
1
 90
5
176
1
 90
0
176
1
 90
0
176
1
290
0
176
1
 90
1
176
1
 40
0.0
176
1
 90
0
176
1
290
0
176
1
290
1
176
1
290
1
176
1
290
0
176
1
290
0
176
1
290
0
176
1
290
0
176
1
290
0
176
1
290
0
176
1
 90
50
176
1
 40
0.0
176
1
 40
1.0
176
1
 90
0
176
1
 62
18
420
0
176
1
 90
50
176
1
 90
3
176
1
 62
5
420
255
176
1
290
0
176
1
 90
50
176
1
 90
50
176
1
 90
50
176
1
290
0
176
1
 90
50
176
1
 62
256
176
0
 40
1.0
176
0
 90
2
176
1
  1
strokes_ogs.tif
176
1
290
0
176
1
 40
1.0
176
1
 40
1.0
176
1
  0
VISUALSTYLE
  5
66
102
{ACAD_REACTORS
330
16
102
}
330
16
100
AcDbVisualStyle
  2
Hidden
 70
6
177
3
291
0
 70
58
 90
2
176
1
 90
2
176
1
 90
0
176
1
 90
1
176
1
 40
0.6
176
1
 40
30.0
176
1
 62
7
420
16777215
176
1
 90
1
176
1
 90
4
176
1
 62
7
176
1
 62
257
176
1
 90
1
176
1
 90
1
176
1
 40
1.0
176
1
 90
8
176
1
 62
7
176
1
 40
1.0
176
1
 90
1
176
1
 90
6
176
1
 90
2
176
1
 62
7
176
1
 90
5
176
1
 90
0
176
1
 90
0
176
1
290
0
176
1
 90
1
176
1
 40
0.0
176
1
 90
0
176
1
290
0
176
1
290
1
176
1
290
1
176
1
290
0
176
1
290
0
176
1
290
0
176
1
290
0
176
1
290
0
176
1
290
0
176
1
 90
50
176
1
 40
0.0
176
1
 40
1.0
176
1
 90
0
176
1
 62
18
420
0
176
1
 90
50
176
1
 90
3
176
1
 62
5
420
255
176
1
290
0
176
1
 90
50
176
1
 90
50
176
1
 90
50
176
1
290
0
176
1
 90
50
176
1
 62
256
176
0
 40
1.0
176
0
 90
2
176
1
  1
strokes_ogs.tif
176
1
290
0
176
1
 40
1.0
176
1
 40
1.0
176
1
  0
VISUALSTYLE
  5
67
102
{ACAD_REACTORS
330
16
102
}
330
16
100
AcDbVisualStyle
  2
JitterOff
 70
20
177
3
291
1
 70
58
 90
2
176
1
 90
2
176
1
 90
0
176
1
 90
2
176
1
 40
0.6
176
1
 40
30.0
176
1
 62
7
420
16777215
176
1
 90
1
176
1
 90
4
176
1
 62
7
176
1
 62
257
176
1
 90
1
176
1
 90
1
176
1
 40
1.0
176
1
 90
8
176
1
 62
7
176
1
 40
1.0
176
1
 90
1
176
1
 90
6
176
1
 90
2
176
1
 62
7
176
1
 90
5
176
1
 90
0
176
1
 90
0
176
1
290
0
176
1
 90
1
176
1
 40
0.0
176
1
 90
0
176
1
290
0
176
1
290
1
176
1
290
1
176
1
290
0
176
1
290
0
176
1
290
0
176
1
290
0
176
1
290
0
176
1
290
0
176
1
 90
50
176
1
 40
0.0
176
1
 40
1.0
176
1
 90
0
176
1
 62
18
420
0
176
1
 90
50
176
1
 90
3
176
1
 62
5
420
255
176
1
290
0
176
1
 90
50
176
1
 90
50
176
1
 90
50
176
1
290
0
176
1
 90
50
176
1
 62
256
176
0
 40
1.0
176
0
 90
2
176
1
  1
strokes_ogs.tif
176
1
290
0
176
1
 40
1.0
176
1
 40
1.0
176
1
  0
VISUALSTYLE
  5
68
102
{ACAD_REACTORS
330
16
102
}
330
16
100
AcDbVisualStyle
  2
Linepattern
 70
14
177
3
291
1
 70
58
 90
2
176
1
 90
2
176
1
 90
0
176
1
 90
2
176
1
 40
0.6
176
1
 40
30.0
176
1
 62
7
420
16777215
176
1
 90
1
176
1
 90
4
176
1
 62
7
176
1
 62
257
176
1
 90
1
176
1
 90
1
176
1
 40
1.0
176
1
 90
8
176
1
 62
7
176
1
 40
1.0
176
1
 90
1
176
1
 90
6
176
1
 90
2
176
1
 62
7
176
1
 90
5
176
1
 90
0
176
1
 90
0
176
1
290
0
176
1
 90
1
176
1
 40
0.0
176
1
 90
0
176
1
290
0
176
1
290
1
176
1
290
1
176
1
290
0
176
1
290
0
176
1
290
0
176
1
290
0
176
1
290
0
176
1
290
0
176
1
 90
50
176
1
 40
0.0
176
1
 40
1.0
176
1
 90
0
176
1
 62
18
420
0
176
1
 90
50
176
1
 90
3
176
1
 62
5
420
255
176
1
290
0
176
1
 90
50
176
1
 90
50
176
1
 90
50
176
1
290
0
176
1
 90
50
176
1
 62
256
176
0
 40
1.0
176
0
 90
2
176
1
  1
strokes_ogs.tif
176
1
290
0
176
1
 40
1.0
176
1
 40
1.0
176
1
  0
VISUALSTYLE
  5
69
102
{ACAD_REACTORS
330
16
102
}
330
16
100
AcDbVisualStyle
  2
Modeling
 70
10
177
3
291
0
 70
58
 90
2
176
1
 90
2
176
1
 90
0
176
1
 90
2
176
1
 40
0.6
176
1
 40
30.0
176
1
 62
7
420
16777215
176
1
 90
1
176
1
 90
4
176
1
 62
7
176
1
 62
257
176
1
 90
1
176
1
 90
1
176
1
 40
1.0
176
1
 90
8
176
1
 62
7
176
1
 40
1.0
176
1
 90
1
176
1
 90
6
176
1
 90
2
176
1
 62
7
176
1
 90
5
176
1
 90
0
176
1
 90
0
176
1
290
0
176
1
 90
1
176
1
 40
0.0
176
1
 90
0
176
1
290
0
176
1
290
1
176
1
290
1
176
1
290
0
176
1
290
0
176
1
290
0
176
1
290
0
176
1
290
0
176
1
290
0
176
1
 90
50
176
1
 40
0.0
176
1
 40
1.0
176
1
 90
0
176
1
 62
18
420
0
176
1
 90
50
176
1
 90
3
176
1
 62
5
420
255
176
1
290
0
176
1
 90
50
176
1
 90
50
176
1
 90
50
176
1
290
0
176
1
 90
50
176
1
 62
256
176
0
 40
1.0
176
0
 90
2
176
1
  1
strokes_ogs.tif
176
1
290
0
176
1
 40
1.0
176
1
 40
1.0
176
1
  0
VISUALSTYLE
  5
6A
102
{ACAD_REACTORS
330
16
102
}
330
16
100
AcDbVisualStyle
  2
OverhangOff
 70
21
177
3
291
1
 70
58
 90
2
176
1
 90
2
176
1
 90
0
176
1
 90
2
176
1
 40
0.6
176
1
 40
30.0
176
1
 62
7
420
16777215
176
1
 90
1
176
1
 90
4
176
1
 62
7
176
1
 62
257
176
1
 90
1
176
1
 90
1
176
1
 40
1.0
176
1
 90
8
176
1
 62
7
176
1
 40
1.0
176
1
 90
1
176
1
 90
6
176
1
 90
2
176
1
 62
7
176
1
 90
5
176
1
 90
0
176
1
 90
0
176
1
290
0
176
1
 90
1
176
1
 40
0.0
176
1
 90
0
176
1
290
0
176
1
290
1
176
1
290
1
176
1
290
0
176
1
290
0
176
1
290
0
176
1
290
0
176
1
290
0
176
1
290
0
176
1
 90
50
176
1
 40
0.0
176
1
 40
1.0
176
1
 90
0
176
1
 62
18
420
0
176
1
 90
50
176
1
 90
3
176
1
 62
5
420
255
176
1
290
0
176
1
 90
50
176
1
 90
50
176
1
 90
50
176
1
290
0
176
1
 90
50
176
1
 62
256
176
0
 40
1.0
176
0
 90
2
176
1
  1
strokes_ogs.tif
176
1
290
0
176
1
 40
1.0
176
1
 40
1.0
176
1
  0
VISUALSTYLE
  5
6B
102
{ACAD_REACTORS
330
16
102
}
330
16
100
AcDbVisualStyle
  2
Realistic
 70
8
177
3
291
0
 70
58
 90
2
176
1
 90
2
176
1
 90
0
176
1
 90
2
176
1
 40
0.6
176
1
 40
30.0
176
1
 62
7
420
16777215
176
1
 90
1
176
1
 90
4
176
1
 62
7
176
1
 62
257
176
1
 90
1
176
1
 90
1
176
1
 40
1.0
176
1
 90
8
176
1
 62
7
176
1
 40
1.0
176
1
 90
1
176
1
 90
6
176
1
 90
2
176
1
 62
7
176
1
 90
5
176
1
 90
0
176
1
 90
0
176
1
290
0
176
1
 90
1
176
1
 40
0.0
176
1
 90
0
176
1
290
0
176
1
290
1
176
1
290
1
176
1
290
0
176
1
290
0
176
1
290
0
176
1
290
0
176
1
290
0
176
1
290
0
176
1
 90
50
176
1
 40
0.0
176
1
 40
1.0
176
1
 90
0
176
1
 62
18
420
0
176
1
 90
50
176
1
 90
3
176
1
 62
5
420
255
176
1
290
0
176
1
 90
50
176
1
 90
50
176
1
 90
50
176
1
290
0
176
1
 90
50
176
1
 62
256
176
0
 40
1.0
176
0
 90
2
176
1
  1
strokes_ogs.tif
176
1
290
0
176
1
 40
1.0
176
1
 40
1.0
176
1
  0
VISUALSTYLE
  5
6C
102
{ACAD_REACTORS
330
16
102
}
330
16
100
AcDbVisualStyle
  2
Shaded
 70
27
177
3
291
0
 70
58
 90
2
176
1
 90
2
176
1
 90
0
176
1
 90
2
176
1
 40
0.6
176
1
 40
30.0
176
1
 62
7
420
16777215
176
1
 90
1
176
1
 90
4
176
1
 62
7
176
1
 62
257
176
1
 90
1
176
1
 90
1
176
1
 40
1.0
176
1
 90
8
176
1
 62
7
176
1
 40
1.0
176
1
 90
1
176
1
 90
6
176
1
 90
2
176
1
 62
7
176
1
 90
5
176
1
 90
0
176
1
 90
0
176
1
290
0
176
1
 90
1
176
1
 40
0.0
176
1
 90
0
176
1
290
0
176
1
290
1
176
1
290
1
176
1
290
0
176
1
290
0
176
1
290
0
176
1
290
0
176
1
290
0
176
1
290
0
176
1
 90
50
176
1
 40
0.0
176
1
 40
1.0
176
1
 90
0
176
1
 62
18
420
0
176
1
 90
50
176
1
 90
3
176
1
 62
5
420
255
176
1
290
0
176
1
 90
50
176
1
 90
50
176
1
 90
50
176
1
290
0
176
1
 90
50
176
1
 62
256
176
0
 40
1.0
176
0
 90
2
176
1
  1
strokes_ogs.tif
176
1
290
0
176
1
 40
1.0
176
1
 40
1.0
176
1
  0
VISUALSTYLE
  5
6D
102
{ACAD_REACTORS
330
16
102
}
330
16
100
AcDbVisualStyle
  2
Shaded with edges
 70
26
177
3
291
0
 70
58
 90
2
176
1
 90
2
176
1
 90
0
176
1
 90
2
176
1
 40
0.6
176
1
 40
30.0
176
1
 62
7
420
16777215
176
1
 90
1
176
1
 90
4
176
1
 62
7
176
1
 62
257
176
1
 90
1
176
1
 90
1
176
1
 40
1.0
176
1
 90
8
176
1
 62
7
176
1
 40
1.0
176
1
 90
1
176
1
 90
6
176
1
 90
2
176
1
 62
7
176
1
 90
5
176
1
 90
0
176
1
 90
0
176
1
290
0
176
1
 90
1
176
1
 40
0.0
176
1
 90
0
176
1
290
0
176
1
290
1
176
1
290
1
176
1
290
0
176
1
290
0
176
1
290
0
176
1
290
0
176
1
290
0
176
1
290
0
176
1
 90
50
176
1
 40
0.0
176
1
 40
1.0
176
1
 90
0
176
1
 62
18
420
0
176
1
 90
50
176
1
 90
3
176
1
 62
5
420
255
176
1
290
0
176
1
 90
50
176
1
 90
50
176
1
 90
50
176
1
290
0
176
1
 90
50
176
1
 62
256
176
0
 40
1.0
176
0
 90
2
176
1
  1
strokes_ogs.tif
176
1
290
0
176
1
 40
1.0
176
1
 40
1.0
176
1
  0
VISUALSTYLE
  5
6E
102
{ACAD_REACTORS
330
16
102
}
330
16
100
AcDbVisualStyle
  2
Shades of Gray
 70
23
177
3
291
0
 70
58
 90
2
176
1
 90
2
176
1
 90
0
176
1
 90
2
176
1
 40
0.6
176
1
 40
30.0
176
1
 62
7
420
16777215
176
1
 90
1
176
1
 90
4
176
1
 62
7
176
1
 62
257
176
1
 90
1
176
1
 90
1
176
1
 40
1.0
176
1
 90
8
176
1
 62
7
176
1
 40
1.0
176
1
 90
1
176
1
 90
6
176
1
 90
2
176
1
 62
7
176
1
 90
5
176
1
 90
0
176
1
 90
0
176
1
290
0
176
1
 90
1
176
1
 40
0.0
176
1
 90
0
176
1
290
0
176
1
290
1
176
1
290
1
176
1
290
0
176
1
290
0
176
1
290
0
176
1
290
0
176
1
290
0
176
1
290
0
176
1
 90
50
176
1
 40
0.0
176
1
 40
1.0
176
1
 90
0
176
1
 62
18
420
0
176
1
 90
50
176
1
 90
3
176
1
 62
5
420
255
176
1
290
0
176
1
 90
50
176
1
 90
50
176
1
 90
50
176
1
290
0
176
1
 90
50
176
1
 62
256
176
0
 40
1.0
176
0
 90
2
176
1
  1
strokes_ogs.tif
176
1
290
0
176
1
 40
1.0
176
1
 40
1.0
176
1
  0
VISUALSTYLE
  5
6F
102
{ACAD_REACTORS
330
16
102
}
330
16
100
AcDbVisualStyle
  2
Sketchy
 70
24
177
3
291
0
 70
58
 90
2
176
1
 90
2
176
1
 90
0
176
1
 90
1
176
1
 40
0.6
176
1
 40
30.0
176
1
 62
7
420
16777215
176
1
 90
1
176
1
 90
4
176
1
 62
7
176
1
 62
257
176
1
 90
1
176
1
 90
1
176
1
 40
1.0
176
1
 90
8
176
1
 62
7
176
1
 40
1.0
176
1
 90
1
176
1
 90
6
176
1
 90
2
176
1
 62
7
176
1
 90
5
176
1
 90
0
176
1
 90
0
176
1
290
0
176
1
 90
1
176
1
 40
0.0
176
1
 90
0
176
1
290
0
176
1
290
1
176
1
290
1
176
1
290
0
176
1
290
0
176
1
290
0
176
1
290
0
176
1
290
0
176
1
290
0
176
1
 90
50
176
1
 40
0.0
176
1
 40
1.0
176
1
 90
0
176
1
 62
18
420
0
176
1
 90
50
176
1
 90
3
176
1
 62
5
420
255
176
1
290
0
176
1
 90
50
176
1
 90
50
176
1
 90
50
176
1
290
0
176
1
 90
50
176
1
 62
256
176
0
 40
1.0
176
0
 90
2
176
1
  1
strokes_ogs.tif
176
1
290
0
176
1
 40
1.0
176
1
 40
1.0
176
1
  0
VISUALSTYLE
  5
70
102
{ACAD_REACTORS
330
16
102
}
330
16
100
AcDbVisualStyle
  2
Thicken
 70
13
177
3
291
1
 70
58
 90
2
176
1
 90
2
176
1
 90
0
176
1
 90
2
176
1
 40
0.6
176
1
 40
30.0
176
1
 62
7
420
16777215
176
1
 90
1
176
1
 90
4
176
1
 62
7
176
1
 62
257
176
1
 90
1
176
1
 90
1
176
1
 40
1.0
176
1
 90
8
176
1
 62
7
176
1
 40
1.0
176
1
 90
1
176
1
 90
6
176
1
 90
2
176
1
 62
7
176
1
 90
5
176
1
 90
0
176
1
 90
0
176
1
290
0
176
1
 90
1
176
1
 40
0.0
176
1
 90
0
176
1
290
0
176
1
290
1
176
1
290
1
176
1
290
0
176
1
290
0
176
1
290
0
176
1
290
0
176
1
290
0
176
1
290
0
176
1
 90
50
176
1
 40
0.0
176
1
 40
1.0
176
1
 90
0
176
1
 62
18
420
0
176
1
 90
50
176
1
 90
3
176
1
 62
5
420
255
176
1
290
0
176
1
 90
50
176
1
 90
50
176
1
 90
50
176
1
290
0
176
1
 90
50
176
1
 62
256
176
0
 40
1.0
176
0
 90
2
176
1
  1
strokes_ogs.tif
176
1
290
0
176
1
 40
1.0
176
1
 40
1.0
176
1
  0
VISUALSTYLE
  5
71
102
{ACAD_REACTORS
330
16
102
}
330
16
100
AcDbVisualStyle
  2
Wireframe
 70
5
177
3
291
0
 70
58
 90
2
176
1
 90
2
176
1
 90
0
176
1
 90
0
176
1
 40
0.6
176
1
 40
30.0
176
1
 62
7
420
16777215
176
1
 90
1
176
1
 90
4
176
1
 62
7
176
1
 62
257
176
1
 90
1
176
1
 90
1
176
1
 40
1.0
176
1
 90
8
176
1
 62
7
176
1
 40
1.0
176
1
 90
1
176
1
 90
6
176
1
 90
2
176
1
 62
7
176
1
 90
5
176
1
 90
0
176
1
 90
0
176
1
290
0
176
1
 90
1
176
1
 40
0.0
176
1
 90
0
176
1
290
0
176
1
290
1
176
1
290
1
176
1
290
0
176
1
290
0
176
1
290
0
176
1
290
0
176
1
290
0
176
1
290
0
176
1
 90
50
176
1
 40
0.0
176
1
 40
1.0
176
1
 90
0
176
1
 62
18
420
0
176
1
 90
50
176
1
 90
3
176
1
 62
5
420
255
176
1
290
0
176
1
 90
50
176
1
 90
50
176
1
 90
50
176
1
290
0
176
1
 90
50
176
1
 62
256
176
0
 40
1.0
176
0
 90
2
176
1
  1
strokes_ogs.tif
176
1
290
0
176
1
 40
1.0
176
1
 40
1.0
176
1
  0
VISUALSTYLE
  5
72
102
{ACAD_REACTORS
330
16
102
}
330
16
100
AcDbVisualStyle
  2
X-Ray
 70
25
177
3
291
0
 70
58
 90
2
176
1
 90
2
176
1
 90
0
176
1
 90
2
176
1
 40
0.5
176
1
 40
30.0
176
1
 62
7
420
16777215
176
1
 90
1
176
1
 90
4
176
1
 62
7
176
1
 62
257
176
1
 90
1
176
1
 90
1
176
1
 40
1.0
176
1
 90
8
176
1
 62
7
176
1
 40
1.0
176
1
 90
1
176
1
 90
6
176
1
 90
2
176
1
 62
7
176
1
 90
5
176
1
 90
0
176
1
 90
0
176
1
290
0
176
1
 90
1
176
1
 40
0.0
176
1
 90
0
176
1
290
0
176
1
290
1
176
1
290
1
176
1
290
0
176
1
290
0
176
1
290
0
176
1
290
0
176
1
290
0
176
1
290
0
176
1
 90
50
176
1
 40
0.0
176
1
 40
1.0
176
1
 90
0
176
1
 62
18
420
0
176
1
 90
50
176
1
 90
3
176
1
 62
5
420
255
176
1
290
0
176
1
 90
50
176
1
 90
50
176
1
 90
50
176
1
290
0
176
1
 90
50
176
1
 62
256
176
0
 40
1.0
176
0
 90
2
176
1
  1
strokes_ogs.tif
176
1
290
0
176
1
 40
1.0
176
1
 40
1.0
176
1
  0
DICTIONARYVAR
  5
8E
330
2D
100
DictionaryVariables
280
0
  1
1.4.2 @ 2025-06-04T15:39:44.682192+00:00
  0
ENDSEC
  0
EOF
