  0
SECTION
  2
HEADER
  9
$ACADVER
  1
AC1027
  9
$ACADMAINTVER
 70
105
  9
$DWGCODEPAGE
  3
ANSI_1252
  9
$LASTSAVEDBY
  1
ezdxf
  9
$REQUIREDVERSIONS
160
0
  9
$INSBASE
 10
0.0
 20
0.0
 30
0.0
  9
$EXTMIN
 10
1e+20
 20
1e+20
 30
1e+20
  9
$EXTMAX
 10
-1e+20
 20
-1e+20
 30
-1e+20
  9
$LIMMIN
 10
0.0
 20
0.0
  9
$LIMMAX
 10
420.0
 20
297.0
  9
$ORTHOMODE
 70
0
  9
$REGENMODE
 70
1
  9
$FILLMODE
 70
1
  9
$QTEXTMODE
 70
0
  9
$MIRRTEXT
 70
1
  9
$LTSCALE
 40
1.0
  9
$ATTMODE
 70
1
  9
$TEXTSIZE
 40
2.5
  9
$TRACEWID
 40
1.0
  9
$TEXTSTYLE
  7
OpenSans
  9
$CLAYER
  8
0
  9
$CELTYPE
  6
ByLayer
  9
$CECOLOR
 62
256
  9
$CELTSCALE
 40
1.0
  9
$DISPSILH
 70
0
  9
$DIMSCALE
 40
1.0
  9
$DIMASZ
 40
0.175
  9
$DIMEXO
 40
0.125
  9
$DIMDLI
 40
3.75
  9
$DIMRND
 40
0.0
  9
$DIMDLE
 40
0.0
  9
$DIMEXE
 40
0.375
  9
$DIMTP
 40
0.0
  9
$DIMTM
 40
0.0
  9
$DIMTXT
 40
0.25
  9
$DIMCEN
 40
2.5
  9
$DIMTSZ
 40
0.0
  9
$DIMTOL
 70
0
  9
$DIMLIM
 70
0
  9
$DIMTIH
 70
0
  9
$DIMTOH
 70
0
  9
$DIMSE1
 70
0
  9
$DIMSE2
 70
0
  9
$DIMTAD
 70
1
  9
$DIMZIN
 70
12
  9
$DIMBLK
  1
ARCHTICK
  9
$DIMASO
 70
1
  9
$DIMSHO
 70
1
  9
$DIMPOST
  1

  9
$DIMAPOST
  1

  9
$DIMALT
 70
0
  9
$DIMALTD
 70
3
  9
$DIMALTF
 40
0.03937007874
  9
$DIMLFAC
 40
100.0
  9
$DIMTOFL
 70
1
  9
$DIMTVP
 40
0.0
  9
$DIMTIX
 70
0
  9
$DIMSOXD
 70
0
  9
$DIMSAH
 70
0
  9
$DIMBLK1
  1

  9
$DIMBLK2
  1

  9
$DIMSTYLE
  2
EZDXF
  9
$DIMCLRD
 70
0
  9
$DIMCLRE
 70
0
  9
$DIMCLRT
 70
0
  9
$DIMTFAC
 40
0.5
  9
$DIMGAP
 40
0.1
  9
$DIMJUST
 70
0
  9
$DIMSD1
 70
0
  9
$DIMSD2
 70
0
  9
$DIMTOLJ
 70
0
  9
$DIMTZIN
 70
8
  9
$DIMALTZ
 70
0
  9
$DIMALTTZ
 70
0
  9
$DIMUPT
 70
1
  9
$DIMDEC
 70
2
  9
$DIMTDEC
 70
2
  9
$DIMALTU
 70
2
  9
$DIMALTTD
 70
3
  9
$DIMTXSTY
  7
OpenSansCondensed-Light
  9
$DIMAUNIT
 70
0
  9
$DIMADEC
 70
2
  9
$DIMALTRND
 40
0.0
  9
$DIMAZIN
 70
3
  9
$DIMDSEP
 70
46
  9
$DIMATFIT
 70
3
  9
$DIMFRAC
 70
0
  9
$DIMLDRBLK
  1

  9
$DIMLUNIT
 70
2
  9
$DIMLWD
 70
-2
  9
$DIMLWE
 70
-2
  9
$DIMTMOVE
 70
2
  9
$DIMFXL
 40
1.0
  9
$DIMFXLON
 70
0
  9
$DIMJOGANG
 40
0.785398163397
  9
$DIMTFILL
 70
0
  9
$DIMTFILLCLR
 70
0
  9
$DIMARCSYM
 70
0
  9
$DIMLTYPE
  6

  9
$DIMLTEX1
  6

  9
$DIMLTEX2
  6

  9
$DIMTXTDIRECTION
 70
0
  9
$LUNITS
 70
2
  9
$LUPREC
 70
4
  9
$SKETCHINC
 40
1.0
  9
$FILLETRAD
 40
10.0
  9
$AUNITS
 70
0
  9
$AUPREC
 70
2
  9
$MENU
  1
.
  9
$ELEVATION
 40
0.0
  9
$PELEVATION
 40
0.0
  9
$THICKNESS
 40
0.0
  9
$LIMCHECK
 70
0
  9
$CHAMFERA
 40
0.0
  9
$CHAMFERB
 40
0.0
  9
$CHAMFERC
 40
0.0
  9
$CHAMFERD
 40
0.0
  9
$SKPOLY
 70
0
  9
$TDCREATE
 40
2460831.7355787037
  9
$TDUCREATE
 40
2458532.153996898
  9
$TDUPDATE
 40
2460831.7355787037
  9
$TDUUPDATE
 40
2458532.1544311
  9
$TDINDWG
 40
0.0
  9
$TDUSRTIMER
 40
0.0
  9
$USRTIMER
 70
1
  9
$ANGBASE
 50
0.0
  9
$ANGDIR
 70
0
  9
$PDMODE
 70
0
  9
$PDSIZE
 40
0.0
  9
$PLINEWID
 40
0.0
  9
$SPLFRAME
 70
0
  9
$SPLINETYPE
 70
6
  9
$SPLINESEGS
 70
8
  9
$HANDSEED
  5
8F
  9
$SURFTAB1
 70
6
  9
$SURFTAB2
 70
6
  9
$SURFTYPE
 70
6
  9
$SURFU
 70
6
  9
$SURFV
 70
6
  9
$UCSBASE
  2

  9
$UCSNAME
  2

  9
$UCSORG
 10
0.0
 20
0.0
 30
0.0
  9
$UCSXDIR
 10
1.0
 20
0.0
 30
0.0
  9
$UCSYDIR
 10
0.0
 20
1.0
 30
0.0
  9
$UCSORTHOREF
  2

  9
$UCSORTHOVIEW
 70
0
  9
$UCSORGTOP
 10
0.0
 20
0.0
 30
0.0
  9
$UCSORGBOTTOM
 10
0.0
 20
0.0
 30
0.0
  9
$UCSORGLEFT
 10
0.0
 20
0.0
 30
0.0
  9
$UCSORGRIGHT
 10
0.0
 20
0.0
 30
0.0
  9
$UCSORGFRONT
 10
0.0
 20
0.0
 30
0.0
  9
$UCSORGBACK
 10
0.0
 20
0.0
 30
0.0
  9
$PUCSBASE
  2

  9
$PUCSNAME
  2

  9
$PUCSORG
 10
0.0
 20
0.0
 30
0.0
  9
$PUCSXDIR
 10
1.0
 20
0.0
 30
0.0
  9
$PUCSYDIR
 10
0.0
 20
1.0
 30
0.0
  9
$PUCSORTHOREF
  2

  9
$PUCSORTHOVIEW
 70
0
  9
$PUCSORGTOP
 10
0.0
 20
0.0
 30
0.0
  9
$PUCSORGBOTTOM
 10
0.0
 20
0.0
 30
0.0
  9
$PUCSORGLEFT
 10
0.0
 20
0.0
 30
0.0
  9
$PUCSORGRIGHT
 10
0.0
 20
0.0
 30
0.0
  9
$PUCSORGFRONT
 10
0.0
 20
0.0
 30
0.0
  9
$PUCSORGBACK
 10
0.0
 20
0.0
 30
0.0
  9
$USERI1
 70
0
  9
$USERI2
 70
0
  9
$USERI3
 70
0
  9
$USERI4
 70
0
  9
$USERI5
 70
0
  9
$USERR1
 40
0.0
  9
$USERR2
 40
0.0
  9
$USERR3
 40
0.0
  9
$USERR4
 40
0.0
  9
$USERR5
 40
0.0
  9
$WORLDVIEW
 70
1
  9
$SHADEDGE
 70
3
  9
$SHADEDIF
 70
70
  9
$TILEMODE
 70
1
  9
$MAXACTVP
 70
64
  9
$PINSBASE
 10
0.0
 20
0.0
 30
0.0
  9
$PLIMCHECK
 70
0
  9
$PEXTMIN
 10
1e+20
 20
1e+20
 30
1e+20
  9
$PEXTMAX
 10
-1e+20
 20
-1e+20
 30
-1e+20
  9
$PLIMMIN
 10
0.0
 20
0.0
  9
$PLIMMAX
 10
420.0
 20
297.0
  9
$UNITMODE
 70
0
  9
$VISRETAIN
 70
1
  9
$PLINEGEN
 70
0
  9
$PSLTSCALE
 70
1
  9
$TREEDEPTH
 70
3020
  9
$CMLSTYLE
  2
Standard
  9
$CMLJUST
 70
0
  9
$CMLSCALE
 40
20.0
  9
$PROXYGRAPHICS
 70
1
  9
$MEASUREMENT
 70
1
  9
$CELWEIGHT
370
-1
  9
$ENDCAPS
280
0
  9
$JOINSTYLE
280
0
  9
$LWDISPLAY
290
0
  9
$INSUNITS
 70
6
  9
$HYPERLINKBASE
  1

  9
$STYLESHEET
  1

  9
$XEDIT
290
1
  9
$CEPSNTYPE
380
0
  9
$PSTYLEMODE
290
1
  9
$FINGERPRINTGUID
  2
{9EC530C2-8A75-45DC-879B-9F75FDBC3ED5}
  9
$VERSIONGUID
  2
{5D5EBDC2-DEC8-448D-A32C-F1A0ABA6E8F9}
  9
$EXTNAMES
290
1
  9
$PSVPSCALE
 40
0.0
  9
$OLESTARTUP
290
0
  9
$SORTENTS
280
127
  9
$INDEXCTL
280
0
  9
$HIDETEXT
280
1
  9
$XCLIPFRAME
280
1
  9
$HALOGAP
280
0
  9
$OBSCOLOR
 70
257
  9
$OBSLTYPE
280
0
  9
$INTERSECTIONDISPLAY
280
0
  9
$INTERSECTIONCOLOR
 70
257
  9
$DIMASSOC
280
2
  9
$PROJECTNAME
  1

  9
$CAMERADISPLAY
290
0
  9
$LENSLENGTH
 40
50.0
  9
$CAMERAHEIGHT
 40
0.0
  9
$STEPSPERSEC
 40
24.0
  9
$STEPSIZE
 40
100.0
  9
$3DDWFPREC
 40
2.0
  9
$PSOLWIDTH
 40
0.005
  9
$PSOLHEIGHT
 40
0.08
  9
$LOFTANG1
 40
1.570796326795
  9
$LOFTANG2
 40
1.570796326795
  9
$LOFTMAG1
 40
0.0
  9
$LOFTMAG2
 40
0.0
  9
$LOFTPARAM
 70
7
  9
$LOFTNORMALS
280
1
  9
$LATITUDE
 40
37.795
  9
$LONGITUDE
 40
-122.394
  9
$NORTHDIRECTION
 40
0.0
  9
$TIMEZONE
 70
-8000
  9
$LIGHTGLYPHDISPLAY
280
1
  9
$TILEMODELIGHTSYNCH
280
1
  9
$CMATERIAL
347
20
  9
$SOLIDHIST
280
0
  9
$SHOWHIST
280
1
  9
$DWFFRAME
280
2
  9
$DGNFRAME
280
2
  9
$REALWORLDSCALE
290
1
  9
$INTERFERECOLOR
 62
256
  9
$CSHADOW
280
0
  9
$SHADOWPLANELOCATION
 40
0.0
  0
ENDSEC
  0
SECTION
  2
CLASSES
  0
CLASS
  1
ACDBDICTIONARYWDFLT
  2
AcDbDictionaryWithDefault
  3
ObjectDBX Classes
 90
0
 91
0
280
0
281
0
  0
CLASS
  1
SUN
  2
AcDbSun
  3
SCENEOE
 90
1153
 91
0
280
0
281
0
  0
CLASS
  1
VISUALSTYLE
  2
AcDbVisualStyle
  3
ObjectDBX Classes
 90
4095
 91
0
280
0
281
0
  0
CLASS
  1
MATERIAL
  2
AcDbMaterial
  3
ObjectDBX Classes
 90
1153
 91
0
280
0
281
0
  0
CLASS
  1
SCALE
  2
AcDbScale
  3
ObjectDBX Classes
 90
1153
 91
0
280
0
281
0
  0
CLASS
  1
TABLESTYLE
  2
AcDbTableStyle
  3
ObjectDBX Classes
 90
4095
 91
0
280
0
281
0
  0
CLASS
  1
MLEADERSTYLE
  2
AcDbMLeaderStyle
  3
ACDB_MLEADERSTYLE_CLASS
 90
4095
 91
0
280
0
281
0
  0
CLASS
  1
DICTIONARYVAR
  2
AcDbDictionaryVar
  3
ObjectDBX Classes
 90
0
 91
0
280
0
281
0
  0
CLASS
  1
CELLSTYLEMAP
  2
AcDbCellStyleMap
  3
ObjectDBX Classes
 90
1152
 91
0
280
0
281
0
  0
CLASS
  1
MENTALRAYRENDERSETTINGS
  2
AcDbMentalRayRenderSettings
  3
SCENEOE
 90
1024
 91
0
280
0
281
0
  0
CLASS
  1
ACDBDETAILVIEWSTYLE
  2
AcDbDetailViewStyle
  3
ObjectDBX Classes
 90
1025
 91
0
280
0
281
0
  0
CLASS
  1
ACDBSECTIONVIEWSTYLE
  2
AcDbSectionViewStyle
  3
ObjectDBX Classes
 90
1025
 91
0
280
0
281
0
  0
CLASS
  1
RASTERVARIABLES
  2
AcDbRasterVariables
  3
ISM
 90
0
 91
0
280
0
281
0
  0
CLASS
  1
LAYOUT
  2
AcDbLayout
  3
ObjectDBX Classes
 90
0
 91
0
280
0
281
0
  0
CLASS
  1
ACDBPLACEHOLDER
  2
AcDbPlaceHolder
  3
ObjectDBX Classes
 90
0
 91
0
280
0
281
0
  0
ENDSEC
  0
SECTION
  2
TABLES
  0
TABLE
  2
VPORT
  5
8
330
0
100
AcDbSymbolTable
 70
1
  0
VPORT
  5
23
330
8
100
AcDbSymbolTableRecord
100
AcDbViewportTableRecord
  2
*Active
 70
0
 10
0.0
 20
0.0
 11
1.0
 21
1.0
 12
0.0
 22
0.0
 13
0.0
 23
0.0
 14
0.5
 24
0.5
 15
0.5
 25
0.5
 16
0.0
 26
0.0
 36
1.0
 17
0.0
 27
0.0
 37
0.0
 40
1000.0
 41
1.34
 42
50.0
 43
0.0
 44
0.0
 50
0.0
 51
0.0
 71
0
 72
1000
 73
1
 74
3
 75
0
 76
0
 77
0
 78
0
281
0
 65
0
146
0.0
  0
ENDTAB
  0
TABLE
  2
LTYPE
  5
2
330
0
100
AcDbSymbolTable
 70
21
  0
LTYPE
  5
24
330
2
100
AcDbSymbolTableRecord
100
AcDbLinetypeTableRecord
  2
ByBlock
 70
0
  3

 72
65
 73
0
 40
0.0
  0
LTYPE
  5
25
330
2
100
AcDbSymbolTableRecord
100
AcDbLinetypeTableRecord
  2
ByLayer
 70
0
  3

 72
65
 73
0
 40
0.0
  0
LTYPE
  5
26
330
2
100
AcDbSymbolTableRecord
100
AcDbLinetypeTableRecord
  2
Continuous
 70
0
  3

 72
65
 73
0
 40
0.0
  0
LTYPE
  5
2F
330
2
100
AcDbSymbolTableRecord
100
AcDbLinetypeTableRecord
  2
CENTER
 70
0
  3
Center ____ _ ____ _ ____ _ ____ _ ____ _ ____
 72
65
 73
4
 40
5.08
 49
3.175
 74
0
 49
-0.635
 74
0
 49
0.635
 74
0
 49
-0.635
 74
0
  0
LTYPE
  5
30
330
2
100
AcDbSymbolTableRecord
100
AcDbLinetypeTableRecord
  2
CENTERX2
 70
0
  3
Center (2x) ________  __  ________  __  ________
 72
65
 73
4
 40
8.89
 49
6.35
 74
0
 49
-0.635
 74
0
 49
1.27
 74
0
 49
-0.635
 74
0
  0
LTYPE
  5
31
330
2
100
AcDbSymbolTableRecord
100
AcDbLinetypeTableRecord
  2
CENTER2
 70
0
  3
Center (.5x) ____ _ ____ _ ____ _ ____ _ ____
 72
65
 73
4
 40
2.54
 49
1.587
 74
0
 49
-0.318
 74
0
 49
0.318
 74
0
 49
-0.318
 74
0
  0
LTYPE
  5
32
330
2
100
AcDbSymbolTableRecord
100
AcDbLinetypeTableRecord
  2
DASHED
 70
0
  3
Dashed __ __ __ __ __ __ __ __ __ __ __ __ __ _
 72
65
 73
2
 40
1.524
 49
1.27
 74
0
 49
-0.254
 74
0
  0
LTYPE
  5
33
330
2
100
AcDbSymbolTableRecord
100
AcDbLinetypeTableRecord
  2
DASHEDX2
 70
0
  3
Dashed (2x) ____  ____  ____  ____  ____  ____
 72
65
 73
2
 40
3.048
 49
2.54
 74
0
 49
-0.508
 74
0
  0
LTYPE
  5
34
330
2
100
AcDbSymbolTableRecord
100
AcDbLinetypeTableRecord
  2
DASHED2
 70
0
  3
Dashed (.5x) _ _ _ _ _ _ _ _ _ _ _ _ _ _
 72
65
 73
2
 40
0.762
 49
0.635
 74
0
 49
-0.127
 74
0
  0
LTYPE
  5
35
330
2
100
AcDbSymbolTableRecord
100
AcDbLinetypeTableRecord
  2
PHANTOM
 70
0
  3
Phantom ______  __  __  ______  __  __  ______
 72
65
 73
6
 40
6.35
 49
3.175
 74
0
 49
-0.635
 74
0
 49
0.635
 74
0
 49
-0.635
 74
0
 49
0.635
 74
0
 49
-0.635
 74
0
  0
LTYPE
  5
36
330
2
100
AcDbSymbolTableRecord
100
AcDbLinetypeTableRecord
  2
PHANTOMX2
 70
0
  3
Phantom (2x)____________    ____    ____    ____________
 72
65
 73
6
 40
10.795
 49
6.35
 74
0
 49
-0.635
 74
0
 49
1.27
 74
0
 49
-0.635
 74
0
 49
1.27
 74
0
 49
-0.635
 74
0
  0
LTYPE
  5
37
330
2
100
AcDbSymbolTableRecord
100
AcDbLinetypeTableRecord
  2
PHANTOM2
 70
0
  3
Phantom (.5x) ___ _ _ ___ _ _ ___ _ _ ___ _ _ ___
 72
65
 73
6
 40
3.175
 49
1.587
 74
0
 49
-0.318
 74
0
 49
0.318
 74
0
 49
-0.318
 74
0
 49
0.318
 74
0
 49
-0.318
 74
0
  0
LTYPE
  5
38
330
2
100
AcDbSymbolTableRecord
100
AcDbLinetypeTableRecord
  2
DASHDOT
 70
0
  3
Dash dot __ . __ . __ . __ . __ . __ . __ . __
 72
65
 73
4
 40
3.556
 49
2.54
 74
0
 49
-0.508
 74
0
 49
0.0
 74
0
 49
-0.508
 74
0
  0
LTYPE
  5
39
330
2
100
AcDbSymbolTableRecord
100
AcDbLinetypeTableRecord
  2
DASHDOTX2
 70
0
  3
Dash dot (2x) ____  .  ____  .  ____  .  ____
 72
65
 73
4
 40
6.096
 49
5.08
 74
0
 49
-0.508
 74
0
 49
0.0
 74
0
 49
-0.508
 74
0
  0
LTYPE
  5
3A
330
2
100
AcDbSymbolTableRecord
100
AcDbLinetypeTableRecord
  2
DASHDOT2
 70
0
  3
Dash dot (.5x) _ . _ . _ . _ . _ . _ . _ . _
 72
65
 73
4
 40
1.778
 49
1.27
 74
0
 49
-0.254
 74
0
 49
0.0
 74
0
 49
-0.254
 74
0
  0
LTYPE
  5
3B
330
2
100
AcDbSymbolTableRecord
100
AcDbLinetypeTableRecord
  2
DOT
 70
0
  3
Dot .  .  .  .  .  .  .  .  .  .  .  .  .  .  .  .
 72
65
 73
2
 40
0.508
 49
0.0
 74
0
 49
-0.508
 74
0
  0
LTYPE
  5
3C
330
2
100
AcDbSymbolTableRecord
100
AcDbLinetypeTableRecord
  2
DOTX2
 70
0
  3
Dot (2x) .    .    .    .    .    .    .    . 
 72
65
 73
2
 40
1.016
 49
0.0
 74
0
 49
-1.016
 74
0
  0
LTYPE
  5
3D
330
2
100
AcDbSymbolTableRecord
100
AcDbLinetypeTableRecord
  2
DOT2
 70
0
  3
Dot (.5) . . . . . . . . . . . . . . . . . . . 
 72
65
 73
2
 40
0.254
 49
0.0
 74
0
 49
-0.254
 74
0
  0
LTYPE
  5
3E
330
2
100
AcDbSymbolTableRecord
100
AcDbLinetypeTableRecord
  2
DIVIDE
 70
0
  3
Divide __ . . __ . . __ . . __ . . __ . . __
 72
65
 73
6
 40
4.064
 49
2.54
 74
0
 49
-0.508
 74
0
 49
0.0
 74
0
 49
-0.508
 74
0
 49
0.0
 74
0
 49
-0.508
 74
0
  0
LTYPE
  5
3F
330
2
100
AcDbSymbolTableRecord
100
AcDbLinetypeTableRecord
  2
DIVIDEX2
 70
0
  3
Divide (2x) ____  . .  ____  . .  ____  . .  ____
 72
65
 73
6
 40
6.604
 49
5.08
 74
0
 49
-0.508
 74
0
 49
0.0
 74
0
 49
-0.508
 74
0
 49
0.0
 74
0
 49
-0.508
 74
0
  0
LTYPE
  5
40
330
2
100
AcDbSymbolTableRecord
100
AcDbLinetypeTableRecord
  2
DIVIDE2
 70
0
  3
Divide(.5x) _ . _ . _ . _ . _ . _ . _ . _
 72
65
 73
6
 40
2.032
 49
1.27
 74
0
 49
-0.254
 74
0
 49
0.0
 74
0
 49
-0.254
 74
0
 49
0.0
 74
0
 49
-0.254
 74
0
  0
ENDTAB
  0
TABLE
  2
LAYER
  5
1
330
0
100
AcDbSymbolTable
 70
2
  0
LAYER
  5
27
330
1
100
AcDbSymbolTableRecord
100
AcDbLayerTableRecord
  2
0
 70
0
 62
7
  6
Continuous
370
-3
390
13
347
21
  0
LAYER
  5
28
330
1
100
AcDbSymbolTableRecord
100
AcDbLayerTableRecord
  2
Defpoints
 70
0
 62
7
  6
Continuous
290
0
370
-3
390
13
347
21
  0
ENDTAB
  0
TABLE
  2
STYLE
  5
5
330
0
100
AcDbSymbolTable
 70
26
  0
STYLE
  5
29
330
5
100
AcDbSymbolTableRecord
100
AcDbTextStyleTableRecord
  2
Standard
 70
0
 40
0.0
 41
1.0
 50
0.0
 71
0
 42
2.5
  3
txt
  4

  0
STYLE
  5
41
330
5
100
AcDbSymbolTableRecord
100
AcDbTextStyleTableRecord
  2
OpenSans-Light
 70
0
 40
0.0
 41
1.0
 50
0.0
 71
0
 42
2.5
  3
OpenSans-Light.ttf
  4

  0
STYLE
  5
42
330
5
100
AcDbSymbolTableRecord
100
AcDbTextStyleTableRecord
  2
OpenSans-Light-Italic
 70
0
 40
0.0
 41
1.0
 50
0.0
 71
0
 42
2.5
  3
OpenSans-LightItalic.ttf
  4

  0
STYLE
  5
43
330
5
100
AcDbSymbolTableRecord
100
AcDbTextStyleTableRecord
  2
OpenSans
 70
0
 40
0.0
 41
1.0
 50
0.0
 71
0
 42
2.5
  3
OpenSans-Regular.ttf
  4

  0
STYLE
  5
44
330
5
100
AcDbSymbolTableRecord
100
AcDbTextStyleTableRecord
  2
OpenSans-Italic
 70
0
 40
0.0
 41
1.0
 50
0.0
 71
0
 42
2.5
  3
OpenSans-Italic.ttf
  4

  0
STYLE
  5
45
330
5
100
AcDbSymbolTableRecord
100
AcDbTextStyleTableRecord
  2
OpenSans-SemiBold
 70
0
 40
0.0
 41
1.0
 50
0.0
 71
0
 42
2.5
  3
OpenSans-SemiBold.ttf
  4

  0
STYLE
  5
46
330
5
100
AcDbSymbolTableRecord
100
AcDbTextStyleTableRecord
  2
OpenSans-SemiBoldItalic
 70
0
 40
0.0
 41
1.0
 50
0.0
 71
0
 42
2.5
  3
OpenSans-SemiBoldItalic.ttf
  4

  0
STYLE
  5
47
330
5
100
AcDbSymbolTableRecord
100
AcDbTextStyleTableRecord
  2
OpenSans-Bold
 70
0
 40
0.0
 41
1.0
 50
0.0
 71
0
 42
2.5
  3
OpenSans-Bold.ttf
  4

  0
STYLE
  5
48
330
5
100
AcDbSymbolTableRecord
100
AcDbTextStyleTableRecord
  2
OpenSans-BoldItalic
 70
0
 40
0.0
 41
1.0
 50
0.0
 71
0
 42
2.5
  3
OpenSans-BoldItalic.ttf
  4

  0
STYLE
  5
49
330
5
100
AcDbSymbolTableRecord
100
AcDbTextStyleTableRecord
  2
OpenSans-ExtraBold
 70
0
 40
0.0
 41
1.0
 50
0.0
 71
0
 42
2.5
  3
OpenSans-ExtraBold.ttf
  4

  0
STYLE
  5
4A
330
5
100
AcDbSymbolTableRecord
100
AcDbTextStyleTableRecord
  2
OpenSans-ExtraBoldItalic
 70
0
 40
0.0
 41
1.0
 50
0.0
 71
0
 42
2.5
  3
OpenSans-ExtraBoldItalic.ttf
  4

  0
STYLE
  5
4B
330
5
100
AcDbSymbolTableRecord
100
AcDbTextStyleTableRecord
  2
OpenSansCondensed-Bold
 70
0
 40
0.0
 41
1.0
 50
0.0
 71
0
 42
2.5
  3
OpenSansCondensed-Bold.ttf
  4

  0
STYLE
  5
4C
330
5
100
AcDbSymbolTableRecord
100
AcDbTextStyleTableRecord
  2
OpenSansCondensed-Light
 70
0
 40
0.0
 41
1.0
 50
0.0
 71
0
 42
2.5
  3
OpenSansCondensed-Light.ttf
  4

  0
STYLE
  5
4D
330
5
100
AcDbSymbolTableRecord
100
AcDbTextStyleTableRecord
  2
OpenSansCondensed-Italic
 70
0
 40
0.0
 41
1.0
 50
0.0
 71
0
 42
2.5
  3
OpenSansCondensed-LightItalic.ttf
  4

  0
STYLE
  5
4E
330
5
100
AcDbSymbolTableRecord
100
AcDbTextStyleTableRecord
  2
LiberationSans
 70
0
 40
0.0
 41
1.0
 50
0.0
 71
0
 42
2.5
  3
LiberationSans-Regular.ttf
  4

  0
STYLE
  5
4F
330
5
100
AcDbSymbolTableRecord
100
AcDbTextStyleTableRecord
  2
LiberationSans-Bold
 70
0
 40
0.0
 41
1.0
 50
0.0
 71
0
 42
2.5
  3
LiberationSans-Bold.ttf
  4

  0
STYLE
  5
50
330
5
100
AcDbSymbolTableRecord
100
AcDbTextStyleTableRecord
  2
LiberationSans-BoldItalic
 70
0
 40
0.0
 41
1.0
 50
0.0
 71
0
 42
2.5
  3
LiberationSans-BoldItalic.ttf
  4

  0
STYLE
  5
51
330
5
100
AcDbSymbolTableRecord
100
AcDbTextStyleTableRecord
  2
LiberationSans-Italic
 70
0
 40
0.0
 41
1.0
 50
0.0
 71
0
 42
2.5
  3
LiberationSans-Italic.ttf
  4

  0
STYLE
  5
52
330
5
100
AcDbSymbolTableRecord
100
AcDbTextStyleTableRecord
  2
LiberationSerif
 70
0
 40
0.0
 41
1.0
 50
0.0
 71
0
 42
2.5
  3
LiberationSerif-Regular.ttf
  4

  0
STYLE
  5
53
330
5
100
AcDbSymbolTableRecord
100
AcDbTextStyleTableRecord
  2
LiberationSerif-Bold
 70
0
 40
0.0
 41
1.0
 50
0.0
 71
0
 42
2.5
  3
LiberationSerif-Bold.ttf
  4

  0
STYLE
  5
54
330
5
100
AcDbSymbolTableRecord
100
AcDbTextStyleTableRecord
  2
LiberationSerif-BoldItalic
 70
0
 40
0.0
 41
1.0
 50
0.0
 71
0
 42
2.5
  3
LiberationSerif-BoldItalic.ttf
  4

  0
STYLE
  5
55
330
5
100
AcDbSymbolTableRecord
100
AcDbTextStyleTableRecord
  2
LiberationSerif-Italic
 70
0
 40
0.0
 41
1.0
 50
0.0
 71
0
 42
2.5
  3
LiberationSerif-Italic.ttf
  4

  0
STYLE
  5
56
330
5
100
AcDbSymbolTableRecord
100
AcDbTextStyleTableRecord
  2
LiberationMono
 70
0
 40
0.0
 41
1.0
 50
0.0
 71
0
 42
2.5
  3
LiberationMono-Regular.ttf
  4

  0
STYLE
  5
57
330
5
100
AcDbSymbolTableRecord
100
AcDbTextStyleTableRecord
  2
LiberationMono-Bold
 70
0
 40
0.0
 41
1.0
 50
0.0
 71
0
 42
2.5
  3
LiberationMono-Bold.ttf
  4

  0
STYLE
  5
58
330
5
100
AcDbSymbolTableRecord
100
AcDbTextStyleTableRecord
  2
LiberationMono-BoldItalic
 70
0
 40
0.0
 41
1.0
 50
0.0
 71
0
 42
2.5
  3
LiberationMono-BoldItalic.ttf
  4

  0
STYLE
  5
59
330
5
100
AcDbSymbolTableRecord
100
AcDbTextStyleTableRecord
  2
LiberationMono-Italic
 70
0
 40
0.0
 41
1.0
 50
0.0
 71
0
 42
2.5
  3
LiberationMono-Italic.ttf
  4

  0
ENDTAB
  0
TABLE
  2
VIEW
  5
7
330
0
100
AcDbSymbolTable
 70
0
  0
ENDTAB
  0
TABLE
  2
UCS
  5
6
330
0
100
AcDbSymbolTable
 70
0
  0
ENDTAB
  0
TABLE
  2
APPID
  5
3
330
0
100
AcDbSymbolTable
 70
3
  0
APPID
  5
2A
330
3
100
AcDbSymbolTableRecord
100
AcDbRegAppTableRecord
  2
ACAD
 70
0
  0
APPID
  5
8C
330
3
100
AcDbSymbolTableRecord
100
AcDbRegAppTableRecord
  2
HATCHBACKGROUNDCOLOR
 70
0
  0
APPID
  5
8D
330
3
100
AcDbSymbolTableRecord
100
AcDbRegAppTableRecord
  2
EZDXF
 70
0
  0
ENDTAB
  0
TABLE
  2
DIMSTYLE
  5
4
330
0
100
AcDbSymbolTable
 70
12
100
AcDbDimStyleTable
  0
DIMSTYLE
105
2B
330
4
100
AcDbSymbolTableRecord
100
AcDbDimStyleTableRecord
  2
Standard
 70
0
 40
1.0
 41
2.5
 42
0.625
 43
3.75
 44
1.25
 45
0.0
 46
0.0
 47
0.0
 48
0.0
 49
2.5
140
2.5
141
2.5
142
0.0
143
0.03937007874
144
1.0
145
0.0
146
1.0
147
0.625
148
0.0
 69
0
 70
0
 71
0
 72
0
 73
0
 74
0
 75
0
 76
0
 77
1
 78
8
 79
3
170
0
171
3
172
1
173
0
174
0
175
0
176
0
177
0
178
0
179
2
271
2
272
2
273
2
274
3
275
0
276
0
277
2
278
44
279
0
280
0
281
0
282
0
283
0
284
8
285
0
286
0
288
0
289
3
290
0
371
-2
372
-2
  0
DIMSTYLE
105
73
330
4
100
AcDbSymbolTableRecord
100
AcDbDimStyleTableRecord
  2
EZDXF
 70
0
 40
1.0
 41
0.175
 42
0.125
 43
3.75
 44
0.375
 45
0.0
 46
0.0
 47
0.0
 48
0.0
 49
2.5
140
0.25
141
2.5
142
0.0
143
0.03937007874
144
100.0
145
0.0
146
0.5
147
0.1
148
0.0
 69
0
 70
0
 71
0
 72
0
 73
0
 74
0
 75
0
 76
0
 77
1
 78
12
 79
3
170
0
171
3
172
1
173
0
174
0
175
0
176
0
177
0
178
0
179
2
271
2
272
2
273
2
274
3
275
0
276
0
277
2
278
46
279
2
280
0
281
0
282
0
283
0
284
8
285
0
286
0
288
1
289
3
290
0
340
4C
342
74
371
-2
372
-2
  0
DIMSTYLE
105
7C
330
4
100
AcDbSymbolTableRecord
100
AcDbDimStyleTableRecord
  2
EZ_M_100_H25_CM
 70
0
 40
1.0
 41
0.25
 42
0.125
 43
3.75
 44
0.375
 45
0.0
 46
0.0
 47
0.0
 48
0.0
 49
2.5
140
0.25
141
2.5
142
0.125
143
0.03937007874
144
100.0
145
0.0
146
0.5
147
0.1
148
0.0
 69
0
 70
0
 71
0
 72
0
 73
0
 74
0
 75
0
 76
0
 77
1
 78
12
 79
3
170
0
171
3
172
1
173
0
174
0
175
0
176
0
177
0
178
0
179
2
271
2
272
2
273
2
274
3
275
0
276
0
277
2
278
46
279
2
280
0
281
0
282
0
283
0
284
8
285
0
286
0
288
1
289
3
290
0
340
4C
371
-2
372
-2
  0
DIMSTYLE
105
7D
330
4
100
AcDbSymbolTableRecord
100
AcDbDimStyleTableRecord
  2
EZ_M_50_H25_CM
 70
0
 40
1.0
 41
0.125
 42
0.0625
 43
3.75
 44
0.1875
 45
0.0
 46
0.0
 47
0.0
 48
0.0
 49
2.5
140
0.125
141
2.5
142
0.0625
143
0.03937007874
144
100.0
145
0.0
146
0.5
147
0.05
148
0.0
 69
0
 70
0
 71
0
 72
0
 73
0
 74
0
 75
0
 76
0
 77
1
 78
12
 79
3
170
0
171
3
172
1
173
0
174
0
175
0
176
0
177
0
178
0
179
2
271
2
272
2
273
2
274
3
275
0
276
0
277
2
278
46
279
2
280
0
281
0
282
0
283
0
284
8
285
0
286
0
288
1
289
3
290
0
340
4C
371
-2
372
-2
  0
DIMSTYLE
105
7E
330
4
100
AcDbSymbolTableRecord
100
AcDbDimStyleTableRecord
  2
EZ_M_25_H25_CM
 70
0
 40
1.0
 41
0.0625
 42
0.03125
 43
3.75
 44
0.09375
 45
0.0
 46
0.0
 47
0.0
 48
0.0
 49
2.5
140
0.0625
141
2.5
142
0.03125
143
0.03937007874
144
100.0
145
0.0
146
0.5
147
0.025
148
0.0
 69
0
 70
0
 71
0
 72
0
 73
0
 74
0
 75
0
 76
0
 77
1
 78
12
 79
3
170
0
171
3
172
1
173
0
174
0
175
0
176
0
177
0
178
0
179
2
271
2
272
2
273
2
274
3
275
0
276
0
277
2
278
46
279
2
280
0
281
0
282
0
283
0
284
8
285
0
286
0
288
1
289
3
290
0
340
4C
371
-2
372
-2
  0
DIMSTYLE
105
7F
330
4
100
AcDbSymbolTableRecord
100
AcDbDimStyleTableRecord
  2
EZ_M_20_H25_CM
 70
0
 40
1.0
 41
0.05
 42
0.025
 43
3.75
 44
0.07500000000000001
 45
0.0
 46
0.0
 47
0.0
 48
0.0
 49
2.5
140
0.05
141
2.5
142
0.025
143
0.03937007874
144
100.0
145
0.0
146
0.5
147
0.020000000000000004
148
0.0
 69
0
 70
0
 71
0
 72
0
 73
0
 74
0
 75
0
 76
0
 77
1
 78
12
 79
3
170
0
171
3
172
1
173
0
174
0
175
0
176
0
177
0
178
0
179
2
271
2
272
2
273
2
274
3
275
0
276
0
277
2
278
46
279
2
280
0
281
0
282
0
283
0
284
8
285
0
286
0
288
1
289
3
290
0
340
4C
371
-2
372
-2
  0
DIMSTYLE
105
80
330
4
100
AcDbSymbolTableRecord
100
AcDbDimStyleTableRecord
  2
EZ_M_10_H25_CM
 70
0
 40
1.0
 41
0.025
 42
0.0125
 43
3.75
 44
0.037500000000000006
 45
0.0
 46
0.0
 47
0.0
 48
0.0
 49
2.5
140
0.025
141
2.5
142
0.0125
143
0.03937007874
144
100.0
145
0.0
146
0.5
147
0.010000000000000002
148
0.0
 69
0
 70
0
 71
0
 72
0
 73
0
 74
0
 75
0
 76
0
 77
1
 78
12
 79
3
170
0
171
3
172
1
173
0
174
0
175
0
176
0
177
0
178
0
179
2
271
2
272
2
273
2
274
3
275
0
276
0
277
2
278
46
279
2
280
0
281
0
282
0
283
0
284
8
285
0
286
0
288
1
289
3
290
0
340
4C
371
-2
372
-2
  0
DIMSTYLE
105
81
330
4
100
AcDbSymbolTableRecord
100
AcDbDimStyleTableRecord
  2
EZ_M_5_H25_CM
 70
0
 40
1.0
 41
0.0125
 42
0.00625
 43
3.75
 44
0.018750000000000003
 45
0.0
 46
0.0
 47
0.0
 48
0.0
 49
2.5
140
0.0125
141
2.5
142
0.00625
143
0.03937007874
144
100.0
145
0.0
146
0.5
147
0.005000000000000001
148
0.0
 69
0
 70
0
 71
0
 72
0
 73
0
 74
0
 75
0
 76
0
 77
1
 78
12
 79
3
170
0
171
3
172
1
173
0
174
0
175
0
176
0
177
0
178
0
179
2
271
2
272
2
273
2
274
3
275
0
276
0
277
2
278
46
279
2
280
0
281
0
282
0
283
0
284
8
285
0
286
0
288
1
289
3
290
0
340
4C
371
-2
372
-2
  0
DIMSTYLE
105
82
330
4
100
AcDbSymbolTableRecord
100
AcDbDimStyleTableRecord
  2
EZ_M_1_H25_CM
 70
0
 40
1.0
 41
0.0025
 42
0.00125
 43
3.75
 44
0.00375
 45
0.0
 46
0.0
 47
0.0
 48
0.0
 49
2.5
140
0.0025
141
2.5
142
0.00125
143
0.03937007874
144
100.0
145
0.0
146
0.5
147
0.001
148
0.0
 69
0
 70
0
 71
0
 72
0
 73
0
 74
0
 75
0
 76
0
 77
1
 78
12
 79
3
170
0
171
3
172
1
173
0
174
0
175
0
176
0
177
0
178
0
179
2
271
2
272
2
273
2
274
3
275
0
276
0
277
2
278
46
279
2
280
0
281
0
282
0
283
0
284
8
285
0
286
0
288
1
289
3
290
0
340
4C
371
-2
372
-2
  0
DIMSTYLE
105
83
330
4
100
AcDbSymbolTableRecord
100
AcDbDimStyleTableRecord
  2
EZ_RADIUS
 70
0
 40
1.0
 41
0.25
 42
0.125
 43
3.75
 44
0.375
 45
0.0
 46
0.0
 47
0.0
 48
0.0
 49
2.5
140
0.25
141
0.0
142
0.0
143
0.03937007874
144
100.0
145
0.0
146
0.5
147
0.1
148
0.0
 69
0
 70
0
 71
0
 72
0
 73
0
 74
0
 75
0
 76
0
 77
1
 78
12
 79
3
170
0
171
3
172
0
173
0
174
0
175
0
176
0
177
0
178
0
179
2
271
2
272
2
273
2
274
3
275
0
276
0
277
2
278
46
279
1
280
0
281
0
282
0
283
0
284
8
285
0
286
0
288
1
289
3
290
0
340
4C
342
84
371
-2
372
-2
  0
DIMSTYLE
105
88
330
4
100
AcDbSymbolTableRecord
100
AcDbDimStyleTableRecord
  2
EZ_RADIUS_INSIDE
 70
0
 40
1.0
 41
0.25
 42
0.125
 43
3.75
 44
0.375
 45
0.0
 46
0.0
 47
0.0
 48
0.0
 49
2.5
140
0.25
141
0.0
142
0.0
143
0.03937007874
144
100.0
145
0.0
146
0.5
147
0.1
148
0.0
 69
0
 70
0
 71
0
 72
0
 73
0
 74
0
 75
0
 76
0
 77
0
 78
12
 79
3
170
0
171
3
172
0
173
0
174
1
175
0
176
0
177
0
178
0
179
2
271
2
272
2
273
2
274
3
275
0
276
0
277
2
278
46
279
0
280
0
281
0
282
0
283
0
284
8
285
0
286
0
288
1
289
0
290
0
340
4C
342
84
371
-2
372
-2
  0
DIMSTYLE
105
89
330
4
100
AcDbSymbolTableRecord
100
AcDbDimStyleTableRecord
  2
EZ_CURVED
 70
0
 40
1.0
 41
0.25
 42
0.125
 43
3.75
 44
0.375
 45
0.0
 46
0.0
 47
0.0
 48
0.0
 49
2.5
140
0.25
141
2.5
142
0.0
143
0.03937007874
144
100.0
145
0.0
146
0.5
147
0.1
148
0.0
 69
0
 70
0
 71
0
 72
0
 73
0
 74
0
 75
0
 76
0
 77
1
 78
12
 79
2
 90
2
170
0
171
3
172
1
173
0
174
0
175
0
176
0
177
0
178
0
179
2
271
2
272
2
273
2
274
3
275
0
276
0
277
2
278
46
279
2
280
0
281
0
282
0
283
0
284
8
285
0
286
0
288
1
289
3
290
0
340
4C
371
-2
372
-2
  0
ENDTAB
  0
TABLE
  2
BLOCK_RECORD
  5
9
330
0
100
AcDbSymbolTable
 70
5
  0
BLOCK_RECORD
  5
17
330
9
100
AcDbSymbolTableRecord
100
AcDbBlockTableRecord
  2
*Model_Space
340
1A
 70
0
280
1
281
0
  0
BLOCK_RECORD
  5
1B
330
9
100
AcDbSymbolTableRecord
100
AcDbBlockTableRecord
  2
*Paper_Space
340
1E
 70
0
280
1
281
0
  0
BLOCK_RECORD
  5
74
330
9
100
AcDbSymbolTableRecord
100
AcDbBlockTableRecord
  2
_ARCHTICK
340
0
 70
0
280
1
281
0
  0
BLOCK_RECORD
  5
78
330
9
100
AcDbSymbolTableRecord
100
AcDbBlockTableRecord
  2
_CLOSEDFILLED
340
0
 70
0
280
1
281
0
  0
BLOCK_RECORD
  5
84
330
9
100
AcDbSymbolTableRecord
100
AcDbBlockTableRecord
  2
_CLOSEDBLANK
340
0
 70
0
280
1
281
0
  0
ENDTAB
  0
ENDSEC
  0
SECTION
  2
BLOCKS
  0
BLOCK
  5
18
330
17
100
AcDbEntity
  8
0
100
AcDbBlockBegin
  2
*Model_Space
 70
0
 10
0.0
 20
0.0
 30
0.0
  3
*Model_Space
  1

  0
ENDBLK
  5
19
330
17
100
AcDbEntity
  8
0
100
AcDbBlockEnd
  0
BLOCK
  5
1C
330
1B
100
AcDbEntity
  8
0
100
AcDbBlockBegin
  2
*Paper_Space
 70
0
 10
0.0
 20
0.0
 30
0.0
  3
*Paper_Space
  1

  0
ENDBLK
  5
1D
330
1B
100
AcDbEntity
  8
0
100
AcDbBlockEnd
  0
BLOCK
  5
75
330
74
100
AcDbEntity
  8
0
100
AcDbBlockBegin
  2
_ARCHTICK
 70
0
 10
0.0
 20
0.0
 30
0.0
  3
_ARCHTICK
  1

  0
LWPOLYLINE
  5
77
330
74
100
AcDbEntity
  8
0
  6
BYBLOCK
 62
0
100
AcDbPolyline
 90
2
 70
0
 43
0.15
 10
-0.5
 20
-0.5
 10
0.5
 20
0.5
  0
ENDBLK
  5
76
330
74
100
AcDbEntity
  8
0
100
AcDbBlockEnd
  0
BLOCK
  5
79
330
78
100
AcDbEntity
  8
0
100
AcDbBlockBegin
  2
_CLOSEDFILLED
 70
0
 10
0.0
 20
0.0
 30
0.0
  3
_CLOSEDFILLED
  1

  0
SOLID
  5
7B
330
78
100
AcDbEntity
  8
0
  6
BYBLOCK
 62
0
100
AcDbTrace
 10
-1.0
 20
0.16439898372402537
 30
0.0
 11
0.0
 21
0.0
 31
0.0
 12
-1.0
 22
-0.16439898372402537
 32
0.0
 13
-1.0
 23
-0.16439898372402537
 33
0.0
  0
ENDBLK
  5
7A
330
78
100
AcDbEntity
  8
0
100
AcDbBlockEnd
  0
BLOCK
  5
85
330
84
100
AcDbEntity
  8
0
100
AcDbBlockBegin
  2
_CLOSEDBLANK
 70
0
 10
0.0
 20
0.0
 30
0.0
  3
_CLOSEDBLANK
  1

  0
LWPOLYLINE
  5
87
330
84
100
AcDbEntity
  8
0
  6
BYBLOCK
 62
0
100
AcDbPolyline
 90
3
 70
1
 10
-1.0
 20
0.16439898372402537
 10
0.0
 20
0.0
 10
-1.0
 20
-0.16439898372402537
  0
ENDBLK
  5
86
330
84
100
AcDbEntity
  8
0
100
AcDbBlockEnd
  0
ENDSEC
  0
SECTION
  2
ENTITIES
  0
LWPOLYLINE
  5
8A
330
17
100
AcDbEntity
  8
0
100
AcDbPolyline
 90
209
 70
0
 10
0.0
 20
109.02110400020467
 10
0.0
 20
506.48675902289443
 10
0.34175894670910556
 20
506.48675902289443
 10
0.6835178934182111
 20
506.14500007618534
 10
1.0252768401273167
 20
506.14500007618534
 10
2.7340715736728445
 20
504.4362053426398
 10
3.07583052038195
 20
504.4362053426398
 10
4.784625253927478
 20
502.7274106090943
 10
5.126384200636584
 20
502.7274106090943
 10
6.1516610407639
 20
501.702133768967
 10
6.493419987473006
 20
501.702133768967
 10
9.911009454564061
 20
498.2845443018759
 10
10.252768401273167
 20
498.2845443018759
 10
10.594527347982272
 20
497.9427853551668
 10
10.936286294691378
 20
497.9427853551668
 10
11.961563134818695
 20
496.91750851503946
 10
11.961563134818695
 20
496.57574956833037
 10
12.3033220815278
 20
496.2339906216213
 10
12.3033220815278
 20
495.8922316749122
 10
13.328598921655116
 20
494.86695483478485
 10
13.670357868364222
 20
494.86695483478485
 10
15.37915260190975
 20
493.15816010123933
 10
15.37915260190975
 20
492.4746422078211
 10
15.720911548618856
 20
492.132883261112
 10
15.720911548618856
 20
491.7911243144029
 10
17.08794733545528
 20
490.4240885275665
 10
17.08794733545528
 20
490.0823295808574
 10
17.429706282164382
 20
489.74057063414824
 10
17.429706282164382
 20
489.05705274073006
 10
17.77146522887349
 20
488.71529379402097
 10
17.77146522887349
 20
488.3735348473119
 10
17.429706282164382
 20
488.0317759006027
 10
17.429706282164382
 20
487.00649906047545
 10
17.77146522887349
 20
486.6647401137663
 10
18.113224175582594
 20
486.6647401137663
 10
18.4549831222917
 20
486.3229811670572
 10
18.796742069000807
 20
486.3229811670572
 10
18.796742069000807
 20
485.9812222203481
 10
19.138501015709913
 20
485.639463273639
 10
19.480259962419016
 20
485.639463273639
 10
19.822018909128122
 20
485.2977043269299
 10
20.16377785583723
 20
485.2977043269299
 10
20.505536802546334
 20
485.639463273639
 10
20.84729574925544
 20
485.639463273639
 10
21.189054695964543
 20
485.2977043269299
 10
21.189054695964543
 20
484.6141864335117
 10
21.53081364267365
 20
484.2724274868026
 10
21.53081364267365
 20
483.58890959338436
 10
21.872572589382756
 20
483.24715064667527
 10
21.872572589382756
 20
482.22187380654793
 10
21.53081364267365
 20
481.88011485983884
 10
21.53081364267365
 20
480.8548380197115
 10
21.872572589382756
 20
480.5130790730024
 10
21.872572589382756
 20
478.8042843394569
 10
21.53081364267365
 20
478.4625253927478
 10
21.53081364267365
 20
476.75373065920223
 10
21.872572589382756
 20
476.41197171249314
 10
22.214331536091862
 20
476.41197171249314
 10
22.214331536091862
 20
475.0449359256567
 10
22.55609048280097
 20
474.7031769789476
 10
22.55609048280097
 20
474.36141803223853
 10
23.92312626963739
 20
472.9943822454021
 10
24.264885216346496
 20
472.9943822454021
 10
24.6066441630556
 20
472.652623298693
 10
24.6066441630556
 20
471.6273464585657
 10
25.973679949892023
 20
470.26031067172926
 10
25.973679949892023
 20
469.576792778311
 10
26.657197843310232
 20
468.89327488489283
 10
26.657197843310232
 20
468.55151593818374
 10
27.68247468343755
 20
467.5262390980564
 10
27.68247468343755
 20
467.1844801513473
 10
28.024233630146657
 20
466.84272120463817
 10
28.024233630146657
 20
466.5009622579291
 10
28.36599257685576
 20
466.15920331122
 10
28.36599257685576
 20
465.8174443645109
 10
29.733028363692185
 20
464.45040857767447
 10
29.733028363692185
 20
464.1086496309654
 10
30.416546257110394
 20
463.42513173754713
 10
30.416546257110394
 20
463.08337279083804
 10
31.100064150528606
 20
462.3998548974198
 10
31.100064150528606
 20
462.0580959507107
 10
31.78358204394682
 20
461.3745780572925
 10
31.78358204394682
 20
461.0328191105834
 10
32.12534099065592
 20
460.6910601638743
 10
32.12534099065592
 20
460.3493012171652
 10
32.46709993736503
 20
460.0075422704561
 10
32.46709993736503
 20
459.66578332374695
 10
33.15061783078324
 20
458.98226543032877
 10
33.15061783078324
 20
458.6405064836197
 10
34.517653617619665
 20
457.27347069678325
 10
34.517653617619665
 20
456.93171175007416
 10
35.20117151103787
 20
456.2481938566559
 10
35.20117151103787
 20
455.9064349099468
 10
35.88468940445608
 20
455.2229170165286
 10
35.88468940445608
 20
454.8811580698195
 10
36.9099662445834
 20
453.85588122969216
 10
36.9099662445834
 20
453.51412228298307
 10
37.593484138001614
 20
452.8306043895649
 10
37.593484138001614
 20
452.48884544285573
 10
38.618760978128925
 20
451.46356860272846
 10
38.618760978128925
 20
451.12180965601937
 10
39.98579676496535
 20
449.75477386918294
 10
39.98579676496535
 20
449.4130149224738
 10
42.71986833863819
 20
446.67894334880094
 10
42.71986833863819
 20
446.33718440209185
 10
44.08690412547462
 20
444.9701486152554
 10
44.08690412547462
 20
444.62838966854633
 10
46.13745780572925
 20
442.5778359882917
 10
46.13745780572925
 20
442.2360770415826
 10
46.479216752438354
 20
441.8943180948735
 10
46.479216752438354
 20
441.5525591481644
 10
47.84625253927478
 20
440.18552336132797
 10
48.188011485983886
 20
440.18552336132797
 10
48.52977043269299
 20
439.8437644146189
 10
48.52977043269299
 20
439.5020054679097
 10
51.263842006365834
 20
436.76793389423693
 10
51.263842006365834
 20
436.4261749475278
 10
54.33967252674778
 20
433.35034442714584
 10
54.33967252674778
 20
433.00858548043675
 10
56.048467260293314
 20
431.29979074689123
 10
56.048467260293314
 20
430.9580318001821
 10
57.073744100420626
 20
429.9327549600548
 10
57.073744100420626
 20
429.5909960133457
 10
58.44077988725705
 20
428.2239602265093
 10
58.44077988725705
 20
427.88220127980014
 10
61.516610407639
 20
424.8063707594182
 10
61.516610407639
 20
424.4646118127091
 10
65.95947671485737
 20
420.02174550549074
 10
65.95947671485737
 20
419.67998655878165
 10
68.69354828853022
 20
416.9459149851088
 10
69.03530723523933
 20
416.9459149851088
 10
69.71882512865753
 20
416.26239709169056
 10
70.06058407536663
 20
416.26239709169056
 10
72.11113775562127
 20
414.21184341143595
 10
72.11113775562127
 20
413.87008446472686
 10
72.79465564903948
 20
413.1865665713086
 10
72.79465564903948
 20
412.50304867789043
 10
73.13641459574859
 20
412.1612897311813
 10
73.13641459574859
 20
411.8195307844722
 10
73.4781735424577
 20
411.4777718377631
 10
73.4781735424577
 20
411.136012891054
 10
74.16169143587591
 20
410.45249499763577
 10
74.50345038258502
 20
410.45249499763577
 10
74.84520932929412
 20
410.1107360509267
 10
75.18696827600323
 20
410.1107360509267
 10
75.52872722271233
 20
409.7689771042176
 10
76.55400406283965
 20
409.7689771042176
 10
76.89576300954874
 20
409.42721815750843
 10
77.57928090296696
 20
409.42721815750843
 10
77.92103984967606
 20
409.08545921079934
 10
78.60455774309428
 20
409.08545921079934
 10
79.28807563651249
 20
408.40194131738116
 10
79.6298345832216
 20
408.40194131738116
 10
79.9715935299307
 20
408.06018237067207
 10
80.3133524766398
 20
408.06018237067207
 10
80.99687037005802
 20
407.3766644772538
 10
81.33862931676713
 20
407.3766644772538
 10
81.68038826347623
 20
407.03490553054473
 10
82.02214721018534
 20
407.03490553054473
 10
82.36390615689444
 20
406.69314658383564
 10
83.04742405031266
 20
406.69314658383564
 10
83.38918299702176
 20
406.3513876371265
 10
84.75621878385817
 20
406.3513876371265
 10
85.09797773056728
 20
406.0096286904174
 10
87.49029035753102
 20
406.0096286904174
 10
87.83204930424013
 20
405.6678697437083
 10
89.88260298449477
 20
405.6678697437083
 10
90.22436193120387
 20
405.3261107969992
 10
92.2749156114585
 20
405.3261107969992
 10
92.6166745581676
 20
404.98435185029007
 10
94.32546929171313
 20
404.98435185029007
 10
94.66722823842224
 20
404.642592903581
 10
96.37602297196777
 20
404.642592903581
 10
96.71778191867688
 20
404.3008339568719
 10
98.0848177055133
 20
404.3008339568719
 10
98.4265766522224
 20
403.9590750101628
 10
99.79361243905882
 20
403.9590750101628
 10
100.13537138576793
 20
403.61731606345364
 10
101.50240717260435
 20
403.61731606345364
 10
101.84416611931346
 20
403.27555711674455
 10
103.55296085285899
 20
403.27555711674455
 10
103.8947197995681
 20
402.93379817003546
 10
105.26175558640452
 20
402.93379817003546
 10
105.60351453311362
 20
402.59203922332637
 10
107.65406821336825
 20
402.59203922332637
 10
107.99582716007735
 20
402.2502802766172
 10
110.04638084033199
 20
402.2502802766172
 10
110.3881397870411
 20
401.9085213299081
 10
112.78045241400484
 20
401.9085213299081
 10
113.12221136071393
 20
401.56676238319903
 10
115.17276504096857
 20
401.56676238319903
 10
115.51452398767768
 20
401.22500343648994
 10
120.64090818831426
 20
401.22500343648994
 10
120.98266713502336
 20
400.88324448978085
 10
125.08377449553264
 20
400.88324448978085
 10
125.42553344224174
 20
400.5414855430717
 10
128.50136396262369
 20
400.5414855430717
 10
128.8431229093328
 20
400.1997265963626
 10
130.21015869616923
 20
400.1997265963626
 10
130.55191764287832
 20
399.8579676496535
 10
132.26071237642384
 20
399.8579676496535
 10
132.60247132313296
 20
399.5162087029444
 10
133.28598921655117
 20
399.5162087029444
 10
133.62774816326026
 20
399.1744497562353
 10
133.96950710996938
 20
399.1744497562353
 10
134.31126605667848
 20
398.8326908095262
 10
134.6530250033876
 20
398.8326908095262
 10
134.9947839500967
 20
398.4909318628171
 10
135.3365428968058
 20
398.4909318628171
  0
LWPOLYLINE
  5
8B
330
17
100
AcDbEntity
  8
0
100
AcDbPolyline
 90
944
 70
0
 10
135.3365428968058
 20
398.4909318628171
 10
135.6783018435149
 20
398.149172916108
 10
136.02006079022402
 20
398.149172916108
 10
136.3618197369331
 20
397.80741396939885
 10
137.04533763035133
 20
397.80741396939885
 10
137.38709657706045
 20
397.46565502268976
 10
138.07061447047866
 20
397.46565502268976
 10
138.41237341718775
 20
397.12389607598067
 10
139.09589131060596
 20
397.12389607598067
 10
139.43765025731506
 20
396.7821371292716
 10
140.12116815073327
 20
396.7821371292716
 10
140.4629270974424
 20
396.4403781825624
 10
141.1464449908606
 20
396.4403781825624
 10
141.4882039375697
 20
396.09861923585333
 10
142.85523972440612
 20
396.09861923585333
 10
143.19699867111524
 20
395.75686028914424
 10
144.22227551124254
 20
395.75686028914424
 10
144.56403445795166
 20
395.41510134243515
 10
145.24755235136988
 20
395.41510134243515
 10
145.58931129807897
 20
395.073342395726
 10
146.27282919149718
 20
395.073342395726
 10
146.61458813820627
 20
394.7315834490169
 10
146.9563470849154
 20
394.7315834490169
 10
147.29810603162449
 20
394.3898245023078
 10
147.9816239250427
 20
394.3898245023078
 10
148.32338287175182
 20
394.0480655555987
 10
149.00690076517003
 20
394.0480655555987
 10
149.34865971187912
 20
393.7063066088896
 10
149.69041865858824
 20
393.7063066088896
 10
150.03217760529733
 20
393.3645476621805
 10
150.71569549871555
 20
393.3645476621805
 10
151.05745444542467
 20
393.0227887154714
 10
151.74097233884288
 20
393.0227887154714
 10
152.08273128555197
 20
392.6810297687623
 10
152.4244902322611
 20
392.6810297687623
 10
152.76624917897018
 20
392.3392708220532
 10
153.4497670723884
 20
392.3392708220532
 10
153.7915260190975
 20
391.99751187534406
 10
154.4750439125157
 20
391.99751187534406
 10
154.81680285922482
 20
391.65575292863497
 10
155.50032075264303
 20
391.65575292863497
 10
155.84207969935213
 20
391.3139939819259
 10
156.18383864606125
 20
391.3139939819259
 10
156.52559759277034
 20
390.9722350352168
 10
157.20911548618855
 20
390.9722350352168
 10
157.55087443289767
 20
390.63047608850763
 10
157.89263337960676
 20
390.63047608850763
 10
158.23439232631588
 20
390.28871714179854
 10
158.9179102197341
 20
390.28871714179854
 10
159.2596691664432
 20
389.94695819508945
 10
159.9431870598614
 20
389.94695819508945
 10
160.28494600657052
 20
389.60519924838036
 10
160.6267049532796
 20
389.60519924838036
 10
160.9684638999887
 20
389.2634403016712
 10
161.65198179340692
 20
389.2634403016712
 10
161.99374074011604
 20
388.9216813549621
 10
162.67725863353425
 20
388.9216813549621
 10
163.01901758024334
 20
388.579922408253
 10
163.70253547366156
 20
388.579922408253
 10
164.04429442037068
 20
388.23816346154393
 10
164.38605336707977
 20
388.23816346154393
 10
164.7278123137889
 20
387.8964045148348
 10
165.4113302072071
 20
387.8964045148348
 10
165.7530891539162
 20
387.5546455681257
 10
166.4366070473344
 20
387.5546455681257
 10
166.77836599404353
 20
387.2128866214166
 10
167.46188388746174
 20
387.2128866214166
 10
167.80364283417083
 20
386.8711276747075
 10
168.14540178087992
 20
386.8711276747075
 10
168.48716072758904
 20
386.52936872799836
 10
169.17067862100726
 20
386.52936872799836
 10
169.51243756771635
 20
386.18760978128927
 10
170.19595546113456
 20
386.18760978128927
 10
170.53771440784368
 20
385.8458508345802
 10
171.2212323012619
 20
385.8458508345802
 10
171.56299124797098
 20
385.5040918878711
 10
172.2465091413892
 20
385.5040918878711
 10
172.58826808809832
 20
385.162332941162
 10
172.9300270348074
 20
385.162332941162
 10
173.27178598151653
 20
384.82057399445284
 10
173.95530387493474
 20
384.82057399445284
 10
174.29706282164383
 20
384.47881504774375
 10
175.32233966177114
 20
384.47881504774375
 10
175.66409860848026
 20
384.13705610103466
 10
176.34761650189847
 20
384.13705610103466
 10
176.68937544860756
 20
383.79529715432557
 10
177.37289334202578
 20
383.79529715432557
 10
177.7146522887349
 20
383.4535382076164
 10
178.3981701821531
 20
383.4535382076164
 10
178.7399291288622
 20
383.1117792609073
 10
179.4234470222804
 20
383.1117792609073
 10
179.76520596898953
 20
382.77002031419823
 10
180.44872386240775
 20
382.77002031419823
 10
180.79048280911684
 20
382.42826136748914
 10
181.47400070253505
 20
382.42826136748914
 10
181.81575964924417
 20
382.08650242078
 10
182.49927754266236
 20
382.08650242078
 10
182.84103648937148
 20
381.7447434740709
 10
183.5245543827897
 20
381.7447434740709
 10
183.86631332949878
 20
381.4029845273618
 10
184.8915901696261
 20
381.4029845273618
 10
185.2333491163352
 20
381.0612255806527
 10
185.91686700975342
 20
381.0612255806527
 10
186.25862595646254
 20
380.71946663394357
 10
186.94214384988075
 20
380.71946663394357
 10
187.28390279658984
 20
380.3777076872345
 10
188.30917963671718
 20
380.3777076872345
 10
188.65093858342627
 20
380.0359487405254
 10
189.33445647684448
 20
380.0359487405254
 10
189.67621542355357
 20
379.6941897938163
 10
190.35973331697178
 20
379.6941897938163
 10
190.7014922636809
 20
379.35243084710714
 10
191.38501015709912
 20
379.35243084710714
 10
191.7267691038082
 20
379.01067190039805
 10
192.06852805051733
 20
379.01067190039805
 10
192.41028699722642
 20
378.66891295368896
 10
193.09380489064463
 20
378.66891295368896
 10
193.43556383735375
 20
378.32715400697987
 10
194.11908173077197
 20
378.32715400697987
 10
194.46084067748106
 20
377.9853950602708
 10
195.14435857089927
 20
377.9853950602708
 10
195.4861175176084
 20
377.6436361135616
 10
195.82787646431748
 20
377.6436361135616
 10
196.1696354110266
 20
377.30187716685253
 10
196.8531533044448
 20
377.30187716685253
 10
197.1949122511539
 20
376.96011822014344
 10
198.2201890912812
 20
376.96011822014344
 10
198.56194803799033
 20
376.61835927343435
 10
199.24546593140855
 20
376.61835927343435
 10
199.58722487811764
 20
376.2766003267252
 10
200.27074277153585
 20
376.2766003267252
 10
200.61250171824497
 20
375.9348413800161
 10
201.63777855837228
 20
375.9348413800161
 10
201.9795375050814
 20
375.593082433307
 10
202.6630553984996
 20
375.593082433307
 10
203.0048143452087
 20
375.2513234865979
 10
203.6883322386269
 20
375.2513234865979
 10
204.03009118533603
 20
374.9095645398888
 10
204.71360907875422
 20
374.9095645398888
 10
205.05536802546334
 20
374.5678055931797
 10
206.08064486559064
 20
374.5678055931797
 10
206.42240381229976
 20
374.2260466464706
 10
207.44768065242707
 20
374.2260466464706
 10
207.7894395991362
 20
373.8842876997615
 10
208.8147164392635
 20
373.8842876997615
 10
209.1564753859726
 20
373.54252875305235
 10
210.18175222609992
 20
373.54252875305235
 10
210.52351117280904
 20
373.20076980634326
 10
211.54878801293634
 20
373.20076980634326
 10
211.89054695964543
 20
372.85901085963417
 10
212.91582379977277
 20
372.85901085963417
 10
213.25758274648186
 20
372.5172519129251
 10
214.2828595866092
 20
372.5172519129251
 10
214.62461853331828
 20
372.1754929662159
 10
215.3081364267365
 20
372.1754929662159
 10
215.64989537344562
 20
371.83373401950684
 10
216.67517221357292
 20
371.83373401950684
 10
217.01693116028204
 20
371.49197507279774
 10
218.04220800040935
 20
371.49197507279774
 10
218.38396694711847
 20
371.15021612608865
 10
219.40924378724577
 20
371.15021612608865
 10
219.75100273395486
 20
370.80845717937956
 10
220.43452062737308
 20
370.80845717937956
 10
220.7762795740822
 20
370.4666982326704
 10
221.8015564142095
 20
370.4666982326704
 10
222.14331536091862
 20
370.1249392859613
 10
223.16859220104593
 20
370.1249392859613
 10
223.51035114775505
 20
369.7831803392522
 10
224.53562798788235
 20
369.7831803392522
 10
224.87738693459147
 20
369.44142139254313
 10
225.90266377471877
 20
369.44142139254313
 10
226.24442272142787
 20
369.099662445834
 10
226.92794061484608
 20
369.099662445834
 10
227.2696995615552
 20
368.7579034991249
 10
228.2949764016825
 20
368.7579034991249
 10
228.63673534839162
 20
368.4161445524158
 10
229.66201218851893
 20
368.4161445524158
 10
230.00377113522805
 20
368.0743856057067
 10
231.02904797535535
 20
368.0743856057067
 10
231.37080692206447
 20
367.73262665899756
 10
232.0543248154827
 20
367.73262665899756
 10
232.39608376219178
 20
367.39086771228847
 10
233.42136060231908
 20
367.39086771228847
 10
233.7631195490282
 20
367.0491087655794
 10
235.13015533586463
 20
367.0491087655794
 10
235.47191428257372
 20
366.7073498188703
 10
236.83895006941015
 20
366.7073498188703
 10
237.18070901611927
 20
366.36559087216114
 10
238.5477448029557
 20
366.36559087216114
 10
238.88950374966478
 20
366.02383192545204
 10
240.94005742991942
 20
366.02383192545204
 10
241.2818163766285
 20
365.68207297874295
 10
242.64885216346494
 20
365.68207297874295
 10
242.99061111017406
 20
365.34031403203386
 10
244.35764689701048
 20
365.34031403203386
 10
244.69940584371957
 20
364.9985550853247
 10
246.066441630556
 20
364.9985550853247
 10
246.40820057726512
 20
364.6567961386156
 10
247.77523636410154
 20
364.6567961386156
 10
248.11699531081064
 20
364.3150371919065
 10
249.48403109764706
 20
364.3150371919065
 10
249.82579004435615
 20
363.97327824519743
 10
251.19282583119258
 20
363.97327824519743
 10
251.5345847779017
 20
363.63151929848834
 10
252.559861618029
 20
363.63151929848834
 10
252.90162056473812
 20
363.2897603517792
 10
254.61041529828364
 20
363.2897603517792
 10
254.95217424499276
 20
362.9480014050701
 10
256.3192100318292
 20
362.9480014050701
 10
256.6609689785383
 20
362.606242458361
 10
257.6862458186656
 20
362.606242458361
 10
258.0280047653747
 20
362.2644835116519
 10
259.3950405522111
 20
362.2644835116519
 10
259.7367994989202
 20
361.92272456494277
 10
261.44559423246574
 20
361.92272456494277
 10
261.7873531791749
 20
361.5809656182337
 10
263.4961479127204
 20
361.5809656182337
 10
263.8379068594295
 20
361.2392066715246
 10
264.8631836995568
 20
361.2392066715246
 10
265.2049426462659
 20
360.8974477248155
 10
266.23021948639325
 20
360.8974477248155
 10
266.57197843310234
 20
360.55568877810634
 10
267.93901421993877
 20
360.55568877810634
 10
268.28077316664786
 20
360.21392983139725
 10
269.3060500067752
 20
360.21392983139725
 10
269.6478089534843
 20
359.87217088468816
 10
271.0148447403207
 20
359.87217088468816
 10
271.3566036870298
 20
359.53041193797907
 10
272.38188052715714
 20
359.53041193797907
 10
272.7236394738662
 20
359.1886529912699
 10
274.09067526070265
 20
359.1886529912699
 10
274.43243420741175
 20
358.8468940445608
 10
275.4577110475391
 20
358.8468940445608
 10
275.79946999424817
 20
358.50513509785173
 10
277.1665057810846
 20
358.50513509785173
 10
277.5082647277937
 20
358.16337615114264
 10
278.8753005146301
 20
358.16337615114264
 10
279.21705946133926
 20
357.8216172044335
 10
280.5840952481757
 20
357.8216172044335
 10
280.9258541948848
 20
357.4798582577244
 10
282.2928899817212
 20
357.4798582577244
 10
282.6346489284303
 20
357.1380993110153
 10
283.6599257685576
 20
357.1380993110153
 10
284.0016847152667
 20
356.7963403643062
 10
285.36872050210314
 20
356.7963403643062
 10
285.71047944881224
 20
356.4545814175971
 10
287.41927418235775
 20
356.4545814175971
 10
287.7610331290669
 20
356.112822470888
 10
289.4698278626124
 20
356.112822470888
 10
289.8115868093215
 20
355.7710635241789
 10
291.520381542867
 20
355.7710635241789
 10
291.8621404895761
 20
355.4293045774698
 10
293.5709352231217
 20
355.4293045774698
 10
293.9126941698308
 20
355.0875456307607
 10
296.30500679679454
 20
355.0875456307607
 10
296.64676574350364
 20
354.74578668405155
 10
298.35556047704915
 20
354.74578668405155
 10
298.69731942375824
 20
354.40402773734246
 10
300.7478731040129
 20
354.40402773734246
 10
301.089632050722
 20
354.06226879063337
 10
303.1401857309766
 20
354.06226879063337
 10
303.48194467768576
 20
353.7205098439243
 10
305.1907394112313
 20
353.7205098439243
 10
305.53249835794037
 20
353.3787508972151
 10
306.8995341447768
 20
353.3787508972151
 10
307.2412930914859
 20
353.03699195050604
 10
308.9500878250314
 20
353.03699195050604
 10
309.29184677174055
 20
352.69523300379694
 10
311.00064150528607
 20
352.69523300379694
 10
311.34240045199516
 20
352.35347405708785
 10
313.0511951855407
 20
352.35347405708785
 10
313.3929541322498
 20
352.0117151103787
 10
315.10174886579534
 20
352.0117151103787
 10
315.44350781250444
 20
351.6699561636696
 10
317.49406149275904
 20
351.6699561636696
 10
317.8358204394682
 20
351.3281972169605
 10
319.5446151730137
 20
351.3281972169605
 10
319.8863741197228
 20
350.9864382702514
 10
321.9369277999774
 20
350.9864382702514
 10
322.27868674668656
 20
350.6446793235423
 10
323.9874814802321
 20
350.6446793235423
 10
324.32924042694117
 20
350.3029203768332
 10
326.37979410719583
 20
350.3029203768332
 10
326.7215530539049
 20
349.9611614301241
 10
328.43034778745044
 20
349.9611614301241
 10
328.77210673415954
 20
349.619402483415
 10
330.48090146770505
 20
349.619402483415
 10
330.8226604144142
 20
349.2776435367059
 10
333.2149730413779
 20
349.2776435367059
 10
333.55673198808705
 20
348.93588458999676
 10
335.60728566834166
 20
348.93588458999676
 10
335.94904461505075
 20
348.59412564328767
 10
338.6831161887236
 20
348.59412564328767
 10
339.0248751354327
 20
348.2523666965786
 10
341.41718776239645
 20
348.2523666965786
 10
341.75894670910554
 20
347.9106077498695
 10
343.8095003893602
 20
347.9106077498695
 10
344.1512593360693
 20
347.56884880316034
 10
346.2018130163239
 20
347.56884880316034
 10
346.54357196303306
 20
347.22708985645124
 10
348.93588458999676
 20
347.22708985645124
 10
349.2776435367059
 20
346.88533090974215
 10
352.0117151103787
 20
346.88533090974215
 10
352.35347405708785
 20
346.54357196303306
 10
355.0875456307607
 20
346.54357196303306
 10
355.4293045774698
 20
346.2018130163239
 10
358.50513509785173
 20
346.2018130163239
 10
358.8468940445608
 20
345.8600540696148
 10
361.2392066715246
 20
345.8600540696148
 10
361.5809656182337
 20
345.5182951229057
 10
364.6567961386156
 20
345.5182951229057
 10
364.9985550853247
 20
345.17653617619663
 10
369.099662445834
 20
345.17653617619663
 10
369.44142139254313
 20
344.8347772294875
 10
375.593082433307
 20
344.8347772294875
 10
375.9348413800161
 20
344.4930182827784
 10
380.3777076872345
 20
344.4930182827784
 10
380.71946663394357
 20
344.1512593360693
 10
384.13705610103466
 20
344.1512593360693
 10
384.47881504774375
 20
343.8095003893602
 10
390.63047608850763
 20
343.8095003893602
 10
390.9722350352168
 20
343.46774144265106
 10
396.09861923585333
 20
343.46774144265106
 10
396.4403781825624
 20
343.12598249594197
 10
401.9085213299081
 20
343.12598249594197
 10
402.2502802766172
 20
342.7842235492329
 10
406.3513876371265
 20
342.7842235492329
 10
406.69314658383564
 20
342.4424646025238
 10
411.4777718377631
 20
342.4424646025238
 10
411.8195307844722
 20
342.1007056558147
 10
421.38878129232717
 20
342.1007056558147
 10
421.73054023903626
 20
341.75894670910554
 10
428.2239602265093
 20
341.75894670910554
 10
428.5657191732184
 20
341.41718776239645
 10
432.66682653372766
 20
341.41718776239645
 10
433.00858548043675
 20
341.07542881568736
 10
436.0844160008187
 20
341.07542881568736
 10
436.4261749475278
 20
340.73366986897827
 10
439.5020054679097
 20
340.73366986897827
 10
439.8437644146189
 20
340.3919109222691
 10
443.2613538817099
 20
340.3919109222691
 10
443.603112828419
 20
340.05015197556
 10
453.85588122969216
 20
340.05015197556
 10
454.1976401764013
 20
339.70839302885094
 10
480.8548380197115
 20
339.70839302885094
 10
481.19659696642066
 20
339.36663408214184
 10
492.132883261112
 20
339.36663408214184
 10
492.4746422078211
 20
339.70839302885094
 10
520.1571168912586
 20
339.70839302885094
 10
520.4988758379677
 20
340.05015197556
 10
531.4351621326591
 20
340.05015197556
 10
531.7769210793682
 20
340.3919109222691
 10
538.2703410668413
 20
340.3919109222691
 10
538.6121000135504
 20
340.73366986897827
 10
553.649493668751
 20
340.73366986897827
 10
553.9912526154601
 20
341.07542881568736
 10
554.3330115621692
 20
341.07542881568736
 10
554.6747705088783
 20
340.73366986897827
 10
555.7000473490057
 20
340.73366986897827
 10
556.0418062957148
 20
341.07542881568736
 10
572.4462357377519
 20
341.07542881568736
 10
572.787994684461
 20
341.41718776239645
 10
582.0154862456068
 20
341.41718776239645
 10
582.3572451923159
 20
341.75894670910554
 10
598.0781567409347
 20
341.75894670910554
 10
598.4199156876439
 20
342.1007056558147
 10
611.4067556625898
 20
342.1007056558147
 10
611.7485146092989
 20
342.4424646025238
 10
624.3935956375359
 20
342.4424646025238
 10
624.735354584245
 20
342.7842235492329
 10
626.1023903710814
 20
342.7842235492329
 10
626.4441493177904
 20
342.4424646025238
 10
626.7859082644997
 20
342.4424646025238
 10
627.1276672112087
 20
342.7842235492329
 10
627.4694261579178
 20
342.4424646025238
 10
629.8617387848816
 20
342.4424646025238
 10
630.2034977315907
 20
342.7842235492329
 10
636.0133998256455
 20
342.7842235492329
 10
636.3551587723546
 20
343.12598249594197
 10
641.1397840262821
 20
343.12598249594197
 10
641.4815429729912
 20
343.46774144265106
 10
650.0255166407188
 20
343.46774144265106
 10
650.3672755874279
 20
343.8095003893602
 10
655.1519008413553
 20
343.8095003893602
 10
655.4936597880645
 20
344.1512593360693
 10
662.6705976689557
 20
344.1512593360693
 10
663.0123566156648
 20
344.4930182827784
 10
671.2145713366833
 20
344.4930182827784
 10
671.5563302833924
 20
344.8347772294875
 10
679.0750271109928
 20
344.8347772294875
 10
679.4167860577019
 20
345.17653617619663
 10
688.9860365655568
 20
345.17653617619663
 10
689.3277955122659
 20
345.5182951229057
 10
697.1882512865753
 20
345.5182951229057
 10
697.5300102332844
 20
345.8600540696148
 10
710.8586091549396
 20
345.8600540696148
 10
711.2003681016487
 20
346.2018130163239
 10
717.0102701957035
 20
346.2018130163239
 10
717.3520291424126
 20
346.54357196303306
 10
721.794895449631
 20
346.54357196303306
 10
722.1366543963401
 20
346.88533090974215
 10
731.3641459574859
 20
346.88533090974215
 10
731.705904904195
 20
347.22708985645124
 10
737.5158069982498
 20
347.22708985645124
 10
737.8575659449589
 20
347.56884880316034
 10
745.0345038258502
 20
347.56884880316034
 10
745.3762627725592
 20
347.9106077498695
 10
750.5026469731959
 20
347.9106077498695
 10
750.844405919905
 20
348.2523666965786
 10
759.7301385343417
 20
348.2523666965786
 10
760.0718974810508
 20
348.59412564328767
 10
765.1982816816874
 20
348.59412564328767
 10
765.5400406283965
 20
348.93588458999676
 10
777.5016037632151
 20
348.93588458999676
 10
777.8433627099242
 20
349.2776435367059
 10
794.9313100453795
 20
349.2776435367059
 10
795.2730689920886
 20
349.619402483415
 10
801.4247300328525
 20
349.619402483415
 10
801.7664889795617
 20
349.9611614301241
 10
809.285185807162
 20
349.9611614301241
 10
809.626944753871
 20
350.3029203768332
 10
816.8038826347623
 20
350.3029203768332
 10
817.1456415814714
 20
350.6446793235423
 10
828.765445769581
 20
350.6446793235423
 10
829.1072047162901
 20
350.9864382702514
 10
846.5369109984545
 20
350.9864382702514
 10
846.8786699451636
 20
351.3281972169605
 10
856.1061615063094
 20
351.3281972169605
 10
856.4479204530186
 20
351.6699561636696
 10
864.3083762273279
 20
351.6699561636696
 10
864.650135174037
 20
352.0117151103787
 10
866.3589299075826
 20
352.0117151103787
 10
866.7006888542917
 20
351.6699561636696
 10
867.0424478010008
 20
351.6699561636696
 10
867.3842067477099
 20
352.0117151103787
 10
868.4094835878373
 20
352.0117151103787
 10
868.7512425345463
 20
351.6699561636696
 10
870.4600372680918
 20
351.6699561636696
 10
870.801796214801
 20
352.0117151103787
 10
876.2699393621466
 20
352.0117151103787
 10
876.6116983088558
 20
352.35347405708785
 10
881.0545646160741
 20
352.35347405708785
 10
881.3963235627832
 20
352.69523300379694
 10
884.1303951364561
 20
352.69523300379694
 10
884.4721540831652
 20
353.03699195050604
 10
887.8897435502563
 20
353.03699195050604
 10
888.2315024969654
 20
353.3787508972151
 10
894.3831635377293
 20
353.3787508972151
 10
894.7249224844384
 20
353.7205098439243
 10
897.8007530048203
 20
353.7205098439243
 10
898.1425119515294
 20
354.06226879063337
 10
901.5601014186204
 20
354.06226879063337
 10
901.9018603653295
 20
354.40402773734246
 10
904.2941729922933
 20
354.40402773734246
 10
904.6359319390024
 20
354.74578668405155
 10
909.762316139639
 20
354.74578668405155
 10
910.1040750863481
 20
355.0875456307607
 10
911.4711108731846
 20
355.0875456307607
 10
911.8128698198936
 20
354.74578668405155
 10
913.17990560673
 20
354.74578668405155
 10
913.8634235001483
 20
354.06226879063337
 10
914.2051824468574
 20
354.06226879063337
 10
914.5469413935665
 20
353.7205098439243
 10
917.9645308606575
 20
353.7205098439243
 10
918.3062898073666
 20
354.06226879063337
 10
919.3315666474939
 20
353.03699195050604
 10
919.3315666474939
 20
351.3281972169605
 10
918.9898077007848
 20
350.9864382702514
 10
918.9898077007848
 20
350.3029203768332
 10
919.3315666474939
 20
349.9611614301241
 10
919.3315666474939
 20
347.9106077498695
 10
919.6733255942031
 20
347.56884880316034
 10
919.6733255942031
 20
345.5182951229057
 10
920.0150845409122
 20
345.17653617619663
 10
920.0150845409122
 20
331.5061783078324
 10
920.3568434876213
 20
331.1644193611233
 10
920.3568434876213
 20
325.0127583203594
 10
920.6986024343304
 20
324.67099937365026
 10
920.6986024343304
 20
319.8863741197228
 10
921.0403613810395
 20
319.5446151730137
 10
921.0403613810395
 20
313.3929541322498
 10
921.3821203277486
 20
313.0511951855407
 10
921.3821203277486
 20
305.87425730464946
 10
921.7238792744577
 20
305.53249835794037
 10
921.7238792744577
 20
299.7225962638856
 10
922.0656382211668
 20
299.3808373171765
 10
922.0656382211668
 20
295.6214889033763
 10
921.7238792744577
 20
295.2797299566672
 10
921.7238792744577
 20
289.8115868093215
 10
922.0656382211668
 20
289.4698278626124
 10
922.0656382211668
 20
274.7741931541209
 10
922.407397167876
 20
274.43243420741175
 10
922.407397167876
 20
272.38188052715714
 10
922.0656382211668
 20
272.04012158044804
 10
922.0656382211668
 20
264.5214247528477
 10
922.407397167876
 20
264.1796658061386
 10
922.407397167876
 20
258.7115226587929
 10
922.749156114585
 20
258.3697637120838
 10
922.749156114585
 20
255.63569213841095
 10
922.407397167876
 20
255.29393319170185
 10
922.407397167876
 20
247.09171847068333
 10
922.749156114585
 20
246.7499595239742
 10
922.749156114585
 20
237.18070901611927
 10
923.0909150612941
 20
236.83895006941015
 10
923.0909150612941
 20
235.47191428257372
 10
923.4326740080032
 20
235.13015533586463
 10
923.4326740080032
 20
234.7883963891555
 10
923.0909150612941
 20
234.44663744244642
 10
923.0909150612941
 20
228.63673534839162
 10
923.4326740080032
 20
228.2949764016825
 10
923.4326740080032
 20
223.16859220104593
 10
923.7744329547123
 20
222.82683325433683
 10
923.7744329547123
 20
209.4982343326817
 10
924.1161919014214
 20
209.1564753859726
 10
924.1161919014214
 20
193.77732278406285
 10
924.4579508481305
 20
193.43556383735375
 10
924.4579508481305
 20
191.38501015709912
 10
924.1161919014214
 20
191.04325121039
 10
924.1161919014214
 20
183.86631332949878
 10
924.4579508481305
 20
183.5245543827897
 10
924.4579508481305
 20
182.49927754266236
 10
924.1161919014214
 20
182.15751859595326
 10
924.1161919014214
 20
177.7146522887349
 10
924.4579508481305
 20
177.37289334202578
 10
924.4579508481305
 20
174.63882176835295
 10
924.1161919014214
 20
174.29706282164383
 10
924.1161919014214
 20
168.82891967429813
 10
923.7744329547123
 20
168.48716072758904
 10
923.7744329547123
 20
167.46188388746174
 10
924.1161919014214
 20
167.12012494075262
 10
924.1161919014214
 20
160.6267049532796
 10
923.7744329547123
 20
160.28494600657052
 10
923.7744329547123
 20
158.23439232631588
 10
923.4326740080032
 20
157.89263337960676
 10
923.4326740080032
 20
156.18383864606125
 10
923.0909150612941
 20
155.84207969935213
 10
923.0909150612941
 20
153.4497670723884
 10
922.749156114585
 20
153.1080081256793
 10
922.749156114585
 20
151.05745444542467
 10
922.407397167876
 20
150.71569549871555
 10
922.407397167876
 20
147.6398649783336
 10
922.0656382211668
 20
147.29810603162449
 10
922.0656382211668
 20
146.61458813820627
 10
921.7238792744577
 20
146.27282919149718
 10
921.7238792744577
 20
134.6530250033876
 10
921.3821203277486
 20
134.31126605667848
 10
921.3821203277486
 20
131.91895342971475
 10
921.0403613810395
 20
131.57719448300563
 10
921.0403613810395
 20
130.89367658958744
 10
921.3821203277486
 20
130.55191764287832
 10
921.3821203277486
 20
129.1848818560419
 10
921.7238792744577
 20
128.8431229093328
 10
921.7238792744577
 20
125.08377449553264
 10
921.3821203277486
 20
124.74201554882353
 10
921.3821203277486
 20
117.90683661464142
 10
921.0403613810395
 20
117.56507766793231
 10
921.0403613810395
 20
117.22331872122321
 10
920.0150845409122
 20
116.19804188109589
 10
918.9898077007848
 20
116.19804188109589
 10
918.6480487540757
 20
115.85628293438678
 10
915.5722182336938
 20
115.85628293438678
 10
915.2304592869847
 20
116.19804188109589
 10
904.2941729922933
 20
116.19804188109589
 10
903.9524140455842
 20
116.539800827805
 10
903.6106550988751
 20
116.539800827805
 10
903.268896152166
 20
116.8815597745141
 10
901.2183424719113
 20
116.8815597745141
 10
900.8765835252022
 20
117.22331872122321
 10
898.8260298449476
 20
117.22331872122321
 10
898.4842708982385
 20
117.56507766793231
 10
895.0666814311475
 20
117.56507766793231
 10
894.7249224844384
 20
117.90683661464142
 10
891.6490919640564
 20
117.90683661464142
 10
891.3073330173473
 20
118.24859556135053
 10
889.5985382838018
 20
118.24859556135053
 10
889.2567793370927
 20
118.59035450805963
 10
887.206225656838
 20
118.59035450805963
 10
886.8644667101289
 20
118.93211345476874
 10
884.8139130298742
 20
118.93211345476874
 10
884.4721540831652
 20
119.27387240147785
 10
881.7380825094923
 20
119.27387240147785
 10
881.3963235627832
 20
119.61563134818695
 10
877.9787340956922
 20
119.61563134818695
 10
877.6369751489831
 20
119.95739029489606
 10
874.9029035753102
 20
119.95739029489606
 10
874.5611446286011
 20
120.29914924160516
 10
872.1688320016374
 20
120.29914924160516
 10
871.8270730549283
 20
120.64090818831426
 10
869.4347604279645
 20
120.64090818831426
 10
869.0930014812554
 20
120.98266713502336
 10
866.3589299075826
 20
120.98266713502336
 10
866.0171709608735
 20
121.32442608173247
 10
862.9413404404916
 20
121.32442608173247
 10
862.5995814937825
 20
121.66618502844157
 10
858.8402330799822
 20
121.66618502844157
 10
858.4984741332731
 20
122.00794397515068
 10
854.3973667727639
 20
122.00794397515068
 10
854.0556078260548
 20
122.34970292185979
 10
847.9039467852909
 20
122.34970292185979
 10
847.5621878385817
 20
122.6914618685689
 10
841.752285744527
 20
122.6914618685689
 10
841.4105267978179
 20
123.033220815278
 10
833.5500710235085
 20
123.033220815278
 10
833.2083120767993
 20
123.3749797619871
 10
827.3984099827445
 20
123.3749797619871
 10
827.0566510360354
 20
123.71673870869621
 10
817.1456415814714
 20
123.71673870869621
 10
816.8038826347623
 20
124.05849765540532
 10
809.9687037005801
 20
124.05849765540532
 10
809.626944753871
 20
124.40025660211442
 10
803.4752837131072
 20
124.40025660211442
 10
803.1335247663981
 20
124.74201554882353
 10
796.298345832216
 20
124.74201554882353
 10
795.9565868855068
 20
125.08377449553264
 10
790.8302026848703
 20
125.08377449553264
 10
790.4884437381612
 20
125.42553344224174
 10
785.0203005908155
 20
125.42553344224174
 10
784.6785416441064
 20
125.76729238895085
 10
779.5521574434698
 20
125.76729238895085
 10
779.2103984967607
 20
126.10905133565996
 10
775.1092911362514
 20
126.10905133565996
 10
774.7675321895423
 20
126.45081028236906
 10
772.0334606158694
 20
126.45081028236906
 10
771.6917016691604
 20
126.79256922907817
 10
767.9323532553602
 20
126.79256922907817
 10
767.5905943086511
 20
127.13432817578727
 10
762.8059690547236
 20
127.13432817578727
 10
762.4642101080145
 20
127.47608712249638
 10
759.0466206409235
 20
127.47608712249638
 10
758.7048616942143
 20
127.81784606920547
 10
754.6037543337051
 20
127.81784606920547
 10
754.261995386996
 20
128.1596050159146
 10
749.4773701330685
 20
128.1596050159146
 10
749.1356111863594
 20
128.50136396262369
 10
742.6421911988864
 20
128.50136396262369
 10
742.3004322521773
 20
128.8431229093328
 10
736.1487712114134
 20
128.8431229093328
 10
735.8070122647043
 20
129.1848818560419
 10
730.3388691173586
 20
129.1848818560419
 10
729.9971101706494
 20
129.52664080275102
 10
725.8960028101402
 20
129.52664080275102
 10
725.5542438634311
 20
129.8683997494601
 10
719.0608238759581
 20
129.8683997494601
 10
718.719064929249
 20
130.21015869616923
 10
713.9344396753215
 20
130.21015869616923
 10
713.5926807286124
 20
130.55191764287832
 10
708.4662965279758
 20
130.55191764287832
 10
708.1245375812667
 20
130.89367658958744
 10
703.6816712740483
 20
130.89367658958744
 10
703.3399123273392
 20
131.23543553629654
 10
693.7706618194843
 20
131.23543553629654
 10
693.4289028727752
 20
131.57719448300563
 10
690.0113134056842
 20
131.57719448300563
 10
689.669554458975
 20
131.91895342971475
 10
685.5684470984658
 20
131.91895342971475
 10
685.2266881517567
 20
132.26071237642384
 10
682.4926165780838
 20
132.26071237642384
 10
682.1508576313747
 20
132.60247132313296
 10
679.4167860577019
 20
132.60247132313296
 10
679.0750271109928
 20
132.94423026984205
 10
670.8728123899742
 20
132.94423026984205
 10
670.5310534432651
 20
133.28598921655117
 10
668.4804997630105
 20
133.28598921655117
 10
668.1387408163014
 20
133.62774816326026
 10
666.0881871360467
 20
133.62774816326026
 10
665.7464281893376
 20
133.96950710996938
 10
664.037633455792
 20
133.96950710996938
 10
663.695874509083
 20
134.31126605667848
 10
660.9618029354101
 20
134.31126605667848
 10
660.620043988701
 20
134.6530250033876
 10
657.20245452161
 20
134.6530250033876
 10
656.8606955749009
 20
134.9947839500967
 10
651.0507934808461
 20
134.9947839500967
 10
650.709034534137
 20
135.3365428968058
 10
646.9496861203369
 20
135.3365428968058
 10
646.6079271736277
 20
135.6783018435149
 10
635.3298819322272
 20
135.6783018435149
 10
634.9881229855181
 20
136.02006079022402
 10
616.5331398632264
 20
136.02006079022402
 10
616.1913809165173
 20
136.3618197369331
 10
596.7111209540983
 20
136.3618197369331
 10
596.3693620073892
 20
136.70357868364223
 10
586.116593606116
 20
136.70357868364223
 10
585.7748346594069
 20
137.04533763035133
 10
575.1803073114247
 20
137.04533763035133
 10
574.8385483647155
 20
137.38709657706045
 10
568.0033694305334
 20
137.38709657706045
 10
567.6616104838243
 20
137.04533763035133
 10
544.0802431608961
 20
137.04533763035133
 10
543.738484214187
 20
137.38709657706045
 10
543.3967252674778
 20
137.04533763035133
 10
541.3461715872232
 20
137.04533763035133
 10
541.0044126405141
 20
137.38709657706045
 10
540.3208947470958
 20
137.38709657706045
 10
539.9791358003868
 20
137.04533763035133
 10
531.7769210793682
 20
137.04533763035133
 10
531.4351621326591
 20
137.38709657706045
 10
499.6515800887123
 20
137.38709657706045
 10
499.3098211420032
 20
137.72885552376954
 10
489.05705274073006
 20
137.72885552376954
 10
488.71529379402097
 20
138.07061447047866
 10
487.34825800718454
 20
138.07061447047866
 10
487.00649906047545
 20
137.72885552376954
 10
477.4372485526205
 20
137.72885552376954
 10
477.0954896059114
 20
138.07061447047866
 10
474.0196590855294
 20
138.07061447047866
 10
473.6779001388203
 20
137.72885552376954
 10
468.55151593818374
 20
137.72885552376954
 10
468.2097569914746
 20
137.38709657706045
 10
463.42513173754713
 20
137.38709657706045
 10
463.08337279083804
 20
137.72885552376954
 10
457.27347069678325
 20
137.72885552376954
 10
456.93171175007416
 20
137.38709657706045
 10
450.09653281589203
 20
137.38709657706045
 10
449.75477386918294
 20
137.04533763035133
 10
439.16024652120063
 20
137.04533763035133
 10
438.81848757449154
 20
136.70357868364223
 10
434.71738021398227
 20
136.70357868364223
 10
434.3756212672732
 20
136.3618197369331
 10
428.5657191732184
 20
136.3618197369331
 10
428.2239602265093
 20
136.02006079022402
 10
421.0470223456181
 20
136.02006079022402
 10
420.7052633989089
 20
136.3618197369331
 10
419.67998655878165
 20
136.3618197369331
 10
419.3382276120725
 20
136.02006079022402
 10
404.642592903581
 20
136.02006079022402
 10
404.3008339568719
 20
135.6783018435149
 10
381.4029845273618
 20
135.6783018435149
 10
381.0612255806527
 20
135.3365428968058
 10
376.61835927343435
 20
135.3365428968058
 10
376.2766003267252
 20
134.9947839500967
 10
372.85901085963417
 20
134.9947839500967
 10
372.5172519129251
 20
134.6530250033876
 10
368.7579034991249
 20
134.6530250033876
 10
368.4161445524158
 20
134.31126605667848
 10
360.8974477248155
 20
134.31126605667848
 10
360.55568877810634
 20
133.96950710996938
 10
357.8216172044335
 20
133.96950710996938
 10
357.4798582577244
 20
133.62774816326026
 10
351.6699561636696
 20
133.62774816326026
 10
351.3281972169605
 20
133.28598921655117
 10
347.56884880316034
 20
133.28598921655117
 10
347.22708985645124
 20
132.94423026984205
 10
344.4930182827784
 20
132.94423026984205
 10
344.1512593360693
 20
132.60247132313296
 10
342.1007056558147
 20
132.60247132313296
 10
341.75894670910554
 20
132.26071237642384
 10
339.0248751354327
 20
132.26071237642384
 10
338.6831161887236
 20
131.91895342971475
 10
336.29080356175984
 20
131.91895342971475
 10
335.94904461505075
 20
131.57719448300563
 10
333.55673198808705
 20
131.57719448300563
 10
333.2149730413779
 20
131.23543553629654
 10
327.74682989403226
 20
131.23543553629654
 10
327.4050709473231
 20
130.89367658958744
 10
324.67099937365026
 20
130.89367658958744
 10
324.32924042694117
 20
130.55191764287832
 10
321.5951688532683
 20
130.55191764287832
 10
321.2534099065592
 20
130.21015869616923
 10
317.49406149275904
 20
130.21015869616923
 10
317.15230254604995
 20
129.8683997494601
 10
314.076472025668
 20
129.8683997494601
 10
313.7347130789589
 20
129.52664080275102
 10
311.34240045199516
 20
129.52664080275102
 10
311.00064150528607
 20
129.1848818560419
 10
308.2665699316132
 20
129.1848818560419
 10
307.9248109849041
 20
128.8431229093328
 10
305.1907394112313
 20
128.8431229093328
 10
304.8489804645222
 20
128.50136396262369
 10
302.4566678375584
 20
128.50136396262369
 10
302.11490889084934
 20
128.1596050159146
 10
298.35556047704915
 20
128.1596050159146
 10
298.01380153034006
 20
127.81784606920547
 10
295.2797299566672
 20
127.81784606920547
 10
294.9379710099581
 20
127.47608712249638
 10
291.8621404895761
 20
127.47608712249638
 10
291.520381542867
 20
127.13432817578727
 10
289.4698278626124
 20
127.13432817578727
 10
289.1280689159033
 20
126.79256922907817
 10
286.73575628893957
 20
126.79256922907817
 10
286.3939973422305
 20
126.45081028236906
 10
285.02696155539405
 20
126.45081028236906
 10
284.6852026086849
 20
126.10905133565996
 10
282.2928899817212
 20
126.10905133565996
 10
281.9511310350121
 20
125.76729238895085
 10
278.533541567921
 20
125.76729238895085
 10
278.1917826212119
 20
125.42553344224174
 10
275.11595210083
 20
125.42553344224174
 10
274.7741931541209
 20
125.08377449553264
 10
271.3566036870298
 20
125.08377449553264
 10
271.0148447403207
 20
124.74201554882353
 10
268.62253211335695
 20
124.74201554882353
 10
268.28077316664786
 20
124.40025660211442
 10
265.8884605396841
 20
124.40025660211442
 10
265.546701592975
 20
124.05849765540532
 10
263.15438896601125
 20
124.05849765540532
 10
262.81263001930216
 20
123.71673870869621
 10
260.42031739233846
 20
123.71673870869621
 10
260.0785584456293
 20
123.3749797619871
 10
257.6862458186656
 20
123.3749797619871
 10
257.34448687195646
 20
123.033220815278
 10
255.63569213841095
 20
123.033220815278
 10
255.29393319170185
 20
122.6914618685689
 10
253.92689740486543
 20
122.6914618685689
 10
253.58513845815634
 20
122.34970292185979
 10
251.8763437246108
 20
122.34970292185979
 10
251.5345847779017
 20
122.00794397515068
 10
248.80051320422885
 20
122.00794397515068
 10
248.45875425751973
 20
121.66618502844157
 10
246.40820057726512
 20
121.66618502844157
 10
246.066441630556
 20
121.32442608173247
 10
244.35764689701048
 20
121.32442608173247
 10
244.01588795030136
 20
120.98266713502336
 10
241.62357532333763
 20
120.98266713502336
 10
241.2818163766285
 20
120.64090818831426
 10
239.2312626963739
 20
120.64090818831426
 10
238.88950374966478
 20
120.29914924160516
 10
237.52246796282836
 20
120.29914924160516
 10
237.18070901611927
 20
119.95739029489606
 10
235.81367322928284
 20
119.95739029489606
 10
235.47191428257372
 20
119.61563134818695
 10
234.1048784957373
 20
119.61563134818695
 10
233.7631195490282
 20
119.27387240147785
 10
232.0543248154827
 20
119.27387240147785
 10
231.71256586877357
 20
118.93211345476874
 10
229.66201218851893
 20
118.93211345476874
 10
229.32025324180984
 20
118.59035450805963
 10
227.2696995615552
 20
118.59035450805963
 10
226.92794061484608
 20
118.24859556135053
 10
225.21914588130056
 20
118.24859556135053
 10
224.87738693459147
 20
117.90683661464142
 10
222.82683325433683
 20
117.90683661464142
 10
222.4850743076277
 20
117.56507766793231
 10
221.1180385207913
 20
117.56507766793231
 10
220.7762795740822
 20
117.22331872122321
 10
218.72572589382756
 20
117.22331872122321
 10
218.38396694711847
 20
116.8815597745141
 10
216.33341326686383
 20
116.8815597745141
 10
215.9916543201547
 20
116.539800827805
 10
214.2828595866092
 20
116.539800827805
 10
213.94110063990007
 20
116.19804188109589
 10
212.23230590635455
 20
116.19804188109589
 10
211.89054695964543
 20
115.85628293438678
 10
210.18175222609992
 20
115.85628293438678
 10
209.83999327939082
 20
115.51452398767768
 10
207.7894395991362
 20
115.51452398767768
 10
207.44768065242707
 20
115.17276504096857
 10
205.73888591888155
 20
115.17276504096857
 10
205.39712697217243
 20
114.83100609425946
 10
203.6883322386269
 20
114.83100609425946
 10
203.34657329191782
 20
114.48924714755036
 10
201.29601961166318
 20
114.48924714755036
 10
200.95426066495406
 20
114.14748820084125
 10
199.24546593140855
 20
114.14748820084125
 10
198.90370698469943
 20
113.80572925413215
 10
196.5113943577357
 20
113.80572925413215
 10
196.1696354110266
 20
113.46397030742304
 10
194.11908173077197
 20
113.46397030742304
 10
193.77732278406285
 20
113.12221136071393
 10
191.38501015709912
 20
113.12221136071393
 10
191.04325121039
 20
112.78045241400484
 10
188.9926975301354
 20
112.78045241400484
 10
188.65093858342627
 20
112.43869346729574
 10
186.94214384988075
 20
112.43869346729574
 10
186.60038490317163
 20
112.09693452058663
 10
184.549831222917
 20
112.09693452058663
 10
184.2080722762079
 20
111.75517557387752
 10
182.15751859595326
 20
111.75517557387752
 10
181.81575964924417
 20
111.41341662716842
 10
180.10696491569863
 20
111.41341662716842
 10
179.76520596898953
 20
111.07165768045931
 10
178.056411235444
 20
111.07165768045931
 10
177.7146522887349
 20
110.7298987337502
 10
175.32233966177114
 20
110.7298987337502
 10
174.98058071506205
 20
110.3881397870411
 10
173.27178598151653
 20
110.3881397870411
 10
172.9300270348074
 20
110.04638084033199
 10
170.87947335455277
 20
110.04638084033199
 10
170.53771440784368
 20
109.70462189362289
 10
168.14540178087992
 20
109.70462189362289
 10
167.80364283417083
 20
109.36286294691378
 10
165.7530891539162
 20
109.36286294691378
 10
165.4113302072071
 20
109.02110400020467
 10
162.67725863353425
 20
109.02110400020467
 10
162.33549968682513
 20
108.67934505349557
 10
159.9431870598614
 20
108.67934505349557
 10
159.6014281131523
 20
108.33758610678646
 10
157.20911548618855
 20
108.33758610678646
 10
156.86735653947946
 20
107.99582716007735
 10
154.4750439125157
 20
107.99582716007735
 10
154.1332849658066
 20
107.65406821336825
 10
152.08273128555197
 20
107.65406821336825
 10
151.74097233884288
 20
107.31230926665914
 10
150.03217760529733
 20
107.31230926665914
 10
149.69041865858824
 20
106.97055031995004
 10
147.9816239250427
 20
106.97055031995004
 10
147.6398649783336
 20
106.62879137324093
 10
145.58931129807897
 20
106.62879137324093
 10
145.24755235136988
 20
106.28703242653182
 10
142.85523972440612
 20
106.28703242653182
 10
142.51348077769703
 20
105.94527347982272
 10
140.80468604415148
 20
105.94527347982272
 10
140.4629270974424
 20
105.60351453311362
 10
138.07061447047866
 20
105.60351453311362
 10
137.72885552376954
 20
105.26175558640452
 10
135.3365428968058
 20
105.26175558640452
 10
134.9947839500967
 20
104.91999663969541
 10
124.74201554882353
 20
104.91999663969541
 10
124.40025660211442
 20
105.26175558640452
 10
122.34970292185979
 20
105.26175558640452
 10
122.00794397515068
 20
105.60351453311362
 10
115.85628293438678
 20
105.60351453311362
 10
115.51452398767768
 20
105.26175558640452
 10
107.31230926665914
 20
105.26175558640452
 10
106.97055031995004
 20
104.91999663969541
 10
103.55296085285899
 20
104.91999663969541
 10
103.21120190614988
 20
104.5782376929863
 10
95.00898718513135
 20
104.5782376929863
 10
94.66722823842224
 20
104.91999663969541
 10
88.85732614436745
 20
104.91999663969541
 10
88.51556719765834
 20
105.26175558640452
 10
72.79465564903948
 20
105.26175558640452
 10
72.45289670233038
 20
105.60351453311362
 10
68.35178934182112
 20
105.60351453311362
 10
68.01003039511201
 20
105.94527347982272
 10
58.44077988725705
 20
105.94527347982272
 10
58.099020940547945
 20
106.28703242653182
 10
55.70670831358421
 20
106.28703242653182
 10
55.3649493668751
 20
106.62879137324093
 10
52.63087779320226
 20
106.62879137324093
 10
52.28911884649315
 20
106.97055031995004
 10
48.52977043269299
 20
106.97055031995004
 10
48.188011485983886
 20
107.31230926665914
 10
26.99895679001934
 20
107.31230926665914
 10
26.657197843310232
 20
107.65406821336825
 10
19.480259962419016
 20
107.65406821336825
 10
19.138501015709913
 20
107.99582716007735
 10
13.670357868364222
 20
107.99582716007735
 10
13.328598921655116
 20
108.33758610678646
 10
9.569250507854957
 20
108.33758610678646
 10
9.22749156114585
 20
108.67934505349557
 10
1.7087947335455278
 20
108.67934505349557
 10
1.3670357868364222
 20
109.02110400020467
 10
0.0
 20
109.02110400020467
  0
ENDSEC
  0
SECTION
  2
OBJECTS
  0
DICTIONARY
  5
A
330
0
100
AcDbDictionary
281
1
  3
ACAD_COLOR
350
B
  3
ACAD_GROUP
350
C
  3
ACAD_LAYOUT
350
D
  3
ACAD_MATERIAL
350
E
  3
ACAD_MLEADERSTYLE
350
F
  3
ACAD_MLINESTYLE
350
10
  3
ACAD_PLOTSETTINGS
350
11
  3
ACAD_PLOTSTYLENAME
350
12
  3
ACAD_SCALELIST
350
14
  3
ACAD_TABLESTYLE
350
15
  3
ACAD_VISUALSTYLE
350
16
  3
EZDXF_META
350
2D
  0
DICTIONARY
  5
B
330
A
100
AcDbDictionary
281
1
  0
DICTIONARY
  5
C
330
A
100
AcDbDictionary
281
1
  0
DICTIONARY
  5
D
330
A
100
AcDbDictionary
281
1
  3
Model
350
1A
  3
Layout1
350
1E
  0
DICTIONARY
  5
E
330
A
100
AcDbDictionary
281
1
  3
ByBlock
350
1F
  3
ByLayer
350
20
  3
Global
350
21
  0
DICTIONARY
  5
F
330
A
100
AcDbDictionary
281
1
  3
Standard
350
2C
  0
DICTIONARY
  5
10
330
A
100
AcDbDictionary
281
1
  3
Standard
350
22
  0
DICTIONARY
  5
11
330
A
100
AcDbDictionary
281
1
  0
ACDBDICTIONARYWDFLT
  5
12
330
A
100
AcDbDictionary
281
1
  3
Normal
350
13
100
AcDbDictionaryWithDefault
340
13
  0
ACDBPLACEHOLDER
  5
13
330
12
  0
DICTIONARY
  5
14
330
A
100
AcDbDictionary
281
1
  0
DICTIONARY
  5
15
330
A
100
AcDbDictionary
281
1
  0
DICTIONARY
  5
16
330
A
100
AcDbDictionary
281
1
  3
2dWireframe
350
5A
  3
Basic
350
5B
  3
Brighten
350
5C
  3
ColorChange
350
5D
  3
Conceptual
350
5E
  3
Dim
350
5F
  3
EdgeColorOff
350
60
  3
Facepattern
350
61
  3
Flat
350
62
  3
FlatWithEdges
350
63
  3
Gouraud
350
64
  3
GouraudWithEdges
350
65
  3
Hidden
350
66
  3
JitterOff
350
67
  3
Linepattern
350
68
  3
Modeling
350
69
  3
OverhangOff
350
6A
  3
Realistic
350
6B
  3
Shaded
350
6C
  3
Shaded with edges
350
6D
  3
Shades of Gray
350
6E
  3
Sketchy
350
6F
  3
Thicken
350
70
  3
Wireframe
350
71
  3
X-Ray
350
72
  0
LAYOUT
  5
1A
330
D
100
AcDbPlotSettings
  1

  4
A3
  6

 40
7.5
 41
20.0
 42
7.5
 43
20.0
 44
420.0
 45
297.0
 46
0.0
 47
0.0
 48
0.0
 49
0.0
140
0.0
141
0.0
142
1.0
143
1.0
 70
1024
 72
1
 73
0
 74
5
  7

 75
16
 76
0
 77
2
 78
300
147
1.0
148
0.0
149
0.0
100
AcDbLayout
  1
Model
 70
1
 71
0
 10
0.0
 20
0.0
 11
420.0
 21
297.0
 12
0.0
 22
0.0
 32
0.0
 14
1e+20
 24
1e+20
 34
1e+20
 15
-1e+20
 25
-1e+20
 35
-1e+20
146
0.0
 13
0.0
 23
0.0
 33
0.0
 16
1.0
 26
0.0
 36
0.0
 17
0.0
 27
1.0
 37
0.0
 76
1
330
17
  0
LAYOUT
  5
1E
330
D
100
AcDbPlotSettings
  1

  4
A3
  6

 40
7.5
 41
20.0
 42
7.5
 43
20.0
 44
420.0
 45
297.0
 46
0.0
 47
0.0
 48
0.0
 49
0.0
140
0.0
141
0.0
142
1.0
143
1.0
 70
0
 72
1
 73
0
 74
5
  7

 75
16
 76
0
 77
2
 78
300
147
1.0
148
0.0
149
0.0
100
AcDbLayout
  1
Layout1
 70
1
 71
1
 10
0.0
 20
0.0
 11
420.0
 21
297.0
 12
0.0
 22
0.0
 32
0.0
 14
1e+20
 24
1e+20
 34
1e+20
 15
-1e+20
 25
-1e+20
 35
-1e+20
146
0.0
 13
0.0
 23
0.0
 33
0.0
 16
1.0
 26
0.0
 36
0.0
 17
0.0
 27
1.0
 37
0.0
 76
1
330
1B
  0
MATERIAL
  5
1F
102
{ACAD_REACTORS
330
E
102
}
330
E
100
AcDbMaterial
  1
ByBlock
  2

 70
0
 40
1.0
 71
1
 41
1.0
 91
-1023410177
 42
1.0
 72
1
  3

 73
1
 74
1
 75
1
 44
0.5
 73
0
 45
1.0
 46
1.0
 77
1
  4

 78
1
 79
1
170
1
 48
1.0
171
1
  6

172
1
173
1
174
1
140
1.0
141
1.0
175
1
  7

176
1
177
1
178
1
143
1.0
179
1
  8

270
1
271
1
272
1
145
1.0
146
1.0
273
1
  9

274
1
275
1
276
1
 42
1.0
 72
1
  3

 73
1
 74
1
 75
1
 94
63
  0
MATERIAL
  5
20
102
{ACAD_REACTORS
330
E
102
}
330
E
100
AcDbMaterial
  1
ByLayer
  2

 70
0
 40
1.0
 71
1
 41
1.0
 91
-1023410177
 42
1.0
 72
1
  3

 73
1
 74
1
 75
1
 44
0.5
 73
0
 45
1.0
 46
1.0
 77
1
  4

 78
1
 79
1
170
1
 48
1.0
171
1
  6

172
1
173
1
174
1
140
1.0
141
1.0
175
1
  7

176
1
177
1
178
1
143
1.0
179
1
  8

270
1
271
1
272
1
145
1.0
146
1.0
273
1
  9

274
1
275
1
276
1
 42
1.0
 72
1
  3

 73
1
 74
1
 75
1
 94
63
  0
MATERIAL
  5
21
102
{ACAD_REACTORS
330
E
102
}
330
E
100
AcDbMaterial
  1
Global
  2

 70
0
 40
1.0
 71
1
 41
1.0
 91
-1023410177
 42
1.0
 72
1
  3

 73
1
 74
1
 75
1
 44
0.5
 73
0
 45
1.0
 46
1.0
 77
1
  4

 78
1
 79
1
170
1
 48
1.0
171
1
  6

172
1
173
1
174
1
140
1.0
141
1.0
175
1
  7

176
1
177
1
178
1
143
1.0
179
1
  8

270
1
271
1
272
1
145
1.0
146
1.0
273
1
  9

274
1
275
1
276
1
 42
1.0
 72
1
  3

 73
1
 74
1
 75
1
 94
63
  0
MLINESTYLE
  5
22
102
{ACAD_REACTORS
330
10
102
}
330
10
100
AcDbMlineStyle
  2
Standard
 70
0
  3

 62
256
 51
90.0
 52
90.0
 71
2
 49
0.5
 62
256
  6
BYLAYER
 49
-0.5
 62
256
  6
BYLAYER
  0
MLEADERSTYLE
  5
2C
102
{ACAD_REACTORS
330
F
102
}
330
F
100
AcDbMLeaderStyle
179
2
170
2
171
1
172
0
 90
2
 40
0.0
 41
0.0
173
1
 91
-1056964608
 92
-2
290
1
 42
2.0
291
1
 43
8.0
  3
Standard
 44
4.0
300

342
29
174
1
175
1
176
0
178
1
 93
-1056964608
 45
4.0
292
0
297
0
 46
4.0
 94
-1056964608
 47
1.0
 49
1.0
140
1.0
294
1
141
0.0
177
0
142
1.0
295
0
296
0
143
3.75
271
0
272
9
273
9
  0
DICTIONARY
  5
2D
330
A
100
AcDbDictionary
280
1
281
1
  3
CREATED_BY_EZDXF
350
2E
  3
WRITTEN_BY_EZDXF
350
8E
  0
DICTIONARYVAR
  5
2E
330
2D
100
DictionaryVariables
280
0
  1
1.4.2 @ 2025-06-04T15:39:14.607529+00:00
  0
VISUALSTYLE
  5
5A
102
{ACAD_REACTORS
330
16
102
}
330
16
100
AcDbVisualStyle
  2
2dWireframe
 70
4
177
3
291
0
 70
58
 90
2
176
1
 90
2
176
1
 90
0
176
1
 90
0
176
1
 40
0.6
176
1
 40
30.0
176
1
 62
7
420
16777215
176
1
 90
1
176
1
 90
4
176
1
 62
7
176
1
 62
257
176
1
 90
1
176
1
 90
1
176
1
 40
1.0
176
1
 90
8
176
1
 62
7
176
1
 40
1.0
176
1
 90
1
176
1
 90
6
176
1
 90
2
176
1
 62
7
176
1
 90
5
176
1
 90
0
176
1
 90
0
176
1
290
0
176
1
 90
1
176
1
 40
0.0
176
1
 90
0
176
1
290
1
176
1
290
1
176
1
290
0
176
1
290
0
176
1
290
0
176
1
290
0
176
1
290
0
176
1
290
0
176
1
290
0
176
1
 90
50
176
1
 40
0.0
176
1
 40
1.0
176
1
 90
0
176
1
 62
18
420
0
176
1
 90
50
176
1
 90
3
176
1
 62
5
420
255
176
1
290
0
176
1
 90
50
176
1
 90
50
176
1
 90
50
176
1
290
0
176
1
 90
50
176
1
 62
256
176
0
 40
1.0
176
0
 90
2
176
1
  1
strokes_ogs.tif
176
1
290
0
176
1
 40
1.0
176
1
 40
1.0
176
1
  0
VISUALSTYLE
  5
5B
102
{ACAD_REACTORS
330
16
102
}
330
16
100
AcDbVisualStyle
  2
Basic
 70
7
177
3
291
1
 70
58
 90
2
176
1
 90
2
176
1
 90
0
176
1
 90
1
176
1
 40
0.6
176
1
 40
30.0
176
1
 62
7
420
16777215
176
1
 90
1
176
1
 90
4
176
1
 62
7
176
1
 62
257
176
1
 90
1
176
1
 90
1
176
1
 40
1.0
176
1
 90
8
176
1
 62
7
176
1
 40
1.0
176
1
 90
1
176
1
 90
6
176
1
 90
2
176
1
 62
7
176
1
 90
5
176
1
 90
0
176
1
 90
0
176
1
290
0
176
1
 90
1
176
1
 40
0.0
176
1
 90
0
176
1
290
0
176
1
290
1
176
1
290
1
176
1
290
0
176
1
290
0
176
1
290
0
176
1
290
0
176
1
290
0
176
1
290
0
176
1
 90
50
176
1
 40
0.0
176
1
 40
1.0
176
1
 90
0
176
1
 62
18
420
0
176
1
 90
50
176
1
 90
3
176
1
 62
5
420
255
176
1
290
0
176
1
 90
50
176
1
 90
50
176
1
 90
50
176
1
290
0
176
1
 90
50
176
1
 62
256
176
0
 40
1.0
176
0
 90
2
176
1
  1
strokes_ogs.tif
176
1
290
0
176
1
 40
1.0
176
1
 40
1.0
176
1
  0
VISUALSTYLE
  5
5C
102
{ACAD_REACTORS
330
16
102
}
330
16
100
AcDbVisualStyle
  2
Brighten
 70
12
177
3
291
1
 70
58
 90
2
176
1
 90
2
176
1
 90
0
176
1
 90
2
176
1
 40
0.6
176
1
 40
30.0
176
1
 62
7
420
16777215
176
1
 90
1
176
1
 90
4
176
1
 62
7
176
1
 62
257
176
1
 90
1
176
1
 90
1
176
1
 40
1.0
176
1
 90
8
176
1
 62
7
176
1
 40
1.0
176
1
 90
1
176
1
 90
6
176
1
 90
2
176
1
 62
7
176
1
 90
5
176
1
 90
0
176
1
 90
0
176
1
290
0
176
1
 90
1
176
1
 40
0.0
176
1
 90
0
176
1
290
0
176
1
290
1
176
1
290
1
176
1
290
0
176
1
290
0
176
1
290
0
176
1
290
0
176
1
290
0
176
1
290
0
176
1
 90
50
176
1
 40
0.0
176
1
 40
1.0
176
1
 90
0
176
1
 62
18
420
0
176
1
 90
50
176
1
 90
3
176
1
 62
5
420
255
176
1
290
0
176
1
 90
50
176
1
 90
50
176
1
 90
50
176
1
290
0
176
1
 90
50
176
1
 62
256
176
0
 40
1.0
176
0
 90
2
176
1
  1
strokes_ogs.tif
176
1
290
0
176
1
 40
1.0
176
1
 40
1.0
176
1
  0
VISUALSTYLE
  5
5D
102
{ACAD_REACTORS
330
16
102
}
330
16
100
AcDbVisualStyle
  2
ColorChange
 70
16
177
3
291
1
 70
58
 90
2
176
1
 90
2
176
1
 90
0
176
1
 90
2
176
1
 40
0.6
176
1
 40
30.0
176
1
 62
7
420
16777215
176
1
 90
1
176
1
 90
4
176
1
 62
7
176
1
 62
257
176
1
 90
1
176
1
 90
1
176
1
 40
1.0
176
1
 90
8
176
1
 62
7
176
1
 40
1.0
176
1
 90
1
176
1
 90
6
176
1
 90
2
176
1
 62
7
176
1
 90
5
176
1
 90
0
176
1
 90
0
176
1
290
0
176
1
 90
1
176
1
 40
0.0
176
1
 90
0
176
1
290
0
176
1
290
1
176
1
290
1
176
1
290
0
176
1
290
0
176
1
290
0
176
1
290
0
176
1
290
0
176
1
290
0
176
1
 90
50
176
1
 40
0.0
176
1
 40
1.0
176
1
 90
0
176
1
 62
18
420
0
176
1
 90
50
176
1
 90
3
176
1
 62
5
420
255
176
1
290
0
176
1
 90
50
176
1
 90
50
176
1
 90
50
176
1
290
0
176
1
 90
50
176
1
 62
256
176
0
 40
1.0
176
0
 90
2
176
1
  1
strokes_ogs.tif
176
1
290
0
176
1
 40
1.0
176
1
 40
1.0
176
1
  0
VISUALSTYLE
  5
5E
102
{ACAD_REACTORS
330
16
102
}
330
16
100
AcDbVisualStyle
  2
Conceptual
 70
9
177
3
291
0
 70
58
 90
2
176
1
 90
2
176
1
 90
0
176
1
 90
3
176
1
 40
0.6
176
1
 40
30.0
176
1
 62
7
420
16777215
176
1
 90
1
176
1
 90
4
176
1
 62
7
176
1
 62
257
176
1
 90
1
176
1
 90
1
176
1
 40
1.0
176
1
 90
8
176
1
 62
7
176
1
 40
1.0
176
1
 90
1
176
1
 90
6
176
1
 90
2
176
1
 62
7
176
1
 90
5
176
1
 90
0
176
1
 90
0
176
1
290
0
176
1
 90
1
176
1
 40
0.0
176
1
 90
0
176
1
290
0
176
1
290
1
176
1
290
1
176
1
290
0
176
1
290
0
176
1
290
0
176
1
290
0
176
1
290
0
176
1
290
0
176
1
 90
50
176
1
 40
0.0
176
1
 40
1.0
176
1
 90
0
176
1
 62
18
420
0
176
1
 90
50
176
1
 90
3
176
1
 62
5
420
255
176
1
290
0
176
1
 90
50
176
1
 90
50
176
1
 90
50
176
1
290
0
176
1
 90
50
176
1
 62
256
176
0
 40
1.0
176
0
 90
2
176
1
  1
strokes_ogs.tif
176
1
290
0
176
1
 40
1.0
176
1
 40
1.0
176
1
  0
VISUALSTYLE
  5
5F
102
{ACAD_REACTORS
330
16
102
}
330
16
100
AcDbVisualStyle
  2
Dim
 70
11
177
3
291
1
 70
58
 90
2
176
1
 90
2
176
1
 90
0
176
1
 90
2
176
1
 40
0.6
176
1
 40
30.0
176
1
 62
7
420
16777215
176
1
 90
1
176
1
 90
4
176
1
 62
7
176
1
 62
257
176
1
 90
1
176
1
 90
1
176
1
 40
1.0
176
1
 90
8
176
1
 62
7
176
1
 40
1.0
176
1
 90
1
176
1
 90
6
176
1
 90
2
176
1
 62
7
176
1
 90
5
176
1
 90
0
176
1
 90
0
176
1
290
0
176
1
 90
1
176
1
 40
0.0
176
1
 90
0
176
1
290
0
176
1
290
1
176
1
290
1
176
1
290
0
176
1
290
0
176
1
290
0
176
1
290
0
176
1
290
0
176
1
290
0
176
1
 90
50
176
1
 40
0.0
176
1
 40
1.0
176
1
 90
0
176
1
 62
18
420
0
176
1
 90
50
176
1
 90
3
176
1
 62
5
420
255
176
1
290
0
176
1
 90
50
176
1
 90
50
176
1
 90
50
176
1
290
0
176
1
 90
50
176
1
 62
256
176
0
 40
1.0
176
0
 90
2
176
1
  1
strokes_ogs.tif
176
1
290
0
176
1
 40
1.0
176
1
 40
1.0
176
1
  0
VISUALSTYLE
  5
60
102
{ACAD_REACTORS
330
16
102
}
330
16
100
AcDbVisualStyle
  2
EdgeColorOff
 70
22
177
3
291
1
 70
58
 90
2
176
1
 90
2
176
1
 90
0
176
1
 90
2
176
1
 40
0.6
176
1
 40
30.0
176
1
 62
7
420
16777215
176
1
 90
1
176
1
 90
4
176
1
 62
7
176
1
 62
257
176
1
 90
1
176
1
 90
1
176
1
 40
1.0
176
1
 90
8
176
1
 62
7
176
1
 40
1.0
176
1
 90
1
176
1
 90
6
176
1
 90
2
176
1
 62
7
176
1
 90
5
176
1
 90
0
176
1
 90
0
176
1
290
0
176
1
 90
1
176
1
 40
0.0
176
1
 90
0
176
1
290
0
176
1
290
1
176
1
290
1
176
1
290
0
176
1
290
0
176
1
290
0
176
1
290
0
176
1
290
0
176
1
290
0
176
1
 90
50
176
1
 40
0.0
176
1
 40
1.0
176
1
 90
0
176
1
 62
18
420
0
176
1
 90
50
176
1
 90
3
176
1
 62
5
420
255
176
1
290
0
176
1
 90
50
176
1
 90
50
176
1
 90
50
176
1
290
0
176
1
 90
50
176
1
 62
256
176
0
 40
1.0
176
0
 90
2
176
1
  1
strokes_ogs.tif
176
1
290
0
176
1
 40
1.0
176
1
 40
1.0
176
1
  0
VISUALSTYLE
  5
61
102
{ACAD_REACTORS
330
16
102
}
330
16
100
AcDbVisualStyle
  2
Facepattern
 70
15
177
3
291
1
 70
58
 90
2
176
1
 90
2
176
1
 90
0
176
1
 90
2
176
1
 40
0.6
176
1
 40
30.0
176
1
 62
7
420
16777215
176
1
 90
1
176
1
 90
4
176
1
 62
7
176
1
 62
257
176
1
 90
1
176
1
 90
1
176
1
 40
1.0
176
1
 90
8
176
1
 62
7
176
1
 40
1.0
176
1
 90
1
176
1
 90
6
176
1
 90
2
176
1
 62
7
176
1
 90
5
176
1
 90
0
176
1
 90
0
176
1
290
0
176
1
 90
1
176
1
 40
0.0
176
1
 90
0
176
1
290
0
176
1
290
1
176
1
290
1
176
1
290
0
176
1
290
0
176
1
290
0
176
1
290
0
176
1
290
0
176
1
290
0
176
1
 90
50
176
1
 40
0.0
176
1
 40
1.0
176
1
 90
0
176
1
 62
18
420
0
176
1
 90
50
176
1
 90
3
176
1
 62
5
420
255
176
1
290
0
176
1
 90
50
176
1
 90
50
176
1
 90
50
176
1
290
0
176
1
 90
50
176
1
 62
256
176
0
 40
1.0
176
0
 90
2
176
1
  1
strokes_ogs.tif
176
1
290
0
176
1
 40
1.0
176
1
 40
1.0
176
1
  0
VISUALSTYLE
  5
62
102
{ACAD_REACTORS
330
16
102
}
330
16
100
AcDbVisualStyle
  2
Flat
 70
0
177
3
291
1
 70
58
 90
2
176
1
 90
2
176
1
 90
0
176
1
 90
2
176
1
 40
0.6
176
1
 40
30.0
176
1
 62
7
420
16777215
176
1
 90
1
176
1
 90
4
176
1
 62
7
176
1
 62
257
176
1
 90
1
176
1
 90
1
176
1
 40
1.0
176
1
 90
8
176
1
 62
7
176
1
 40
1.0
176
1
 90
1
176
1
 90
6
176
1
 90
2
176
1
 62
7
176
1
 90
5
176
1
 90
0
176
1
 90
0
176
1
290
0
176
1
 90
1
176
1
 40
0.0
176
1
 90
0
176
1
290
0
176
1
290
1
176
1
290
1
176
1
290
0
176
1
290
0
176
1
290
0
176
1
290
0
176
1
290
0
176
1
290
0
176
1
 90
50
176
1
 40
0.0
176
1
 40
1.0
176
1
 90
0
176
1
 62
18
420
0
176
1
 90
50
176
1
 90
3
176
1
 62
5
420
255
176
1
290
0
176
1
 90
50
176
1
 90
50
176
1
 90
50
176
1
290
0
176
1
 90
50
176
1
 62
256
176
0
 40
1.0
176
0
 90
2
176
1
  1
strokes_ogs.tif
176
1
290
0
176
1
 40
1.0
176
1
 40
1.0
176
1
  0
VISUALSTYLE
  5
63
102
{ACAD_REACTORS
330
16
102
}
330
16
100
AcDbVisualStyle
  2
FlatWithEdges
 70
1
177
3
291
1
 70
58
 90
2
176
1
 90
2
176
1
 90
0
176
1
 90
2
176
1
 40
0.6
176
1
 40
30.0
176
1
 62
7
420
16777215
176
1
 90
1
176
1
 90
4
176
1
 62
7
176
1
 62
257
176
1
 90
1
176
1
 90
1
176
1
 40
1.0
176
1
 90
8
176
1
 62
7
176
1
 40
1.0
176
1
 90
1
176
1
 90
6
176
1
 90
2
176
1
 62
7
176
1
 90
5
176
1
 90
0
176
1
 90
0
176
1
290
0
176
1
 90
1
176
1
 40
0.0
176
1
 90
0
176
1
290
0
176
1
290
1
176
1
290
1
176
1
290
0
176
1
290
0
176
1
290
0
176
1
290
0
176
1
290
0
176
1
290
0
176
1
 90
50
176
1
 40
0.0
176
1
 40
1.0
176
1
 90
0
176
1
 62
18
420
0
176
1
 90
50
176
1
 90
3
176
1
 62
5
420
255
176
1
290
0
176
1
 90
50
176
1
 90
50
176
1
 90
50
176
1
290
0
176
1
 90
50
176
1
 62
256
176
0
 40
1.0
176
0
 90
2
176
1
  1
strokes_ogs.tif
176
1
290
0
176
1
 40
1.0
176
1
 40
1.0
176
1
  0
VISUALSTYLE
  5
64
102
{ACAD_REACTORS
330
16
102
}
330
16
100
AcDbVisualStyle
  2
Gouraud
 70
2
177
3
291
1
 70
58
 90
2
176
1
 90
2
176
1
 90
0
176
1
 90
2
176
1
 40
0.6
176
1
 40
30.0
176
1
 62
7
420
16777215
176
1
 90
1
176
1
 90
4
176
1
 62
7
176
1
 62
257
176
1
 90
1
176
1
 90
1
176
1
 40
1.0
176
1
 90
8
176
1
 62
7
176
1
 40
1.0
176
1
 90
1
176
1
 90
6
176
1
 90
2
176
1
 62
7
176
1
 90
5
176
1
 90
0
176
1
 90
0
176
1
290
0
176
1
 90
1
176
1
 40
0.0
176
1
 90
0
176
1
290
0
176
1
290
1
176
1
290
1
176
1
290
0
176
1
290
0
176
1
290
0
176
1
290
0
176
1
290
0
176
1
290
0
176
1
 90
50
176
1
 40
0.0
176
1
 40
1.0
176
1
 90
0
176
1
 62
18
420
0
176
1
 90
50
176
1
 90
3
176
1
 62
5
420
255
176
1
290
0
176
1
 90
50
176
1
 90
50
176
1
 90
50
176
1
290
0
176
1
 90
50
176
1
 62
256
176
0
 40
1.0
176
0
 90
2
176
1
  1
strokes_ogs.tif
176
1
290
0
176
1
 40
1.0
176
1
 40
1.0
176
1
  0
VISUALSTYLE
  5
65
102
{ACAD_REACTORS
330
16
102
}
330
16
100
AcDbVisualStyle
  2
GouraudWithEdges
 70
3
177
3
291
1
 70
58
 90
2
176
1
 90
2
176
1
 90
0
176
1
 90
2
176
1
 40
0.6
176
1
 40
30.0
176
1
 62
7
420
16777215
176
1
 90
1
176
1
 90
4
176
1
 62
7
176
1
 62
257
176
1
 90
1
176
1
 90
1
176
1
 40
1.0
176
1
 90
8
176
1
 62
7
176
1
 40
1.0
176
1
 90
1
176
1
 90
6
176
1
 90
2
176
1
 62
7
176
1
 90
5
176
1
 90
0
176
1
 90
0
176
1
290
0
176
1
 90
1
176
1
 40
0.0
176
1
 90
0
176
1
290
0
176
1
290
1
176
1
290
1
176
1
290
0
176
1
290
0
176
1
290
0
176
1
290
0
176
1
290
0
176
1
290
0
176
1
 90
50
176
1
 40
0.0
176
1
 40
1.0
176
1
 90
0
176
1
 62
18
420
0
176
1
 90
50
176
1
 90
3
176
1
 62
5
420
255
176
1
290
0
176
1
 90
50
176
1
 90
50
176
1
 90
50
176
1
290
0
176
1
 90
50
176
1
 62
256
176
0
 40
1.0
176
0
 90
2
176
1
  1
strokes_ogs.tif
176
1
290
0
176
1
 40
1.0
176
1
 40
1.0
176
1
  0
VISUALSTYLE
  5
66
102
{ACAD_REACTORS
330
16
102
}
330
16
100
AcDbVisualStyle
  2
Hidden
 70
6
177
3
291
0
 70
58
 90
2
176
1
 90
2
176
1
 90
0
176
1
 90
1
176
1
 40
0.6
176
1
 40
30.0
176
1
 62
7
420
16777215
176
1
 90
1
176
1
 90
4
176
1
 62
7
176
1
 62
257
176
1
 90
1
176
1
 90
1
176
1
 40
1.0
176
1
 90
8
176
1
 62
7
176
1
 40
1.0
176
1
 90
1
176
1
 90
6
176
1
 90
2
176
1
 62
7
176
1
 90
5
176
1
 90
0
176
1
 90
0
176
1
290
0
176
1
 90
1
176
1
 40
0.0
176
1
 90
0
176
1
290
0
176
1
290
1
176
1
290
1
176
1
290
0
176
1
290
0
176
1
290
0
176
1
290
0
176
1
290
0
176
1
290
0
176
1
 90
50
176
1
 40
0.0
176
1
 40
1.0
176
1
 90
0
176
1
 62
18
420
0
176
1
 90
50
176
1
 90
3
176
1
 62
5
420
255
176
1
290
0
176
1
 90
50
176
1
 90
50
176
1
 90
50
176
1
290
0
176
1
 90
50
176
1
 62
256
176
0
 40
1.0
176
0
 90
2
176
1
  1
strokes_ogs.tif
176
1
290
0
176
1
 40
1.0
176
1
 40
1.0
176
1
  0
VISUALSTYLE
  5
67
102
{ACAD_REACTORS
330
16
102
}
330
16
100
AcDbVisualStyle
  2
JitterOff
 70
20
177
3
291
1
 70
58
 90
2
176
1
 90
2
176
1
 90
0
176
1
 90
2
176
1
 40
0.6
176
1
 40
30.0
176
1
 62
7
420
16777215
176
1
 90
1
176
1
 90
4
176
1
 62
7
176
1
 62
257
176
1
 90
1
176
1
 90
1
176
1
 40
1.0
176
1
 90
8
176
1
 62
7
176
1
 40
1.0
176
1
 90
1
176
1
 90
6
176
1
 90
2
176
1
 62
7
176
1
 90
5
176
1
 90
0
176
1
 90
0
176
1
290
0
176
1
 90
1
176
1
 40
0.0
176
1
 90
0
176
1
290
0
176
1
290
1
176
1
290
1
176
1
290
0
176
1
290
0
176
1
290
0
176
1
290
0
176
1
290
0
176
1
290
0
176
1
 90
50
176
1
 40
0.0
176
1
 40
1.0
176
1
 90
0
176
1
 62
18
420
0
176
1
 90
50
176
1
 90
3
176
1
 62
5
420
255
176
1
290
0
176
1
 90
50
176
1
 90
50
176
1
 90
50
176
1
290
0
176
1
 90
50
176
1
 62
256
176
0
 40
1.0
176
0
 90
2
176
1
  1
strokes_ogs.tif
176
1
290
0
176
1
 40
1.0
176
1
 40
1.0
176
1
  0
VISUALSTYLE
  5
68
102
{ACAD_REACTORS
330
16
102
}
330
16
100
AcDbVisualStyle
  2
Linepattern
 70
14
177
3
291
1
 70
58
 90
2
176
1
 90
2
176
1
 90
0
176
1
 90
2
176
1
 40
0.6
176
1
 40
30.0
176
1
 62
7
420
16777215
176
1
 90
1
176
1
 90
4
176
1
 62
7
176
1
 62
257
176
1
 90
1
176
1
 90
1
176
1
 40
1.0
176
1
 90
8
176
1
 62
7
176
1
 40
1.0
176
1
 90
1
176
1
 90
6
176
1
 90
2
176
1
 62
7
176
1
 90
5
176
1
 90
0
176
1
 90
0
176
1
290
0
176
1
 90
1
176
1
 40
0.0
176
1
 90
0
176
1
290
0
176
1
290
1
176
1
290
1
176
1
290
0
176
1
290
0
176
1
290
0
176
1
290
0
176
1
290
0
176
1
290
0
176
1
 90
50
176
1
 40
0.0
176
1
 40
1.0
176
1
 90
0
176
1
 62
18
420
0
176
1
 90
50
176
1
 90
3
176
1
 62
5
420
255
176
1
290
0
176
1
 90
50
176
1
 90
50
176
1
 90
50
176
1
290
0
176
1
 90
50
176
1
 62
256
176
0
 40
1.0
176
0
 90
2
176
1
  1
strokes_ogs.tif
176
1
290
0
176
1
 40
1.0
176
1
 40
1.0
176
1
  0
VISUALSTYLE
  5
69
102
{ACAD_REACTORS
330
16
102
}
330
16
100
AcDbVisualStyle
  2
Modeling
 70
10
177
3
291
0
 70
58
 90
2
176
1
 90
2
176
1
 90
0
176
1
 90
2
176
1
 40
0.6
176
1
 40
30.0
176
1
 62
7
420
16777215
176
1
 90
1
176
1
 90
4
176
1
 62
7
176
1
 62
257
176
1
 90
1
176
1
 90
1
176
1
 40
1.0
176
1
 90
8
176
1
 62
7
176
1
 40
1.0
176
1
 90
1
176
1
 90
6
176
1
 90
2
176
1
 62
7
176
1
 90
5
176
1
 90
0
176
1
 90
0
176
1
290
0
176
1
 90
1
176
1
 40
0.0
176
1
 90
0
176
1
290
0
176
1
290
1
176
1
290
1
176
1
290
0
176
1
290
0
176
1
290
0
176
1
290
0
176
1
290
0
176
1
290
0
176
1
 90
50
176
1
 40
0.0
176
1
 40
1.0
176
1
 90
0
176
1
 62
18
420
0
176
1
 90
50
176
1
 90
3
176
1
 62
5
420
255
176
1
290
0
176
1
 90
50
176
1
 90
50
176
1
 90
50
176
1
290
0
176
1
 90
50
176
1
 62
256
176
0
 40
1.0
176
0
 90
2
176
1
  1
strokes_ogs.tif
176
1
290
0
176
1
 40
1.0
176
1
 40
1.0
176
1
  0
VISUALSTYLE
  5
6A
102
{ACAD_REACTORS
330
16
102
}
330
16
100
AcDbVisualStyle
  2
OverhangOff
 70
21
177
3
291
1
 70
58
 90
2
176
1
 90
2
176
1
 90
0
176
1
 90
2
176
1
 40
0.6
176
1
 40
30.0
176
1
 62
7
420
16777215
176
1
 90
1
176
1
 90
4
176
1
 62
7
176
1
 62
257
176
1
 90
1
176
1
 90
1
176
1
 40
1.0
176
1
 90
8
176
1
 62
7
176
1
 40
1.0
176
1
 90
1
176
1
 90
6
176
1
 90
2
176
1
 62
7
176
1
 90
5
176
1
 90
0
176
1
 90
0
176
1
290
0
176
1
 90
1
176
1
 40
0.0
176
1
 90
0
176
1
290
0
176
1
290
1
176
1
290
1
176
1
290
0
176
1
290
0
176
1
290
0
176
1
290
0
176
1
290
0
176
1
290
0
176
1
 90
50
176
1
 40
0.0
176
1
 40
1.0
176
1
 90
0
176
1
 62
18
420
0
176
1
 90
50
176
1
 90
3
176
1
 62
5
420
255
176
1
290
0
176
1
 90
50
176
1
 90
50
176
1
 90
50
176
1
290
0
176
1
 90
50
176
1
 62
256
176
0
 40
1.0
176
0
 90
2
176
1
  1
strokes_ogs.tif
176
1
290
0
176
1
 40
1.0
176
1
 40
1.0
176
1
  0
VISUALSTYLE
  5
6B
102
{ACAD_REACTORS
330
16
102
}
330
16
100
AcDbVisualStyle
  2
Realistic
 70
8
177
3
291
0
 70
58
 90
2
176
1
 90
2
176
1
 90
0
176
1
 90
2
176
1
 40
0.6
176
1
 40
30.0
176
1
 62
7
420
16777215
176
1
 90
1
176
1
 90
4
176
1
 62
7
176
1
 62
257
176
1
 90
1
176
1
 90
1
176
1
 40
1.0
176
1
 90
8
176
1
 62
7
176
1
 40
1.0
176
1
 90
1
176
1
 90
6
176
1
 90
2
176
1
 62
7
176
1
 90
5
176
1
 90
0
176
1
 90
0
176
1
290
0
176
1
 90
1
176
1
 40
0.0
176
1
 90
0
176
1
290
0
176
1
290
1
176
1
290
1
176
1
290
0
176
1
290
0
176
1
290
0
176
1
290
0
176
1
290
0
176
1
290
0
176
1
 90
50
176
1
 40
0.0
176
1
 40
1.0
176
1
 90
0
176
1
 62
18
420
0
176
1
 90
50
176
1
 90
3
176
1
 62
5
420
255
176
1
290
0
176
1
 90
50
176
1
 90
50
176
1
 90
50
176
1
290
0
176
1
 90
50
176
1
 62
256
176
0
 40
1.0
176
0
 90
2
176
1
  1
strokes_ogs.tif
176
1
290
0
176
1
 40
1.0
176
1
 40
1.0
176
1
  0
VISUALSTYLE
  5
6C
102
{ACAD_REACTORS
330
16
102
}
330
16
100
AcDbVisualStyle
  2
Shaded
 70
27
177
3
291
0
 70
58
 90
2
176
1
 90
2
176
1
 90
0
176
1
 90
2
176
1
 40
0.6
176
1
 40
30.0
176
1
 62
7
420
16777215
176
1
 90
1
176
1
 90
4
176
1
 62
7
176
1
 62
257
176
1
 90
1
176
1
 90
1
176
1
 40
1.0
176
1
 90
8
176
1
 62
7
176
1
 40
1.0
176
1
 90
1
176
1
 90
6
176
1
 90
2
176
1
 62
7
176
1
 90
5
176
1
 90
0
176
1
 90
0
176
1
290
0
176
1
 90
1
176
1
 40
0.0
176
1
 90
0
176
1
290
0
176
1
290
1
176
1
290
1
176
1
290
0
176
1
290
0
176
1
290
0
176
1
290
0
176
1
290
0
176
1
290
0
176
1
 90
50
176
1
 40
0.0
176
1
 40
1.0
176
1
 90
0
176
1
 62
18
420
0
176
1
 90
50
176
1
 90
3
176
1
 62
5
420
255
176
1
290
0
176
1
 90
50
176
1
 90
50
176
1
 90
50
176
1
290
0
176
1
 90
50
176
1
 62
256
176
0
 40
1.0
176
0
 90
2
176
1
  1
strokes_ogs.tif
176
1
290
0
176
1
 40
1.0
176
1
 40
1.0
176
1
  0
VISUALSTYLE
  5
6D
102
{ACAD_REACTORS
330
16
102
}
330
16
100
AcDbVisualStyle
  2
Shaded with edges
 70
26
177
3
291
0
 70
58
 90
2
176
1
 90
2
176
1
 90
0
176
1
 90
2
176
1
 40
0.6
176
1
 40
30.0
176
1
 62
7
420
16777215
176
1
 90
1
176
1
 90
4
176
1
 62
7
176
1
 62
257
176
1
 90
1
176
1
 90
1
176
1
 40
1.0
176
1
 90
8
176
1
 62
7
176
1
 40
1.0
176
1
 90
1
176
1
 90
6
176
1
 90
2
176
1
 62
7
176
1
 90
5
176
1
 90
0
176
1
 90
0
176
1
290
0
176
1
 90
1
176
1
 40
0.0
176
1
 90
0
176
1
290
0
176
1
290
1
176
1
290
1
176
1
290
0
176
1
290
0
176
1
290
0
176
1
290
0
176
1
290
0
176
1
290
0
176
1
 90
50
176
1
 40
0.0
176
1
 40
1.0
176
1
 90
0
176
1
 62
18
420
0
176
1
 90
50
176
1
 90
3
176
1
 62
5
420
255
176
1
290
0
176
1
 90
50
176
1
 90
50
176
1
 90
50
176
1
290
0
176
1
 90
50
176
1
 62
256
176
0
 40
1.0
176
0
 90
2
176
1
  1
strokes_ogs.tif
176
1
290
0
176
1
 40
1.0
176
1
 40
1.0
176
1
  0
VISUALSTYLE
  5
6E
102
{ACAD_REACTORS
330
16
102
}
330
16
100
AcDbVisualStyle
  2
Shades of Gray
 70
23
177
3
291
0
 70
58
 90
2
176
1
 90
2
176
1
 90
0
176
1
 90
2
176
1
 40
0.6
176
1
 40
30.0
176
1
 62
7
420
16777215
176
1
 90
1
176
1
 90
4
176
1
 62
7
176
1
 62
257
176
1
 90
1
176
1
 90
1
176
1
 40
1.0
176
1
 90
8
176
1
 62
7
176
1
 40
1.0
176
1
 90
1
176
1
 90
6
176
1
 90
2
176
1
 62
7
176
1
 90
5
176
1
 90
0
176
1
 90
0
176
1
290
0
176
1
 90
1
176
1
 40
0.0
176
1
 90
0
176
1
290
0
176
1
290
1
176
1
290
1
176
1
290
0
176
1
290
0
176
1
290
0
176
1
290
0
176
1
290
0
176
1
290
0
176
1
 90
50
176
1
 40
0.0
176
1
 40
1.0
176
1
 90
0
176
1
 62
18
420
0
176
1
 90
50
176
1
 90
3
176
1
 62
5
420
255
176
1
290
0
176
1
 90
50
176
1
 90
50
176
1
 90
50
176
1
290
0
176
1
 90
50
176
1
 62
256
176
0
 40
1.0
176
0
 90
2
176
1
  1
strokes_ogs.tif
176
1
290
0
176
1
 40
1.0
176
1
 40
1.0
176
1
  0
VISUALSTYLE
  5
6F
102
{ACAD_REACTORS
330
16
102
}
330
16
100
AcDbVisualStyle
  2
Sketchy
 70
24
177
3
291
0
 70
58
 90
2
176
1
 90
2
176
1
 90
0
176
1
 90
1
176
1
 40
0.6
176
1
 40
30.0
176
1
 62
7
420
16777215
176
1
 90
1
176
1
 90
4
176
1
 62
7
176
1
 62
257
176
1
 90
1
176
1
 90
1
176
1
 40
1.0
176
1
 90
8
176
1
 62
7
176
1
 40
1.0
176
1
 90
1
176
1
 90
6
176
1
 90
2
176
1
 62
7
176
1
 90
5
176
1
 90
0
176
1
 90
0
176
1
290
0
176
1
 90
1
176
1
 40
0.0
176
1
 90
0
176
1
290
0
176
1
290
1
176
1
290
1
176
1
290
0
176
1
290
0
176
1
290
0
176
1
290
0
176
1
290
0
176
1
290
0
176
1
 90
50
176
1
 40
0.0
176
1
 40
1.0
176
1
 90
0
176
1
 62
18
420
0
176
1
 90
50
176
1
 90
3
176
1
 62
5
420
255
176
1
290
0
176
1
 90
50
176
1
 90
50
176
1
 90
50
176
1
290
0
176
1
 90
50
176
1
 62
256
176
0
 40
1.0
176
0
 90
2
176
1
  1
strokes_ogs.tif
176
1
290
0
176
1
 40
1.0
176
1
 40
1.0
176
1
  0
VISUALSTYLE
  5
70
102
{ACAD_REACTORS
330
16
102
}
330
16
100
AcDbVisualStyle
  2
Thicken
 70
13
177
3
291
1
 70
58
 90
2
176
1
 90
2
176
1
 90
0
176
1
 90
2
176
1
 40
0.6
176
1
 40
30.0
176
1
 62
7
420
16777215
176
1
 90
1
176
1
 90
4
176
1
 62
7
176
1
 62
257
176
1
 90
1
176
1
 90
1
176
1
 40
1.0
176
1
 90
8
176
1
 62
7
176
1
 40
1.0
176
1
 90
1
176
1
 90
6
176
1
 90
2
176
1
 62
7
176
1
 90
5
176
1
 90
0
176
1
 90
0
176
1
290
0
176
1
 90
1
176
1
 40
0.0
176
1
 90
0
176
1
290
0
176
1
290
1
176
1
290
1
176
1
290
0
176
1
290
0
176
1
290
0
176
1
290
0
176
1
290
0
176
1
290
0
176
1
 90
50
176
1
 40
0.0
176
1
 40
1.0
176
1
 90
0
176
1
 62
18
420
0
176
1
 90
50
176
1
 90
3
176
1
 62
5
420
255
176
1
290
0
176
1
 90
50
176
1
 90
50
176
1
 90
50
176
1
290
0
176
1
 90
50
176
1
 62
256
176
0
 40
1.0
176
0
 90
2
176
1
  1
strokes_ogs.tif
176
1
290
0
176
1
 40
1.0
176
1
 40
1.0
176
1
  0
VISUALSTYLE
  5
71
102
{ACAD_REACTORS
330
16
102
}
330
16
100
AcDbVisualStyle
  2
Wireframe
 70
5
177
3
291
0
 70
58
 90
2
176
1
 90
2
176
1
 90
0
176
1
 90
0
176
1
 40
0.6
176
1
 40
30.0
176
1
 62
7
420
16777215
176
1
 90
1
176
1
 90
4
176
1
 62
7
176
1
 62
257
176
1
 90
1
176
1
 90
1
176
1
 40
1.0
176
1
 90
8
176
1
 62
7
176
1
 40
1.0
176
1
 90
1
176
1
 90
6
176
1
 90
2
176
1
 62
7
176
1
 90
5
176
1
 90
0
176
1
 90
0
176
1
290
0
176
1
 90
1
176
1
 40
0.0
176
1
 90
0
176
1
290
0
176
1
290
1
176
1
290
1
176
1
290
0
176
1
290
0
176
1
290
0
176
1
290
0
176
1
290
0
176
1
290
0
176
1
 90
50
176
1
 40
0.0
176
1
 40
1.0
176
1
 90
0
176
1
 62
18
420
0
176
1
 90
50
176
1
 90
3
176
1
 62
5
420
255
176
1
290
0
176
1
 90
50
176
1
 90
50
176
1
 90
50
176
1
290
0
176
1
 90
50
176
1
 62
256
176
0
 40
1.0
176
0
 90
2
176
1
  1
strokes_ogs.tif
176
1
290
0
176
1
 40
1.0
176
1
 40
1.0
176
1
  0
VISUALSTYLE
  5
72
102
{ACAD_REACTORS
330
16
102
}
330
16
100
AcDbVisualStyle
  2
X-Ray
 70
25
177
3
291
0
 70
58
 90
2
176
1
 90
2
176
1
 90
0
176
1
 90
2
176
1
 40
0.5
176
1
 40
30.0
176
1
 62
7
420
16777215
176
1
 90
1
176
1
 90
4
176
1
 62
7
176
1
 62
257
176
1
 90
1
176
1
 90
1
176
1
 40
1.0
176
1
 90
8
176
1
 62
7
176
1
 40
1.0
176
1
 90
1
176
1
 90
6
176
1
 90
2
176
1
 62
7
176
1
 90
5
176
1
 90
0
176
1
 90
0
176
1
290
0
176
1
 90
1
176
1
 40
0.0
176
1
 90
0
176
1
290
0
176
1
290
1
176
1
290
1
176
1
290
0
176
1
290
0
176
1
290
0
176
1
290
0
176
1
290
0
176
1
290
0
176
1
 90
50
176
1
 40
0.0
176
1
 40
1.0
176
1
 90
0
176
1
 62
18
420
0
176
1
 90
50
176
1
 90
3
176
1
 62
5
420
255
176
1
290
0
176
1
 90
50
176
1
 90
50
176
1
 90
50
176
1
290
0
176
1
 90
50
176
1
 62
256
176
0
 40
1.0
176
0
 90
2
176
1
  1
strokes_ogs.tif
176
1
290
0
176
1
 40
1.0
176
1
 40
1.0
176
1
  0
DICTIONARYVAR
  5
8E
330
2D
100
DictionaryVariables
280
0
  1
1.4.2 @ 2025-06-04T15:39:14.622378+00:00
  0
ENDSEC
  0
EOF
