  0
SECTION
  2
HEADER
  9
$ACADVER
  1
AC1027
  9
$ACADMAINTVER
 70
105
  9
$DWGCODEPAGE
  3
ANSI_1252
  9
$LASTSAVEDBY
  1
ezdxf
  9
$REQUIREDVERSIONS
160
0
  9
$INSBASE
 10
0.0
 20
0.0
 30
0.0
  9
$EXTMIN
 10
1e+20
 20
1e+20
 30
1e+20
  9
$EXTMAX
 10
-1e+20
 20
-1e+20
 30
-1e+20
  9
$LIMMIN
 10
0.0
 20
0.0
  9
$LIMMAX
 10
420.0
 20
297.0
  9
$ORTHOMODE
 70
0
  9
$REGENMODE
 70
1
  9
$FILLMODE
 70
1
  9
$QTEXTMODE
 70
0
  9
$MIRRTEXT
 70
1
  9
$LTSCALE
 40
1.0
  9
$ATTMODE
 70
1
  9
$TEXTSIZE
 40
2.5
  9
$TRACEWID
 40
1.0
  9
$TEXTSTYLE
  7
OpenSans
  9
$CLAYER
  8
0
  9
$CELTYPE
  6
ByLayer
  9
$CECOLOR
 62
256
  9
$CELTSCALE
 40
1.0
  9
$DISPSILH
 70
0
  9
$DIMSCALE
 40
1.0
  9
$DIMASZ
 40
0.175
  9
$DIMEXO
 40
0.125
  9
$DIMDLI
 40
3.75
  9
$DIMRND
 40
0.0
  9
$DIMDLE
 40
0.0
  9
$DIMEXE
 40
0.375
  9
$DIMTP
 40
0.0
  9
$DIMTM
 40
0.0
  9
$DIMTXT
 40
0.25
  9
$DIMCEN
 40
2.5
  9
$DIMTSZ
 40
0.0
  9
$DIMTOL
 70
0
  9
$DIMLIM
 70
0
  9
$DIMTIH
 70
0
  9
$DIMTOH
 70
0
  9
$DIMSE1
 70
0
  9
$DIMSE2
 70
0
  9
$DIMTAD
 70
1
  9
$DIMZIN
 70
12
  9
$DIMBLK
  1
ARCHTICK
  9
$DIMASO
 70
1
  9
$DIMSHO
 70
1
  9
$DIMPOST
  1

  9
$DIMAPOST
  1

  9
$DIMALT
 70
0
  9
$DIMALTD
 70
3
  9
$DIMALTF
 40
0.03937007874
  9
$DIMLFAC
 40
100.0
  9
$DIMTOFL
 70
1
  9
$DIMTVP
 40
0.0
  9
$DIMTIX
 70
0
  9
$DIMSOXD
 70
0
  9
$DIMSAH
 70
0
  9
$DIMBLK1
  1

  9
$DIMBLK2
  1

  9
$DIMSTYLE
  2
EZDXF
  9
$DIMCLRD
 70
0
  9
$DIMCLRE
 70
0
  9
$DIMCLRT
 70
0
  9
$DIMTFAC
 40
0.5
  9
$DIMGAP
 40
0.1
  9
$DIMJUST
 70
0
  9
$DIMSD1
 70
0
  9
$DIMSD2
 70
0
  9
$DIMTOLJ
 70
0
  9
$DIMTZIN
 70
8
  9
$DIMALTZ
 70
0
  9
$DIMALTTZ
 70
0
  9
$DIMUPT
 70
1
  9
$DIMDEC
 70
2
  9
$DIMTDEC
 70
2
  9
$DIMALTU
 70
2
  9
$DIMALTTD
 70
3
  9
$DIMTXSTY
  7
OpenSansCondensed-Light
  9
$DIMAUNIT
 70
0
  9
$DIMADEC
 70
2
  9
$DIMALTRND
 40
0.0
  9
$DIMAZIN
 70
3
  9
$DIMDSEP
 70
46
  9
$DIMATFIT
 70
3
  9
$DIMFRAC
 70
0
  9
$DIMLDRBLK
  1

  9
$DIMLUNIT
 70
2
  9
$DIMLWD
 70
-2
  9
$DIMLWE
 70
-2
  9
$DIMTMOVE
 70
2
  9
$DIMFXL
 40
1.0
  9
$DIMFXLON
 70
0
  9
$DIMJOGANG
 40
0.785398163397
  9
$DIMTFILL
 70
0
  9
$DIMTFILLCLR
 70
0
  9
$DIMARCSYM
 70
0
  9
$DIMLTYPE
  6

  9
$DIMLTEX1
  6

  9
$DIMLTEX2
  6

  9
$DIMTXTDIRECTION
 70
0
  9
$LUNITS
 70
2
  9
$LUPREC
 70
4
  9
$SKETCHINC
 40
1.0
  9
$FILLETRAD
 40
10.0
  9
$AUNITS
 70
0
  9
$AUPREC
 70
2
  9
$MENU
  1
.
  9
$ELEVATION
 40
0.0
  9
$PELEVATION
 40
0.0
  9
$THICKNESS
 40
0.0
  9
$LIMCHECK
 70
0
  9
$CHAMFERA
 40
0.0
  9
$CHAMFERB
 40
0.0
  9
$CHAMFERC
 40
0.0
  9
$CHAMFERD
 40
0.0
  9
$SKPOLY
 70
0
  9
$TDCREATE
 40
2460831.736238426
  9
$TDUCREATE
 40
2458532.153996898
  9
$TDUPDATE
 40
2460831.736238426
  9
$TDUUPDATE
 40
2458532.1544311
  9
$TDINDWG
 40
0.0
  9
$TDUSRTIMER
 40
0.0
  9
$USRTIMER
 70
1
  9
$ANGBASE
 50
0.0
  9
$ANGDIR
 70
0
  9
$PDMODE
 70
0
  9
$PDSIZE
 40
0.0
  9
$PLINEWID
 40
0.0
  9
$SPLFRAME
 70
0
  9
$SPLINETYPE
 70
6
  9
$SPLINESEGS
 70
8
  9
$HANDSEED
  5
8F
  9
$SURFTAB1
 70
6
  9
$SURFTAB2
 70
6
  9
$SURFTYPE
 70
6
  9
$SURFU
 70
6
  9
$SURFV
 70
6
  9
$UCSBASE
  2

  9
$UCSNAME
  2

  9
$UCSORG
 10
0.0
 20
0.0
 30
0.0
  9
$UCSXDIR
 10
1.0
 20
0.0
 30
0.0
  9
$UCSYDIR
 10
0.0
 20
1.0
 30
0.0
  9
$UCSORTHOREF
  2

  9
$UCSORTHOVIEW
 70
0
  9
$UCSORGTOP
 10
0.0
 20
0.0
 30
0.0
  9
$UCSORGBOTTOM
 10
0.0
 20
0.0
 30
0.0
  9
$UCSORGLEFT
 10
0.0
 20
0.0
 30
0.0
  9
$UCSORGRIGHT
 10
0.0
 20
0.0
 30
0.0
  9
$UCSORGFRONT
 10
0.0
 20
0.0
 30
0.0
  9
$UCSORGBACK
 10
0.0
 20
0.0
 30
0.0
  9
$PUCSBASE
  2

  9
$PUCSNAME
  2

  9
$PUCSORG
 10
0.0
 20
0.0
 30
0.0
  9
$PUCSXDIR
 10
1.0
 20
0.0
 30
0.0
  9
$PUCSYDIR
 10
0.0
 20
1.0
 30
0.0
  9
$PUCSORTHOREF
  2

  9
$PUCSORTHOVIEW
 70
0
  9
$PUCSORGTOP
 10
0.0
 20
0.0
 30
0.0
  9
$PUCSORGBOTTOM
 10
0.0
 20
0.0
 30
0.0
  9
$PUCSORGLEFT
 10
0.0
 20
0.0
 30
0.0
  9
$PUCSORGRIGHT
 10
0.0
 20
0.0
 30
0.0
  9
$PUCSORGFRONT
 10
0.0
 20
0.0
 30
0.0
  9
$PUCSORGBACK
 10
0.0
 20
0.0
 30
0.0
  9
$USERI1
 70
0
  9
$USERI2
 70
0
  9
$USERI3
 70
0
  9
$USERI4
 70
0
  9
$USERI5
 70
0
  9
$USERR1
 40
0.0
  9
$USERR2
 40
0.0
  9
$USERR3
 40
0.0
  9
$USERR4
 40
0.0
  9
$USERR5
 40
0.0
  9
$WORLDVIEW
 70
1
  9
$SHADEDGE
 70
3
  9
$SHADEDIF
 70
70
  9
$TILEMODE
 70
1
  9
$MAXACTVP
 70
64
  9
$PINSBASE
 10
0.0
 20
0.0
 30
0.0
  9
$PLIMCHECK
 70
0
  9
$PEXTMIN
 10
1e+20
 20
1e+20
 30
1e+20
  9
$PEXTMAX
 10
-1e+20
 20
-1e+20
 30
-1e+20
  9
$PLIMMIN
 10
0.0
 20
0.0
  9
$PLIMMAX
 10
420.0
 20
297.0
  9
$UNITMODE
 70
0
  9
$VISRETAIN
 70
1
  9
$PLINEGEN
 70
0
  9
$PSLTSCALE
 70
1
  9
$TREEDEPTH
 70
3020
  9
$CMLSTYLE
  2
Standard
  9
$CMLJUST
 70
0
  9
$CMLSCALE
 40
20.0
  9
$PROXYGRAPHICS
 70
1
  9
$MEASUREMENT
 70
1
  9
$CELWEIGHT
370
-1
  9
$ENDCAPS
280
0
  9
$JOINSTYLE
280
0
  9
$LWDISPLAY
290
0
  9
$INSUNITS
 70
6
  9
$HYPERLINKBASE
  1

  9
$STYLESHEET
  1

  9
$XEDIT
290
1
  9
$CEPSNTYPE
380
0
  9
$PSTYLEMODE
290
1
  9
$FINGERPRINTGUID
  2
{4B630732-2987-42D8-BC53-EE00559F932F}
  9
$VERSIONGUID
  2
{5B8AC83A-EA41-40B4-B71F-E307AEC77811}
  9
$EXTNAMES
290
1
  9
$PSVPSCALE
 40
0.0
  9
$OLESTARTUP
290
0
  9
$SORTENTS
280
127
  9
$INDEXCTL
280
0
  9
$HIDETEXT
280
1
  9
$XCLIPFRAME
280
1
  9
$HALOGAP
280
0
  9
$OBSCOLOR
 70
257
  9
$OBSLTYPE
280
0
  9
$INTERSECTIONDISPLAY
280
0
  9
$INTERSECTIONCOLOR
 70
257
  9
$DIMASSOC
280
2
  9
$PROJECTNAME
  1

  9
$CAMERADISPLAY
290
0
  9
$LENSLENGTH
 40
50.0
  9
$CAMERAHEIGHT
 40
0.0
  9
$STEPSPERSEC
 40
24.0
  9
$STEPSIZE
 40
100.0
  9
$3DDWFPREC
 40
2.0
  9
$PSOLWIDTH
 40
0.005
  9
$PSOLHEIGHT
 40
0.08
  9
$LOFTANG1
 40
1.570796326795
  9
$LOFTANG2
 40
1.570796326795
  9
$LOFTMAG1
 40
0.0
  9
$LOFTMAG2
 40
0.0
  9
$LOFTPARAM
 70
7
  9
$LOFTNORMALS
280
1
  9
$LATITUDE
 40
37.795
  9
$LONGITUDE
 40
-122.394
  9
$NORTHDIRECTION
 40
0.0
  9
$TIMEZONE
 70
-8000
  9
$LIGHTGLYPHDISPLAY
280
1
  9
$TILEMODELIGHTSYNCH
280
1
  9
$CMATERIAL
347
20
  9
$SOLIDHIST
280
0
  9
$SHOWHIST
280
1
  9
$DWFFRAME
280
2
  9
$DGNFRAME
280
2
  9
$REALWORLDSCALE
290
1
  9
$INTERFERECOLOR
 62
256
  9
$CSHADOW
280
0
  9
$SHADOWPLANELOCATION
 40
0.0
  0
ENDSEC
  0
SECTION
  2
CLASSES
  0
CLASS
  1
ACDBDICTIONARYWDFLT
  2
AcDbDictionaryWithDefault
  3
ObjectDBX Classes
 90
0
 91
0
280
0
281
0
  0
CLASS
  1
SUN
  2
AcDbSun
  3
SCENEOE
 90
1153
 91
0
280
0
281
0
  0
CLASS
  1
VISUALSTYLE
  2
AcDbVisualStyle
  3
ObjectDBX Classes
 90
4095
 91
0
280
0
281
0
  0
CLASS
  1
MATERIAL
  2
AcDbMaterial
  3
ObjectDBX Classes
 90
1153
 91
0
280
0
281
0
  0
CLASS
  1
SCALE
  2
AcDbScale
  3
ObjectDBX Classes
 90
1153
 91
0
280
0
281
0
  0
CLASS
  1
TABLESTYLE
  2
AcDbTableStyle
  3
ObjectDBX Classes
 90
4095
 91
0
280
0
281
0
  0
CLASS
  1
MLEADERSTYLE
  2
AcDbMLeaderStyle
  3
ACDB_MLEADERSTYLE_CLASS
 90
4095
 91
0
280
0
281
0
  0
CLASS
  1
DICTIONARYVAR
  2
AcDbDictionaryVar
  3
ObjectDBX Classes
 90
0
 91
0
280
0
281
0
  0
CLASS
  1
CELLSTYLEMAP
  2
AcDbCellStyleMap
  3
ObjectDBX Classes
 90
1152
 91
0
280
0
281
0
  0
CLASS
  1
MENTALRAYRENDERSETTINGS
  2
AcDbMentalRayRenderSettings
  3
SCENEOE
 90
1024
 91
0
280
0
281
0
  0
CLASS
  1
ACDBDETAILVIEWSTYLE
  2
AcDbDetailViewStyle
  3
ObjectDBX Classes
 90
1025
 91
0
280
0
281
0
  0
CLASS
  1
ACDBSECTIONVIEWSTYLE
  2
AcDbSectionViewStyle
  3
ObjectDBX Classes
 90
1025
 91
0
280
0
281
0
  0
CLASS
  1
RASTERVARIABLES
  2
AcDbRasterVariables
  3
ISM
 90
0
 91
0
280
0
281
0
  0
CLASS
  1
LAYOUT
  2
AcDbLayout
  3
ObjectDBX Classes
 90
0
 91
0
280
0
281
0
  0
CLASS
  1
ACDBPLACEHOLDER
  2
AcDbPlaceHolder
  3
ObjectDBX Classes
 90
0
 91
0
280
0
281
0
  0
ENDSEC
  0
SECTION
  2
TABLES
  0
TABLE
  2
VPORT
  5
8
330
0
100
AcDbSymbolTable
 70
1
  0
VPORT
  5
23
330
8
100
AcDbSymbolTableRecord
100
AcDbViewportTableRecord
  2
*Active
 70
0
 10
0.0
 20
0.0
 11
1.0
 21
1.0
 12
0.0
 22
0.0
 13
0.0
 23
0.0
 14
0.5
 24
0.5
 15
0.5
 25
0.5
 16
0.0
 26
0.0
 36
1.0
 17
0.0
 27
0.0
 37
0.0
 40
1000.0
 41
1.34
 42
50.0
 43
0.0
 44
0.0
 50
0.0
 51
0.0
 71
0
 72
1000
 73
1
 74
3
 75
0
 76
0
 77
0
 78
0
281
0
 65
0
146
0.0
  0
ENDTAB
  0
TABLE
  2
LTYPE
  5
2
330
0
100
AcDbSymbolTable
 70
21
  0
LTYPE
  5
24
330
2
100
AcDbSymbolTableRecord
100
AcDbLinetypeTableRecord
  2
ByBlock
 70
0
  3

 72
65
 73
0
 40
0.0
  0
LTYPE
  5
25
330
2
100
AcDbSymbolTableRecord
100
AcDbLinetypeTableRecord
  2
ByLayer
 70
0
  3

 72
65
 73
0
 40
0.0
  0
LTYPE
  5
26
330
2
100
AcDbSymbolTableRecord
100
AcDbLinetypeTableRecord
  2
Continuous
 70
0
  3

 72
65
 73
0
 40
0.0
  0
LTYPE
  5
2F
330
2
100
AcDbSymbolTableRecord
100
AcDbLinetypeTableRecord
  2
CENTER
 70
0
  3
Center ____ _ ____ _ ____ _ ____ _ ____ _ ____
 72
65
 73
4
 40
5.08
 49
3.175
 74
0
 49
-0.635
 74
0
 49
0.635
 74
0
 49
-0.635
 74
0
  0
LTYPE
  5
30
330
2
100
AcDbSymbolTableRecord
100
AcDbLinetypeTableRecord
  2
CENTERX2
 70
0
  3
Center (2x) ________  __  ________  __  ________
 72
65
 73
4
 40
8.89
 49
6.35
 74
0
 49
-0.635
 74
0
 49
1.27
 74
0
 49
-0.635
 74
0
  0
LTYPE
  5
31
330
2
100
AcDbSymbolTableRecord
100
AcDbLinetypeTableRecord
  2
CENTER2
 70
0
  3
Center (.5x) ____ _ ____ _ ____ _ ____ _ ____
 72
65
 73
4
 40
2.54
 49
1.587
 74
0
 49
-0.318
 74
0
 49
0.318
 74
0
 49
-0.318
 74
0
  0
LTYPE
  5
32
330
2
100
AcDbSymbolTableRecord
100
AcDbLinetypeTableRecord
  2
DASHED
 70
0
  3
Dashed __ __ __ __ __ __ __ __ __ __ __ __ __ _
 72
65
 73
2
 40
1.524
 49
1.27
 74
0
 49
-0.254
 74
0
  0
LTYPE
  5
33
330
2
100
AcDbSymbolTableRecord
100
AcDbLinetypeTableRecord
  2
DASHEDX2
 70
0
  3
Dashed (2x) ____  ____  ____  ____  ____  ____
 72
65
 73
2
 40
3.048
 49
2.54
 74
0
 49
-0.508
 74
0
  0
LTYPE
  5
34
330
2
100
AcDbSymbolTableRecord
100
AcDbLinetypeTableRecord
  2
DASHED2
 70
0
  3
Dashed (.5x) _ _ _ _ _ _ _ _ _ _ _ _ _ _
 72
65
 73
2
 40
0.762
 49
0.635
 74
0
 49
-0.127
 74
0
  0
LTYPE
  5
35
330
2
100
AcDbSymbolTableRecord
100
AcDbLinetypeTableRecord
  2
PHANTOM
 70
0
  3
Phantom ______  __  __  ______  __  __  ______
 72
65
 73
6
 40
6.35
 49
3.175
 74
0
 49
-0.635
 74
0
 49
0.635
 74
0
 49
-0.635
 74
0
 49
0.635
 74
0
 49
-0.635
 74
0
  0
LTYPE
  5
36
330
2
100
AcDbSymbolTableRecord
100
AcDbLinetypeTableRecord
  2
PHANTOMX2
 70
0
  3
Phantom (2x)____________    ____    ____    ____________
 72
65
 73
6
 40
10.795
 49
6.35
 74
0
 49
-0.635
 74
0
 49
1.27
 74
0
 49
-0.635
 74
0
 49
1.27
 74
0
 49
-0.635
 74
0
  0
LTYPE
  5
37
330
2
100
AcDbSymbolTableRecord
100
AcDbLinetypeTableRecord
  2
PHANTOM2
 70
0
  3
Phantom (.5x) ___ _ _ ___ _ _ ___ _ _ ___ _ _ ___
 72
65
 73
6
 40
3.175
 49
1.587
 74
0
 49
-0.318
 74
0
 49
0.318
 74
0
 49
-0.318
 74
0
 49
0.318
 74
0
 49
-0.318
 74
0
  0
LTYPE
  5
38
330
2
100
AcDbSymbolTableRecord
100
AcDbLinetypeTableRecord
  2
DASHDOT
 70
0
  3
Dash dot __ . __ . __ . __ . __ . __ . __ . __
 72
65
 73
4
 40
3.556
 49
2.54
 74
0
 49
-0.508
 74
0
 49
0.0
 74
0
 49
-0.508
 74
0
  0
LTYPE
  5
39
330
2
100
AcDbSymbolTableRecord
100
AcDbLinetypeTableRecord
  2
DASHDOTX2
 70
0
  3
Dash dot (2x) ____  .  ____  .  ____  .  ____
 72
65
 73
4
 40
6.096
 49
5.08
 74
0
 49
-0.508
 74
0
 49
0.0
 74
0
 49
-0.508
 74
0
  0
LTYPE
  5
3A
330
2
100
AcDbSymbolTableRecord
100
AcDbLinetypeTableRecord
  2
DASHDOT2
 70
0
  3
Dash dot (.5x) _ . _ . _ . _ . _ . _ . _ . _
 72
65
 73
4
 40
1.778
 49
1.27
 74
0
 49
-0.254
 74
0
 49
0.0
 74
0
 49
-0.254
 74
0
  0
LTYPE
  5
3B
330
2
100
AcDbSymbolTableRecord
100
AcDbLinetypeTableRecord
  2
DOT
 70
0
  3
Dot .  .  .  .  .  .  .  .  .  .  .  .  .  .  .  .
 72
65
 73
2
 40
0.508
 49
0.0
 74
0
 49
-0.508
 74
0
  0
LTYPE
  5
3C
330
2
100
AcDbSymbolTableRecord
100
AcDbLinetypeTableRecord
  2
DOTX2
 70
0
  3
Dot (2x) .    .    .    .    .    .    .    . 
 72
65
 73
2
 40
1.016
 49
0.0
 74
0
 49
-1.016
 74
0
  0
LTYPE
  5
3D
330
2
100
AcDbSymbolTableRecord
100
AcDbLinetypeTableRecord
  2
DOT2
 70
0
  3
Dot (.5) . . . . . . . . . . . . . . . . . . . 
 72
65
 73
2
 40
0.254
 49
0.0
 74
0
 49
-0.254
 74
0
  0
LTYPE
  5
3E
330
2
100
AcDbSymbolTableRecord
100
AcDbLinetypeTableRecord
  2
DIVIDE
 70
0
  3
Divide __ . . __ . . __ . . __ . . __ . . __
 72
65
 73
6
 40
4.064
 49
2.54
 74
0
 49
-0.508
 74
0
 49
0.0
 74
0
 49
-0.508
 74
0
 49
0.0
 74
0
 49
-0.508
 74
0
  0
LTYPE
  5
3F
330
2
100
AcDbSymbolTableRecord
100
AcDbLinetypeTableRecord
  2
DIVIDEX2
 70
0
  3
Divide (2x) ____  . .  ____  . .  ____  . .  ____
 72
65
 73
6
 40
6.604
 49
5.08
 74
0
 49
-0.508
 74
0
 49
0.0
 74
0
 49
-0.508
 74
0
 49
0.0
 74
0
 49
-0.508
 74
0
  0
LTYPE
  5
40
330
2
100
AcDbSymbolTableRecord
100
AcDbLinetypeTableRecord
  2
DIVIDE2
 70
0
  3
Divide(.5x) _ . _ . _ . _ . _ . _ . _ . _
 72
65
 73
6
 40
2.032
 49
1.27
 74
0
 49
-0.254
 74
0
 49
0.0
 74
0
 49
-0.254
 74
0
 49
0.0
 74
0
 49
-0.254
 74
0
  0
ENDTAB
  0
TABLE
  2
LAYER
  5
1
330
0
100
AcDbSymbolTable
 70
2
  0
LAYER
  5
27
330
1
100
AcDbSymbolTableRecord
100
AcDbLayerTableRecord
  2
0
 70
0
 62
7
  6
Continuous
370
-3
390
13
347
21
  0
LAYER
  5
28
330
1
100
AcDbSymbolTableRecord
100
AcDbLayerTableRecord
  2
Defpoints
 70
0
 62
7
  6
Continuous
290
0
370
-3
390
13
347
21
  0
ENDTAB
  0
TABLE
  2
STYLE
  5
5
330
0
100
AcDbSymbolTable
 70
26
  0
STYLE
  5
29
330
5
100
AcDbSymbolTableRecord
100
AcDbTextStyleTableRecord
  2
Standard
 70
0
 40
0.0
 41
1.0
 50
0.0
 71
0
 42
2.5
  3
txt
  4

  0
STYLE
  5
41
330
5
100
AcDbSymbolTableRecord
100
AcDbTextStyleTableRecord
  2
OpenSans-Light
 70
0
 40
0.0
 41
1.0
 50
0.0
 71
0
 42
2.5
  3
OpenSans-Light.ttf
  4

  0
STYLE
  5
42
330
5
100
AcDbSymbolTableRecord
100
AcDbTextStyleTableRecord
  2
OpenSans-Light-Italic
 70
0
 40
0.0
 41
1.0
 50
0.0
 71
0
 42
2.5
  3
OpenSans-LightItalic.ttf
  4

  0
STYLE
  5
43
330
5
100
AcDbSymbolTableRecord
100
AcDbTextStyleTableRecord
  2
OpenSans
 70
0
 40
0.0
 41
1.0
 50
0.0
 71
0
 42
2.5
  3
OpenSans-Regular.ttf
  4

  0
STYLE
  5
44
330
5
100
AcDbSymbolTableRecord
100
AcDbTextStyleTableRecord
  2
OpenSans-Italic
 70
0
 40
0.0
 41
1.0
 50
0.0
 71
0
 42
2.5
  3
OpenSans-Italic.ttf
  4

  0
STYLE
  5
45
330
5
100
AcDbSymbolTableRecord
100
AcDbTextStyleTableRecord
  2
OpenSans-SemiBold
 70
0
 40
0.0
 41
1.0
 50
0.0
 71
0
 42
2.5
  3
OpenSans-SemiBold.ttf
  4

  0
STYLE
  5
46
330
5
100
AcDbSymbolTableRecord
100
AcDbTextStyleTableRecord
  2
OpenSans-SemiBoldItalic
 70
0
 40
0.0
 41
1.0
 50
0.0
 71
0
 42
2.5
  3
OpenSans-SemiBoldItalic.ttf
  4

  0
STYLE
  5
47
330
5
100
AcDbSymbolTableRecord
100
AcDbTextStyleTableRecord
  2
OpenSans-Bold
 70
0
 40
0.0
 41
1.0
 50
0.0
 71
0
 42
2.5
  3
OpenSans-Bold.ttf
  4

  0
STYLE
  5
48
330
5
100
AcDbSymbolTableRecord
100
AcDbTextStyleTableRecord
  2
OpenSans-BoldItalic
 70
0
 40
0.0
 41
1.0
 50
0.0
 71
0
 42
2.5
  3
OpenSans-BoldItalic.ttf
  4

  0
STYLE
  5
49
330
5
100
AcDbSymbolTableRecord
100
AcDbTextStyleTableRecord
  2
OpenSans-ExtraBold
 70
0
 40
0.0
 41
1.0
 50
0.0
 71
0
 42
2.5
  3
OpenSans-ExtraBold.ttf
  4

  0
STYLE
  5
4A
330
5
100
AcDbSymbolTableRecord
100
AcDbTextStyleTableRecord
  2
OpenSans-ExtraBoldItalic
 70
0
 40
0.0
 41
1.0
 50
0.0
 71
0
 42
2.5
  3
OpenSans-ExtraBoldItalic.ttf
  4

  0
STYLE
  5
4B
330
5
100
AcDbSymbolTableRecord
100
AcDbTextStyleTableRecord
  2
OpenSansCondensed-Bold
 70
0
 40
0.0
 41
1.0
 50
0.0
 71
0
 42
2.5
  3
OpenSansCondensed-Bold.ttf
  4

  0
STYLE
  5
4C
330
5
100
AcDbSymbolTableRecord
100
AcDbTextStyleTableRecord
  2
OpenSansCondensed-Light
 70
0
 40
0.0
 41
1.0
 50
0.0
 71
0
 42
2.5
  3
OpenSansCondensed-Light.ttf
  4

  0
STYLE
  5
4D
330
5
100
AcDbSymbolTableRecord
100
AcDbTextStyleTableRecord
  2
OpenSansCondensed-Italic
 70
0
 40
0.0
 41
1.0
 50
0.0
 71
0
 42
2.5
  3
OpenSansCondensed-LightItalic.ttf
  4

  0
STYLE
  5
4E
330
5
100
AcDbSymbolTableRecord
100
AcDbTextStyleTableRecord
  2
LiberationSans
 70
0
 40
0.0
 41
1.0
 50
0.0
 71
0
 42
2.5
  3
LiberationSans-Regular.ttf
  4

  0
STYLE
  5
4F
330
5
100
AcDbSymbolTableRecord
100
AcDbTextStyleTableRecord
  2
LiberationSans-Bold
 70
0
 40
0.0
 41
1.0
 50
0.0
 71
0
 42
2.5
  3
LiberationSans-Bold.ttf
  4

  0
STYLE
  5
50
330
5
100
AcDbSymbolTableRecord
100
AcDbTextStyleTableRecord
  2
LiberationSans-BoldItalic
 70
0
 40
0.0
 41
1.0
 50
0.0
 71
0
 42
2.5
  3
LiberationSans-BoldItalic.ttf
  4

  0
STYLE
  5
51
330
5
100
AcDbSymbolTableRecord
100
AcDbTextStyleTableRecord
  2
LiberationSans-Italic
 70
0
 40
0.0
 41
1.0
 50
0.0
 71
0
 42
2.5
  3
LiberationSans-Italic.ttf
  4

  0
STYLE
  5
52
330
5
100
AcDbSymbolTableRecord
100
AcDbTextStyleTableRecord
  2
LiberationSerif
 70
0
 40
0.0
 41
1.0
 50
0.0
 71
0
 42
2.5
  3
LiberationSerif-Regular.ttf
  4

  0
STYLE
  5
53
330
5
100
AcDbSymbolTableRecord
100
AcDbTextStyleTableRecord
  2
LiberationSerif-Bold
 70
0
 40
0.0
 41
1.0
 50
0.0
 71
0
 42
2.5
  3
LiberationSerif-Bold.ttf
  4

  0
STYLE
  5
54
330
5
100
AcDbSymbolTableRecord
100
AcDbTextStyleTableRecord
  2
LiberationSerif-BoldItalic
 70
0
 40
0.0
 41
1.0
 50
0.0
 71
0
 42
2.5
  3
LiberationSerif-BoldItalic.ttf
  4

  0
STYLE
  5
55
330
5
100
AcDbSymbolTableRecord
100
AcDbTextStyleTableRecord
  2
LiberationSerif-Italic
 70
0
 40
0.0
 41
1.0
 50
0.0
 71
0
 42
2.5
  3
LiberationSerif-Italic.ttf
  4

  0
STYLE
  5
56
330
5
100
AcDbSymbolTableRecord
100
AcDbTextStyleTableRecord
  2
LiberationMono
 70
0
 40
0.0
 41
1.0
 50
0.0
 71
0
 42
2.5
  3
LiberationMono-Regular.ttf
  4

  0
STYLE
  5
57
330
5
100
AcDbSymbolTableRecord
100
AcDbTextStyleTableRecord
  2
LiberationMono-Bold
 70
0
 40
0.0
 41
1.0
 50
0.0
 71
0
 42
2.5
  3
LiberationMono-Bold.ttf
  4

  0
STYLE
  5
58
330
5
100
AcDbSymbolTableRecord
100
AcDbTextStyleTableRecord
  2
LiberationMono-BoldItalic
 70
0
 40
0.0
 41
1.0
 50
0.0
 71
0
 42
2.5
  3
LiberationMono-BoldItalic.ttf
  4

  0
STYLE
  5
59
330
5
100
AcDbSymbolTableRecord
100
AcDbTextStyleTableRecord
  2
LiberationMono-Italic
 70
0
 40
0.0
 41
1.0
 50
0.0
 71
0
 42
2.5
  3
LiberationMono-Italic.ttf
  4

  0
ENDTAB
  0
TABLE
  2
VIEW
  5
7
330
0
100
AcDbSymbolTable
 70
0
  0
ENDTAB
  0
TABLE
  2
UCS
  5
6
330
0
100
AcDbSymbolTable
 70
0
  0
ENDTAB
  0
TABLE
  2
APPID
  5
3
330
0
100
AcDbSymbolTable
 70
3
  0
APPID
  5
2A
330
3
100
AcDbSymbolTableRecord
100
AcDbRegAppTableRecord
  2
ACAD
 70
0
  0
APPID
  5
8C
330
3
100
AcDbSymbolTableRecord
100
AcDbRegAppTableRecord
  2
HATCHBACKGROUNDCOLOR
 70
0
  0
APPID
  5
8D
330
3
100
AcDbSymbolTableRecord
100
AcDbRegAppTableRecord
  2
EZDXF
 70
0
  0
ENDTAB
  0
TABLE
  2
DIMSTYLE
  5
4
330
0
100
AcDbSymbolTable
 70
12
100
AcDbDimStyleTable
  0
DIMSTYLE
105
2B
330
4
100
AcDbSymbolTableRecord
100
AcDbDimStyleTableRecord
  2
Standard
 70
0
 40
1.0
 41
2.5
 42
0.625
 43
3.75
 44
1.25
 45
0.0
 46
0.0
 47
0.0
 48
0.0
 49
2.5
140
2.5
141
2.5
142
0.0
143
0.03937007874
144
1.0
145
0.0
146
1.0
147
0.625
148
0.0
 69
0
 70
0
 71
0
 72
0
 73
0
 74
0
 75
0
 76
0
 77
1
 78
8
 79
3
170
0
171
3
172
1
173
0
174
0
175
0
176
0
177
0
178
0
179
2
271
2
272
2
273
2
274
3
275
0
276
0
277
2
278
44
279
0
280
0
281
0
282
0
283
0
284
8
285
0
286
0
288
0
289
3
290
0
371
-2
372
-2
  0
DIMSTYLE
105
73
330
4
100
AcDbSymbolTableRecord
100
AcDbDimStyleTableRecord
  2
EZDXF
 70
0
 40
1.0
 41
0.175
 42
0.125
 43
3.75
 44
0.375
 45
0.0
 46
0.0
 47
0.0
 48
0.0
 49
2.5
140
0.25
141
2.5
142
0.0
143
0.03937007874
144
100.0
145
0.0
146
0.5
147
0.1
148
0.0
 69
0
 70
0
 71
0
 72
0
 73
0
 74
0
 75
0
 76
0
 77
1
 78
12
 79
3
170
0
171
3
172
1
173
0
174
0
175
0
176
0
177
0
178
0
179
2
271
2
272
2
273
2
274
3
275
0
276
0
277
2
278
46
279
2
280
0
281
0
282
0
283
0
284
8
285
0
286
0
288
1
289
3
290
0
340
4C
342
74
371
-2
372
-2
  0
DIMSTYLE
105
7C
330
4
100
AcDbSymbolTableRecord
100
AcDbDimStyleTableRecord
  2
EZ_M_100_H25_CM
 70
0
 40
1.0
 41
0.25
 42
0.125
 43
3.75
 44
0.375
 45
0.0
 46
0.0
 47
0.0
 48
0.0
 49
2.5
140
0.25
141
2.5
142
0.125
143
0.03937007874
144
100.0
145
0.0
146
0.5
147
0.1
148
0.0
 69
0
 70
0
 71
0
 72
0
 73
0
 74
0
 75
0
 76
0
 77
1
 78
12
 79
3
170
0
171
3
172
1
173
0
174
0
175
0
176
0
177
0
178
0
179
2
271
2
272
2
273
2
274
3
275
0
276
0
277
2
278
46
279
2
280
0
281
0
282
0
283
0
284
8
285
0
286
0
288
1
289
3
290
0
340
4C
371
-2
372
-2
  0
DIMSTYLE
105
7D
330
4
100
AcDbSymbolTableRecord
100
AcDbDimStyleTableRecord
  2
EZ_M_50_H25_CM
 70
0
 40
1.0
 41
0.125
 42
0.0625
 43
3.75
 44
0.1875
 45
0.0
 46
0.0
 47
0.0
 48
0.0
 49
2.5
140
0.125
141
2.5
142
0.0625
143
0.03937007874
144
100.0
145
0.0
146
0.5
147
0.05
148
0.0
 69
0
 70
0
 71
0
 72
0
 73
0
 74
0
 75
0
 76
0
 77
1
 78
12
 79
3
170
0
171
3
172
1
173
0
174
0
175
0
176
0
177
0
178
0
179
2
271
2
272
2
273
2
274
3
275
0
276
0
277
2
278
46
279
2
280
0
281
0
282
0
283
0
284
8
285
0
286
0
288
1
289
3
290
0
340
4C
371
-2
372
-2
  0
DIMSTYLE
105
7E
330
4
100
AcDbSymbolTableRecord
100
AcDbDimStyleTableRecord
  2
EZ_M_25_H25_CM
 70
0
 40
1.0
 41
0.0625
 42
0.03125
 43
3.75
 44
0.09375
 45
0.0
 46
0.0
 47
0.0
 48
0.0
 49
2.5
140
0.0625
141
2.5
142
0.03125
143
0.03937007874
144
100.0
145
0.0
146
0.5
147
0.025
148
0.0
 69
0
 70
0
 71
0
 72
0
 73
0
 74
0
 75
0
 76
0
 77
1
 78
12
 79
3
170
0
171
3
172
1
173
0
174
0
175
0
176
0
177
0
178
0
179
2
271
2
272
2
273
2
274
3
275
0
276
0
277
2
278
46
279
2
280
0
281
0
282
0
283
0
284
8
285
0
286
0
288
1
289
3
290
0
340
4C
371
-2
372
-2
  0
DIMSTYLE
105
7F
330
4
100
AcDbSymbolTableRecord
100
AcDbDimStyleTableRecord
  2
EZ_M_20_H25_CM
 70
0
 40
1.0
 41
0.05
 42
0.025
 43
3.75
 44
0.07500000000000001
 45
0.0
 46
0.0
 47
0.0
 48
0.0
 49
2.5
140
0.05
141
2.5
142
0.025
143
0.03937007874
144
100.0
145
0.0
146
0.5
147
0.020000000000000004
148
0.0
 69
0
 70
0
 71
0
 72
0
 73
0
 74
0
 75
0
 76
0
 77
1
 78
12
 79
3
170
0
171
3
172
1
173
0
174
0
175
0
176
0
177
0
178
0
179
2
271
2
272
2
273
2
274
3
275
0
276
0
277
2
278
46
279
2
280
0
281
0
282
0
283
0
284
8
285
0
286
0
288
1
289
3
290
0
340
4C
371
-2
372
-2
  0
DIMSTYLE
105
80
330
4
100
AcDbSymbolTableRecord
100
AcDbDimStyleTableRecord
  2
EZ_M_10_H25_CM
 70
0
 40
1.0
 41
0.025
 42
0.0125
 43
3.75
 44
0.037500000000000006
 45
0.0
 46
0.0
 47
0.0
 48
0.0
 49
2.5
140
0.025
141
2.5
142
0.0125
143
0.03937007874
144
100.0
145
0.0
146
0.5
147
0.010000000000000002
148
0.0
 69
0
 70
0
 71
0
 72
0
 73
0
 74
0
 75
0
 76
0
 77
1
 78
12
 79
3
170
0
171
3
172
1
173
0
174
0
175
0
176
0
177
0
178
0
179
2
271
2
272
2
273
2
274
3
275
0
276
0
277
2
278
46
279
2
280
0
281
0
282
0
283
0
284
8
285
0
286
0
288
1
289
3
290
0
340
4C
371
-2
372
-2
  0
DIMSTYLE
105
81
330
4
100
AcDbSymbolTableRecord
100
AcDbDimStyleTableRecord
  2
EZ_M_5_H25_CM
 70
0
 40
1.0
 41
0.0125
 42
0.00625
 43
3.75
 44
0.018750000000000003
 45
0.0
 46
0.0
 47
0.0
 48
0.0
 49
2.5
140
0.0125
141
2.5
142
0.00625
143
0.03937007874
144
100.0
145
0.0
146
0.5
147
0.005000000000000001
148
0.0
 69
0
 70
0
 71
0
 72
0
 73
0
 74
0
 75
0
 76
0
 77
1
 78
12
 79
3
170
0
171
3
172
1
173
0
174
0
175
0
176
0
177
0
178
0
179
2
271
2
272
2
273
2
274
3
275
0
276
0
277
2
278
46
279
2
280
0
281
0
282
0
283
0
284
8
285
0
286
0
288
1
289
3
290
0
340
4C
371
-2
372
-2
  0
DIMSTYLE
105
82
330
4
100
AcDbSymbolTableRecord
100
AcDbDimStyleTableRecord
  2
EZ_M_1_H25_CM
 70
0
 40
1.0
 41
0.0025
 42
0.00125
 43
3.75
 44
0.00375
 45
0.0
 46
0.0
 47
0.0
 48
0.0
 49
2.5
140
0.0025
141
2.5
142
0.00125
143
0.03937007874
144
100.0
145
0.0
146
0.5
147
0.001
148
0.0
 69
0
 70
0
 71
0
 72
0
 73
0
 74
0
 75
0
 76
0
 77
1
 78
12
 79
3
170
0
171
3
172
1
173
0
174
0
175
0
176
0
177
0
178
0
179
2
271
2
272
2
273
2
274
3
275
0
276
0
277
2
278
46
279
2
280
0
281
0
282
0
283
0
284
8
285
0
286
0
288
1
289
3
290
0
340
4C
371
-2
372
-2
  0
DIMSTYLE
105
83
330
4
100
AcDbSymbolTableRecord
100
AcDbDimStyleTableRecord
  2
EZ_RADIUS
 70
0
 40
1.0
 41
0.25
 42
0.125
 43
3.75
 44
0.375
 45
0.0
 46
0.0
 47
0.0
 48
0.0
 49
2.5
140
0.25
141
0.0
142
0.0
143
0.03937007874
144
100.0
145
0.0
146
0.5
147
0.1
148
0.0
 69
0
 70
0
 71
0
 72
0
 73
0
 74
0
 75
0
 76
0
 77
1
 78
12
 79
3
170
0
171
3
172
0
173
0
174
0
175
0
176
0
177
0
178
0
179
2
271
2
272
2
273
2
274
3
275
0
276
0
277
2
278
46
279
1
280
0
281
0
282
0
283
0
284
8
285
0
286
0
288
1
289
3
290
0
340
4C
342
84
371
-2
372
-2
  0
DIMSTYLE
105
88
330
4
100
AcDbSymbolTableRecord
100
AcDbDimStyleTableRecord
  2
EZ_RADIUS_INSIDE
 70
0
 40
1.0
 41
0.25
 42
0.125
 43
3.75
 44
0.375
 45
0.0
 46
0.0
 47
0.0
 48
0.0
 49
2.5
140
0.25
141
0.0
142
0.0
143
0.03937007874
144
100.0
145
0.0
146
0.5
147
0.1
148
0.0
 69
0
 70
0
 71
0
 72
0
 73
0
 74
0
 75
0
 76
0
 77
0
 78
12
 79
3
170
0
171
3
172
0
173
0
174
1
175
0
176
0
177
0
178
0
179
2
271
2
272
2
273
2
274
3
275
0
276
0
277
2
278
46
279
0
280
0
281
0
282
0
283
0
284
8
285
0
286
0
288
1
289
0
290
0
340
4C
342
84
371
-2
372
-2
  0
DIMSTYLE
105
89
330
4
100
AcDbSymbolTableRecord
100
AcDbDimStyleTableRecord
  2
EZ_CURVED
 70
0
 40
1.0
 41
0.25
 42
0.125
 43
3.75
 44
0.375
 45
0.0
 46
0.0
 47
0.0
 48
0.0
 49
2.5
140
0.25
141
2.5
142
0.0
143
0.03937007874
144
100.0
145
0.0
146
0.5
147
0.1
148
0.0
 69
0
 70
0
 71
0
 72
0
 73
0
 74
0
 75
0
 76
0
 77
1
 78
12
 79
2
 90
2
170
0
171
3
172
1
173
0
174
0
175
0
176
0
177
0
178
0
179
2
271
2
272
2
273
2
274
3
275
0
276
0
277
2
278
46
279
2
280
0
281
0
282
0
283
0
284
8
285
0
286
0
288
1
289
3
290
0
340
4C
371
-2
372
-2
  0
ENDTAB
  0
TABLE
  2
BLOCK_RECORD
  5
9
330
0
100
AcDbSymbolTable
 70
5
  0
BLOCK_RECORD
  5
17
330
9
100
AcDbSymbolTableRecord
100
AcDbBlockTableRecord
  2
*Model_Space
340
1A
 70
0
280
1
281
0
  0
BLOCK_RECORD
  5
1B
330
9
100
AcDbSymbolTableRecord
100
AcDbBlockTableRecord
  2
*Paper_Space
340
1E
 70
0
280
1
281
0
  0
BLOCK_RECORD
  5
74
330
9
100
AcDbSymbolTableRecord
100
AcDbBlockTableRecord
  2
_ARCHTICK
340
0
 70
0
280
1
281
0
  0
BLOCK_RECORD
  5
78
330
9
100
AcDbSymbolTableRecord
100
AcDbBlockTableRecord
  2
_CLOSEDFILLED
340
0
 70
0
280
1
281
0
  0
BLOCK_RECORD
  5
84
330
9
100
AcDbSymbolTableRecord
100
AcDbBlockTableRecord
  2
_CLOSEDBLANK
340
0
 70
0
280
1
281
0
  0
ENDTAB
  0
ENDSEC
  0
SECTION
  2
BLOCKS
  0
BLOCK
  5
18
330
17
100
AcDbEntity
  8
0
100
AcDbBlockBegin
  2
*Model_Space
 70
0
 10
0.0
 20
0.0
 30
0.0
  3
*Model_Space
  1

  0
ENDBLK
  5
19
330
17
100
AcDbEntity
  8
0
100
AcDbBlockEnd
  0
BLOCK
  5
1C
330
1B
100
AcDbEntity
  8
0
100
AcDbBlockBegin
  2
*Paper_Space
 70
0
 10
0.0
 20
0.0
 30
0.0
  3
*Paper_Space
  1

  0
ENDBLK
  5
1D
330
1B
100
AcDbEntity
  8
0
100
AcDbBlockEnd
  0
BLOCK
  5
75
330
74
100
AcDbEntity
  8
0
100
AcDbBlockBegin
  2
_ARCHTICK
 70
0
 10
0.0
 20
0.0
 30
0.0
  3
_ARCHTICK
  1

  0
LWPOLYLINE
  5
77
330
74
100
AcDbEntity
  8
0
  6
BYBLOCK
 62
0
100
AcDbPolyline
 90
2
 70
0
 43
0.15
 10
-0.5
 20
-0.5
 10
0.5
 20
0.5
  0
ENDBLK
  5
76
330
74
100
AcDbEntity
  8
0
100
AcDbBlockEnd
  0
BLOCK
  5
79
330
78
100
AcDbEntity
  8
0
100
AcDbBlockBegin
  2
_CLOSEDFILLED
 70
0
 10
0.0
 20
0.0
 30
0.0
  3
_CLOSEDFILLED
  1

  0
SOLID
  5
7B
330
78
100
AcDbEntity
  8
0
  6
BYBLOCK
 62
0
100
AcDbTrace
 10
-1.0
 20
0.16439898372402537
 30
0.0
 11
0.0
 21
0.0
 31
0.0
 12
-1.0
 22
-0.16439898372402537
 32
0.0
 13
-1.0
 23
-0.16439898372402537
 33
0.0
  0
ENDBLK
  5
7A
330
78
100
AcDbEntity
  8
0
100
AcDbBlockEnd
  0
BLOCK
  5
85
330
84
100
AcDbEntity
  8
0
100
AcDbBlockBegin
  2
_CLOSEDBLANK
 70
0
 10
0.0
 20
0.0
 30
0.0
  3
_CLOSEDBLANK
  1

  0
LWPOLYLINE
  5
87
330
84
100
AcDbEntity
  8
0
  6
BYBLOCK
 62
0
100
AcDbPolyline
 90
3
 70
1
 10
-1.0
 20
0.16439898372402537
 10
0.0
 20
0.0
 10
-1.0
 20
-0.16439898372402537
  0
ENDBLK
  5
86
330
84
100
AcDbEntity
  8
0
100
AcDbBlockEnd
  0
ENDSEC
  0
SECTION
  2
ENTITIES
  0
LWPOLYLINE
  5
8A
330
17
100
AcDbEntity
  8
0
100
AcDbPolyline
 90
243
 70
0
 10
0.0
 20
130.55191764287832
 10
0.0
 20
516.3977684774585
 10
114.14748820084125
 20
516.3977684774585
 10
114.14748820084125
 20
516.0560095307494
 10
117.22331872122321
 20
512.9801790103675
 10
117.56507766793231
 20
512.9801790103675
 10
120.29914924160516
 20
510.2461074366946
 10
120.29914924160516
 20
509.9043484899855
 10
120.98266713502336
 20
509.2208305965673
 10
120.98266713502336
 20
508.8790716498582
 10
122.00794397515068
 20
507.85379480973086
 10
122.00794397515068
 20
507.51203586302177
 10
122.6914618685689
 20
506.8285179696035
 10
122.6914618685689
 20
506.48675902289443
 10
123.033220815278
 20
506.14500007618534
 10
123.033220815278
 20
505.80324112947625
 10
123.3749797619871
 20
505.4614821827671
 10
123.3749797619871
 20
505.119723236058
 10
123.71673870869621
 20
504.7779642893489
 10
123.71673870869621
 20
504.4362053426398
 10
124.05849765540532
 20
504.0944463959307
 10
124.05849765540532
 20
503.4109285025125
 10
124.40025660211442
 20
503.0691695558034
 10
124.40025660211442
 20
502.7274106090943
 10
124.74201554882353
 20
502.38565166238516
 10
124.74201554882353
 20
501.702133768967
 10
125.08377449553264
 20
501.3603748222579
 10
125.08377449553264
 20
501.01861587554873
 10
125.42553344224174
 20
500.67685692883964
 10
125.42553344224174
 20
500.33509798213055
 10
126.10905133565996
 20
499.6515800887123
 10
126.10905133565996
 20
499.3098211420032
 10
126.45081028236906
 20
498.9680621952941
 10
126.45081028236906
 20
498.62630324858503
 10
127.13432817578727
 20
497.9427853551668
 10
127.13432817578727
 20
497.6010264084577
 10
127.81784606920547
 20
496.91750851503946
 10
127.81784606920547
 20
496.57574956833037
 10
128.1596050159146
 20
496.2339906216213
 10
128.1596050159146
 20
495.8922316749122
 10
129.1848818560419
 20
494.86695483478485
 10
129.1848818560419
 20
494.52519588807576
 10
131.23543553629654
 20
492.4746422078211
 10
131.23543553629654
 20
492.132883261112
 10
131.91895342971475
 20
491.4493653676938
 10
131.91895342971475
 20
491.10760642098467
 10
132.60247132313296
 20
490.4240885275665
 10
132.60247132313296
 20
490.0823295808574
 10
132.94423026984205
 20
489.74057063414824
 10
132.94423026984205
 20
489.39881168743915
 10
133.62774816326026
 20
488.71529379402097
 10
133.62774816326026
 20
488.3735348473119
 10
134.31126605667848
 20
487.69001695389363
 10
134.31126605667848
 20
487.34825800718454
 10
134.6530250033876
 20
487.00649906047545
 10
134.6530250033876
 20
486.6647401137663
 10
135.6783018435149
 20
485.639463273639
 10
135.6783018435149
 20
485.2977043269299
 10
136.3618197369331
 20
484.6141864335117
 10
136.3618197369331
 20
484.2724274868026
 10
136.70357868364223
 20
483.93066854009345
 10
136.70357868364223
 20
483.58890959338436
 10
137.04533763035133
 20
483.24715064667527
 10
137.04533763035133
 20
482.9053916999662
 10
138.07061447047866
 20
481.88011485983884
 10
138.07061447047866
 20
481.19659696642066
 10
138.41237341718775
 20
480.8548380197115
 10
138.41237341718775
 20
480.5130790730024
 10
139.09589131060596
 20
479.82956117958423
 10
139.09589131060596
 20
479.4878022328751
 10
139.77940920402418
 20
478.8042843394569
 10
139.77940920402418
 20
478.4625253927478
 10
140.4629270974424
 20
477.77900749932957
 10
140.4629270974424
 20
477.4372485526205
 10
140.80468604415148
 20
477.0954896059114
 10
140.80468604415148
 20
476.75373065920223
 10
141.1464449908606
 20
476.41197171249314
 10
141.1464449908606
 20
476.07021276578405
 10
141.4882039375697
 20
475.72845381907496
 10
141.4882039375697
 20
475.3866948723658
 10
141.8299628842788
 20
475.0449359256567
 10
141.8299628842788
 20
474.7031769789476
 10
142.51348077769703
 20
474.0196590855294
 10
142.51348077769703
 20
473.6779001388203
 10
142.85523972440612
 20
473.3361411921112
 10
142.85523972440612
 20
472.9943822454021
 10
143.53875761782433
 20
472.31086435198387
 10
143.53875761782433
 20
471.6273464585657
 10
143.88051656453345
 20
471.2855875118566
 10
143.88051656453345
 20
470.94382856514744
 10
144.56403445795166
 20
470.26031067172926
 10
144.56403445795166
 20
469.91855172502017
 10
144.90579340466076
 20
469.576792778311
 10
144.90579340466076
 20
469.2350338316019
 10
145.58931129807897
 20
468.55151593818374
 10
145.58931129807897
 20
467.8679980447655
 10
145.93107024478806
 20
467.5262390980564
 10
145.93107024478806
 20
467.1844801513473
 10
146.27282919149718
 20
466.84272120463817
 10
146.27282919149718
 20
466.5009622579291
 10
146.61458813820627
 20
466.15920331122
 10
146.61458813820627
 20
465.8174443645109
 10
146.9563470849154
 20
465.4756854178018
 10
146.9563470849154
 20
464.79216752438356
 10
147.29810603162449
 20
464.45040857767447
 10
147.29810603162449
 20
464.1086496309654
 10
147.6398649783336
 20
463.7668906842562
 10
147.6398649783336
 20
463.08337279083804
 10
147.9816239250427
 20
462.74161384412895
 10
147.9816239250427
 20
462.3998548974198
 10
148.32338287175182
 20
462.0580959507107
 10
148.32338287175182
 20
461.3745780572925
 10
148.6651418184609
 20
461.0328191105834
 10
148.6651418184609
 20
460.6910601638743
 10
149.00690076517003
 20
460.3493012171652
 10
149.00690076517003
 20
460.0075422704561
 10
149.69041865858824
 20
459.32402437703786
 10
149.69041865858824
 20
458.98226543032877
 10
150.03217760529733
 20
458.6405064836197
 10
150.03217760529733
 20
458.2987475369106
 10
150.37393655200646
 20
457.95698859020143
 10
150.37393655200646
 20
457.61522964349234
 10
150.71569549871555
 20
457.27347069678325
 10
150.71569549871555
 20
456.93171175007416
 10
151.05745444542467
 20
456.589952803365
 10
151.05745444542467
 20
456.2481938566559
 10
151.39921339213376
 20
455.9064349099468
 10
151.39921339213376
 20
455.56467596323773
 10
151.74097233884288
 20
455.2229170165286
 10
151.74097233884288
 20
454.8811580698195
 10
152.08273128555197
 20
454.5393991231104
 10
152.08273128555197
 20
453.85588122969216
 10
152.4244902322611
 20
453.51412228298307
 10
152.4244902322611
 20
453.172363336274
 10
152.76624917897018
 20
452.8306043895649
 10
152.76624917897018
 20
452.48884544285573
 10
153.1080081256793
 20
452.14708649614664
 10
153.1080081256793
 20
451.80532754943755
 10
153.4497670723884
 20
451.46356860272846
 10
153.4497670723884
 20
451.12180965601937
 10
153.7915260190975
 20
450.7800507093102
 10
153.7915260190975
 20
450.4382917626011
 10
154.1332849658066
 20
450.09653281589203
 10
154.1332849658066
 20
449.75477386918294
 10
154.4750439125157
 20
449.4130149224738
 10
154.4750439125157
 20
449.0712559757647
 10
154.81680285922482
 20
448.7294970290556
 10
154.81680285922482
 20
448.04597913563737
 10
155.1585618059339
 20
447.7042201889283
 10
155.1585618059339
 20
447.3624612422192
 10
155.50032075264303
 20
447.0207022955101
 10
155.50032075264303
 20
446.67894334880094
 10
155.84207969935213
 20
446.33718440209185
 10
155.84207969935213
 20
445.99542545538276
 10
156.18383864606125
 20
445.65366650867367
 10
156.18383864606125
 20
445.3119075619645
 10
156.52559759277034
 20
444.9701486152554
 10
156.52559759277034
 20
444.62838966854633
 10
156.86735653947946
 20
444.28663072183724
 10
156.86735653947946
 20
443.94487177512815
 10
157.20911548618855
 20
443.603112828419
 10
157.20911548618855
 20
443.2613538817099
 10
157.55087443289767
 20
442.9195949350008
 10
157.55087443289767
 20
442.5778359882917
 10
157.89263337960676
 20
442.2360770415826
 10
157.89263337960676
 20
441.8943180948735
 10
158.23439232631588
 20
441.5525591481644
 10
158.23439232631588
 20
441.2108002014553
 10
158.57615127302498
 20
440.86904125474615
 10
158.57615127302498
 20
440.52728230803706
 10
158.9179102197341
 20
440.18552336132797
 10
158.9179102197341
 20
439.5020054679097
 10
159.6014281131523
 20
438.81848757449154
 10
159.6014281131523
 20
438.47672862778245
 10
159.9431870598614
 20
438.1349696810733
 10
159.9431870598614
 20
437.7932107343642
 10
160.28494600657052
 20
437.4514517876551
 10
160.28494600657052
 20
437.109692840946
 10
160.6267049532796
 20
436.76793389423693
 10
160.6267049532796
 20
436.4261749475278
 10
160.9684638999887
 20
436.0844160008187
 10
160.9684638999887
 20
435.7426570541096
 10
161.31022284669783
 20
435.4008981074005
 10
161.31022284669783
 20
435.05913916069136
 10
161.99374074011604
 20
434.3756212672732
 10
161.99374074011604
 20
434.0338623205641
 10
162.33549968682513
 20
433.69210337385493
 10
162.33549968682513
 20
433.35034442714584
 10
163.36077652695246
 20
432.3250675870185
 10
163.36077652695246
 20
431.9833086403094
 10
164.7278123137889
 20
430.616272853473
 10
165.06957126049798
 20
430.616272853473
 10
165.4113302072071
 20
430.2745139067639
 10
165.7530891539162
 20
430.2745139067639
 10
166.0948481006253
 20
429.9327549600548
 10
166.4366070473344
 20
429.9327549600548
 10
166.77836599404353
 20
429.5909960133457
 10
167.12012494075262
 20
429.5909960133457
 10
167.46188388746174
 20
429.24923706663657
 10
170.53771440784368
 20
429.24923706663657
 10
170.87947335455277
 20
428.9074781199275
 10
175.32233966177114
 20
428.9074781199275
 10
175.66409860848026
 20
428.5657191732184
 10
182.49927754266236
 20
428.5657191732184
 10
182.84103648937148
 20
428.2239602265093
 10
185.91686700975342
 20
428.2239602265093
 10
186.25862595646254
 20
427.88220127980014
 10
187.28390279658984
 20
427.88220127980014
 10
187.62566174329896
 20
427.54044233309105
 10
188.65093858342627
 20
427.54044233309105
 10
188.9926975301354
 20
427.19868338638196
 10
190.35973331697178
 20
427.19868338638196
 10
190.7014922636809
 20
426.85692443967287
 10
193.09380489064463
 20
426.85692443967287
 10
193.43556383735375
 20
426.5151654929637
 10
196.1696354110266
 20
426.5151654929637
 10
196.5113943577357
 20
426.1734065462546
 10
197.536671197863
 20
426.1734065462546
 10
197.87843014457212
 20
425.83164759954553
 10
199.24546593140855
 20
425.83164759954553
 10
199.58722487811764
 20
425.48988865283644
 10
200.61250171824497
 20
425.48988865283644
 10
200.95426066495406
 20
425.1481297061273
 10
203.0048143452087
 20
425.1481297061273
 10
203.34657329191782
 20
425.48988865283644
 10
205.39712697217243
 20
425.48988865283644
 10
205.73888591888155
 20
425.1481297061273
 10
206.76416275900885
 20
425.1481297061273
 10
207.10592170571798
 20
424.8063707594182
 10
207.7894395991362
 20
424.8063707594182
 10
208.13119854584528
 20
424.4646118127091
 10
209.4982343326817
 20
424.4646118127091
 10
209.83999327939082
 20
424.122852866
 10
210.52351117280904
 20
424.122852866
 10
210.86527011951813
 20
423.78109391929087
 10
211.54878801293634
 20
423.78109391929087
 10
211.89054695964543
 20
423.4393349725818
 10
213.59934169319098
 20
423.4393349725818
 10
213.94110063990007
 20
423.0975760258727
 10
215.64989537344562
 20
423.0975760258727
 10
215.9916543201547
 20
422.7558170791636
 10
216.67517221357292
 20
422.7558170791636
 10
217.01693116028204
 20
422.4140581324545
  0
LWPOLYLINE
  5
8B
330
17
100
AcDbEntity
  8
0
100
AcDbPolyline
 90
972
 70
0
 10
217.01693116028204
 20
422.4140581324545
 10
217.70044905370025
 20
422.4140581324545
 10
218.04220800040935
 20
422.07229918574535
 10
218.72572589382756
 20
422.07229918574535
 10
219.06748484053665
 20
421.73054023903626
 10
219.40924378724577
 20
421.73054023903626
 10
219.75100273395486
 20
421.38878129232717
 10
220.43452062737308
 20
421.38878129232717
 10
220.7762795740822
 20
421.0470223456181
 10
221.4597974675004
 20
421.0470223456181
 10
221.8015564142095
 20
420.7052633989089
 10
222.14331536091862
 20
420.7052633989089
 10
222.4850743076277
 20
420.36350445219983
 10
222.82683325433683
 20
420.36350445219983
 10
223.85211009446414
 20
419.3382276120725
 10
224.19386904117326
 20
419.3382276120725
 10
224.87738693459147
 20
418.6547097186543
 10
225.21914588130056
 20
418.6547097186543
 10
225.90266377471877
 20
417.9711918252361
 10
226.24442272142787
 20
417.9711918252361
 10
226.586181668137
 20
417.629432878527
 10
226.92794061484608
 20
417.629432878527
 10
227.2696995615552
 20
417.2876739318179
 10
227.6114585082643
 20
417.2876739318179
 10
227.9532174549734
 20
416.9459149851088
 10
228.2949764016825
 20
416.9459149851088
 10
228.63673534839162
 20
416.60415603839965
 10
228.97849429510072
 20
416.60415603839965
 10
229.32025324180984
 20
416.26239709169056
 10
230.00377113522805
 20
416.26239709169056
 10
230.34553008193714
 20
415.92063814498147
 10
230.68728902864626
 20
415.92063814498147
 10
231.02904797535535
 20
415.5788791982724
 10
231.71256586877357
 20
415.5788791982724
 10
232.0543248154827
 20
415.2371202515633
 10
232.39608376219178
 20
415.2371202515633
 10
232.7378427089009
 20
414.89536130485413
 10
233.07960165561
 20
414.89536130485413
 10
233.42136060231908
 20
414.55360235814504
 10
233.7631195490282
 20
414.55360235814504
 10
234.1048784957373
 20
414.21184341143595
 10
234.7883963891555
 20
414.21184341143595
 10
235.13015533586463
 20
413.87008446472686
 10
235.81367322928284
 20
413.87008446472686
 10
236.15543217599193
 20
413.5283255180177
 10
236.49719112270105
 20
413.5283255180177
 10
236.83895006941015
 20
413.1865665713086
 10
237.52246796282836
 20
413.1865665713086
 10
237.86422690953748
 20
412.8448076245995
 10
238.5477448029557
 20
412.8448076245995
 10
238.88950374966478
 20
412.50304867789043
 10
239.2312626963739
 20
412.50304867789043
 10
239.573021643083
 20
412.1612897311813
 10
240.2565395365012
 20
412.1612897311813
 10
240.59829848321033
 20
411.8195307844722
 10
241.2818163766285
 20
411.8195307844722
 10
241.62357532333763
 20
411.4777718377631
 10
242.64885216346494
 20
411.4777718377631
 10
242.99061111017406
 20
411.136012891054
 10
243.67412900359227
 20
411.136012891054
 10
244.01588795030136
 20
410.79425394434486
 10
244.69940584371957
 20
410.79425394434486
 10
245.0411647904287
 20
410.45249499763577
 10
245.3829237371378
 20
410.45249499763577
 10
245.7246826838469
 20
410.1107360509267
 10
246.40820057726512
 20
410.1107360509267
 10
246.7499595239742
 20
409.7689771042176
 10
247.43347741739242
 20
409.7689771042176
 10
247.77523636410154
 20
409.42721815750843
 10
248.45875425751973
 20
409.42721815750843
 10
248.80051320422885
 20
409.08545921079934
 10
249.48403109764706
 20
409.08545921079934
 10
249.82579004435615
 20
408.74370026409025
 10
250.50930793777437
 20
408.74370026409025
 10
250.8510668844835
 20
408.40194131738116
 10
251.5345847779017
 20
408.40194131738116
 10
251.8763437246108
 20
408.06018237067207
 10
252.559861618029
 20
408.06018237067207
 10
252.90162056473812
 20
407.7184234239629
 10
253.58513845815634
 20
407.7184234239629
 10
253.92689740486543
 20
407.3766644772538
 10
254.61041529828364
 20
407.3766644772538
 10
254.95217424499276
 20
407.03490553054473
 10
255.63569213841095
 20
407.03490553054473
 10
255.97745108512007
 20
406.69314658383564
 10
256.6609689785383
 20
406.69314658383564
 10
257.00272792524737
 20
406.3513876371265
 10
257.6862458186656
 20
406.3513876371265
 10
258.0280047653747
 20
406.0096286904174
 10
258.3697637120838
 20
406.0096286904174
 10
258.7115226587929
 20
405.6678697437083
 10
259.3950405522111
 20
405.6678697437083
 10
259.7367994989202
 20
405.3261107969992
 10
260.42031739233846
 20
405.3261107969992
 10
260.76207633904755
 20
404.98435185029007
 10
261.44559423246574
 20
404.98435185029007
 10
261.7873531791749
 20
404.642592903581
 10
262.47087107259307
 20
404.642592903581
 10
262.81263001930216
 20
404.3008339568719
 10
263.4961479127204
 20
404.3008339568719
 10
263.8379068594295
 20
403.9590750101628
 10
264.1796658061386
 20
403.9590750101628
 10
264.5214247528477
 20
403.61731606345364
 10
265.2049426462659
 20
403.61731606345364
 10
265.546701592975
 20
403.27555711674455
 10
266.23021948639325
 20
403.27555711674455
 10
266.57197843310234
 20
402.93379817003546
 10
267.25549632652053
 20
402.93379817003546
 10
267.5972552732297
 20
402.59203922332637
 10
268.28077316664786
 20
402.59203922332637
 10
268.62253211335695
 20
402.2502802766172
 10
269.3060500067752
 20
402.2502802766172
 10
269.6478089534843
 20
401.9085213299081
 10
270.33132684690247
 20
401.9085213299081
 10
270.6730857936116
 20
401.56676238319903
 10
271.0148447403207
 20
401.56676238319903
 10
271.3566036870298
 20
401.22500343648994
 10
272.04012158044804
 20
401.22500343648994
 10
272.38188052715714
 20
400.88324448978085
 10
273.0653984205753
 20
400.88324448978085
 10
273.40715736728447
 20
400.5414855430717
 10
273.74891631399356
 20
400.5414855430717
 10
274.09067526070265
 20
400.1997265963626
 10
274.7741931541209
 20
400.1997265963626
 10
275.11595210083
 20
399.8579676496535
 10
276.1412289409573
 20
399.8579676496535
 10
276.4829878876664
 20
399.5162087029444
 10
276.8247468343755
 20
399.5162087029444
 10
277.1665057810846
 20
399.1744497562353
 10
277.85002367450284
 20
399.1744497562353
 10
278.1917826212119
 20
398.8326908095262
 10
278.8753005146301
 20
398.8326908095262
 10
279.21705946133926
 20
398.4909318628171
 10
279.55881840804835
 20
398.4909318628171
 10
279.90057735475744
 20
398.149172916108
 10
280.5840952481757
 20
398.149172916108
 10
280.9258541948848
 20
397.80741396939885
 10
281.60937208830296
 20
397.80741396939885
 10
281.9511310350121
 20
397.46565502268976
 10
282.6346489284303
 20
397.46565502268976
 10
282.9764078751394
 20
397.12389607598067
 10
283.31816682184854
 20
397.12389607598067
 10
283.6599257685576
 20
396.7821371292716
 10
284.3434436619758
 20
396.7821371292716
 10
284.6852026086849
 20
396.4403781825624
 10
285.02696155539405
 20
396.4403781825624
 10
285.36872050210314
 20
396.09861923585333
 10
286.05223839552133
 20
396.09861923585333
 10
286.3939973422305
 20
395.75686028914424
 10
287.07751523564866
 20
395.75686028914424
 10
287.41927418235775
 20
395.41510134243515
 10
288.102792075776
 20
395.41510134243515
 10
288.4445510224851
 20
395.073342395726
 10
289.1280689159033
 20
395.073342395726
 10
289.4698278626124
 20
394.7315834490169
 10
290.1533457560306
 20
394.7315834490169
 10
290.49510470273975
 20
394.3898245023078
 10
291.17862259615794
 20
394.3898245023078
 10
291.520381542867
 20
394.0480655555987
 10
291.8621404895761
 20
394.0480655555987
 10
292.20389943628527
 20
393.7063066088896
 10
292.88741732970345
 20
393.7063066088896
 10
293.22917627641255
 20
393.3645476621805
 10
293.9126941698308
 20
393.3645476621805
 10
294.2544531165399
 20
393.0227887154714
 10
294.9379710099581
 20
393.0227887154714
 10
295.2797299566672
 20
392.6810297687623
 10
296.30500679679454
 20
392.6810297687623
 10
296.64676574350364
 20
392.3392708220532
 10
297.3302836369218
 20
392.3392708220532
 10
297.67204258363097
 20
391.99751187534406
 10
298.01380153034006
 20
391.99751187534406
 10
298.35556047704915
 20
391.65575292863497
 10
299.03907837046734
 20
391.65575292863497
 10
299.3808373171765
 20
391.3139939819259
 10
300.06435521059467
 20
391.3139939819259
 10
300.40611415730376
 20
390.9722350352168
 10
301.089632050722
 20
390.9722350352168
 10
301.4313909974311
 20
390.63047608850763
 10
302.11490889084934
 20
390.63047608850763
 10
302.4566678375584
 20
390.28871714179854
 10
303.1401857309766
 20
390.28871714179854
 10
303.48194467768576
 20
389.94695819508945
 10
303.82370362439485
 20
389.94695819508945
 10
304.16546257110394
 20
389.60519924838036
 10
304.8489804645222
 20
389.60519924838036
 10
305.1907394112313
 20
389.2634403016712
 10
305.87425730464946
 20
389.2634403016712
 10
306.2160162513586
 20
388.9216813549621
 10
307.2412930914859
 20
388.9216813549621
 10
307.583052038195
 20
388.579922408253
 10
308.2665699316132
 20
388.579922408253
 10
308.6083288783223
 20
388.23816346154393
 10
309.29184677174055
 20
388.23816346154393
 10
309.63360571844964
 20
387.8964045148348
 10
310.3171236118678
 20
387.8964045148348
 10
310.658882558577
 20
387.5546455681257
 10
311.34240045199516
 20
387.5546455681257
 10
311.68415939870425
 20
387.2128866214166
 10
312.3676772921225
 20
387.2128866214166
 10
312.7094362388316
 20
386.8711276747075
 10
313.7347130789589
 20
386.8711276747075
 10
314.076472025668
 20
386.52936872799836
 10
314.7599899190862
 20
386.52936872799836
 10
315.10174886579534
 20
386.18760978128927
 10
316.1270257059226
 20
386.18760978128927
 10
316.46878465263177
 20
385.8458508345802
 10
317.15230254604995
 20
385.8458508345802
 10
317.49406149275904
 20
385.5040918878711
 10
318.5193383328864
 20
385.5040918878711
 10
318.86109727959547
 20
385.162332941162
 10
319.8863741197228
 20
385.162332941162
 10
320.2281330664319
 20
384.82057399445284
 10
321.2534099065592
 20
384.82057399445284
 10
321.5951688532683
 20
384.47881504774375
 10
322.27868674668656
 20
384.47881504774375
 10
322.62044569339565
 20
384.13705610103466
 10
323.30396358681384
 20
384.13705610103466
 10
323.645722533523
 20
383.79529715432557
 10
324.32924042694117
 20
383.79529715432557
 10
324.67099937365026
 20
383.4535382076164
 10
325.3545172670685
 20
383.4535382076164
 10
325.6962762137776
 20
383.1117792609073
 10
326.37979410719583
 20
383.1117792609073
 10
326.7215530539049
 20
382.77002031419823
 10
327.74682989403226
 20
382.77002031419823
 10
328.08858884074135
 20
382.42826136748914
 10
328.77210673415954
 20
382.42826136748914
 10
329.1138656808686
 20
382.08650242078
 10
329.79738357428687
 20
382.08650242078
 10
330.13914252099596
 20
381.7447434740709
 10
331.1644193611233
 20
381.7447434740709
 10
331.5061783078324
 20
381.4029845273618
 10
332.1896962012506
 20
381.4029845273618
 10
332.5314551479597
 20
381.0612255806527
 10
333.2149730413779
 20
381.0612255806527
 10
333.55673198808705
 20
380.71946663394357
 10
334.24024988150524
 20
380.71946663394357
 10
334.5820088282143
 20
380.3777076872345
 10
335.26552672163257
 20
380.3777076872345
 10
335.60728566834166
 20
380.0359487405254
 10
336.632562508469
 20
380.0359487405254
 10
336.9743214551781
 20
379.6941897938163
 10
337.65783934859627
 20
379.6941897938163
 10
337.9995982953054
 20
379.35243084710714
 10
338.6831161887236
 20
379.35243084710714
 10
339.0248751354327
 20
379.01067190039805
 10
339.70839302885094
 20
379.01067190039805
 10
340.05015197556
 20
378.66891295368896
 10
341.07542881568736
 20
378.66891295368896
 10
341.41718776239645
 20
378.32715400697987
 10
342.4424646025238
 20
378.32715400697987
 10
342.7842235492329
 20
377.9853950602708
 10
343.46774144265106
 20
377.9853950602708
 10
343.8095003893602
 20
377.6436361135616
 10
344.4930182827784
 20
377.6436361135616
 10
344.8347772294875
 20
377.30187716685253
 10
345.8600540696148
 20
377.30187716685253
 10
346.2018130163239
 20
376.96011822014344
 10
346.88533090974215
 20
376.96011822014344
 10
347.22708985645124
 20
376.61835927343435
 10
347.9106077498695
 20
376.61835927343435
 10
348.2523666965786
 20
376.2766003267252
 10
348.93588458999676
 20
376.2766003267252
 10
349.2776435367059
 20
375.9348413800161
 10
349.9611614301241
 20
375.9348413800161
 10
350.3029203768332
 20
375.593082433307
 10
351.3281972169605
 20
375.593082433307
 10
351.6699561636696
 20
375.2513234865979
 10
352.35347405708785
 20
375.2513234865979
 10
352.69523300379694
 20
374.9095645398888
 10
353.7205098439243
 20
374.9095645398888
 10
354.06226879063337
 20
374.5678055931797
 10
354.74578668405155
 20
374.5678055931797
 10
355.0875456307607
 20
374.2260466464706
 10
355.7710635241789
 20
374.2260466464706
 10
356.112822470888
 20
373.8842876997615
 10
357.1380993110153
 20
373.8842876997615
 10
357.4798582577244
 20
373.54252875305235
 10
358.16337615114264
 20
373.54252875305235
 10
358.50513509785173
 20
373.20076980634326
 10
359.1886529912699
 20
373.20076980634326
 10
359.53041193797907
 20
372.85901085963417
 10
360.55568877810634
 20
372.85901085963417
 10
360.8974477248155
 20
372.5172519129251
 10
361.5809656182337
 20
372.5172519129251
 10
361.92272456494277
 20
372.1754929662159
 10
362.9480014050701
 20
372.1754929662159
 10
363.2897603517792
 20
371.83373401950684
 10
363.97327824519743
 20
371.83373401950684
 10
364.3150371919065
 20
371.49197507279774
 10
365.34031403203386
 20
371.49197507279774
 10
365.68207297874295
 20
371.15021612608865
 10
366.7073498188703
 20
371.15021612608865
 10
367.0491087655794
 20
370.80845717937956
 10
367.73262665899756
 20
370.80845717937956
 10
368.0743856057067
 20
370.4666982326704
 10
368.7579034991249
 20
370.4666982326704
 10
369.099662445834
 20
370.1249392859613
 10
370.1249392859613
 20
370.1249392859613
 10
370.4666982326704
 20
369.7831803392522
 10
371.49197507279774
 20
369.7831803392522
 10
371.83373401950684
 20
369.44142139254313
 10
372.85901085963417
 20
369.44142139254313
 10
373.20076980634326
 20
369.099662445834
 10
374.2260466464706
 20
369.099662445834
 10
374.5678055931797
 20
368.7579034991249
 10
375.2513234865979
 20
368.7579034991249
 10
375.593082433307
 20
368.4161445524158
 10
376.2766003267252
 20
368.4161445524158
 10
376.61835927343435
 20
368.0743856057067
 10
377.6436361135616
 20
368.0743856057067
 10
377.9853950602708
 20
367.73262665899756
 10
378.66891295368896
 20
367.73262665899756
 10
379.01067190039805
 20
367.39086771228847
 10
380.3777076872345
 20
367.39086771228847
 10
380.71946663394357
 20
367.0491087655794
 10
381.4029845273618
 20
367.0491087655794
 10
381.7447434740709
 20
366.7073498188703
 10
382.42826136748914
 20
366.7073498188703
 10
382.77002031419823
 20
366.36559087216114
 10
384.13705610103466
 20
366.36559087216114
 10
384.47881504774375
 20
366.02383192545204
 10
385.162332941162
 20
366.02383192545204
 10
385.5040918878711
 20
365.68207297874295
 10
386.52936872799836
 20
365.68207297874295
 10
386.8711276747075
 20
365.34031403203386
 10
387.8964045148348
 20
365.34031403203386
 10
388.23816346154393
 20
364.9985550853247
 10
389.2634403016712
 20
364.9985550853247
 10
389.60519924838036
 20
364.6567961386156
 10
390.9722350352168
 20
364.6567961386156
 10
391.3139939819259
 20
364.3150371919065
 10
392.3392708220532
 20
364.3150371919065
 10
392.6810297687623
 20
363.97327824519743
 10
394.0480655555987
 20
363.97327824519743
 10
394.3898245023078
 20
363.63151929848834
 10
395.75686028914424
 20
363.63151929848834
 10
396.09861923585333
 20
363.2897603517792
 10
397.80741396939885
 20
363.2897603517792
 10
398.149172916108
 20
362.9480014050701
 10
399.1744497562353
 20
362.9480014050701
 10
399.5162087029444
 20
362.606242458361
 10
400.5414855430717
 20
362.606242458361
 10
400.88324448978085
 20
362.2644835116519
 10
402.2502802766172
 20
362.2644835116519
 10
402.59203922332637
 20
361.92272456494277
 10
403.9590750101628
 20
361.92272456494277
 10
404.3008339568719
 20
361.5809656182337
 10
405.6678697437083
 20
361.5809656182337
 10
406.0096286904174
 20
361.2392066715246
 10
407.3766644772538
 20
361.2392066715246
 10
407.7184234239629
 20
360.8974477248155
 10
409.08545921079934
 20
360.8974477248155
 10
409.42721815750843
 20
360.55568877810634
 10
410.79425394434486
 20
360.55568877810634
 10
411.136012891054
 20
360.21392983139725
 10
412.1612897311813
 20
360.21392983139725
 10
412.50304867789043
 20
359.87217088468816
 10
414.21184341143595
 20
359.87217088468816
 10
414.55360235814504
 20
359.53041193797907
 10
416.26239709169056
 20
359.53041193797907
 10
416.60415603839965
 20
359.1886529912699
 10
418.3129507719452
 20
359.1886529912699
 10
418.6547097186543
 20
358.8468940445608
 10
420.02174550549074
 20
358.8468940445608
 10
420.36350445219983
 20
358.50513509785173
 10
422.07229918574535
 20
358.50513509785173
 10
422.4140581324545
 20
358.16337615114264
 10
423.78109391929087
 20
358.16337615114264
 10
424.122852866
 20
357.8216172044335
 10
425.83164759954553
 20
357.8216172044335
 10
426.1734065462546
 20
357.4798582577244
 10
427.54044233309105
 20
357.4798582577244
 10
427.88220127980014
 20
357.1380993110153
 10
429.5909960133457
 20
357.1380993110153
 10
429.9327549600548
 20
356.7963403643062
 10
431.29979074689123
 20
356.7963403643062
 10
431.6415496936003
 20
356.4545814175971
 10
433.35034442714584
 20
356.4545814175971
 10
433.69210337385493
 20
356.112822470888
 10
435.05913916069136
 20
356.112822470888
 10
435.4008981074005
 20
355.7710635241789
 10
437.109692840946
 20
355.7710635241789
 10
437.4514517876551
 20
355.4293045774698
 10
439.5020054679097
 20
355.4293045774698
 10
439.8437644146189
 20
355.0875456307607
 10
441.8943180948735
 20
355.0875456307607
 10
442.2360770415826
 20
354.74578668405155
 10
443.94487177512815
 20
354.74578668405155
 10
444.28663072183724
 20
354.40402773734246
 10
445.99542545538276
 20
354.40402773734246
 10
446.33718440209185
 20
354.06226879063337
 10
448.7294970290556
 20
354.06226879063337
 10
449.0712559757647
 20
353.7205098439243
 10
450.7800507093102
 20
353.7205098439243
 10
451.12180965601937
 20
353.3787508972151
 10
452.8306043895649
 20
353.3787508972151
 10
453.172363336274
 20
353.03699195050604
 10
455.56467596323773
 20
353.03699195050604
 10
455.9064349099468
 20
352.69523300379694
 10
458.2987475369106
 20
352.69523300379694
 10
458.6405064836197
 20
352.35347405708785
 10
460.3493012171652
 20
352.35347405708785
 10
460.6910601638743
 20
352.0117151103787
 10
463.08337279083804
 20
352.0117151103787
 10
463.42513173754713
 20
351.6699561636696
 10
465.8174443645109
 20
351.6699561636696
 10
466.15920331122
 20
351.3281972169605
 10
468.55151593818374
 20
351.3281972169605
 10
468.89327488489283
 20
350.9864382702514
 10
470.26031067172926
 20
350.9864382702514
 10
470.60206961843835
 20
350.6446793235423
 10
472.652623298693
 20
350.6446793235423
 10
472.9943822454021
 20
350.3029203768332
 10
474.7031769789476
 20
350.3029203768332
 10
475.0449359256567
 20
349.9611614301241
 10
477.0954896059114
 20
349.9611614301241
 10
477.4372485526205
 20
349.619402483415
 10
479.4878022328751
 20
349.619402483415
 10
479.82956117958423
 20
349.2776435367059
 10
482.563632753257
 20
349.2776435367059
 10
482.9053916999662
 20
348.93588458999676
 10
484.9559453802208
 20
348.93588458999676
 10
485.2977043269299
 20
348.59412564328767
 10
487.00649906047545
 20
348.59412564328767
 10
487.34825800718454
 20
348.2523666965786
 10
489.05705274073006
 20
348.2523666965786
 10
489.39881168743915
 20
347.9106077498695
 10
491.7911243144029
 20
347.9106077498695
 10
492.132883261112
 20
347.56884880316034
 10
494.86695483478485
 20
347.56884880316034
 10
495.20871378149394
 20
347.22708985645124
 10
496.57574956833037
 20
347.22708985645124
 10
496.91750851503946
 20
346.88533090974215
 10
498.9680621952941
 20
346.88533090974215
 10
499.3098211420032
 20
346.54357196303306
 10
501.3603748222579
 20
346.54357196303306
 10
501.702133768967
 20
346.2018130163239
 10
504.0944463959307
 20
346.2018130163239
 10
504.4362053426398
 20
345.8600540696148
 10
506.14500007618534
 20
345.8600540696148
 10
506.48675902289443
 20
345.5182951229057
 10
508.5373127031491
 20
345.5182951229057
 10
508.8790716498582
 20
345.17653617619663
 10
511.61314322353104
 20
345.17653617619663
 10
511.95490217024013
 20
344.8347772294875
 10
514.6889737439129
 20
344.8347772294875
 10
515.0307326906221
 20
344.4930182827784
 10
517.7648042642949
 20
344.4930182827784
 10
518.1065632110041
 20
344.1512593360693
 10
521.182393731386
 20
344.1512593360693
 10
521.5241526780951
 20
343.8095003893602
 10
523.9164653050589
 20
343.8095003893602
 10
524.258224251768
 20
343.46774144265106
 10
526.6505368787317
 20
343.46774144265106
 10
526.9922958254408
 20
343.12598249594197
 10
529.7263673991137
 20
343.12598249594197
 10
530.0681263458227
 20
342.7842235492329
 10
533.1439568662047
 20
342.7842235492329
 10
533.4857158129138
 20
342.4424646025238
 10
536.5615463332957
 20
342.4424646025238
 10
536.9033052800048
 20
342.1007056558147
 10
537.2450642267139
 20
342.4424646025238
 10
537.586823173423
 20
342.1007056558147
 10
541.6879305339323
 20
342.1007056558147
 10
542.0296894806414
 20
341.75894670910554
 10
545.4472789477325
 20
341.75894670910554
 10
545.7890378944415
 20
341.41718776239645
 10
549.8901452549509
 20
341.41718776239645
 10
550.23190420166
 20
341.07542881568736
 10
555.3582884022966
 20
341.07542881568736
 10
555.7000473490057
 20
340.73366986897827
 10
561.1681904963514
 20
340.73366986897827
 10
561.5099494430605
 20
340.3919109222691
 10
566.2945746969879
 20
340.3919109222691
 10
566.6363336436971
 20
340.05015197556
 10
569.712164164079
 20
340.05015197556
 10
570.0539231107881
 20
339.70839302885094
 10
575.1803073114247
 20
339.70839302885094
 10
575.5220662581338
 20
339.36663408214184
 10
578.2561378318067
 20
339.36663408214184
 10
578.5978967785157
 20
339.0248751354327
 10
581.6737272988977
 20
339.0248751354327
 10
582.0154862456068
 20
338.6831161887236
 10
585.4330757126978
 20
338.6831161887236
 10
585.7748346594069
 20
338.3413572420145
 10
588.1671472863707
 20
338.3413572420145
 10
588.5089062330798
 20
337.9995982953054
 10
593.2935314870073
 20
337.9995982953054
 10
593.6352904337164
 20
337.65783934859627
 10
597.3946388475165
 20
337.65783934859627
 10
597.7363977942256
 20
337.3160804018872
 10
600.8122283146075
 20
337.3160804018872
 10
601.1539872613167
 20
336.9743214551781
 10
605.9386125152441
 20
336.9743214551781
 10
606.2803714619532
 20
336.632562508469
 10
612.7737914494263
 20
336.632562508469
 10
613.1155503961354
 20
336.29080356175984
 10
619.2672114368993
 20
336.29080356175984
 10
619.6089703836084
 20
335.94904461505075
 10
626.7859082644997
 20
335.94904461505075
 10
627.1276672112087
 20
335.60728566834166
 10
636.3551587723546
 20
335.60728566834166
 10
636.6969177190637
 20
335.26552672163257
 10
643.8738555999548
 20
335.26552672163257
 10
644.215614546664
 20
334.9237677749235
 10
651.7343113742643
 20
334.9237677749235
 10
652.0760703209734
 20
334.5820088282143
 10
663.0123566156648
 20
334.5820088282143
 10
663.3541155623739
 20
334.24024988150524
 10
707.0992607411395
 20
334.24024988150524
 10
707.4410196878486
 20
334.5820088282143
 10
707.7827786345576
 20
334.5820088282143
 10
708.1245375812667
 20
334.24024988150524
 10
709.149814421394
 20
334.24024988150524
 10
709.4915733681031
 20
334.5820088282143
 10
724.5289670233038
 20
334.5820088282143
 10
724.8707259700129
 20
334.24024988150524
 10
733.0729406910315
 20
334.24024988150524
 10
733.4146996377406
 20
333.89849093479614
 10
738.8828427850863
 20
333.89849093479614
 10
739.2246017317954
 20
333.55673198808705
 10
746.0597806659774
 20
333.55673198808705
 10
746.4015396126865
 20
333.2149730413779
 10
753.5784774935778
 20
333.2149730413779
 10
753.9202364402869
 20
332.8732140946688
 10
762.1224511613054
 20
332.8732140946688
 10
762.4642101080145
 20
332.5314551479597
 10
768.6158711487784
 20
332.5314551479597
 10
768.9576300954875
 20
332.1896962012506
 10
774.0840142961241
 20
332.1896962012506
 10
774.4257732428332
 20
331.8479372545415
 10
781.6027111237244
 20
331.8479372545415
 10
781.9444700704336
 20
331.5061783078324
 10
782.2862290171427
 20
331.5061783078324
 10
782.6279879638518
 20
331.8479372545415
 10
783.653264803979
 20
331.8479372545415
 10
783.9950237506881
 20
331.5061783078324
 10
793.2225153118341
 20
331.5061783078324
 10
793.5642742585432
 20
331.1644193611233
 10
794.5895510986704
 20
331.1644193611233
 10
794.9313100453795
 20
331.5061783078324
 10
795.2730689920886
 20
331.1644193611233
 10
805.1840784466527
 20
331.1644193611233
 10
805.5258373933618
 20
330.8226604144142
 10
813.0445342209621
 20
330.8226604144142
 10
813.3862931676713
 20
330.48090146770505
 10
819.8797131551443
 20
330.48090146770505
 10
820.2214721018534
 20
330.13914252099596
 10
824.3225794623626
 20
330.13914252099596
 10
824.6643384090717
 20
329.79738357428687
 10
831.1577583965448
 20
329.79738357428687
 10
831.4995173432538
 20
329.4556246275778
 10
836.2841425971814
 20
329.4556246275778
 10
836.6259015438904
 20
329.1138656808686
 10
841.4105267978179
 20
329.1138656808686
 10
841.752285744527
 20
328.77210673415954
 10
848.5874646787091
 20
328.77210673415954
 10
848.9292236254182
 20
328.43034778745044
 10
855.4226436128912
 20
328.43034778745044
 10
855.7644025596003
 20
328.08858884074135
 10
863.2830993872007
 20
328.08858884074135
 10
863.6248583339097
 20
327.74682989403226
 10
868.0677246411282
 20
327.74682989403226
 10
868.4094835878373
 20
327.4050709473231
 10
871.8270730549283
 20
327.4050709473231
 10
872.1688320016374
 20
327.063312000614
 10
876.9534572555649
 20
327.063312000614
 10
877.295216202274
 20
326.7215530539049
 10
882.4216004029106
 20
326.7215530539049
 10
882.7633593496197
 20
326.37979410719583
 10
884.4721540831652
 20
326.37979410719583
 10
884.8139130298742
 20
326.0380351604867
 10
886.5227077634198
 20
326.0380351604867
 10
886.8644667101289
 20
325.6962762137776
 10
888.5732614436745
 20
325.6962762137776
 10
888.9150203903836
 20
325.3545172670685
 10
889.5985382838018
 20
325.3545172670685
 10
889.9402972305109
 20
325.0127583203594
 10
890.2820561772199
 20
325.0127583203594
 10
891.3073330173473
 20
323.9874814802321
 10
891.3073330173473
 20
323.645722533523
 10
893.0161277508928
 20
321.9369277999774
 10
893.0161277508928
 20
320.91165095985014
 10
892.6743688041837
 20
320.91165095985014
 10
891.9908509107655
 20
320.2281330664319
 10
891.9908509107655
 20
319.8863741197228
 10
891.6490919640564
 20
319.5446151730137
 10
891.6490919640564
 20
316.46878465263177
 10
891.9908509107655
 20
316.1270257059226
 10
891.9908509107655
 20
309.63360571844964
 10
892.3326098574746
 20
309.29184677174055
 10
892.3326098574746
 20
308.2665699316132
 10
892.6743688041837
 20
307.9248109849041
 10
892.6743688041837
 20
306.2160162513586
 10
892.3326098574746
 20
305.87425730464946
 10
892.3326098574746
 20
301.4313909974311
 10
892.6743688041837
 20
301.089632050722
 10
892.6743688041837
 20
299.03907837046734
 10
893.0161277508928
 20
298.69731942375824
 10
893.0161277508928
 20
298.01380153034006
 10
892.6743688041837
 20
297.67204258363097
 10
892.6743688041837
 20
294.2544531165399
 10
893.0161277508928
 20
293.9126941698308
 10
893.0161277508928
 20
289.1280689159033
 10
893.3578866976019
 20
288.7863099691942
 10
893.3578866976019
 20
281.9511310350121
 10
893.6996456443111
 20
281.60937208830296
 10
893.6996456443111
 20
274.43243420741175
 10
894.0414045910202
 20
274.09067526070265
 10
894.0414045910202
 20
266.23021948639325
 10
894.3831635377293
 20
265.8884605396841
 10
894.3831635377293
 20
260.42031739233846
 10
894.7249224844384
 20
260.0785584456293
 10
894.7249224844384
 20
236.15543217599193
 10
894.3831635377293
 20
235.81367322928284
 10
894.3831635377293
 20
230.00377113522805
 10
894.0414045910202
 20
229.66201218851893
 10
894.0414045910202
 20
222.14331536091862
 10
893.6996456443111
 20
221.8015564142095
 10
893.6996456443111
 20
220.09276168066398
 10
894.0414045910202
 20
219.75100273395486
 10
894.0414045910202
 20
219.40924378724577
 10
893.6996456443111
 20
219.06748484053665
 10
893.6996456443111
 20
207.44768065242707
 10
893.3578866976019
 20
207.10592170571798
 10
893.3578866976019
 20
200.95426066495406
 10
893.0161277508928
 20
200.61250171824497
 10
893.0161277508928
 20
194.11908173077197
 10
893.3578866976019
 20
193.77732278406285
 10
893.3578866976019
 20
191.7267691038082
 10
893.6996456443111
 20
191.38501015709912
 10
893.6996456443111
 20
187.62566174329896
 10
894.0414045910202
 20
187.28390279658984
 10
894.0414045910202
 20
184.549831222917
 10
894.3831635377293
 20
184.2080722762079
 10
894.3831635377293
 20
181.81575964924417
 10
894.7249224844384
 20
181.47400070253505
 10
894.7249224844384
 20
180.79048280911684
 10
895.0666814311475
 20
180.44872386240775
 10
895.0666814311475
 20
179.4234470222804
 10
895.7501993245656
 20
178.7399291288622
 10
895.7501993245656
 20
177.7146522887349
 10
895.4084403778566
 20
177.37289334202578
 10
895.4084403778566
 20
176.34761650189847
 10
895.0666814311475
 20
176.00585755518935
 10
895.0666814311475
 20
175.32233966177114
 10
894.7249224844384
 20
174.98058071506205
 10
894.7249224844384
 20
172.9300270348074
 10
895.0666814311475
 20
172.58826808809832
 10
895.0666814311475
 20
172.2465091413892
 10
895.4084403778566
 20
171.9047501946801
 10
895.4084403778566
 20
171.2212323012619
 10
895.7501993245656
 20
170.87947335455277
 10
895.7501993245656
 20
169.85419651442547
 10
896.0919582712747
 20
169.51243756771635
 10
896.0919582712747
 20
168.48716072758904
 10
896.4337172179839
 20
168.14540178087992
 10
896.4337172179839
 20
167.12012494075262
 10
896.775476164693
 20
166.77836599404353
 10
896.775476164693
 20
165.06957126049798
 10
897.1172351114021
 20
164.7278123137889
 10
897.1172351114021
 20
164.38605336707977
 10
896.775476164693
 20
164.04429442037068
 10
896.775476164693
 20
162.33549968682513
 10
896.4337172179839
 20
161.99374074011604
 10
896.4337172179839
 20
161.65198179340692
 10
895.7501993245656
 20
160.9684638999887
 10
895.4084403778566
 20
160.9684638999887
 10
895.0666814311475
 20
160.6267049532796
 10
894.3831635377293
 20
160.6267049532796
 10
894.0414045910202
 20
160.28494600657052
 10
893.0161277508928
 20
160.28494600657052
 10
892.6743688041837
 20
159.9431870598614
 10
891.6490919640564
 20
159.9431870598614
 10
891.3073330173473
 20
159.6014281131523
 10
889.2567793370927
 20
159.6014281131523
 10
888.9150203903836
 20
159.2596691664432
 10
884.1303951364561
 20
159.2596691664432
 10
883.788636189747
 20
158.9179102197341
 10
879.3457698825287
 20
158.9179102197341
 10
879.0040109358195
 20
158.57615127302498
 10
877.9787340956922
 20
158.57615127302498
 10
877.6369751489831
 20
158.23439232631588
 10
862.2578225470734
 20
158.23439232631588
 10
861.9160636003642
 20
157.89263337960676
 10
855.7644025596003
 20
157.89263337960676
 10
855.4226436128912
 20
157.55087443289767
 10
846.5369109984545
 20
157.55087443289767
 10
846.1951520517454
 20
157.20911548618855
 10
833.2083120767993
 20
157.20911548618855
 10
832.8665531300902
 20
156.86735653947946
 10
826.0313741959081
 20
156.86735653947946
 10
825.689615249199
 20
157.20911548618855
 10
823.2973026222353
 20
157.20911548618855
 10
822.9555436755262
 20
156.86735653947946
 10
805.1840784466527
 20
156.86735653947946
 10
804.8423194999436
 20
156.52559759277034
 10
795.2730689920886
 20
156.52559759277034
 10
794.9313100453795
 20
156.18383864606125
 10
794.2477921519613
 20
156.18383864606125
 10
793.9060332052522
 20
156.52559759277034
 10
792.5389974184158
 20
156.52559759277034
 10
792.1972384717067
 20
156.18383864606125
 10
784.3367826973972
 20
156.18383864606125
 10
783.9950237506881
 20
155.84207969935213
 10
775.4510500829605
 20
155.84207969935213
 10
775.1092911362514
 20
155.50032075264303
 10
770.324665882324
 20
155.50032075264303
 10
769.9829069356148
 20
155.1585618059339
 10
759.0466206409235
 20
155.1585618059339
 10
758.7048616942143
 20
154.81680285922482
 10
755.9707901205416
 20
154.81680285922482
 10
755.6290311738323
 20
154.4750439125157
 10
747.4268164528139
 20
154.4750439125157
 10
747.0850575061047
 20
154.81680285922482
 10
742.9839501455955
 20
154.81680285922482
 10
742.6421911988864
 20
154.4750439125157
 10
736.4905301581225
 20
154.4750439125157
 10
736.1487712114134
 20
154.1332849658066
 10
726.9212796502675
 20
154.1332849658066
 10
726.5795207035584
 20
153.7915260190975
 10
724.1872080765946
 20
153.7915260190975
 10
723.8454491298855
 20
154.1332849658066
 10
721.1113775562127
 20
154.1332849658066
 10
720.7696186095036
 20
153.7915260190975
 10
718.3773059825398
 20
153.7915260190975
 10
718.0355470358307
 20
154.1332849658066
 10
715.3014754621579
 20
154.1332849658066
 10
714.9597165154488
 20
153.7915260190975
 10
714.2761986220306
 20
153.7915260190975
 10
713.9344396753215
 20
154.1332849658066
 10
685.2266881517567
 20
154.1332849658066
 10
684.8849292050476
 20
153.7915260190975
 10
683.5178934182111
 20
153.7915260190975
 10
683.176134471502
 20
154.1332849658066
 10
676.682714484029
 20
154.1332849658066
 10
676.3409555373199
 20
153.7915260190975
 10
675.3156786971925
 20
153.7915260190975
 10
674.9739197504834
 20
154.1332849658066
 10
671.8980892301015
 20
154.1332849658066
 10
671.5563302833924
 20
153.7915260190975
 10
668.1387408163014
 20
153.7915260190975
 10
667.7969818695923
 20
154.1332849658066
 10
667.4552229228832
 20
154.1332849658066
 10
667.1134639761741
 20
153.7915260190975
 10
654.8101418946462
 20
153.7915260190975
 10
654.4683829479371
 20
153.4497670723884
 10
652.7595882143917
 20
153.4497670723884
 10
652.4178292676825
 20
153.7915260190975
 10
645.9244092802095
 20
153.7915260190975
 10
645.5826503335004
 20
153.4497670723884
 10
634.3046050920999
 20
153.4497670723884
 10
633.9628461453908
 20
153.1080081256793
 10
627.4694261579178
 20
153.1080081256793
 10
627.1276672112087
 20
152.76624917897018
 10
618.241934596772
 20
152.76624917897018
 10
617.9001756500628
 20
152.4244902322611
 10
604.9133356751169
 20
152.4244902322611
 10
604.5715767284078
 20
152.08273128555197
 10
603.8880588349896
 20
152.08273128555197
 10
603.5462998882804
 20
152.4244902322611
 10
603.2045409415713
 20
152.4244902322611
 10
602.8627819948622
 20
152.08273128555197
 10
595.0023262205527
 20
152.08273128555197
 10
594.6605672738436
 20
151.74097233884288
 10
566.9780925904062
 20
151.74097233884288
 10
566.6363336436971
 20
151.39921339213376
 10
549.2066273615326
 20
151.39921339213376
 10
548.8648684148235
 20
151.05745444542467
 10
544.4220021076052
 20
151.05745444542467
 10
544.0802431608961
 20
150.71569549871555
 10
539.9791358003868
 20
150.71569549871555
 10
539.6373768536777
 20
150.37393655200646
 10
535.8780284398775
 20
150.37393655200646
 10
535.5362694931684
 20
150.03217760529733
 10
531.09340318595
 20
150.03217760529733
 10
530.7516442392409
 20
149.69041865858824
 10
525.9670189853134
 20
149.69041865858824
 10
525.6252600386043
 20
149.34865971187912
 10
523.2329474116406
 20
149.34865971187912
 10
522.8911884649315
 20
149.00690076517003
 10
518.7900811044223
 20
149.00690076517003
 10
518.4483221577132
 20
148.6651418184609
 10
485.639463273639
 20
148.6651418184609
 10
485.2977043269299
 20
149.00690076517003
 10
484.6141864335117
 20
149.00690076517003
 10
484.2724274868026
 20
148.6651418184609
 10
464.45040857767447
 20
148.6651418184609
 10
464.1086496309654
 20
148.32338287175182
 10
454.8811580698195
 20
148.32338287175182
 10
454.5393991231104
 20
147.9816239250427
 10
449.75477386918294
 20
147.9816239250427
 10
449.4130149224738
 20
147.6398649783336
 10
442.5778359882917
 20
147.6398649783336
 10
442.2360770415826
 20
147.29810603162449
 10
437.109692840946
 20
147.29810603162449
 10
436.76793389423693
 20
146.9563470849154
 10
427.19868338638196
 20
146.9563470849154
 10
426.85692443967287
 20
146.61458813820627
 10
420.36350445219983
 20
146.61458813820627
 10
420.02174550549074
 20
146.27282919149718
 10
410.45249499763577
 20
146.27282919149718
 10
410.1107360509267
 20
145.93107024478806
 10
403.9590750101628
 20
145.93107024478806
 10
403.61731606345364
 20
145.58931129807897
 10
399.5162087029444
 20
145.58931129807897
 10
399.1744497562353
 20
145.24755235136988
 10
391.65575292863497
 20
145.24755235136988
 10
391.3139939819259
 20
144.90579340466076
 10
387.2128866214166
 20
144.90579340466076
 10
386.8711276747075
 20
144.56403445795166
 10
382.42826136748914
 20
144.56403445795166
 10
382.08650242078
 20
144.22227551124254
 10
375.2513234865979
 20
144.22227551124254
 10
374.9095645398888
 20
143.88051656453345
 10
374.2260466464706
 20
143.88051656453345
 10
373.8842876997615
 20
144.22227551124254
 10
373.54252875305235
 20
144.22227551124254
 10
373.20076980634326
 20
143.88051656453345
 10
367.73262665899756
 20
143.88051656453345
 10
367.39086771228847
 20
143.53875761782433
 10
362.9480014050701
 20
143.53875761782433
 10
362.606242458361
 20
143.19699867111524
 10
362.2644835116519
 20
143.19699867111524
 10
361.92272456494277
 20
143.53875761782433
 10
361.5809656182337
 20
143.19699867111524
 10
353.3787508972151
 20
143.19699867111524
 10
353.03699195050604
 20
142.85523972440612
 10
348.59412564328767
 20
142.85523972440612
 10
348.2523666965786
 20
142.51348077769703
 10
344.1512593360693
 20
142.51348077769703
 10
343.8095003893602
 20
142.1717218309879
 10
333.89849093479614
 20
142.1717218309879
 10
333.55673198808705
 20
141.8299628842788
 10
327.4050709473231
 20
141.8299628842788
 10
327.063312000614
 20
141.4882039375697
 10
316.46878465263177
 20
141.4882039375697
 10
316.1270257059226
 20
141.1464449908606
 10
314.7599899190862
 20
141.1464449908606
 10
314.4182309723771
 20
141.4882039375697
 10
314.076472025668
 20
141.1464449908606
 10
305.87425730464946
 20
141.1464449908606
 10
305.53249835794037
 20
141.4882039375697
 10
303.1401857309766
 20
141.4882039375697
 10
302.7984267842675
 20
141.1464449908606
 10
289.8115868093215
 20
141.1464449908606
 10
289.4698278626124
 20
140.80468604415148
 10
288.7863099691942
 20
140.80468604415148
 10
288.4445510224851
 20
141.1464449908606
 10
288.102792075776
 20
141.1464449908606
 10
287.7610331290669
 20
140.80468604415148
 10
286.73575628893957
 20
140.80468604415148
 10
286.3939973422305
 20
141.1464449908606
 10
286.05223839552133
 20
141.1464449908606
 10
285.71047944881224
 20
140.80468604415148
 10
273.40715736728447
 20
140.80468604415148
 10
273.0653984205753
 20
140.4629270974424
 10
272.7236394738662
 20
140.4629270974424
 10
272.38188052715714
 20
140.80468604415148
 10
271.6983626337389
 20
140.80468604415148
 10
271.3566036870298
 20
140.4629270974424
 10
266.57197843310234
 20
140.4629270974424
 10
266.23021948639325
 20
140.12116815073327
 10
265.8884605396841
 20
140.12116815073327
 10
265.546701592975
 20
140.4629270974424
 10
265.2049426462659
 20
140.4629270974424
 10
264.8631836995568
 20
140.12116815073327
 10
259.7367994989202
 20
140.12116815073327
 10
259.3950405522111
 20
139.77940920402418
 10
259.05328160550204
 20
140.12116815073327
 10
258.3697637120838
 20
140.12116815073327
 10
258.0280047653747
 20
139.77940920402418
 10
253.58513845815634
 20
139.77940920402418
 10
253.24337951144722
 20
139.43765025731506
 10
252.559861618029
 20
139.43765025731506
 10
252.2181026713199
 20
139.77940920402418
 10
251.8763437246108
 20
139.77940920402418
 10
251.5345847779017
 20
139.43765025731506
 10
246.40820057726512
 20
139.43765025731506
 10
246.066441630556
 20
139.09589131060596
 10
241.62357532333763
 20
139.09589131060596
 10
241.2818163766285
 20
138.75413236389684
 10
233.7631195490282
 20
138.75413236389684
 10
233.42136060231908
 20
138.41237341718775
 10
229.32025324180984
 20
138.41237341718775
 10
228.97849429510072
 20
138.07061447047866
 10
225.90266377471877
 20
138.07061447047866
 10
225.56090482800968
 20
137.72885552376954
 10
225.21914588130056
 20
137.72885552376954
 10
224.87738693459147
 20
138.07061447047866
 10
224.53562798788235
 20
137.72885552376954
 10
215.3081364267365
 20
137.72885552376954
 10
214.9663774800274
 20
137.38709657706045
 10
208.13119854584528
 20
137.38709657706045
 10
207.7894395991362
 20
137.04533763035133
 10
207.44768065242707
 20
137.04533763035133
 10
207.10592170571798
 20
137.38709657706045
 10
201.29601961166318
 20
137.38709657706045
 10
200.95426066495406
 20
137.04533763035133
 10
190.35973331697178
 20
137.04533763035133
 10
190.0179743702627
 20
136.70357868364223
 10
187.62566174329896
 20
136.70357868364223
 10
187.28390279658984
 20
136.3618197369331
 10
184.8915901696261
 20
136.3618197369331
 10
184.549831222917
 20
136.02006079022402
 10
182.15751859595326
 20
136.02006079022402
 10
181.81575964924417
 20
135.6783018435149
 10
178.056411235444
 20
135.6783018435149
 10
177.7146522887349
 20
136.02006079022402
 10
173.27178598151653
 20
136.02006079022402
 10
172.9300270348074
 20
135.6783018435149
 10
168.48716072758904
 20
135.6783018435149
 10
168.14540178087992
 20
135.3365428968058
 10
160.6267049532796
 20
135.3365428968058
 10
160.28494600657052
 20
134.9947839500967
 10
156.18383864606125
 20
134.9947839500967
 10
155.84207969935213
 20
134.6530250033876
 10
153.4497670723884
 20
134.6530250033876
 10
153.1080081256793
 20
134.31126605667848
 10
144.56403445795166
 20
134.31126605667848
 10
144.22227551124254
 20
133.96950710996938
 10
138.07061447047866
 20
133.96950710996938
 10
137.72885552376954
 20
133.62774816326026
 10
133.28598921655117
 20
133.62774816326026
 10
132.94423026984205
 20
133.28598921655117
 10
116.19804188109589
 20
133.28598921655117
 10
115.85628293438678
 20
132.94423026984205
 10
111.41341662716842
 20
132.94423026984205
 10
111.07165768045931
 20
132.60247132313296
 10
102.18592506602256
 20
132.60247132313296
 10
101.84416611931346
 20
132.26071237642384
 10
95.35074613184045
 20
132.26071237642384
 10
95.00898718513135
 20
131.91895342971475
 10
90.22436193120387
 20
131.91895342971475
 10
89.88260298449477
 20
132.26071237642384
 10
89.54084403778566
 20
132.26071237642384
 10
89.19908509107655
 20
131.91895342971475
 10
72.11113775562127
 20
131.91895342971475
 10
71.76937880891217
 20
131.57719448300563
 10
64.59244092802095
 20
131.57719448300563
 10
64.25068198131184
 20
131.91895342971475
 10
61.174851460929894
 20
131.91895342971475
 10
60.83309251422079
 20
131.57719448300563
 10
58.099020940547945
 20
131.57719448300563
 10
57.75726199383884
 20
131.23543553629654
 10
55.023190420165996
 20
131.23543553629654
 10
54.68143147345689
 20
130.89367658958744
 10
44.08690412547462
 20
130.89367658958744
 10
43.74514517876551
 20
131.23543553629654
 10
37.25172519129251
 20
131.23543553629654
 10
36.9099662445834
 20
131.57719448300563
 10
30.7583052038195
 20
131.57719448300563
 10
30.416546257110394
 20
131.91895342971475
 10
26.657197843310232
 20
131.91895342971475
 10
26.31543889660113
 20
132.26071237642384
 10
22.55609048280097
 20
132.26071237642384
 10
22.214331536091862
 20
131.91895342971475
 10
18.4549831222917
 20
131.91895342971475
 10
18.113224175582594
 20
131.57719448300563
 10
13.328598921655116
 20
131.57719448300563
 10
12.986839974946012
 20
131.23543553629654
 10
11.961563134818695
 20
131.23543553629654
 10
11.619804188109589
 20
130.89367658958744
 10
9.22749156114585
 20
130.89367658958744
 10
8.885732614436744
 20
130.55191764287832
 10
5.468143147345689
 20
130.55191764287832
 10
5.126384200636584
 20
130.21015869616923
 10
1.3670357868364222
 20
130.21015869616923
 10
1.0252768401273167
 20
130.55191764287832
 10
0.0
 20
130.55191764287832
  0
ENDSEC
  0
SECTION
  2
OBJECTS
  0
DICTIONARY
  5
A
330
0
100
AcDbDictionary
281
1
  3
ACAD_COLOR
350
B
  3
ACAD_GROUP
350
C
  3
ACAD_LAYOUT
350
D
  3
ACAD_MATERIAL
350
E
  3
ACAD_MLEADERSTYLE
350
F
  3
ACAD_MLINESTYLE
350
10
  3
ACAD_PLOTSETTINGS
350
11
  3
ACAD_PLOTSTYLENAME
350
12
  3
ACAD_SCALELIST
350
14
  3
ACAD_TABLESTYLE
350
15
  3
ACAD_VISUALSTYLE
350
16
  3
EZDXF_META
350
2D
  0
DICTIONARY
  5
B
330
A
100
AcDbDictionary
281
1
  0
DICTIONARY
  5
C
330
A
100
AcDbDictionary
281
1
  0
DICTIONARY
  5
D
330
A
100
AcDbDictionary
281
1
  3
Model
350
1A
  3
Layout1
350
1E
  0
DICTIONARY
  5
E
330
A
100
AcDbDictionary
281
1
  3
ByBlock
350
1F
  3
ByLayer
350
20
  3
Global
350
21
  0
DICTIONARY
  5
F
330
A
100
AcDbDictionary
281
1
  3
Standard
350
2C
  0
DICTIONARY
  5
10
330
A
100
AcDbDictionary
281
1
  3
Standard
350
22
  0
DICTIONARY
  5
11
330
A
100
AcDbDictionary
281
1
  0
ACDBDICTIONARYWDFLT
  5
12
330
A
100
AcDbDictionary
281
1
  3
Normal
350
13
100
AcDbDictionaryWithDefault
340
13
  0
ACDBPLACEHOLDER
  5
13
330
12
  0
DICTIONARY
  5
14
330
A
100
AcDbDictionary
281
1
  0
DICTIONARY
  5
15
330
A
100
AcDbDictionary
281
1
  0
DICTIONARY
  5
16
330
A
100
AcDbDictionary
281
1
  3
2dWireframe
350
5A
  3
Basic
350
5B
  3
Brighten
350
5C
  3
ColorChange
350
5D
  3
Conceptual
350
5E
  3
Dim
350
5F
  3
EdgeColorOff
350
60
  3
Facepattern
350
61
  3
Flat
350
62
  3
FlatWithEdges
350
63
  3
Gouraud
350
64
  3
GouraudWithEdges
350
65
  3
Hidden
350
66
  3
JitterOff
350
67
  3
Linepattern
350
68
  3
Modeling
350
69
  3
OverhangOff
350
6A
  3
Realistic
350
6B
  3
Shaded
350
6C
  3
Shaded with edges
350
6D
  3
Shades of Gray
350
6E
  3
Sketchy
350
6F
  3
Thicken
350
70
  3
Wireframe
350
71
  3
X-Ray
350
72
  0
LAYOUT
  5
1A
330
D
100
AcDbPlotSettings
  1

  4
A3
  6

 40
7.5
 41
20.0
 42
7.5
 43
20.0
 44
420.0
 45
297.0
 46
0.0
 47
0.0
 48
0.0
 49
0.0
140
0.0
141
0.0
142
1.0
143
1.0
 70
1024
 72
1
 73
0
 74
5
  7

 75
16
 76
0
 77
2
 78
300
147
1.0
148
0.0
149
0.0
100
AcDbLayout
  1
Model
 70
1
 71
0
 10
0.0
 20
0.0
 11
420.0
 21
297.0
 12
0.0
 22
0.0
 32
0.0
 14
1e+20
 24
1e+20
 34
1e+20
 15
-1e+20
 25
-1e+20
 35
-1e+20
146
0.0
 13
0.0
 23
0.0
 33
0.0
 16
1.0
 26
0.0
 36
0.0
 17
0.0
 27
1.0
 37
0.0
 76
1
330
17
  0
LAYOUT
  5
1E
330
D
100
AcDbPlotSettings
  1

  4
A3
  6

 40
7.5
 41
20.0
 42
7.5
 43
20.0
 44
420.0
 45
297.0
 46
0.0
 47
0.0
 48
0.0
 49
0.0
140
0.0
141
0.0
142
1.0
143
1.0
 70
0
 72
1
 73
0
 74
5
  7

 75
16
 76
0
 77
2
 78
300
147
1.0
148
0.0
149
0.0
100
AcDbLayout
  1
Layout1
 70
1
 71
1
 10
0.0
 20
0.0
 11
420.0
 21
297.0
 12
0.0
 22
0.0
 32
0.0
 14
1e+20
 24
1e+20
 34
1e+20
 15
-1e+20
 25
-1e+20
 35
-1e+20
146
0.0
 13
0.0
 23
0.0
 33
0.0
 16
1.0
 26
0.0
 36
0.0
 17
0.0
 27
1.0
 37
0.0
 76
1
330
1B
  0
MATERIAL
  5
1F
102
{ACAD_REACTORS
330
E
102
}
330
E
100
AcDbMaterial
  1
ByBlock
  2

 70
0
 40
1.0
 71
1
 41
1.0
 91
-1023410177
 42
1.0
 72
1
  3

 73
1
 74
1
 75
1
 44
0.5
 73
0
 45
1.0
 46
1.0
 77
1
  4

 78
1
 79
1
170
1
 48
1.0
171
1
  6

172
1
173
1
174
1
140
1.0
141
1.0
175
1
  7

176
1
177
1
178
1
143
1.0
179
1
  8

270
1
271
1
272
1
145
1.0
146
1.0
273
1
  9

274
1
275
1
276
1
 42
1.0
 72
1
  3

 73
1
 74
1
 75
1
 94
63
  0
MATERIAL
  5
20
102
{ACAD_REACTORS
330
E
102
}
330
E
100
AcDbMaterial
  1
ByLayer
  2

 70
0
 40
1.0
 71
1
 41
1.0
 91
-1023410177
 42
1.0
 72
1
  3

 73
1
 74
1
 75
1
 44
0.5
 73
0
 45
1.0
 46
1.0
 77
1
  4

 78
1
 79
1
170
1
 48
1.0
171
1
  6

172
1
173
1
174
1
140
1.0
141
1.0
175
1
  7

176
1
177
1
178
1
143
1.0
179
1
  8

270
1
271
1
272
1
145
1.0
146
1.0
273
1
  9

274
1
275
1
276
1
 42
1.0
 72
1
  3

 73
1
 74
1
 75
1
 94
63
  0
MATERIAL
  5
21
102
{ACAD_REACTORS
330
E
102
}
330
E
100
AcDbMaterial
  1
Global
  2

 70
0
 40
1.0
 71
1
 41
1.0
 91
-1023410177
 42
1.0
 72
1
  3

 73
1
 74
1
 75
1
 44
0.5
 73
0
 45
1.0
 46
1.0
 77
1
  4

 78
1
 79
1
170
1
 48
1.0
171
1
  6

172
1
173
1
174
1
140
1.0
141
1.0
175
1
  7

176
1
177
1
178
1
143
1.0
179
1
  8

270
1
271
1
272
1
145
1.0
146
1.0
273
1
  9

274
1
275
1
276
1
 42
1.0
 72
1
  3

 73
1
 74
1
 75
1
 94
63
  0
MLINESTYLE
  5
22
102
{ACAD_REACTORS
330
10
102
}
330
10
100
AcDbMlineStyle
  2
Standard
 70
0
  3

 62
256
 51
90.0
 52
90.0
 71
2
 49
0.5
 62
256
  6
BYLAYER
 49
-0.5
 62
256
  6
BYLAYER
  0
MLEADERSTYLE
  5
2C
102
{ACAD_REACTORS
330
F
102
}
330
F
100
AcDbMLeaderStyle
179
2
170
2
171
1
172
0
 90
2
 40
0.0
 41
0.0
173
1
 91
-1056964608
 92
-2
290
1
 42
2.0
291
1
 43
8.0
  3
Standard
 44
4.0
300

342
29
174
1
175
1
176
0
178
1
 93
-1056964608
 45
4.0
292
0
297
0
 46
4.0
 94
-1056964608
 47
1.0
 49
1.0
140
1.0
294
1
141
0.0
177
0
142
1.0
295
0
296
0
143
3.75
271
0
272
9
273
9
  0
DICTIONARY
  5
2D
330
A
100
AcDbDictionary
280
1
281
1
  3
CREATED_BY_EZDXF
350
2E
  3
WRITTEN_BY_EZDXF
350
8E
  0
DICTIONARYVAR
  5
2E
330
2D
100
DictionaryVariables
280
0
  1
1.4.2 @ 2025-06-04T15:40:11.545285+00:00
  0
VISUALSTYLE
  5
5A
102
{ACAD_REACTORS
330
16
102
}
330
16
100
AcDbVisualStyle
  2
2dWireframe
 70
4
177
3
291
0
 70
58
 90
2
176
1
 90
2
176
1
 90
0
176
1
 90
0
176
1
 40
0.6
176
1
 40
30.0
176
1
 62
7
420
16777215
176
1
 90
1
176
1
 90
4
176
1
 62
7
176
1
 62
257
176
1
 90
1
176
1
 90
1
176
1
 40
1.0
176
1
 90
8
176
1
 62
7
176
1
 40
1.0
176
1
 90
1
176
1
 90
6
176
1
 90
2
176
1
 62
7
176
1
 90
5
176
1
 90
0
176
1
 90
0
176
1
290
0
176
1
 90
1
176
1
 40
0.0
176
1
 90
0
176
1
290
1
176
1
290
1
176
1
290
0
176
1
290
0
176
1
290
0
176
1
290
0
176
1
290
0
176
1
290
0
176
1
290
0
176
1
 90
50
176
1
 40
0.0
176
1
 40
1.0
176
1
 90
0
176
1
 62
18
420
0
176
1
 90
50
176
1
 90
3
176
1
 62
5
420
255
176
1
290
0
176
1
 90
50
176
1
 90
50
176
1
 90
50
176
1
290
0
176
1
 90
50
176
1
 62
256
176
0
 40
1.0
176
0
 90
2
176
1
  1
strokes_ogs.tif
176
1
290
0
176
1
 40
1.0
176
1
 40
1.0
176
1
  0
VISUALSTYLE
  5
5B
102
{ACAD_REACTORS
330
16
102
}
330
16
100
AcDbVisualStyle
  2
Basic
 70
7
177
3
291
1
 70
58
 90
2
176
1
 90
2
176
1
 90
0
176
1
 90
1
176
1
 40
0.6
176
1
 40
30.0
176
1
 62
7
420
16777215
176
1
 90
1
176
1
 90
4
176
1
 62
7
176
1
 62
257
176
1
 90
1
176
1
 90
1
176
1
 40
1.0
176
1
 90
8
176
1
 62
7
176
1
 40
1.0
176
1
 90
1
176
1
 90
6
176
1
 90
2
176
1
 62
7
176
1
 90
5
176
1
 90
0
176
1
 90
0
176
1
290
0
176
1
 90
1
176
1
 40
0.0
176
1
 90
0
176
1
290
0
176
1
290
1
176
1
290
1
176
1
290
0
176
1
290
0
176
1
290
0
176
1
290
0
176
1
290
0
176
1
290
0
176
1
 90
50
176
1
 40
0.0
176
1
 40
1.0
176
1
 90
0
176
1
 62
18
420
0
176
1
 90
50
176
1
 90
3
176
1
 62
5
420
255
176
1
290
0
176
1
 90
50
176
1
 90
50
176
1
 90
50
176
1
290
0
176
1
 90
50
176
1
 62
256
176
0
 40
1.0
176
0
 90
2
176
1
  1
strokes_ogs.tif
176
1
290
0
176
1
 40
1.0
176
1
 40
1.0
176
1
  0
VISUALSTYLE
  5
5C
102
{ACAD_REACTORS
330
16
102
}
330
16
100
AcDbVisualStyle
  2
Brighten
 70
12
177
3
291
1
 70
58
 90
2
176
1
 90
2
176
1
 90
0
176
1
 90
2
176
1
 40
0.6
176
1
 40
30.0
176
1
 62
7
420
16777215
176
1
 90
1
176
1
 90
4
176
1
 62
7
176
1
 62
257
176
1
 90
1
176
1
 90
1
176
1
 40
1.0
176
1
 90
8
176
1
 62
7
176
1
 40
1.0
176
1
 90
1
176
1
 90
6
176
1
 90
2
176
1
 62
7
176
1
 90
5
176
1
 90
0
176
1
 90
0
176
1
290
0
176
1
 90
1
176
1
 40
0.0
176
1
 90
0
176
1
290
0
176
1
290
1
176
1
290
1
176
1
290
0
176
1
290
0
176
1
290
0
176
1
290
0
176
1
290
0
176
1
290
0
176
1
 90
50
176
1
 40
0.0
176
1
 40
1.0
176
1
 90
0
176
1
 62
18
420
0
176
1
 90
50
176
1
 90
3
176
1
 62
5
420
255
176
1
290
0
176
1
 90
50
176
1
 90
50
176
1
 90
50
176
1
290
0
176
1
 90
50
176
1
 62
256
176
0
 40
1.0
176
0
 90
2
176
1
  1
strokes_ogs.tif
176
1
290
0
176
1
 40
1.0
176
1
 40
1.0
176
1
  0
VISUALSTYLE
  5
5D
102
{ACAD_REACTORS
330
16
102
}
330
16
100
AcDbVisualStyle
  2
ColorChange
 70
16
177
3
291
1
 70
58
 90
2
176
1
 90
2
176
1
 90
0
176
1
 90
2
176
1
 40
0.6
176
1
 40
30.0
176
1
 62
7
420
16777215
176
1
 90
1
176
1
 90
4
176
1
 62
7
176
1
 62
257
176
1
 90
1
176
1
 90
1
176
1
 40
1.0
176
1
 90
8
176
1
 62
7
176
1
 40
1.0
176
1
 90
1
176
1
 90
6
176
1
 90
2
176
1
 62
7
176
1
 90
5
176
1
 90
0
176
1
 90
0
176
1
290
0
176
1
 90
1
176
1
 40
0.0
176
1
 90
0
176
1
290
0
176
1
290
1
176
1
290
1
176
1
290
0
176
1
290
0
176
1
290
0
176
1
290
0
176
1
290
0
176
1
290
0
176
1
 90
50
176
1
 40
0.0
176
1
 40
1.0
176
1
 90
0
176
1
 62
18
420
0
176
1
 90
50
176
1
 90
3
176
1
 62
5
420
255
176
1
290
0
176
1
 90
50
176
1
 90
50
176
1
 90
50
176
1
290
0
176
1
 90
50
176
1
 62
256
176
0
 40
1.0
176
0
 90
2
176
1
  1
strokes_ogs.tif
176
1
290
0
176
1
 40
1.0
176
1
 40
1.0
176
1
  0
VISUALSTYLE
  5
5E
102
{ACAD_REACTORS
330
16
102
}
330
16
100
AcDbVisualStyle
  2
Conceptual
 70
9
177
3
291
0
 70
58
 90
2
176
1
 90
2
176
1
 90
0
176
1
 90
3
176
1
 40
0.6
176
1
 40
30.0
176
1
 62
7
420
16777215
176
1
 90
1
176
1
 90
4
176
1
 62
7
176
1
 62
257
176
1
 90
1
176
1
 90
1
176
1
 40
1.0
176
1
 90
8
176
1
 62
7
176
1
 40
1.0
176
1
 90
1
176
1
 90
6
176
1
 90
2
176
1
 62
7
176
1
 90
5
176
1
 90
0
176
1
 90
0
176
1
290
0
176
1
 90
1
176
1
 40
0.0
176
1
 90
0
176
1
290
0
176
1
290
1
176
1
290
1
176
1
290
0
176
1
290
0
176
1
290
0
176
1
290
0
176
1
290
0
176
1
290
0
176
1
 90
50
176
1
 40
0.0
176
1
 40
1.0
176
1
 90
0
176
1
 62
18
420
0
176
1
 90
50
176
1
 90
3
176
1
 62
5
420
255
176
1
290
0
176
1
 90
50
176
1
 90
50
176
1
 90
50
176
1
290
0
176
1
 90
50
176
1
 62
256
176
0
 40
1.0
176
0
 90
2
176
1
  1
strokes_ogs.tif
176
1
290
0
176
1
 40
1.0
176
1
 40
1.0
176
1
  0
VISUALSTYLE
  5
5F
102
{ACAD_REACTORS
330
16
102
}
330
16
100
AcDbVisualStyle
  2
Dim
 70
11
177
3
291
1
 70
58
 90
2
176
1
 90
2
176
1
 90
0
176
1
 90
2
176
1
 40
0.6
176
1
 40
30.0
176
1
 62
7
420
16777215
176
1
 90
1
176
1
 90
4
176
1
 62
7
176
1
 62
257
176
1
 90
1
176
1
 90
1
176
1
 40
1.0
176
1
 90
8
176
1
 62
7
176
1
 40
1.0
176
1
 90
1
176
1
 90
6
176
1
 90
2
176
1
 62
7
176
1
 90
5
176
1
 90
0
176
1
 90
0
176
1
290
0
176
1
 90
1
176
1
 40
0.0
176
1
 90
0
176
1
290
0
176
1
290
1
176
1
290
1
176
1
290
0
176
1
290
0
176
1
290
0
176
1
290
0
176
1
290
0
176
1
290
0
176
1
 90
50
176
1
 40
0.0
176
1
 40
1.0
176
1
 90
0
176
1
 62
18
420
0
176
1
 90
50
176
1
 90
3
176
1
 62
5
420
255
176
1
290
0
176
1
 90
50
176
1
 90
50
176
1
 90
50
176
1
290
0
176
1
 90
50
176
1
 62
256
176
0
 40
1.0
176
0
 90
2
176
1
  1
strokes_ogs.tif
176
1
290
0
176
1
 40
1.0
176
1
 40
1.0
176
1
  0
VISUALSTYLE
  5
60
102
{ACAD_REACTORS
330
16
102
}
330
16
100
AcDbVisualStyle
  2
EdgeColorOff
 70
22
177
3
291
1
 70
58
 90
2
176
1
 90
2
176
1
 90
0
176
1
 90
2
176
1
 40
0.6
176
1
 40
30.0
176
1
 62
7
420
16777215
176
1
 90
1
176
1
 90
4
176
1
 62
7
176
1
 62
257
176
1
 90
1
176
1
 90
1
176
1
 40
1.0
176
1
 90
8
176
1
 62
7
176
1
 40
1.0
176
1
 90
1
176
1
 90
6
176
1
 90
2
176
1
 62
7
176
1
 90
5
176
1
 90
0
176
1
 90
0
176
1
290
0
176
1
 90
1
176
1
 40
0.0
176
1
 90
0
176
1
290
0
176
1
290
1
176
1
290
1
176
1
290
0
176
1
290
0
176
1
290
0
176
1
290
0
176
1
290
0
176
1
290
0
176
1
 90
50
176
1
 40
0.0
176
1
 40
1.0
176
1
 90
0
176
1
 62
18
420
0
176
1
 90
50
176
1
 90
3
176
1
 62
5
420
255
176
1
290
0
176
1
 90
50
176
1
 90
50
176
1
 90
50
176
1
290
0
176
1
 90
50
176
1
 62
256
176
0
 40
1.0
176
0
 90
2
176
1
  1
strokes_ogs.tif
176
1
290
0
176
1
 40
1.0
176
1
 40
1.0
176
1
  0
VISUALSTYLE
  5
61
102
{ACAD_REACTORS
330
16
102
}
330
16
100
AcDbVisualStyle
  2
Facepattern
 70
15
177
3
291
1
 70
58
 90
2
176
1
 90
2
176
1
 90
0
176
1
 90
2
176
1
 40
0.6
176
1
 40
30.0
176
1
 62
7
420
16777215
176
1
 90
1
176
1
 90
4
176
1
 62
7
176
1
 62
257
176
1
 90
1
176
1
 90
1
176
1
 40
1.0
176
1
 90
8
176
1
 62
7
176
1
 40
1.0
176
1
 90
1
176
1
 90
6
176
1
 90
2
176
1
 62
7
176
1
 90
5
176
1
 90
0
176
1
 90
0
176
1
290
0
176
1
 90
1
176
1
 40
0.0
176
1
 90
0
176
1
290
0
176
1
290
1
176
1
290
1
176
1
290
0
176
1
290
0
176
1
290
0
176
1
290
0
176
1
290
0
176
1
290
0
176
1
 90
50
176
1
 40
0.0
176
1
 40
1.0
176
1
 90
0
176
1
 62
18
420
0
176
1
 90
50
176
1
 90
3
176
1
 62
5
420
255
176
1
290
0
176
1
 90
50
176
1
 90
50
176
1
 90
50
176
1
290
0
176
1
 90
50
176
1
 62
256
176
0
 40
1.0
176
0
 90
2
176
1
  1
strokes_ogs.tif
176
1
290
0
176
1
 40
1.0
176
1
 40
1.0
176
1
  0
VISUALSTYLE
  5
62
102
{ACAD_REACTORS
330
16
102
}
330
16
100
AcDbVisualStyle
  2
Flat
 70
0
177
3
291
1
 70
58
 90
2
176
1
 90
2
176
1
 90
0
176
1
 90
2
176
1
 40
0.6
176
1
 40
30.0
176
1
 62
7
420
16777215
176
1
 90
1
176
1
 90
4
176
1
 62
7
176
1
 62
257
176
1
 90
1
176
1
 90
1
176
1
 40
1.0
176
1
 90
8
176
1
 62
7
176
1
 40
1.0
176
1
 90
1
176
1
 90
6
176
1
 90
2
176
1
 62
7
176
1
 90
5
176
1
 90
0
176
1
 90
0
176
1
290
0
176
1
 90
1
176
1
 40
0.0
176
1
 90
0
176
1
290
0
176
1
290
1
176
1
290
1
176
1
290
0
176
1
290
0
176
1
290
0
176
1
290
0
176
1
290
0
176
1
290
0
176
1
 90
50
176
1
 40
0.0
176
1
 40
1.0
176
1
 90
0
176
1
 62
18
420
0
176
1
 90
50
176
1
 90
3
176
1
 62
5
420
255
176
1
290
0
176
1
 90
50
176
1
 90
50
176
1
 90
50
176
1
290
0
176
1
 90
50
176
1
 62
256
176
0
 40
1.0
176
0
 90
2
176
1
  1
strokes_ogs.tif
176
1
290
0
176
1
 40
1.0
176
1
 40
1.0
176
1
  0
VISUALSTYLE
  5
63
102
{ACAD_REACTORS
330
16
102
}
330
16
100
AcDbVisualStyle
  2
FlatWithEdges
 70
1
177
3
291
1
 70
58
 90
2
176
1
 90
2
176
1
 90
0
176
1
 90
2
176
1
 40
0.6
176
1
 40
30.0
176
1
 62
7
420
16777215
176
1
 90
1
176
1
 90
4
176
1
 62
7
176
1
 62
257
176
1
 90
1
176
1
 90
1
176
1
 40
1.0
176
1
 90
8
176
1
 62
7
176
1
 40
1.0
176
1
 90
1
176
1
 90
6
176
1
 90
2
176
1
 62
7
176
1
 90
5
176
1
 90
0
176
1
 90
0
176
1
290
0
176
1
 90
1
176
1
 40
0.0
176
1
 90
0
176
1
290
0
176
1
290
1
176
1
290
1
176
1
290
0
176
1
290
0
176
1
290
0
176
1
290
0
176
1
290
0
176
1
290
0
176
1
 90
50
176
1
 40
0.0
176
1
 40
1.0
176
1
 90
0
176
1
 62
18
420
0
176
1
 90
50
176
1
 90
3
176
1
 62
5
420
255
176
1
290
0
176
1
 90
50
176
1
 90
50
176
1
 90
50
176
1
290
0
176
1
 90
50
176
1
 62
256
176
0
 40
1.0
176
0
 90
2
176
1
  1
strokes_ogs.tif
176
1
290
0
176
1
 40
1.0
176
1
 40
1.0
176
1
  0
VISUALSTYLE
  5
64
102
{ACAD_REACTORS
330
16
102
}
330
16
100
AcDbVisualStyle
  2
Gouraud
 70
2
177
3
291
1
 70
58
 90
2
176
1
 90
2
176
1
 90
0
176
1
 90
2
176
1
 40
0.6
176
1
 40
30.0
176
1
 62
7
420
16777215
176
1
 90
1
176
1
 90
4
176
1
 62
7
176
1
 62
257
176
1
 90
1
176
1
 90
1
176
1
 40
1.0
176
1
 90
8
176
1
 62
7
176
1
 40
1.0
176
1
 90
1
176
1
 90
6
176
1
 90
2
176
1
 62
7
176
1
 90
5
176
1
 90
0
176
1
 90
0
176
1
290
0
176
1
 90
1
176
1
 40
0.0
176
1
 90
0
176
1
290
0
176
1
290
1
176
1
290
1
176
1
290
0
176
1
290
0
176
1
290
0
176
1
290
0
176
1
290
0
176
1
290
0
176
1
 90
50
176
1
 40
0.0
176
1
 40
1.0
176
1
 90
0
176
1
 62
18
420
0
176
1
 90
50
176
1
 90
3
176
1
 62
5
420
255
176
1
290
0
176
1
 90
50
176
1
 90
50
176
1
 90
50
176
1
290
0
176
1
 90
50
176
1
 62
256
176
0
 40
1.0
176
0
 90
2
176
1
  1
strokes_ogs.tif
176
1
290
0
176
1
 40
1.0
176
1
 40
1.0
176
1
  0
VISUALSTYLE
  5
65
102
{ACAD_REACTORS
330
16
102
}
330
16
100
AcDbVisualStyle
  2
GouraudWithEdges
 70
3
177
3
291
1
 70
58
 90
2
176
1
 90
2
176
1
 90
0
176
1
 90
2
176
1
 40
0.6
176
1
 40
30.0
176
1
 62
7
420
16777215
176
1
 90
1
176
1
 90
4
176
1
 62
7
176
1
 62
257
176
1
 90
1
176
1
 90
1
176
1
 40
1.0
176
1
 90
8
176
1
 62
7
176
1
 40
1.0
176
1
 90
1
176
1
 90
6
176
1
 90
2
176
1
 62
7
176
1
 90
5
176
1
 90
0
176
1
 90
0
176
1
290
0
176
1
 90
1
176
1
 40
0.0
176
1
 90
0
176
1
290
0
176
1
290
1
176
1
290
1
176
1
290
0
176
1
290
0
176
1
290
0
176
1
290
0
176
1
290
0
176
1
290
0
176
1
 90
50
176
1
 40
0.0
176
1
 40
1.0
176
1
 90
0
176
1
 62
18
420
0
176
1
 90
50
176
1
 90
3
176
1
 62
5
420
255
176
1
290
0
176
1
 90
50
176
1
 90
50
176
1
 90
50
176
1
290
0
176
1
 90
50
176
1
 62
256
176
0
 40
1.0
176
0
 90
2
176
1
  1
strokes_ogs.tif
176
1
290
0
176
1
 40
1.0
176
1
 40
1.0
176
1
  0
VISUALSTYLE
  5
66
102
{ACAD_REACTORS
330
16
102
}
330
16
100
AcDbVisualStyle
  2
Hidden
 70
6
177
3
291
0
 70
58
 90
2
176
1
 90
2
176
1
 90
0
176
1
 90
1
176
1
 40
0.6
176
1
 40
30.0
176
1
 62
7
420
16777215
176
1
 90
1
176
1
 90
4
176
1
 62
7
176
1
 62
257
176
1
 90
1
176
1
 90
1
176
1
 40
1.0
176
1
 90
8
176
1
 62
7
176
1
 40
1.0
176
1
 90
1
176
1
 90
6
176
1
 90
2
176
1
 62
7
176
1
 90
5
176
1
 90
0
176
1
 90
0
176
1
290
0
176
1
 90
1
176
1
 40
0.0
176
1
 90
0
176
1
290
0
176
1
290
1
176
1
290
1
176
1
290
0
176
1
290
0
176
1
290
0
176
1
290
0
176
1
290
0
176
1
290
0
176
1
 90
50
176
1
 40
0.0
176
1
 40
1.0
176
1
 90
0
176
1
 62
18
420
0
176
1
 90
50
176
1
 90
3
176
1
 62
5
420
255
176
1
290
0
176
1
 90
50
176
1
 90
50
176
1
 90
50
176
1
290
0
176
1
 90
50
176
1
 62
256
176
0
 40
1.0
176
0
 90
2
176
1
  1
strokes_ogs.tif
176
1
290
0
176
1
 40
1.0
176
1
 40
1.0
176
1
  0
VISUALSTYLE
  5
67
102
{ACAD_REACTORS
330
16
102
}
330
16
100
AcDbVisualStyle
  2
JitterOff
 70
20
177
3
291
1
 70
58
 90
2
176
1
 90
2
176
1
 90
0
176
1
 90
2
176
1
 40
0.6
176
1
 40
30.0
176
1
 62
7
420
16777215
176
1
 90
1
176
1
 90
4
176
1
 62
7
176
1
 62
257
176
1
 90
1
176
1
 90
1
176
1
 40
1.0
176
1
 90
8
176
1
 62
7
176
1
 40
1.0
176
1
 90
1
176
1
 90
6
176
1
 90
2
176
1
 62
7
176
1
 90
5
176
1
 90
0
176
1
 90
0
176
1
290
0
176
1
 90
1
176
1
 40
0.0
176
1
 90
0
176
1
290
0
176
1
290
1
176
1
290
1
176
1
290
0
176
1
290
0
176
1
290
0
176
1
290
0
176
1
290
0
176
1
290
0
176
1
 90
50
176
1
 40
0.0
176
1
 40
1.0
176
1
 90
0
176
1
 62
18
420
0
176
1
 90
50
176
1
 90
3
176
1
 62
5
420
255
176
1
290
0
176
1
 90
50
176
1
 90
50
176
1
 90
50
176
1
290
0
176
1
 90
50
176
1
 62
256
176
0
 40
1.0
176
0
 90
2
176
1
  1
strokes_ogs.tif
176
1
290
0
176
1
 40
1.0
176
1
 40
1.0
176
1
  0
VISUALSTYLE
  5
68
102
{ACAD_REACTORS
330
16
102
}
330
16
100
AcDbVisualStyle
  2
Linepattern
 70
14
177
3
291
1
 70
58
 90
2
176
1
 90
2
176
1
 90
0
176
1
 90
2
176
1
 40
0.6
176
1
 40
30.0
176
1
 62
7
420
16777215
176
1
 90
1
176
1
 90
4
176
1
 62
7
176
1
 62
257
176
1
 90
1
176
1
 90
1
176
1
 40
1.0
176
1
 90
8
176
1
 62
7
176
1
 40
1.0
176
1
 90
1
176
1
 90
6
176
1
 90
2
176
1
 62
7
176
1
 90
5
176
1
 90
0
176
1
 90
0
176
1
290
0
176
1
 90
1
176
1
 40
0.0
176
1
 90
0
176
1
290
0
176
1
290
1
176
1
290
1
176
1
290
0
176
1
290
0
176
1
290
0
176
1
290
0
176
1
290
0
176
1
290
0
176
1
 90
50
176
1
 40
0.0
176
1
 40
1.0
176
1
 90
0
176
1
 62
18
420
0
176
1
 90
50
176
1
 90
3
176
1
 62
5
420
255
176
1
290
0
176
1
 90
50
176
1
 90
50
176
1
 90
50
176
1
290
0
176
1
 90
50
176
1
 62
256
176
0
 40
1.0
176
0
 90
2
176
1
  1
strokes_ogs.tif
176
1
290
0
176
1
 40
1.0
176
1
 40
1.0
176
1
  0
VISUALSTYLE
  5
69
102
{ACAD_REACTORS
330
16
102
}
330
16
100
AcDbVisualStyle
  2
Modeling
 70
10
177
3
291
0
 70
58
 90
2
176
1
 90
2
176
1
 90
0
176
1
 90
2
176
1
 40
0.6
176
1
 40
30.0
176
1
 62
7
420
16777215
176
1
 90
1
176
1
 90
4
176
1
 62
7
176
1
 62
257
176
1
 90
1
176
1
 90
1
176
1
 40
1.0
176
1
 90
8
176
1
 62
7
176
1
 40
1.0
176
1
 90
1
176
1
 90
6
176
1
 90
2
176
1
 62
7
176
1
 90
5
176
1
 90
0
176
1
 90
0
176
1
290
0
176
1
 90
1
176
1
 40
0.0
176
1
 90
0
176
1
290
0
176
1
290
1
176
1
290
1
176
1
290
0
176
1
290
0
176
1
290
0
176
1
290
0
176
1
290
0
176
1
290
0
176
1
 90
50
176
1
 40
0.0
176
1
 40
1.0
176
1
 90
0
176
1
 62
18
420
0
176
1
 90
50
176
1
 90
3
176
1
 62
5
420
255
176
1
290
0
176
1
 90
50
176
1
 90
50
176
1
 90
50
176
1
290
0
176
1
 90
50
176
1
 62
256
176
0
 40
1.0
176
0
 90
2
176
1
  1
strokes_ogs.tif
176
1
290
0
176
1
 40
1.0
176
1
 40
1.0
176
1
  0
VISUALSTYLE
  5
6A
102
{ACAD_REACTORS
330
16
102
}
330
16
100
AcDbVisualStyle
  2
OverhangOff
 70
21
177
3
291
1
 70
58
 90
2
176
1
 90
2
176
1
 90
0
176
1
 90
2
176
1
 40
0.6
176
1
 40
30.0
176
1
 62
7
420
16777215
176
1
 90
1
176
1
 90
4
176
1
 62
7
176
1
 62
257
176
1
 90
1
176
1
 90
1
176
1
 40
1.0
176
1
 90
8
176
1
 62
7
176
1
 40
1.0
176
1
 90
1
176
1
 90
6
176
1
 90
2
176
1
 62
7
176
1
 90
5
176
1
 90
0
176
1
 90
0
176
1
290
0
176
1
 90
1
176
1
 40
0.0
176
1
 90
0
176
1
290
0
176
1
290
1
176
1
290
1
176
1
290
0
176
1
290
0
176
1
290
0
176
1
290
0
176
1
290
0
176
1
290
0
176
1
 90
50
176
1
 40
0.0
176
1
 40
1.0
176
1
 90
0
176
1
 62
18
420
0
176
1
 90
50
176
1
 90
3
176
1
 62
5
420
255
176
1
290
0
176
1
 90
50
176
1
 90
50
176
1
 90
50
176
1
290
0
176
1
 90
50
176
1
 62
256
176
0
 40
1.0
176
0
 90
2
176
1
  1
strokes_ogs.tif
176
1
290
0
176
1
 40
1.0
176
1
 40
1.0
176
1
  0
VISUALSTYLE
  5
6B
102
{ACAD_REACTORS
330
16
102
}
330
16
100
AcDbVisualStyle
  2
Realistic
 70
8
177
3
291
0
 70
58
 90
2
176
1
 90
2
176
1
 90
0
176
1
 90
2
176
1
 40
0.6
176
1
 40
30.0
176
1
 62
7
420
16777215
176
1
 90
1
176
1
 90
4
176
1
 62
7
176
1
 62
257
176
1
 90
1
176
1
 90
1
176
1
 40
1.0
176
1
 90
8
176
1
 62
7
176
1
 40
1.0
176
1
 90
1
176
1
 90
6
176
1
 90
2
176
1
 62
7
176
1
 90
5
176
1
 90
0
176
1
 90
0
176
1
290
0
176
1
 90
1
176
1
 40
0.0
176
1
 90
0
176
1
290
0
176
1
290
1
176
1
290
1
176
1
290
0
176
1
290
0
176
1
290
0
176
1
290
0
176
1
290
0
176
1
290
0
176
1
 90
50
176
1
 40
0.0
176
1
 40
1.0
176
1
 90
0
176
1
 62
18
420
0
176
1
 90
50
176
1
 90
3
176
1
 62
5
420
255
176
1
290
0
176
1
 90
50
176
1
 90
50
176
1
 90
50
176
1
290
0
176
1
 90
50
176
1
 62
256
176
0
 40
1.0
176
0
 90
2
176
1
  1
strokes_ogs.tif
176
1
290
0
176
1
 40
1.0
176
1
 40
1.0
176
1
  0
VISUALSTYLE
  5
6C
102
{ACAD_REACTORS
330
16
102
}
330
16
100
AcDbVisualStyle
  2
Shaded
 70
27
177
3
291
0
 70
58
 90
2
176
1
 90
2
176
1
 90
0
176
1
 90
2
176
1
 40
0.6
176
1
 40
30.0
176
1
 62
7
420
16777215
176
1
 90
1
176
1
 90
4
176
1
 62
7
176
1
 62
257
176
1
 90
1
176
1
 90
1
176
1
 40
1.0
176
1
 90
8
176
1
 62
7
176
1
 40
1.0
176
1
 90
1
176
1
 90
6
176
1
 90
2
176
1
 62
7
176
1
 90
5
176
1
 90
0
176
1
 90
0
176
1
290
0
176
1
 90
1
176
1
 40
0.0
176
1
 90
0
176
1
290
0
176
1
290
1
176
1
290
1
176
1
290
0
176
1
290
0
176
1
290
0
176
1
290
0
176
1
290
0
176
1
290
0
176
1
 90
50
176
1
 40
0.0
176
1
 40
1.0
176
1
 90
0
176
1
 62
18
420
0
176
1
 90
50
176
1
 90
3
176
1
 62
5
420
255
176
1
290
0
176
1
 90
50
176
1
 90
50
176
1
 90
50
176
1
290
0
176
1
 90
50
176
1
 62
256
176
0
 40
1.0
176
0
 90
2
176
1
  1
strokes_ogs.tif
176
1
290
0
176
1
 40
1.0
176
1
 40
1.0
176
1
  0
VISUALSTYLE
  5
6D
102
{ACAD_REACTORS
330
16
102
}
330
16
100
AcDbVisualStyle
  2
Shaded with edges
 70
26
177
3
291
0
 70
58
 90
2
176
1
 90
2
176
1
 90
0
176
1
 90
2
176
1
 40
0.6
176
1
 40
30.0
176
1
 62
7
420
16777215
176
1
 90
1
176
1
 90
4
176
1
 62
7
176
1
 62
257
176
1
 90
1
176
1
 90
1
176
1
 40
1.0
176
1
 90
8
176
1
 62
7
176
1
 40
1.0
176
1
 90
1
176
1
 90
6
176
1
 90
2
176
1
 62
7
176
1
 90
5
176
1
 90
0
176
1
 90
0
176
1
290
0
176
1
 90
1
176
1
 40
0.0
176
1
 90
0
176
1
290
0
176
1
290
1
176
1
290
1
176
1
290
0
176
1
290
0
176
1
290
0
176
1
290
0
176
1
290
0
176
1
290
0
176
1
 90
50
176
1
 40
0.0
176
1
 40
1.0
176
1
 90
0
176
1
 62
18
420
0
176
1
 90
50
176
1
 90
3
176
1
 62
5
420
255
176
1
290
0
176
1
 90
50
176
1
 90
50
176
1
 90
50
176
1
290
0
176
1
 90
50
176
1
 62
256
176
0
 40
1.0
176
0
 90
2
176
1
  1
strokes_ogs.tif
176
1
290
0
176
1
 40
1.0
176
1
 40
1.0
176
1
  0
VISUALSTYLE
  5
6E
102
{ACAD_REACTORS
330
16
102
}
330
16
100
AcDbVisualStyle
  2
Shades of Gray
 70
23
177
3
291
0
 70
58
 90
2
176
1
 90
2
176
1
 90
0
176
1
 90
2
176
1
 40
0.6
176
1
 40
30.0
176
1
 62
7
420
16777215
176
1
 90
1
176
1
 90
4
176
1
 62
7
176
1
 62
257
176
1
 90
1
176
1
 90
1
176
1
 40
1.0
176
1
 90
8
176
1
 62
7
176
1
 40
1.0
176
1
 90
1
176
1
 90
6
176
1
 90
2
176
1
 62
7
176
1
 90
5
176
1
 90
0
176
1
 90
0
176
1
290
0
176
1
 90
1
176
1
 40
0.0
176
1
 90
0
176
1
290
0
176
1
290
1
176
1
290
1
176
1
290
0
176
1
290
0
176
1
290
0
176
1
290
0
176
1
290
0
176
1
290
0
176
1
 90
50
176
1
 40
0.0
176
1
 40
1.0
176
1
 90
0
176
1
 62
18
420
0
176
1
 90
50
176
1
 90
3
176
1
 62
5
420
255
176
1
290
0
176
1
 90
50
176
1
 90
50
176
1
 90
50
176
1
290
0
176
1
 90
50
176
1
 62
256
176
0
 40
1.0
176
0
 90
2
176
1
  1
strokes_ogs.tif
176
1
290
0
176
1
 40
1.0
176
1
 40
1.0
176
1
  0
VISUALSTYLE
  5
6F
102
{ACAD_REACTORS
330
16
102
}
330
16
100
AcDbVisualStyle
  2
Sketchy
 70
24
177
3
291
0
 70
58
 90
2
176
1
 90
2
176
1
 90
0
176
1
 90
1
176
1
 40
0.6
176
1
 40
30.0
176
1
 62
7
420
16777215
176
1
 90
1
176
1
 90
4
176
1
 62
7
176
1
 62
257
176
1
 90
1
176
1
 90
1
176
1
 40
1.0
176
1
 90
8
176
1
 62
7
176
1
 40
1.0
176
1
 90
1
176
1
 90
6
176
1
 90
2
176
1
 62
7
176
1
 90
5
176
1
 90
0
176
1
 90
0
176
1
290
0
176
1
 90
1
176
1
 40
0.0
176
1
 90
0
176
1
290
0
176
1
290
1
176
1
290
1
176
1
290
0
176
1
290
0
176
1
290
0
176
1
290
0
176
1
290
0
176
1
290
0
176
1
 90
50
176
1
 40
0.0
176
1
 40
1.0
176
1
 90
0
176
1
 62
18
420
0
176
1
 90
50
176
1
 90
3
176
1
 62
5
420
255
176
1
290
0
176
1
 90
50
176
1
 90
50
176
1
 90
50
176
1
290
0
176
1
 90
50
176
1
 62
256
176
0
 40
1.0
176
0
 90
2
176
1
  1
strokes_ogs.tif
176
1
290
0
176
1
 40
1.0
176
1
 40
1.0
176
1
  0
VISUALSTYLE
  5
70
102
{ACAD_REACTORS
330
16
102
}
330
16
100
AcDbVisualStyle
  2
Thicken
 70
13
177
3
291
1
 70
58
 90
2
176
1
 90
2
176
1
 90
0
176
1
 90
2
176
1
 40
0.6
176
1
 40
30.0
176
1
 62
7
420
16777215
176
1
 90
1
176
1
 90
4
176
1
 62
7
176
1
 62
257
176
1
 90
1
176
1
 90
1
176
1
 40
1.0
176
1
 90
8
176
1
 62
7
176
1
 40
1.0
176
1
 90
1
176
1
 90
6
176
1
 90
2
176
1
 62
7
176
1
 90
5
176
1
 90
0
176
1
 90
0
176
1
290
0
176
1
 90
1
176
1
 40
0.0
176
1
 90
0
176
1
290
0
176
1
290
1
176
1
290
1
176
1
290
0
176
1
290
0
176
1
290
0
176
1
290
0
176
1
290
0
176
1
290
0
176
1
 90
50
176
1
 40
0.0
176
1
 40
1.0
176
1
 90
0
176
1
 62
18
420
0
176
1
 90
50
176
1
 90
3
176
1
 62
5
420
255
176
1
290
0
176
1
 90
50
176
1
 90
50
176
1
 90
50
176
1
290
0
176
1
 90
50
176
1
 62
256
176
0
 40
1.0
176
0
 90
2
176
1
  1
strokes_ogs.tif
176
1
290
0
176
1
 40
1.0
176
1
 40
1.0
176
1
  0
VISUALSTYLE
  5
71
102
{ACAD_REACTORS
330
16
102
}
330
16
100
AcDbVisualStyle
  2
Wireframe
 70
5
177
3
291
0
 70
58
 90
2
176
1
 90
2
176
1
 90
0
176
1
 90
0
176
1
 40
0.6
176
1
 40
30.0
176
1
 62
7
420
16777215
176
1
 90
1
176
1
 90
4
176
1
 62
7
176
1
 62
257
176
1
 90
1
176
1
 90
1
176
1
 40
1.0
176
1
 90
8
176
1
 62
7
176
1
 40
1.0
176
1
 90
1
176
1
 90
6
176
1
 90
2
176
1
 62
7
176
1
 90
5
176
1
 90
0
176
1
 90
0
176
1
290
0
176
1
 90
1
176
1
 40
0.0
176
1
 90
0
176
1
290
0
176
1
290
1
176
1
290
1
176
1
290
0
176
1
290
0
176
1
290
0
176
1
290
0
176
1
290
0
176
1
290
0
176
1
 90
50
176
1
 40
0.0
176
1
 40
1.0
176
1
 90
0
176
1
 62
18
420
0
176
1
 90
50
176
1
 90
3
176
1
 62
5
420
255
176
1
290
0
176
1
 90
50
176
1
 90
50
176
1
 90
50
176
1
290
0
176
1
 90
50
176
1
 62
256
176
0
 40
1.0
176
0
 90
2
176
1
  1
strokes_ogs.tif
176
1
290
0
176
1
 40
1.0
176
1
 40
1.0
176
1
  0
VISUALSTYLE
  5
72
102
{ACAD_REACTORS
330
16
102
}
330
16
100
AcDbVisualStyle
  2
X-Ray
 70
25
177
3
291
0
 70
58
 90
2
176
1
 90
2
176
1
 90
0
176
1
 90
2
176
1
 40
0.5
176
1
 40
30.0
176
1
 62
7
420
16777215
176
1
 90
1
176
1
 90
4
176
1
 62
7
176
1
 62
257
176
1
 90
1
176
1
 90
1
176
1
 40
1.0
176
1
 90
8
176
1
 62
7
176
1
 40
1.0
176
1
 90
1
176
1
 90
6
176
1
 90
2
176
1
 62
7
176
1
 90
5
176
1
 90
0
176
1
 90
0
176
1
290
0
176
1
 90
1
176
1
 40
0.0
176
1
 90
0
176
1
290
0
176
1
290
1
176
1
290
1
176
1
290
0
176
1
290
0
176
1
290
0
176
1
290
0
176
1
290
0
176
1
290
0
176
1
 90
50
176
1
 40
0.0
176
1
 40
1.0
176
1
 90
0
176
1
 62
18
420
0
176
1
 90
50
176
1
 90
3
176
1
 62
5
420
255
176
1
290
0
176
1
 90
50
176
1
 90
50
176
1
 90
50
176
1
290
0
176
1
 90
50
176
1
 62
256
176
0
 40
1.0
176
0
 90
2
176
1
  1
strokes_ogs.tif
176
1
290
0
176
1
 40
1.0
176
1
 40
1.0
176
1
  0
DICTIONARYVAR
  5
8E
330
2D
100
DictionaryVariables
280
0
  1
1.4.2 @ 2025-06-04T15:40:11.560592+00:00
  0
ENDSEC
  0
EOF
