  0
SECTION
  2
HEADER
  9
$ACADVER
  1
AC1027
  9
$ACADMAINTVER
 70
105
  9
$DWGCODEPAGE
  3
ANSI_1252
  9
$LASTSAVEDBY
  1
ezdxf
  9
$REQUIREDVERSIONS
160
0
  9
$INSBASE
 10
0.0
 20
0.0
 30
0.0
  9
$EXTMIN
 10
1e+20
 20
1e+20
 30
1e+20
  9
$EXTMAX
 10
-1e+20
 20
-1e+20
 30
-1e+20
  9
$LIMMIN
 10
0.0
 20
0.0
  9
$LIMMAX
 10
420.0
 20
297.0
  9
$ORTHOMODE
 70
0
  9
$REGENMODE
 70
1
  9
$FILLMODE
 70
1
  9
$QTEXTMODE
 70
0
  9
$MIRRTEXT
 70
1
  9
$LTSCALE
 40
1.0
  9
$ATTMODE
 70
1
  9
$TEXTSIZE
 40
2.5
  9
$TRACEWID
 40
1.0
  9
$TEXTSTYLE
  7
OpenSans
  9
$CLAYER
  8
0
  9
$CELTYPE
  6
ByLayer
  9
$CECOLOR
 62
256
  9
$CELTSCALE
 40
1.0
  9
$DISPSILH
 70
0
  9
$DIMSCALE
 40
1.0
  9
$DIMASZ
 40
0.175
  9
$DIMEXO
 40
0.125
  9
$DIMDLI
 40
3.75
  9
$DIMRND
 40
0.0
  9
$DIMDLE
 40
0.0
  9
$DIMEXE
 40
0.375
  9
$DIMTP
 40
0.0
  9
$DIMTM
 40
0.0
  9
$DIMTXT
 40
0.25
  9
$DIMCEN
 40
2.5
  9
$DIMTSZ
 40
0.0
  9
$DIMTOL
 70
0
  9
$DIMLIM
 70
0
  9
$DIMTIH
 70
0
  9
$DIMTOH
 70
0
  9
$DIMSE1
 70
0
  9
$DIMSE2
 70
0
  9
$DIMTAD
 70
1
  9
$DIMZIN
 70
12
  9
$DIMBLK
  1
ARCHTICK
  9
$DIMASO
 70
1
  9
$DIMSHO
 70
1
  9
$DIMPOST
  1

  9
$DIMAPOST
  1

  9
$DIMALT
 70
0
  9
$DIMALTD
 70
3
  9
$DIMALTF
 40
0.03937007874
  9
$DIMLFAC
 40
100.0
  9
$DIMTOFL
 70
1
  9
$DIMTVP
 40
0.0
  9
$DIMTIX
 70
0
  9
$DIMSOXD
 70
0
  9
$DIMSAH
 70
0
  9
$DIMBLK1
  1

  9
$DIMBLK2
  1

  9
$DIMSTYLE
  2
EZDXF
  9
$DIMCLRD
 70
0
  9
$DIMCLRE
 70
0
  9
$DIMCLRT
 70
0
  9
$DIMTFAC
 40
0.5
  9
$DIMGAP
 40
0.1
  9
$DIMJUST
 70
0
  9
$DIMSD1
 70
0
  9
$DIMSD2
 70
0
  9
$DIMTOLJ
 70
0
  9
$DIMTZIN
 70
8
  9
$DIMALTZ
 70
0
  9
$DIMALTTZ
 70
0
  9
$DIMUPT
 70
1
  9
$DIMDEC
 70
2
  9
$DIMTDEC
 70
2
  9
$DIMALTU
 70
2
  9
$DIMALTTD
 70
3
  9
$DIMTXSTY
  7
OpenSansCondensed-Light
  9
$DIMAUNIT
 70
0
  9
$DIMADEC
 70
2
  9
$DIMALTRND
 40
0.0
  9
$DIMAZIN
 70
3
  9
$DIMDSEP
 70
46
  9
$DIMATFIT
 70
3
  9
$DIMFRAC
 70
0
  9
$DIMLDRBLK
  1

  9
$DIMLUNIT
 70
2
  9
$DIMLWD
 70
-2
  9
$DIMLWE
 70
-2
  9
$DIMTMOVE
 70
2
  9
$DIMFXL
 40
1.0
  9
$DIMFXLON
 70
0
  9
$DIMJOGANG
 40
0.785398163397
  9
$DIMTFILL
 70
0
  9
$DIMTFILLCLR
 70
0
  9
$DIMARCSYM
 70
0
  9
$DIMLTYPE
  6

  9
$DIMLTEX1
  6

  9
$DIMLTEX2
  6

  9
$DIMTXTDIRECTION
 70
0
  9
$LUNITS
 70
2
  9
$LUPREC
 70
4
  9
$SKETCHINC
 40
1.0
  9
$FILLETRAD
 40
10.0
  9
$AUNITS
 70
0
  9
$AUPREC
 70
2
  9
$MENU
  1
.
  9
$ELEVATION
 40
0.0
  9
$PELEVATION
 40
0.0
  9
$THICKNESS
 40
0.0
  9
$LIMCHECK
 70
0
  9
$CHAMFERA
 40
0.0
  9
$CHAMFERB
 40
0.0
  9
$CHAMFERC
 40
0.0
  9
$CHAMFERD
 40
0.0
  9
$SKPOLY
 70
0
  9
$TDCREATE
 40
2460831.736134259
  9
$TDUCREATE
 40
2458532.153996898
  9
$TDUPDATE
 40
2460831.736134259
  9
$TDUUPDATE
 40
2458532.1544311
  9
$TDINDWG
 40
0.0
  9
$TDUSRTIMER
 40
0.0
  9
$USRTIMER
 70
1
  9
$ANGBASE
 50
0.0
  9
$ANGDIR
 70
0
  9
$PDMODE
 70
0
  9
$PDSIZE
 40
0.0
  9
$PLINEWID
 40
0.0
  9
$SPLFRAME
 70
0
  9
$SPLINETYPE
 70
6
  9
$SPLINESEGS
 70
8
  9
$HANDSEED
  5
8F
  9
$SURFTAB1
 70
6
  9
$SURFTAB2
 70
6
  9
$SURFTYPE
 70
6
  9
$SURFU
 70
6
  9
$SURFV
 70
6
  9
$UCSBASE
  2

  9
$UCSNAME
  2

  9
$UCSORG
 10
0.0
 20
0.0
 30
0.0
  9
$UCSXDIR
 10
1.0
 20
0.0
 30
0.0
  9
$UCSYDIR
 10
0.0
 20
1.0
 30
0.0
  9
$UCSORTHOREF
  2

  9
$UCSORTHOVIEW
 70
0
  9
$UCSORGTOP
 10
0.0
 20
0.0
 30
0.0
  9
$UCSORGBOTTOM
 10
0.0
 20
0.0
 30
0.0
  9
$UCSORGLEFT
 10
0.0
 20
0.0
 30
0.0
  9
$UCSORGRIGHT
 10
0.0
 20
0.0
 30
0.0
  9
$UCSORGFRONT
 10
0.0
 20
0.0
 30
0.0
  9
$UCSORGBACK
 10
0.0
 20
0.0
 30
0.0
  9
$PUCSBASE
  2

  9
$PUCSNAME
  2

  9
$PUCSORG
 10
0.0
 20
0.0
 30
0.0
  9
$PUCSXDIR
 10
1.0
 20
0.0
 30
0.0
  9
$PUCSYDIR
 10
0.0
 20
1.0
 30
0.0
  9
$PUCSORTHOREF
  2

  9
$PUCSORTHOVIEW
 70
0
  9
$PUCSORGTOP
 10
0.0
 20
0.0
 30
0.0
  9
$PUCSORGBOTTOM
 10
0.0
 20
0.0
 30
0.0
  9
$PUCSORGLEFT
 10
0.0
 20
0.0
 30
0.0
  9
$PUCSORGRIGHT
 10
0.0
 20
0.0
 30
0.0
  9
$PUCSORGFRONT
 10
0.0
 20
0.0
 30
0.0
  9
$PUCSORGBACK
 10
0.0
 20
0.0
 30
0.0
  9
$USERI1
 70
0
  9
$USERI2
 70
0
  9
$USERI3
 70
0
  9
$USERI4
 70
0
  9
$USERI5
 70
0
  9
$USERR1
 40
0.0
  9
$USERR2
 40
0.0
  9
$USERR3
 40
0.0
  9
$USERR4
 40
0.0
  9
$USERR5
 40
0.0
  9
$WORLDVIEW
 70
1
  9
$SHADEDGE
 70
3
  9
$SHADEDIF
 70
70
  9
$TILEMODE
 70
1
  9
$MAXACTVP
 70
64
  9
$PINSBASE
 10
0.0
 20
0.0
 30
0.0
  9
$PLIMCHECK
 70
0
  9
$PEXTMIN
 10
1e+20
 20
1e+20
 30
1e+20
  9
$PEXTMAX
 10
-1e+20
 20
-1e+20
 30
-1e+20
  9
$PLIMMIN
 10
0.0
 20
0.0
  9
$PLIMMAX
 10
420.0
 20
297.0
  9
$UNITMODE
 70
0
  9
$VISRETAIN
 70
1
  9
$PLINEGEN
 70
0
  9
$PSLTSCALE
 70
1
  9
$TREEDEPTH
 70
3020
  9
$CMLSTYLE
  2
Standard
  9
$CMLJUST
 70
0
  9
$CMLSCALE
 40
20.0
  9
$PROXYGRAPHICS
 70
1
  9
$MEASUREMENT
 70
1
  9
$CELWEIGHT
370
-1
  9
$ENDCAPS
280
0
  9
$JOINSTYLE
280
0
  9
$LWDISPLAY
290
0
  9
$INSUNITS
 70
6
  9
$HYPERLINKBASE
  1

  9
$STYLESHEET
  1

  9
$XEDIT
290
1
  9
$CEPSNTYPE
380
0
  9
$PSTYLEMODE
290
1
  9
$FINGERPRINTGUID
  2
{67A681D9-49E4-49B9-9553-ADEC0C18983D}
  9
$VERSIONGUID
  2
{F8312574-BFF4-4CDF-8620-408753608C17}
  9
$EXTNAMES
290
1
  9
$PSVPSCALE
 40
0.0
  9
$OLESTARTUP
290
0
  9
$SORTENTS
280
127
  9
$INDEXCTL
280
0
  9
$HIDETEXT
280
1
  9
$XCLIPFRAME
280
1
  9
$HALOGAP
280
0
  9
$OBSCOLOR
 70
257
  9
$OBSLTYPE
280
0
  9
$INTERSECTIONDISPLAY
280
0
  9
$INTERSECTIONCOLOR
 70
257
  9
$DIMASSOC
280
2
  9
$PROJECTNAME
  1

  9
$CAMERADISPLAY
290
0
  9
$LENSLENGTH
 40
50.0
  9
$CAMERAHEIGHT
 40
0.0
  9
$STEPSPERSEC
 40
24.0
  9
$STEPSIZE
 40
100.0
  9
$3DDWFPREC
 40
2.0
  9
$PSOLWIDTH
 40
0.005
  9
$PSOLHEIGHT
 40
0.08
  9
$LOFTANG1
 40
1.570796326795
  9
$LOFTANG2
 40
1.570796326795
  9
$LOFTMAG1
 40
0.0
  9
$LOFTMAG2
 40
0.0
  9
$LOFTPARAM
 70
7
  9
$LOFTNORMALS
280
1
  9
$LATITUDE
 40
37.795
  9
$LONGITUDE
 40
-122.394
  9
$NORTHDIRECTION
 40
0.0
  9
$TIMEZONE
 70
-8000
  9
$LIGHTGLYPHDISPLAY
280
1
  9
$TILEMODELIGHTSYNCH
280
1
  9
$CMATERIAL
347
20
  9
$SOLIDHIST
280
0
  9
$SHOWHIST
280
1
  9
$DWFFRAME
280
2
  9
$DGNFRAME
280
2
  9
$REALWORLDSCALE
290
1
  9
$INTERFERECOLOR
 62
256
  9
$CSHADOW
280
0
  9
$SHADOWPLANELOCATION
 40
0.0
  0
ENDSEC
  0
SECTION
  2
CLASSES
  0
CLASS
  1
ACDBDICTIONARYWDFLT
  2
AcDbDictionaryWithDefault
  3
ObjectDBX Classes
 90
0
 91
0
280
0
281
0
  0
CLASS
  1
SUN
  2
AcDbSun
  3
SCENEOE
 90
1153
 91
0
280
0
281
0
  0
CLASS
  1
VISUALSTYLE
  2
AcDbVisualStyle
  3
ObjectDBX Classes
 90
4095
 91
0
280
0
281
0
  0
CLASS
  1
MATERIAL
  2
AcDbMaterial
  3
ObjectDBX Classes
 90
1153
 91
0
280
0
281
0
  0
CLASS
  1
SCALE
  2
AcDbScale
  3
ObjectDBX Classes
 90
1153
 91
0
280
0
281
0
  0
CLASS
  1
TABLESTYLE
  2
AcDbTableStyle
  3
ObjectDBX Classes
 90
4095
 91
0
280
0
281
0
  0
CLASS
  1
MLEADERSTYLE
  2
AcDbMLeaderStyle
  3
ACDB_MLEADERSTYLE_CLASS
 90
4095
 91
0
280
0
281
0
  0
CLASS
  1
DICTIONARYVAR
  2
AcDbDictionaryVar
  3
ObjectDBX Classes
 90
0
 91
0
280
0
281
0
  0
CLASS
  1
CELLSTYLEMAP
  2
AcDbCellStyleMap
  3
ObjectDBX Classes
 90
1152
 91
0
280
0
281
0
  0
CLASS
  1
MENTALRAYRENDERSETTINGS
  2
AcDbMentalRayRenderSettings
  3
SCENEOE
 90
1024
 91
0
280
0
281
0
  0
CLASS
  1
ACDBDETAILVIEWSTYLE
  2
AcDbDetailViewStyle
  3
ObjectDBX Classes
 90
1025
 91
0
280
0
281
0
  0
CLASS
  1
ACDBSECTIONVIEWSTYLE
  2
AcDbSectionViewStyle
  3
ObjectDBX Classes
 90
1025
 91
0
280
0
281
0
  0
CLASS
  1
RASTERVARIABLES
  2
AcDbRasterVariables
  3
ISM
 90
0
 91
0
280
0
281
0
  0
CLASS
  1
LAYOUT
  2
AcDbLayout
  3
ObjectDBX Classes
 90
0
 91
0
280
0
281
0
  0
CLASS
  1
ACDBPLACEHOLDER
  2
AcDbPlaceHolder
  3
ObjectDBX Classes
 90
0
 91
0
280
0
281
0
  0
ENDSEC
  0
SECTION
  2
TABLES
  0
TABLE
  2
VPORT
  5
8
330
0
100
AcDbSymbolTable
 70
1
  0
VPORT
  5
23
330
8
100
AcDbSymbolTableRecord
100
AcDbViewportTableRecord
  2
*Active
 70
0
 10
0.0
 20
0.0
 11
1.0
 21
1.0
 12
0.0
 22
0.0
 13
0.0
 23
0.0
 14
0.5
 24
0.5
 15
0.5
 25
0.5
 16
0.0
 26
0.0
 36
1.0
 17
0.0
 27
0.0
 37
0.0
 40
1000.0
 41
1.34
 42
50.0
 43
0.0
 44
0.0
 50
0.0
 51
0.0
 71
0
 72
1000
 73
1
 74
3
 75
0
 76
0
 77
0
 78
0
281
0
 65
0
146
0.0
  0
ENDTAB
  0
TABLE
  2
LTYPE
  5
2
330
0
100
AcDbSymbolTable
 70
21
  0
LTYPE
  5
24
330
2
100
AcDbSymbolTableRecord
100
AcDbLinetypeTableRecord
  2
ByBlock
 70
0
  3

 72
65
 73
0
 40
0.0
  0
LTYPE
  5
25
330
2
100
AcDbSymbolTableRecord
100
AcDbLinetypeTableRecord
  2
ByLayer
 70
0
  3

 72
65
 73
0
 40
0.0
  0
LTYPE
  5
26
330
2
100
AcDbSymbolTableRecord
100
AcDbLinetypeTableRecord
  2
Continuous
 70
0
  3

 72
65
 73
0
 40
0.0
  0
LTYPE
  5
2F
330
2
100
AcDbSymbolTableRecord
100
AcDbLinetypeTableRecord
  2
CENTER
 70
0
  3
Center ____ _ ____ _ ____ _ ____ _ ____ _ ____
 72
65
 73
4
 40
5.08
 49
3.175
 74
0
 49
-0.635
 74
0
 49
0.635
 74
0
 49
-0.635
 74
0
  0
LTYPE
  5
30
330
2
100
AcDbSymbolTableRecord
100
AcDbLinetypeTableRecord
  2
CENTERX2
 70
0
  3
Center (2x) ________  __  ________  __  ________
 72
65
 73
4
 40
8.89
 49
6.35
 74
0
 49
-0.635
 74
0
 49
1.27
 74
0
 49
-0.635
 74
0
  0
LTYPE
  5
31
330
2
100
AcDbSymbolTableRecord
100
AcDbLinetypeTableRecord
  2
CENTER2
 70
0
  3
Center (.5x) ____ _ ____ _ ____ _ ____ _ ____
 72
65
 73
4
 40
2.54
 49
1.587
 74
0
 49
-0.318
 74
0
 49
0.318
 74
0
 49
-0.318
 74
0
  0
LTYPE
  5
32
330
2
100
AcDbSymbolTableRecord
100
AcDbLinetypeTableRecord
  2
DASHED
 70
0
  3
Dashed __ __ __ __ __ __ __ __ __ __ __ __ __ _
 72
65
 73
2
 40
1.524
 49
1.27
 74
0
 49
-0.254
 74
0
  0
LTYPE
  5
33
330
2
100
AcDbSymbolTableRecord
100
AcDbLinetypeTableRecord
  2
DASHEDX2
 70
0
  3
Dashed (2x) ____  ____  ____  ____  ____  ____
 72
65
 73
2
 40
3.048
 49
2.54
 74
0
 49
-0.508
 74
0
  0
LTYPE
  5
34
330
2
100
AcDbSymbolTableRecord
100
AcDbLinetypeTableRecord
  2
DASHED2
 70
0
  3
Dashed (.5x) _ _ _ _ _ _ _ _ _ _ _ _ _ _
 72
65
 73
2
 40
0.762
 49
0.635
 74
0
 49
-0.127
 74
0
  0
LTYPE
  5
35
330
2
100
AcDbSymbolTableRecord
100
AcDbLinetypeTableRecord
  2
PHANTOM
 70
0
  3
Phantom ______  __  __  ______  __  __  ______
 72
65
 73
6
 40
6.35
 49
3.175
 74
0
 49
-0.635
 74
0
 49
0.635
 74
0
 49
-0.635
 74
0
 49
0.635
 74
0
 49
-0.635
 74
0
  0
LTYPE
  5
36
330
2
100
AcDbSymbolTableRecord
100
AcDbLinetypeTableRecord
  2
PHANTOMX2
 70
0
  3
Phantom (2x)____________    ____    ____    ____________
 72
65
 73
6
 40
10.795
 49
6.35
 74
0
 49
-0.635
 74
0
 49
1.27
 74
0
 49
-0.635
 74
0
 49
1.27
 74
0
 49
-0.635
 74
0
  0
LTYPE
  5
37
330
2
100
AcDbSymbolTableRecord
100
AcDbLinetypeTableRecord
  2
PHANTOM2
 70
0
  3
Phantom (.5x) ___ _ _ ___ _ _ ___ _ _ ___ _ _ ___
 72
65
 73
6
 40
3.175
 49
1.587
 74
0
 49
-0.318
 74
0
 49
0.318
 74
0
 49
-0.318
 74
0
 49
0.318
 74
0
 49
-0.318
 74
0
  0
LTYPE
  5
38
330
2
100
AcDbSymbolTableRecord
100
AcDbLinetypeTableRecord
  2
DASHDOT
 70
0
  3
Dash dot __ . __ . __ . __ . __ . __ . __ . __
 72
65
 73
4
 40
3.556
 49
2.54
 74
0
 49
-0.508
 74
0
 49
0.0
 74
0
 49
-0.508
 74
0
  0
LTYPE
  5
39
330
2
100
AcDbSymbolTableRecord
100
AcDbLinetypeTableRecord
  2
DASHDOTX2
 70
0
  3
Dash dot (2x) ____  .  ____  .  ____  .  ____
 72
65
 73
4
 40
6.096
 49
5.08
 74
0
 49
-0.508
 74
0
 49
0.0
 74
0
 49
-0.508
 74
0
  0
LTYPE
  5
3A
330
2
100
AcDbSymbolTableRecord
100
AcDbLinetypeTableRecord
  2
DASHDOT2
 70
0
  3
Dash dot (.5x) _ . _ . _ . _ . _ . _ . _ . _
 72
65
 73
4
 40
1.778
 49
1.27
 74
0
 49
-0.254
 74
0
 49
0.0
 74
0
 49
-0.254
 74
0
  0
LTYPE
  5
3B
330
2
100
AcDbSymbolTableRecord
100
AcDbLinetypeTableRecord
  2
DOT
 70
0
  3
Dot .  .  .  .  .  .  .  .  .  .  .  .  .  .  .  .
 72
65
 73
2
 40
0.508
 49
0.0
 74
0
 49
-0.508
 74
0
  0
LTYPE
  5
3C
330
2
100
AcDbSymbolTableRecord
100
AcDbLinetypeTableRecord
  2
DOTX2
 70
0
  3
Dot (2x) .    .    .    .    .    .    .    . 
 72
65
 73
2
 40
1.016
 49
0.0
 74
0
 49
-1.016
 74
0
  0
LTYPE
  5
3D
330
2
100
AcDbSymbolTableRecord
100
AcDbLinetypeTableRecord
  2
DOT2
 70
0
  3
Dot (.5) . . . . . . . . . . . . . . . . . . . 
 72
65
 73
2
 40
0.254
 49
0.0
 74
0
 49
-0.254
 74
0
  0
LTYPE
  5
3E
330
2
100
AcDbSymbolTableRecord
100
AcDbLinetypeTableRecord
  2
DIVIDE
 70
0
  3
Divide __ . . __ . . __ . . __ . . __ . . __
 72
65
 73
6
 40
4.064
 49
2.54
 74
0
 49
-0.508
 74
0
 49
0.0
 74
0
 49
-0.508
 74
0
 49
0.0
 74
0
 49
-0.508
 74
0
  0
LTYPE
  5
3F
330
2
100
AcDbSymbolTableRecord
100
AcDbLinetypeTableRecord
  2
DIVIDEX2
 70
0
  3
Divide (2x) ____  . .  ____  . .  ____  . .  ____
 72
65
 73
6
 40
6.604
 49
5.08
 74
0
 49
-0.508
 74
0
 49
0.0
 74
0
 49
-0.508
 74
0
 49
0.0
 74
0
 49
-0.508
 74
0
  0
LTYPE
  5
40
330
2
100
AcDbSymbolTableRecord
100
AcDbLinetypeTableRecord
  2
DIVIDE2
 70
0
  3
Divide(.5x) _ . _ . _ . _ . _ . _ . _ . _
 72
65
 73
6
 40
2.032
 49
1.27
 74
0
 49
-0.254
 74
0
 49
0.0
 74
0
 49
-0.254
 74
0
 49
0.0
 74
0
 49
-0.254
 74
0
  0
ENDTAB
  0
TABLE
  2
LAYER
  5
1
330
0
100
AcDbSymbolTable
 70
2
  0
LAYER
  5
27
330
1
100
AcDbSymbolTableRecord
100
AcDbLayerTableRecord
  2
0
 70
0
 62
7
  6
Continuous
370
-3
390
13
347
21
  0
LAYER
  5
28
330
1
100
AcDbSymbolTableRecord
100
AcDbLayerTableRecord
  2
Defpoints
 70
0
 62
7
  6
Continuous
290
0
370
-3
390
13
347
21
  0
ENDTAB
  0
TABLE
  2
STYLE
  5
5
330
0
100
AcDbSymbolTable
 70
26
  0
STYLE
  5
29
330
5
100
AcDbSymbolTableRecord
100
AcDbTextStyleTableRecord
  2
Standard
 70
0
 40
0.0
 41
1.0
 50
0.0
 71
0
 42
2.5
  3
txt
  4

  0
STYLE
  5
41
330
5
100
AcDbSymbolTableRecord
100
AcDbTextStyleTableRecord
  2
OpenSans-Light
 70
0
 40
0.0
 41
1.0
 50
0.0
 71
0
 42
2.5
  3
OpenSans-Light.ttf
  4

  0
STYLE
  5
42
330
5
100
AcDbSymbolTableRecord
100
AcDbTextStyleTableRecord
  2
OpenSans-Light-Italic
 70
0
 40
0.0
 41
1.0
 50
0.0
 71
0
 42
2.5
  3
OpenSans-LightItalic.ttf
  4

  0
STYLE
  5
43
330
5
100
AcDbSymbolTableRecord
100
AcDbTextStyleTableRecord
  2
OpenSans
 70
0
 40
0.0
 41
1.0
 50
0.0
 71
0
 42
2.5
  3
OpenSans-Regular.ttf
  4

  0
STYLE
  5
44
330
5
100
AcDbSymbolTableRecord
100
AcDbTextStyleTableRecord
  2
OpenSans-Italic
 70
0
 40
0.0
 41
1.0
 50
0.0
 71
0
 42
2.5
  3
OpenSans-Italic.ttf
  4

  0
STYLE
  5
45
330
5
100
AcDbSymbolTableRecord
100
AcDbTextStyleTableRecord
  2
OpenSans-SemiBold
 70
0
 40
0.0
 41
1.0
 50
0.0
 71
0
 42
2.5
  3
OpenSans-SemiBold.ttf
  4

  0
STYLE
  5
46
330
5
100
AcDbSymbolTableRecord
100
AcDbTextStyleTableRecord
  2
OpenSans-SemiBoldItalic
 70
0
 40
0.0
 41
1.0
 50
0.0
 71
0
 42
2.5
  3
OpenSans-SemiBoldItalic.ttf
  4

  0
STYLE
  5
47
330
5
100
AcDbSymbolTableRecord
100
AcDbTextStyleTableRecord
  2
OpenSans-Bold
 70
0
 40
0.0
 41
1.0
 50
0.0
 71
0
 42
2.5
  3
OpenSans-Bold.ttf
  4

  0
STYLE
  5
48
330
5
100
AcDbSymbolTableRecord
100
AcDbTextStyleTableRecord
  2
OpenSans-BoldItalic
 70
0
 40
0.0
 41
1.0
 50
0.0
 71
0
 42
2.5
  3
OpenSans-BoldItalic.ttf
  4

  0
STYLE
  5
49
330
5
100
AcDbSymbolTableRecord
100
AcDbTextStyleTableRecord
  2
OpenSans-ExtraBold
 70
0
 40
0.0
 41
1.0
 50
0.0
 71
0
 42
2.5
  3
OpenSans-ExtraBold.ttf
  4

  0
STYLE
  5
4A
330
5
100
AcDbSymbolTableRecord
100
AcDbTextStyleTableRecord
  2
OpenSans-ExtraBoldItalic
 70
0
 40
0.0
 41
1.0
 50
0.0
 71
0
 42
2.5
  3
OpenSans-ExtraBoldItalic.ttf
  4

  0
STYLE
  5
4B
330
5
100
AcDbSymbolTableRecord
100
AcDbTextStyleTableRecord
  2
OpenSansCondensed-Bold
 70
0
 40
0.0
 41
1.0
 50
0.0
 71
0
 42
2.5
  3
OpenSansCondensed-Bold.ttf
  4

  0
STYLE
  5
4C
330
5
100
AcDbSymbolTableRecord
100
AcDbTextStyleTableRecord
  2
OpenSansCondensed-Light
 70
0
 40
0.0
 41
1.0
 50
0.0
 71
0
 42
2.5
  3
OpenSansCondensed-Light.ttf
  4

  0
STYLE
  5
4D
330
5
100
AcDbSymbolTableRecord
100
AcDbTextStyleTableRecord
  2
OpenSansCondensed-Italic
 70
0
 40
0.0
 41
1.0
 50
0.0
 71
0
 42
2.5
  3
OpenSansCondensed-LightItalic.ttf
  4

  0
STYLE
  5
4E
330
5
100
AcDbSymbolTableRecord
100
AcDbTextStyleTableRecord
  2
LiberationSans
 70
0
 40
0.0
 41
1.0
 50
0.0
 71
0
 42
2.5
  3
LiberationSans-Regular.ttf
  4

  0
STYLE
  5
4F
330
5
100
AcDbSymbolTableRecord
100
AcDbTextStyleTableRecord
  2
LiberationSans-Bold
 70
0
 40
0.0
 41
1.0
 50
0.0
 71
0
 42
2.5
  3
LiberationSans-Bold.ttf
  4

  0
STYLE
  5
50
330
5
100
AcDbSymbolTableRecord
100
AcDbTextStyleTableRecord
  2
LiberationSans-BoldItalic
 70
0
 40
0.0
 41
1.0
 50
0.0
 71
0
 42
2.5
  3
LiberationSans-BoldItalic.ttf
  4

  0
STYLE
  5
51
330
5
100
AcDbSymbolTableRecord
100
AcDbTextStyleTableRecord
  2
LiberationSans-Italic
 70
0
 40
0.0
 41
1.0
 50
0.0
 71
0
 42
2.5
  3
LiberationSans-Italic.ttf
  4

  0
STYLE
  5
52
330
5
100
AcDbSymbolTableRecord
100
AcDbTextStyleTableRecord
  2
LiberationSerif
 70
0
 40
0.0
 41
1.0
 50
0.0
 71
0
 42
2.5
  3
LiberationSerif-Regular.ttf
  4

  0
STYLE
  5
53
330
5
100
AcDbSymbolTableRecord
100
AcDbTextStyleTableRecord
  2
LiberationSerif-Bold
 70
0
 40
0.0
 41
1.0
 50
0.0
 71
0
 42
2.5
  3
LiberationSerif-Bold.ttf
  4

  0
STYLE
  5
54
330
5
100
AcDbSymbolTableRecord
100
AcDbTextStyleTableRecord
  2
LiberationSerif-BoldItalic
 70
0
 40
0.0
 41
1.0
 50
0.0
 71
0
 42
2.5
  3
LiberationSerif-BoldItalic.ttf
  4

  0
STYLE
  5
55
330
5
100
AcDbSymbolTableRecord
100
AcDbTextStyleTableRecord
  2
LiberationSerif-Italic
 70
0
 40
0.0
 41
1.0
 50
0.0
 71
0
 42
2.5
  3
LiberationSerif-Italic.ttf
  4

  0
STYLE
  5
56
330
5
100
AcDbSymbolTableRecord
100
AcDbTextStyleTableRecord
  2
LiberationMono
 70
0
 40
0.0
 41
1.0
 50
0.0
 71
0
 42
2.5
  3
LiberationMono-Regular.ttf
  4

  0
STYLE
  5
57
330
5
100
AcDbSymbolTableRecord
100
AcDbTextStyleTableRecord
  2
LiberationMono-Bold
 70
0
 40
0.0
 41
1.0
 50
0.0
 71
0
 42
2.5
  3
LiberationMono-Bold.ttf
  4

  0
STYLE
  5
58
330
5
100
AcDbSymbolTableRecord
100
AcDbTextStyleTableRecord
  2
LiberationMono-BoldItalic
 70
0
 40
0.0
 41
1.0
 50
0.0
 71
0
 42
2.5
  3
LiberationMono-BoldItalic.ttf
  4

  0
STYLE
  5
59
330
5
100
AcDbSymbolTableRecord
100
AcDbTextStyleTableRecord
  2
LiberationMono-Italic
 70
0
 40
0.0
 41
1.0
 50
0.0
 71
0
 42
2.5
  3
LiberationMono-Italic.ttf
  4

  0
ENDTAB
  0
TABLE
  2
VIEW
  5
7
330
0
100
AcDbSymbolTable
 70
0
  0
ENDTAB
  0
TABLE
  2
UCS
  5
6
330
0
100
AcDbSymbolTable
 70
0
  0
ENDTAB
  0
TABLE
  2
APPID
  5
3
330
0
100
AcDbSymbolTable
 70
3
  0
APPID
  5
2A
330
3
100
AcDbSymbolTableRecord
100
AcDbRegAppTableRecord
  2
ACAD
 70
0
  0
APPID
  5
8C
330
3
100
AcDbSymbolTableRecord
100
AcDbRegAppTableRecord
  2
HATCHBACKGROUNDCOLOR
 70
0
  0
APPID
  5
8D
330
3
100
AcDbSymbolTableRecord
100
AcDbRegAppTableRecord
  2
EZDXF
 70
0
  0
ENDTAB
  0
TABLE
  2
DIMSTYLE
  5
4
330
0
100
AcDbSymbolTable
 70
12
100
AcDbDimStyleTable
  0
DIMSTYLE
105
2B
330
4
100
AcDbSymbolTableRecord
100
AcDbDimStyleTableRecord
  2
Standard
 70
0
 40
1.0
 41
2.5
 42
0.625
 43
3.75
 44
1.25
 45
0.0
 46
0.0
 47
0.0
 48
0.0
 49
2.5
140
2.5
141
2.5
142
0.0
143
0.03937007874
144
1.0
145
0.0
146
1.0
147
0.625
148
0.0
 69
0
 70
0
 71
0
 72
0
 73
0
 74
0
 75
0
 76
0
 77
1
 78
8
 79
3
170
0
171
3
172
1
173
0
174
0
175
0
176
0
177
0
178
0
179
2
271
2
272
2
273
2
274
3
275
0
276
0
277
2
278
44
279
0
280
0
281
0
282
0
283
0
284
8
285
0
286
0
288
0
289
3
290
0
371
-2
372
-2
  0
DIMSTYLE
105
73
330
4
100
AcDbSymbolTableRecord
100
AcDbDimStyleTableRecord
  2
EZDXF
 70
0
 40
1.0
 41
0.175
 42
0.125
 43
3.75
 44
0.375
 45
0.0
 46
0.0
 47
0.0
 48
0.0
 49
2.5
140
0.25
141
2.5
142
0.0
143
0.03937007874
144
100.0
145
0.0
146
0.5
147
0.1
148
0.0
 69
0
 70
0
 71
0
 72
0
 73
0
 74
0
 75
0
 76
0
 77
1
 78
12
 79
3
170
0
171
3
172
1
173
0
174
0
175
0
176
0
177
0
178
0
179
2
271
2
272
2
273
2
274
3
275
0
276
0
277
2
278
46
279
2
280
0
281
0
282
0
283
0
284
8
285
0
286
0
288
1
289
3
290
0
340
4C
342
74
371
-2
372
-2
  0
DIMSTYLE
105
7C
330
4
100
AcDbSymbolTableRecord
100
AcDbDimStyleTableRecord
  2
EZ_M_100_H25_CM
 70
0
 40
1.0
 41
0.25
 42
0.125
 43
3.75
 44
0.375
 45
0.0
 46
0.0
 47
0.0
 48
0.0
 49
2.5
140
0.25
141
2.5
142
0.125
143
0.03937007874
144
100.0
145
0.0
146
0.5
147
0.1
148
0.0
 69
0
 70
0
 71
0
 72
0
 73
0
 74
0
 75
0
 76
0
 77
1
 78
12
 79
3
170
0
171
3
172
1
173
0
174
0
175
0
176
0
177
0
178
0
179
2
271
2
272
2
273
2
274
3
275
0
276
0
277
2
278
46
279
2
280
0
281
0
282
0
283
0
284
8
285
0
286
0
288
1
289
3
290
0
340
4C
371
-2
372
-2
  0
DIMSTYLE
105
7D
330
4
100
AcDbSymbolTableRecord
100
AcDbDimStyleTableRecord
  2
EZ_M_50_H25_CM
 70
0
 40
1.0
 41
0.125
 42
0.0625
 43
3.75
 44
0.1875
 45
0.0
 46
0.0
 47
0.0
 48
0.0
 49
2.5
140
0.125
141
2.5
142
0.0625
143
0.03937007874
144
100.0
145
0.0
146
0.5
147
0.05
148
0.0
 69
0
 70
0
 71
0
 72
0
 73
0
 74
0
 75
0
 76
0
 77
1
 78
12
 79
3
170
0
171
3
172
1
173
0
174
0
175
0
176
0
177
0
178
0
179
2
271
2
272
2
273
2
274
3
275
0
276
0
277
2
278
46
279
2
280
0
281
0
282
0
283
0
284
8
285
0
286
0
288
1
289
3
290
0
340
4C
371
-2
372
-2
  0
DIMSTYLE
105
7E
330
4
100
AcDbSymbolTableRecord
100
AcDbDimStyleTableRecord
  2
EZ_M_25_H25_CM
 70
0
 40
1.0
 41
0.0625
 42
0.03125
 43
3.75
 44
0.09375
 45
0.0
 46
0.0
 47
0.0
 48
0.0
 49
2.5
140
0.0625
141
2.5
142
0.03125
143
0.03937007874
144
100.0
145
0.0
146
0.5
147
0.025
148
0.0
 69
0
 70
0
 71
0
 72
0
 73
0
 74
0
 75
0
 76
0
 77
1
 78
12
 79
3
170
0
171
3
172
1
173
0
174
0
175
0
176
0
177
0
178
0
179
2
271
2
272
2
273
2
274
3
275
0
276
0
277
2
278
46
279
2
280
0
281
0
282
0
283
0
284
8
285
0
286
0
288
1
289
3
290
0
340
4C
371
-2
372
-2
  0
DIMSTYLE
105
7F
330
4
100
AcDbSymbolTableRecord
100
AcDbDimStyleTableRecord
  2
EZ_M_20_H25_CM
 70
0
 40
1.0
 41
0.05
 42
0.025
 43
3.75
 44
0.07500000000000001
 45
0.0
 46
0.0
 47
0.0
 48
0.0
 49
2.5
140
0.05
141
2.5
142
0.025
143
0.03937007874
144
100.0
145
0.0
146
0.5
147
0.020000000000000004
148
0.0
 69
0
 70
0
 71
0
 72
0
 73
0
 74
0
 75
0
 76
0
 77
1
 78
12
 79
3
170
0
171
3
172
1
173
0
174
0
175
0
176
0
177
0
178
0
179
2
271
2
272
2
273
2
274
3
275
0
276
0
277
2
278
46
279
2
280
0
281
0
282
0
283
0
284
8
285
0
286
0
288
1
289
3
290
0
340
4C
371
-2
372
-2
  0
DIMSTYLE
105
80
330
4
100
AcDbSymbolTableRecord
100
AcDbDimStyleTableRecord
  2
EZ_M_10_H25_CM
 70
0
 40
1.0
 41
0.025
 42
0.0125
 43
3.75
 44
0.037500000000000006
 45
0.0
 46
0.0
 47
0.0
 48
0.0
 49
2.5
140
0.025
141
2.5
142
0.0125
143
0.03937007874
144
100.0
145
0.0
146
0.5
147
0.010000000000000002
148
0.0
 69
0
 70
0
 71
0
 72
0
 73
0
 74
0
 75
0
 76
0
 77
1
 78
12
 79
3
170
0
171
3
172
1
173
0
174
0
175
0
176
0
177
0
178
0
179
2
271
2
272
2
273
2
274
3
275
0
276
0
277
2
278
46
279
2
280
0
281
0
282
0
283
0
284
8
285
0
286
0
288
1
289
3
290
0
340
4C
371
-2
372
-2
  0
DIMSTYLE
105
81
330
4
100
AcDbSymbolTableRecord
100
AcDbDimStyleTableRecord
  2
EZ_M_5_H25_CM
 70
0
 40
1.0
 41
0.0125
 42
0.00625
 43
3.75
 44
0.018750000000000003
 45
0.0
 46
0.0
 47
0.0
 48
0.0
 49
2.5
140
0.0125
141
2.5
142
0.00625
143
0.03937007874
144
100.0
145
0.0
146
0.5
147
0.005000000000000001
148
0.0
 69
0
 70
0
 71
0
 72
0
 73
0
 74
0
 75
0
 76
0
 77
1
 78
12
 79
3
170
0
171
3
172
1
173
0
174
0
175
0
176
0
177
0
178
0
179
2
271
2
272
2
273
2
274
3
275
0
276
0
277
2
278
46
279
2
280
0
281
0
282
0
283
0
284
8
285
0
286
0
288
1
289
3
290
0
340
4C
371
-2
372
-2
  0
DIMSTYLE
105
82
330
4
100
AcDbSymbolTableRecord
100
AcDbDimStyleTableRecord
  2
EZ_M_1_H25_CM
 70
0
 40
1.0
 41
0.0025
 42
0.00125
 43
3.75
 44
0.00375
 45
0.0
 46
0.0
 47
0.0
 48
0.0
 49
2.5
140
0.0025
141
2.5
142
0.00125
143
0.03937007874
144
100.0
145
0.0
146
0.5
147
0.001
148
0.0
 69
0
 70
0
 71
0
 72
0
 73
0
 74
0
 75
0
 76
0
 77
1
 78
12
 79
3
170
0
171
3
172
1
173
0
174
0
175
0
176
0
177
0
178
0
179
2
271
2
272
2
273
2
274
3
275
0
276
0
277
2
278
46
279
2
280
0
281
0
282
0
283
0
284
8
285
0
286
0
288
1
289
3
290
0
340
4C
371
-2
372
-2
  0
DIMSTYLE
105
83
330
4
100
AcDbSymbolTableRecord
100
AcDbDimStyleTableRecord
  2
EZ_RADIUS
 70
0
 40
1.0
 41
0.25
 42
0.125
 43
3.75
 44
0.375
 45
0.0
 46
0.0
 47
0.0
 48
0.0
 49
2.5
140
0.25
141
0.0
142
0.0
143
0.03937007874
144
100.0
145
0.0
146
0.5
147
0.1
148
0.0
 69
0
 70
0
 71
0
 72
0
 73
0
 74
0
 75
0
 76
0
 77
1
 78
12
 79
3
170
0
171
3
172
0
173
0
174
0
175
0
176
0
177
0
178
0
179
2
271
2
272
2
273
2
274
3
275
0
276
0
277
2
278
46
279
1
280
0
281
0
282
0
283
0
284
8
285
0
286
0
288
1
289
3
290
0
340
4C
342
84
371
-2
372
-2
  0
DIMSTYLE
105
88
330
4
100
AcDbSymbolTableRecord
100
AcDbDimStyleTableRecord
  2
EZ_RADIUS_INSIDE
 70
0
 40
1.0
 41
0.25
 42
0.125
 43
3.75
 44
0.375
 45
0.0
 46
0.0
 47
0.0
 48
0.0
 49
2.5
140
0.25
141
0.0
142
0.0
143
0.03937007874
144
100.0
145
0.0
146
0.5
147
0.1
148
0.0
 69
0
 70
0
 71
0
 72
0
 73
0
 74
0
 75
0
 76
0
 77
0
 78
12
 79
3
170
0
171
3
172
0
173
0
174
1
175
0
176
0
177
0
178
0
179
2
271
2
272
2
273
2
274
3
275
0
276
0
277
2
278
46
279
0
280
0
281
0
282
0
283
0
284
8
285
0
286
0
288
1
289
0
290
0
340
4C
342
84
371
-2
372
-2
  0
DIMSTYLE
105
89
330
4
100
AcDbSymbolTableRecord
100
AcDbDimStyleTableRecord
  2
EZ_CURVED
 70
0
 40
1.0
 41
0.25
 42
0.125
 43
3.75
 44
0.375
 45
0.0
 46
0.0
 47
0.0
 48
0.0
 49
2.5
140
0.25
141
2.5
142
0.0
143
0.03937007874
144
100.0
145
0.0
146
0.5
147
0.1
148
0.0
 69
0
 70
0
 71
0
 72
0
 73
0
 74
0
 75
0
 76
0
 77
1
 78
12
 79
2
 90
2
170
0
171
3
172
1
173
0
174
0
175
0
176
0
177
0
178
0
179
2
271
2
272
2
273
2
274
3
275
0
276
0
277
2
278
46
279
2
280
0
281
0
282
0
283
0
284
8
285
0
286
0
288
1
289
3
290
0
340
4C
371
-2
372
-2
  0
ENDTAB
  0
TABLE
  2
BLOCK_RECORD
  5
9
330
0
100
AcDbSymbolTable
 70
5
  0
BLOCK_RECORD
  5
17
330
9
100
AcDbSymbolTableRecord
100
AcDbBlockTableRecord
  2
*Model_Space
340
1A
 70
0
280
1
281
0
  0
BLOCK_RECORD
  5
1B
330
9
100
AcDbSymbolTableRecord
100
AcDbBlockTableRecord
  2
*Paper_Space
340
1E
 70
0
280
1
281
0
  0
BLOCK_RECORD
  5
74
330
9
100
AcDbSymbolTableRecord
100
AcDbBlockTableRecord
  2
_ARCHTICK
340
0
 70
0
280
1
281
0
  0
BLOCK_RECORD
  5
78
330
9
100
AcDbSymbolTableRecord
100
AcDbBlockTableRecord
  2
_CLOSEDFILLED
340
0
 70
0
280
1
281
0
  0
BLOCK_RECORD
  5
84
330
9
100
AcDbSymbolTableRecord
100
AcDbBlockTableRecord
  2
_CLOSEDBLANK
340
0
 70
0
280
1
281
0
  0
ENDTAB
  0
ENDSEC
  0
SECTION
  2
BLOCKS
  0
BLOCK
  5
18
330
17
100
AcDbEntity
  8
0
100
AcDbBlockBegin
  2
*Model_Space
 70
0
 10
0.0
 20
0.0
 30
0.0
  3
*Model_Space
  1

  0
ENDBLK
  5
19
330
17
100
AcDbEntity
  8
0
100
AcDbBlockEnd
  0
BLOCK
  5
1C
330
1B
100
AcDbEntity
  8
0
100
AcDbBlockBegin
  2
*Paper_Space
 70
0
 10
0.0
 20
0.0
 30
0.0
  3
*Paper_Space
  1

  0
ENDBLK
  5
1D
330
1B
100
AcDbEntity
  8
0
100
AcDbBlockEnd
  0
BLOCK
  5
75
330
74
100
AcDbEntity
  8
0
100
AcDbBlockBegin
  2
_ARCHTICK
 70
0
 10
0.0
 20
0.0
 30
0.0
  3
_ARCHTICK
  1

  0
LWPOLYLINE
  5
77
330
74
100
AcDbEntity
  8
0
  6
BYBLOCK
 62
0
100
AcDbPolyline
 90
2
 70
0
 43
0.15
 10
-0.5
 20
-0.5
 10
0.5
 20
0.5
  0
ENDBLK
  5
76
330
74
100
AcDbEntity
  8
0
100
AcDbBlockEnd
  0
BLOCK
  5
79
330
78
100
AcDbEntity
  8
0
100
AcDbBlockBegin
  2
_CLOSEDFILLED
 70
0
 10
0.0
 20
0.0
 30
0.0
  3
_CLOSEDFILLED
  1

  0
SOLID
  5
7B
330
78
100
AcDbEntity
  8
0
  6
BYBLOCK
 62
0
100
AcDbTrace
 10
-1.0
 20
0.16439898372402537
 30
0.0
 11
0.0
 21
0.0
 31
0.0
 12
-1.0
 22
-0.16439898372402537
 32
0.0
 13
-1.0
 23
-0.16439898372402537
 33
0.0
  0
ENDBLK
  5
7A
330
78
100
AcDbEntity
  8
0
100
AcDbBlockEnd
  0
BLOCK
  5
85
330
84
100
AcDbEntity
  8
0
100
AcDbBlockBegin
  2
_CLOSEDBLANK
 70
0
 10
0.0
 20
0.0
 30
0.0
  3
_CLOSEDBLANK
  1

  0
LWPOLYLINE
  5
87
330
84
100
AcDbEntity
  8
0
  6
BYBLOCK
 62
0
100
AcDbPolyline
 90
3
 70
1
 10
-1.0
 20
0.16439898372402537
 10
0.0
 20
0.0
 10
-1.0
 20
-0.16439898372402537
  0
ENDBLK
  5
86
330
84
100
AcDbEntity
  8
0
100
AcDbBlockEnd
  0
ENDSEC
  0
SECTION
  2
ENTITIES
  0
LWPOLYLINE
  5
8A
330
17
100
AcDbEntity
  8
0
100
AcDbPolyline
 90
306
 70
0
 10
0.6835178934182111
 20
120.29914924160516
 10
0.0
 20
120.29914924160516
 10
0.0
 20
232.39608376219178
 10
0.34175894670910556
 20
232.0543248154827
 10
0.0
 20
231.71256586877357
 10
0.0
 20
231.02904797535535
 10
0.34175894670910556
 20
230.68728902864626
 10
0.6835178934182111
 20
230.68728902864626
 10
1.0252768401273167
 20
230.34553008193714
 10
1.3670357868364222
 20
230.34553008193714
 10
1.7087947335455278
 20
230.00377113522805
 10
2.0505536802546334
 20
230.34553008193714
 10
2.392312626963739
 20
230.34553008193714
 10
3.07583052038195
 20
231.02904797535535
 10
3.07583052038195
 20
231.71256586877357
 10
2.0505536802546334
 20
232.7378427089009
 10
1.7087947335455278
 20
232.7378427089009
 10
1.3670357868364222
 20
233.07960165561
 10
1.3670357868364222
 20
233.42136060231908
 10
1.0252768401273167
 20
233.7631195490282
 10
1.0252768401273167
 20
234.1048784957373
 10
0.6835178934182111
 20
234.44663744244642
 10
0.34175894670910556
 20
234.44663744244642
 10
0.0
 20
234.7883963891555
 10
0.0
 20
481.19659696642066
 10
0.34175894670910556
 20
480.8548380197115
 10
0.34175894670910556
 20
480.5130790730024
 10
1.0252768401273167
 20
479.82956117958423
 10
1.0252768401273167
 20
479.4878022328751
 10
1.7087947335455278
 20
478.8042843394569
 10
1.7087947335455278
 20
478.4625253927478
 10
2.0505536802546334
 20
478.12076644603866
 10
2.0505536802546334
 20
477.77900749932957
 10
2.392312626963739
 20
477.4372485526205
 10
2.392312626963739
 20
477.0954896059114
 10
3.07583052038195
 20
476.41197171249314
 10
3.07583052038195
 20
476.07021276578405
 10
3.4175894670910556
 20
475.72845381907496
 10
3.4175894670910556
 20
475.3866948723658
 10
4.442866307218372
 20
474.36141803223853
 10
4.442866307218372
 20
474.0196590855294
 10
5.126384200636584
 20
473.3361411921112
 10
5.126384200636584
 20
472.9943822454021
 10
6.493419987473006
 20
471.6273464585657
 10
6.493419987473006
 20
471.2855875118566
 10
7.860455774309428
 20
469.91855172502017
 10
7.860455774309428
 20
469.576792778311
 10
8.885732614436744
 20
468.55151593818374
 10
8.885732614436744
 20
467.8679980447655
 10
11.278045241400484
 20
465.4756854178018
 10
11.278045241400484
 20
464.79216752438356
 10
11.619804188109589
 20
464.45040857767447
 10
11.619804188109589
 20
464.1086496309654
 10
12.3033220815278
 20
463.42513173754713
 10
12.645081028236905
 20
463.42513173754713
 10
13.328598921655116
 20
462.74161384412895
 10
13.328598921655116
 20
462.3998548974198
 10
13.670357868364222
 20
462.0580959507107
 10
13.670357868364222
 20
461.7163370040016
 10
14.69563470849154
 20
460.6910601638743
 10
14.69563470849154
 20
460.3493012171652
 10
15.037393655200646
 20
460.0075422704561
 10
15.037393655200646
 20
459.66578332374695
 10
15.37915260190975
 20
459.32402437703786
 10
15.37915260190975
 20
458.98226543032877
 10
17.08794733545528
 20
457.27347069678325
 10
17.08794733545528
 20
456.93171175007416
 10
17.429706282164382
 20
456.589952803365
 10
17.429706282164382
 20
456.2481938566559
 10
20.505536802546334
 20
453.172363336274
 10
20.505536802546334
 20
452.8306043895649
 10
21.189054695964543
 20
452.14708649614664
 10
21.189054695964543
 20
451.80532754943755
 10
24.948403109764705
 20
448.04597913563737
 10
24.948403109764705
 20
447.7042201889283
 10
25.29016205647381
 20
447.3624612422192
 10
25.29016205647381
 20
447.0207022955101
 10
25.973679949892023
 20
446.33718440209185
 10
25.973679949892023
 20
445.99542545538276
 10
26.31543889660113
 20
445.65366650867367
 10
26.31543889660113
 20
445.3119075619645
 10
26.657197843310232
 20
444.9701486152554
 10
26.657197843310232
 20
443.94487177512815
 10
26.99895679001934
 20
443.603112828419
 10
26.99895679001934
 20
443.2613538817099
 10
28.024233630146657
 20
442.2360770415826
 10
28.024233630146657
 20
441.8943180948735
 10
29.049510470273972
 20
440.86904125474615
 10
29.049510470273972
 20
440.52728230803706
 10
30.07478731040129
 20
439.5020054679097
 10
30.07478731040129
 20
439.16024652120063
 10
31.100064150528606
 20
438.1349696810733
 10
31.100064150528606
 20
437.7932107343642
 10
31.441823097237712
 20
437.4514517876551
 10
31.441823097237712
 20
437.109692840946
 10
31.78358204394682
 20
436.76793389423693
 10
31.78358204394682
 20
436.4261749475278
 10
32.12534099065592
 20
436.0844160008187
 10
32.12534099065592
 20
435.7426570541096
 10
32.46709993736503
 20
435.4008981074005
 10
32.46709993736503
 20
435.05913916069136
 10
33.15061783078324
 20
434.3756212672732
 10
33.15061783078324
 20
434.0338623205641
 10
33.492376777492346
 20
433.69210337385493
 10
33.492376777492346
 20
433.00858548043675
 10
33.83413572420145
 20
432.66682653372766
 10
33.83413572420145
 20
432.3250675870185
 10
34.17589467091056
 20
431.9833086403094
 10
34.17589467091056
 20
431.6415496936003
 10
34.517653617619665
 20
431.29979074689123
 10
34.517653617619665
 20
430.616272853473
 10
34.859412564328764
 20
430.2745139067639
 10
34.859412564328764
 20
429.5909960133457
 10
35.20117151103787
 20
429.24923706663657
 10
35.20117151103787
 20
428.9074781199275
 10
35.54293045774698
 20
428.5657191732184
 10
35.54293045774698
 20
427.88220127980014
 10
36.22644835116519
 20
427.19868338638196
 10
36.22644835116519
 20
426.5151654929637
 10
36.568207297874295
 20
426.1734065462546
 10
36.9099662445834
 20
426.1734065462546
 10
37.25172519129251
 20
425.83164759954553
 10
37.593484138001614
 20
425.83164759954553
 10
38.277002031419826
 20
425.1481297061273
 10
38.277002031419826
 20
424.8063707594182
 10
38.618760978128925
 20
424.4646118127091
 10
38.96051992483803
 20
424.4646118127091
 10
39.98579676496535
 20
423.4393349725818
 10
39.98579676496535
 20
423.0975760258727
 10
40.32755571167446
 20
422.7558170791636
 10
40.32755571167446
 20
422.4140581324545
 10
41.352832551801775
 20
421.38878129232717
 10
41.352832551801775
 20
421.0470223456181
 10
41.69459149851088
 20
420.7052633989089
 10
41.69459149851088
 20
420.36350445219983
 10
42.37810939192909
 20
419.67998655878165
 10
42.37810939192909
 20
419.3382276120725
 10
42.71986833863819
 20
418.9964686653634
 10
42.71986833863819
 20
418.6547097186543
 10
43.0616272853473
 20
418.3129507719452
 10
43.0616272853473
 20
417.9711918252361
 10
43.403386232056405
 20
417.629432878527
 10
43.403386232056405
 20
416.9459149851088
 10
43.74514517876551
 20
416.60415603839965
 10
43.74514517876551
 20
416.26239709169056
 10
44.428663072183724
 20
415.5788791982724
 10
44.428663072183724
 20
415.2371202515633
 10
44.77042201889283
 20
414.89536130485413
 10
44.77042201889283
 20
414.55360235814504
 10
46.479216752438354
 20
412.8448076245995
 10
46.82097569914746
 20
412.8448076245995
 10
47.84625253927478
 20
411.8195307844722
 10
48.188011485983886
 20
411.8195307844722
 10
48.52977043269299
 20
411.4777718377631
 10
48.8715293794021
 20
411.4777718377631
 10
49.2132883261112
 20
411.136012891054
 10
49.5550472728203
 20
411.136012891054
 10
49.89680621952941
 20
410.79425394434486
 10
50.58032411294762
 20
410.79425394434486
 10
50.92208305965673
 20
410.45249499763577
 10
51.94735989978405
 20
410.45249499763577
 10
52.28911884649315
 20
410.1107360509267
 10
53.314395686620465
 20
410.1107360509267
 10
53.65615463332957
 20
409.7689771042176
 10
54.68143147345689
 20
409.7689771042176
 10
55.023190420165996
 20
409.42721815750843
 10
55.70670831358421
 20
409.42721815750843
 10
56.048467260293314
 20
409.08545921079934
 10
56.73198515371152
 20
409.08545921079934
 10
57.073744100420626
 20
408.74370026409025
 10
57.75726199383884
 20
408.74370026409025
 10
58.099020940547945
 20
408.40194131738116
 10
58.78253883396616
 20
408.40194131738116
 10
59.12429778067526
 20
408.06018237067207
 10
59.807815674093476
 20
408.06018237067207
 10
60.14957462080258
 20
407.7184234239629
 10
60.49133356751168
 20
407.7184234239629
 10
60.83309251422079
 20
407.3766644772538
 10
61.516610407639
 20
407.3766644772538
 10
61.858369354348106
 20
407.03490553054473
 10
62.20012830105721
 20
407.03490553054473
 10
62.54188724776632
 20
406.69314658383564
 10
63.22540514118453
 20
406.69314658383564
 10
63.56716408789364
 20
406.3513876371265
 10
64.25068198131184
 20
406.3513876371265
 10
64.59244092802095
 20
406.0096286904174
 10
64.93419987473006
 20
406.0096286904174
 10
65.27595882143916
 20
405.6678697437083
 10
65.95947671485737
 20
405.6678697437083
 10
66.30123566156648
 20
405.3261107969992
 10
66.64299460827559
 20
405.3261107969992
 10
66.98475355498469
 20
404.98435185029007
 10
67.3265125016938
 20
404.98435185029007
 10
67.6682714484029
 20
404.642592903581
 10
68.35178934182112
 20
404.642592903581
 10
68.69354828853022
 20
404.3008339568719
 10
69.03530723523933
 20
404.3008339568719
 10
69.37706618194842
 20
403.9590750101628
 10
69.71882512865753
 20
403.9590750101628
 10
70.06058407536663
 20
403.61731606345364
 10
70.40234302207574
 20
403.61731606345364
 10
70.74410196878485
 20
403.27555711674455
 10
71.42761986220306
 20
403.27555711674455
 10
72.11113775562127
 20
402.59203922332637
 10
72.45289670233038
 20
402.59203922332637
 10
72.79465564903948
 20
402.2502802766172
 10
73.4781735424577
 20
402.2502802766172
 10
73.8199324891668
 20
401.9085213299081
 10
74.16169143587591
 20
401.9085213299081
 10
74.50345038258502
 20
401.56676238319903
 10
74.84520932929412
 20
401.56676238319903
 10
75.52872722271233
 20
400.88324448978085
 10
75.87048616942144
 20
400.88324448978085
 10
76.55400406283965
 20
400.1997265963626
 10
76.89576300954874
 20
400.1997265963626
 10
77.23752195625785
 20
399.8579676496535
 10
77.57928090296696
 20
399.8579676496535
 10
77.92103984967606
 20
399.5162087029444
 10
78.26279879638517
 20
399.5162087029444
 10
78.60455774309428
 20
399.1744497562353
 10
78.94631668980338
 20
399.1744497562353
 10
79.28807563651249
 20
398.8326908095262
 10
79.6298345832216
 20
398.8326908095262
 10
79.9715935299307
 20
398.4909318628171
 10
80.3133524766398
 20
398.4909318628171
 10
81.33862931676713
 20
397.46565502268976
 10
81.68038826347623
 20
397.46565502268976
 10
82.70566510360355
 20
396.4403781825624
 10
83.04742405031266
 20
396.4403781825624
 10
83.38918299702176
 20
396.09861923585333
 10
83.73094194373087
 20
396.09861923585333
 10
84.07270089043996
 20
395.75686028914424
 10
84.41445983714907
 20
395.75686028914424
 10
85.43973667727639
 20
394.7315834490169
 10
85.78149562398549
 20
394.7315834490169
 10
86.4650135174037
 20
394.0480655555987
 10
86.80677246411281
 20
394.0480655555987
 10
87.49029035753102
 20
393.3645476621805
 10
87.83204930424013
 20
393.3645476621805
 10
88.85732614436745
 20
392.3392708220532
 10
89.19908509107655
 20
392.3392708220532
 10
89.54084403778566
 20
391.99751187534406
 10
89.54084403778566
 20
391.65575292863497
 10
90.90787982462209
 20
390.28871714179854
 10
91.24963877133118
 20
390.28871714179854
 10
91.24963877133118
 20
389.94695819508945
 10
93.98371034500403
 20
387.2128866214166
 10
94.32546929171313
 20
387.2128866214166
 10
96.03426402525866
 20
385.5040918878711
 10
96.37602297196777
 20
385.5040918878711
 10
97.05954086538598
 20
384.82057399445284
 10
97.40129981209509
 20
384.82057399445284
 10
98.7683355989315
 20
383.4535382076164
 10
99.1100945456406
 20
383.4535382076164
 10
99.79361243905882
 20
382.77002031419823
 10
100.13537138576793
 20
382.77002031419823
 10
101.50240717260435
 20
381.4029845273618
 10
101.84416611931346
 20
381.4029845273618
 10
103.21120190614988
 20
380.0359487405254
 10
103.55296085285899
 20
380.0359487405254
 10
103.8947197995681
 20
379.6941897938163
 10
105.26175558640452
 20
379.6941897938163
 10
105.60351453311362
 20
379.35243084710714
 10
105.94527347982272
 20
379.35243084710714
 10
106.62879137324093
 20
378.66891295368896
 10
106.97055031995004
 20
378.66891295368896
 10
107.65406821336825
 20
377.9853950602708
 10
107.99582716007735
 20
377.9853950602708
 10
108.33758610678646
 20
377.6436361135616
 10
108.67934505349557
 20
377.6436361135616
 10
109.36286294691378
 20
376.96011822014344
 10
109.70462189362289
 20
376.96011822014344
 10
110.04638084033199
 20
376.61835927343435
 10
110.3881397870411
 20
376.61835927343435
 10
110.7298987337502
 20
376.2766003267252
 10
111.07165768045931
 20
376.2766003267252
 10
111.41341662716842
 20
375.9348413800161
 10
111.75517557387752
 20
375.9348413800161
 10
112.09693452058663
 20
375.593082433307
 10
112.43869346729574
 20
375.593082433307
 10
112.78045241400484
 20
375.2513234865979
 10
113.12221136071393
 20
375.2513234865979
 10
113.46397030742304
 20
374.9095645398888
 10
113.80572925413215
 20
374.9095645398888
 10
114.14748820084125
 20
374.5678055931797
 10
114.83100609425946
 20
374.5678055931797
 10
115.51452398767768
 20
373.8842876997615
 10
115.85628293438678
 20
373.8842876997615
 10
116.19804188109589
 20
373.54252875305235
 10
116.539800827805
 20
373.54252875305235
 10
116.8815597745141
 20
373.20076980634326
 10
117.22331872122321
 20
373.20076980634326
 10
117.56507766793231
 20
372.85901085963417
 10
118.24859556135053
 20
372.85901085963417
 10
118.59035450805963
 20
372.5172519129251
 10
119.27387240147785
 20
372.5172519129251
 10
119.61563134818695
 20
372.1754929662159
 10
120.29914924160516
 20
372.1754929662159
 10
120.64090818831426
 20
371.83373401950684
 10
121.32442608173247
 20
371.83373401950684
 10
121.66618502844157
 20
371.49197507279774
 10
122.6914618685689
 20
371.49197507279774
 10
123.033220815278
 20
371.15021612608865
 10
123.71673870869621
 20
371.15021612608865
 10
124.05849765540532
 20
370.80845717937956
 10
124.74201554882353
 20
370.80845717937956
  0
LWPOLYLINE
  5
8B
330
17
100
AcDbEntity
  8
0
100
AcDbPolyline
 90
803
 70
0
 10
124.74201554882353
 20
370.80845717937956
 10
125.08377449553264
 20
370.4666982326704
 10
125.76729238895085
 20
370.4666982326704
 10
126.10905133565996
 20
370.1249392859613
 10
126.79256922907817
 20
370.1249392859613
 10
127.13432817578727
 20
369.7831803392522
 10
128.1596050159146
 20
369.7831803392522
 10
128.50136396262369
 20
369.44142139254313
 10
129.1848818560419
 20
369.44142139254313
 10
129.52664080275102
 20
369.099662445834
 10
129.8683997494601
 20
369.099662445834
 10
130.21015869616923
 20
368.7579034991249
 10
130.89367658958744
 20
368.7579034991249
 10
131.23543553629654
 20
368.4161445524158
 10
132.26071237642384
 20
368.4161445524158
 10
132.60247132313296
 20
368.0743856057067
 10
133.28598921655117
 20
368.0743856057067
 10
133.62774816326026
 20
367.73262665899756
 10
134.31126605667848
 20
367.73262665899756
 10
134.9947839500967
 20
367.0491087655794
 10
135.3365428968058
 20
367.0491087655794
 10
135.6783018435149
 20
366.7073498188703
 10
136.02006079022402
 20
366.7073498188703
 10
136.70357868364223
 20
366.02383192545204
 10
137.04533763035133
 20
366.02383192545204
 10
137.72885552376954
 20
365.34031403203386
 10
138.07061447047866
 20
365.34031403203386
 10
138.41237341718775
 20
364.9985550853247
 10
138.75413236389684
 20
364.9985550853247
 10
139.09589131060596
 20
364.6567961386156
 10
139.43765025731506
 20
364.6567961386156
 10
140.12116815073327
 20
363.97327824519743
 10
140.4629270974424
 20
363.97327824519743
 10
140.80468604415148
 20
363.63151929848834
 10
141.1464449908606
 20
363.63151929848834
 10
141.4882039375697
 20
363.2897603517792
 10
141.8299628842788
 20
363.2897603517792
 10
142.1717218309879
 20
362.9480014050701
 10
142.51348077769703
 20
362.9480014050701
 10
142.85523972440612
 20
362.606242458361
 10
143.19699867111524
 20
362.606242458361
 10
143.53875761782433
 20
362.2644835116519
 10
143.88051656453345
 20
362.2644835116519
 10
144.22227551124254
 20
361.92272456494277
 10
144.90579340466076
 20
361.92272456494277
 10
145.24755235136988
 20
361.5809656182337
 10
145.58931129807897
 20
361.5809656182337
 10
145.93107024478806
 20
361.2392066715246
 10
146.61458813820627
 20
361.2392066715246
 10
146.9563470849154
 20
360.8974477248155
 10
147.29810603162449
 20
360.8974477248155
 10
147.6398649783336
 20
360.55568877810634
 10
148.32338287175182
 20
360.55568877810634
 10
148.6651418184609
 20
360.21392983139725
 10
149.34865971187912
 20
360.21392983139725
 10
149.69041865858824
 20
359.87217088468816
 10
150.37393655200646
 20
359.87217088468816
 10
150.71569549871555
 20
359.53041193797907
 10
151.74097233884288
 20
359.53041193797907
 10
152.08273128555197
 20
359.1886529912699
 10
152.76624917897018
 20
359.1886529912699
 10
153.1080081256793
 20
358.8468940445608
 10
153.7915260190975
 20
358.8468940445608
 10
154.1332849658066
 20
358.50513509785173
 10
154.81680285922482
 20
358.50513509785173
 10
155.1585618059339
 20
358.16337615114264
 10
155.84207969935213
 20
358.16337615114264
 10
156.18383864606125
 20
357.8216172044335
 10
156.86735653947946
 20
357.8216172044335
 10
157.20911548618855
 20
357.4798582577244
 10
157.55087443289767
 20
357.4798582577244
 10
157.89263337960676
 20
357.1380993110153
 10
158.57615127302498
 20
357.1380993110153
 10
158.9179102197341
 20
356.7963403643062
 10
159.2596691664432
 20
356.7963403643062
 10
159.6014281131523
 20
356.4545814175971
 10
159.9431870598614
 20
356.4545814175971
 10
160.28494600657052
 20
356.112822470888
 10
160.9684638999887
 20
356.112822470888
 10
161.31022284669783
 20
355.7710635241789
 10
161.65198179340692
 20
355.7710635241789
 10
161.99374074011604
 20
355.4293045774698
 10
162.67725863353425
 20
355.4293045774698
 10
163.01901758024334
 20
355.0875456307607
 10
163.36077652695246
 20
355.0875456307607
 10
163.70253547366156
 20
354.74578668405155
 10
164.38605336707977
 20
354.74578668405155
 10
164.7278123137889
 20
354.40402773734246
 10
165.06957126049798
 20
354.40402773734246
 10
165.4113302072071
 20
354.06226879063337
 10
165.7530891539162
 20
354.06226879063337
 10
166.0948481006253
 20
353.7205098439243
 10
166.77836599404353
 20
353.7205098439243
 10
167.12012494075262
 20
353.3787508972151
 10
167.46188388746174
 20
353.3787508972151
 10
167.80364283417083
 20
353.03699195050604
 10
168.48716072758904
 20
353.03699195050604
 10
168.82891967429813
 20
352.69523300379694
 10
169.51243756771635
 20
352.69523300379694
 10
169.85419651442547
 20
352.35347405708785
 10
170.19595546113456
 20
352.35347405708785
 10
170.53771440784368
 20
352.0117151103787
 10
171.2212323012619
 20
352.0117151103787
 10
171.56299124797098
 20
351.6699561636696
 10
172.2465091413892
 20
351.6699561636696
 10
172.58826808809832
 20
351.3281972169605
 10
173.27178598151653
 20
351.3281972169605
 10
173.61354492822562
 20
350.9864382702514
 10
174.63882176835295
 20
350.9864382702514
 10
174.98058071506205
 20
350.6446793235423
 10
175.32233966177114
 20
350.6446793235423
 10
175.66409860848026
 20
350.3029203768332
 10
176.68937544860756
 20
350.3029203768332
 10
177.03113439531668
 20
349.9611614301241
 10
177.7146522887349
 20
349.9611614301241
 10
178.056411235444
 20
349.619402483415
 10
178.7399291288622
 20
349.619402483415
 10
179.08168807557132
 20
349.2776435367059
 10
179.76520596898953
 20
349.2776435367059
 10
180.10696491569863
 20
348.93588458999676
 10
180.79048280911684
 20
348.93588458999676
 10
181.13224175582596
 20
348.59412564328767
 10
181.81575964924417
 20
348.59412564328767
 10
182.15751859595326
 20
348.2523666965786
 10
182.84103648937148
 20
348.2523666965786
 10
183.18279543608057
 20
347.9106077498695
 10
184.2080722762079
 20
347.9106077498695
 10
184.549831222917
 20
347.56884880316034
 10
185.2333491163352
 20
347.56884880316034
 10
185.57510806304433
 20
347.22708985645124
 10
186.60038490317163
 20
347.22708985645124
 10
186.94214384988075
 20
346.88533090974215
 10
187.96742069000805
 20
346.88533090974215
 10
188.30917963671718
 20
346.54357196303306
 10
189.33445647684448
 20
346.54357196303306
 10
189.67621542355357
 20
346.2018130163239
 10
190.7014922636809
 20
346.2018130163239
 10
191.04325121039
 20
345.8600540696148
 10
192.06852805051733
 20
345.8600540696148
 10
192.41028699722642
 20
345.5182951229057
 10
193.43556383735375
 20
345.5182951229057
 10
193.77732278406285
 20
345.17653617619663
 10
194.80259962419018
 20
345.17653617619663
 10
195.14435857089927
 20
344.8347772294875
 10
196.1696354110266
 20
344.8347772294875
 10
196.5113943577357
 20
344.4930182827784
 10
197.536671197863
 20
344.4930182827784
 10
197.87843014457212
 20
344.1512593360693
 10
198.90370698469943
 20
344.1512593360693
 10
199.24546593140855
 20
343.8095003893602
 10
200.27074277153585
 20
343.8095003893602
 10
200.61250171824497
 20
343.46774144265106
 10
201.29601961166318
 20
343.46774144265106
 10
201.63777855837228
 20
343.12598249594197
 10
202.6630553984996
 20
343.12598249594197
 10
203.0048143452087
 20
342.7842235492329
 10
204.03009118533603
 20
342.7842235492329
 10
204.37185013204513
 20
342.4424646025238
 10
205.39712697217243
 20
342.4424646025238
 10
205.73888591888155
 20
342.1007056558147
 10
206.42240381229976
 20
342.1007056558147
 10
206.76416275900885
 20
341.75894670910554
 10
207.44768065242707
 20
341.75894670910554
 10
207.7894395991362
 20
341.41718776239645
 10
208.4729574925544
 20
341.41718776239645
 10
208.8147164392635
 20
341.07542881568736
 10
209.83999327939082
 20
341.07542881568736
 10
210.18175222609992
 20
340.73366986897827
 10
210.86527011951813
 20
340.73366986897827
 10
211.20702906622725
 20
340.3919109222691
 10
211.89054695964543
 20
340.3919109222691
 10
212.23230590635455
 20
340.05015197556
 10
212.91582379977277
 20
340.05015197556
 10
213.25758274648186
 20
339.70839302885094
 10
213.94110063990007
 20
339.70839302885094
 10
214.2828595866092
 20
339.36663408214184
 10
215.3081364267365
 20
339.36663408214184
 10
215.64989537344562
 20
339.0248751354327
 10
216.33341326686383
 20
339.0248751354327
 10
216.67517221357292
 20
338.6831161887236
 10
217.35869010699113
 20
338.6831161887236
 10
217.70044905370025
 20
338.3413572420145
 10
218.72572589382756
 20
338.3413572420145
 10
219.06748484053665
 20
337.9995982953054
 10
219.75100273395486
 20
337.9995982953054
 10
220.09276168066398
 20
337.65783934859627
 10
220.7762795740822
 20
337.65783934859627
 10
221.1180385207913
 20
337.3160804018872
 10
221.8015564142095
 20
337.3160804018872
 10
222.14331536091862
 20
336.9743214551781
 10
223.16859220104593
 20
336.9743214551781
 10
223.51035114775505
 20
336.632562508469
 10
223.85211009446414
 20
336.632562508469
 10
224.19386904117326
 20
336.29080356175984
 10
225.21914588130056
 20
336.29080356175984
 10
225.56090482800968
 20
335.94904461505075
 10
226.24442272142787
 20
335.94904461505075
 10
226.586181668137
 20
335.60728566834166
 10
227.2696995615552
 20
335.60728566834166
 10
227.6114585082643
 20
335.26552672163257
 10
228.2949764016825
 20
335.26552672163257
 10
228.63673534839162
 20
334.9237677749235
 10
229.66201218851893
 20
334.9237677749235
 10
230.00377113522805
 20
334.5820088282143
 10
230.68728902864626
 20
334.5820088282143
 10
231.02904797535535
 20
334.24024988150524
 10
231.71256586877357
 20
334.24024988150524
 10
232.0543248154827
 20
333.89849093479614
 10
232.7378427089009
 20
333.89849093479614
 10
233.07960165561
 20
333.55673198808705
 10
234.1048784957373
 20
333.55673198808705
 10
234.44663744244642
 20
333.2149730413779
 10
235.13015533586463
 20
333.2149730413779
 10
235.47191428257372
 20
332.8732140946688
 10
236.15543217599193
 20
332.8732140946688
 10
236.49719112270105
 20
332.5314551479597
 10
237.52246796282836
 20
332.5314551479597
 10
237.86422690953748
 20
332.1896962012506
 10
238.88950374966478
 20
332.1896962012506
 10
239.2312626963739
 20
331.8479372545415
 10
239.91478058979212
 20
331.8479372545415
 10
240.2565395365012
 20
331.5061783078324
 10
240.94005742991942
 20
331.5061783078324
 10
241.2818163766285
 20
331.1644193611233
 10
241.96533427004672
 20
331.1644193611233
 10
242.30709321675585
 20
330.8226604144142
 10
243.33237005688315
 20
330.8226604144142
 10
243.67412900359227
 20
330.48090146770505
 10
244.35764689701048
 20
330.48090146770505
 10
244.69940584371957
 20
330.13914252099596
 10
245.7246826838469
 20
330.13914252099596
 10
246.066441630556
 20
329.79738357428687
 10
246.7499595239742
 20
329.79738357428687
 10
247.09171847068333
 20
329.4556246275778
 10
248.11699531081064
 20
329.4556246275778
 10
248.45875425751973
 20
329.1138656808686
 10
249.48403109764706
 20
329.1138656808686
 10
249.82579004435615
 20
328.77210673415954
 10
250.50930793777437
 20
328.77210673415954
 10
250.8510668844835
 20
328.43034778745044
 10
251.8763437246108
 20
328.43034778745044
 10
252.2181026713199
 20
328.08858884074135
 10
253.24337951144722
 20
328.08858884074135
 10
253.58513845815634
 20
327.74682989403226
 10
254.61041529828364
 20
327.74682989403226
 10
254.95217424499276
 20
327.4050709473231
 10
255.63569213841095
 20
327.4050709473231
 10
255.97745108512007
 20
327.063312000614
 10
257.00272792524737
 20
327.063312000614
 10
257.34448687195646
 20
326.7215530539049
 10
258.0280047653747
 20
326.7215530539049
 10
258.3697637120838
 20
326.37979410719583
 10
259.3950405522111
 20
326.37979410719583
 10
259.7367994989202
 20
326.0380351604867
 10
260.42031739233846
 20
326.0380351604867
 10
260.76207633904755
 20
325.6962762137776
 10
261.7873531791749
 20
325.6962762137776
 10
262.129112125884
 20
325.3545172670685
 10
263.4961479127204
 20
325.3545172670685
 10
263.8379068594295
 20
325.0127583203594
 10
264.8631836995568
 20
325.0127583203594
 10
265.2049426462659
 20
324.67099937365026
 10
266.57197843310234
 20
324.67099937365026
 10
266.91373737981144
 20
324.32924042694117
 10
267.93901421993877
 20
324.32924042694117
 10
268.28077316664786
 20
323.9874814802321
 10
269.6478089534843
 20
323.9874814802321
 10
269.9895679001934
 20
323.645722533523
 10
271.0148447403207
 20
323.645722533523
 10
271.3566036870298
 20
323.30396358681384
 10
272.38188052715714
 20
323.30396358681384
 10
272.7236394738662
 20
322.96220464010474
 10
273.74891631399356
 20
322.96220464010474
 10
274.09067526070265
 20
322.62044569339565
 10
275.11595210083
 20
322.62044569339565
 10
275.4577110475391
 20
322.27868674668656
 10
276.4829878876664
 20
322.27868674668656
 10
276.8247468343755
 20
321.9369277999774
 10
277.5082647277937
 20
321.9369277999774
 10
277.85002367450284
 20
321.5951688532683
 10
278.8753005146301
 20
321.5951688532683
 10
279.21705946133926
 20
321.2534099065592
 10
280.24233630146654
 20
321.2534099065592
 10
280.5840952481757
 20
320.91165095985014
 10
281.60937208830296
 20
320.91165095985014
 10
281.9511310350121
 20
320.56989201314104
 10
282.9764078751394
 20
320.56989201314104
 10
283.31816682184854
 20
320.2281330664319
 10
284.0016847152667
 20
320.2281330664319
 10
284.3434436619758
 20
319.8863741197228
 10
285.36872050210314
 20
319.8863741197228
 10
285.71047944881224
 20
319.5446151730137
 10
286.73575628893957
 20
319.5446151730137
 10
287.07751523564866
 20
319.2028562263046
 10
288.102792075776
 20
319.2028562263046
 10
288.4445510224851
 20
318.86109727959547
 10
289.4698278626124
 20
318.86109727959547
 10
289.8115868093215
 20
318.5193383328864
 10
290.49510470273975
 20
318.5193383328864
 10
290.83686364944884
 20
318.1775793861773
 10
291.8621404895761
 20
318.1775793861773
 10
292.20389943628527
 20
317.8358204394682
 10
293.22917627641255
 20
317.8358204394682
 10
293.5709352231217
 20
317.49406149275904
 10
294.59621206324897
 20
317.49406149275904
 10
294.9379710099581
 20
317.15230254604995
 10
295.9632478500854
 20
317.15230254604995
 10
296.30500679679454
 20
316.81054359934086
 10
297.3302836369218
 20
316.81054359934086
 10
297.67204258363097
 20
316.46878465263177
 10
298.69731942375824
 20
316.46878465263177
 10
299.03907837046734
 20
316.1270257059226
 10
300.06435521059467
 20
316.1270257059226
 10
300.40611415730376
 20
315.7852667592135
 10
302.11490889084934
 20
315.7852667592135
 10
302.4566678375584
 20
315.44350781250444
 10
303.48194467768576
 20
315.44350781250444
 10
303.82370362439485
 20
315.10174886579534
 10
305.53249835794037
 20
315.10174886579534
 10
305.87425730464946
 20
314.7599899190862
 10
307.583052038195
 20
314.7599899190862
 10
307.9248109849041
 20
314.4182309723771
 10
309.29184677174055
 20
314.4182309723771
 10
309.63360571844964
 20
314.076472025668
 10
311.34240045199516
 20
314.076472025668
 10
311.68415939870425
 20
313.7347130789589
 10
313.3929541322498
 20
313.7347130789589
 10
313.7347130789589
 20
313.3929541322498
 10
315.10174886579534
 20
313.3929541322498
 10
315.44350781250444
 20
313.0511951855407
 10
317.49406149275904
 20
313.0511951855407
 10
317.8358204394682
 20
312.7094362388316
 10
319.5446151730137
 20
312.7094362388316
 10
319.8863741197228
 20
312.3676772921225
 10
321.9369277999774
 20
312.3676772921225
 10
322.27868674668656
 20
312.0259183454134
 10
323.9874814802321
 20
312.0259183454134
 10
324.32924042694117
 20
311.68415939870425
 10
325.6962762137776
 20
311.68415939870425
 10
326.0380351604867
 20
311.34240045199516
 10
328.08858884074135
 20
311.34240045199516
 10
328.43034778745044
 20
311.00064150528607
 10
330.48090146770505
 20
311.00064150528607
 10
330.8226604144142
 20
310.658882558577
 10
331.8479372545415
 20
310.658882558577
 10
332.1896962012506
 20
310.3171236118678
 10
333.89849093479614
 20
310.3171236118678
 10
334.24024988150524
 20
309.97536466515874
 10
335.94904461505075
 20
309.97536466515874
 10
336.29080356175984
 20
309.63360571844964
 10
337.9995982953054
 20
309.63360571844964
 10
338.3413572420145
 20
309.29184677174055
 10
340.3919109222691
 20
309.29184677174055
 10
340.73366986897827
 20
308.9500878250314
 10
343.12598249594197
 20
308.9500878250314
 10
343.46774144265106
 20
308.6083288783223
 10
345.8600540696148
 20
308.6083288783223
 10
346.2018130163239
 20
308.2665699316132
 10
349.2776435367059
 20
308.2665699316132
 10
349.619402483415
 20
307.9248109849041
 10
352.0117151103787
 20
307.9248109849041
 10
352.35347405708785
 20
307.583052038195
 10
354.40402773734246
 20
307.583052038195
 10
354.74578668405155
 20
307.2412930914859
 10
356.7963403643062
 20
307.2412930914859
 10
357.1380993110153
 20
306.8995341447768
 10
358.8468940445608
 20
306.8995341447768
 10
359.1886529912699
 20
306.5577751980677
 10
360.8974477248155
 20
306.5577751980677
 10
361.2392066715246
 20
306.2160162513586
 10
363.2897603517792
 20
306.2160162513586
 10
363.63151929848834
 20
305.87425730464946
 10
366.02383192545204
 20
305.87425730464946
 10
366.36559087216114
 20
305.53249835794037
 10
369.44142139254313
 20
305.53249835794037
 10
369.7831803392522
 20
305.1907394112313
 10
372.5172519129251
 20
305.1907394112313
 10
372.85901085963417
 20
304.8489804645222
 10
376.2766003267252
 20
304.8489804645222
 10
376.61835927343435
 20
304.50722151781304
 10
379.6941897938163
 20
304.50722151781304
 10
380.0359487405254
 20
304.16546257110394
 10
383.79529715432557
 20
304.16546257110394
 10
384.13705610103466
 20
303.82370362439485
 10
388.579922408253
 20
303.82370362439485
 10
388.9216813549621
 20
303.48194467768576
 10
392.6810297687623
 20
303.48194467768576
 10
393.0227887154714
 20
303.1401857309766
 10
396.09861923585333
 20
303.1401857309766
 10
396.4403781825624
 20
302.7984267842675
 10
400.1997265963626
 20
302.7984267842675
 10
400.5414855430717
 20
302.4566678375584
 10
404.642592903581
 20
302.4566678375584
 10
404.98435185029007
 20
302.11490889084934
 10
408.40194131738116
 20
302.11490889084934
 10
408.74370026409025
 20
301.7731499441402
 10
411.4777718377631
 20
301.7731499441402
 10
411.8195307844722
 20
301.4313909974311
 10
414.21184341143595
 20
301.4313909974311
 10
414.55360235814504
 20
301.089632050722
 10
416.9459149851088
 20
301.089632050722
 10
417.2876739318179
 20
300.7478731040129
 10
419.3382276120725
 20
300.7478731040129
 10
419.67998655878165
 20
300.40611415730376
 10
422.07229918574535
 20
300.40611415730376
 10
422.4140581324545
 20
300.06435521059467
 10
424.8063707594182
 20
300.06435521059467
 10
425.1481297061273
 20
299.7225962638856
 10
427.88220127980014
 20
299.7225962638856
 10
428.2239602265093
 20
299.3808373171765
 10
430.616272853473
 20
299.3808373171765
 10
430.9580318001821
 20
299.03907837046734
 10
433.35034442714584
 20
299.03907837046734
 10
433.69210337385493
 20
298.69731942375824
 10
436.4261749475278
 20
298.69731942375824
 10
436.76793389423693
 20
298.35556047704915
 10
440.52728230803706
 20
298.35556047704915
 10
440.86904125474615
 20
298.01380153034006
 10
445.3119075619645
 20
298.01380153034006
 10
445.65366650867367
 20
297.67204258363097
 10
449.75477386918294
 20
297.67204258363097
 10
450.09653281589203
 20
297.3302836369218
 10
452.8306043895649
 20
297.3302836369218
 10
453.172363336274
 20
296.9885246902127
 10
456.2481938566559
 20
296.9885246902127
 10
456.589952803365
 20
296.64676574350364
 10
460.6910601638743
 20
296.64676574350364
 10
461.0328191105834
 20
296.30500679679454
 10
465.8174443645109
 20
296.30500679679454
 10
466.15920331122
 20
295.9632478500854
 10
471.2855875118566
 20
295.9632478500854
 10
471.6273464585657
 20
295.6214889033763
 10
475.3866948723658
 20
295.6214889033763
 10
475.72845381907496
 20
295.2797299566672
 10
479.146043286166
 20
295.2797299566672
 10
479.4878022328751
 20
294.9379710099581
 10
482.22187380654793
 20
294.9379710099581
 10
482.563632753257
 20
294.59621206324897
 10
486.3229811670572
 20
294.59621206324897
 10
486.6647401137663
 20
294.2544531165399
 10
490.4240885275665
 20
294.2544531165399
 10
490.7658474742756
 20
293.9126941698308
 10
496.2339906216213
 20
293.9126941698308
 10
496.57574956833037
 20
293.5709352231217
 10
503.4109285025125
 20
293.5709352231217
 10
503.7526874492216
 20
293.22917627641255
 10
515.0307326906221
 20
293.22917627641255
 10
515.3724916373312
 20
292.88741732970345
 10
521.5241526780951
 20
292.88741732970345
 10
521.8659116248042
 20
292.54565838299436
 10
528.0175726655681
 20
292.54565838299436
 10
528.3593316122772
 20
292.20389943628527
 10
546.4725557878598
 20
292.20389943628527
 10
546.8143147345689
 20
291.8621404895761
 10
553.9912526154601
 20
291.8621404895761
 10
554.3330115621692
 20
292.20389943628527
 10
555.0165294555874
 20
292.20389943628527
 10
555.3582884022966
 20
291.8621404895761
 10
573.12975363117
 20
291.8621404895761
 10
573.4715125778791
 20
291.520381542867
 10
584.7495578192796
 20
291.520381542867
 10
585.0913167659887
 20
291.17862259615794
 10
590.2177009666253
 20
291.17862259615794
 10
590.5594599133344
 20
290.83686364944884
 10
597.0528799008074
 20
290.83686364944884
 10
597.3946388475165
 20
290.49510470273975
 10
643.1903377065366
 20
290.49510470273975
 10
643.5320966532457
 20
290.1533457560306
 10
653.4431061078099
 20
290.1533457560306
 10
653.784865054519
 20
289.8115868093215
 10
719.0608238759581
 20
289.8115868093215
 10
719.4025828226672
 20
289.4698278626124
 10
747.4268164528139
 20
289.4698278626124
 10
747.768575399523
 20
289.1280689159033
 10
748.1103343462321
 20
289.1280689159033
 10
748.4520932929412
 20
289.4698278626124
 10
765.5400406283965
 20
289.4698278626124
 10
765.8817995751056
 20
289.8115868093215
 10
788.0961311111975
 20
289.8115868093215
 10
788.4378900579065
 20
290.1533457560306
 10
794.5895510986704
 20
290.1533457560306
 10
794.9313100453795
 20
290.49510470273975
 10
804.8423194999436
 20
290.49510470273975
 10
805.1840784466527
 20
290.83686364944884
 10
813.7280521143804
 20
290.83686364944884
 10
814.0698110610895
 20
291.17862259615794
 10
819.8797131551443
 20
291.17862259615794
 10
820.2214721018534
 20
291.520381542867
 10
826.7148920893263
 20
291.520381542867
 10
827.0566510360354
 20
291.8621404895761
 10
832.183035236672
 20
291.8621404895761
 10
832.5247941833811
 20
292.20389943628527
 10
837.6511783840177
 20
292.20389943628527
 10
837.9929373307268
 20
292.54565838299436
 10
844.4863573181998
 20
292.54565838299436
 10
844.828116264909
 20
292.88741732970345
 10
850.6380183589638
 20
292.88741732970345
 10
850.9797773056729
 20
293.22917627641255
 10
856.7896793997277
 20
293.22917627641255
 10
857.1314383464368
 20
293.5709352231217
 10
863.6248583339097
 20
293.5709352231217
 10
863.9666172806188
 20
293.9126941698308
 10
871.8270730549283
 20
293.9126941698308
 10
872.1688320016374
 20
294.2544531165399
 10
884.8139130298742
 20
294.2544531165399
 10
885.1556719765834
 20
294.59621206324897
 10
891.9908509107655
 20
294.59621206324897
 10
892.3326098574746
 20
294.9379710099581
 10
895.0666814311475
 20
294.9379710099581
 10
895.4084403778566
 20
295.2797299566672
 10
898.1425119515294
 20
295.2797299566672
 10
898.4842708982385
 20
295.6214889033763
 10
900.8765835252022
 20
295.6214889033763
 10
901.2183424719113
 20
295.9632478500854
 10
902.9271372054569
 20
295.9632478500854
 10
903.268896152166
 20
296.30500679679454
 10
904.9776908857115
 20
296.30500679679454
 10
905.3194498324207
 20
296.64676574350364
 10
907.0282445659661
 20
296.64676574350364
 10
907.3700035126752
 20
296.9885246902127
 10
908.3952803528026
 20
296.9885246902127
 10
908.7370392995117
 20
297.3302836369218
 10
910.4458340330572
 20
297.3302836369218
 10
910.7875929797664
 20
297.67204258363097
 10
911.8128698198936
 20
297.67204258363097
 10
912.1546287666027
 20
298.01380153034006
 10
914.5469413935665
 20
298.01380153034006
 10
914.8887003402756
 20
298.35556047704915
 10
925.1414687415488
 20
298.35556047704915
 10
925.4832276882579
 20
298.01380153034006
 10
927.5337813685125
 20
298.01380153034006
 10
927.8755403152215
 20
297.67204258363097
 10
929.9260939954762
 20
297.67204258363097
 10
930.2678529421853
 20
297.3302836369218
 10
931.6348887290218
 20
297.3302836369218
 10
931.9766476757309
 20
296.9885246902127
 10
932.31840662244
 20
296.9885246902127
 10
932.6601655691491
 20
296.64676574350364
 10
932.6601655691491
 20
292.54565838299436
 10
933.0019245158581
 20
292.20389943628527
 10
933.0019245158581
 20
287.7610331290669
 10
933.3436834625672
 20
287.41927418235775
 10
933.3436834625672
 20
284.6852026086849
 10
933.6854424092763
 20
284.3434436619758
 10
933.6854424092763
 20
279.90057735475744
 10
934.0272013559855
 20
279.55881840804835
 10
934.0272013559855
 20
276.8247468343755
 10
934.3689603026946
 20
276.4829878876664
 10
934.3689603026946
 20
267.25549632652053
 10
934.7107192494037
 20
266.91373737981144
 10
934.7107192494037
 20
259.7367994989202
 10
935.0524781961128
 20
259.3950405522111
 10
935.0524781961128
 20
254.26865635157455
 10
934.7107192494037
 20
253.92689740486543
 10
934.7107192494037
 20
246.066441630556
 10
934.3689603026946
 20
245.7246826838469
 10
934.3689603026946
 20
226.586181668137
 10
934.0272013559855
 20
226.24442272142787
 10
934.0272013559855
 20
223.51035114775505
 10
933.6854424092763
 20
223.16859220104593
 10
933.6854424092763
 20
222.4850743076277
 10
934.0272013559855
 20
222.14331536091862
 10
933.6854424092763
 20
221.8015564142095
 10
933.6854424092763
 20
218.72572589382756
 10
934.0272013559855
 20
218.38396694711847
 10
934.0272013559855
 20
208.13119854584528
 10
933.6854424092763
 20
207.7894395991362
 10
933.6854424092763
 20
200.27074277153585
 10
933.3436834625672
 20
199.92898382482676
 10
933.3436834625672
 20
190.7014922636809
 10
933.0019245158581
 20
190.35973331697178
 10
933.0019245158581
 20
187.96742069000805
 10
932.6601655691491
 20
187.62566174329896
 10
932.6601655691491
 20
185.57510806304433
 10
932.31840662244
 20
185.2333491163352
 10
932.31840662244
 20
178.3981701821531
 10
931.9766476757309
 20
178.056411235444
 10
931.9766476757309
 20
176.68937544860756
 10
931.6348887290218
 20
176.34761650189847
 10
931.6348887290218
 20
161.99374074011604
 10
931.2931297823127
 20
161.65198179340692
 10
931.2931297823127
 20
160.6267049532796
 10
930.9513708356036
 20
160.28494600657052
 10
930.9513708356036
 20
158.57615127302498
 10
931.2931297823127
 20
158.23439232631588
 10
931.2931297823127
 20
156.18383864606125
 10
931.6348887290218
 20
155.84207969935213
 10
931.6348887290218
 20
152.76624917897018
 10
931.2931297823127
 20
152.4244902322611
 10
931.2931297823127
 20
146.9563470849154
 10
931.6348887290218
 20
146.61458813820627
 10
931.6348887290218
 20
144.90579340466076
 10
931.9766476757309
 20
144.56403445795166
 10
931.9766476757309
 20
143.53875761782433
 10
932.31840662244
 20
143.19699867111524
 10
932.31840662244
 20
142.1717218309879
 10
932.6601655691491
 20
141.8299628842788
 10
932.6601655691491
 20
139.77940920402418
 10
933.0019245158581
 20
139.43765025731506
 10
933.0019245158581
 20
135.3365428968058
 10
932.31840662244
 20
134.6530250033876
 10
930.9513708356036
 20
134.6530250033876
 10
930.6096118888944
 20
134.31126605667848
 10
925.824986634967
 20
134.31126605667848
 10
925.4832276882579
 20
133.96950710996938
 10
924.1161919014214
 20
133.96950710996938
 10
923.7744329547123
 20
134.31126605667848
 10
916.9392540205303
 20
134.31126605667848
 10
916.5974950738212
 20
133.96950710996938
 10
913.8634235001483
 20
133.96950710996938
 10
913.5216645534391
 20
134.31126605667848
 10
911.4711108731846
 20
134.31126605667848
 10
911.1293519264755
 20
134.6530250033876
 10
907.0282445659661
 20
134.6530250033876
 10
906.686485619257
 20
134.31126605667848
 10
902.9271372054569
 20
134.31126605667848
 10
902.5853782587478
 20
134.6530250033876
 10
899.851306685075
 20
134.6530250033876
 10
899.5095477383659
 20
134.9947839500967
 10
842.4358036379452
 20
134.9947839500967
 10
842.0940446912361
 20
134.6530250033876
 10
832.8665531300902
 20
134.6530250033876
 10
832.5247941833811
 20
134.31126605667848
 10
816.1203647413441
 20
134.31126605667848
 10
815.7786057946349
 20
133.96950710996938
 10
800.0576942460161
 20
133.96950710996938
 10
799.715935299307
 20
133.62774816326026
 10
783.3115058572699
 20
133.62774816326026
 10
782.9697469105608
 20
133.28598921655117
 10
734.4399764778678
 20
133.28598921655117
 10
734.0982175311588
 20
132.94423026984205
 10
729.6553512239403
 20
132.94423026984205
 10
729.3135922772312
 20
133.28598921655117
 10
728.630074383813
 20
133.28598921655117
 10
728.288315437104
 20
132.94423026984205
 10
714.2761986220306
 20
132.94423026984205
 10
713.9344396753215
 20
132.60247132313296
 10
691.7201081392296
 20
132.60247132313296
 10
691.3783491925205
 20
132.26071237642384
 10
663.695874509083
 20
132.26071237642384
 10
663.3541155623739
 20
131.91895342971475
 10
652.7595882143917
 20
131.91895342971475
 10
652.4178292676825
 20
131.57719448300563
 10
622.3430419572812
 20
131.57719448300563
 10
622.0012830105721
 20
131.91895342971475
 10
521.5241526780951
 20
131.91895342971475
 10
521.182393731386
 20
132.26071237642384
 10
520.4988758379677
 20
132.26071237642384
 10
520.1571168912586
 20
131.91895342971475
 10
519.1318400511313
 20
131.91895342971475
 10
518.7900811044223
 20
132.26071237642384
 10
517.4230453175858
 20
132.26071237642384
 10
517.0812863708767
 20
131.91895342971475
 10
502.04389271567607
 20
131.91895342971475
 10
501.702133768967
 20
131.57719448300563
 10
480.8548380197115
 20
131.57719448300563
 10
480.5130790730024
 20
131.23543553629654
 10
461.0328191105834
 20
131.23543553629654
 10
460.6910601638743
 20
130.89367658958744
 10
455.2229170165286
 20
130.89367658958744
 10
454.8811580698195
 20
130.55191764287832
 10
449.0712559757647
 20
130.55191764287832
 10
448.7294970290556
 20
130.21015869616923
 10
440.52728230803706
 20
130.21015869616923
 10
440.18552336132797
 20
129.8683997494601
 10
430.2745139067639
 20
129.8683997494601
 10
429.9327549600548
 20
129.52664080275102
 10
420.7052633989089
 20
129.52664080275102
 10
420.36350445219983
 20
129.1848818560419
 10
409.7689771042176
 20
129.1848818560419
 10
409.42721815750843
 20
128.8431229093328
 10
402.59203922332637
 20
128.8431229093328
 10
402.2502802766172
 20
128.50136396262369
 10
398.4909318628171
 20
128.50136396262369
 10
398.149172916108
 20
128.1596050159146
 10
379.6941897938163
 20
128.1596050159146
 10
379.35243084710714
 20
127.81784606920547
 10
374.2260466464706
 20
127.81784606920547
 10
373.8842876997615
 20
127.47608712249638
 10
358.50513509785173
 20
127.47608712249638
 10
358.16337615114264
 20
127.13432817578727
 10
349.9611614301241
 20
127.13432817578727
 10
349.619402483415
 20
126.79256922907817
 10
304.16546257110394
 20
126.79256922907817
 10
303.82370362439485
 20
126.45081028236906
 10
295.6214889033763
 20
126.45081028236906
 10
295.2797299566672
 20
126.10905133565996
 10
280.5840952481757
 20
126.10905133565996
 10
280.24233630146654
 20
125.76729238895085
 10
275.4577110475391
 20
125.76729238895085
 10
275.11595210083
 20
125.42553344224174
 10
270.33132684690247
 20
125.42553344224174
 10
269.9895679001934
 20
125.08377449553264
 10
264.5214247528477
 20
125.08377449553264
 10
264.1796658061386
 20
124.74201554882353
 10
259.3950405522111
 20
124.74201554882353
 10
259.05328160550204
 20
124.40025660211442
 10
255.29393319170185
 20
124.40025660211442
 10
254.95217424499276
 20
124.05849765540532
 10
247.09171847068333
 20
124.05849765540532
 10
246.7499595239742
 20
123.71673870869621
 10
236.15543217599193
 20
123.71673870869621
 10
235.81367322928284
 20
123.3749797619871
 10
221.4597974675004
 20
123.3749797619871
 10
221.1180385207913
 20
123.033220815278
 10
212.91582379977277
 20
123.033220815278
 10
212.57406485306365
 20
122.6914618685689
 10
209.4982343326817
 20
122.6914618685689
 10
209.1564753859726
 20
123.033220815278
 10
200.61250171824497
 20
123.033220815278
 10
200.27074277153585
 20
122.6914618685689
 10
196.8531533044448
 20
122.6914618685689
 10
196.5113943577357
 20
123.033220815278
 10
191.38501015709912
 20
123.033220815278
 10
191.04325121039
 20
122.6914618685689
 10
186.60038490317163
 20
122.6914618685689
 10
186.25862595646254
 20
122.34970292185979
 10
183.86631332949878
 20
122.34970292185979
 10
183.5245543827897
 20
122.00794397515068
 10
178.056411235444
 20
122.00794397515068
 10
177.7146522887349
 20
121.66618502844157
 10
162.33549968682513
 20
121.66618502844157
 10
161.99374074011604
 20
121.32442608173247
 10
157.55087443289767
 20
121.32442608173247
 10
157.20911548618855
 20
120.98266713502336
 10
154.81680285922482
 20
120.98266713502336
 10
154.4750439125157
 20
120.64090818831426
 10
152.76624917897018
 20
120.64090818831426
 10
152.4244902322611
 20
120.29914924160516
 10
150.37393655200646
 20
120.29914924160516
 10
150.03217760529733
 20
119.95739029489606
 10
148.32338287175182
 20
119.95739029489606
 10
147.9816239250427
 20
119.61563134818695
 10
146.9563470849154
 20
119.61563134818695
 10
146.61458813820627
 20
119.27387240147785
 10
144.22227551124254
 20
119.27387240147785
 10
143.88051656453345
 20
118.93211345476874
 10
138.75413236389684
 20
118.93211345476874
 10
138.41237341718775
 20
118.59035450805963
 10
107.31230926665914
 20
118.59035450805963
 10
106.97055031995004
 20
118.93211345476874
 10
104.5782376929863
 20
118.93211345476874
 10
104.2364787462772
 20
119.27387240147785
 10
101.84416611931346
 20
119.27387240147785
 10
101.50240717260435
 20
119.61563134818695
 10
98.7683355989315
 20
119.61563134818695
 10
98.4265766522224
 20
119.95739029489606
 10
96.37602297196777
 20
119.95739029489606
 10
96.03426402525866
 20
120.29914924160516
 10
95.00898718513135
 20
120.29914924160516
 10
94.66722823842224
 20
120.64090818831426
 10
93.30019245158581
 20
120.64090818831426
 10
92.95843350487671
 20
120.98266713502336
 10
78.26279879638517
 20
120.98266713502336
 10
77.92103984967606
 20
120.64090818831426
 10
71.42761986220306
 20
120.64090818831426
 10
71.08586091549395
 20
120.98266713502336
 10
70.06058407536663
 20
120.98266713502336
 10
69.71882512865753
 20
121.32442608173247
 10
67.6682714484029
 20
121.32442608173247
 10
67.3265125016938
 20
120.98266713502336
 10
65.61771776814827
 20
120.98266713502336
 10
65.27595882143916
 20
120.64090818831426
 10
59.12429778067526
 20
120.64090818831426
 10
58.78253883396616
 20
120.29914924160516
 10
55.3649493668751
 20
120.29914924160516
 10
55.023190420165996
 20
119.95739029489606
 10
49.2132883261112
 20
119.95739029489606
 10
48.8715293794021
 20
119.61563134818695
 10
47.50449359256567
 20
119.61563134818695
 10
47.16273464585657
 20
119.27387240147785
 10
45.11218096560194
 20
119.27387240147785
 10
44.77042201889283
 20
118.93211345476874
 10
36.22644835116519
 20
118.93211345476874
 10
35.88468940445608
 20
118.59035450805963
 10
34.17589467091056
 20
118.59035450805963
 10
33.83413572420145
 20
118.24859556135053
 10
31.441823097237712
 20
118.24859556135053
 10
31.100064150528606
 20
117.90683661464142
 10
24.948403109764705
 20
117.90683661464142
 10
24.6066441630556
 20
117.56507766793231
 10
21.53081364267365
 20
117.56507766793231
 10
21.189054695964543
 20
117.22331872122321
 10
15.37915260190975
 20
117.22331872122321
 10
15.037393655200646
 20
117.56507766793231
 10
12.3033220815278
 20
117.56507766793231
 10
11.961563134818695
 20
117.90683661464142
 10
11.278045241400484
 20
117.90683661464142
 10
10.936286294691378
 20
118.24859556135053
 10
10.594527347982272
 20
118.24859556135053
 10
10.252768401273167
 20
118.59035450805963
 10
9.911009454564061
 20
118.59035450805963
 10
9.569250507854957
 20
118.93211345476874
 10
9.22749156114585
 20
118.93211345476874
 10
8.202214721018533
 20
119.95739029489606
 10
7.860455774309428
 20
119.95739029489606
 10
7.1769378808912165
 20
120.64090818831426
 10
6.835178934182111
 20
120.64090818831426
 10
6.493419987473006
 20
120.98266713502336
 10
2.7340715736728445
 20
120.98266713502336
 10
2.392312626963739
 20
120.64090818831426
 10
1.0252768401273167
 20
120.64090818831426
 10
0.6835178934182111
 20
120.29914924160516
  0
ENDSEC
  0
SECTION
  2
OBJECTS
  0
DICTIONARY
  5
A
330
0
100
AcDbDictionary
281
1
  3
ACAD_COLOR
350
B
  3
ACAD_GROUP
350
C
  3
ACAD_LAYOUT
350
D
  3
ACAD_MATERIAL
350
E
  3
ACAD_MLEADERSTYLE
350
F
  3
ACAD_MLINESTYLE
350
10
  3
ACAD_PLOTSETTINGS
350
11
  3
ACAD_PLOTSTYLENAME
350
12
  3
ACAD_SCALELIST
350
14
  3
ACAD_TABLESTYLE
350
15
  3
ACAD_VISUALSTYLE
350
16
  3
EZDXF_META
350
2D
  0
DICTIONARY
  5
B
330
A
100
AcDbDictionary
281
1
  0
DICTIONARY
  5
C
330
A
100
AcDbDictionary
281
1
  0
DICTIONARY
  5
D
330
A
100
AcDbDictionary
281
1
  3
Model
350
1A
  3
Layout1
350
1E
  0
DICTIONARY
  5
E
330
A
100
AcDbDictionary
281
1
  3
ByBlock
350
1F
  3
ByLayer
350
20
  3
Global
350
21
  0
DICTIONARY
  5
F
330
A
100
AcDbDictionary
281
1
  3
Standard
350
2C
  0
DICTIONARY
  5
10
330
A
100
AcDbDictionary
281
1
  3
Standard
350
22
  0
DICTIONARY
  5
11
330
A
100
AcDbDictionary
281
1
  0
ACDBDICTIONARYWDFLT
  5
12
330
A
100
AcDbDictionary
281
1
  3
Normal
350
13
100
AcDbDictionaryWithDefault
340
13
  0
ACDBPLACEHOLDER
  5
13
330
12
  0
DICTIONARY
  5
14
330
A
100
AcDbDictionary
281
1
  0
DICTIONARY
  5
15
330
A
100
AcDbDictionary
281
1
  0
DICTIONARY
  5
16
330
A
100
AcDbDictionary
281
1
  3
2dWireframe
350
5A
  3
Basic
350
5B
  3
Brighten
350
5C
  3
ColorChange
350
5D
  3
Conceptual
350
5E
  3
Dim
350
5F
  3
EdgeColorOff
350
60
  3
Facepattern
350
61
  3
Flat
350
62
  3
FlatWithEdges
350
63
  3
Gouraud
350
64
  3
GouraudWithEdges
350
65
  3
Hidden
350
66
  3
JitterOff
350
67
  3
Linepattern
350
68
  3
Modeling
350
69
  3
OverhangOff
350
6A
  3
Realistic
350
6B
  3
Shaded
350
6C
  3
Shaded with edges
350
6D
  3
Shades of Gray
350
6E
  3
Sketchy
350
6F
  3
Thicken
350
70
  3
Wireframe
350
71
  3
X-Ray
350
72
  0
LAYOUT
  5
1A
330
D
100
AcDbPlotSettings
  1

  4
A3
  6

 40
7.5
 41
20.0
 42
7.5
 43
20.0
 44
420.0
 45
297.0
 46
0.0
 47
0.0
 48
0.0
 49
0.0
140
0.0
141
0.0
142
1.0
143
1.0
 70
1024
 72
1
 73
0
 74
5
  7

 75
16
 76
0
 77
2
 78
300
147
1.0
148
0.0
149
0.0
100
AcDbLayout
  1
Model
 70
1
 71
0
 10
0.0
 20
0.0
 11
420.0
 21
297.0
 12
0.0
 22
0.0
 32
0.0
 14
1e+20
 24
1e+20
 34
1e+20
 15
-1e+20
 25
-1e+20
 35
-1e+20
146
0.0
 13
0.0
 23
0.0
 33
0.0
 16
1.0
 26
0.0
 36
0.0
 17
0.0
 27
1.0
 37
0.0
 76
1
330
17
  0
LAYOUT
  5
1E
330
D
100
AcDbPlotSettings
  1

  4
A3
  6

 40
7.5
 41
20.0
 42
7.5
 43
20.0
 44
420.0
 45
297.0
 46
0.0
 47
0.0
 48
0.0
 49
0.0
140
0.0
141
0.0
142
1.0
143
1.0
 70
0
 72
1
 73
0
 74
5
  7

 75
16
 76
0
 77
2
 78
300
147
1.0
148
0.0
149
0.0
100
AcDbLayout
  1
Layout1
 70
1
 71
1
 10
0.0
 20
0.0
 11
420.0
 21
297.0
 12
0.0
 22
0.0
 32
0.0
 14
1e+20
 24
1e+20
 34
1e+20
 15
-1e+20
 25
-1e+20
 35
-1e+20
146
0.0
 13
0.0
 23
0.0
 33
0.0
 16
1.0
 26
0.0
 36
0.0
 17
0.0
 27
1.0
 37
0.0
 76
1
330
1B
  0
MATERIAL
  5
1F
102
{ACAD_REACTORS
330
E
102
}
330
E
100
AcDbMaterial
  1
ByBlock
  2

 70
0
 40
1.0
 71
1
 41
1.0
 91
-1023410177
 42
1.0
 72
1
  3

 73
1
 74
1
 75
1
 44
0.5
 73
0
 45
1.0
 46
1.0
 77
1
  4

 78
1
 79
1
170
1
 48
1.0
171
1
  6

172
1
173
1
174
1
140
1.0
141
1.0
175
1
  7

176
1
177
1
178
1
143
1.0
179
1
  8

270
1
271
1
272
1
145
1.0
146
1.0
273
1
  9

274
1
275
1
276
1
 42
1.0
 72
1
  3

 73
1
 74
1
 75
1
 94
63
  0
MATERIAL
  5
20
102
{ACAD_REACTORS
330
E
102
}
330
E
100
AcDbMaterial
  1
ByLayer
  2

 70
0
 40
1.0
 71
1
 41
1.0
 91
-1023410177
 42
1.0
 72
1
  3

 73
1
 74
1
 75
1
 44
0.5
 73
0
 45
1.0
 46
1.0
 77
1
  4

 78
1
 79
1
170
1
 48
1.0
171
1
  6

172
1
173
1
174
1
140
1.0
141
1.0
175
1
  7

176
1
177
1
178
1
143
1.0
179
1
  8

270
1
271
1
272
1
145
1.0
146
1.0
273
1
  9

274
1
275
1
276
1
 42
1.0
 72
1
  3

 73
1
 74
1
 75
1
 94
63
  0
MATERIAL
  5
21
102
{ACAD_REACTORS
330
E
102
}
330
E
100
AcDbMaterial
  1
Global
  2

 70
0
 40
1.0
 71
1
 41
1.0
 91
-1023410177
 42
1.0
 72
1
  3

 73
1
 74
1
 75
1
 44
0.5
 73
0
 45
1.0
 46
1.0
 77
1
  4

 78
1
 79
1
170
1
 48
1.0
171
1
  6

172
1
173
1
174
1
140
1.0
141
1.0
175
1
  7

176
1
177
1
178
1
143
1.0
179
1
  8

270
1
271
1
272
1
145
1.0
146
1.0
273
1
  9

274
1
275
1
276
1
 42
1.0
 72
1
  3

 73
1
 74
1
 75
1
 94
63
  0
MLINESTYLE
  5
22
102
{ACAD_REACTORS
330
10
102
}
330
10
100
AcDbMlineStyle
  2
Standard
 70
0
  3

 62
256
 51
90.0
 52
90.0
 71
2
 49
0.5
 62
256
  6
BYLAYER
 49
-0.5
 62
256
  6
BYLAYER
  0
MLEADERSTYLE
  5
2C
102
{ACAD_REACTORS
330
F
102
}
330
F
100
AcDbMLeaderStyle
179
2
170
2
171
1
172
0
 90
2
 40
0.0
 41
0.0
173
1
 91
-1056964608
 92
-2
290
1
 42
2.0
291
1
 43
8.0
  3
Standard
 44
4.0
300

342
29
174
1
175
1
176
0
178
1
 93
-1056964608
 45
4.0
292
0
297
0
 46
4.0
 94
-1056964608
 47
1.0
 49
1.0
140
1.0
294
1
141
0.0
177
0
142
1.0
295
0
296
0
143
3.75
271
0
272
9
273
9
  0
DICTIONARY
  5
2D
330
A
100
AcDbDictionary
280
1
281
1
  3
CREATED_BY_EZDXF
350
2E
  3
WRITTEN_BY_EZDXF
350
8E
  0
DICTIONARYVAR
  5
2E
330
2D
100
DictionaryVariables
280
0
  1
1.4.2 @ 2025-06-04T15:40:02.937375+00:00
  0
VISUALSTYLE
  5
5A
102
{ACAD_REACTORS
330
16
102
}
330
16
100
AcDbVisualStyle
  2
2dWireframe
 70
4
177
3
291
0
 70
58
 90
2
176
1
 90
2
176
1
 90
0
176
1
 90
0
176
1
 40
0.6
176
1
 40
30.0
176
1
 62
7
420
16777215
176
1
 90
1
176
1
 90
4
176
1
 62
7
176
1
 62
257
176
1
 90
1
176
1
 90
1
176
1
 40
1.0
176
1
 90
8
176
1
 62
7
176
1
 40
1.0
176
1
 90
1
176
1
 90
6
176
1
 90
2
176
1
 62
7
176
1
 90
5
176
1
 90
0
176
1
 90
0
176
1
290
0
176
1
 90
1
176
1
 40
0.0
176
1
 90
0
176
1
290
1
176
1
290
1
176
1
290
0
176
1
290
0
176
1
290
0
176
1
290
0
176
1
290
0
176
1
290
0
176
1
290
0
176
1
 90
50
176
1
 40
0.0
176
1
 40
1.0
176
1
 90
0
176
1
 62
18
420
0
176
1
 90
50
176
1
 90
3
176
1
 62
5
420
255
176
1
290
0
176
1
 90
50
176
1
 90
50
176
1
 90
50
176
1
290
0
176
1
 90
50
176
1
 62
256
176
0
 40
1.0
176
0
 90
2
176
1
  1
strokes_ogs.tif
176
1
290
0
176
1
 40
1.0
176
1
 40
1.0
176
1
  0
VISUALSTYLE
  5
5B
102
{ACAD_REACTORS
330
16
102
}
330
16
100
AcDbVisualStyle
  2
Basic
 70
7
177
3
291
1
 70
58
 90
2
176
1
 90
2
176
1
 90
0
176
1
 90
1
176
1
 40
0.6
176
1
 40
30.0
176
1
 62
7
420
16777215
176
1
 90
1
176
1
 90
4
176
1
 62
7
176
1
 62
257
176
1
 90
1
176
1
 90
1
176
1
 40
1.0
176
1
 90
8
176
1
 62
7
176
1
 40
1.0
176
1
 90
1
176
1
 90
6
176
1
 90
2
176
1
 62
7
176
1
 90
5
176
1
 90
0
176
1
 90
0
176
1
290
0
176
1
 90
1
176
1
 40
0.0
176
1
 90
0
176
1
290
0
176
1
290
1
176
1
290
1
176
1
290
0
176
1
290
0
176
1
290
0
176
1
290
0
176
1
290
0
176
1
290
0
176
1
 90
50
176
1
 40
0.0
176
1
 40
1.0
176
1
 90
0
176
1
 62
18
420
0
176
1
 90
50
176
1
 90
3
176
1
 62
5
420
255
176
1
290
0
176
1
 90
50
176
1
 90
50
176
1
 90
50
176
1
290
0
176
1
 90
50
176
1
 62
256
176
0
 40
1.0
176
0
 90
2
176
1
  1
strokes_ogs.tif
176
1
290
0
176
1
 40
1.0
176
1
 40
1.0
176
1
  0
VISUALSTYLE
  5
5C
102
{ACAD_REACTORS
330
16
102
}
330
16
100
AcDbVisualStyle
  2
Brighten
 70
12
177
3
291
1
 70
58
 90
2
176
1
 90
2
176
1
 90
0
176
1
 90
2
176
1
 40
0.6
176
1
 40
30.0
176
1
 62
7
420
16777215
176
1
 90
1
176
1
 90
4
176
1
 62
7
176
1
 62
257
176
1
 90
1
176
1
 90
1
176
1
 40
1.0
176
1
 90
8
176
1
 62
7
176
1
 40
1.0
176
1
 90
1
176
1
 90
6
176
1
 90
2
176
1
 62
7
176
1
 90
5
176
1
 90
0
176
1
 90
0
176
1
290
0
176
1
 90
1
176
1
 40
0.0
176
1
 90
0
176
1
290
0
176
1
290
1
176
1
290
1
176
1
290
0
176
1
290
0
176
1
290
0
176
1
290
0
176
1
290
0
176
1
290
0
176
1
 90
50
176
1
 40
0.0
176
1
 40
1.0
176
1
 90
0
176
1
 62
18
420
0
176
1
 90
50
176
1
 90
3
176
1
 62
5
420
255
176
1
290
0
176
1
 90
50
176
1
 90
50
176
1
 90
50
176
1
290
0
176
1
 90
50
176
1
 62
256
176
0
 40
1.0
176
0
 90
2
176
1
  1
strokes_ogs.tif
176
1
290
0
176
1
 40
1.0
176
1
 40
1.0
176
1
  0
VISUALSTYLE
  5
5D
102
{ACAD_REACTORS
330
16
102
}
330
16
100
AcDbVisualStyle
  2
ColorChange
 70
16
177
3
291
1
 70
58
 90
2
176
1
 90
2
176
1
 90
0
176
1
 90
2
176
1
 40
0.6
176
1
 40
30.0
176
1
 62
7
420
16777215
176
1
 90
1
176
1
 90
4
176
1
 62
7
176
1
 62
257
176
1
 90
1
176
1
 90
1
176
1
 40
1.0
176
1
 90
8
176
1
 62
7
176
1
 40
1.0
176
1
 90
1
176
1
 90
6
176
1
 90
2
176
1
 62
7
176
1
 90
5
176
1
 90
0
176
1
 90
0
176
1
290
0
176
1
 90
1
176
1
 40
0.0
176
1
 90
0
176
1
290
0
176
1
290
1
176
1
290
1
176
1
290
0
176
1
290
0
176
1
290
0
176
1
290
0
176
1
290
0
176
1
290
0
176
1
 90
50
176
1
 40
0.0
176
1
 40
1.0
176
1
 90
0
176
1
 62
18
420
0
176
1
 90
50
176
1
 90
3
176
1
 62
5
420
255
176
1
290
0
176
1
 90
50
176
1
 90
50
176
1
 90
50
176
1
290
0
176
1
 90
50
176
1
 62
256
176
0
 40
1.0
176
0
 90
2
176
1
  1
strokes_ogs.tif
176
1
290
0
176
1
 40
1.0
176
1
 40
1.0
176
1
  0
VISUALSTYLE
  5
5E
102
{ACAD_REACTORS
330
16
102
}
330
16
100
AcDbVisualStyle
  2
Conceptual
 70
9
177
3
291
0
 70
58
 90
2
176
1
 90
2
176
1
 90
0
176
1
 90
3
176
1
 40
0.6
176
1
 40
30.0
176
1
 62
7
420
16777215
176
1
 90
1
176
1
 90
4
176
1
 62
7
176
1
 62
257
176
1
 90
1
176
1
 90
1
176
1
 40
1.0
176
1
 90
8
176
1
 62
7
176
1
 40
1.0
176
1
 90
1
176
1
 90
6
176
1
 90
2
176
1
 62
7
176
1
 90
5
176
1
 90
0
176
1
 90
0
176
1
290
0
176
1
 90
1
176
1
 40
0.0
176
1
 90
0
176
1
290
0
176
1
290
1
176
1
290
1
176
1
290
0
176
1
290
0
176
1
290
0
176
1
290
0
176
1
290
0
176
1
290
0
176
1
 90
50
176
1
 40
0.0
176
1
 40
1.0
176
1
 90
0
176
1
 62
18
420
0
176
1
 90
50
176
1
 90
3
176
1
 62
5
420
255
176
1
290
0
176
1
 90
50
176
1
 90
50
176
1
 90
50
176
1
290
0
176
1
 90
50
176
1
 62
256
176
0
 40
1.0
176
0
 90
2
176
1
  1
strokes_ogs.tif
176
1
290
0
176
1
 40
1.0
176
1
 40
1.0
176
1
  0
VISUALSTYLE
  5
5F
102
{ACAD_REACTORS
330
16
102
}
330
16
100
AcDbVisualStyle
  2
Dim
 70
11
177
3
291
1
 70
58
 90
2
176
1
 90
2
176
1
 90
0
176
1
 90
2
176
1
 40
0.6
176
1
 40
30.0
176
1
 62
7
420
16777215
176
1
 90
1
176
1
 90
4
176
1
 62
7
176
1
 62
257
176
1
 90
1
176
1
 90
1
176
1
 40
1.0
176
1
 90
8
176
1
 62
7
176
1
 40
1.0
176
1
 90
1
176
1
 90
6
176
1
 90
2
176
1
 62
7
176
1
 90
5
176
1
 90
0
176
1
 90
0
176
1
290
0
176
1
 90
1
176
1
 40
0.0
176
1
 90
0
176
1
290
0
176
1
290
1
176
1
290
1
176
1
290
0
176
1
290
0
176
1
290
0
176
1
290
0
176
1
290
0
176
1
290
0
176
1
 90
50
176
1
 40
0.0
176
1
 40
1.0
176
1
 90
0
176
1
 62
18
420
0
176
1
 90
50
176
1
 90
3
176
1
 62
5
420
255
176
1
290
0
176
1
 90
50
176
1
 90
50
176
1
 90
50
176
1
290
0
176
1
 90
50
176
1
 62
256
176
0
 40
1.0
176
0
 90
2
176
1
  1
strokes_ogs.tif
176
1
290
0
176
1
 40
1.0
176
1
 40
1.0
176
1
  0
VISUALSTYLE
  5
60
102
{ACAD_REACTORS
330
16
102
}
330
16
100
AcDbVisualStyle
  2
EdgeColorOff
 70
22
177
3
291
1
 70
58
 90
2
176
1
 90
2
176
1
 90
0
176
1
 90
2
176
1
 40
0.6
176
1
 40
30.0
176
1
 62
7
420
16777215
176
1
 90
1
176
1
 90
4
176
1
 62
7
176
1
 62
257
176
1
 90
1
176
1
 90
1
176
1
 40
1.0
176
1
 90
8
176
1
 62
7
176
1
 40
1.0
176
1
 90
1
176
1
 90
6
176
1
 90
2
176
1
 62
7
176
1
 90
5
176
1
 90
0
176
1
 90
0
176
1
290
0
176
1
 90
1
176
1
 40
0.0
176
1
 90
0
176
1
290
0
176
1
290
1
176
1
290
1
176
1
290
0
176
1
290
0
176
1
290
0
176
1
290
0
176
1
290
0
176
1
290
0
176
1
 90
50
176
1
 40
0.0
176
1
 40
1.0
176
1
 90
0
176
1
 62
18
420
0
176
1
 90
50
176
1
 90
3
176
1
 62
5
420
255
176
1
290
0
176
1
 90
50
176
1
 90
50
176
1
 90
50
176
1
290
0
176
1
 90
50
176
1
 62
256
176
0
 40
1.0
176
0
 90
2
176
1
  1
strokes_ogs.tif
176
1
290
0
176
1
 40
1.0
176
1
 40
1.0
176
1
  0
VISUALSTYLE
  5
61
102
{ACAD_REACTORS
330
16
102
}
330
16
100
AcDbVisualStyle
  2
Facepattern
 70
15
177
3
291
1
 70
58
 90
2
176
1
 90
2
176
1
 90
0
176
1
 90
2
176
1
 40
0.6
176
1
 40
30.0
176
1
 62
7
420
16777215
176
1
 90
1
176
1
 90
4
176
1
 62
7
176
1
 62
257
176
1
 90
1
176
1
 90
1
176
1
 40
1.0
176
1
 90
8
176
1
 62
7
176
1
 40
1.0
176
1
 90
1
176
1
 90
6
176
1
 90
2
176
1
 62
7
176
1
 90
5
176
1
 90
0
176
1
 90
0
176
1
290
0
176
1
 90
1
176
1
 40
0.0
176
1
 90
0
176
1
290
0
176
1
290
1
176
1
290
1
176
1
290
0
176
1
290
0
176
1
290
0
176
1
290
0
176
1
290
0
176
1
290
0
176
1
 90
50
176
1
 40
0.0
176
1
 40
1.0
176
1
 90
0
176
1
 62
18
420
0
176
1
 90
50
176
1
 90
3
176
1
 62
5
420
255
176
1
290
0
176
1
 90
50
176
1
 90
50
176
1
 90
50
176
1
290
0
176
1
 90
50
176
1
 62
256
176
0
 40
1.0
176
0
 90
2
176
1
  1
strokes_ogs.tif
176
1
290
0
176
1
 40
1.0
176
1
 40
1.0
176
1
  0
VISUALSTYLE
  5
62
102
{ACAD_REACTORS
330
16
102
}
330
16
100
AcDbVisualStyle
  2
Flat
 70
0
177
3
291
1
 70
58
 90
2
176
1
 90
2
176
1
 90
0
176
1
 90
2
176
1
 40
0.6
176
1
 40
30.0
176
1
 62
7
420
16777215
176
1
 90
1
176
1
 90
4
176
1
 62
7
176
1
 62
257
176
1
 90
1
176
1
 90
1
176
1
 40
1.0
176
1
 90
8
176
1
 62
7
176
1
 40
1.0
176
1
 90
1
176
1
 90
6
176
1
 90
2
176
1
 62
7
176
1
 90
5
176
1
 90
0
176
1
 90
0
176
1
290
0
176
1
 90
1
176
1
 40
0.0
176
1
 90
0
176
1
290
0
176
1
290
1
176
1
290
1
176
1
290
0
176
1
290
0
176
1
290
0
176
1
290
0
176
1
290
0
176
1
290
0
176
1
 90
50
176
1
 40
0.0
176
1
 40
1.0
176
1
 90
0
176
1
 62
18
420
0
176
1
 90
50
176
1
 90
3
176
1
 62
5
420
255
176
1
290
0
176
1
 90
50
176
1
 90
50
176
1
 90
50
176
1
290
0
176
1
 90
50
176
1
 62
256
176
0
 40
1.0
176
0
 90
2
176
1
  1
strokes_ogs.tif
176
1
290
0
176
1
 40
1.0
176
1
 40
1.0
176
1
  0
VISUALSTYLE
  5
63
102
{ACAD_REACTORS
330
16
102
}
330
16
100
AcDbVisualStyle
  2
FlatWithEdges
 70
1
177
3
291
1
 70
58
 90
2
176
1
 90
2
176
1
 90
0
176
1
 90
2
176
1
 40
0.6
176
1
 40
30.0
176
1
 62
7
420
16777215
176
1
 90
1
176
1
 90
4
176
1
 62
7
176
1
 62
257
176
1
 90
1
176
1
 90
1
176
1
 40
1.0
176
1
 90
8
176
1
 62
7
176
1
 40
1.0
176
1
 90
1
176
1
 90
6
176
1
 90
2
176
1
 62
7
176
1
 90
5
176
1
 90
0
176
1
 90
0
176
1
290
0
176
1
 90
1
176
1
 40
0.0
176
1
 90
0
176
1
290
0
176
1
290
1
176
1
290
1
176
1
290
0
176
1
290
0
176
1
290
0
176
1
290
0
176
1
290
0
176
1
290
0
176
1
 90
50
176
1
 40
0.0
176
1
 40
1.0
176
1
 90
0
176
1
 62
18
420
0
176
1
 90
50
176
1
 90
3
176
1
 62
5
420
255
176
1
290
0
176
1
 90
50
176
1
 90
50
176
1
 90
50
176
1
290
0
176
1
 90
50
176
1
 62
256
176
0
 40
1.0
176
0
 90
2
176
1
  1
strokes_ogs.tif
176
1
290
0
176
1
 40
1.0
176
1
 40
1.0
176
1
  0
VISUALSTYLE
  5
64
102
{ACAD_REACTORS
330
16
102
}
330
16
100
AcDbVisualStyle
  2
Gouraud
 70
2
177
3
291
1
 70
58
 90
2
176
1
 90
2
176
1
 90
0
176
1
 90
2
176
1
 40
0.6
176
1
 40
30.0
176
1
 62
7
420
16777215
176
1
 90
1
176
1
 90
4
176
1
 62
7
176
1
 62
257
176
1
 90
1
176
1
 90
1
176
1
 40
1.0
176
1
 90
8
176
1
 62
7
176
1
 40
1.0
176
1
 90
1
176
1
 90
6
176
1
 90
2
176
1
 62
7
176
1
 90
5
176
1
 90
0
176
1
 90
0
176
1
290
0
176
1
 90
1
176
1
 40
0.0
176
1
 90
0
176
1
290
0
176
1
290
1
176
1
290
1
176
1
290
0
176
1
290
0
176
1
290
0
176
1
290
0
176
1
290
0
176
1
290
0
176
1
 90
50
176
1
 40
0.0
176
1
 40
1.0
176
1
 90
0
176
1
 62
18
420
0
176
1
 90
50
176
1
 90
3
176
1
 62
5
420
255
176
1
290
0
176
1
 90
50
176
1
 90
50
176
1
 90
50
176
1
290
0
176
1
 90
50
176
1
 62
256
176
0
 40
1.0
176
0
 90
2
176
1
  1
strokes_ogs.tif
176
1
290
0
176
1
 40
1.0
176
1
 40
1.0
176
1
  0
VISUALSTYLE
  5
65
102
{ACAD_REACTORS
330
16
102
}
330
16
100
AcDbVisualStyle
  2
GouraudWithEdges
 70
3
177
3
291
1
 70
58
 90
2
176
1
 90
2
176
1
 90
0
176
1
 90
2
176
1
 40
0.6
176
1
 40
30.0
176
1
 62
7
420
16777215
176
1
 90
1
176
1
 90
4
176
1
 62
7
176
1
 62
257
176
1
 90
1
176
1
 90
1
176
1
 40
1.0
176
1
 90
8
176
1
 62
7
176
1
 40
1.0
176
1
 90
1
176
1
 90
6
176
1
 90
2
176
1
 62
7
176
1
 90
5
176
1
 90
0
176
1
 90
0
176
1
290
0
176
1
 90
1
176
1
 40
0.0
176
1
 90
0
176
1
290
0
176
1
290
1
176
1
290
1
176
1
290
0
176
1
290
0
176
1
290
0
176
1
290
0
176
1
290
0
176
1
290
0
176
1
 90
50
176
1
 40
0.0
176
1
 40
1.0
176
1
 90
0
176
1
 62
18
420
0
176
1
 90
50
176
1
 90
3
176
1
 62
5
420
255
176
1
290
0
176
1
 90
50
176
1
 90
50
176
1
 90
50
176
1
290
0
176
1
 90
50
176
1
 62
256
176
0
 40
1.0
176
0
 90
2
176
1
  1
strokes_ogs.tif
176
1
290
0
176
1
 40
1.0
176
1
 40
1.0
176
1
  0
VISUALSTYLE
  5
66
102
{ACAD_REACTORS
330
16
102
}
330
16
100
AcDbVisualStyle
  2
Hidden
 70
6
177
3
291
0
 70
58
 90
2
176
1
 90
2
176
1
 90
0
176
1
 90
1
176
1
 40
0.6
176
1
 40
30.0
176
1
 62
7
420
16777215
176
1
 90
1
176
1
 90
4
176
1
 62
7
176
1
 62
257
176
1
 90
1
176
1
 90
1
176
1
 40
1.0
176
1
 90
8
176
1
 62
7
176
1
 40
1.0
176
1
 90
1
176
1
 90
6
176
1
 90
2
176
1
 62
7
176
1
 90
5
176
1
 90
0
176
1
 90
0
176
1
290
0
176
1
 90
1
176
1
 40
0.0
176
1
 90
0
176
1
290
0
176
1
290
1
176
1
290
1
176
1
290
0
176
1
290
0
176
1
290
0
176
1
290
0
176
1
290
0
176
1
290
0
176
1
 90
50
176
1
 40
0.0
176
1
 40
1.0
176
1
 90
0
176
1
 62
18
420
0
176
1
 90
50
176
1
 90
3
176
1
 62
5
420
255
176
1
290
0
176
1
 90
50
176
1
 90
50
176
1
 90
50
176
1
290
0
176
1
 90
50
176
1
 62
256
176
0
 40
1.0
176
0
 90
2
176
1
  1
strokes_ogs.tif
176
1
290
0
176
1
 40
1.0
176
1
 40
1.0
176
1
  0
VISUALSTYLE
  5
67
102
{ACAD_REACTORS
330
16
102
}
330
16
100
AcDbVisualStyle
  2
JitterOff
 70
20
177
3
291
1
 70
58
 90
2
176
1
 90
2
176
1
 90
0
176
1
 90
2
176
1
 40
0.6
176
1
 40
30.0
176
1
 62
7
420
16777215
176
1
 90
1
176
1
 90
4
176
1
 62
7
176
1
 62
257
176
1
 90
1
176
1
 90
1
176
1
 40
1.0
176
1
 90
8
176
1
 62
7
176
1
 40
1.0
176
1
 90
1
176
1
 90
6
176
1
 90
2
176
1
 62
7
176
1
 90
5
176
1
 90
0
176
1
 90
0
176
1
290
0
176
1
 90
1
176
1
 40
0.0
176
1
 90
0
176
1
290
0
176
1
290
1
176
1
290
1
176
1
290
0
176
1
290
0
176
1
290
0
176
1
290
0
176
1
290
0
176
1
290
0
176
1
 90
50
176
1
 40
0.0
176
1
 40
1.0
176
1
 90
0
176
1
 62
18
420
0
176
1
 90
50
176
1
 90
3
176
1
 62
5
420
255
176
1
290
0
176
1
 90
50
176
1
 90
50
176
1
 90
50
176
1
290
0
176
1
 90
50
176
1
 62
256
176
0
 40
1.0
176
0
 90
2
176
1
  1
strokes_ogs.tif
176
1
290
0
176
1
 40
1.0
176
1
 40
1.0
176
1
  0
VISUALSTYLE
  5
68
102
{ACAD_REACTORS
330
16
102
}
330
16
100
AcDbVisualStyle
  2
Linepattern
 70
14
177
3
291
1
 70
58
 90
2
176
1
 90
2
176
1
 90
0
176
1
 90
2
176
1
 40
0.6
176
1
 40
30.0
176
1
 62
7
420
16777215
176
1
 90
1
176
1
 90
4
176
1
 62
7
176
1
 62
257
176
1
 90
1
176
1
 90
1
176
1
 40
1.0
176
1
 90
8
176
1
 62
7
176
1
 40
1.0
176
1
 90
1
176
1
 90
6
176
1
 90
2
176
1
 62
7
176
1
 90
5
176
1
 90
0
176
1
 90
0
176
1
290
0
176
1
 90
1
176
1
 40
0.0
176
1
 90
0
176
1
290
0
176
1
290
1
176
1
290
1
176
1
290
0
176
1
290
0
176
1
290
0
176
1
290
0
176
1
290
0
176
1
290
0
176
1
 90
50
176
1
 40
0.0
176
1
 40
1.0
176
1
 90
0
176
1
 62
18
420
0
176
1
 90
50
176
1
 90
3
176
1
 62
5
420
255
176
1
290
0
176
1
 90
50
176
1
 90
50
176
1
 90
50
176
1
290
0
176
1
 90
50
176
1
 62
256
176
0
 40
1.0
176
0
 90
2
176
1
  1
strokes_ogs.tif
176
1
290
0
176
1
 40
1.0
176
1
 40
1.0
176
1
  0
VISUALSTYLE
  5
69
102
{ACAD_REACTORS
330
16
102
}
330
16
100
AcDbVisualStyle
  2
Modeling
 70
10
177
3
291
0
 70
58
 90
2
176
1
 90
2
176
1
 90
0
176
1
 90
2
176
1
 40
0.6
176
1
 40
30.0
176
1
 62
7
420
16777215
176
1
 90
1
176
1
 90
4
176
1
 62
7
176
1
 62
257
176
1
 90
1
176
1
 90
1
176
1
 40
1.0
176
1
 90
8
176
1
 62
7
176
1
 40
1.0
176
1
 90
1
176
1
 90
6
176
1
 90
2
176
1
 62
7
176
1
 90
5
176
1
 90
0
176
1
 90
0
176
1
290
0
176
1
 90
1
176
1
 40
0.0
176
1
 90
0
176
1
290
0
176
1
290
1
176
1
290
1
176
1
290
0
176
1
290
0
176
1
290
0
176
1
290
0
176
1
290
0
176
1
290
0
176
1
 90
50
176
1
 40
0.0
176
1
 40
1.0
176
1
 90
0
176
1
 62
18
420
0
176
1
 90
50
176
1
 90
3
176
1
 62
5
420
255
176
1
290
0
176
1
 90
50
176
1
 90
50
176
1
 90
50
176
1
290
0
176
1
 90
50
176
1
 62
256
176
0
 40
1.0
176
0
 90
2
176
1
  1
strokes_ogs.tif
176
1
290
0
176
1
 40
1.0
176
1
 40
1.0
176
1
  0
VISUALSTYLE
  5
6A
102
{ACAD_REACTORS
330
16
102
}
330
16
100
AcDbVisualStyle
  2
OverhangOff
 70
21
177
3
291
1
 70
58
 90
2
176
1
 90
2
176
1
 90
0
176
1
 90
2
176
1
 40
0.6
176
1
 40
30.0
176
1
 62
7
420
16777215
176
1
 90
1
176
1
 90
4
176
1
 62
7
176
1
 62
257
176
1
 90
1
176
1
 90
1
176
1
 40
1.0
176
1
 90
8
176
1
 62
7
176
1
 40
1.0
176
1
 90
1
176
1
 90
6
176
1
 90
2
176
1
 62
7
176
1
 90
5
176
1
 90
0
176
1
 90
0
176
1
290
0
176
1
 90
1
176
1
 40
0.0
176
1
 90
0
176
1
290
0
176
1
290
1
176
1
290
1
176
1
290
0
176
1
290
0
176
1
290
0
176
1
290
0
176
1
290
0
176
1
290
0
176
1
 90
50
176
1
 40
0.0
176
1
 40
1.0
176
1
 90
0
176
1
 62
18
420
0
176
1
 90
50
176
1
 90
3
176
1
 62
5
420
255
176
1
290
0
176
1
 90
50
176
1
 90
50
176
1
 90
50
176
1
290
0
176
1
 90
50
176
1
 62
256
176
0
 40
1.0
176
0
 90
2
176
1
  1
strokes_ogs.tif
176
1
290
0
176
1
 40
1.0
176
1
 40
1.0
176
1
  0
VISUALSTYLE
  5
6B
102
{ACAD_REACTORS
330
16
102
}
330
16
100
AcDbVisualStyle
  2
Realistic
 70
8
177
3
291
0
 70
58
 90
2
176
1
 90
2
176
1
 90
0
176
1
 90
2
176
1
 40
0.6
176
1
 40
30.0
176
1
 62
7
420
16777215
176
1
 90
1
176
1
 90
4
176
1
 62
7
176
1
 62
257
176
1
 90
1
176
1
 90
1
176
1
 40
1.0
176
1
 90
8
176
1
 62
7
176
1
 40
1.0
176
1
 90
1
176
1
 90
6
176
1
 90
2
176
1
 62
7
176
1
 90
5
176
1
 90
0
176
1
 90
0
176
1
290
0
176
1
 90
1
176
1
 40
0.0
176
1
 90
0
176
1
290
0
176
1
290
1
176
1
290
1
176
1
290
0
176
1
290
0
176
1
290
0
176
1
290
0
176
1
290
0
176
1
290
0
176
1
 90
50
176
1
 40
0.0
176
1
 40
1.0
176
1
 90
0
176
1
 62
18
420
0
176
1
 90
50
176
1
 90
3
176
1
 62
5
420
255
176
1
290
0
176
1
 90
50
176
1
 90
50
176
1
 90
50
176
1
290
0
176
1
 90
50
176
1
 62
256
176
0
 40
1.0
176
0
 90
2
176
1
  1
strokes_ogs.tif
176
1
290
0
176
1
 40
1.0
176
1
 40
1.0
176
1
  0
VISUALSTYLE
  5
6C
102
{ACAD_REACTORS
330
16
102
}
330
16
100
AcDbVisualStyle
  2
Shaded
 70
27
177
3
291
0
 70
58
 90
2
176
1
 90
2
176
1
 90
0
176
1
 90
2
176
1
 40
0.6
176
1
 40
30.0
176
1
 62
7
420
16777215
176
1
 90
1
176
1
 90
4
176
1
 62
7
176
1
 62
257
176
1
 90
1
176
1
 90
1
176
1
 40
1.0
176
1
 90
8
176
1
 62
7
176
1
 40
1.0
176
1
 90
1
176
1
 90
6
176
1
 90
2
176
1
 62
7
176
1
 90
5
176
1
 90
0
176
1
 90
0
176
1
290
0
176
1
 90
1
176
1
 40
0.0
176
1
 90
0
176
1
290
0
176
1
290
1
176
1
290
1
176
1
290
0
176
1
290
0
176
1
290
0
176
1
290
0
176
1
290
0
176
1
290
0
176
1
 90
50
176
1
 40
0.0
176
1
 40
1.0
176
1
 90
0
176
1
 62
18
420
0
176
1
 90
50
176
1
 90
3
176
1
 62
5
420
255
176
1
290
0
176
1
 90
50
176
1
 90
50
176
1
 90
50
176
1
290
0
176
1
 90
50
176
1
 62
256
176
0
 40
1.0
176
0
 90
2
176
1
  1
strokes_ogs.tif
176
1
290
0
176
1
 40
1.0
176
1
 40
1.0
176
1
  0
VISUALSTYLE
  5
6D
102
{ACAD_REACTORS
330
16
102
}
330
16
100
AcDbVisualStyle
  2
Shaded with edges
 70
26
177
3
291
0
 70
58
 90
2
176
1
 90
2
176
1
 90
0
176
1
 90
2
176
1
 40
0.6
176
1
 40
30.0
176
1
 62
7
420
16777215
176
1
 90
1
176
1
 90
4
176
1
 62
7
176
1
 62
257
176
1
 90
1
176
1
 90
1
176
1
 40
1.0
176
1
 90
8
176
1
 62
7
176
1
 40
1.0
176
1
 90
1
176
1
 90
6
176
1
 90
2
176
1
 62
7
176
1
 90
5
176
1
 90
0
176
1
 90
0
176
1
290
0
176
1
 90
1
176
1
 40
0.0
176
1
 90
0
176
1
290
0
176
1
290
1
176
1
290
1
176
1
290
0
176
1
290
0
176
1
290
0
176
1
290
0
176
1
290
0
176
1
290
0
176
1
 90
50
176
1
 40
0.0
176
1
 40
1.0
176
1
 90
0
176
1
 62
18
420
0
176
1
 90
50
176
1
 90
3
176
1
 62
5
420
255
176
1
290
0
176
1
 90
50
176
1
 90
50
176
1
 90
50
176
1
290
0
176
1
 90
50
176
1
 62
256
176
0
 40
1.0
176
0
 90
2
176
1
  1
strokes_ogs.tif
176
1
290
0
176
1
 40
1.0
176
1
 40
1.0
176
1
  0
VISUALSTYLE
  5
6E
102
{ACAD_REACTORS
330
16
102
}
330
16
100
AcDbVisualStyle
  2
Shades of Gray
 70
23
177
3
291
0
 70
58
 90
2
176
1
 90
2
176
1
 90
0
176
1
 90
2
176
1
 40
0.6
176
1
 40
30.0
176
1
 62
7
420
16777215
176
1
 90
1
176
1
 90
4
176
1
 62
7
176
1
 62
257
176
1
 90
1
176
1
 90
1
176
1
 40
1.0
176
1
 90
8
176
1
 62
7
176
1
 40
1.0
176
1
 90
1
176
1
 90
6
176
1
 90
2
176
1
 62
7
176
1
 90
5
176
1
 90
0
176
1
 90
0
176
1
290
0
176
1
 90
1
176
1
 40
0.0
176
1
 90
0
176
1
290
0
176
1
290
1
176
1
290
1
176
1
290
0
176
1
290
0
176
1
290
0
176
1
290
0
176
1
290
0
176
1
290
0
176
1
 90
50
176
1
 40
0.0
176
1
 40
1.0
176
1
 90
0
176
1
 62
18
420
0
176
1
 90
50
176
1
 90
3
176
1
 62
5
420
255
176
1
290
0
176
1
 90
50
176
1
 90
50
176
1
 90
50
176
1
290
0
176
1
 90
50
176
1
 62
256
176
0
 40
1.0
176
0
 90
2
176
1
  1
strokes_ogs.tif
176
1
290
0
176
1
 40
1.0
176
1
 40
1.0
176
1
  0
VISUALSTYLE
  5
6F
102
{ACAD_REACTORS
330
16
102
}
330
16
100
AcDbVisualStyle
  2
Sketchy
 70
24
177
3
291
0
 70
58
 90
2
176
1
 90
2
176
1
 90
0
176
1
 90
1
176
1
 40
0.6
176
1
 40
30.0
176
1
 62
7
420
16777215
176
1
 90
1
176
1
 90
4
176
1
 62
7
176
1
 62
257
176
1
 90
1
176
1
 90
1
176
1
 40
1.0
176
1
 90
8
176
1
 62
7
176
1
 40
1.0
176
1
 90
1
176
1
 90
6
176
1
 90
2
176
1
 62
7
176
1
 90
5
176
1
 90
0
176
1
 90
0
176
1
290
0
176
1
 90
1
176
1
 40
0.0
176
1
 90
0
176
1
290
0
176
1
290
1
176
1
290
1
176
1
290
0
176
1
290
0
176
1
290
0
176
1
290
0
176
1
290
0
176
1
290
0
176
1
 90
50
176
1
 40
0.0
176
1
 40
1.0
176
1
 90
0
176
1
 62
18
420
0
176
1
 90
50
176
1
 90
3
176
1
 62
5
420
255
176
1
290
0
176
1
 90
50
176
1
 90
50
176
1
 90
50
176
1
290
0
176
1
 90
50
176
1
 62
256
176
0
 40
1.0
176
0
 90
2
176
1
  1
strokes_ogs.tif
176
1
290
0
176
1
 40
1.0
176
1
 40
1.0
176
1
  0
VISUALSTYLE
  5
70
102
{ACAD_REACTORS
330
16
102
}
330
16
100
AcDbVisualStyle
  2
Thicken
 70
13
177
3
291
1
 70
58
 90
2
176
1
 90
2
176
1
 90
0
176
1
 90
2
176
1
 40
0.6
176
1
 40
30.0
176
1
 62
7
420
16777215
176
1
 90
1
176
1
 90
4
176
1
 62
7
176
1
 62
257
176
1
 90
1
176
1
 90
1
176
1
 40
1.0
176
1
 90
8
176
1
 62
7
176
1
 40
1.0
176
1
 90
1
176
1
 90
6
176
1
 90
2
176
1
 62
7
176
1
 90
5
176
1
 90
0
176
1
 90
0
176
1
290
0
176
1
 90
1
176
1
 40
0.0
176
1
 90
0
176
1
290
0
176
1
290
1
176
1
290
1
176
1
290
0
176
1
290
0
176
1
290
0
176
1
290
0
176
1
290
0
176
1
290
0
176
1
 90
50
176
1
 40
0.0
176
1
 40
1.0
176
1
 90
0
176
1
 62
18
420
0
176
1
 90
50
176
1
 90
3
176
1
 62
5
420
255
176
1
290
0
176
1
 90
50
176
1
 90
50
176
1
 90
50
176
1
290
0
176
1
 90
50
176
1
 62
256
176
0
 40
1.0
176
0
 90
2
176
1
  1
strokes_ogs.tif
176
1
290
0
176
1
 40
1.0
176
1
 40
1.0
176
1
  0
VISUALSTYLE
  5
71
102
{ACAD_REACTORS
330
16
102
}
330
16
100
AcDbVisualStyle
  2
Wireframe
 70
5
177
3
291
0
 70
58
 90
2
176
1
 90
2
176
1
 90
0
176
1
 90
0
176
1
 40
0.6
176
1
 40
30.0
176
1
 62
7
420
16777215
176
1
 90
1
176
1
 90
4
176
1
 62
7
176
1
 62
257
176
1
 90
1
176
1
 90
1
176
1
 40
1.0
176
1
 90
8
176
1
 62
7
176
1
 40
1.0
176
1
 90
1
176
1
 90
6
176
1
 90
2
176
1
 62
7
176
1
 90
5
176
1
 90
0
176
1
 90
0
176
1
290
0
176
1
 90
1
176
1
 40
0.0
176
1
 90
0
176
1
290
0
176
1
290
1
176
1
290
1
176
1
290
0
176
1
290
0
176
1
290
0
176
1
290
0
176
1
290
0
176
1
290
0
176
1
 90
50
176
1
 40
0.0
176
1
 40
1.0
176
1
 90
0
176
1
 62
18
420
0
176
1
 90
50
176
1
 90
3
176
1
 62
5
420
255
176
1
290
0
176
1
 90
50
176
1
 90
50
176
1
 90
50
176
1
290
0
176
1
 90
50
176
1
 62
256
176
0
 40
1.0
176
0
 90
2
176
1
  1
strokes_ogs.tif
176
1
290
0
176
1
 40
1.0
176
1
 40
1.0
176
1
  0
VISUALSTYLE
  5
72
102
{ACAD_REACTORS
330
16
102
}
330
16
100
AcDbVisualStyle
  2
X-Ray
 70
25
177
3
291
0
 70
58
 90
2
176
1
 90
2
176
1
 90
0
176
1
 90
2
176
1
 40
0.5
176
1
 40
30.0
176
1
 62
7
420
16777215
176
1
 90
1
176
1
 90
4
176
1
 62
7
176
1
 62
257
176
1
 90
1
176
1
 90
1
176
1
 40
1.0
176
1
 90
8
176
1
 62
7
176
1
 40
1.0
176
1
 90
1
176
1
 90
6
176
1
 90
2
176
1
 62
7
176
1
 90
5
176
1
 90
0
176
1
 90
0
176
1
290
0
176
1
 90
1
176
1
 40
0.0
176
1
 90
0
176
1
290
0
176
1
290
1
176
1
290
1
176
1
290
0
176
1
290
0
176
1
290
0
176
1
290
0
176
1
290
0
176
1
290
0
176
1
 90
50
176
1
 40
0.0
176
1
 40
1.0
176
1
 90
0
176
1
 62
18
420
0
176
1
 90
50
176
1
 90
3
176
1
 62
5
420
255
176
1
290
0
176
1
 90
50
176
1
 90
50
176
1
 90
50
176
1
290
0
176
1
 90
50
176
1
 62
256
176
0
 40
1.0
176
0
 90
2
176
1
  1
strokes_ogs.tif
176
1
290
0
176
1
 40
1.0
176
1
 40
1.0
176
1
  0
DICTIONARYVAR
  5
8E
330
2D
100
DictionaryVariables
280
0
  1
1.4.2 @ 2025-06-04T15:40:02.952567+00:00
  0
ENDSEC
  0
EOF
