  0
SECTION
  2
HEADER
  9
$ACADVER
  1
AC1027
  9
$ACADMAINTVER
 70
105
  9
$DWGCODEPAGE
  3
ANSI_1252
  9
$LASTSAVEDBY
  1
ezdxf
  9
$REQUIREDVERSIONS
160
0
  9
$INSBASE
 10
0.0
 20
0.0
 30
0.0
  9
$EXTMIN
 10
1e+20
 20
1e+20
 30
1e+20
  9
$EXTMAX
 10
-1e+20
 20
-1e+20
 30
-1e+20
  9
$LIMMIN
 10
0.0
 20
0.0
  9
$LIMMAX
 10
420.0
 20
297.0
  9
$ORTHOMODE
 70
0
  9
$REGENMODE
 70
1
  9
$FILLMODE
 70
1
  9
$QTEXTMODE
 70
0
  9
$MIRRTEXT
 70
1
  9
$LTSCALE
 40
1.0
  9
$ATTMODE
 70
1
  9
$TEXTSIZE
 40
2.5
  9
$TRACEWID
 40
1.0
  9
$TEXTSTYLE
  7
OpenSans
  9
$CLAYER
  8
0
  9
$CELTYPE
  6
ByLayer
  9
$CECOLOR
 62
256
  9
$CELTSCALE
 40
1.0
  9
$DISPSILH
 70
0
  9
$DIMSCALE
 40
1.0
  9
$DIMASZ
 40
0.175
  9
$DIMEXO
 40
0.125
  9
$DIMDLI
 40
3.75
  9
$DIMRND
 40
0.0
  9
$DIMDLE
 40
0.0
  9
$DIMEXE
 40
0.375
  9
$DIMTP
 40
0.0
  9
$DIMTM
 40
0.0
  9
$DIMTXT
 40
0.25
  9
$DIMCEN
 40
2.5
  9
$DIMTSZ
 40
0.0
  9
$DIMTOL
 70
0
  9
$DIMLIM
 70
0
  9
$DIMTIH
 70
0
  9
$DIMTOH
 70
0
  9
$DIMSE1
 70
0
  9
$DIMSE2
 70
0
  9
$DIMTAD
 70
1
  9
$DIMZIN
 70
12
  9
$DIMBLK
  1
ARCHTICK
  9
$DIMASO
 70
1
  9
$DIMSHO
 70
1
  9
$DIMPOST
  1

  9
$DIMAPOST
  1

  9
$DIMALT
 70
0
  9
$DIMALTD
 70
3
  9
$DIMALTF
 40
0.03937007874
  9
$DIMLFAC
 40
100.0
  9
$DIMTOFL
 70
1
  9
$DIMTVP
 40
0.0
  9
$DIMTIX
 70
0
  9
$DIMSOXD
 70
0
  9
$DIMSAH
 70
0
  9
$DIMBLK1
  1

  9
$DIMBLK2
  1

  9
$DIMSTYLE
  2
EZDXF
  9
$DIMCLRD
 70
0
  9
$DIMCLRE
 70
0
  9
$DIMCLRT
 70
0
  9
$DIMTFAC
 40
0.5
  9
$DIMGAP
 40
0.1
  9
$DIMJUST
 70
0
  9
$DIMSD1
 70
0
  9
$DIMSD2
 70
0
  9
$DIMTOLJ
 70
0
  9
$DIMTZIN
 70
8
  9
$DIMALTZ
 70
0
  9
$DIMALTTZ
 70
0
  9
$DIMUPT
 70
1
  9
$DIMDEC
 70
2
  9
$DIMTDEC
 70
2
  9
$DIMALTU
 70
2
  9
$DIMALTTD
 70
3
  9
$DIMTXSTY
  7
OpenSansCondensed-Light
  9
$DIMAUNIT
 70
0
  9
$DIMADEC
 70
2
  9
$DIMALTRND
 40
0.0
  9
$DIMAZIN
 70
3
  9
$DIMDSEP
 70
46
  9
$DIMATFIT
 70
3
  9
$DIMFRAC
 70
0
  9
$DIMLDRBLK
  1

  9
$DIMLUNIT
 70
2
  9
$DIMLWD
 70
-2
  9
$DIMLWE
 70
-2
  9
$DIMTMOVE
 70
2
  9
$DIMFXL
 40
1.0
  9
$DIMFXLON
 70
0
  9
$DIMJOGANG
 40
0.785398163397
  9
$DIMTFILL
 70
0
  9
$DIMTFILLCLR
 70
0
  9
$DIMARCSYM
 70
0
  9
$DIMLTYPE
  6

  9
$DIMLTEX1
  6

  9
$DIMLTEX2
  6

  9
$DIMTXTDIRECTION
 70
0
  9
$LUNITS
 70
2
  9
$LUPREC
 70
4
  9
$SKETCHINC
 40
1.0
  9
$FILLETRAD
 40
10.0
  9
$AUNITS
 70
0
  9
$AUPREC
 70
2
  9
$MENU
  1
.
  9
$ELEVATION
 40
0.0
  9
$PELEVATION
 40
0.0
  9
$THICKNESS
 40
0.0
  9
$LIMCHECK
 70
0
  9
$CHAMFERA
 40
0.0
  9
$CHAMFERB
 40
0.0
  9
$CHAMFERC
 40
0.0
  9
$CHAMFERD
 40
0.0
  9
$SKPOLY
 70
0
  9
$TDCREATE
 40
2460831.7358101853
  9
$TDUCREATE
 40
2458532.153996898
  9
$TDUPDATE
 40
2460831.7358101853
  9
$TDUUPDATE
 40
2458532.1544311
  9
$TDINDWG
 40
0.0
  9
$TDUSRTIMER
 40
0.0
  9
$USRTIMER
 70
1
  9
$ANGBASE
 50
0.0
  9
$ANGDIR
 70
0
  9
$PDMODE
 70
0
  9
$PDSIZE
 40
0.0
  9
$PLINEWID
 40
0.0
  9
$SPLFRAME
 70
0
  9
$SPLINETYPE
 70
6
  9
$SPLINESEGS
 70
8
  9
$HANDSEED
  5
8F
  9
$SURFTAB1
 70
6
  9
$SURFTAB2
 70
6
  9
$SURFTYPE
 70
6
  9
$SURFU
 70
6
  9
$SURFV
 70
6
  9
$UCSBASE
  2

  9
$UCSNAME
  2

  9
$UCSORG
 10
0.0
 20
0.0
 30
0.0
  9
$UCSXDIR
 10
1.0
 20
0.0
 30
0.0
  9
$UCSYDIR
 10
0.0
 20
1.0
 30
0.0
  9
$UCSORTHOREF
  2

  9
$UCSORTHOVIEW
 70
0
  9
$UCSORGTOP
 10
0.0
 20
0.0
 30
0.0
  9
$UCSORGBOTTOM
 10
0.0
 20
0.0
 30
0.0
  9
$UCSORGLEFT
 10
0.0
 20
0.0
 30
0.0
  9
$UCSORGRIGHT
 10
0.0
 20
0.0
 30
0.0
  9
$UCSORGFRONT
 10
0.0
 20
0.0
 30
0.0
  9
$UCSORGBACK
 10
0.0
 20
0.0
 30
0.0
  9
$PUCSBASE
  2

  9
$PUCSNAME
  2

  9
$PUCSORG
 10
0.0
 20
0.0
 30
0.0
  9
$PUCSXDIR
 10
1.0
 20
0.0
 30
0.0
  9
$PUCSYDIR
 10
0.0
 20
1.0
 30
0.0
  9
$PUCSORTHOREF
  2

  9
$PUCSORTHOVIEW
 70
0
  9
$PUCSORGTOP
 10
0.0
 20
0.0
 30
0.0
  9
$PUCSORGBOTTOM
 10
0.0
 20
0.0
 30
0.0
  9
$PUCSORGLEFT
 10
0.0
 20
0.0
 30
0.0
  9
$PUCSORGRIGHT
 10
0.0
 20
0.0
 30
0.0
  9
$PUCSORGFRONT
 10
0.0
 20
0.0
 30
0.0
  9
$PUCSORGBACK
 10
0.0
 20
0.0
 30
0.0
  9
$USERI1
 70
0
  9
$USERI2
 70
0
  9
$USERI3
 70
0
  9
$USERI4
 70
0
  9
$USERI5
 70
0
  9
$USERR1
 40
0.0
  9
$USERR2
 40
0.0
  9
$USERR3
 40
0.0
  9
$USERR4
 40
0.0
  9
$USERR5
 40
0.0
  9
$WORLDVIEW
 70
1
  9
$SHADEDGE
 70
3
  9
$SHADEDIF
 70
70
  9
$TILEMODE
 70
1
  9
$MAXACTVP
 70
64
  9
$PINSBASE
 10
0.0
 20
0.0
 30
0.0
  9
$PLIMCHECK
 70
0
  9
$PEXTMIN
 10
1e+20
 20
1e+20
 30
1e+20
  9
$PEXTMAX
 10
-1e+20
 20
-1e+20
 30
-1e+20
  9
$PLIMMIN
 10
0.0
 20
0.0
  9
$PLIMMAX
 10
420.0
 20
297.0
  9
$UNITMODE
 70
0
  9
$VISRETAIN
 70
1
  9
$PLINEGEN
 70
0
  9
$PSLTSCALE
 70
1
  9
$TREEDEPTH
 70
3020
  9
$CMLSTYLE
  2
Standard
  9
$CMLJUST
 70
0
  9
$CMLSCALE
 40
20.0
  9
$PROXYGRAPHICS
 70
1
  9
$MEASUREMENT
 70
1
  9
$CELWEIGHT
370
-1
  9
$ENDCAPS
280
0
  9
$JOINSTYLE
280
0
  9
$LWDISPLAY
290
0
  9
$INSUNITS
 70
6
  9
$HYPERLINKBASE
  1

  9
$STYLESHEET
  1

  9
$XEDIT
290
1
  9
$CEPSNTYPE
380
0
  9
$PSTYLEMODE
290
1
  9
$FINGERPRINTGUID
  2
{7C1BB310-6249-43F3-9968-EECC3AD7EA1D}
  9
$VERSIONGUID
  2
{30859F20-C160-4D29-BDEC-3DF493AC0B08}
  9
$EXTNAMES
290
1
  9
$PSVPSCALE
 40
0.0
  9
$OLESTARTUP
290
0
  9
$SORTENTS
280
127
  9
$INDEXCTL
280
0
  9
$HIDETEXT
280
1
  9
$XCLIPFRAME
280
1
  9
$HALOGAP
280
0
  9
$OBSCOLOR
 70
257
  9
$OBSLTYPE
280
0
  9
$INTERSECTIONDISPLAY
280
0
  9
$INTERSECTIONCOLOR
 70
257
  9
$DIMASSOC
280
2
  9
$PROJECTNAME
  1

  9
$CAMERADISPLAY
290
0
  9
$LENSLENGTH
 40
50.0
  9
$CAMERAHEIGHT
 40
0.0
  9
$STEPSPERSEC
 40
24.0
  9
$STEPSIZE
 40
100.0
  9
$3DDWFPREC
 40
2.0
  9
$PSOLWIDTH
 40
0.005
  9
$PSOLHEIGHT
 40
0.08
  9
$LOFTANG1
 40
1.570796326795
  9
$LOFTANG2
 40
1.570796326795
  9
$LOFTMAG1
 40
0.0
  9
$LOFTMAG2
 40
0.0
  9
$LOFTPARAM
 70
7
  9
$LOFTNORMALS
280
1
  9
$LATITUDE
 40
37.795
  9
$LONGITUDE
 40
-122.394
  9
$NORTHDIRECTION
 40
0.0
  9
$TIMEZONE
 70
-8000
  9
$LIGHTGLYPHDISPLAY
280
1
  9
$TILEMODELIGHTSYNCH
280
1
  9
$CMATERIAL
347
20
  9
$SOLIDHIST
280
0
  9
$SHOWHIST
280
1
  9
$DWFFRAME
280
2
  9
$DGNFRAME
280
2
  9
$REALWORLDSCALE
290
1
  9
$INTERFERECOLOR
 62
256
  9
$CSHADOW
280
0
  9
$SHADOWPLANELOCATION
 40
0.0
  0
ENDSEC
  0
SECTION
  2
CLASSES
  0
CLASS
  1
ACDBDICTIONARYWDFLT
  2
AcDbDictionaryWithDefault
  3
ObjectDBX Classes
 90
0
 91
0
280
0
281
0
  0
CLASS
  1
SUN
  2
AcDbSun
  3
SCENEOE
 90
1153
 91
0
280
0
281
0
  0
CLASS
  1
VISUALSTYLE
  2
AcDbVisualStyle
  3
ObjectDBX Classes
 90
4095
 91
0
280
0
281
0
  0
CLASS
  1
MATERIAL
  2
AcDbMaterial
  3
ObjectDBX Classes
 90
1153
 91
0
280
0
281
0
  0
CLASS
  1
SCALE
  2
AcDbScale
  3
ObjectDBX Classes
 90
1153
 91
0
280
0
281
0
  0
CLASS
  1
TABLESTYLE
  2
AcDbTableStyle
  3
ObjectDBX Classes
 90
4095
 91
0
280
0
281
0
  0
CLASS
  1
MLEADERSTYLE
  2
AcDbMLeaderStyle
  3
ACDB_MLEADERSTYLE_CLASS
 90
4095
 91
0
280
0
281
0
  0
CLASS
  1
DICTIONARYVAR
  2
AcDbDictionaryVar
  3
ObjectDBX Classes
 90
0
 91
0
280
0
281
0
  0
CLASS
  1
CELLSTYLEMAP
  2
AcDbCellStyleMap
  3
ObjectDBX Classes
 90
1152
 91
0
280
0
281
0
  0
CLASS
  1
MENTALRAYRENDERSETTINGS
  2
AcDbMentalRayRenderSettings
  3
SCENEOE
 90
1024
 91
0
280
0
281
0
  0
CLASS
  1
ACDBDETAILVIEWSTYLE
  2
AcDbDetailViewStyle
  3
ObjectDBX Classes
 90
1025
 91
0
280
0
281
0
  0
CLASS
  1
ACDBSECTIONVIEWSTYLE
  2
AcDbSectionViewStyle
  3
ObjectDBX Classes
 90
1025
 91
0
280
0
281
0
  0
CLASS
  1
RASTERVARIABLES
  2
AcDbRasterVariables
  3
ISM
 90
0
 91
0
280
0
281
0
  0
CLASS
  1
LAYOUT
  2
AcDbLayout
  3
ObjectDBX Classes
 90
0
 91
0
280
0
281
0
  0
CLASS
  1
ACDBPLACEHOLDER
  2
AcDbPlaceHolder
  3
ObjectDBX Classes
 90
0
 91
0
280
0
281
0
  0
ENDSEC
  0
SECTION
  2
TABLES
  0
TABLE
  2
VPORT
  5
8
330
0
100
AcDbSymbolTable
 70
1
  0
VPORT
  5
23
330
8
100
AcDbSymbolTableRecord
100
AcDbViewportTableRecord
  2
*Active
 70
0
 10
0.0
 20
0.0
 11
1.0
 21
1.0
 12
0.0
 22
0.0
 13
0.0
 23
0.0
 14
0.5
 24
0.5
 15
0.5
 25
0.5
 16
0.0
 26
0.0
 36
1.0
 17
0.0
 27
0.0
 37
0.0
 40
1000.0
 41
1.34
 42
50.0
 43
0.0
 44
0.0
 50
0.0
 51
0.0
 71
0
 72
1000
 73
1
 74
3
 75
0
 76
0
 77
0
 78
0
281
0
 65
0
146
0.0
  0
ENDTAB
  0
TABLE
  2
LTYPE
  5
2
330
0
100
AcDbSymbolTable
 70
21
  0
LTYPE
  5
24
330
2
100
AcDbSymbolTableRecord
100
AcDbLinetypeTableRecord
  2
ByBlock
 70
0
  3

 72
65
 73
0
 40
0.0
  0
LTYPE
  5
25
330
2
100
AcDbSymbolTableRecord
100
AcDbLinetypeTableRecord
  2
ByLayer
 70
0
  3

 72
65
 73
0
 40
0.0
  0
LTYPE
  5
26
330
2
100
AcDbSymbolTableRecord
100
AcDbLinetypeTableRecord
  2
Continuous
 70
0
  3

 72
65
 73
0
 40
0.0
  0
LTYPE
  5
2F
330
2
100
AcDbSymbolTableRecord
100
AcDbLinetypeTableRecord
  2
CENTER
 70
0
  3
Center ____ _ ____ _ ____ _ ____ _ ____ _ ____
 72
65
 73
4
 40
5.08
 49
3.175
 74
0
 49
-0.635
 74
0
 49
0.635
 74
0
 49
-0.635
 74
0
  0
LTYPE
  5
30
330
2
100
AcDbSymbolTableRecord
100
AcDbLinetypeTableRecord
  2
CENTERX2
 70
0
  3
Center (2x) ________  __  ________  __  ________
 72
65
 73
4
 40
8.89
 49
6.35
 74
0
 49
-0.635
 74
0
 49
1.27
 74
0
 49
-0.635
 74
0
  0
LTYPE
  5
31
330
2
100
AcDbSymbolTableRecord
100
AcDbLinetypeTableRecord
  2
CENTER2
 70
0
  3
Center (.5x) ____ _ ____ _ ____ _ ____ _ ____
 72
65
 73
4
 40
2.54
 49
1.587
 74
0
 49
-0.318
 74
0
 49
0.318
 74
0
 49
-0.318
 74
0
  0
LTYPE
  5
32
330
2
100
AcDbSymbolTableRecord
100
AcDbLinetypeTableRecord
  2
DASHED
 70
0
  3
Dashed __ __ __ __ __ __ __ __ __ __ __ __ __ _
 72
65
 73
2
 40
1.524
 49
1.27
 74
0
 49
-0.254
 74
0
  0
LTYPE
  5
33
330
2
100
AcDbSymbolTableRecord
100
AcDbLinetypeTableRecord
  2
DASHEDX2
 70
0
  3
Dashed (2x) ____  ____  ____  ____  ____  ____
 72
65
 73
2
 40
3.048
 49
2.54
 74
0
 49
-0.508
 74
0
  0
LTYPE
  5
34
330
2
100
AcDbSymbolTableRecord
100
AcDbLinetypeTableRecord
  2
DASHED2
 70
0
  3
Dashed (.5x) _ _ _ _ _ _ _ _ _ _ _ _ _ _
 72
65
 73
2
 40
0.762
 49
0.635
 74
0
 49
-0.127
 74
0
  0
LTYPE
  5
35
330
2
100
AcDbSymbolTableRecord
100
AcDbLinetypeTableRecord
  2
PHANTOM
 70
0
  3
Phantom ______  __  __  ______  __  __  ______
 72
65
 73
6
 40
6.35
 49
3.175
 74
0
 49
-0.635
 74
0
 49
0.635
 74
0
 49
-0.635
 74
0
 49
0.635
 74
0
 49
-0.635
 74
0
  0
LTYPE
  5
36
330
2
100
AcDbSymbolTableRecord
100
AcDbLinetypeTableRecord
  2
PHANTOMX2
 70
0
  3
Phantom (2x)____________    ____    ____    ____________
 72
65
 73
6
 40
10.795
 49
6.35
 74
0
 49
-0.635
 74
0
 49
1.27
 74
0
 49
-0.635
 74
0
 49
1.27
 74
0
 49
-0.635
 74
0
  0
LTYPE
  5
37
330
2
100
AcDbSymbolTableRecord
100
AcDbLinetypeTableRecord
  2
PHANTOM2
 70
0
  3
Phantom (.5x) ___ _ _ ___ _ _ ___ _ _ ___ _ _ ___
 72
65
 73
6
 40
3.175
 49
1.587
 74
0
 49
-0.318
 74
0
 49
0.318
 74
0
 49
-0.318
 74
0
 49
0.318
 74
0
 49
-0.318
 74
0
  0
LTYPE
  5
38
330
2
100
AcDbSymbolTableRecord
100
AcDbLinetypeTableRecord
  2
DASHDOT
 70
0
  3
Dash dot __ . __ . __ . __ . __ . __ . __ . __
 72
65
 73
4
 40
3.556
 49
2.54
 74
0
 49
-0.508
 74
0
 49
0.0
 74
0
 49
-0.508
 74
0
  0
LTYPE
  5
39
330
2
100
AcDbSymbolTableRecord
100
AcDbLinetypeTableRecord
  2
DASHDOTX2
 70
0
  3
Dash dot (2x) ____  .  ____  .  ____  .  ____
 72
65
 73
4
 40
6.096
 49
5.08
 74
0
 49
-0.508
 74
0
 49
0.0
 74
0
 49
-0.508
 74
0
  0
LTYPE
  5
3A
330
2
100
AcDbSymbolTableRecord
100
AcDbLinetypeTableRecord
  2
DASHDOT2
 70
0
  3
Dash dot (.5x) _ . _ . _ . _ . _ . _ . _ . _
 72
65
 73
4
 40
1.778
 49
1.27
 74
0
 49
-0.254
 74
0
 49
0.0
 74
0
 49
-0.254
 74
0
  0
LTYPE
  5
3B
330
2
100
AcDbSymbolTableRecord
100
AcDbLinetypeTableRecord
  2
DOT
 70
0
  3
Dot .  .  .  .  .  .  .  .  .  .  .  .  .  .  .  .
 72
65
 73
2
 40
0.508
 49
0.0
 74
0
 49
-0.508
 74
0
  0
LTYPE
  5
3C
330
2
100
AcDbSymbolTableRecord
100
AcDbLinetypeTableRecord
  2
DOTX2
 70
0
  3
Dot (2x) .    .    .    .    .    .    .    . 
 72
65
 73
2
 40
1.016
 49
0.0
 74
0
 49
-1.016
 74
0
  0
LTYPE
  5
3D
330
2
100
AcDbSymbolTableRecord
100
AcDbLinetypeTableRecord
  2
DOT2
 70
0
  3
Dot (.5) . . . . . . . . . . . . . . . . . . . 
 72
65
 73
2
 40
0.254
 49
0.0
 74
0
 49
-0.254
 74
0
  0
LTYPE
  5
3E
330
2
100
AcDbSymbolTableRecord
100
AcDbLinetypeTableRecord
  2
DIVIDE
 70
0
  3
Divide __ . . __ . . __ . . __ . . __ . . __
 72
65
 73
6
 40
4.064
 49
2.54
 74
0
 49
-0.508
 74
0
 49
0.0
 74
0
 49
-0.508
 74
0
 49
0.0
 74
0
 49
-0.508
 74
0
  0
LTYPE
  5
3F
330
2
100
AcDbSymbolTableRecord
100
AcDbLinetypeTableRecord
  2
DIVIDEX2
 70
0
  3
Divide (2x) ____  . .  ____  . .  ____  . .  ____
 72
65
 73
6
 40
6.604
 49
5.08
 74
0
 49
-0.508
 74
0
 49
0.0
 74
0
 49
-0.508
 74
0
 49
0.0
 74
0
 49
-0.508
 74
0
  0
LTYPE
  5
40
330
2
100
AcDbSymbolTableRecord
100
AcDbLinetypeTableRecord
  2
DIVIDE2
 70
0
  3
Divide(.5x) _ . _ . _ . _ . _ . _ . _ . _
 72
65
 73
6
 40
2.032
 49
1.27
 74
0
 49
-0.254
 74
0
 49
0.0
 74
0
 49
-0.254
 74
0
 49
0.0
 74
0
 49
-0.254
 74
0
  0
ENDTAB
  0
TABLE
  2
LAYER
  5
1
330
0
100
AcDbSymbolTable
 70
2
  0
LAYER
  5
27
330
1
100
AcDbSymbolTableRecord
100
AcDbLayerTableRecord
  2
0
 70
0
 62
7
  6
Continuous
370
-3
390
13
347
21
  0
LAYER
  5
28
330
1
100
AcDbSymbolTableRecord
100
AcDbLayerTableRecord
  2
Defpoints
 70
0
 62
7
  6
Continuous
290
0
370
-3
390
13
347
21
  0
ENDTAB
  0
TABLE
  2
STYLE
  5
5
330
0
100
AcDbSymbolTable
 70
26
  0
STYLE
  5
29
330
5
100
AcDbSymbolTableRecord
100
AcDbTextStyleTableRecord
  2
Standard
 70
0
 40
0.0
 41
1.0
 50
0.0
 71
0
 42
2.5
  3
txt
  4

  0
STYLE
  5
41
330
5
100
AcDbSymbolTableRecord
100
AcDbTextStyleTableRecord
  2
OpenSans-Light
 70
0
 40
0.0
 41
1.0
 50
0.0
 71
0
 42
2.5
  3
OpenSans-Light.ttf
  4

  0
STYLE
  5
42
330
5
100
AcDbSymbolTableRecord
100
AcDbTextStyleTableRecord
  2
OpenSans-Light-Italic
 70
0
 40
0.0
 41
1.0
 50
0.0
 71
0
 42
2.5
  3
OpenSans-LightItalic.ttf
  4

  0
STYLE
  5
43
330
5
100
AcDbSymbolTableRecord
100
AcDbTextStyleTableRecord
  2
OpenSans
 70
0
 40
0.0
 41
1.0
 50
0.0
 71
0
 42
2.5
  3
OpenSans-Regular.ttf
  4

  0
STYLE
  5
44
330
5
100
AcDbSymbolTableRecord
100
AcDbTextStyleTableRecord
  2
OpenSans-Italic
 70
0
 40
0.0
 41
1.0
 50
0.0
 71
0
 42
2.5
  3
OpenSans-Italic.ttf
  4

  0
STYLE
  5
45
330
5
100
AcDbSymbolTableRecord
100
AcDbTextStyleTableRecord
  2
OpenSans-SemiBold
 70
0
 40
0.0
 41
1.0
 50
0.0
 71
0
 42
2.5
  3
OpenSans-SemiBold.ttf
  4

  0
STYLE
  5
46
330
5
100
AcDbSymbolTableRecord
100
AcDbTextStyleTableRecord
  2
OpenSans-SemiBoldItalic
 70
0
 40
0.0
 41
1.0
 50
0.0
 71
0
 42
2.5
  3
OpenSans-SemiBoldItalic.ttf
  4

  0
STYLE
  5
47
330
5
100
AcDbSymbolTableRecord
100
AcDbTextStyleTableRecord
  2
OpenSans-Bold
 70
0
 40
0.0
 41
1.0
 50
0.0
 71
0
 42
2.5
  3
OpenSans-Bold.ttf
  4

  0
STYLE
  5
48
330
5
100
AcDbSymbolTableRecord
100
AcDbTextStyleTableRecord
  2
OpenSans-BoldItalic
 70
0
 40
0.0
 41
1.0
 50
0.0
 71
0
 42
2.5
  3
OpenSans-BoldItalic.ttf
  4

  0
STYLE
  5
49
330
5
100
AcDbSymbolTableRecord
100
AcDbTextStyleTableRecord
  2
OpenSans-ExtraBold
 70
0
 40
0.0
 41
1.0
 50
0.0
 71
0
 42
2.5
  3
OpenSans-ExtraBold.ttf
  4

  0
STYLE
  5
4A
330
5
100
AcDbSymbolTableRecord
100
AcDbTextStyleTableRecord
  2
OpenSans-ExtraBoldItalic
 70
0
 40
0.0
 41
1.0
 50
0.0
 71
0
 42
2.5
  3
OpenSans-ExtraBoldItalic.ttf
  4

  0
STYLE
  5
4B
330
5
100
AcDbSymbolTableRecord
100
AcDbTextStyleTableRecord
  2
OpenSansCondensed-Bold
 70
0
 40
0.0
 41
1.0
 50
0.0
 71
0
 42
2.5
  3
OpenSansCondensed-Bold.ttf
  4

  0
STYLE
  5
4C
330
5
100
AcDbSymbolTableRecord
100
AcDbTextStyleTableRecord
  2
OpenSansCondensed-Light
 70
0
 40
0.0
 41
1.0
 50
0.0
 71
0
 42
2.5
  3
OpenSansCondensed-Light.ttf
  4

  0
STYLE
  5
4D
330
5
100
AcDbSymbolTableRecord
100
AcDbTextStyleTableRecord
  2
OpenSansCondensed-Italic
 70
0
 40
0.0
 41
1.0
 50
0.0
 71
0
 42
2.5
  3
OpenSansCondensed-LightItalic.ttf
  4

  0
STYLE
  5
4E
330
5
100
AcDbSymbolTableRecord
100
AcDbTextStyleTableRecord
  2
LiberationSans
 70
0
 40
0.0
 41
1.0
 50
0.0
 71
0
 42
2.5
  3
LiberationSans-Regular.ttf
  4

  0
STYLE
  5
4F
330
5
100
AcDbSymbolTableRecord
100
AcDbTextStyleTableRecord
  2
LiberationSans-Bold
 70
0
 40
0.0
 41
1.0
 50
0.0
 71
0
 42
2.5
  3
LiberationSans-Bold.ttf
  4

  0
STYLE
  5
50
330
5
100
AcDbSymbolTableRecord
100
AcDbTextStyleTableRecord
  2
LiberationSans-BoldItalic
 70
0
 40
0.0
 41
1.0
 50
0.0
 71
0
 42
2.5
  3
LiberationSans-BoldItalic.ttf
  4

  0
STYLE
  5
51
330
5
100
AcDbSymbolTableRecord
100
AcDbTextStyleTableRecord
  2
LiberationSans-Italic
 70
0
 40
0.0
 41
1.0
 50
0.0
 71
0
 42
2.5
  3
LiberationSans-Italic.ttf
  4

  0
STYLE
  5
52
330
5
100
AcDbSymbolTableRecord
100
AcDbTextStyleTableRecord
  2
LiberationSerif
 70
0
 40
0.0
 41
1.0
 50
0.0
 71
0
 42
2.5
  3
LiberationSerif-Regular.ttf
  4

  0
STYLE
  5
53
330
5
100
AcDbSymbolTableRecord
100
AcDbTextStyleTableRecord
  2
LiberationSerif-Bold
 70
0
 40
0.0
 41
1.0
 50
0.0
 71
0
 42
2.5
  3
LiberationSerif-Bold.ttf
  4

  0
STYLE
  5
54
330
5
100
AcDbSymbolTableRecord
100
AcDbTextStyleTableRecord
  2
LiberationSerif-BoldItalic
 70
0
 40
0.0
 41
1.0
 50
0.0
 71
0
 42
2.5
  3
LiberationSerif-BoldItalic.ttf
  4

  0
STYLE
  5
55
330
5
100
AcDbSymbolTableRecord
100
AcDbTextStyleTableRecord
  2
LiberationSerif-Italic
 70
0
 40
0.0
 41
1.0
 50
0.0
 71
0
 42
2.5
  3
LiberationSerif-Italic.ttf
  4

  0
STYLE
  5
56
330
5
100
AcDbSymbolTableRecord
100
AcDbTextStyleTableRecord
  2
LiberationMono
 70
0
 40
0.0
 41
1.0
 50
0.0
 71
0
 42
2.5
  3
LiberationMono-Regular.ttf
  4

  0
STYLE
  5
57
330
5
100
AcDbSymbolTableRecord
100
AcDbTextStyleTableRecord
  2
LiberationMono-Bold
 70
0
 40
0.0
 41
1.0
 50
0.0
 71
0
 42
2.5
  3
LiberationMono-Bold.ttf
  4

  0
STYLE
  5
58
330
5
100
AcDbSymbolTableRecord
100
AcDbTextStyleTableRecord
  2
LiberationMono-BoldItalic
 70
0
 40
0.0
 41
1.0
 50
0.0
 71
0
 42
2.5
  3
LiberationMono-BoldItalic.ttf
  4

  0
STYLE
  5
59
330
5
100
AcDbSymbolTableRecord
100
AcDbTextStyleTableRecord
  2
LiberationMono-Italic
 70
0
 40
0.0
 41
1.0
 50
0.0
 71
0
 42
2.5
  3
LiberationMono-Italic.ttf
  4

  0
ENDTAB
  0
TABLE
  2
VIEW
  5
7
330
0
100
AcDbSymbolTable
 70
0
  0
ENDTAB
  0
TABLE
  2
UCS
  5
6
330
0
100
AcDbSymbolTable
 70
0
  0
ENDTAB
  0
TABLE
  2
APPID
  5
3
330
0
100
AcDbSymbolTable
 70
3
  0
APPID
  5
2A
330
3
100
AcDbSymbolTableRecord
100
AcDbRegAppTableRecord
  2
ACAD
 70
0
  0
APPID
  5
8C
330
3
100
AcDbSymbolTableRecord
100
AcDbRegAppTableRecord
  2
HATCHBACKGROUNDCOLOR
 70
0
  0
APPID
  5
8D
330
3
100
AcDbSymbolTableRecord
100
AcDbRegAppTableRecord
  2
EZDXF
 70
0
  0
ENDTAB
  0
TABLE
  2
DIMSTYLE
  5
4
330
0
100
AcDbSymbolTable
 70
12
100
AcDbDimStyleTable
  0
DIMSTYLE
105
2B
330
4
100
AcDbSymbolTableRecord
100
AcDbDimStyleTableRecord
  2
Standard
 70
0
 40
1.0
 41
2.5
 42
0.625
 43
3.75
 44
1.25
 45
0.0
 46
0.0
 47
0.0
 48
0.0
 49
2.5
140
2.5
141
2.5
142
0.0
143
0.03937007874
144
1.0
145
0.0
146
1.0
147
0.625
148
0.0
 69
0
 70
0
 71
0
 72
0
 73
0
 74
0
 75
0
 76
0
 77
1
 78
8
 79
3
170
0
171
3
172
1
173
0
174
0
175
0
176
0
177
0
178
0
179
2
271
2
272
2
273
2
274
3
275
0
276
0
277
2
278
44
279
0
280
0
281
0
282
0
283
0
284
8
285
0
286
0
288
0
289
3
290
0
371
-2
372
-2
  0
DIMSTYLE
105
73
330
4
100
AcDbSymbolTableRecord
100
AcDbDimStyleTableRecord
  2
EZDXF
 70
0
 40
1.0
 41
0.175
 42
0.125
 43
3.75
 44
0.375
 45
0.0
 46
0.0
 47
0.0
 48
0.0
 49
2.5
140
0.25
141
2.5
142
0.0
143
0.03937007874
144
100.0
145
0.0
146
0.5
147
0.1
148
0.0
 69
0
 70
0
 71
0
 72
0
 73
0
 74
0
 75
0
 76
0
 77
1
 78
12
 79
3
170
0
171
3
172
1
173
0
174
0
175
0
176
0
177
0
178
0
179
2
271
2
272
2
273
2
274
3
275
0
276
0
277
2
278
46
279
2
280
0
281
0
282
0
283
0
284
8
285
0
286
0
288
1
289
3
290
0
340
4C
342
74
371
-2
372
-2
  0
DIMSTYLE
105
7C
330
4
100
AcDbSymbolTableRecord
100
AcDbDimStyleTableRecord
  2
EZ_M_100_H25_CM
 70
0
 40
1.0
 41
0.25
 42
0.125
 43
3.75
 44
0.375
 45
0.0
 46
0.0
 47
0.0
 48
0.0
 49
2.5
140
0.25
141
2.5
142
0.125
143
0.03937007874
144
100.0
145
0.0
146
0.5
147
0.1
148
0.0
 69
0
 70
0
 71
0
 72
0
 73
0
 74
0
 75
0
 76
0
 77
1
 78
12
 79
3
170
0
171
3
172
1
173
0
174
0
175
0
176
0
177
0
178
0
179
2
271
2
272
2
273
2
274
3
275
0
276
0
277
2
278
46
279
2
280
0
281
0
282
0
283
0
284
8
285
0
286
0
288
1
289
3
290
0
340
4C
371
-2
372
-2
  0
DIMSTYLE
105
7D
330
4
100
AcDbSymbolTableRecord
100
AcDbDimStyleTableRecord
  2
EZ_M_50_H25_CM
 70
0
 40
1.0
 41
0.125
 42
0.0625
 43
3.75
 44
0.1875
 45
0.0
 46
0.0
 47
0.0
 48
0.0
 49
2.5
140
0.125
141
2.5
142
0.0625
143
0.03937007874
144
100.0
145
0.0
146
0.5
147
0.05
148
0.0
 69
0
 70
0
 71
0
 72
0
 73
0
 74
0
 75
0
 76
0
 77
1
 78
12
 79
3
170
0
171
3
172
1
173
0
174
0
175
0
176
0
177
0
178
0
179
2
271
2
272
2
273
2
274
3
275
0
276
0
277
2
278
46
279
2
280
0
281
0
282
0
283
0
284
8
285
0
286
0
288
1
289
3
290
0
340
4C
371
-2
372
-2
  0
DIMSTYLE
105
7E
330
4
100
AcDbSymbolTableRecord
100
AcDbDimStyleTableRecord
  2
EZ_M_25_H25_CM
 70
0
 40
1.0
 41
0.0625
 42
0.03125
 43
3.75
 44
0.09375
 45
0.0
 46
0.0
 47
0.0
 48
0.0
 49
2.5
140
0.0625
141
2.5
142
0.03125
143
0.03937007874
144
100.0
145
0.0
146
0.5
147
0.025
148
0.0
 69
0
 70
0
 71
0
 72
0
 73
0
 74
0
 75
0
 76
0
 77
1
 78
12
 79
3
170
0
171
3
172
1
173
0
174
0
175
0
176
0
177
0
178
0
179
2
271
2
272
2
273
2
274
3
275
0
276
0
277
2
278
46
279
2
280
0
281
0
282
0
283
0
284
8
285
0
286
0
288
1
289
3
290
0
340
4C
371
-2
372
-2
  0
DIMSTYLE
105
7F
330
4
100
AcDbSymbolTableRecord
100
AcDbDimStyleTableRecord
  2
EZ_M_20_H25_CM
 70
0
 40
1.0
 41
0.05
 42
0.025
 43
3.75
 44
0.07500000000000001
 45
0.0
 46
0.0
 47
0.0
 48
0.0
 49
2.5
140
0.05
141
2.5
142
0.025
143
0.03937007874
144
100.0
145
0.0
146
0.5
147
0.020000000000000004
148
0.0
 69
0
 70
0
 71
0
 72
0
 73
0
 74
0
 75
0
 76
0
 77
1
 78
12
 79
3
170
0
171
3
172
1
173
0
174
0
175
0
176
0
177
0
178
0
179
2
271
2
272
2
273
2
274
3
275
0
276
0
277
2
278
46
279
2
280
0
281
0
282
0
283
0
284
8
285
0
286
0
288
1
289
3
290
0
340
4C
371
-2
372
-2
  0
DIMSTYLE
105
80
330
4
100
AcDbSymbolTableRecord
100
AcDbDimStyleTableRecord
  2
EZ_M_10_H25_CM
 70
0
 40
1.0
 41
0.025
 42
0.0125
 43
3.75
 44
0.037500000000000006
 45
0.0
 46
0.0
 47
0.0
 48
0.0
 49
2.5
140
0.025
141
2.5
142
0.0125
143
0.03937007874
144
100.0
145
0.0
146
0.5
147
0.010000000000000002
148
0.0
 69
0
 70
0
 71
0
 72
0
 73
0
 74
0
 75
0
 76
0
 77
1
 78
12
 79
3
170
0
171
3
172
1
173
0
174
0
175
0
176
0
177
0
178
0
179
2
271
2
272
2
273
2
274
3
275
0
276
0
277
2
278
46
279
2
280
0
281
0
282
0
283
0
284
8
285
0
286
0
288
1
289
3
290
0
340
4C
371
-2
372
-2
  0
DIMSTYLE
105
81
330
4
100
AcDbSymbolTableRecord
100
AcDbDimStyleTableRecord
  2
EZ_M_5_H25_CM
 70
0
 40
1.0
 41
0.0125
 42
0.00625
 43
3.75
 44
0.018750000000000003
 45
0.0
 46
0.0
 47
0.0
 48
0.0
 49
2.5
140
0.0125
141
2.5
142
0.00625
143
0.03937007874
144
100.0
145
0.0
146
0.5
147
0.005000000000000001
148
0.0
 69
0
 70
0
 71
0
 72
0
 73
0
 74
0
 75
0
 76
0
 77
1
 78
12
 79
3
170
0
171
3
172
1
173
0
174
0
175
0
176
0
177
0
178
0
179
2
271
2
272
2
273
2
274
3
275
0
276
0
277
2
278
46
279
2
280
0
281
0
282
0
283
0
284
8
285
0
286
0
288
1
289
3
290
0
340
4C
371
-2
372
-2
  0
DIMSTYLE
105
82
330
4
100
AcDbSymbolTableRecord
100
AcDbDimStyleTableRecord
  2
EZ_M_1_H25_CM
 70
0
 40
1.0
 41
0.0025
 42
0.00125
 43
3.75
 44
0.00375
 45
0.0
 46
0.0
 47
0.0
 48
0.0
 49
2.5
140
0.0025
141
2.5
142
0.00125
143
0.03937007874
144
100.0
145
0.0
146
0.5
147
0.001
148
0.0
 69
0
 70
0
 71
0
 72
0
 73
0
 74
0
 75
0
 76
0
 77
1
 78
12
 79
3
170
0
171
3
172
1
173
0
174
0
175
0
176
0
177
0
178
0
179
2
271
2
272
2
273
2
274
3
275
0
276
0
277
2
278
46
279
2
280
0
281
0
282
0
283
0
284
8
285
0
286
0
288
1
289
3
290
0
340
4C
371
-2
372
-2
  0
DIMSTYLE
105
83
330
4
100
AcDbSymbolTableRecord
100
AcDbDimStyleTableRecord
  2
EZ_RADIUS
 70
0
 40
1.0
 41
0.25
 42
0.125
 43
3.75
 44
0.375
 45
0.0
 46
0.0
 47
0.0
 48
0.0
 49
2.5
140
0.25
141
0.0
142
0.0
143
0.03937007874
144
100.0
145
0.0
146
0.5
147
0.1
148
0.0
 69
0
 70
0
 71
0
 72
0
 73
0
 74
0
 75
0
 76
0
 77
1
 78
12
 79
3
170
0
171
3
172
0
173
0
174
0
175
0
176
0
177
0
178
0
179
2
271
2
272
2
273
2
274
3
275
0
276
0
277
2
278
46
279
1
280
0
281
0
282
0
283
0
284
8
285
0
286
0
288
1
289
3
290
0
340
4C
342
84
371
-2
372
-2
  0
DIMSTYLE
105
88
330
4
100
AcDbSymbolTableRecord
100
AcDbDimStyleTableRecord
  2
EZ_RADIUS_INSIDE
 70
0
 40
1.0
 41
0.25
 42
0.125
 43
3.75
 44
0.375
 45
0.0
 46
0.0
 47
0.0
 48
0.0
 49
2.5
140
0.25
141
0.0
142
0.0
143
0.03937007874
144
100.0
145
0.0
146
0.5
147
0.1
148
0.0
 69
0
 70
0
 71
0
 72
0
 73
0
 74
0
 75
0
 76
0
 77
0
 78
12
 79
3
170
0
171
3
172
0
173
0
174
1
175
0
176
0
177
0
178
0
179
2
271
2
272
2
273
2
274
3
275
0
276
0
277
2
278
46
279
0
280
0
281
0
282
0
283
0
284
8
285
0
286
0
288
1
289
0
290
0
340
4C
342
84
371
-2
372
-2
  0
DIMSTYLE
105
89
330
4
100
AcDbSymbolTableRecord
100
AcDbDimStyleTableRecord
  2
EZ_CURVED
 70
0
 40
1.0
 41
0.25
 42
0.125
 43
3.75
 44
0.375
 45
0.0
 46
0.0
 47
0.0
 48
0.0
 49
2.5
140
0.25
141
2.5
142
0.0
143
0.03937007874
144
100.0
145
0.0
146
0.5
147
0.1
148
0.0
 69
0
 70
0
 71
0
 72
0
 73
0
 74
0
 75
0
 76
0
 77
1
 78
12
 79
2
 90
2
170
0
171
3
172
1
173
0
174
0
175
0
176
0
177
0
178
0
179
2
271
2
272
2
273
2
274
3
275
0
276
0
277
2
278
46
279
2
280
0
281
0
282
0
283
0
284
8
285
0
286
0
288
1
289
3
290
0
340
4C
371
-2
372
-2
  0
ENDTAB
  0
TABLE
  2
BLOCK_RECORD
  5
9
330
0
100
AcDbSymbolTable
 70
5
  0
BLOCK_RECORD
  5
17
330
9
100
AcDbSymbolTableRecord
100
AcDbBlockTableRecord
  2
*Model_Space
340
1A
 70
0
280
1
281
0
  0
BLOCK_RECORD
  5
1B
330
9
100
AcDbSymbolTableRecord
100
AcDbBlockTableRecord
  2
*Paper_Space
340
1E
 70
0
280
1
281
0
  0
BLOCK_RECORD
  5
74
330
9
100
AcDbSymbolTableRecord
100
AcDbBlockTableRecord
  2
_ARCHTICK
340
0
 70
0
280
1
281
0
  0
BLOCK_RECORD
  5
78
330
9
100
AcDbSymbolTableRecord
100
AcDbBlockTableRecord
  2
_CLOSEDFILLED
340
0
 70
0
280
1
281
0
  0
BLOCK_RECORD
  5
84
330
9
100
AcDbSymbolTableRecord
100
AcDbBlockTableRecord
  2
_CLOSEDBLANK
340
0
 70
0
280
1
281
0
  0
ENDTAB
  0
ENDSEC
  0
SECTION
  2
BLOCKS
  0
BLOCK
  5
18
330
17
100
AcDbEntity
  8
0
100
AcDbBlockBegin
  2
*Model_Space
 70
0
 10
0.0
 20
0.0
 30
0.0
  3
*Model_Space
  1

  0
ENDBLK
  5
19
330
17
100
AcDbEntity
  8
0
100
AcDbBlockEnd
  0
BLOCK
  5
1C
330
1B
100
AcDbEntity
  8
0
100
AcDbBlockBegin
  2
*Paper_Space
 70
0
 10
0.0
 20
0.0
 30
0.0
  3
*Paper_Space
  1

  0
ENDBLK
  5
1D
330
1B
100
AcDbEntity
  8
0
100
AcDbBlockEnd
  0
BLOCK
  5
75
330
74
100
AcDbEntity
  8
0
100
AcDbBlockBegin
  2
_ARCHTICK
 70
0
 10
0.0
 20
0.0
 30
0.0
  3
_ARCHTICK
  1

  0
LWPOLYLINE
  5
77
330
74
100
AcDbEntity
  8
0
  6
BYBLOCK
 62
0
100
AcDbPolyline
 90
2
 70
0
 43
0.15
 10
-0.5
 20
-0.5
 10
0.5
 20
0.5
  0
ENDBLK
  5
76
330
74
100
AcDbEntity
  8
0
100
AcDbBlockEnd
  0
BLOCK
  5
79
330
78
100
AcDbEntity
  8
0
100
AcDbBlockBegin
  2
_CLOSEDFILLED
 70
0
 10
0.0
 20
0.0
 30
0.0
  3
_CLOSEDFILLED
  1

  0
SOLID
  5
7B
330
78
100
AcDbEntity
  8
0
  6
BYBLOCK
 62
0
100
AcDbTrace
 10
-1.0
 20
0.16439898372402537
 30
0.0
 11
0.0
 21
0.0
 31
0.0
 12
-1.0
 22
-0.16439898372402537
 32
0.0
 13
-1.0
 23
-0.16439898372402537
 33
0.0
  0
ENDBLK
  5
7A
330
78
100
AcDbEntity
  8
0
100
AcDbBlockEnd
  0
BLOCK
  5
85
330
84
100
AcDbEntity
  8
0
100
AcDbBlockBegin
  2
_CLOSEDBLANK
 70
0
 10
0.0
 20
0.0
 30
0.0
  3
_CLOSEDBLANK
  1

  0
LWPOLYLINE
  5
87
330
84
100
AcDbEntity
  8
0
  6
BYBLOCK
 62
0
100
AcDbPolyline
 90
3
 70
1
 10
-1.0
 20
0.16439898372402537
 10
0.0
 20
0.0
 10
-1.0
 20
-0.16439898372402537
  0
ENDBLK
  5
86
330
84
100
AcDbEntity
  8
0
100
AcDbBlockEnd
  0
ENDSEC
  0
SECTION
  2
ENTITIES
  0
LWPOLYLINE
  5
8A
330
17
100
AcDbEntity
  8
0
100
AcDbPolyline
 90
355
 70
0
 10
0.0
 20
117.56507766793231
 10
0.0
 20
209.1564753859726
 10
0.0
 20
208.8147164392635
 10
0.34175894670910556
 20
208.4729574925544
 10
0.34175894670910556
 20
205.05536802546334
 10
0.6835178934182111
 20
204.71360907875422
 10
0.6835178934182111
 20
201.63777855837228
 10
1.0252768401273167
 20
201.29601961166318
 10
1.0252768401273167
 20
198.56194803799033
 10
1.3670357868364222
 20
198.2201890912812
 10
1.3670357868364222
 20
195.82787646431748
 10
1.7087947335455278
 20
195.4861175176084
 10
1.7087947335455278
 20
193.09380489064463
 10
2.0505536802546334
 20
192.75204594393554
 10
2.0505536802546334
 20
190.0179743702627
 10
2.392312626963739
 20
189.67621542355357
 10
2.392312626963739
 20
187.62566174329896
 10
2.7340715736728445
 20
187.28390279658984
 10
2.7340715736728445
 20
185.2333491163352
 10
3.07583052038195
 20
184.8915901696261
 10
3.07583052038195
 20
183.86631332949878
 10
3.7593484138001614
 20
183.18279543608057
 10
4.101107360509267
 20
183.18279543608057
 10
4.442866307218372
 20
182.84103648937148
 10
4.784625253927478
 20
183.18279543608057
 10
5.809902094054794
 20
183.18279543608057
 10
6.1516610407639
 20
183.5245543827897
 10
7.518696827600323
 20
183.5245543827897
 10
7.860455774309428
 20
183.86631332949878
 10
9.22749156114585
 20
183.86631332949878
 10
9.569250507854957
 20
184.2080722762079
 10
10.936286294691378
 20
184.2080722762079
 10
11.278045241400484
 20
184.549831222917
 10
12.3033220815278
 20
184.549831222917
 10
12.645081028236905
 20
184.8915901696261
 10
14.012116815073329
 20
184.8915901696261
 10
14.353875761782433
 20
185.2333491163352
 10
14.69563470849154
 20
185.2333491163352
 10
15.037393655200646
 20
185.57510806304433
 10
15.037393655200646
 20
187.28390279658984
 10
14.69563470849154
 20
187.62566174329896
 10
14.69563470849154
 20
188.9926975301354
 10
15.037393655200646
 20
188.9926975301354
 10
15.37915260190975
 20
188.65093858342627
 10
15.720911548618856
 20
188.65093858342627
 10
16.404429442037067
 20
187.96742069000805
 10
16.746188388746173
 20
187.96742069000805
 10
16.746188388746173
 20
187.62566174329896
 10
17.08794733545528
 20
187.28390279658984
 10
17.08794733545528
 20
186.94214384988075
 10
17.429706282164382
 20
186.60038490317163
 10
17.429706282164382
 20
186.25862595646254
 10
17.77146522887349
 20
185.91686700975342
 10
18.113224175582594
 20
185.91686700975342
 10
18.4549831222917
 20
185.57510806304433
 10
18.796742069000807
 20
185.91686700975342
 10
19.138501015709913
 20
185.91686700975342
 10
19.480259962419016
 20
186.25862595646254
 10
19.480259962419016
 20
187.28390279658984
 10
19.822018909128122
 20
187.62566174329896
 10
19.822018909128122
 20
186.25862595646254
 10
20.16377785583723
 20
185.91686700975342
 10
20.505536802546334
 20
185.91686700975342
 10
20.84729574925544
 20
185.57510806304433
 10
32.12534099065592
 20
185.57510806304433
 10
32.46709993736503
 20
185.2333491163352
 10
62.54188724776632
 20
185.2333491163352
 10
62.883646194475425
 20
184.8915901696261
 10
69.71882512865753
 20
184.8915901696261
 10
70.06058407536663
 20
184.549831222917
 10
75.87048616942144
 20
184.549831222917
 10
76.21224511613055
 20
184.2080722762079
 10
79.6298345832216
 20
184.2080722762079
 10
79.9715935299307
 20
183.86631332949878
 10
81.68038826347623
 20
183.86631332949878
 10
82.02214721018534
 20
183.5245543827897
 10
83.73094194373087
 20
183.5245543827897
 10
84.07270089043996
 20
183.18279543608057
 10
85.78149562398549
 20
183.18279543608057
 10
86.1232545706946
 20
182.84103648937148
 10
87.83204930424013
 20
182.84103648937148
 10
88.17380825094924
 20
182.49927754266236
 10
88.85732614436745
 20
182.49927754266236
 10
89.19908509107655
 20
182.84103648937148
 10
89.54084403778566
 20
182.84103648937148
 10
90.22436193120387
 20
183.5245543827897
 10
90.22436193120387
 20
189.33445647684448
 10
90.56612087791298
 20
189.67621542355357
 10
90.56612087791298
 20
191.38501015709912
 10
90.22436193120387
 20
191.7267691038082
 10
90.22436193120387
 20
203.6883322386269
 10
89.88260298449477
 20
204.03009118533603
 10
89.88260298449477
 20
206.42240381229976
 10
89.54084403778566
 20
206.76416275900885
 10
89.54084403778566
 20
208.8147164392635
 10
89.19908509107655
 20
209.1564753859726
 10
89.19908509107655
 20
210.52351117280904
 10
88.85732614436745
 20
210.86527011951813
 10
88.85732614436745
 20
212.23230590635455
 10
88.51556719765834
 20
212.57406485306365
 10
88.51556719765834
 20
213.59934169319098
 10
88.17380825094924
 20
213.94110063990007
 10
88.17380825094924
 20
215.3081364267365
 10
87.83204930424013
 20
215.64989537344562
 10
87.83204930424013
 20
217.35869010699113
 10
87.49029035753102
 20
217.70044905370025
 10
87.49029035753102
 20
219.40924378724577
 10
87.14853141082192
 20
219.75100273395486
 10
87.14853141082192
 20
221.1180385207913
 10
86.80677246411281
 20
221.4597974675004
 10
86.80677246411281
 20
223.51035114775505
 10
86.4650135174037
 20
223.85211009446414
 10
86.4650135174037
 20
225.56090482800968
 10
86.1232545706946
 20
225.90266377471877
 10
86.1232545706946
 20
227.6114585082643
 10
85.78149562398549
 20
227.9532174549734
 10
85.78149562398549
 20
229.32025324180984
 10
84.75621878385817
 20
230.34553008193714
 10
84.41445983714907
 20
230.34553008193714
 10
84.07270089043996
 20
230.68728902864626
 10
83.04742405031266
 20
230.68728902864626
 10
82.70566510360355
 20
231.02904797535535
 10
81.33862931676713
 20
231.02904797535535
 10
80.99687037005802
 20
231.37080692206447
 10
79.6298345832216
 20
231.37080692206447
 10
79.28807563651249
 20
231.71256586877357
 10
77.92103984967606
 20
231.71256586877357
 10
77.57928090296696
 20
232.0543248154827
 10
76.21224511613055
 20
232.0543248154827
 10
75.87048616942144
 20
232.39608376219178
 10
74.50345038258502
 20
232.39608376219178
 10
74.16169143587591
 20
232.7378427089009
 10
72.45289670233038
 20
232.7378427089009
 10
72.11113775562127
 20
233.07960165561
 10
70.74410196878485
 20
233.07960165561
 10
70.40234302207574
 20
233.42136060231908
 10
68.69354828853022
 20
233.42136060231908
 10
68.35178934182112
 20
233.7631195490282
 10
65.61771776814827
 20
233.7631195490282
 10
65.27595882143916
 20
234.1048784957373
 10
61.174851460929894
 20
234.1048784957373
 10
60.83309251422079
 20
234.44663744244642
 10
56.048467260293314
 20
234.44663744244642
 10
55.70670831358421
 20
234.7883963891555
 10
49.89680621952941
 20
234.7883963891555
 10
49.5550472728203
 20
235.13015533586463
 10
44.428663072183724
 20
235.13015533586463
 10
44.08690412547462
 20
235.47191428257372
 10
39.98579676496535
 20
235.47191428257372
 10
39.644037818256244
 20
235.81367322928284
 10
33.83413572420145
 20
235.81367322928284
 10
33.492376777492346
 20
236.15543217599193
 10
31.100064150528606
 20
236.15543217599193
 10
30.7583052038195
 20
236.49719112270105
 10
24.948403109764705
 20
236.49719112270105
 10
24.6066441630556
 20
236.83895006941015
 10
7.518696827600323
 20
236.83895006941015
 10
7.1769378808912165
 20
236.49719112270105
 10
1.0252768401273167
 20
236.49719112270105
 10
0.6835178934182111
 20
236.15543217599193
 10
0.0
 20
236.15543217599193
 10
0.0
 20
512.2966611169493
 10
0.34175894670910556
 20
512.2966611169493
 10
1.0252768401273167
 20
511.61314322353104
 10
1.3670357868364222
 20
511.61314322353104
 10
2.0505536802546334
 20
510.9296253301128
 10
2.392312626963739
 20
510.9296253301128
 10
3.07583052038195
 20
510.2461074366946
 10
3.4175894670910556
 20
510.2461074366946
 10
4.442866307218372
 20
509.2208305965673
 10
4.784625253927478
 20
509.2208305965673
 10
6.1516610407639
 20
507.85379480973086
 10
6.493419987473006
 20
507.85379480973086
 10
7.1769378808912165
 20
507.1702769163127
 10
7.518696827600323
 20
507.1702769163127
 10
7.860455774309428
 20
506.8285179696035
 10
8.202214721018533
 20
506.8285179696035
 10
8.885732614436744
 20
506.14500007618534
 10
9.22749156114585
 20
506.14500007618534
 10
10.252768401273167
 20
505.119723236058
 10
10.594527347982272
 20
505.119723236058
 10
11.278045241400484
 20
504.4362053426398
 10
11.619804188109589
 20
504.4362053426398
 10
12.3033220815278
 20
503.7526874492216
 10
12.645081028236905
 20
503.7526874492216
 10
13.670357868364222
 20
502.7274106090943
 10
14.012116815073329
 20
502.7274106090943
 10
14.69563470849154
 20
502.04389271567607
 10
15.037393655200646
 20
502.04389271567607
 10
15.720911548618856
 20
501.3603748222579
 10
16.06267049532796
 20
501.3603748222579
 10
16.746188388746173
 20
500.67685692883964
 10
17.08794733545528
 20
500.67685692883964
 10
17.429706282164382
 20
500.33509798213055
 10
17.77146522887349
 20
500.33509798213055
 10
18.4549831222917
 20
499.6515800887123
 10
18.796742069000807
 20
499.6515800887123
 10
19.480259962419016
 20
498.9680621952941
 10
19.822018909128122
 20
498.9680621952941
 10
20.84729574925544
 20
497.9427853551668
 10
21.189054695964543
 20
497.9427853551668
 10
22.55609048280097
 20
496.57574956833037
 10
22.89784942951007
 20
496.57574956833037
 10
24.264885216346496
 20
495.20871378149394
 10
24.6066441630556
 20
495.20871378149394
 10
25.973679949892023
 20
493.8416779946575
 10
26.31543889660113
 20
493.8416779946575
 10
27.340715736728445
 20
492.81640115453024
 10
27.68247468343755
 20
492.81640115453024
 10
29.049510470273972
 20
491.4493653676938
 10
29.39126941698308
 20
491.4493653676938
 10
30.416546257110394
 20
490.4240885275665
 10
30.7583052038195
 20
490.4240885275665
 10
32.46709993736503
 20
488.71529379402097
 10
32.808858884074134
 20
488.71529379402097
 10
34.517653617619665
 20
487.00649906047545
 10
34.859412564328764
 20
487.00649906047545
 10
36.22644835116519
 20
485.639463273639
 10
36.568207297874295
 20
485.639463273639
 10
38.618760978128925
 20
483.58890959338436
 10
38.96051992483803
 20
483.58890959338436
 10
41.352832551801775
 20
481.19659696642066
 10
41.69459149851088
 20
481.19659696642066
 10
43.403386232056405
 20
479.4878022328751
 10
43.74514517876551
 20
479.4878022328751
 10
45.45393991231104
 20
477.77900749932957
 10
45.79569885902014
 20
477.77900749932957
 10
48.188011485983886
 20
475.3866948723658
 10
48.52977043269299
 20
475.3866948723658
 10
49.89680621952941
 20
474.0196590855294
 10
50.238565166238516
 20
474.0196590855294
 10
51.94735989978405
 20
472.31086435198387
 10
52.28911884649315
 20
472.31086435198387
 10
54.33967252674778
 20
470.26031067172926
 10
54.68143147345689
 20
470.26031067172926
 10
56.39022620700242
 20
468.55151593818374
 10
56.73198515371152
 20
468.55151593818374
 10
58.44077988725705
 20
466.84272120463817
 10
58.78253883396616
 20
466.84272120463817
 10
61.174851460929894
 20
464.45040857767447
 10
61.516610407639
 20
464.45040857767447
 10
63.56716408789364
 20
462.3998548974198
 10
63.908923034602736
 20
462.3998548974198
 10
65.61771776814827
 20
460.6910601638743
 10
65.95947671485737
 20
460.6910601638743
 10
68.69354828853022
 20
457.95698859020143
 10
69.03530723523933
 20
457.95698859020143
 10
73.13641459574859
 20
453.85588122969216
 10
73.4781735424577
 20
453.85588122969216
 10
75.52872722271233
 20
451.80532754943755
 10
75.87048616942144
 20
451.80532754943755
 10
77.23752195625785
 20
450.4382917626011
 10
77.57928090296696
 20
450.4382917626011
 10
79.28807563651249
 20
448.7294970290556
 10
79.6298345832216
 20
448.7294970290556
 10
79.9715935299307
 20
448.3877380823465
 10
80.3133524766398
 20
448.3877380823465
 10
81.33862931676713
 20
447.3624612422192
 10
81.68038826347623
 20
447.3624612422192
 10
82.02214721018534
 20
447.0207022955101
 10
82.36390615689444
 20
447.0207022955101
 10
83.73094194373087
 20
445.65366650867367
 10
84.07270089043996
 20
445.65366650867367
 10
84.75621878385817
 20
444.9701486152554
 10
85.09797773056728
 20
444.9701486152554
 10
88.17380825094924
 20
441.8943180948735
 10
88.51556719765834
 20
441.8943180948735
 10
89.88260298449477
 20
440.52728230803706
 10
90.22436193120387
 20
440.52728230803706
 10
95.00898718513135
 20
435.7426570541096
 10
95.35074613184045
 20
435.7426570541096
 10
96.03426402525866
 20
435.05913916069136
 10
96.37602297196777
 20
435.05913916069136
 10
96.71778191867688
 20
434.71738021398227
 10
97.05954086538598
 20
434.71738021398227
 10
97.40129981209509
 20
434.3756212672732
 10
98.0848177055133
 20
434.3756212672732
 10
98.4265766522224
 20
434.0338623205641
 10
100.81888927918614
 20
434.0338623205641
 10
101.16064822589524
 20
433.69210337385493
 10
102.18592506602256
 20
433.69210337385493
 10
102.52768401273167
 20
433.35034442714584
 10
102.86944295944078
 20
433.35034442714584
 10
103.21120190614988
 20
433.00858548043675
 10
103.55296085285899
 20
433.00858548043675
 10
104.5782376929863
 20
431.9833086403094
 10
104.91999663969541
 20
431.9833086403094
 10
105.26175558640452
 20
431.6415496936003
 10
105.94527347982272
 20
431.6415496936003
 10
106.28703242653182
 20
431.29979074689123
 10
108.33758610678646
 20
431.29979074689123
 10
108.67934505349557
 20
430.9580318001821
 10
111.07165768045931
 20
430.9580318001821
 10
111.41341662716842
 20
430.616272853473
 10
113.80572925413215
 20
430.616272853473
 10
114.14748820084125
 20
430.2745139067639
 10
116.539800827805
 20
430.2745139067639
 10
116.8815597745141
 20
429.9327549600548
 10
119.61563134818695
 20
429.9327549600548
 10
119.95739029489606
 20
429.5909960133457
 10
122.34970292185979
 20
429.5909960133457
 10
122.6914618685689
 20
429.24923706663657
 10
125.08377449553264
 20
429.24923706663657
 10
125.42553344224174
 20
428.9074781199275
 10
127.47608712249638
 20
428.9074781199275
 10
127.81784606920547
 20
428.5657191732184
 10
129.52664080275102
 20
428.5657191732184
 10
129.8683997494601
 20
428.2239602265093
 10
131.57719448300563
 20
428.2239602265093
 10
131.91895342971475
 20
427.88220127980014
 10
133.28598921655117
 20
427.88220127980014
 10
133.62774816326026
 20
427.54044233309105
 10
134.6530250033876
 20
427.54044233309105
 10
134.9947839500967
 20
427.19868338638196
 10
136.3618197369331
 20
427.19868338638196
 10
136.70357868364223
 20
426.85692443967287
 10
137.72885552376954
 20
426.85692443967287
 10
138.07061447047866
 20
426.5151654929637
 10
138.75413236389684
 20
426.5151654929637
 10
139.09589131060596
 20
426.1734065462546
 10
140.12116815073327
 20
426.1734065462546
 10
140.4629270974424
 20
425.83164759954553
 10
141.8299628842788
 20
425.83164759954553
 10
142.1717218309879
 20
425.48988865283644
 10
143.19699867111524
 20
425.48988865283644
 10
143.53875761782433
 20
425.1481297061273
 10
144.22227551124254
 20
425.1481297061273
 10
144.56403445795166
 20
424.8063707594182
 10
145.24755235136988
 20
424.8063707594182
 10
145.58931129807897
 20
424.4646118127091
 10
146.27282919149718
 20
424.4646118127091
 10
146.61458813820627
 20
424.122852866
 10
150.37393655200646
 20
424.122852866
 10
150.71569549871555
 20
423.78109391929087
 10
151.05745444542467
 20
423.78109391929087
 10
151.39921339213376
 20
423.4393349725818
 10
151.74097233884288
 20
423.4393349725818
 10
152.08273128555197
 20
423.0975760258727
 10
152.76624917897018
 20
423.0975760258727
 10
153.1080081256793
 20
422.7558170791636
 10
154.1332849658066
 20
422.7558170791636
 10
154.4750439125157
 20
422.4140581324545
 10
155.50032075264303
 20
422.4140581324545
 10
155.84207969935213
 20
422.07229918574535
 10
156.52559759277034
 20
422.07229918574535
 10
156.86735653947946
 20
421.73054023903626
 10
157.89263337960676
 20
421.73054023903626
 10
158.23439232631588
 20
421.38878129232717
 10
158.9179102197341
 20
421.38878129232717
 10
159.2596691664432
 20
421.0470223456181
 10
159.9431870598614
 20
421.0470223456181
 10
160.28494600657052
 20
420.7052633989089
 10
161.31022284669783
 20
420.7052633989089
 10
161.65198179340692
 20
420.36350445219983
 10
163.36077652695246
 20
420.36350445219983
  0
LWPOLYLINE
  5
8B
330
17
100
AcDbEntity
  8
0
100
AcDbPolyline
 90
933
 70
0
 10
163.36077652695246
 20
420.36350445219983
 10
163.70253547366156
 20
420.02174550549074
 10
164.7278123137889
 20
420.02174550549074
 10
165.06957126049798
 20
419.67998655878165
 10
166.0948481006253
 20
419.67998655878165
 10
166.4366070473344
 20
419.3382276120725
 10
167.12012494075262
 20
419.3382276120725
 10
167.46188388746174
 20
418.9964686653634
 10
168.14540178087992
 20
418.9964686653634
 10
168.48716072758904
 20
418.6547097186543
 10
169.17067862100726
 20
418.6547097186543
 10
169.51243756771635
 20
418.3129507719452
 10
169.85419651442547
 20
418.3129507719452
 10
170.19595546113456
 20
417.9711918252361
 10
170.87947335455277
 20
417.9711918252361
 10
171.2212323012619
 20
417.629432878527
 10
171.9047501946801
 20
417.629432878527
 10
172.2465091413892
 20
417.2876739318179
 10
172.58826808809832
 20
417.2876739318179
 10
172.9300270348074
 20
416.9459149851088
 10
173.61354492822562
 20
416.9459149851088
 10
173.95530387493474
 20
416.60415603839965
 10
174.29706282164383
 20
416.60415603839965
 10
174.63882176835295
 20
416.26239709169056
 10
175.32233966177114
 20
416.26239709169056
 10
175.66409860848026
 20
415.92063814498147
 10
176.00585755518935
 20
415.92063814498147
 10
176.34761650189847
 20
415.5788791982724
 10
176.68937544860756
 20
415.5788791982724
 10
177.03113439531668
 20
415.2371202515633
 10
177.7146522887349
 20
415.2371202515633
 10
178.056411235444
 20
414.89536130485413
 10
178.3981701821531
 20
414.89536130485413
 10
178.7399291288622
 20
414.55360235814504
 10
179.4234470222804
 20
414.55360235814504
 10
179.76520596898953
 20
414.21184341143595
 10
180.44872386240775
 20
414.21184341143595
 10
180.79048280911684
 20
413.87008446472686
 10
181.47400070253505
 20
413.87008446472686
 10
181.81575964924417
 20
413.5283255180177
 10
182.49927754266236
 20
413.5283255180177
 10
182.84103648937148
 20
413.1865665713086
 10
183.5245543827897
 20
413.1865665713086
 10
183.86631332949878
 20
412.8448076245995
 10
184.549831222917
 20
412.8448076245995
 10
184.8915901696261
 20
412.50304867789043
 10
185.57510806304433
 20
412.50304867789043
 10
185.91686700975342
 20
412.1612897311813
 10
186.94214384988075
 20
412.1612897311813
 10
187.28390279658984
 20
411.8195307844722
 10
187.96742069000805
 20
411.8195307844722
 10
188.30917963671718
 20
411.4777718377631
 10
188.9926975301354
 20
411.4777718377631
 10
189.33445647684448
 20
411.136012891054
 10
190.0179743702627
 20
411.136012891054
 10
190.35973331697178
 20
410.79425394434486
 10
191.04325121039
 20
410.79425394434486
 10
191.38501015709912
 20
410.45249499763577
 10
192.41028699722642
 20
410.45249499763577
 10
192.75204594393554
 20
410.1107360509267
 10
193.43556383735375
 20
410.1107360509267
 10
193.77732278406285
 20
409.7689771042176
 10
194.46084067748106
 20
409.7689771042176
 10
194.80259962419018
 20
409.42721815750843
 10
195.4861175176084
 20
409.42721815750843
 10
195.82787646431748
 20
409.08545921079934
 10
196.5113943577357
 20
409.08545921079934
 10
196.8531533044448
 20
408.74370026409025
 10
197.536671197863
 20
408.74370026409025
 10
197.87843014457212
 20
408.40194131738116
 10
198.56194803799033
 20
408.40194131738116
 10
198.90370698469943
 20
408.06018237067207
 10
199.92898382482676
 20
408.06018237067207
 10
200.27074277153585
 20
407.7184234239629
 10
200.95426066495406
 20
407.7184234239629
 10
201.29601961166318
 20
407.3766644772538
 10
201.9795375050814
 20
407.3766644772538
 10
202.3212964517905
 20
407.03490553054473
 10
203.0048143452087
 20
407.03490553054473
 10
203.34657329191782
 20
406.69314658383564
 10
204.37185013204513
 20
406.69314658383564
 10
204.71360907875422
 20
406.3513876371265
 10
205.39712697217243
 20
406.3513876371265
 10
205.73888591888155
 20
406.0096286904174
 10
206.42240381229976
 20
406.0096286904174
 10
206.76416275900885
 20
405.6678697437083
 10
207.44768065242707
 20
405.6678697437083
 10
207.7894395991362
 20
405.3261107969992
 10
208.4729574925544
 20
405.3261107969992
 10
208.8147164392635
 20
404.98435185029007
 10
209.4982343326817
 20
404.98435185029007
 10
209.83999327939082
 20
404.642592903581
 10
210.52351117280904
 20
404.642592903581
 10
210.86527011951813
 20
404.3008339568719
 10
211.54878801293634
 20
404.3008339568719
 10
211.89054695964543
 20
403.9590750101628
 10
212.57406485306365
 20
403.9590750101628
 10
212.91582379977277
 20
403.61731606345364
 10
213.59934169319098
 20
403.61731606345364
 10
213.94110063990007
 20
403.27555711674455
 10
214.62461853331828
 20
403.27555711674455
 10
214.9663774800274
 20
402.93379817003546
 10
215.64989537344562
 20
402.93379817003546
 10
215.9916543201547
 20
402.59203922332637
 10
216.67517221357292
 20
402.59203922332637
 10
217.01693116028204
 20
402.2502802766172
 10
217.70044905370025
 20
402.2502802766172
 10
218.04220800040935
 20
401.9085213299081
 10
218.72572589382756
 20
401.9085213299081
 10
219.06748484053665
 20
401.56676238319903
 10
219.75100273395486
 20
401.56676238319903
 10
220.09276168066398
 20
401.22500343648994
 10
220.7762795740822
 20
401.22500343648994
 10
221.1180385207913
 20
400.88324448978085
 10
222.14331536091862
 20
400.88324448978085
 10
222.4850743076277
 20
400.5414855430717
 10
223.16859220104593
 20
400.5414855430717
 10
223.51035114775505
 20
400.1997265963626
 10
224.19386904117326
 20
400.1997265963626
 10
224.53562798788235
 20
399.8579676496535
 10
225.21914588130056
 20
399.8579676496535
 10
225.56090482800968
 20
399.5162087029444
 10
226.24442272142787
 20
399.5162087029444
 10
226.586181668137
 20
399.1744497562353
 10
227.2696995615552
 20
399.1744497562353
 10
227.6114585082643
 20
398.8326908095262
 10
228.63673534839162
 20
398.8326908095262
 10
228.97849429510072
 20
398.4909318628171
 10
229.66201218851893
 20
398.4909318628171
 10
230.00377113522805
 20
398.149172916108
 10
230.68728902864626
 20
398.149172916108
 10
231.02904797535535
 20
397.80741396939885
 10
231.71256586877357
 20
397.80741396939885
 10
232.0543248154827
 20
397.46565502268976
 10
232.7378427089009
 20
397.46565502268976
 10
233.07960165561
 20
397.12389607598067
 10
233.7631195490282
 20
397.12389607598067
 10
234.1048784957373
 20
396.7821371292716
 10
234.7883963891555
 20
396.7821371292716
 10
235.13015533586463
 20
396.4403781825624
 10
236.15543217599193
 20
396.4403781825624
 10
236.49719112270105
 20
396.09861923585333
 10
237.18070901611927
 20
396.09861923585333
 10
237.52246796282836
 20
395.75686028914424
 10
238.5477448029557
 20
395.75686028914424
 10
238.88950374966478
 20
395.41510134243515
 10
239.91478058979212
 20
395.41510134243515
 10
240.2565395365012
 20
395.073342395726
 10
241.2818163766285
 20
395.073342395726
 10
241.62357532333763
 20
394.7315834490169
 10
242.30709321675585
 20
394.7315834490169
 10
242.64885216346494
 20
394.3898245023078
 10
243.33237005688315
 20
394.3898245023078
 10
243.67412900359227
 20
394.0480655555987
 10
244.69940584371957
 20
394.0480655555987
 10
245.0411647904287
 20
393.7063066088896
 10
245.7246826838469
 20
393.7063066088896
 10
246.066441630556
 20
393.3645476621805
 10
246.7499595239742
 20
393.3645476621805
 10
247.09171847068333
 20
393.0227887154714
 10
247.77523636410154
 20
393.0227887154714
 10
248.11699531081064
 20
392.6810297687623
 10
248.80051320422885
 20
392.6810297687623
 10
249.14227215093794
 20
392.3392708220532
 10
249.82579004435615
 20
392.3392708220532
 10
250.16754899106527
 20
391.99751187534406
 10
250.8510668844835
 20
391.99751187534406
 10
251.19282583119258
 20
391.65575292863497
 10
251.8763437246108
 20
391.65575292863497
 10
252.2181026713199
 20
391.3139939819259
 10
253.24337951144722
 20
391.3139939819259
 10
253.58513845815634
 20
390.9722350352168
 10
254.26865635157455
 20
390.9722350352168
 10
254.61041529828364
 20
390.63047608850763
 10
255.63569213841095
 20
390.63047608850763
 10
255.97745108512007
 20
390.28871714179854
 10
257.00272792524737
 20
390.28871714179854
 10
257.34448687195646
 20
389.94695819508945
 10
258.0280047653747
 20
389.94695819508945
 10
258.3697637120838
 20
389.60519924838036
 10
259.05328160550204
 20
389.60519924838036
 10
259.3950405522111
 20
389.2634403016712
 10
260.42031739233846
 20
389.2634403016712
 10
260.76207633904755
 20
388.9216813549621
 10
261.44559423246574
 20
388.9216813549621
 10
261.7873531791749
 20
388.579922408253
 10
262.47087107259307
 20
388.579922408253
 10
262.81263001930216
 20
388.23816346154393
 10
263.4961479127204
 20
388.23816346154393
 10
263.8379068594295
 20
387.8964045148348
 10
264.8631836995568
 20
387.8964045148348
 10
265.2049426462659
 20
387.5546455681257
 10
265.8884605396841
 20
387.5546455681257
 10
266.23021948639325
 20
387.2128866214166
 10
266.91373737981144
 20
387.2128866214166
 10
267.25549632652053
 20
386.8711276747075
 10
267.93901421993877
 20
386.8711276747075
 10
268.28077316664786
 20
386.52936872799836
 10
268.9642910600661
 20
386.52936872799836
 10
269.3060500067752
 20
386.18760978128927
 10
269.9895679001934
 20
386.18760978128927
 10
270.33132684690247
 20
385.8458508345802
 10
271.3566036870298
 20
385.8458508345802
 10
271.6983626337389
 20
385.5040918878711
 10
272.38188052715714
 20
385.5040918878711
 10
272.7236394738662
 20
385.162332941162
 10
273.40715736728447
 20
385.162332941162
 10
273.74891631399356
 20
384.82057399445284
 10
274.43243420741175
 20
384.82057399445284
 10
274.7741931541209
 20
384.47881504774375
 10
275.79946999424817
 20
384.47881504774375
 10
276.1412289409573
 20
384.13705610103466
 10
276.8247468343755
 20
384.13705610103466
 10
277.1665057810846
 20
383.79529715432557
 10
278.1917826212119
 20
383.79529715432557
 10
278.533541567921
 20
383.4535382076164
 10
279.55881840804835
 20
383.4535382076164
 10
279.90057735475744
 20
383.1117792609073
 10
280.5840952481757
 20
383.1117792609073
 10
280.9258541948848
 20
382.77002031419823
 10
281.9511310350121
 20
382.77002031419823
 10
282.2928899817212
 20
382.42826136748914
 10
283.31816682184854
 20
382.42826136748914
 10
283.6599257685576
 20
382.08650242078
 10
284.3434436619758
 20
382.08650242078
 10
284.6852026086849
 20
381.7447434740709
 10
285.36872050210314
 20
381.7447434740709
 10
285.71047944881224
 20
381.4029845273618
 10
286.3939973422305
 20
381.4029845273618
 10
286.73575628893957
 20
381.0612255806527
 10
287.7610331290669
 20
381.0612255806527
 10
288.102792075776
 20
380.71946663394357
 10
288.4445510224851
 20
380.71946663394357
 10
288.7863099691942
 20
380.3777076872345
 10
289.8115868093215
 20
380.3777076872345
 10
290.1533457560306
 20
380.0359487405254
 10
290.83686364944884
 20
380.0359487405254
 10
291.17862259615794
 20
379.6941897938163
 10
291.8621404895761
 20
379.6941897938163
 10
292.20389943628527
 20
379.35243084710714
 10
293.22917627641255
 20
379.35243084710714
 10
293.5709352231217
 20
379.01067190039805
 10
294.2544531165399
 20
379.01067190039805
 10
294.59621206324897
 20
378.66891295368896
 10
295.6214889033763
 20
378.66891295368896
 10
295.9632478500854
 20
378.32715400697987
 10
296.9885246902127
 20
378.32715400697987
 10
297.3302836369218
 20
377.9853950602708
 10
298.35556047704915
 20
377.9853950602708
 10
298.69731942375824
 20
377.6436361135616
 10
299.3808373171765
 20
377.6436361135616
 10
299.7225962638856
 20
377.30187716685253
 10
301.089632050722
 20
377.30187716685253
 10
301.4313909974311
 20
376.96011822014344
 10
302.4566678375584
 20
376.96011822014344
 10
302.7984267842675
 20
376.61835927343435
 10
303.82370362439485
 20
376.61835927343435
 10
304.16546257110394
 20
376.2766003267252
 10
305.53249835794037
 20
376.2766003267252
 10
305.87425730464946
 20
375.9348413800161
 10
307.2412930914859
 20
375.9348413800161
 10
307.583052038195
 20
375.593082433307
 10
308.6083288783223
 20
375.593082433307
 10
308.9500878250314
 20
375.2513234865979
 10
309.97536466515874
 20
375.2513234865979
 10
310.3171236118678
 20
374.9095645398888
 10
311.34240045199516
 20
374.9095645398888
 10
311.68415939870425
 20
374.5678055931797
 10
312.7094362388316
 20
374.5678055931797
 10
313.0511951855407
 20
374.2260466464706
 10
313.7347130789589
 20
374.2260466464706
 10
314.076472025668
 20
373.8842876997615
 10
315.10174886579534
 20
373.8842876997615
 10
315.44350781250444
 20
373.54252875305235
 10
316.46878465263177
 20
373.54252875305235
 10
316.81054359934086
 20
373.20076980634326
 10
317.8358204394682
 20
373.20076980634326
 10
318.1775793861773
 20
372.85901085963417
 10
319.2028562263046
 20
372.85901085963417
 10
319.5446151730137
 20
372.5172519129251
 10
320.91165095985014
 20
372.5172519129251
 10
321.2534099065592
 20
372.1754929662159
 10
322.27868674668656
 20
372.1754929662159
 10
322.62044569339565
 20
371.83373401950684
 10
323.645722533523
 20
371.83373401950684
 10
323.9874814802321
 20
371.49197507279774
 10
325.6962762137776
 20
371.49197507279774
 10
326.0380351604867
 20
371.15021612608865
 10
327.063312000614
 20
371.15021612608865
 10
327.4050709473231
 20
370.80845717937956
 10
328.77210673415954
 20
370.80845717937956
 10
329.1138656808686
 20
370.4666982326704
 10
330.13914252099596
 20
370.4666982326704
 10
330.48090146770505
 20
370.1249392859613
 10
331.8479372545415
 20
370.1249392859613
 10
332.1896962012506
 20
369.7831803392522
 10
333.55673198808705
 20
369.7831803392522
 10
333.89849093479614
 20
369.44142139254313
 10
334.9237677749235
 20
369.44142139254313
 10
335.26552672163257
 20
369.099662445834
 10
336.632562508469
 20
369.099662445834
 10
336.9743214551781
 20
368.7579034991249
 10
338.3413572420145
 20
368.7579034991249
 10
338.6831161887236
 20
368.4161445524158
 10
339.70839302885094
 20
368.4161445524158
 10
340.05015197556
 20
368.0743856057067
 10
341.07542881568736
 20
368.0743856057067
 10
341.41718776239645
 20
367.73262665899756
 10
342.7842235492329
 20
367.73262665899756
 10
343.12598249594197
 20
367.39086771228847
 10
344.1512593360693
 20
367.39086771228847
 10
344.4930182827784
 20
367.0491087655794
 10
345.8600540696148
 20
367.0491087655794
 10
346.2018130163239
 20
366.7073498188703
 10
347.22708985645124
 20
366.7073498188703
 10
347.56884880316034
 20
366.36559087216114
 10
348.59412564328767
 20
366.36559087216114
 10
348.93588458999676
 20
366.02383192545204
 10
349.9611614301241
 20
366.02383192545204
 10
350.3029203768332
 20
365.68207297874295
 10
351.3281972169605
 20
365.68207297874295
 10
351.6699561636696
 20
365.34031403203386
 10
352.69523300379694
 20
365.34031403203386
 10
353.03699195050604
 20
364.9985550853247
 10
354.06226879063337
 20
364.9985550853247
 10
354.40402773734246
 20
364.6567961386156
 10
355.0875456307607
 20
364.6567961386156
 10
355.4293045774698
 20
364.3150371919065
 10
356.4545814175971
 20
364.3150371919065
 10
356.7963403643062
 20
363.97327824519743
 10
357.8216172044335
 20
363.97327824519743
 10
358.16337615114264
 20
363.63151929848834
 10
359.1886529912699
 20
363.63151929848834
 10
359.53041193797907
 20
363.2897603517792
 10
360.55568877810634
 20
363.2897603517792
 10
360.8974477248155
 20
362.9480014050701
 10
361.5809656182337
 20
362.9480014050701
 10
361.92272456494277
 20
362.606242458361
 10
362.9480014050701
 20
362.606242458361
 10
363.2897603517792
 20
362.2644835116519
 10
364.3150371919065
 20
362.2644835116519
 10
364.6567961386156
 20
361.92272456494277
 10
365.68207297874295
 20
361.92272456494277
 10
366.02383192545204
 20
361.5809656182337
 10
367.0491087655794
 20
361.5809656182337
 10
367.39086771228847
 20
361.2392066715246
 10
368.4161445524158
 20
361.2392066715246
 10
368.7579034991249
 20
360.8974477248155
 10
369.7831803392522
 20
360.8974477248155
 10
370.1249392859613
 20
360.55568877810634
 10
371.49197507279774
 20
360.55568877810634
 10
371.83373401950684
 20
360.21392983139725
 10
373.20076980634326
 20
360.21392983139725
 10
373.54252875305235
 20
359.87217088468816
 10
374.9095645398888
 20
359.87217088468816
 10
375.2513234865979
 20
359.53041193797907
 10
376.2766003267252
 20
359.53041193797907
 10
376.61835927343435
 20
359.1886529912699
 10
377.9853950602708
 20
359.1886529912699
 10
378.32715400697987
 20
358.8468940445608
 10
379.6941897938163
 20
358.8468940445608
 10
380.0359487405254
 20
358.50513509785173
 10
381.4029845273618
 20
358.50513509785173
 10
381.7447434740709
 20
358.16337615114264
 10
383.1117792609073
 20
358.16337615114264
 10
383.4535382076164
 20
357.8216172044335
 10
384.47881504774375
 20
357.8216172044335
 10
384.82057399445284
 20
357.4798582577244
 10
385.8458508345802
 20
357.4798582577244
 10
386.18760978128927
 20
357.1380993110153
 10
387.8964045148348
 20
357.1380993110153
 10
388.23816346154393
 20
356.7963403643062
 10
389.2634403016712
 20
356.7963403643062
 10
389.60519924838036
 20
356.4545814175971
 10
390.9722350352168
 20
356.4545814175971
 10
391.3139939819259
 20
356.112822470888
 10
392.6810297687623
 20
356.112822470888
 10
393.0227887154714
 20
355.7710635241789
 10
394.0480655555987
 20
355.7710635241789
 10
394.3898245023078
 20
355.4293045774698
 10
395.75686028914424
 20
355.4293045774698
 10
396.09861923585333
 20
355.0875456307607
 10
397.12389607598067
 20
355.0875456307607
 10
397.46565502268976
 20
354.74578668405155
 10
398.8326908095262
 20
354.74578668405155
 10
399.1744497562353
 20
354.40402773734246
 10
400.1997265963626
 20
354.40402773734246
 10
400.5414855430717
 20
354.06226879063337
 10
401.9085213299081
 20
354.06226879063337
 10
402.2502802766172
 20
353.7205098439243
 10
403.61731606345364
 20
353.7205098439243
 10
403.9590750101628
 20
353.3787508972151
 10
405.3261107969992
 20
353.3787508972151
 10
405.6678697437083
 20
353.03699195050604
 10
406.69314658383564
 20
353.03699195050604
 10
407.03490553054473
 20
352.69523300379694
 10
408.40194131738116
 20
352.69523300379694
 10
408.74370026409025
 20
352.35347405708785
 10
410.1107360509267
 20
352.35347405708785
 10
410.45249499763577
 20
352.0117151103787
 10
412.1612897311813
 20
352.0117151103787
 10
412.50304867789043
 20
351.6699561636696
 10
413.5283255180177
 20
351.6699561636696
 10
413.87008446472686
 20
351.3281972169605
 10
415.2371202515633
 20
351.3281972169605
 10
415.5788791982724
 20
350.9864382702514
 10
417.2876739318179
 20
350.9864382702514
 10
417.629432878527
 20
350.6446793235423
 10
419.3382276120725
 20
350.6446793235423
 10
419.67998655878165
 20
350.3029203768332
 10
421.73054023903626
 20
350.3029203768332
 10
422.07229918574535
 20
349.9611614301241
 10
423.4393349725818
 20
349.9611614301241
 10
423.78109391929087
 20
349.619402483415
 10
425.83164759954553
 20
349.619402483415
 10
426.1734065462546
 20
349.2776435367059
 10
427.88220127980014
 20
349.2776435367059
 10
428.2239602265093
 20
348.93588458999676
 10
429.5909960133457
 20
348.93588458999676
 10
429.9327549600548
 20
348.59412564328767
 10
431.29979074689123
 20
348.59412564328767
 10
431.6415496936003
 20
348.2523666965786
 10
433.00858548043675
 20
348.2523666965786
 10
433.35034442714584
 20
347.9106077498695
 10
434.71738021398227
 20
347.9106077498695
 10
435.05913916069136
 20
347.56884880316034
 10
436.4261749475278
 20
347.56884880316034
 10
436.76793389423693
 20
347.22708985645124
 10
437.7932107343642
 20
347.22708985645124
 10
438.1349696810733
 20
346.88533090974215
 10
439.8437644146189
 20
346.88533090974215
 10
440.18552336132797
 20
346.54357196303306
 10
441.5525591481644
 20
346.54357196303306
 10
441.8943180948735
 20
346.2018130163239
 10
443.603112828419
 20
346.2018130163239
 10
443.94487177512815
 20
345.8600540696148
 10
445.65366650867367
 20
345.8600540696148
 10
445.99542545538276
 20
345.5182951229057
 10
447.7042201889283
 20
345.5182951229057
 10
448.04597913563737
 20
345.17653617619663
 10
450.4382917626011
 20
345.17653617619663
 10
450.7800507093102
 20
344.8347772294875
 10
452.8306043895649
 20
344.8347772294875
 10
453.172363336274
 20
344.4930182827784
 10
454.5393991231104
 20
344.4930182827784
 10
454.8811580698195
 20
344.1512593360693
 10
456.589952803365
 20
344.1512593360693
 10
456.93171175007416
 20
343.8095003893602
 10
458.6405064836197
 20
343.8095003893602
 10
458.98226543032877
 20
343.46774144265106
 10
460.3493012171652
 20
343.46774144265106
 10
460.6910601638743
 20
343.12598249594197
 10
463.42513173754713
 20
343.12598249594197
 10
463.7668906842562
 20
342.7842235492329
 10
466.15920331122
 20
342.7842235492329
 10
466.5009622579291
 20
342.4424646025238
 10
468.55151593818374
 20
342.4424646025238
 10
468.89327488489283
 20
342.1007056558147
 10
470.94382856514744
 20
342.1007056558147
 10
471.2855875118566
 20
341.75894670910554
 10
473.3361411921112
 20
341.75894670910554
 10
473.6779001388203
 20
341.41718776239645
 10
476.07021276578405
 20
341.41718776239645
 10
476.41197171249314
 20
341.07542881568736
 10
478.12076644603866
 20
341.07542881568736
 10
478.4625253927478
 20
340.73366986897827
 10
480.5130790730024
 20
340.73366986897827
 10
480.8548380197115
 20
340.3919109222691
 10
483.58890959338436
 20
340.3919109222691
 10
483.93066854009345
 20
340.05015197556
 10
485.639463273639
 20
340.05015197556
 10
485.9812222203481
 20
339.70839302885094
 10
488.3735348473119
 20
339.70839302885094
 10
488.71529379402097
 20
339.36663408214184
 10
491.4493653676938
 20
339.36663408214184
 10
491.7911243144029
 20
339.0248751354327
 10
494.18343694136666
 20
339.0248751354327
 10
494.52519588807576
 20
338.6831161887236
 10
497.9427853551668
 20
338.6831161887236
 10
498.2845443018759
 20
338.3413572420145
 10
500.67685692883964
 20
338.3413572420145
 10
501.01861587554873
 20
337.9995982953054
 10
504.0944463959307
 20
337.9995982953054
 10
504.4362053426398
 20
337.65783934859627
 10
507.51203586302177
 20
337.65783934859627
 10
507.85379480973086
 20
337.3160804018872
 10
510.9296253301128
 20
337.3160804018872
 10
511.2713842768219
 20
336.9743214551781
 10
514.0054558504947
 20
336.9743214551781
 10
514.3472147972038
 20
336.632562508469
 10
517.0812863708767
 20
336.632562508469
 10
517.4230453175858
 20
336.29080356175984
 10
520.1571168912586
 20
336.29080356175984
 10
520.4988758379677
 20
335.94904461505075
 10
523.5747063583498
 20
335.94904461505075
 10
523.9164653050589
 20
335.60728566834166
 10
526.3087779320225
 20
335.60728566834166
 10
526.6505368787317
 20
335.26552672163257
 10
530.0681263458227
 20
335.26552672163257
 10
530.4098852925318
 20
334.9237677749235
 10
533.1439568662047
 20
334.9237677749235
 10
533.4857158129138
 20
334.5820088282143
 10
536.2197873865866
 20
334.5820088282143
 10
536.5615463332957
 20
334.24024988150524
 10
539.6373768536777
 20
334.24024988150524
 10
539.9791358003868
 20
333.89849093479614
 10
542.7132073740596
 20
333.89849093479614
 10
543.0549663207687
 20
333.55673198808705
 10
545.7890378944415
 20
333.55673198808705
 10
546.1307968411506
 20
333.2149730413779
 10
549.5483863082418
 20
333.2149730413779
 10
549.8901452549509
 20
332.8732140946688
 10
552.9659757753328
 20
332.8732140946688
 10
553.3077347220419
 20
332.5314551479597
 10
556.725324189133
 20
332.5314551479597
 10
557.067083135842
 20
332.1896962012506
 10
560.4846726029331
 20
332.1896962012506
 10
560.8264315496423
 20
331.8479372545415
 10
564.5857799634424
 20
331.8479372545415
 10
564.9275389101515
 20
331.5061783078324
 10
568.3451283772425
 20
331.5061783078324
 10
568.6868873239516
 20
331.1644193611233
 10
572.1044767910427
 20
331.1644193611233
 10
572.4462357377519
 20
330.8226604144142
 10
576.8891020449702
 20
330.8226604144142
 10
577.2308609916793
 20
330.48090146770505
 10
580.9902094054795
 20
330.48090146770505
 10
581.3319683521886
 20
330.13914252099596
 10
585.4330757126978
 20
330.13914252099596
 10
585.7748346594069
 20
329.79738357428687
 10
590.5594599133344
 20
329.79738357428687
 10
590.9012188600435
 20
329.4556246275778
 10
595.685844113971
 20
329.4556246275778
 10
596.0276030606801
 20
329.1138656808686
 10
600.4704693678984
 20
329.1138656808686
 10
600.8122283146075
 20
328.77210673415954
 10
605.9386125152441
 20
328.77210673415954
 10
606.2803714619532
 20
328.43034778745044
 10
610.7232377691716
 20
328.43034778745044
 10
611.0649967158807
 20
328.08858884074135
 10
615.8496219698083
 20
328.08858884074135
 10
616.1913809165173
 20
327.74682989403226
 10
620.6342472237357
 20
327.74682989403226
 10
620.9760061704447
 20
327.4050709473231
 10
626.7859082644997
 20
327.4050709473231
 10
627.1276672112087
 20
327.063312000614
 10
631.9122924651361
 20
327.063312000614
 10
632.2540514118452
 20
326.7215530539049
 10
638.7474713993183
 20
326.7215530539049
 10
639.0892303460274
 20
326.37979410719583
 10
645.5826503335004
 20
326.37979410719583
 10
645.9244092802095
 20
326.0380351604867
 10
651.7343113742643
 20
326.0380351604867
 10
652.0760703209734
 20
325.6962762137776
 10
657.20245452161
 20
325.6962762137776
 10
657.5442134683191
 20
325.3545172670685
 10
664.7211513492103
 20
325.3545172670685
 10
665.0629102959194
 20
325.0127583203594
 10
669.847535549847
 20
325.0127583203594
 10
670.189294496556
 20
324.67099937365026
 10
677.0244734307381
 20
324.67099937365026
 10
677.3662323774472
 20
324.32924042694117
 10
681.1255807912473
 20
324.32924042694117
 10
681.4673397379565
 20
323.9874814802321
 10
687.2772418320113
 20
323.9874814802321
 10
687.6190007787204
 20
323.645722533523
 10
691.0365902458115
 20
323.645722533523
 10
691.3783491925205
 20
323.30396358681384
 10
696.8464923398662
 20
323.30396358681384
 10
697.1882512865753
 20
322.96220464010474
 10
703.3399123273392
 20
322.96220464010474
 10
703.6816712740483
 20
322.62044569339565
 10
707.7827786345576
 20
322.62044569339565
 10
708.1245375812667
 20
322.27868674668656
 10
714.6179575687397
 20
322.27868674668656
 10
714.9597165154488
 20
321.9369277999774
 10
721.1113775562127
 20
321.9369277999774
 10
721.4531365029219
 20
321.5951688532683
 10
728.288315437104
 20
321.5951688532683
 10
728.630074383813
 20
321.2534099065592
 10
734.7817354245769
 20
321.2534099065592
 10
735.123494371286
 20
320.91165095985014
 10
741.6169143587591
 20
320.91165095985014
 10
741.9586733054682
 20
320.56989201314104
 10
747.4268164528139
 20
320.56989201314104
 10
747.768575399523
 20
320.2281330664319
 10
751.5279238133231
 20
320.2281330664319
 10
751.8696827600322
 20
319.8863741197228
 10
756.9960669606688
 20
319.8863741197228
 10
757.3378259073779
 20
319.5446151730137
 10
762.4642101080145
 20
319.5446151730137
 10
762.8059690547236
 20
319.2028562263046
 10
768.2741122020693
 20
319.2028562263046
 10
768.6158711487784
 20
318.86109727959547
 10
774.0840142961241
 20
318.86109727959547
 10
774.4257732428332
 20
318.5193383328864
 10
779.2103984967607
 20
318.5193383328864
 10
779.5521574434698
 20
318.1775793861773
 10
787.7543721644884
 20
318.1775793861773
 10
788.0961311111975
 20
317.8358204394682
 10
795.6148279387977
 20
317.8358204394682
 10
795.9565868855068
 20
317.49406149275904
 10
802.4500068729799
 20
317.49406149275904
 10
802.791765819689
 20
317.15230254604995
 10
809.626944753871
 20
317.15230254604995
 10
809.9687037005801
 20
316.81054359934086
 10
814.4115700077986
 20
316.81054359934086
 10
814.7533289545077
 20
316.46878465263177
 10
820.9049899952715
 20
316.46878465263177
 10
821.2467489419806
 20
316.1270257059226
 10
825.689615249199
 20
316.1270257059226
 10
826.0313741959081
 20
315.7852667592135
 10
830.1324815564174
 20
315.7852667592135
 10
830.4742405031266
 20
315.44350781250444
 10
834.5753478636358
 20
315.44350781250444
 10
834.9171068103449
 20
315.10174886579534
 10
838.676455224145
 20
315.10174886579534
 10
839.0182141708541
 20
314.7599899190862
 10
842.4358036379452
 20
314.7599899190862
 10
842.7775625846543
 20
314.4182309723771
 10
845.8533931050363
 20
314.4182309723771
 10
846.1951520517454
 20
314.076472025668
 10
849.6127415188364
 20
314.076472025668
 10
849.9545004655455
 20
313.7347130789589
 10
853.0303309859274
 20
313.7347130789589
 10
853.3720899326365
 20
313.3929541322498
 10
856.7896793997277
 20
313.3929541322498
 10
857.1314383464368
 20
313.0511951855407
 10
860.5490278135278
 20
313.0511951855407
 10
860.8907867602369
 20
312.7094362388316
 10
863.6248583339097
 20
312.7094362388316
 10
863.9666172806188
 20
312.3676772921225
 10
866.3589299075826
 20
312.3676772921225
 10
866.7006888542917
 20
312.0259183454134
 10
868.4094835878373
 20
312.0259183454134
 10
868.7512425345463
 20
311.68415939870425
 10
871.1435551615101
 20
311.68415939870425
 10
871.4853141082192
 20
311.34240045199516
 10
873.877626735183
 20
311.34240045199516
 10
874.219385681892
 20
311.00064150528607
 10
876.2699393621466
 20
311.00064150528607
 10
876.6116983088558
 20
310.658882558577
 10
879.0040109358195
 20
310.658882558577
 10
879.3457698825287
 20
310.3171236118678
 10
881.3963235627832
 20
310.3171236118678
 10
881.7380825094923
 20
309.97536466515874
 10
883.788636189747
 20
309.97536466515874
 10
884.1303951364561
 20
309.63360571844964
 10
885.8391898700016
 20
309.63360571844964
 10
886.1809488167107
 20
309.29184677174055
 10
888.5732614436745
 20
309.29184677174055
 10
888.9150203903836
 20
308.9500878250314
 10
890.9655740706382
 20
308.9500878250314
 10
891.3073330173473
 20
308.6083288783223
 10
896.775476164693
 20
308.6083288783223
 10
897.1172351114021
 20
308.2665699316132
 10
905.6612087791298
 20
308.2665699316132
 10
906.686485619257
 20
307.2412930914859
 10
906.686485619257
 20
306.5577751980677
 10
907.0282445659661
 20
306.2160162513586
 10
907.0282445659661
 20
303.48194467768576
 10
907.3700035126752
 20
303.1401857309766
 10
907.3700035126752
 20
299.7225962638856
 10
907.0282445659661
 20
299.3808373171765
 10
907.0282445659661
 20
295.9632478500854
 10
906.686485619257
 20
295.6214889033763
 10
906.686485619257
 20
292.20389943628527
 10
906.344726672548
 20
291.8621404895761
 10
906.344726672548
 20
290.83686364944884
 10
906.686485619257
 20
290.49510470273975
 10
906.686485619257
 20
266.57197843310234
 10
907.0282445659661
 20
266.23021948639325
 10
907.0282445659661
 20
251.5345847779017
 10
907.3700035126752
 20
251.19282583119258
 10
907.3700035126752
 20
249.82579004435615
 10
907.0282445659661
 20
249.48403109764706
 10
907.0282445659661
 20
246.40820057726512
 10
907.3700035126752
 20
246.066441630556
 10
907.3700035126752
 20
244.35764689701048
 10
907.0282445659661
 20
244.01588795030136
 10
907.0282445659661
 20
241.62357532333763
 10
907.3700035126752
 20
241.2818163766285
 10
907.3700035126752
 20
233.42136060231908
 10
907.0282445659661
 20
233.07960165561
 10
907.0282445659661
 20
232.39608376219178
 10
907.3700035126752
 20
232.0543248154827
 10
907.3700035126752
 20
225.90266377471877
 10
907.0282445659661
 20
225.56090482800968
 10
907.0282445659661
 20
218.38396694711847
 10
906.686485619257
 20
218.04220800040935
 10
906.686485619257
 20
216.67517221357292
 10
907.0282445659661
 20
216.33341326686383
 10
907.0282445659661
 20
213.94110063990007
 10
906.686485619257
 20
213.59934169319098
 10
906.686485619257
 20
203.0048143452087
 10
906.344726672548
 20
202.6630553984996
 10
906.344726672548
 20
196.5113943577357
 10
906.0029677258389
 20
196.1696354110266
 10
906.0029677258389
 20
188.30917963671718
 10
905.6612087791298
 20
187.96742069000805
 10
905.6612087791298
 20
181.13224175582596
 10
905.3194498324207
 20
180.79048280911684
 10
905.3194498324207
 20
178.7399291288622
 10
904.9776908857115
 20
178.3981701821531
 10
904.9776908857115
 20
177.03113439531668
 10
905.3194498324207
 20
176.68937544860756
 10
905.3194498324207
 20
172.58826808809832
 10
904.9776908857115
 20
172.2465091413892
 10
904.9776908857115
 20
169.51243756771635
 10
904.6359319390024
 20
169.17067862100726
 10
904.6359319390024
 20
161.65198179340692
 10
904.2941729922933
 20
161.31022284669783
 10
904.2941729922933
 20
160.28494600657052
 10
903.9524140455842
 20
159.9431870598614
 10
903.9524140455842
 20
158.9179102197341
 10
904.2941729922933
 20
158.57615127302498
 10
904.2941729922933
 20
150.37393655200646
 10
904.6359319390024
 20
150.03217760529733
 10
904.6359319390024
 20
148.32338287175182
 10
904.2941729922933
 20
147.9816239250427
 10
904.2941729922933
 20
146.27282919149718
 10
904.6359319390024
 20
145.93107024478806
 10
904.6359319390024
 20
144.90579340466076
 10
904.2941729922933
 20
144.56403445795166
 10
904.2941729922933
 20
137.38709657706045
 10
903.9524140455842
 20
137.04533763035133
 10
903.9524140455842
 20
136.70357868364223
 10
903.6106550988751
 20
136.3618197369331
 10
903.268896152166
 20
136.3618197369331
 10
902.9271372054569
 20
136.02006079022402
 10
900.1930656317841
 20
136.02006079022402
 10
899.851306685075
 20
135.6783018435149
 10
887.206225656838
 20
135.6783018435149
 10
886.8644667101289
 20
135.3365428968058
 10
883.4468772430379
 20
135.3365428968058
 10
883.1051182963288
 20
134.9947839500967
 10
879.6875288292377
 20
134.9947839500967
 10
879.3457698825287
 20
134.6530250033876
 10
873.1941088417647
 20
134.6530250033876
 10
872.8523498950556
 20
134.31126605667848
 10
864.9918941207462
 20
134.31126605667848
 10
864.650135174037
 20
133.96950710996938
 10
855.4226436128912
 20
133.96950710996938
 10
855.0808846661821
 20
133.62774816326026
 10
850.6380183589638
 20
133.62774816326026
 10
850.2962594122546
 20
133.28598921655117
 10
840.3852499576906
 20
133.28598921655117
 10
840.0434910109815
 20
132.94423026984205
 10
830.4742405031266
 20
132.94423026984205
 10
830.1324815564174
 20
132.60247132313296
 10
818.8544363150169
 20
132.60247132313296
 10
818.5126773683078
 20
132.26071237642384
 10
809.285185807162
 20
132.26071237642384
 10
808.9434268604529
 20
131.91895342971475
 10
798.3488995124706
 20
131.91895342971475
 10
798.0071405657615
 20
131.57719448300563
 10
796.6401047789251
 20
131.57719448300563
 10
796.298345832216
 20
131.91895342971475
 10
795.6148279387977
 20
131.91895342971475
 10
795.2730689920886
 20
131.57719448300563
 10
784.6785416441064
 20
131.57719448300563
 10
784.3367826973972
 20
131.23543553629654
 10
775.4510500829605
 20
131.23543553629654
 10
775.1092911362514
 20
130.89367658958744
 10
767.2488353619419
 20
130.89367658958744
 10
766.9070764152328
 20
130.55191764287832
 10
759.7301385343417
 20
130.55191764287832
 10
759.3883795876326
 20
130.21015869616923
 10
751.186164866614
 20
130.21015869616923
 10
750.844405919905
 20
129.8683997494601
 10
742.9839501455955
 20
129.8683997494601
 10
742.6421911988864
 20
129.52664080275102
 10
733.0729406910315
 20
129.52664080275102
 10
732.7311817443223
 20
129.1848818560419
 10
708.4662965279758
 20
129.1848818560419
 10
708.1245375812667
 20
129.52664080275102
 10
701.9728765405029
 20
129.52664080275102
 10
701.6311175937938
 20
129.1848818560419
 10
685.9102060451748
 20
129.1848818560419
 10
685.5684470984658
 20
129.52664080275102
 10
677.3662323774472
 20
129.52664080275102
 10
677.0244734307381
 20
129.1848818560419
 10
674.9739197504834
 20
129.1848818560419
 10
674.6321608037744
 20
129.52664080275102
 10
667.4552229228832
 20
129.52664080275102
 10
667.1134639761741
 20
129.1848818560419
 10
661.3035618821193
 20
129.1848818560419
 10
660.9618029354101
 20
128.8431229093328
 10
650.709034534137
 20
128.8431229093328
 10
650.3672755874279
 20
128.50136396262369
 10
642.5068198131185
 20
128.50136396262369
 10
642.1650608664094
 20
128.1596050159146
 10
626.4441493177904
 20
128.1596050159146
 10
626.1023903710814
 20
127.81784606920547
 10
613.1155503961354
 20
127.81784606920547
 10
612.7737914494263
 20
127.47608712249638
 10
596.7111209540983
 20
127.47608712249638
 10
596.3693620073892
 20
127.13432817578727
 10
564.9275389101515
 20
127.13432817578727
 10
564.5857799634424
 20
126.79256922907817
 10
558.7758778693876
 20
126.79256922907817
 10
558.4341189226785
 20
127.13432817578727
 10
541.6879305339323
 20
127.13432817578727
 10
541.3461715872232
 20
127.47608712249638
 10
515.3724916373312
 20
127.47608712249638
 10
515.0307326906221
 20
127.13432817578727
 10
485.639463273639
 20
127.13432817578727
 10
485.2977043269299
 20
127.47608712249638
 10
479.82956117958423
 20
127.47608712249638
 10
479.4878022328751
 20
127.81784606920547
 10
475.0449359256567
 20
127.81784606920547
 10
474.7031769789476
 20
128.1596050159146
 10
464.45040857767447
 20
128.1596050159146
 10
464.1086496309654
 20
127.81784606920547
 10
460.6910601638743
 20
127.81784606920547
 10
460.3493012171652
 20
127.47608712249638
 10
455.2229170165286
 20
127.47608712249638
 10
454.8811580698195
 20
127.13432817578727
 10
452.8306043895649
 20
127.13432817578727
 10
452.48884544285573
 20
126.79256922907817
 10
450.4382917626011
 20
126.79256922907817
 10
450.09653281589203
 20
126.45081028236906
 10
446.67894334880094
 20
126.45081028236906
 10
446.33718440209185
 20
126.10905133565996
 10
444.9701486152554
 20
126.10905133565996
 10
444.62838966854633
 20
126.45081028236906
 10
439.8437644146189
 20
126.45081028236906
 10
439.5020054679097
 20
126.79256922907817
 10
436.4261749475278
 20
126.79256922907817
 10
436.0844160008187
 20
127.13432817578727
 10
427.54044233309105
 20
127.13432817578727
 10
427.19868338638196
 20
126.79256922907817
 10
424.8063707594182
 20
126.79256922907817
 10
424.4646118127091
 20
126.45081028236906
 10
421.0470223456181
 20
126.45081028236906
 10
420.7052633989089
 20
126.10905133565996
 10
415.2371202515633
 20
126.10905133565996
 10
414.89536130485413
 20
125.76729238895085
 10
404.642592903581
 20
125.76729238895085
 10
404.3008339568719
 20
125.42553344224174
 10
394.3898245023078
 20
125.42553344224174
 10
394.0480655555987
 20
125.08377449553264
 10
386.8711276747075
 20
125.08377449553264
 10
386.52936872799836
 20
124.74201554882353
 10
355.0875456307607
 20
124.74201554882353
 10
354.74578668405155
 20
124.40025660211442
 10
327.74682989403226
 20
124.40025660211442
 10
327.4050709473231
 20
124.05849765540532
 10
296.9885246902127
 20
124.05849765540532
 10
296.64676574350364
 20
123.71673870869621
 10
280.24233630146654
 20
123.71673870869621
 10
279.90057735475744
 20
123.3749797619871
 10
266.91373737981144
 20
123.3749797619871
 10
266.57197843310234
 20
123.033220815278
 10
263.8379068594295
 20
123.033220815278
 10
263.4961479127204
 20
123.3749797619871
 10
262.47087107259307
 20
123.3749797619871
 10
262.129112125884
 20
123.033220815278
 10
251.8763437246108
 20
123.033220815278
 10
251.5345847779017
 20
122.6914618685689
 10
251.19282583119258
 20
123.033220815278
 10
250.8510668844835
 20
123.033220815278
 10
250.50930793777437
 20
122.6914618685689
 10
242.99061111017406
 20
122.6914618685689
 10
242.64885216346494
 20
122.34970292185979
 10
236.49719112270105
 20
122.34970292185979
 10
236.15543217599193
 20
122.00794397515068
 10
230.34553008193714
 20
122.00794397515068
 10
230.00377113522805
 20
121.66618502844157
 10
225.56090482800968
 20
121.66618502844157
 10
225.21914588130056
 20
121.32442608173247
 10
221.1180385207913
 20
121.32442608173247
 10
220.7762795740822
 20
120.98266713502336
 10
215.64989537344562
 20
120.98266713502336
 10
215.3081364267365
 20
120.64090818831426
 10
210.86527011951813
 20
120.64090818831426
 10
210.52351117280904
 20
120.29914924160516
 10
205.05536802546334
 20
120.29914924160516
 10
204.71360907875422
 20
119.95739029489606
 10
201.29601961166318
 20
119.95739029489606
 10
200.95426066495406
 20
119.61563134818695
 10
197.1949122511539
 20
119.61563134818695
 10
196.8531533044448
 20
119.27387240147785
 10
193.09380489064463
 20
119.27387240147785
 10
192.75204594393554
 20
118.93211345476874
 10
189.33445647684448
 20
118.93211345476874
 10
188.9926975301354
 20
118.59035450805963
 10
184.8915901696261
 20
118.59035450805963
 10
184.549831222917
 20
118.24859556135053
 10
181.13224175582596
 20
118.24859556135053
 10
180.79048280911684
 20
117.90683661464142
 10
176.34761650189847
 20
117.90683661464142
 10
176.00585755518935
 20
117.56507766793231
 10
171.9047501946801
 20
117.56507766793231
 10
171.56299124797098
 20
117.22331872122321
 10
164.38605336707977
 20
117.22331872122321
 10
164.04429442037068
 20
116.8815597745141
 10
156.86735653947946
 20
116.8815597745141
 10
156.52559759277034
 20
116.539800827805
 10
148.6651418184609
 20
116.539800827805
 10
148.32338287175182
 20
116.19804188109589
 10
137.38709657706045
 20
116.19804188109589
 10
137.04533763035133
 20
115.85628293438678
 10
136.70357868364223
 20
116.19804188109589
 10
128.1596050159146
 20
116.19804188109589
 10
127.81784606920547
 20
115.85628293438678
 10
120.64090818831426
 20
115.85628293438678
 10
120.29914924160516
 20
116.19804188109589
 10
110.04638084033199
 20
116.19804188109589
 10
109.70462189362289
 20
115.85628293438678
 10
105.26175558640452
 20
115.85628293438678
 10
104.91999663969541
 20
115.51452398767768
 10
101.16064822589524
 20
115.51452398767768
 10
100.81888927918614
 20
115.85628293438678
 10
92.95843350487671
 20
115.85628293438678
 10
92.6166745581676
 20
115.51452398767768
 10
83.04742405031266
 20
115.51452398767768
 10
82.70566510360355
 20
115.85628293438678
 10
78.94631668980338
 20
115.85628293438678
 10
78.60455774309428
 20
116.19804188109589
 10
74.84520932929412
 20
116.19804188109589
 10
74.50345038258502
 20
116.539800827805
 10
68.69354828853022
 20
116.539800827805
 10
68.35178934182112
 20
116.8815597745141
 10
61.858369354348106
 20
116.8815597745141
 10
61.516610407639
 20
117.22331872122321
 10
49.89680621952941
 20
117.22331872122321
 10
49.5550472728203
 20
117.56507766793231
 10
31.100064150528606
 20
117.56507766793231
 10
30.7583052038195
 20
117.90683661464142
 10
28.707751523564866
 20
117.90683661464142
 10
28.36599257685576
 20
117.56507766793231
 10
0.0
 20
117.56507766793231
  0
ENDSEC
  0
SECTION
  2
OBJECTS
  0
DICTIONARY
  5
A
330
0
100
AcDbDictionary
281
1
  3
ACAD_COLOR
350
B
  3
ACAD_GROUP
350
C
  3
ACAD_LAYOUT
350
D
  3
ACAD_MATERIAL
350
E
  3
ACAD_MLEADERSTYLE
350
F
  3
ACAD_MLINESTYLE
350
10
  3
ACAD_PLOTSETTINGS
350
11
  3
ACAD_PLOTSTYLENAME
350
12
  3
ACAD_SCALELIST
350
14
  3
ACAD_TABLESTYLE
350
15
  3
ACAD_VISUALSTYLE
350
16
  3
EZDXF_META
350
2D
  0
DICTIONARY
  5
B
330
A
100
AcDbDictionary
281
1
  0
DICTIONARY
  5
C
330
A
100
AcDbDictionary
281
1
  0
DICTIONARY
  5
D
330
A
100
AcDbDictionary
281
1
  3
Model
350
1A
  3
Layout1
350
1E
  0
DICTIONARY
  5
E
330
A
100
AcDbDictionary
281
1
  3
ByBlock
350
1F
  3
ByLayer
350
20
  3
Global
350
21
  0
DICTIONARY
  5
F
330
A
100
AcDbDictionary
281
1
  3
Standard
350
2C
  0
DICTIONARY
  5
10
330
A
100
AcDbDictionary
281
1
  3
Standard
350
22
  0
DICTIONARY
  5
11
330
A
100
AcDbDictionary
281
1
  0
ACDBDICTIONARYWDFLT
  5
12
330
A
100
AcDbDictionary
281
1
  3
Normal
350
13
100
AcDbDictionaryWithDefault
340
13
  0
ACDBPLACEHOLDER
  5
13
330
12
  0
DICTIONARY
  5
14
330
A
100
AcDbDictionary
281
1
  0
DICTIONARY
  5
15
330
A
100
AcDbDictionary
281
1
  0
DICTIONARY
  5
16
330
A
100
AcDbDictionary
281
1
  3
2dWireframe
350
5A
  3
Basic
350
5B
  3
Brighten
350
5C
  3
ColorChange
350
5D
  3
Conceptual
350
5E
  3
Dim
350
5F
  3
EdgeColorOff
350
60
  3
Facepattern
350
61
  3
Flat
350
62
  3
FlatWithEdges
350
63
  3
Gouraud
350
64
  3
GouraudWithEdges
350
65
  3
Hidden
350
66
  3
JitterOff
350
67
  3
Linepattern
350
68
  3
Modeling
350
69
  3
OverhangOff
350
6A
  3
Realistic
350
6B
  3
Shaded
350
6C
  3
Shaded with edges
350
6D
  3
Shades of Gray
350
6E
  3
Sketchy
350
6F
  3
Thicken
350
70
  3
Wireframe
350
71
  3
X-Ray
350
72
  0
LAYOUT
  5
1A
330
D
100
AcDbPlotSettings
  1

  4
A3
  6

 40
7.5
 41
20.0
 42
7.5
 43
20.0
 44
420.0
 45
297.0
 46
0.0
 47
0.0
 48
0.0
 49
0.0
140
0.0
141
0.0
142
1.0
143
1.0
 70
1024
 72
1
 73
0
 74
5
  7

 75
16
 76
0
 77
2
 78
300
147
1.0
148
0.0
149
0.0
100
AcDbLayout
  1
Model
 70
1
 71
0
 10
0.0
 20
0.0
 11
420.0
 21
297.0
 12
0.0
 22
0.0
 32
0.0
 14
1e+20
 24
1e+20
 34
1e+20
 15
-1e+20
 25
-1e+20
 35
-1e+20
146
0.0
 13
0.0
 23
0.0
 33
0.0
 16
1.0
 26
0.0
 36
0.0
 17
0.0
 27
1.0
 37
0.0
 76
1
330
17
  0
LAYOUT
  5
1E
330
D
100
AcDbPlotSettings
  1

  4
A3
  6

 40
7.5
 41
20.0
 42
7.5
 43
20.0
 44
420.0
 45
297.0
 46
0.0
 47
0.0
 48
0.0
 49
0.0
140
0.0
141
0.0
142
1.0
143
1.0
 70
0
 72
1
 73
0
 74
5
  7

 75
16
 76
0
 77
2
 78
300
147
1.0
148
0.0
149
0.0
100
AcDbLayout
  1
Layout1
 70
1
 71
1
 10
0.0
 20
0.0
 11
420.0
 21
297.0
 12
0.0
 22
0.0
 32
0.0
 14
1e+20
 24
1e+20
 34
1e+20
 15
-1e+20
 25
-1e+20
 35
-1e+20
146
0.0
 13
0.0
 23
0.0
 33
0.0
 16
1.0
 26
0.0
 36
0.0
 17
0.0
 27
1.0
 37
0.0
 76
1
330
1B
  0
MATERIAL
  5
1F
102
{ACAD_REACTORS
330
E
102
}
330
E
100
AcDbMaterial
  1
ByBlock
  2

 70
0
 40
1.0
 71
1
 41
1.0
 91
-1023410177
 42
1.0
 72
1
  3

 73
1
 74
1
 75
1
 44
0.5
 73
0
 45
1.0
 46
1.0
 77
1
  4

 78
1
 79
1
170
1
 48
1.0
171
1
  6

172
1
173
1
174
1
140
1.0
141
1.0
175
1
  7

176
1
177
1
178
1
143
1.0
179
1
  8

270
1
271
1
272
1
145
1.0
146
1.0
273
1
  9

274
1
275
1
276
1
 42
1.0
 72
1
  3

 73
1
 74
1
 75
1
 94
63
  0
MATERIAL
  5
20
102
{ACAD_REACTORS
330
E
102
}
330
E
100
AcDbMaterial
  1
ByLayer
  2

 70
0
 40
1.0
 71
1
 41
1.0
 91
-1023410177
 42
1.0
 72
1
  3

 73
1
 74
1
 75
1
 44
0.5
 73
0
 45
1.0
 46
1.0
 77
1
  4

 78
1
 79
1
170
1
 48
1.0
171
1
  6

172
1
173
1
174
1
140
1.0
141
1.0
175
1
  7

176
1
177
1
178
1
143
1.0
179
1
  8

270
1
271
1
272
1
145
1.0
146
1.0
273
1
  9

274
1
275
1
276
1
 42
1.0
 72
1
  3

 73
1
 74
1
 75
1
 94
63
  0
MATERIAL
  5
21
102
{ACAD_REACTORS
330
E
102
}
330
E
100
AcDbMaterial
  1
Global
  2

 70
0
 40
1.0
 71
1
 41
1.0
 91
-1023410177
 42
1.0
 72
1
  3

 73
1
 74
1
 75
1
 44
0.5
 73
0
 45
1.0
 46
1.0
 77
1
  4

 78
1
 79
1
170
1
 48
1.0
171
1
  6

172
1
173
1
174
1
140
1.0
141
1.0
175
1
  7

176
1
177
1
178
1
143
1.0
179
1
  8

270
1
271
1
272
1
145
1.0
146
1.0
273
1
  9

274
1
275
1
276
1
 42
1.0
 72
1
  3

 73
1
 74
1
 75
1
 94
63
  0
MLINESTYLE
  5
22
102
{ACAD_REACTORS
330
10
102
}
330
10
100
AcDbMlineStyle
  2
Standard
 70
0
  3

 62
256
 51
90.0
 52
90.0
 71
2
 49
0.5
 62
256
  6
BYLAYER
 49
-0.5
 62
256
  6
BYLAYER
  0
MLEADERSTYLE
  5
2C
102
{ACAD_REACTORS
330
F
102
}
330
F
100
AcDbMLeaderStyle
179
2
170
2
171
1
172
0
 90
2
 40
0.0
 41
0.0
173
1
 91
-1056964608
 92
-2
290
1
 42
2.0
291
1
 43
8.0
  3
Standard
 44
4.0
300

342
29
174
1
175
1
176
0
178
1
 93
-1056964608
 45
4.0
292
0
297
0
 46
4.0
 94
-1056964608
 47
1.0
 49
1.0
140
1.0
294
1
141
0.0
177
0
142
1.0
295
0
296
0
143
3.75
271
0
272
9
273
9
  0
DICTIONARY
  5
2D
330
A
100
AcDbDictionary
280
1
281
1
  3
CREATED_BY_EZDXF
350
2E
  3
WRITTEN_BY_EZDXF
350
8E
  0
DICTIONARYVAR
  5
2E
330
2D
100
DictionaryVariables
280
0
  1
1.4.2 @ 2025-06-04T15:39:34.860838+00:00
  0
VISUALSTYLE
  5
5A
102
{ACAD_REACTORS
330
16
102
}
330
16
100
AcDbVisualStyle
  2
2dWireframe
 70
4
177
3
291
0
 70
58
 90
2
176
1
 90
2
176
1
 90
0
176
1
 90
0
176
1
 40
0.6
176
1
 40
30.0
176
1
 62
7
420
16777215
176
1
 90
1
176
1
 90
4
176
1
 62
7
176
1
 62
257
176
1
 90
1
176
1
 90
1
176
1
 40
1.0
176
1
 90
8
176
1
 62
7
176
1
 40
1.0
176
1
 90
1
176
1
 90
6
176
1
 90
2
176
1
 62
7
176
1
 90
5
176
1
 90
0
176
1
 90
0
176
1
290
0
176
1
 90
1
176
1
 40
0.0
176
1
 90
0
176
1
290
1
176
1
290
1
176
1
290
0
176
1
290
0
176
1
290
0
176
1
290
0
176
1
290
0
176
1
290
0
176
1
290
0
176
1
 90
50
176
1
 40
0.0
176
1
 40
1.0
176
1
 90
0
176
1
 62
18
420
0
176
1
 90
50
176
1
 90
3
176
1
 62
5
420
255
176
1
290
0
176
1
 90
50
176
1
 90
50
176
1
 90
50
176
1
290
0
176
1
 90
50
176
1
 62
256
176
0
 40
1.0
176
0
 90
2
176
1
  1
strokes_ogs.tif
176
1
290
0
176
1
 40
1.0
176
1
 40
1.0
176
1
  0
VISUALSTYLE
  5
5B
102
{ACAD_REACTORS
330
16
102
}
330
16
100
AcDbVisualStyle
  2
Basic
 70
7
177
3
291
1
 70
58
 90
2
176
1
 90
2
176
1
 90
0
176
1
 90
1
176
1
 40
0.6
176
1
 40
30.0
176
1
 62
7
420
16777215
176
1
 90
1
176
1
 90
4
176
1
 62
7
176
1
 62
257
176
1
 90
1
176
1
 90
1
176
1
 40
1.0
176
1
 90
8
176
1
 62
7
176
1
 40
1.0
176
1
 90
1
176
1
 90
6
176
1
 90
2
176
1
 62
7
176
1
 90
5
176
1
 90
0
176
1
 90
0
176
1
290
0
176
1
 90
1
176
1
 40
0.0
176
1
 90
0
176
1
290
0
176
1
290
1
176
1
290
1
176
1
290
0
176
1
290
0
176
1
290
0
176
1
290
0
176
1
290
0
176
1
290
0
176
1
 90
50
176
1
 40
0.0
176
1
 40
1.0
176
1
 90
0
176
1
 62
18
420
0
176
1
 90
50
176
1
 90
3
176
1
 62
5
420
255
176
1
290
0
176
1
 90
50
176
1
 90
50
176
1
 90
50
176
1
290
0
176
1
 90
50
176
1
 62
256
176
0
 40
1.0
176
0
 90
2
176
1
  1
strokes_ogs.tif
176
1
290
0
176
1
 40
1.0
176
1
 40
1.0
176
1
  0
VISUALSTYLE
  5
5C
102
{ACAD_REACTORS
330
16
102
}
330
16
100
AcDbVisualStyle
  2
Brighten
 70
12
177
3
291
1
 70
58
 90
2
176
1
 90
2
176
1
 90
0
176
1
 90
2
176
1
 40
0.6
176
1
 40
30.0
176
1
 62
7
420
16777215
176
1
 90
1
176
1
 90
4
176
1
 62
7
176
1
 62
257
176
1
 90
1
176
1
 90
1
176
1
 40
1.0
176
1
 90
8
176
1
 62
7
176
1
 40
1.0
176
1
 90
1
176
1
 90
6
176
1
 90
2
176
1
 62
7
176
1
 90
5
176
1
 90
0
176
1
 90
0
176
1
290
0
176
1
 90
1
176
1
 40
0.0
176
1
 90
0
176
1
290
0
176
1
290
1
176
1
290
1
176
1
290
0
176
1
290
0
176
1
290
0
176
1
290
0
176
1
290
0
176
1
290
0
176
1
 90
50
176
1
 40
0.0
176
1
 40
1.0
176
1
 90
0
176
1
 62
18
420
0
176
1
 90
50
176
1
 90
3
176
1
 62
5
420
255
176
1
290
0
176
1
 90
50
176
1
 90
50
176
1
 90
50
176
1
290
0
176
1
 90
50
176
1
 62
256
176
0
 40
1.0
176
0
 90
2
176
1
  1
strokes_ogs.tif
176
1
290
0
176
1
 40
1.0
176
1
 40
1.0
176
1
  0
VISUALSTYLE
  5
5D
102
{ACAD_REACTORS
330
16
102
}
330
16
100
AcDbVisualStyle
  2
ColorChange
 70
16
177
3
291
1
 70
58
 90
2
176
1
 90
2
176
1
 90
0
176
1
 90
2
176
1
 40
0.6
176
1
 40
30.0
176
1
 62
7
420
16777215
176
1
 90
1
176
1
 90
4
176
1
 62
7
176
1
 62
257
176
1
 90
1
176
1
 90
1
176
1
 40
1.0
176
1
 90
8
176
1
 62
7
176
1
 40
1.0
176
1
 90
1
176
1
 90
6
176
1
 90
2
176
1
 62
7
176
1
 90
5
176
1
 90
0
176
1
 90
0
176
1
290
0
176
1
 90
1
176
1
 40
0.0
176
1
 90
0
176
1
290
0
176
1
290
1
176
1
290
1
176
1
290
0
176
1
290
0
176
1
290
0
176
1
290
0
176
1
290
0
176
1
290
0
176
1
 90
50
176
1
 40
0.0
176
1
 40
1.0
176
1
 90
0
176
1
 62
18
420
0
176
1
 90
50
176
1
 90
3
176
1
 62
5
420
255
176
1
290
0
176
1
 90
50
176
1
 90
50
176
1
 90
50
176
1
290
0
176
1
 90
50
176
1
 62
256
176
0
 40
1.0
176
0
 90
2
176
1
  1
strokes_ogs.tif
176
1
290
0
176
1
 40
1.0
176
1
 40
1.0
176
1
  0
VISUALSTYLE
  5
5E
102
{ACAD_REACTORS
330
16
102
}
330
16
100
AcDbVisualStyle
  2
Conceptual
 70
9
177
3
291
0
 70
58
 90
2
176
1
 90
2
176
1
 90
0
176
1
 90
3
176
1
 40
0.6
176
1
 40
30.0
176
1
 62
7
420
16777215
176
1
 90
1
176
1
 90
4
176
1
 62
7
176
1
 62
257
176
1
 90
1
176
1
 90
1
176
1
 40
1.0
176
1
 90
8
176
1
 62
7
176
1
 40
1.0
176
1
 90
1
176
1
 90
6
176
1
 90
2
176
1
 62
7
176
1
 90
5
176
1
 90
0
176
1
 90
0
176
1
290
0
176
1
 90
1
176
1
 40
0.0
176
1
 90
0
176
1
290
0
176
1
290
1
176
1
290
1
176
1
290
0
176
1
290
0
176
1
290
0
176
1
290
0
176
1
290
0
176
1
290
0
176
1
 90
50
176
1
 40
0.0
176
1
 40
1.0
176
1
 90
0
176
1
 62
18
420
0
176
1
 90
50
176
1
 90
3
176
1
 62
5
420
255
176
1
290
0
176
1
 90
50
176
1
 90
50
176
1
 90
50
176
1
290
0
176
1
 90
50
176
1
 62
256
176
0
 40
1.0
176
0
 90
2
176
1
  1
strokes_ogs.tif
176
1
290
0
176
1
 40
1.0
176
1
 40
1.0
176
1
  0
VISUALSTYLE
  5
5F
102
{ACAD_REACTORS
330
16
102
}
330
16
100
AcDbVisualStyle
  2
Dim
 70
11
177
3
291
1
 70
58
 90
2
176
1
 90
2
176
1
 90
0
176
1
 90
2
176
1
 40
0.6
176
1
 40
30.0
176
1
 62
7
420
16777215
176
1
 90
1
176
1
 90
4
176
1
 62
7
176
1
 62
257
176
1
 90
1
176
1
 90
1
176
1
 40
1.0
176
1
 90
8
176
1
 62
7
176
1
 40
1.0
176
1
 90
1
176
1
 90
6
176
1
 90
2
176
1
 62
7
176
1
 90
5
176
1
 90
0
176
1
 90
0
176
1
290
0
176
1
 90
1
176
1
 40
0.0
176
1
 90
0
176
1
290
0
176
1
290
1
176
1
290
1
176
1
290
0
176
1
290
0
176
1
290
0
176
1
290
0
176
1
290
0
176
1
290
0
176
1
 90
50
176
1
 40
0.0
176
1
 40
1.0
176
1
 90
0
176
1
 62
18
420
0
176
1
 90
50
176
1
 90
3
176
1
 62
5
420
255
176
1
290
0
176
1
 90
50
176
1
 90
50
176
1
 90
50
176
1
290
0
176
1
 90
50
176
1
 62
256
176
0
 40
1.0
176
0
 90
2
176
1
  1
strokes_ogs.tif
176
1
290
0
176
1
 40
1.0
176
1
 40
1.0
176
1
  0
VISUALSTYLE
  5
60
102
{ACAD_REACTORS
330
16
102
}
330
16
100
AcDbVisualStyle
  2
EdgeColorOff
 70
22
177
3
291
1
 70
58
 90
2
176
1
 90
2
176
1
 90
0
176
1
 90
2
176
1
 40
0.6
176
1
 40
30.0
176
1
 62
7
420
16777215
176
1
 90
1
176
1
 90
4
176
1
 62
7
176
1
 62
257
176
1
 90
1
176
1
 90
1
176
1
 40
1.0
176
1
 90
8
176
1
 62
7
176
1
 40
1.0
176
1
 90
1
176
1
 90
6
176
1
 90
2
176
1
 62
7
176
1
 90
5
176
1
 90
0
176
1
 90
0
176
1
290
0
176
1
 90
1
176
1
 40
0.0
176
1
 90
0
176
1
290
0
176
1
290
1
176
1
290
1
176
1
290
0
176
1
290
0
176
1
290
0
176
1
290
0
176
1
290
0
176
1
290
0
176
1
 90
50
176
1
 40
0.0
176
1
 40
1.0
176
1
 90
0
176
1
 62
18
420
0
176
1
 90
50
176
1
 90
3
176
1
 62
5
420
255
176
1
290
0
176
1
 90
50
176
1
 90
50
176
1
 90
50
176
1
290
0
176
1
 90
50
176
1
 62
256
176
0
 40
1.0
176
0
 90
2
176
1
  1
strokes_ogs.tif
176
1
290
0
176
1
 40
1.0
176
1
 40
1.0
176
1
  0
VISUALSTYLE
  5
61
102
{ACAD_REACTORS
330
16
102
}
330
16
100
AcDbVisualStyle
  2
Facepattern
 70
15
177
3
291
1
 70
58
 90
2
176
1
 90
2
176
1
 90
0
176
1
 90
2
176
1
 40
0.6
176
1
 40
30.0
176
1
 62
7
420
16777215
176
1
 90
1
176
1
 90
4
176
1
 62
7
176
1
 62
257
176
1
 90
1
176
1
 90
1
176
1
 40
1.0
176
1
 90
8
176
1
 62
7
176
1
 40
1.0
176
1
 90
1
176
1
 90
6
176
1
 90
2
176
1
 62
7
176
1
 90
5
176
1
 90
0
176
1
 90
0
176
1
290
0
176
1
 90
1
176
1
 40
0.0
176
1
 90
0
176
1
290
0
176
1
290
1
176
1
290
1
176
1
290
0
176
1
290
0
176
1
290
0
176
1
290
0
176
1
290
0
176
1
290
0
176
1
 90
50
176
1
 40
0.0
176
1
 40
1.0
176
1
 90
0
176
1
 62
18
420
0
176
1
 90
50
176
1
 90
3
176
1
 62
5
420
255
176
1
290
0
176
1
 90
50
176
1
 90
50
176
1
 90
50
176
1
290
0
176
1
 90
50
176
1
 62
256
176
0
 40
1.0
176
0
 90
2
176
1
  1
strokes_ogs.tif
176
1
290
0
176
1
 40
1.0
176
1
 40
1.0
176
1
  0
VISUALSTYLE
  5
62
102
{ACAD_REACTORS
330
16
102
}
330
16
100
AcDbVisualStyle
  2
Flat
 70
0
177
3
291
1
 70
58
 90
2
176
1
 90
2
176
1
 90
0
176
1
 90
2
176
1
 40
0.6
176
1
 40
30.0
176
1
 62
7
420
16777215
176
1
 90
1
176
1
 90
4
176
1
 62
7
176
1
 62
257
176
1
 90
1
176
1
 90
1
176
1
 40
1.0
176
1
 90
8
176
1
 62
7
176
1
 40
1.0
176
1
 90
1
176
1
 90
6
176
1
 90
2
176
1
 62
7
176
1
 90
5
176
1
 90
0
176
1
 90
0
176
1
290
0
176
1
 90
1
176
1
 40
0.0
176
1
 90
0
176
1
290
0
176
1
290
1
176
1
290
1
176
1
290
0
176
1
290
0
176
1
290
0
176
1
290
0
176
1
290
0
176
1
290
0
176
1
 90
50
176
1
 40
0.0
176
1
 40
1.0
176
1
 90
0
176
1
 62
18
420
0
176
1
 90
50
176
1
 90
3
176
1
 62
5
420
255
176
1
290
0
176
1
 90
50
176
1
 90
50
176
1
 90
50
176
1
290
0
176
1
 90
50
176
1
 62
256
176
0
 40
1.0
176
0
 90
2
176
1
  1
strokes_ogs.tif
176
1
290
0
176
1
 40
1.0
176
1
 40
1.0
176
1
  0
VISUALSTYLE
  5
63
102
{ACAD_REACTORS
330
16
102
}
330
16
100
AcDbVisualStyle
  2
FlatWithEdges
 70
1
177
3
291
1
 70
58
 90
2
176
1
 90
2
176
1
 90
0
176
1
 90
2
176
1
 40
0.6
176
1
 40
30.0
176
1
 62
7
420
16777215
176
1
 90
1
176
1
 90
4
176
1
 62
7
176
1
 62
257
176
1
 90
1
176
1
 90
1
176
1
 40
1.0
176
1
 90
8
176
1
 62
7
176
1
 40
1.0
176
1
 90
1
176
1
 90
6
176
1
 90
2
176
1
 62
7
176
1
 90
5
176
1
 90
0
176
1
 90
0
176
1
290
0
176
1
 90
1
176
1
 40
0.0
176
1
 90
0
176
1
290
0
176
1
290
1
176
1
290
1
176
1
290
0
176
1
290
0
176
1
290
0
176
1
290
0
176
1
290
0
176
1
290
0
176
1
 90
50
176
1
 40
0.0
176
1
 40
1.0
176
1
 90
0
176
1
 62
18
420
0
176
1
 90
50
176
1
 90
3
176
1
 62
5
420
255
176
1
290
0
176
1
 90
50
176
1
 90
50
176
1
 90
50
176
1
290
0
176
1
 90
50
176
1
 62
256
176
0
 40
1.0
176
0
 90
2
176
1
  1
strokes_ogs.tif
176
1
290
0
176
1
 40
1.0
176
1
 40
1.0
176
1
  0
VISUALSTYLE
  5
64
102
{ACAD_REACTORS
330
16
102
}
330
16
100
AcDbVisualStyle
  2
Gouraud
 70
2
177
3
291
1
 70
58
 90
2
176
1
 90
2
176
1
 90
0
176
1
 90
2
176
1
 40
0.6
176
1
 40
30.0
176
1
 62
7
420
16777215
176
1
 90
1
176
1
 90
4
176
1
 62
7
176
1
 62
257
176
1
 90
1
176
1
 90
1
176
1
 40
1.0
176
1
 90
8
176
1
 62
7
176
1
 40
1.0
176
1
 90
1
176
1
 90
6
176
1
 90
2
176
1
 62
7
176
1
 90
5
176
1
 90
0
176
1
 90
0
176
1
290
0
176
1
 90
1
176
1
 40
0.0
176
1
 90
0
176
1
290
0
176
1
290
1
176
1
290
1
176
1
290
0
176
1
290
0
176
1
290
0
176
1
290
0
176
1
290
0
176
1
290
0
176
1
 90
50
176
1
 40
0.0
176
1
 40
1.0
176
1
 90
0
176
1
 62
18
420
0
176
1
 90
50
176
1
 90
3
176
1
 62
5
420
255
176
1
290
0
176
1
 90
50
176
1
 90
50
176
1
 90
50
176
1
290
0
176
1
 90
50
176
1
 62
256
176
0
 40
1.0
176
0
 90
2
176
1
  1
strokes_ogs.tif
176
1
290
0
176
1
 40
1.0
176
1
 40
1.0
176
1
  0
VISUALSTYLE
  5
65
102
{ACAD_REACTORS
330
16
102
}
330
16
100
AcDbVisualStyle
  2
GouraudWithEdges
 70
3
177
3
291
1
 70
58
 90
2
176
1
 90
2
176
1
 90
0
176
1
 90
2
176
1
 40
0.6
176
1
 40
30.0
176
1
 62
7
420
16777215
176
1
 90
1
176
1
 90
4
176
1
 62
7
176
1
 62
257
176
1
 90
1
176
1
 90
1
176
1
 40
1.0
176
1
 90
8
176
1
 62
7
176
1
 40
1.0
176
1
 90
1
176
1
 90
6
176
1
 90
2
176
1
 62
7
176
1
 90
5
176
1
 90
0
176
1
 90
0
176
1
290
0
176
1
 90
1
176
1
 40
0.0
176
1
 90
0
176
1
290
0
176
1
290
1
176
1
290
1
176
1
290
0
176
1
290
0
176
1
290
0
176
1
290
0
176
1
290
0
176
1
290
0
176
1
 90
50
176
1
 40
0.0
176
1
 40
1.0
176
1
 90
0
176
1
 62
18
420
0
176
1
 90
50
176
1
 90
3
176
1
 62
5
420
255
176
1
290
0
176
1
 90
50
176
1
 90
50
176
1
 90
50
176
1
290
0
176
1
 90
50
176
1
 62
256
176
0
 40
1.0
176
0
 90
2
176
1
  1
strokes_ogs.tif
176
1
290
0
176
1
 40
1.0
176
1
 40
1.0
176
1
  0
VISUALSTYLE
  5
66
102
{ACAD_REACTORS
330
16
102
}
330
16
100
AcDbVisualStyle
  2
Hidden
 70
6
177
3
291
0
 70
58
 90
2
176
1
 90
2
176
1
 90
0
176
1
 90
1
176
1
 40
0.6
176
1
 40
30.0
176
1
 62
7
420
16777215
176
1
 90
1
176
1
 90
4
176
1
 62
7
176
1
 62
257
176
1
 90
1
176
1
 90
1
176
1
 40
1.0
176
1
 90
8
176
1
 62
7
176
1
 40
1.0
176
1
 90
1
176
1
 90
6
176
1
 90
2
176
1
 62
7
176
1
 90
5
176
1
 90
0
176
1
 90
0
176
1
290
0
176
1
 90
1
176
1
 40
0.0
176
1
 90
0
176
1
290
0
176
1
290
1
176
1
290
1
176
1
290
0
176
1
290
0
176
1
290
0
176
1
290
0
176
1
290
0
176
1
290
0
176
1
 90
50
176
1
 40
0.0
176
1
 40
1.0
176
1
 90
0
176
1
 62
18
420
0
176
1
 90
50
176
1
 90
3
176
1
 62
5
420
255
176
1
290
0
176
1
 90
50
176
1
 90
50
176
1
 90
50
176
1
290
0
176
1
 90
50
176
1
 62
256
176
0
 40
1.0
176
0
 90
2
176
1
  1
strokes_ogs.tif
176
1
290
0
176
1
 40
1.0
176
1
 40
1.0
176
1
  0
VISUALSTYLE
  5
67
102
{ACAD_REACTORS
330
16
102
}
330
16
100
AcDbVisualStyle
  2
JitterOff
 70
20
177
3
291
1
 70
58
 90
2
176
1
 90
2
176
1
 90
0
176
1
 90
2
176
1
 40
0.6
176
1
 40
30.0
176
1
 62
7
420
16777215
176
1
 90
1
176
1
 90
4
176
1
 62
7
176
1
 62
257
176
1
 90
1
176
1
 90
1
176
1
 40
1.0
176
1
 90
8
176
1
 62
7
176
1
 40
1.0
176
1
 90
1
176
1
 90
6
176
1
 90
2
176
1
 62
7
176
1
 90
5
176
1
 90
0
176
1
 90
0
176
1
290
0
176
1
 90
1
176
1
 40
0.0
176
1
 90
0
176
1
290
0
176
1
290
1
176
1
290
1
176
1
290
0
176
1
290
0
176
1
290
0
176
1
290
0
176
1
290
0
176
1
290
0
176
1
 90
50
176
1
 40
0.0
176
1
 40
1.0
176
1
 90
0
176
1
 62
18
420
0
176
1
 90
50
176
1
 90
3
176
1
 62
5
420
255
176
1
290
0
176
1
 90
50
176
1
 90
50
176
1
 90
50
176
1
290
0
176
1
 90
50
176
1
 62
256
176
0
 40
1.0
176
0
 90
2
176
1
  1
strokes_ogs.tif
176
1
290
0
176
1
 40
1.0
176
1
 40
1.0
176
1
  0
VISUALSTYLE
  5
68
102
{ACAD_REACTORS
330
16
102
}
330
16
100
AcDbVisualStyle
  2
Linepattern
 70
14
177
3
291
1
 70
58
 90
2
176
1
 90
2
176
1
 90
0
176
1
 90
2
176
1
 40
0.6
176
1
 40
30.0
176
1
 62
7
420
16777215
176
1
 90
1
176
1
 90
4
176
1
 62
7
176
1
 62
257
176
1
 90
1
176
1
 90
1
176
1
 40
1.0
176
1
 90
8
176
1
 62
7
176
1
 40
1.0
176
1
 90
1
176
1
 90
6
176
1
 90
2
176
1
 62
7
176
1
 90
5
176
1
 90
0
176
1
 90
0
176
1
290
0
176
1
 90
1
176
1
 40
0.0
176
1
 90
0
176
1
290
0
176
1
290
1
176
1
290
1
176
1
290
0
176
1
290
0
176
1
290
0
176
1
290
0
176
1
290
0
176
1
290
0
176
1
 90
50
176
1
 40
0.0
176
1
 40
1.0
176
1
 90
0
176
1
 62
18
420
0
176
1
 90
50
176
1
 90
3
176
1
 62
5
420
255
176
1
290
0
176
1
 90
50
176
1
 90
50
176
1
 90
50
176
1
290
0
176
1
 90
50
176
1
 62
256
176
0
 40
1.0
176
0
 90
2
176
1
  1
strokes_ogs.tif
176
1
290
0
176
1
 40
1.0
176
1
 40
1.0
176
1
  0
VISUALSTYLE
  5
69
102
{ACAD_REACTORS
330
16
102
}
330
16
100
AcDbVisualStyle
  2
Modeling
 70
10
177
3
291
0
 70
58
 90
2
176
1
 90
2
176
1
 90
0
176
1
 90
2
176
1
 40
0.6
176
1
 40
30.0
176
1
 62
7
420
16777215
176
1
 90
1
176
1
 90
4
176
1
 62
7
176
1
 62
257
176
1
 90
1
176
1
 90
1
176
1
 40
1.0
176
1
 90
8
176
1
 62
7
176
1
 40
1.0
176
1
 90
1
176
1
 90
6
176
1
 90
2
176
1
 62
7
176
1
 90
5
176
1
 90
0
176
1
 90
0
176
1
290
0
176
1
 90
1
176
1
 40
0.0
176
1
 90
0
176
1
290
0
176
1
290
1
176
1
290
1
176
1
290
0
176
1
290
0
176
1
290
0
176
1
290
0
176
1
290
0
176
1
290
0
176
1
 90
50
176
1
 40
0.0
176
1
 40
1.0
176
1
 90
0
176
1
 62
18
420
0
176
1
 90
50
176
1
 90
3
176
1
 62
5
420
255
176
1
290
0
176
1
 90
50
176
1
 90
50
176
1
 90
50
176
1
290
0
176
1
 90
50
176
1
 62
256
176
0
 40
1.0
176
0
 90
2
176
1
  1
strokes_ogs.tif
176
1
290
0
176
1
 40
1.0
176
1
 40
1.0
176
1
  0
VISUALSTYLE
  5
6A
102
{ACAD_REACTORS
330
16
102
}
330
16
100
AcDbVisualStyle
  2
OverhangOff
 70
21
177
3
291
1
 70
58
 90
2
176
1
 90
2
176
1
 90
0
176
1
 90
2
176
1
 40
0.6
176
1
 40
30.0
176
1
 62
7
420
16777215
176
1
 90
1
176
1
 90
4
176
1
 62
7
176
1
 62
257
176
1
 90
1
176
1
 90
1
176
1
 40
1.0
176
1
 90
8
176
1
 62
7
176
1
 40
1.0
176
1
 90
1
176
1
 90
6
176
1
 90
2
176
1
 62
7
176
1
 90
5
176
1
 90
0
176
1
 90
0
176
1
290
0
176
1
 90
1
176
1
 40
0.0
176
1
 90
0
176
1
290
0
176
1
290
1
176
1
290
1
176
1
290
0
176
1
290
0
176
1
290
0
176
1
290
0
176
1
290
0
176
1
290
0
176
1
 90
50
176
1
 40
0.0
176
1
 40
1.0
176
1
 90
0
176
1
 62
18
420
0
176
1
 90
50
176
1
 90
3
176
1
 62
5
420
255
176
1
290
0
176
1
 90
50
176
1
 90
50
176
1
 90
50
176
1
290
0
176
1
 90
50
176
1
 62
256
176
0
 40
1.0
176
0
 90
2
176
1
  1
strokes_ogs.tif
176
1
290
0
176
1
 40
1.0
176
1
 40
1.0
176
1
  0
VISUALSTYLE
  5
6B
102
{ACAD_REACTORS
330
16
102
}
330
16
100
AcDbVisualStyle
  2
Realistic
 70
8
177
3
291
0
 70
58
 90
2
176
1
 90
2
176
1
 90
0
176
1
 90
2
176
1
 40
0.6
176
1
 40
30.0
176
1
 62
7
420
16777215
176
1
 90
1
176
1
 90
4
176
1
 62
7
176
1
 62
257
176
1
 90
1
176
1
 90
1
176
1
 40
1.0
176
1
 90
8
176
1
 62
7
176
1
 40
1.0
176
1
 90
1
176
1
 90
6
176
1
 90
2
176
1
 62
7
176
1
 90
5
176
1
 90
0
176
1
 90
0
176
1
290
0
176
1
 90
1
176
1
 40
0.0
176
1
 90
0
176
1
290
0
176
1
290
1
176
1
290
1
176
1
290
0
176
1
290
0
176
1
290
0
176
1
290
0
176
1
290
0
176
1
290
0
176
1
 90
50
176
1
 40
0.0
176
1
 40
1.0
176
1
 90
0
176
1
 62
18
420
0
176
1
 90
50
176
1
 90
3
176
1
 62
5
420
255
176
1
290
0
176
1
 90
50
176
1
 90
50
176
1
 90
50
176
1
290
0
176
1
 90
50
176
1
 62
256
176
0
 40
1.0
176
0
 90
2
176
1
  1
strokes_ogs.tif
176
1
290
0
176
1
 40
1.0
176
1
 40
1.0
176
1
  0
VISUALSTYLE
  5
6C
102
{ACAD_REACTORS
330
16
102
}
330
16
100
AcDbVisualStyle
  2
Shaded
 70
27
177
3
291
0
 70
58
 90
2
176
1
 90
2
176
1
 90
0
176
1
 90
2
176
1
 40
0.6
176
1
 40
30.0
176
1
 62
7
420
16777215
176
1
 90
1
176
1
 90
4
176
1
 62
7
176
1
 62
257
176
1
 90
1
176
1
 90
1
176
1
 40
1.0
176
1
 90
8
176
1
 62
7
176
1
 40
1.0
176
1
 90
1
176
1
 90
6
176
1
 90
2
176
1
 62
7
176
1
 90
5
176
1
 90
0
176
1
 90
0
176
1
290
0
176
1
 90
1
176
1
 40
0.0
176
1
 90
0
176
1
290
0
176
1
290
1
176
1
290
1
176
1
290
0
176
1
290
0
176
1
290
0
176
1
290
0
176
1
290
0
176
1
290
0
176
1
 90
50
176
1
 40
0.0
176
1
 40
1.0
176
1
 90
0
176
1
 62
18
420
0
176
1
 90
50
176
1
 90
3
176
1
 62
5
420
255
176
1
290
0
176
1
 90
50
176
1
 90
50
176
1
 90
50
176
1
290
0
176
1
 90
50
176
1
 62
256
176
0
 40
1.0
176
0
 90
2
176
1
  1
strokes_ogs.tif
176
1
290
0
176
1
 40
1.0
176
1
 40
1.0
176
1
  0
VISUALSTYLE
  5
6D
102
{ACAD_REACTORS
330
16
102
}
330
16
100
AcDbVisualStyle
  2
Shaded with edges
 70
26
177
3
291
0
 70
58
 90
2
176
1
 90
2
176
1
 90
0
176
1
 90
2
176
1
 40
0.6
176
1
 40
30.0
176
1
 62
7
420
16777215
176
1
 90
1
176
1
 90
4
176
1
 62
7
176
1
 62
257
176
1
 90
1
176
1
 90
1
176
1
 40
1.0
176
1
 90
8
176
1
 62
7
176
1
 40
1.0
176
1
 90
1
176
1
 90
6
176
1
 90
2
176
1
 62
7
176
1
 90
5
176
1
 90
0
176
1
 90
0
176
1
290
0
176
1
 90
1
176
1
 40
0.0
176
1
 90
0
176
1
290
0
176
1
290
1
176
1
290
1
176
1
290
0
176
1
290
0
176
1
290
0
176
1
290
0
176
1
290
0
176
1
290
0
176
1
 90
50
176
1
 40
0.0
176
1
 40
1.0
176
1
 90
0
176
1
 62
18
420
0
176
1
 90
50
176
1
 90
3
176
1
 62
5
420
255
176
1
290
0
176
1
 90
50
176
1
 90
50
176
1
 90
50
176
1
290
0
176
1
 90
50
176
1
 62
256
176
0
 40
1.0
176
0
 90
2
176
1
  1
strokes_ogs.tif
176
1
290
0
176
1
 40
1.0
176
1
 40
1.0
176
1
  0
VISUALSTYLE
  5
6E
102
{ACAD_REACTORS
330
16
102
}
330
16
100
AcDbVisualStyle
  2
Shades of Gray
 70
23
177
3
291
0
 70
58
 90
2
176
1
 90
2
176
1
 90
0
176
1
 90
2
176
1
 40
0.6
176
1
 40
30.0
176
1
 62
7
420
16777215
176
1
 90
1
176
1
 90
4
176
1
 62
7
176
1
 62
257
176
1
 90
1
176
1
 90
1
176
1
 40
1.0
176
1
 90
8
176
1
 62
7
176
1
 40
1.0
176
1
 90
1
176
1
 90
6
176
1
 90
2
176
1
 62
7
176
1
 90
5
176
1
 90
0
176
1
 90
0
176
1
290
0
176
1
 90
1
176
1
 40
0.0
176
1
 90
0
176
1
290
0
176
1
290
1
176
1
290
1
176
1
290
0
176
1
290
0
176
1
290
0
176
1
290
0
176
1
290
0
176
1
290
0
176
1
 90
50
176
1
 40
0.0
176
1
 40
1.0
176
1
 90
0
176
1
 62
18
420
0
176
1
 90
50
176
1
 90
3
176
1
 62
5
420
255
176
1
290
0
176
1
 90
50
176
1
 90
50
176
1
 90
50
176
1
290
0
176
1
 90
50
176
1
 62
256
176
0
 40
1.0
176
0
 90
2
176
1
  1
strokes_ogs.tif
176
1
290
0
176
1
 40
1.0
176
1
 40
1.0
176
1
  0
VISUALSTYLE
  5
6F
102
{ACAD_REACTORS
330
16
102
}
330
16
100
AcDbVisualStyle
  2
Sketchy
 70
24
177
3
291
0
 70
58
 90
2
176
1
 90
2
176
1
 90
0
176
1
 90
1
176
1
 40
0.6
176
1
 40
30.0
176
1
 62
7
420
16777215
176
1
 90
1
176
1
 90
4
176
1
 62
7
176
1
 62
257
176
1
 90
1
176
1
 90
1
176
1
 40
1.0
176
1
 90
8
176
1
 62
7
176
1
 40
1.0
176
1
 90
1
176
1
 90
6
176
1
 90
2
176
1
 62
7
176
1
 90
5
176
1
 90
0
176
1
 90
0
176
1
290
0
176
1
 90
1
176
1
 40
0.0
176
1
 90
0
176
1
290
0
176
1
290
1
176
1
290
1
176
1
290
0
176
1
290
0
176
1
290
0
176
1
290
0
176
1
290
0
176
1
290
0
176
1
 90
50
176
1
 40
0.0
176
1
 40
1.0
176
1
 90
0
176
1
 62
18
420
0
176
1
 90
50
176
1
 90
3
176
1
 62
5
420
255
176
1
290
0
176
1
 90
50
176
1
 90
50
176
1
 90
50
176
1
290
0
176
1
 90
50
176
1
 62
256
176
0
 40
1.0
176
0
 90
2
176
1
  1
strokes_ogs.tif
176
1
290
0
176
1
 40
1.0
176
1
 40
1.0
176
1
  0
VISUALSTYLE
  5
70
102
{ACAD_REACTORS
330
16
102
}
330
16
100
AcDbVisualStyle
  2
Thicken
 70
13
177
3
291
1
 70
58
 90
2
176
1
 90
2
176
1
 90
0
176
1
 90
2
176
1
 40
0.6
176
1
 40
30.0
176
1
 62
7
420
16777215
176
1
 90
1
176
1
 90
4
176
1
 62
7
176
1
 62
257
176
1
 90
1
176
1
 90
1
176
1
 40
1.0
176
1
 90
8
176
1
 62
7
176
1
 40
1.0
176
1
 90
1
176
1
 90
6
176
1
 90
2
176
1
 62
7
176
1
 90
5
176
1
 90
0
176
1
 90
0
176
1
290
0
176
1
 90
1
176
1
 40
0.0
176
1
 90
0
176
1
290
0
176
1
290
1
176
1
290
1
176
1
290
0
176
1
290
0
176
1
290
0
176
1
290
0
176
1
290
0
176
1
290
0
176
1
 90
50
176
1
 40
0.0
176
1
 40
1.0
176
1
 90
0
176
1
 62
18
420
0
176
1
 90
50
176
1
 90
3
176
1
 62
5
420
255
176
1
290
0
176
1
 90
50
176
1
 90
50
176
1
 90
50
176
1
290
0
176
1
 90
50
176
1
 62
256
176
0
 40
1.0
176
0
 90
2
176
1
  1
strokes_ogs.tif
176
1
290
0
176
1
 40
1.0
176
1
 40
1.0
176
1
  0
VISUALSTYLE
  5
71
102
{ACAD_REACTORS
330
16
102
}
330
16
100
AcDbVisualStyle
  2
Wireframe
 70
5
177
3
291
0
 70
58
 90
2
176
1
 90
2
176
1
 90
0
176
1
 90
0
176
1
 40
0.6
176
1
 40
30.0
176
1
 62
7
420
16777215
176
1
 90
1
176
1
 90
4
176
1
 62
7
176
1
 62
257
176
1
 90
1
176
1
 90
1
176
1
 40
1.0
176
1
 90
8
176
1
 62
7
176
1
 40
1.0
176
1
 90
1
176
1
 90
6
176
1
 90
2
176
1
 62
7
176
1
 90
5
176
1
 90
0
176
1
 90
0
176
1
290
0
176
1
 90
1
176
1
 40
0.0
176
1
 90
0
176
1
290
0
176
1
290
1
176
1
290
1
176
1
290
0
176
1
290
0
176
1
290
0
176
1
290
0
176
1
290
0
176
1
290
0
176
1
 90
50
176
1
 40
0.0
176
1
 40
1.0
176
1
 90
0
176
1
 62
18
420
0
176
1
 90
50
176
1
 90
3
176
1
 62
5
420
255
176
1
290
0
176
1
 90
50
176
1
 90
50
176
1
 90
50
176
1
290
0
176
1
 90
50
176
1
 62
256
176
0
 40
1.0
176
0
 90
2
176
1
  1
strokes_ogs.tif
176
1
290
0
176
1
 40
1.0
176
1
 40
1.0
176
1
  0
VISUALSTYLE
  5
72
102
{ACAD_REACTORS
330
16
102
}
330
16
100
AcDbVisualStyle
  2
X-Ray
 70
25
177
3
291
0
 70
58
 90
2
176
1
 90
2
176
1
 90
0
176
1
 90
2
176
1
 40
0.5
176
1
 40
30.0
176
1
 62
7
420
16777215
176
1
 90
1
176
1
 90
4
176
1
 62
7
176
1
 62
257
176
1
 90
1
176
1
 90
1
176
1
 40
1.0
176
1
 90
8
176
1
 62
7
176
1
 40
1.0
176
1
 90
1
176
1
 90
6
176
1
 90
2
176
1
 62
7
176
1
 90
5
176
1
 90
0
176
1
 90
0
176
1
290
0
176
1
 90
1
176
1
 40
0.0
176
1
 90
0
176
1
290
0
176
1
290
1
176
1
290
1
176
1
290
0
176
1
290
0
176
1
290
0
176
1
290
0
176
1
290
0
176
1
290
0
176
1
 90
50
176
1
 40
0.0
176
1
 40
1.0
176
1
 90
0
176
1
 62
18
420
0
176
1
 90
50
176
1
 90
3
176
1
 62
5
420
255
176
1
290
0
176
1
 90
50
176
1
 90
50
176
1
 90
50
176
1
290
0
176
1
 90
50
176
1
 62
256
176
0
 40
1.0
176
0
 90
2
176
1
  1
strokes_ogs.tif
176
1
290
0
176
1
 40
1.0
176
1
 40
1.0
176
1
  0
DICTIONARYVAR
  5
8E
330
2D
100
DictionaryVariables
280
0
  1
1.4.2 @ 2025-06-04T15:39:34.878081+00:00
  0
ENDSEC
  0
EOF
